<svg xmlns="http://www.w3.org/2000/svg" xmlns:xlink="http://www.w3.org/1999/xlink" width="1240" height="384" viewBox="0 0 1240 384">
  <defs>
    <clipPath id="clip-path">
      <rect id="Rectángulo_293760" data-name="Rectángulo 293760" width="1240" height="306" rx="23" transform="translate(180 402)" fill="#fff" stroke="#707070" stroke-width="1"/>
    </clipPath>
    <clipPath id="clip-path-2">
      <rect id="Rectángulo_293887" data-name="Rectángulo 293887" width="598" height="384" rx="12" transform="translate(864.333 70)" fill="#fff" stroke="#707070" stroke-width="1"/>
    </clipPath>
  </defs>
  <g id="Grupo_878564" data-name="Grupo 878564" transform="translate(-180 -402)">
    <g id="Enmascarar_grupo_56" data-name="Enmascarar grupo 56" clip-path="url(#clip-path)">
      <g id="Grupo_108521" data-name="Grupo 108521" transform="translate(41 -1490.551)">
        <g id="Grupo_108486" data-name="Grupo 108486" transform="translate(139 1888.651)">
          <path id="Trazado_121011" data-name="Trazado 121011" d="M0,0H1240V310H0Z" transform="translate(1240 309.997) rotate(180)" fill="#222b5a"/>
        </g>
      </g>
    </g>
    <g id="Enmascarar_grupo_61" data-name="Enmascarar grupo 61" transform="translate(-42.333 332)" opacity="0.124" clip-path="url(#clip-path-2)">
      <g id="Grupo_876759" data-name="Grupo 876759" transform="translate(770.757 69.257)">
        <path id="Trazado_126012" data-name="Trazado 126012" d="M249.243-4.548,271.88,18.089a40.192,40.192,0,0,0,56.841,0L341.689,5.118a7.007,7.007,0,0,1,9.911,0l.129.129a7.225,7.225,0,0,1,.029,10.236l-41.153,41.15a36.661,36.661,0,0,0,0,51.845h0a36.66,36.66,0,0,0,51.845,0L488.043-17.117,515.7-13.349l-45.72,45.72a51.1,51.1,0,0,0,0,72.268h0a51.1,51.1,0,0,0,72.269,0l69.912-69.912a7.778,7.778,0,0,1,11,0h0a7.776,7.776,0,0,1,0,11L519.622,149.258a28.883,28.883,0,0,0,0,40.847h0a28.883,28.883,0,0,0,40.847,0l71.719-71.718a8.33,8.33,0,0,1,11.783,0h0a8.331,8.331,0,0,1,0,11.782l-1.256,1.256a60.989,60.989,0,0,0,0,86.253l53.493,53.493V-39.083" transform="translate(0 -0.186)" fill="#b8e3db"/>
        <circle id="Elipse_5005" data-name="Elipse 5005" cx="16.475" cy="16.475" r="16.475" transform="translate(363.221 74.725)" fill="#31346b"/>
        <g id="Grupo_876758" data-name="Grupo 876758" transform="translate(458.787 134.744)">
          <circle id="Elipse_5006" data-name="Elipse 5006" cx="2.724" cy="2.724" r="2.724" fill="#31346b"/>
          <circle id="Elipse_5007" data-name="Elipse 5007" cx="2.724" cy="2.724" r="2.724" transform="translate(0 14.234)" fill="#31346b"/>
          <circle id="Elipse_5008" data-name="Elipse 5008" cx="2.724" cy="2.724" r="2.724" transform="translate(13.863)" fill="#31346b"/>
          <circle id="Elipse_5009" data-name="Elipse 5009" cx="2.724" cy="2.724" r="2.724" transform="translate(13.863 14.234)" fill="#31346b"/>
        </g>
        <circle id="Elipse_5010" data-name="Elipse 5010" cx="6.729" cy="6.729" r="6.729" transform="translate(590.586 146.912)" fill="#31346b"/>
        <line id="Línea_166" data-name="Línea 166" y1="109.796" x2="109.796" transform="translate(591.677 1.76)" fill="none" stroke="#fff" stroke-linecap="round" stroke-miterlimit="10" stroke-width="3"/>
        <line id="Línea_167" data-name="Línea 167" y1="57.49" x2="57.49" transform="translate(395.475 -13.271)" fill="none" stroke="#fff" stroke-linecap="round" stroke-miterlimit="10" stroke-width="3"/>
        <circle id="Elipse_5011" data-name="Elipse 5011" cx="7.186" cy="7.186" r="7.186" transform="translate(420.628 91.043)" fill="#b8e3db"/>
        <circle id="Elipse_5012" data-name="Elipse 5012" cx="7.186" cy="7.186" r="7.186" transform="translate(649.127 95.38)" fill="#f7f3ea"/>
        <path id="Trazado_126013" data-name="Trazado 126013" d="M622.006-10.442l-52.57,52.571a12.494,12.494,0,0,0,0,17.668h0a12.493,12.493,0,0,0,17.668,0l28.1-28.1a4.3,4.3,0,0,1,6.083,0h0a4.3,4.3,0,0,1,0,6.083l-9.558,9.558a6.758,6.758,0,0,0,0,9.558h0a6.758,6.758,0,0,0,9.558,0l25.76-25.76a18.233,18.233,0,0,1,25.814,0l.706.706,50.109-50.109S622.006-11.022,622.006-10.442Z" transform="translate(-43.271 -3.032)" fill="#cef0e6"/>
        <line id="Línea_168" data-name="Línea 168" x1="101.164" y2="101.164" transform="translate(334.35 -40.444)" fill="none" stroke="#31346b" stroke-linecap="round" stroke-miterlimit="10" stroke-width="3"/>
      </g>
    </g>
    <g id="Grupo_876775" data-name="Grupo 876775" transform="translate(-358.235 31.973)">
      <g id="Grupo_876760" data-name="Grupo 876760">
        <path id="Trazado_126014" data-name="Trazado 126014" d="M585.055,409.486h0a4.5,4.5,0,0,1,6.371,0L604.99,423.05a4.505,4.505,0,0,1,0,6.371h0a4.505,4.505,0,0,1-6.371,0l-13.564-13.564A4.506,4.506,0,0,1,585.055,409.486Z" fill="#727997"/>
        <path id="Trazado_126015" data-name="Trazado 126015" d="M604.99,409.486h0a4.505,4.505,0,0,1,0,6.371l-13.564,13.564a4.506,4.506,0,0,1-6.371,0h0a4.506,4.506,0,0,1,0-6.371l13.564-13.564A4.5,4.5,0,0,1,604.99,409.486Z" fill="#727997"/>
      </g>
      <g id="Grupo_876767" data-name="Grupo 876767">
        <g id="Grupo_876763" data-name="Grupo 876763">
          <g id="Grupo_876761" data-name="Grupo 876761">
            <circle id="Elipse_5013" data-name="Elipse 5013" cx="3.156" cy="3.156" r="3.156" transform="translate(653.207 407.914)" fill="#727997"/>
            <path id="Trazado_126016" data-name="Trazado 126016" d="M659.519,427.559a3.156,3.156,0,1,1-3.156-3.156A3.156,3.156,0,0,1,659.519,427.559Z" fill="#727997"/>
            <circle id="Elipse_5014" data-name="Elipse 5014" cx="3.156" cy="3.156" r="3.156" transform="translate(669.266 407.914)" fill="#727997"/>
            <path id="Trazado_126017" data-name="Trazado 126017" d="M675.577,427.559a3.156,3.156,0,1,1-3.156-3.156A3.156,3.156,0,0,1,675.577,427.559Z" fill="#727997"/>
          </g>
          <g id="Grupo_876762" data-name="Grupo 876762">
            <circle id="Elipse_5015" data-name="Elipse 5015" cx="3.156" cy="3.156" r="3.156" transform="translate(620.7 407.914)" fill="#727997"/>
            <path id="Trazado_126018" data-name="Trazado 126018" d="M627.012,427.559a3.156,3.156,0,1,1-3.156-3.156A3.156,3.156,0,0,1,627.012,427.559Z" fill="#727997"/>
            <circle id="Elipse_5016" data-name="Elipse 5016" cx="3.156" cy="3.156" r="3.156" transform="translate(636.759 407.914)" fill="#727997"/>
            <path id="Trazado_126019" data-name="Trazado 126019" d="M643.071,427.559a3.156,3.156,0,1,1-3.156-3.156A3.156,3.156,0,0,1,643.071,427.559Z" fill="#727997"/>
          </g>
        </g>
        <g id="Grupo_876766" data-name="Grupo 876766">
          <g id="Grupo_876764" data-name="Grupo 876764">
            <circle id="Elipse_5017" data-name="Elipse 5017" cx="3.156" cy="3.156" r="3.156" transform="translate(718.158 407.914)" fill="#727997"/>
            <path id="Trazado_126020" data-name="Trazado 126020" d="M724.47,427.559a3.156,3.156,0,1,1-3.156-3.156A3.156,3.156,0,0,1,724.47,427.559Z" fill="#727997"/>
            <path id="Trazado_126021" data-name="Trazado 126021" d="M740.529,411.07a3.156,3.156,0,1,1-3.156-3.156A3.156,3.156,0,0,1,740.529,411.07Z" fill="#727997"/>
            <path id="Trazado_126022" data-name="Trazado 126022" d="M740.529,427.559a3.156,3.156,0,1,1-3.156-3.156A3.156,3.156,0,0,1,740.529,427.559Z" fill="#727997"/>
          </g>
          <g id="Grupo_876765" data-name="Grupo 876765">
            <circle id="Elipse_5018" data-name="Elipse 5018" cx="3.156" cy="3.156" r="3.156" transform="translate(685.652 407.914)" fill="#727997"/>
            <path id="Trazado_126023" data-name="Trazado 126023" d="M691.964,427.559a3.156,3.156,0,1,1-3.156-3.156A3.156,3.156,0,0,1,691.964,427.559Z" fill="#727997"/>
            <circle id="Elipse_5019" data-name="Elipse 5019" cx="3.156" cy="3.156" r="3.156" transform="translate(701.71 407.914)" fill="#727997"/>
            <path id="Trazado_126024" data-name="Trazado 126024" d="M708.022,427.559a3.156,3.156,0,1,1-3.156-3.156A3.156,3.156,0,0,1,708.022,427.559Z" fill="#727997"/>
          </g>
        </g>
      </g>
    </g>
    <g id="Grupo_876534" data-name="Grupo 876534" transform="translate(274.291 389.364)">
      <g id="Grupo_876499" data-name="Grupo 876499" transform="translate(241.568 175.089)">
        <g id="Grupo_876498" data-name="Grupo 876498">
          <path id="Trazado_120872" data-name="Trazado 120872" d="M392.324,263.219l-.08-1.144s.51-.035,1.366-.033,2.083.031,3.545.14a53.729,53.729,0,0,1,10.56,1.886,49.625,49.625,0,0,1,9.949,4.018,33.729,33.729,0,0,1,3.06,1.787l1.124.74-.643.95-1.1-.721a32.612,32.612,0,0,0-2.985-1.744,48.472,48.472,0,0,0-9.722-3.926,52.575,52.575,0,0,0-10.334-1.845c-1.429-.108-2.622-.147-3.453-.137S392.324,263.219,392.324,263.219Z" transform="translate(-392.244 -262.04)" fill="#108f6e"/>
        </g>
        <path id="Trazado_120873" data-name="Trazado 120873" d="M443.324,282.286a4.318,4.318,0,0,1-1.585-2.593,3.6,3.6,0,0,1,.481-2.8,3.144,3.144,0,0,1,2.554-1.338A5.2,5.2,0,0,1,448,276.745a5,5,0,0,1,1.695,3,3.07,3.07,0,0,1-.859,2.708,3.689,3.689,0,0,1-2.71.975A4.493,4.493,0,0,1,443.324,282.286Z" transform="translate(-412.555 -267.597)" fill="#fce300"/>
        <path id="Trazado_120874" data-name="Trazado 120874" d="M442.968,279.1a8.162,8.162,0,0,0,1.111.432,5.7,5.7,0,0,0,2.181.378,4.361,4.361,0,0,0-.655-2.19,8.3,8.3,0,0,0-.728-1.011,7.053,7.053,0,0,0,2.581-1.267,5.328,5.328,0,0,0,.9-.859,9.147,9.147,0,0,0-3.487-1.06,5.822,5.822,0,0,0-2.549.409,5.414,5.414,0,0,0-2.038,1.348,6.745,6.745,0,0,0-.481,2.373,8.391,8.391,0,0,0,.3,2.373,7.424,7.424,0,0,0,1.35,2.736,6.068,6.068,0,0,0,.708-1.007A5.978,5.978,0,0,0,442.968,279.1Z" transform="translate(-411.791 -266.753)" fill="#108f6e"/>
      </g>
      <ellipse id="Elipse_4975" data-name="Elipse 4975" cx="117.857" cy="9.888" rx="117.857" ry="9.888" transform="translate(41.664 263.489)" fill="#ededed"/>
      <g id="Grupo_876501" data-name="Grupo 876501" transform="translate(36.617 165.509)">
        <g id="Grupo_876500" data-name="Grupo 876500" transform="translate(9.687 3.986)">
          <path id="Trazado_120875" data-name="Trazado 120875" d="M93.738,256.766l-.419,1.16s-.471-.17-1.333-.436-2.094-.631-3.593-1.012a88.979,88.979,0,0,0-11.143-2.1,82.281,82.281,0,0,0-11.313-.59c-1.542.078-2.832.087-3.727.186l-1.408.14-.123-1.227,1.435-.143c.913-.1,2.224-.11,3.794-.188a83.409,83.409,0,0,1,11.49.6,90.319,90.319,0,0,1,11.3,2.132c1.522.387,2.779.754,3.655,1.03S93.738,256.766,93.738,256.766Z" transform="translate(-60.68 -252.542)" fill="#108f6e"/>
        </g>
        <path id="Trazado_120876" data-name="Trazado 120876" d="M48.167,248.814a5.462,5.462,0,0,1,3.611.567,3.523,3.523,0,0,1,1.711,2.6,3.684,3.684,0,0,1-1,2.868,4.777,4.777,0,0,1-2.884,1.63,6.505,6.505,0,0,1-1.713.048,4.6,4.6,0,0,1-1.546-.491,3.915,3.915,0,0,1-2-2.358A3.338,3.338,0,0,1,45,250.686a4.991,4.991,0,0,1,1.332-1.175A4.805,4.805,0,0,1,48.167,248.814Z" transform="translate(-44.231 -246.989)" fill="#fce300"/>
        <path id="Trazado_120877" data-name="Trazado 120877" d="M51.838,249.591a8.936,8.936,0,0,0-1.207.574,4.554,4.554,0,0,0-1.779,1.677,6.362,6.362,0,0,0,2.245.827,8.686,8.686,0,0,0,1.273.167,6.573,6.573,0,0,0-.65,2.931,6.459,6.459,0,0,0,.127,1.32A8.316,8.316,0,0,0,54.6,255.2a7.57,7.57,0,0,0,1.534-2.08,7.1,7.1,0,0,0,.756-2.5,5.9,5.9,0,0,0-1.237-2.3A7.041,7.041,0,0,0,53.49,246.6a9.581,9.581,0,0,0-3.766-.824,5.786,5.786,0,0,0,.38,1.278A7.426,7.426,0,0,0,51.838,249.591Z" transform="translate(-46.13 -245.774)" fill="#108f6e"/>
      </g>
      <path id="Trazado_120878" data-name="Trazado 120878" d="M244.191,108.89s-9.547-4.725-11.217-15.107,14.9-14.32,21.77,2.864c0,0-1.245-18.616,10.091-20.644s9.506,20.621,6.066,24.213c0,0,4.762-3.449,9.431-.585s3.163,14.081-11.9,17.064A26.365,26.365,0,0,1,244.191,108.89Z" transform="translate(-85.155 -10.422)" fill="#ffd200"/>
      <path id="Trazado_120879" data-name="Trazado 120879" d="M264.531,128.191a73.753,73.753,0,0,0-7.5-12.169l.263-.2a74.157,74.157,0,0,1,7.54,12.235Z" transform="translate(-95.092 -26.843)" fill="#fff"/>
      <rect id="Rectángulo_293761" data-name="Rectángulo 293761" width="23.233" height="0.331" transform="matrix(0.17, -0.985, 0.985, 0.17, 177.314, 100.34)" fill="#fff"/>
      <path id="Trazado_120880" data-name="Trazado 120880" d="M122.582,160.729s-3.933-8.626-12.045-8.624-9.286,8.568-4.542,14.926a33.659,33.659,0,0,0-18.98-4.973c-11.194.432-19.467,8.705-17.033,17.952s14.924,11.355,18.493,10.382c0,0-12.329,8.76-7.462,16.709s20.116,0,20.116,0Z" transform="translate(-18.024 -41.759)" fill="#bce13e"/>
      <path id="Trazado_120881" data-name="Trazado 120881" d="M117.145,199.928c-.139-.058-13.943-5.749-21-6.45l.065-.658c7.154.711,21.047,6.439,21.187,6.5Z" transform="translate(-28.955 -58.496)" fill="#fff"/>
      <path id="Trazado_120882" data-name="Trazado 120882" d="M96.261,201.554l-.392-.534c2.77-2.031,8.237-4.065,8.468-4.15l.229.62C104.511,197.511,98.956,199.578,96.261,201.554Z" transform="translate(-28.842 -60.161)" fill="#fff"/>
      <path id="Trazado_120883" data-name="Trazado 120883" d="M119.568,195.4c-.078-.214-1.9-5.251-2.062-7.3l.66-.052c.154,1.959,2.006,7.074,2.024,7.125Z" transform="translate(-37.736 -56.536)" fill="#fff"/>
      <path id="Trazado_120884" data-name="Trazado 120884" d="M100.77,235.374l-.334-.571a38.275,38.275,0,0,1,12.379-4.83l.094.655A37.6,37.6,0,0,0,100.77,235.374Z" transform="translate(-30.719 -73.769)" fill="#fff"/>
      <path id="Trazado_120885" data-name="Trazado 120885" d="M146.489,174.681c-.218-.236-5.347-5.832-6.747-10.384l.633-.194c1.355,4.407,6.548,10.073,6.6,10.13Z" transform="translate(-46.877 -46.691)" fill="#fff"/>
      <g id="Grupo_876502" data-name="Grupo 876502" transform="translate(25.709 175.696)">
        <path id="Trazado_120886" data-name="Trazado 120886" d="M65.132,267.585l-.544-4.034a51.92,51.92,0,0,0-25.532,2.925l-.242,2.859-1.375-2.155q-1.366.629-2.621,1.356l.866,5.283-3.157-3.809a17.67,17.67,0,0,0-5.573,6.146,11.064,11.064,0,0,0-1,7.414,12.085,12.085,0,0,0,2.954,5.783,14.336,14.336,0,0,0,2.464,2.137,18.16,18.16,0,0,0,3.039,1.675c4.386,1.921,10.1,2.625,16.268,2.174l1.462-4.637,2.034,4.267c1.394-.2,2.809-.452,4.218-.766L58,291.426l2.308,2.32q.817-.209,1.632-.443c9.764-2.823,15.929-7.454,19.647-11.409a25.274,25.274,0,0,0,4.993-7.216s-5.609-7.922-19.4-10.687Z" transform="translate(-25.709 -263.071)" fill="#ffd200"/>
      </g>
      <rect id="Rectángulo_293762" data-name="Rectángulo 293762" width="46.207" height="0.662" transform="translate(36.675 195.589) rotate(-10.695)" fill="#fff"/>
      <path id="Trazado_120887" data-name="Trazado 120887" d="M63.436,290.466c-3.236-.188-9.649-2.985-9.92-3.1l.266-.607c.066.029,6.575,2.869,9.692,3.05Z" transform="translate(-11.431 -97.111)" fill="#fff"/>
      <path id="Trazado_120888" data-name="Trazado 120888" d="M74.334,296.965l-.642-.16c.692-2.767,4.271-6.462,4.424-6.618l.473.462C78.554,290.686,74.982,294.372,74.334,296.965Z" transform="translate(-19.725 -98.522)" fill="#fff"/>
      <path id="Trazado_120889" data-name="Trazado 120889" d="M95.179,283.551c-3.713-.85-7.593-4.781-7.757-4.949l.473-.462c.038.039,3.909,3.959,7.432,4.766Z" transform="translate(-25.369 -93.57)" fill="#fff"/>
      <g id="Grupo_876503" data-name="Grupo 876503" transform="translate(230.086 196.722)">
        <path id="Trazado_120890" data-name="Trazado 120890" d="M389.966,321.365l-.869,3.874a50.622,50.622,0,0,0,24.351,5.976l1.19-2.533.528,2.437q1.463-.112,2.857-.352l1-5.128,1.6,4.555a17.242,17.242,0,0,0,7.181-3.735,10.79,10.79,0,0,0,3.43-6.444,11.781,11.781,0,0,0-.743-6.293,13.942,13.942,0,0,0-1.53-2.79,17.716,17.716,0,0,0-2.213-2.562c-3.362-3.244-8.352-5.824-14.148-7.5l-2.909,3.748-.415-4.594c-1.343-.289-2.723-.538-4.119-.728l-.582,2.673-1.325-2.905q-.819-.086-1.644-.148c-9.89-.726-17.1,1.423-21.841,3.781a24.661,24.661,0,0,0-7.013,4.91s2.448,9.148,14.13,16.351Z" transform="translate(-372.747 -298.773)" fill="#ffd200"/>
      </g>
      <rect id="Rectángulo_293763" data-name="Rectángulo 293763" width="0.662" height="45.082" transform="translate(234.104 207.344) rotate(-80.349)" fill="#fff"/>
      <path id="Trazado_120891" data-name="Trazado 120891" d="M437.329,330.933c-.049-.048-5.043-4.852-7.831-6.072l.264-.607c2.9,1.268,7.819,6,8.027,6.2Z" transform="translate(-165.991 -112.526)" fill="#fff"/>
      <path id="Trazado_120892" data-name="Trazado 120892" d="M418.857,319.786l-.284-.6c.046-.022,4.559-2.184,6.03-4.335l.546.373C423.578,317.526,419.049,319.7,418.857,319.786Z" transform="translate(-161.5 -108.662)" fill="#fff"/>
      <path id="Trazado_120893" data-name="Trazado 120893" d="M404.913,326.68c-.022-.049-2.234-4.944-5.182-6.876l.363-.554c3.111,2.038,5.33,6.951,5.423,7.159Z" transform="translate(-153.754 -110.47)" fill="#fff"/>
      <g id="Grupo_876504" data-name="Grupo 876504" transform="translate(206.59 249.218)">
        <rect id="Rectángulo_293764" data-name="Rectángulo 293764" width="24.293" height="1.394" transform="translate(0 22.671) rotate(-68.946)" fill="#bce13e"/>
      </g>
      <g id="Grupo_876505" data-name="Grupo 876505" transform="translate(215.317 249.218)">
        <rect id="Rectángulo_293765" data-name="Rectángulo 293765" width="1.394" height="24.293" transform="translate(0 0.501) rotate(-21.054)" fill="#bce13e"/>
      </g>
      <g id="Grupo_876506" data-name="Grupo 876506" transform="translate(212.329 258.224)">
        <rect id="Rectángulo_293766" data-name="Rectángulo 293766" width="7.542" height="1.394" fill="#bce13e"/>
      </g>
      <g id="Grupo_876507" data-name="Grupo 876507" transform="translate(210.595 263.207)">
        <rect id="Rectángulo_293767" data-name="Rectángulo 293767" width="10.929" height="1.394" fill="#bce13e"/>
      </g>
      <path id="Trazado_120894" data-name="Trazado 120894" d="M86.786,425.78a5.3,5.3,0,0,0,.787,1.618,13.611,13.611,0,0,1,1.551,2.189c.106.425-.4.807-.893.637a36.215,36.215,0,0,1-4.845-2.4c-.829-.638-1.063-.872-1.042-1.021a25.826,25.826,0,0,1,1.323-2.365C83.959,424,86.17,424.013,86.786,425.78Z" transform="translate(-23.281 -153.612)" fill="#91b31e"/>
      <path id="Trazado_120895" data-name="Trazado 120895" d="M103.084,418.466a5.3,5.3,0,0,0,1.464,1.046,13.592,13.592,0,0,1,2.409,1.181c.3.322.031.9-.479.986a36.284,36.284,0,0,1-5.4.207c-1.033-.164-1.35-.257-1.4-.4a25.654,25.654,0,0,1,.032-2.71C99.75,418.252,101.7,417.208,103.084,418.466Z" transform="translate(-30.395 -151.01)" fill="#91b31e"/>
      <path id="Trazado_120896" data-name="Trazado 120896" d="M103.246,366.011s1.7,11.406,1.774,14.391-1.774,16.8-1.774,16.8h-3.6s.351-6.732.351-7.787-.351-10.245-.351-10.245l.351-12.8S102.1,365.086,103.246,366.011Z" transform="translate(-30.395 -129.555)" fill="#0e1a34"/>
      <path id="Trazado_120897" data-name="Trazado 120897" d="M88.339,366.473s-1.126,2.926-.775,8.956a70.282,70.282,0,0,0,.64,7.435s-4.036,15.69-4.563,17.564a8.587,8.587,0,0,0,3.923,1.463s4.274-10.538,5.8-14.285a23.61,23.61,0,0,0,1.975-9.66c.015-3.279.366-12.119.366-12.119Z" transform="translate(-23.815 -129.617)" fill="#0e1a34"/>
      <path id="Trazado_120898" data-name="Trazado 120898" d="M100.767,392.449l-.316-.1a43.957,43.957,0,0,0,1.713-12.754l.331,0A44.274,44.274,0,0,1,100.767,392.449Z" transform="translate(-30.725 -135.278)" fill="#fff"/>
      <path id="Trazado_120899" data-name="Trazado 120899" d="M101.931,356.817s-7.419-1.281-10.106-2.77-2.356-2.811-1.984-3.761,1.529-2.976,1.529-2.976L94,349.191l-.067.586-.449,1.024s.858.544,2.152,1.263S102.2,355.2,102.2,355.2,103.482,356.256,101.931,356.817Z" transform="translate(-26.261 -122.004)" fill="#ff9a5c"/>
      <path id="Trazado_120900" data-name="Trazado 120900" d="M109.834,362.293a4.763,4.763,0,0,0,1.4,1c.058.5.347.713.509.694s.165-.771.165-.771c.144.347.713.694.79.482a1.257,1.257,0,0,0,0-.559s.231.308.405.308.385-.154.308-.539a3.72,3.72,0,0,0-.539-1.273c-.231-.308-.366-.617-.867-.733a8.306,8.306,0,0,0-1.253-.1,11.006,11.006,0,0,0-1.446,0Z" transform="translate(-34.364 -127.543)" fill="#ff9a5c"/>
      <path id="Trazado_120901" data-name="Trazado 120901" d="M91.129,322.367a2.988,2.988,0,0,0-3.774-1.336c-2.787.813-1.916,3.426-3.717,4.53s-4.472,1.684-5.168,4.761,1.452,3.31,0,5.169-1.975,3.194-.407,5.11,4.329,1.336,6.056.407,9.275-4.472,9.275-4.472a2.806,2.806,0,0,0,0-3.833,6.769,6.769,0,0,1-1.277-4.994s.638-.116.871-1.859S92.665,321.84,91.129,322.367Z" transform="translate(-21.129 -111.126)" fill="#753519"/>
      <path id="Trazado_120902" data-name="Trazado 120902" d="M331.56,75.189l.972-.7a29.776,29.776,0,0,0,8.8,6.828c5.459,2.752,7.332,3.8,7.828,3.893s2.843.5,3.655,1.534.9,1.625.721,1.67-1.082-1.263-1.082-1.263.9,1.164.812,1.6-.6-.308-.778-.489-.634-.706-.634-.706a7.156,7.156,0,0,1,1,1.629c.037.38-.6-.108-1.086-.651s-1.032-.8-1.158-.634-.181.833-.38.706-.236-.634-.326-1c-.322-.007-1.793-.537-4.442-1.067s-13.244-5.18-15.658-8.182S331.56,75.189,331.56,75.189Z" transform="translate(-124.696 -9.851)" fill="#ff9a5c"/>
      <g id="Grupo_876508" data-name="Grupo 876508" transform="translate(247.124 151.759)">
        <path id="Trazado_120903" data-name="Trazado 120903" d="M428.535,244.723h0a6.958,6.958,0,0,0,1.677-3.568,6.38,6.38,0,0,0-.847-3.735l.775.825c.458.5,1.1,1.142,1.69,1.827l2.249,2.839a8.139,8.139,0,0,0-1.809,3.613,6.709,6.709,0,0,0,.295,3.838h0a6.662,6.662,0,0,0,2.05-3.293,6.186,6.186,0,0,0,.168-1.9,5.285,5.285,0,0,0-.466-1.959l.392.495c.223.306.491.733.772,1.152l1.114,1.683a7.609,7.609,0,0,0,.3,2.039,6.948,6.948,0,0,0,.691,1.827,7.221,7.221,0,0,0,2.928,2.774h0a7.03,7.03,0,0,0-.762-4,6.276,6.276,0,0,0-1.2-1.605,7.661,7.661,0,0,0-1.8-1.14l-.7-1.053-.714-1.08-.4-.608-.466-.592-2.51-3.168a7.543,7.543,0,0,0,7.629.887h0a7.263,7.263,0,0,0-3.887-1.959,6.235,6.235,0,0,0-3.992.779L429.226,237a22.975,22.975,0,0,0-1.8-1.725l-.842-.761a7.955,7.955,0,0,0,1.914.713,10.124,10.124,0,0,0,1.942.226,7.5,7.5,0,0,0,3.833-1.076h0a8.594,8.594,0,0,0-2.009-1.112,5.843,5.843,0,0,0-2.085-.353,6.437,6.437,0,0,0-3.88,1.344l-.842-.761-1.976-1.529a24.941,24.941,0,0,0-2.015-1.473l-.949-.624a8.033,8.033,0,0,0,2.007.418,7.374,7.374,0,0,0,1.933-.019,7.7,7.7,0,0,0,3.67-1.626h0a7.153,7.153,0,0,0-4.273-.882,6.486,6.486,0,0,0-3.66,1.9l-.949-.624c-.572-.37-1.38-.789-2.167-1.241l-1.164-.653-1.05-.5-1.025-.491a8.549,8.549,0,0,0,3.958-.178,7.706,7.706,0,0,0,3.4-2.137h0a8.776,8.776,0,0,0-2.273-.475,6.7,6.7,0,0,0-1.067.012,6.594,6.594,0,0,0-1.029.218,6.386,6.386,0,0,0-3.334,2.394l-.479-.228-1.3-.527c-1.062-.462-2.522-.967-3.991-1.443-1.479-.442-2.975-.83-4.115-1.043-1.134-.235-1.91-.31-1.91-.31l-.018.188s.537.057,1.339.2,1.863.38,2.916.648c1.045.3,2.094.585,2.859.87l1.286.44a8.194,8.194,0,0,0,.4,4.035,7.392,7.392,0,0,0,2.228,3.067h0a6.692,6.692,0,0,0,.041-3.892,6,6,0,0,0-2.31-3.076l1.048.426c.627.26,1.476.575,2.284.987.813.4,1.639.77,2.239,1.087l.986.554a7.85,7.85,0,0,0-.187,4.021,6.864,6.864,0,0,0,1.757,3.375h0a6.613,6.613,0,0,0,.6-3.828,6.144,6.144,0,0,0-.594-1.813,6.723,6.723,0,0,0-1.238-1.567l.986.554c.607.309,1.342.84,2.1,1.329a32.487,32.487,0,0,1,2.953,2.091,7.811,7.811,0,0,0-.765,3.951,7.2,7.2,0,0,0,1.254,3.609h0a6.7,6.7,0,0,0,1.145-3.72,5.81,5.81,0,0,0-.327-1.882,7.014,7.014,0,0,0-1-1.725l.9.691a22.582,22.582,0,0,1,1.892,1.615l1.847,1.669a7.783,7.783,0,0,1,.576.583l.213.227a7.965,7.965,0,0,0-1.335,3.834,6.367,6.367,0,0,0,.155,1.873A8.237,8.237,0,0,0,428.535,244.723Z" transform="translate(-401.679 -222.425)" fill="#bce13e"/>
      </g>
      <g id="Grupo_876509" data-name="Grupo 876509" transform="translate(53.307 80.176)">
        <path id="Trazado_120904" data-name="Trazado 120904" d="M86.4,112.048h0a8.245,8.245,0,0,0-2.349,4.036,7.5,7.5,0,0,0,.42,4.6l-.794-1.091c-.488-.646-1.1-1.536-1.694-2.436l-1.656-2.462c-.231-.333-.406-.621-.528-.823l-.193-.316a9.022,9.022,0,0,0,2.482-4.156,7.708,7.708,0,0,0,.239-2.281,8.824,8.824,0,0,0-.344-2.371h0a8.277,8.277,0,0,0-2.707,3.821,7.763,7.763,0,0,0,.091,4.6s-.627-1.026-1.254-2.051c-.309-.515-.636-1.021-.853-1.416l-.359-.66a8.7,8.7,0,0,0-.948-4.664,8.528,8.528,0,0,0-3.271-3.5h0a8.44,8.44,0,0,0,.62,4.823,8.105,8.105,0,0,0,3.4,3.449l.2.363c.123.233.3.562.545.943l1.726,2.821c.609,1.038,1.293,2.026,1.8,2.775l.839,1.247a9.047,9.047,0,0,0-4.185-2.122,8.766,8.766,0,0,0-4.714.347h0a9.862,9.862,0,0,0,2.027,1.716,7.556,7.556,0,0,0,2.28.912,8.013,8.013,0,0,0,4.847-.473l.757,1.119,1.75,2.4c1.249,1.764,2.6,3.451,2.6,3.451a9.213,9.213,0,0,0-2.092-1.224,8.026,8.026,0,0,0-2.2-.625,8.79,8.79,0,0,0-4.683.707h0a8.526,8.526,0,0,0,4.446,2.3,8.174,8.174,0,0,0,4.816-.791l.83,1.066c.489.647,1.18,1.477,1.869,2.31l1.892,2.291.885,1.021a8.466,8.466,0,0,0-9.016-.64h0a8.682,8.682,0,0,0,4.555,2.019,8.146,8.146,0,0,0,4.761-1.034l.885,1.02c.526.617,1.24,1.428,1.972,2.223l2,2.2.926.983a8.432,8.432,0,0,0-9.023-.224h0a7.967,7.967,0,0,0,9.338.558l1.576,1.667c.965.982,2.233,2.31,3.544,3.6s2.624,2.569,3.627,3.512,1.687,1.558,1.687,1.558l.15-.168s-1.922-1.739-3.774-3.555c-.935-.9-1.843-1.823-2.536-2.505l-1.135-1.157a8.659,8.659,0,0,0,1.5-4.6,8.392,8.392,0,0,0-1.261-4.6h0a7.816,7.816,0,0,0-.562,8.869s-1.513-1.541-2.983-3.122c-.746-.78-1.473-1.577-2.014-2.18l-.906-1a8.335,8.335,0,0,0,.643-9.169h0a7.8,7.8,0,0,0-.95,8.83l-.9-1-1.945-2.243c-.715-.809-1.4-1.641-1.915-2.267l-.858-1.041a8.748,8.748,0,0,0,1.907-4.437,8.249,8.249,0,0,0-.812-4.67h0a8.245,8.245,0,0,0-2.071,4.18,7.71,7.71,0,0,0,.684,4.575l-.858-1.041-1.826-2.34c-1.349-1.685-2.6-3.446-2.6-3.446a8.764,8.764,0,0,0,2.156-4.319A8.622,8.622,0,0,0,86.4,112.048Z" transform="translate(-72.572 -100.875)" fill="#91b31e"/>
      </g>
      <path id="Trazado_120905" data-name="Trazado 120905" d="M281.626,83.785a3.441,3.441,0,0,1-.837-.675,2.32,2.32,0,0,0-.519-.687,1.832,1.832,0,0,0-.821-.353,3.78,3.78,0,0,0,.67,1.352.333.333,0,0,0,.461-.047,4.478,4.478,0,0,0,.629,1.063S282.17,84.106,281.626,83.785Z" transform="translate(-104.308 -12.969)" fill="#ff9a5c"/>
      <circle id="Elipse_4976" data-name="Elipse 4976" cx="84.181" cy="84.181" r="84.181" transform="translate(75.61 98.316)" fill="#1a6652"/>
      <path id="Trazado_120906" data-name="Trazado 120906" d="M211.558,276.524a75.257,75.257,0,0,1-37.247-140.646A84.19,84.19,0,1,0,275.529,240.911,75.2,75.2,0,0,1,211.558,276.524Z" transform="translate(-34.833 -35.088)" fill="#19614f"/>
      <path id="Trazado_120907" data-name="Trazado 120907" d="M292.69,84.891s-2.01,1.809-2.682,1.809-7.368-2.005-8.631-2.271-1.2.133-1.7.465,1.069,1.339,1.069,1.339,5.978,3.049,9.07,3.78,5.562-1.774,5.562-1.774A2.588,2.588,0,0,0,292.69,84.891Z" transform="translate(-104.363 -13.903)" fill="#ff9a5c"/>
      <path id="Trazado_120908" data-name="Trazado 120908" d="M260.936,88.173a27.5,27.5,0,0,0,7.947-.312s2.012,3.376,2.772,4.623l-.33,1.61a10.884,10.884,0,0,1-7.584,3.688S260.209,92.9,260.936,88.173Z" transform="translate(-96.657 -15.349)" fill="#108f6e"/>
      <g id="Grupo_876510" data-name="Grupo 876510" transform="translate(165.738 66.967)">
        <path id="Trazado_120909" data-name="Trazado 120909" d="M269.4,90a3.885,3.885,0,0,1-1.726-.409l.333-.612a3.089,3.089,0,0,0,2.458.107c1.1-.472,1.918-1.694,2.442-3.632.6-2.206.3-3.968-.862-5.095a5.268,5.268,0,0,0-5.039-.974c-3.141.948-2.822,5.359-2.818,5.4l-.694.057c0-.05-.371-5.017,3.311-6.127a5.94,5.94,0,0,1,5.725,1.141c.943.916,1.89,2.662,1.049,5.777-.584,2.159-1.542,3.536-2.848,4.094A3.377,3.377,0,0,1,269.4,90Z" transform="translate(-263.483 -78.445)" fill="#108f6e"/>
      </g>
      <path id="Trazado_120910" data-name="Trazado 120910" d="M279.111,83.556s-.6-.233-.846.179.759.763,1.611.678S279.964,83.707,279.111,83.556Z" transform="translate(-103.806 -13.553)" fill="#ff9a5c"/>
      <path id="Trazado_120911" data-name="Trazado 120911" d="M278.947,84.59a1.153,1.153,0,0,0-1,.162c-.408.35.9.844,1.9.754S279.948,84.751,278.947,84.59Z" transform="translate(-103.658 -13.984)" fill="#ff9a5c"/>
      <path id="Trazado_120912" data-name="Trazado 120912" d="M310.192,167.689a5.945,5.945,0,0,1-.88,1.812,15.188,15.188,0,0,0-1.737,2.449c-.119.476.452.9,1,.714A40.566,40.566,0,0,0,314,169.976c.928-.713,1.189-.975,1.165-1.141a28.78,28.78,0,0,0-1.481-2.647C313.356,165.695,310.882,165.711,310.192,167.689Z" transform="translate(-115.864 -47.437)" fill="#91b31e"/>
      <path id="Trazado_120913" data-name="Trazado 120913" d="M278.837,85.562a.9.9,0,0,0-.888.193c-.363.374.8.883,1.687.787S280.1,85.626,278.837,85.562Z" transform="translate(-103.664 -14.386)" fill="#ff9a5c"/>
      <path id="Trazado_120914" data-name="Trazado 120914" d="M250.487,94.661s-12.949-2.924-13.427-2.927-2.09-.3-2.866.773a1.548,1.548,0,0,0,.836,1.015c.717.358,1.673-.353,1.673-.353l15.646,5.514A3.185,3.185,0,0,0,250.487,94.661Z" transform="translate(-85.704 -16.925)" fill="#108f6e"/>
      <path id="Trazado_120915" data-name="Trazado 120915" d="M235.346,94.218h0a1.168,1.168,0,0,1-.526-.118,1.709,1.709,0,0,1-.925-1.134l-.029-.162.161-.03a2.861,2.861,0,0,1,.49-.037,3.385,3.385,0,0,1,2.154.733l.165.134-.17.127A2.561,2.561,0,0,1,235.346,94.218Zm-1.071-1.141a1.423,1.423,0,0,0,.693.726.839.839,0,0,0,.378.084,1.993,1.993,0,0,0,.931-.3,3.1,3.1,0,0,0-1.76-.52C234.424,93.068,234.342,93.072,234.276,93.077Z" transform="translate(-85.57 -17.354)" fill="#108f6e"/>
      <path id="Trazado_120916" data-name="Trazado 120916" d="M361,385.173H337.673l3.937-4.536h23.331Z" transform="translate(-128.243 -135.705)" fill="#ffd200"/>
      <path id="Trazado_120917" data-name="Trazado 120917" d="M228.556,93.049s-9.187,9.177-7.964,20.145h11.12s-2.746-13.563-.648-19.483A3.139,3.139,0,0,0,228.556,93.049Z" transform="translate(-80.067 -17.467)" fill="#9ae5e5" opacity="0.79"/>
      <path id="Trazado_120918" data-name="Trazado 120918" d="M303.423,105.608s-8.985,7.1-10.012,9.56,4.055,7.711,4.055,7.711,4.8,17.078,6.454,19.934a20.932,20.932,0,0,0,4.055-1.542s-1.6-15.421-2.342-17.478c0,0,11.655-10.9,13.652-14.132S304.81,104.486,303.423,105.608Z" transform="translate(-109.991 -22.513)" fill="#0e1a34"/>
      <path id="Trazado_120919" data-name="Trazado 120919" d="M320.307,151.484a5.932,5.932,0,0,1,.026,2.014,15.174,15.174,0,0,0-.453,2.968.712.712,0,0,0,1.213.19,40.533,40.533,0,0,0,3.64-4.835c.509-1.054.625-1.4.529-1.543a28.768,28.768,0,0,0-2.511-1.7C322.24,148.283,320.036,149.407,320.307,151.484Z" transform="translate(-120.921 -40.289)" fill="#91b31e"/>
      <path id="Trazado_120920" data-name="Trazado 120920" d="M300.111,128.063c-.115-3.8,6.235-9.919,6.5-10.177l.229.239c-.065.062-6.514,6.275-6.4,9.928Z" transform="translate(-112.801 -27.692)" fill="#fff"/>
      <path id="Trazado_120921" data-name="Trazado 120921" d="M301.564,134.681l11.072,10.084a24.567,24.567,0,0,0,2.42-2.991s-4.033-7.858-5.7-9.459S301.564,134.681,301.564,134.681Z" transform="translate(-113.399 -33.467)" fill="#0e1a34"/>
      <path id="Trazado_120922" data-name="Trazado 120922" d="M355.788,377.467a5.942,5.942,0,0,1-1.565,1.268,15.242,15.242,0,0,0-2.61,1.483c-.309.38.026,1.01.6,1.069a40.565,40.565,0,0,0,6.051-.137c1.143-.253,1.491-.38,1.539-.541a28.9,28.9,0,0,0-.22-3.025C359.5,377,357.25,375.968,355.788,377.467Z" transform="translate(-133.925 -134.083)" fill="#91b31e"/>
      <g id="Grupo_876512" data-name="Grupo 876512" transform="translate(134.617 76.865)">
        <g id="Grupo_876511" data-name="Grupo 876511" transform="translate(3.895 4.265)">
          <path id="Trazado_120923" data-name="Trazado 120923" d="M224.971,119.073l-.671.019s-.006-.262-.067-.747-.164-1.171-.334-1.991a29.977,29.977,0,0,0-1.949-5.827,32.962,32.962,0,0,0-3.029-5.359c-.454-.709-.908-1.247-1.2-1.64l-.47-.612.523-.422.479.622c.3.4.759.948,1.223,1.67a33.7,33.7,0,0,1,3.088,5.465,30.668,30.668,0,0,1,1.993,5.961c.175.843.29,1.552.345,2.055S224.971,119.073,224.971,119.073Z" transform="translate(-217.252 -102.496)" fill="#108f6e"/>
        </g>
        <path id="Trazado_120924" data-name="Trazado 120924" d="M214.514,96.161a2.33,2.33,0,0,1,.117,3.356,2.593,2.593,0,0,1-3.455-3.709C211.973,94.948,213.47,95.1,214.514,96.161Z" transform="translate(-210.639 -95.253)" fill="#fce300"/>
        <path id="Trazado_120925" data-name="Trazado 120925" d="M214.129,97.708a4.347,4.347,0,0,0-.611-.388,2.873,2.873,0,0,0-1.3-.324,2.865,2.865,0,0,0,.281,1.269,5.394,5.394,0,0,0,.293.64,3.7,3.7,0,0,0-2.11,1,4.48,4.48,0,0,0,3.109.814,3.751,3.751,0,0,0,1.357-.393,3.3,3.3,0,0,0,.692-1.259,4.24,4.24,0,0,0-.572-3.44A3.99,3.99,0,0,0,214.129,97.708Z" transform="translate(-210.659 -95.405)" fill="#108f6e"/>
      </g>
      <path id="Trazado_120926" data-name="Trazado 120926" d="M379.239,360.879a5.941,5.941,0,0,1-.275,1.995,15.213,15.213,0,0,0-.892,2.867.713.713,0,0,0,1.171.369,40.582,40.582,0,0,0,4.323-4.236c.661-.966.829-1.3.754-1.446a28.92,28.92,0,0,0-2.228-2.058C381.628,358,379.282,358.785,379.239,360.879Z" transform="translate(-144.85 -126.515)" fill="#91b31e"/>
      <g id="Grupo_876513" data-name="Grupo 876513" transform="translate(127.92 85.534)">
        <path id="Trazado_120927" data-name="Trazado 120927" d="M199.267,110.174a16.3,16.3,0,0,0,6.4,11.311c6.137,4.729,11.91,2.8,11.91,2.8s.4-6.074-5.74-10.8A16.3,16.3,0,0,0,199.267,110.174Z" transform="translate(-199.267 -109.973)" fill="#91b31e"/>
        <rect id="Rectángulo_293768" data-name="Rectángulo 293768" width="0.331" height="19.868" transform="translate(2.47 2.314) rotate(-52.384)" fill="#fff"/>
        <rect id="Rectángulo_293769" data-name="Rectángulo 293769" width="3.723" height="0.331" transform="matrix(1, -0.031, 0.031, 1, 4.501, 6.493)" fill="#fff"/>
        <rect id="Rectángulo_293770" data-name="Rectángulo 293770" width="0.331" height="3.723" transform="translate(6.093 2.073) rotate(-12.947)" fill="#fff"/>
        <rect id="Rectángulo_293771" data-name="Rectángulo 293771" width="3.722" height="0.331" transform="translate(8.551 9.613) rotate(-1.794)" fill="#fff"/>
        <rect id="Rectángulo_293772" data-name="Rectángulo 293772" width="0.331" height="3.723" transform="translate(10.143 5.193) rotate(-12.942)" fill="#fff"/>
        <rect id="Rectángulo_293773" data-name="Rectángulo 293773" width="3.723" height="0.331" transform="translate(12.6 12.733) rotate(-1.784)" fill="#fff"/>
        <rect id="Rectángulo_293774" data-name="Rectángulo 293774" width="0.331" height="3.722" transform="matrix(0.975, -0.224, 0.224, 0.975, 14.192, 8.313)" fill="#fff"/>
      </g>
      <path id="Trazado_120928" data-name="Trazado 120928" d="M239.431,110.07a12.979,12.979,0,0,0-9.009,5.1,10.775,10.775,0,0,0-2.227,9.485,10.776,10.776,0,0,0,8.6-4.571A12.982,12.982,0,0,0,239.431,110.07Z" transform="translate(-83.11 -24.479)" fill="#bce13e"/>
      <g id="Grupo_876516" data-name="Grupo 876516" transform="translate(80.1 51.827)">
        <g id="Grupo_876514" data-name="Grupo 876514" transform="translate(0 0)">
          <path id="Trazado_120929" data-name="Trazado 120929" d="M154.105,97.925l3.466-5.563a61.49,61.49,0,0,0-6.094-15.519,49.449,49.449,0,0,0-8.366-10.9l-4.68,3.289s.615-1.333,1.274-2.655l1.308-2.627a62.673,62.673,0,0,0-10.683-7.632c-1.691-.931-3.173-1.712-4.55-2.316a21.579,21.579,0,0,0-3.519-1.261,19.751,19.751,0,0,0-2.505,5.3,29.608,29.608,0,0,0-1,3.991,39.279,39.279,0,0,0-.6,4.734l2.926,1.182,2.906,1.136-2.951.114-2.965.084a45.192,45.192,0,0,0,6.277,23.267,46.785,46.785,0,0,0,2.649,4.028c.919,1.262,1.856,2.456,2.826,3.558l4.129-.254,4.115-.284-5.186,3.784a54.437,54.437,0,0,0,11.575,8.638c1.572.875,2.881,1.488,3.8,1.892s1.45.6,1.45.6l4.853-3.362,4.853-3.362s.029-.306.031-.91-.007-1.475-.067-2.585a64.222,64.222,0,0,0-1.148-9.011Z" transform="translate(-118.066 -52.737)" fill="#91b31e"/>
        </g>
        <g id="Grupo_876515" data-name="Grupo 876515" transform="translate(8.216 9.771)">
          <path id="Trazado_120930" data-name="Trazado 120930" d="M161.795,116.924c-1.83-2.678-6.337-9.307-11.853-17.882-5.531-8.575-12.088-19.089-17.924-29.713a216.817,216.817,0,0,0,15.261,31.341c5.145,8.9,9.628,15.593,11.507,18.339l1.5-1.042Z" transform="translate(-132.018 -69.328)" fill="#fff"/>
        </g>
      </g>
      <g id="Grupo_876519" data-name="Grupo 876519" transform="translate(107.394 67.315)">
        <g id="Grupo_876517" data-name="Grupo 876517">
          <path id="Trazado_120931" data-name="Trazado 120931" d="M180,114.346l3.624-2.178a39.467,39.467,0,0,0,1.041-10.732,31.922,31.922,0,0,0-1.648-8.755l-3.654.545,1.505-1.168,1.509-1.147a38.872,38.872,0,0,0-4-7.525,21.443,21.443,0,0,0-3.691-4.349,19.142,19.142,0,0,0-6.326,6.951l1.357,1.508,1.357,1.481-1.74-.776-1.74-.794a29.33,29.33,0,0,0-3.115,15.143,33.637,33.637,0,0,0,.927,5.942l4.893,2.1-4.088.652a35.435,35.435,0,0,0,4.1,8.346c.644.963,1.215,1.7,1.622,2.2s.655.77.655.77l3.775-.5,3.775-.5a20.61,20.61,0,0,0,1.009-2.018,41.134,41.134,0,0,0,1.993-5.516Z" transform="translate(-164.413 -79.036)" fill="#bce13e"/>
        </g>
        <g id="Grupo_876518" data-name="Grupo 876518" transform="translate(9.293 6.803)">
          <path id="Trazado_120932" data-name="Trazado 120932" d="M184.02,126.663c-.261-2.077-.888-7.209-1.547-13.754s-1.363-14.512-1.713-22.322a152.933,152.933,0,0,0-.294,22.477c.35,6.618.944,11.778,1.213,13.906l1.171-.154Z" transform="translate(-180.192 -90.587)" fill="#fff"/>
        </g>
      </g>
      <path id="Trazado_120933" data-name="Trazado 120933" d="M365.108,155.562s5.575-15.492,4.878-30.511,3.717-26.3,10.918-25.419,13.473,28.054-13.937,57.555Z" transform="translate(-139.521 -20.169)" fill="#bce13e"/>
      <path id="Trazado_120934" data-name="Trazado 120934" d="M368.806,169.616l-.561-.352c.1-.161,10.121-16.307,10.508-34.118l.662.015C379.023,153.159,368.908,169.453,368.806,169.616Z" transform="translate(-140.811 -34.787)" fill="#fff"/>
      <path id="Trazado_120935" data-name="Trazado 120935" d="M366.352,184.544s10-5.211,20.248-6.123,17.5-4.946,16.237-9.75-20.274-6.553-37.759,14.762Z" transform="translate(-139.509 -47.308)" fill="#91b31e"/>
      <path id="Trazado_120936" data-name="Trazado 120936" d="M367.826,188.017l-.424-.508c.1-.084,10.244-8.467,22.446-10.4l.1.654C377.935,179.666,367.926,187.934,367.826,188.017Z" transform="translate(-140.464 -52.039)" fill="#fff"/>
      <g id="Grupo_876520" data-name="Grupo 876520" transform="translate(238.236 134.121)">
        <path id="Trazado_120937" data-name="Trazado 120937" d="M420.453,193.007a74.543,74.543,0,0,0-10.606-.5,34.7,34.7,0,0,0-13,2.955,16.777,16.777,0,0,0-8.492,8.93,22.725,22.725,0,0,0-1.707,5.946,18.629,18.629,0,0,0,5.506,2.944,16.22,16.22,0,0,0,12.913-.8,29.542,29.542,0,0,0,10.787-9.509A33.2,33.2,0,0,0,420.453,193.007Z" transform="translate(-386.612 -192.475)" fill="#bce13e"/>
        <path id="Trazado_120938" data-name="Trazado 120938" d="M386.661,213.153l-.075-.191s1.836-.733,4.558-1.911,6.331-2.8,9.891-4.523,7.069-3.551,9.662-4.992c1.3-.71,2.369-1.333,3.114-1.773l1.174-.685.105.176-1.175.686c-.746.44-1.815,1.064-3.119,1.775-2.6,1.443-6.105,3.277-9.671,5s-7.174,3.35-9.9,4.528S386.661,213.153,386.661,213.153Z" transform="translate(-386.586 -195.189)" fill="#fff"/>
        <path id="Trazado_120939" data-name="Trazado 120939" d="M420.012,203.51a4.893,4.893,0,0,1,.047-1.554,12.071,12.071,0,0,1,1.512-4.028l.175.1a11.9,11.9,0,0,0-1.478,3.953,6.326,6.326,0,0,0-.083,1.094,2.758,2.758,0,0,0,.029.392Z" transform="translate(-400.311 -194.717)" fill="#fff"/>
        <path id="Trazado_120940" data-name="Trazado 120940" d="M411.341,211.772l.151-.14a3.183,3.183,0,0,0,.354.307,7.017,7.017,0,0,0,1.111.687,12.659,12.659,0,0,0,4.967,1.233l-.017.206a12.871,12.871,0,0,1-5.049-1.247A5.472,5.472,0,0,1,411.341,211.772Z" transform="translate(-396.762 -200.35)" fill="#fff"/>
        <path id="Trazado_120941" data-name="Trazado 120941" d="M395.175,219.193l.158-.131a3.664,3.664,0,0,0,.391.369,8.032,8.032,0,0,0,1.24.841,14.614,14.614,0,0,0,5.628,1.649l-.025.206a14.831,14.831,0,0,1-5.707-1.664A6.241,6.241,0,0,1,395.175,219.193Z" transform="translate(-390.117 -203.404)" fill="#fff"/>
        <path id="Trazado_120942" data-name="Trazado 120942" d="M402.089,210.379a7.285,7.285,0,0,1,.186-2.306,18.322,18.322,0,0,1,2.543-5.879l.17.112a18.1,18.1,0,0,0-2.5,5.82,9.433,9.433,0,0,0-.207,1.634,4.279,4.279,0,0,0,.015.591Z" transform="translate(-392.949 -196.47)" fill="#fff"/>
        <path id="Trazado_120943" data-name="Trazado 120943" d="M426.079,204.208l.145-.147a3.306,3.306,0,0,0,.889.541,7.732,7.732,0,0,0,2.953.6l-.007.208a7.97,7.97,0,0,1-3.043-.617A3.3,3.3,0,0,1,426.079,204.208Z" transform="translate(-402.821 -197.238)" fill="#fff"/>
      </g>
      <g id="Grupo_876521" data-name="Grupo 876521" transform="translate(238.14 152.236)">
        <path id="Trazado_120944" data-name="Trazado 120944" d="M411.754,243.786c-1.1-4.806-3.3-12.131-10.058-17.6s-15.14-1.66-15.14-1.66-1.5,9.069,5.6,14.2S406.886,244.03,411.754,243.786Z" transform="translate(-386.424 -223.235)" fill="#91b31e"/>
        <path id="Trazado_120945" data-name="Trazado 120945" d="M386.561,225.447l.1-.136,20.961,16.022-.1.137Z" transform="translate(-386.48 -224.089)" fill="#fff"/>
        <path id="Trazado_120946" data-name="Trazado 120946" d="M411.033,243.446a3.925,3.925,0,0,1,1.186-.517,9.526,9.526,0,0,1,3.6-.23l-.018.171a9.345,9.345,0,0,0-3.529.229,5,5,0,0,0-.852.322,2.276,2.276,0,0,0-.284.162Z" transform="translate(-396.54 -231.209)" fill="#fff"/>
        <path id="Trazado_120947" data-name="Trazado 120947" d="M404.362,239.131l.16.061a2.742,2.742,0,0,0-.1.38,6.047,6.047,0,0,0-.1,1.085,11.249,11.249,0,0,0,.865,4.151l-.159.062a11.421,11.421,0,0,1-.884-4.215A4.707,4.707,0,0,1,404.362,239.131Z" transform="translate(-393.71 -229.77)" fill="#fff"/>
        <path id="Trazado_120948" data-name="Trazado 120948" d="M392.561,230.129l.16.062a3.057,3.057,0,0,0-.111.434,6.824,6.824,0,0,0-.117,1.243,12.811,12.811,0,0,0,.982,4.753l-.16.062a12.991,12.991,0,0,1-1-4.814A5.307,5.307,0,0,1,392.561,230.129Z" transform="translate(-388.845 -226.069)" fill="#fff"/>
        <path id="Trazado_120949" data-name="Trazado 120949" d="M397.837,233.089a5.866,5.866,0,0,1,1.77-.763,14.312,14.312,0,0,1,5.373-.334l-.018.17a14.134,14.134,0,0,0-5.311.339,7.637,7.637,0,0,0-1.284.482,3.349,3.349,0,0,0-.429.244Z" transform="translate(-391.116 -226.793)" fill="#fff"/>
        <path id="Trazado_120950" data-name="Trazado 120950" d="M415.391,247.514l.16.062a2.829,2.829,0,0,0-.111.864,6.669,6.669,0,0,0,.514,2.446l-.158.062a6.847,6.847,0,0,1-.53-2.52A2.836,2.836,0,0,1,415.391,247.514Z" transform="translate(-398.279 -233.216)" fill="#fff"/>
      </g>
      <path id="Trazado_120951" data-name="Trazado 120951" d="M91.6,339.151s-.238-.334-1.6.273-4.5,4.752-5.431,6.967a22.857,22.857,0,0,0,3.144,2.394,16.2,16.2,0,0,1,1.812-1.322,38.633,38.633,0,0,1-.454,6.431,38.006,38.006,0,0,1-.989,3.859,17.028,17.028,0,0,0,9.671.893s.072-5.753.25-7.968,1.215-4.681.643-6.753-3.015-2.847-4.991-4.872Z" transform="translate(-24.2 -118.61)" fill="#ffd200"/>
      <path id="Trazado_120952" data-name="Trazado 120952" d="M98.457,327.835a5.743,5.743,0,0,0-1.058-2.886c-.962-1.2-3.079-.77-3.945,1.058a6.225,6.225,0,0,0-.69,2.714.642.642,0,0,0-.832.025c-.645.439.332,1.989,1.315,1.721a3.4,3.4,0,0,0,.832,1,2.951,2.951,0,0,0,.256,1.585c.914,1.106,1.989,2.2,2.71,1.718s-.144-1.154-.385-1.539a.4.4,0,0,1,.065-.586C98.89,332.357,98.457,327.835,98.457,327.835Z" transform="translate(-27.138 -112.534)" fill="#ff9a5c"/>
      <path id="Trazado_120953" data-name="Trazado 120953" d="M97.332,325.52s-.562,2.108-1.817,2.572a2.562,2.562,0,0,0,.459-.607s-1.608,1.5-2.5,1.357c0,0-.572-.25-.75-2.251s1.929-3.144,1.929-3.144h2.394l1.68,1.929.173,1.358A1.806,1.806,0,0,1,97.332,325.52Z" transform="translate(-27.544 -112.195)" fill="#753519"/>
      <path id="Trazado_120954" data-name="Trazado 120954" d="M94.886,360.9s-7.419-1.281-10.106-2.77-2.356-2.811-1.984-3.761,1.529-2.976,1.529-2.976l2.628,1.881-.066.586-.449,1.024s.858.544,2.152,1.263,6.565,3.136,6.565,3.136S96.437,360.334,94.886,360.9Z" transform="translate(-23.365 -123.681)" fill="#ff9a5c"/>
      <g id="Grupo_876522" data-name="Grupo 876522" transform="translate(72.787 236.074)">
        <path id="Trazado_120955" data-name="Trazado 120955" d="M117.215,380.3l-1.5-8.158a1.948,1.948,0,0,0-1.114-1.422l-8.95-4.041.487-1.079,8.951,4.041a3.131,3.131,0,0,1,1.791,2.287l1.5,8.158Z" transform="translate(-105.649 -365.595)" fill="#108f6e"/>
      </g>
      <path id="Trazado_120956" data-name="Trazado 120956" d="M131.833,381.364a10.229,10.229,0,0,1,2.731-1.371c.91-.13,1.17.851,1.82.685a2.875,2.875,0,0,0,1.171-.7l1.3.691s.13-.361,1.041,0,.39-.029.91.361a2.19,2.19,0,0,0,1.3.33,2.6,2.6,0,0,1,1.3,0c.65.19,1.621-.317,3.121,0s2.861-.32,3.641,0,1.171,1.455,1.821,1.147a11.746,11.746,0,0,0,1.691-1.147l1.04,1.821s.39-.84.91,0a4.362,4.362,0,0,0,1.691,1.36,2.586,2.586,0,0,1,.65.8,10.1,10.1,0,0,1,.7,2.384v.78l-19.561-.78-8.194-4.542Z" transform="translate(-43.252 -135.435)" fill="#753519"/>
      <g id="Grupo_876523" data-name="Grupo 876523" transform="translate(75.617 233.243)">
        <path id="Trazado_120957" data-name="Trazado 120957" d="M122.021,375.489l-1.5-8.159a1.945,1.945,0,0,0-1.112-1.422l-8.952-4.041.487-1.079,8.952,4.041a3.131,3.131,0,0,1,1.791,2.286l1.5,8.159Z" transform="translate(-110.455 -360.788)" fill="#108f6e"/>
      </g>
      <path id="Trazado_120958" data-name="Trazado 120958" d="M125.95,382.329s-1.655,5.14-2.091,6.01,1.045,4.007,1.045,4.007l15.593,7.665,15.244-10.54Z" transform="translate(-40.315 -136.4)" fill="#108f6e"/>
      <path id="Trazado_120959" data-name="Trazado 120959" d="M121.035,411.689a2.092,2.092,0,0,1-1.18-.312c-.787-.515-1.067-1.61-.9-3.551.317-3.809,2.963-14.383,3.076-14.831l.642.161c-.027.109-2.746,10.969-3.059,14.725-.137,1.647.057,2.582.608,2.942.831.543,2.768-.018,5.92-1.72,5.922-3.2,10.341-6.111,10.386-6.14l.365.552c-.044.029-4.488,2.959-10.437,6.171C123.939,411.043,122.215,411.689,121.035,411.689Z" transform="translate(-38.312 -140.785)" fill="#108f6e"/>
      <path id="Trazado_120960" data-name="Trazado 120960" d="M177.384,400.259a4.359,4.359,0,0,0-.987,1.691c-.054.651.987,0,.987,0s.52.708,1.041.289,0-.923,0-.923l.231-1.057Z" transform="translate(-61.944 -143.771)" fill="#753519"/>
      <g id="Grupo_876525" data-name="Grupo 876525" transform="translate(138.812 236.773)">
        <g id="Grupo_876524" data-name="Grupo 876524" transform="translate(5.934 8.399)">
          <path id="Trazado_120961" data-name="Trazado 120961" d="M243.325,407.184l-.884.684-.782-1.052c-.486-.672-1.179-1.633-1.971-2.81-1.6-2.347-3.624-5.545-5.468-8.851s-3.505-6.714-4.644-9.32l-1.3-3.182-.44-1.229,1.051-.38s.157.44.433,1.209l1.281,3.139c1.124,2.573,2.755,5.948,4.593,9.217s3.836,6.445,5.417,8.77c.784,1.167,1.469,2.117,1.949,2.779Z" transform="translate(-227.837 -381.043)" fill="#108f6e"/>
        </g>
        <path id="Trazado_120962" data-name="Trazado 120962" d="M227.17,369.972a4.6,4.6,0,0,1-.154,3.019,3.352,3.352,0,0,1-1.956,1.959,3.182,3.182,0,0,1-2.783-.369,4.687,4.687,0,0,1-1.908-2.684,5.568,5.568,0,0,1-.187-.88,5.187,5.187,0,0,1,0-.872,4.523,4.523,0,0,1,.413-1.553,3.047,3.047,0,0,1,2.157-1.751,3.521,3.521,0,0,1,2.72.655,4.177,4.177,0,0,1,1.025,1.058,4.4,4.4,0,0,1,.369.67A4.459,4.459,0,0,1,227.17,369.972Z" transform="translate(-218.75 -366.782)" fill="#fce300"/>
        <path id="Trazado_120963" data-name="Trazado 120963" d="M224.553,373.351a7.861,7.861,0,0,0-.641-.973,7.262,7.262,0,0,0-.721-.81,3.607,3.607,0,0,0-.87-.676,3.574,3.574,0,0,0-.469,1.034,6.025,6.025,0,0,0-.161,1.084,8.176,8.176,0,0,0,.01,1.21,6.641,6.641,0,0,0-2.751-.382,5.233,5.233,0,0,0-1.19.208,6.852,6.852,0,0,0,4.406,3.776,5.391,5.391,0,0,0,2.363.11,6.368,6.368,0,0,0,1.754-1.6A7.753,7.753,0,0,0,227.8,371.2a5.756,5.756,0,0,0-1.123.431A6.042,6.042,0,0,0,224.553,373.351Z" transform="translate(-217.761 -368.471)" fill="#108f6e"/>
      </g>
      <path id="Trazado_120964" data-name="Trazado 120964" d="M182.468,403.846s-.78,1.529-.65,1.919.65,0,.65,0,.78.347,1.171.174a4.568,4.568,0,0,0,1.041-1.022h-1.438Z" transform="translate(-64.168 -145.245)" fill="#753519"/>
      <path id="Trazado_120965" data-name="Trazado 120965" d="M184.274,416.651s-3.266-.35-3.258,0,0,1.346,0,1.346a.9.9,0,0,0-1.438,0,4.32,4.32,0,0,0-.925,2.125,1.347,1.347,0,0,1-1.13.909,1.344,1.344,0,0,0-1.129.912,21.357,21.357,0,0,0,3.184.78,10.7,10.7,0,0,0,2.226,0,10.191,10.191,0,0,1,2.471.058c1.171.2,2.471.462,3.641.592a8.2,8.2,0,0,0,3.251-.91,36.707,36.707,0,0,1,5.072.13,6.14,6.14,0,0,0,2.991-.39l.521-1.172a3.227,3.227,0,0,1-1.691-1.091c-.65-.859-1.43-3.118-1.951-3.289a11.767,11.767,0,0,1-1.95-1.349,10.343,10.343,0,0,1-1.431-3.276c-.13-1.268-1.82-2.082-1.82-2.082a2.309,2.309,0,0,0-1.3,1.292,1.318,1.318,0,0,1-1.534.79s-.677.113-1.067,1.243a12.3,12.3,0,0,0-.521,2.033s-1.561-.528-2.341,0S184.274,416.651,184.274,416.651Z" transform="translate(-61.944 -147.752)" fill="#753519"/>
      <rect id="Rectángulo_293775" data-name="Rectángulo 293775" width="1.323" height="5.431" transform="matrix(0.843, -0.538, 0.538, 0.843, 99.53, 263.428)" fill="#108f6e"/>
      <g id="Grupo_876526" data-name="Grupo 876526" transform="translate(220.874 249.218)">
        <rect id="Rectángulo_293776" data-name="Rectángulo 293776" width="24.293" height="1.394" transform="translate(0 22.672) rotate(-68.947)" fill="#91b31e"/>
      </g>
      <g id="Grupo_876527" data-name="Grupo 876527" transform="translate(229.601 249.218)">
        <rect id="Rectángulo_293777" data-name="Rectángulo 293777" width="1.394" height="24.293" transform="translate(0 0.501) rotate(-21.054)" fill="#91b31e"/>
      </g>
      <g id="Grupo_876528" data-name="Grupo 876528" transform="translate(226.613 258.224)">
        <rect id="Rectángulo_293778" data-name="Rectángulo 293778" width="7.541" height="1.394" fill="#91b31e"/>
      </g>
      <g id="Grupo_876529" data-name="Grupo 876529" transform="translate(224.879 263.207)">
        <rect id="Rectángulo_293779" data-name="Rectángulo 293779" width="10.929" height="1.394" fill="#91b31e"/>
      </g>
      <path id="Trazado_120966" data-name="Trazado 120966" d="M356.444,265.822a11.045,11.045,0,0,0-2.468,3.747,3.092,3.092,0,0,0,2.1,4.158,18.062,18.062,0,0,1,.366,2.787,7.611,7.611,0,0,0,2.1.274,5.72,5.72,0,0,0,1.37-.366V273.5a7.617,7.617,0,0,0,1.782-2.376c.411-1.142.777-3.929-.548-5.3S357.174,265.014,356.444,265.822Z" transform="translate(-134.864 -88.165)" fill="#ff9a5c"/>
      <path id="Trazado_120967" data-name="Trazado 120967" d="M321.54,251.329s-.049.2-1.1.531-1.806.025-2.107.878.3,2.508-.351,2.859a2.965,2.965,0,0,0-.853.6s1.654,2.107,2.206,3.009a3.25,3.25,0,0,0,1-1.655c.251-1.053,1.964-.547,2.357-.9a7.883,7.883,0,0,0,.811-.9S322.943,252.077,321.54,251.329Z" transform="translate(-119.797 -82.548)" fill="#91b31e"/>
      <path id="Trazado_120968" data-name="Trazado 120968" d="M360.855,266.243a7.23,7.23,0,0,1-2.266-2.479c-.428-1.2.085-2.3,1.133-2.177a10.1,10.1,0,0,1,1.6.3s.976-1.24,2.668.342a4.965,4.965,0,0,1,1.479,3.8,1.86,1.86,0,0,1,1.282,2.607,5.076,5.076,0,0,1-2.761,2.661s-.274,1.3-1,1.372a4.651,4.651,0,0,0-1.16.242l.134-2.438a1.277,1.277,0,0,0,1.069-.812c.385-.812-.812-.684-.812-.684s-.684-1.24-.385-1.71C361.838,267.268,360.77,266.841,360.855,266.243Z" transform="translate(-136.779 -86.697)" fill="#753519"/>
      <path id="Trazado_120969" data-name="Trazado 120969" d="M337.621,266.392a43.923,43.923,0,0,1-6.079-6.01c-2.794-3.428-4.505-5.88-4.505-5.88a6.971,6.971,0,0,0-.571-2.624,3.939,3.939,0,0,0-.969-1.426c-.342-.456-.34.37.092,1.175l.432.805s-1.12-1.787-1.532-1.728.078.648.294.962a2.467,2.467,0,0,1,.294.864s-.805-1.237-1.08-1.021.294.962.746,1.551a12.162,12.162,0,0,1,.805,2s3.886,10.085,9.425,14.417S337.621,266.392,337.621,266.392Z" transform="translate(-122.592 -82.134)" fill="#ff9a5c"/>
      <path id="Trazado_120970" data-name="Trazado 120970" d="M328.779,256.093a6.16,6.16,0,0,1,.168-.725c.047-.072.2-.615.313-.957s-.051-.671-.241-.506a2.071,2.071,0,0,0-.607,1.138A3.582,3.582,0,0,0,328.779,256.093Z" transform="translate(-124.436 -83.589)" fill="#ff9a5c"/>
      <path id="Trazado_120971" data-name="Trazado 120971" d="M372.9,288.87s2.48,3.008,3.428,3.482,3.45-1.609,4.741-4a36.2,36.2,0,0,0,1.959-4.211,7.5,7.5,0,0,0,2.151-2.374s.172-.518,0-.634-.666.726-.927,1.045c0,0,.754-1.307.638-1.6s-1.19,1.22-1.19,1.22.842-1.539.552-1.568-1.1,1.365-1.1,1.365-.029-.959-.319-.9-.2,1.133-.2,1.133-.29,1.336-.464,1.771a31.833,31.833,0,0,1-4.3,4.733s-1.481-2.091-2.846-2.5S372.9,288.87,372.9,288.87Z" transform="translate(-142.725 -94.428)" fill="#ff9a5c"/>
      <path id="Trazado_120972" data-name="Trazado 120972" d="M351.359,309.995s3.435,36.4,4.035,39.463c0,0,3.255.393,4.364,0,0,0-.244-22.162,0-24.441s2.209-13.91,1.5-15.482S351.359,309.995,351.359,309.995Z" transform="translate(-133.869 -106.23)" fill="#0e1a34"/>
      <path id="Trazado_120973" data-name="Trazado 120973" d="M365.249,309.509s1.222,14.56,1.829,16.789,7.188,11.649,7.188,11.649l-2.887,2.919s-5.973-6.051-7.7-8.252-4.715-11.395-4.715-11.395S360.691,307.23,365.249,309.509Z" transform="translate(-136.995 -106.362)" fill="#0e1a34"/>
      <path id="Trazado_120974" data-name="Trazado 120974" d="M229.036,155.749c-3.351-1.04-5.777-1.366-7.741-2.474s-3.929-1.927-5.431-1.864-4.622-.756-6.47,0-3.806,4.564-6.64,5.26-9.952-.806-11.939-2.077a4.555,4.555,0,0,1-1.981-5.084,10.716,10.716,0,0,0,.687-4.369c-.115-.83,2.889-2.46,3.929-3.551s2.023-4.648-.438-6.426a83.822,83.822,0,0,0-31.986,14.791,5.157,5.157,0,0,0,.765,1.982c.693,1.155-.419,1.849-.383,2.195s.655.307.114.962.009.54-.5,1a14.9,14.9,0,0,1-1.315,1.155c-.347.231-.231.924-.925,1.733s-1.964,1.5-1.964,2.773-1.964,3-2.2,3.7-2.195,3.35-2.311,5.084a30.5,30.5,0,0,0,0,4.622,10.859,10.859,0,0,1-.087,3.466,26.984,26.984,0,0,0-.607,4.737c-.115,2.311.809,3.351,3,4.044s6.349,2.658,7.392,4.16,1.621,3.351,2.429,3.582,1.5,2.657,4.16,4.506,7.626,2.083,9.821,4.45,6.24,8.136,7.28,11.318,2.773,4.354,4.622,5.906,4.16,3.284,5.893,3.4,2.44-.611,2.375-1.23-2.26-2.468-2.607-2.93-1.04-3.582-2.079-5.777-1.155-2.285-.809-3.338,1.04-3.36,2.08-3.939,1.849-.157,2.542-1.177a3.363,3.363,0,0,0,.873-2.232c-.064-.637-1.1-1.032-2.144-1.123s-1.386-1.016-2.773-1.247-3.35-.809-3.813-1.618a2.181,2.181,0,0,0-2.2-.924c-.693.115-2.773.462-4.16-.925s-1.5-4.044-1.733-5.43-.462-1.849-.115-2.889.346-1.856,1.964-2.6,4.275-1.333,5.893,0,4.853.292,5.546-.517,2.657-3.235,4.275-3.35,4.275,0,5.315-.925,4.969-2.873,5.662-4.441,3.351-6.114,3.351-7.6,4.853-4.37,6.239-3.908,3.236-1.733,3.929-1.733,2.773.346,3.929-1.04,2.079-2.318,3-3.643S232.387,156.789,229.036,155.749Z" transform="translate(-51.757 -34.794)" fill="#108f6e"/>
      <path id="Trazado_120975" data-name="Trazado 120975" d="M260.545,325.387a61.24,61.24,0,0,0-7.207-3.833c-3.31-1.393-5.749-6.326-6.62-7.344s-1.568-9.9,0-11.471a37.995,37.995,0,0,0,4.448-6.272c1.3-2.091,1.824-3.484,1.3-4.356s-.522-5.817,0-6.654,3.136-2.405,4.356-2.231,5.052-.9,6.62-.013,7.492,4.016,10.1,4.193,5.227,2.441,7.317,1.221,5.159.174,6.935,2.787a21.883,21.883,0,0,0,6.828,6.992c2.962,1.72,2.7,3.287,4.4,3.636a24.882,24.882,0,0,1,7.54,2.787c2.054,1.4,1.38,3.136-.316,5.227s-3.8,5.4-5.188,7.491-.88,5.227,0,6.1.183,4.53-1.036,5.575-3.833,2.787-4.878,4.7-.945,3.338-3.347,4.195-7.8,3.3-11.113,4.081-6.1.969-8.362,2.88-2.584,7.1-4.715,7.99-8.525,4.892-10.964,4.633-2.435-.746-1.044-2.506,4.915-4.858,6.9-7.683-.63-5.554,1.112-6.7,2.047-4.541,2.591-5.542S266.606,328.708,260.545,325.387Z" transform="translate(-90.47 -95.509)" fill="#108f6e"/>
      <path id="Trazado_120976" data-name="Trazado 120976" d="M346.927,198.748c.349.71,2.207,1.523,3.6,2.22s2.7-.375,3.268-2.22,3-2.193,4.281-1.5a5.565,5.565,0,0,0,3.6.813c.917-.229,2.7-.913,2.742-.93A84.411,84.411,0,0,0,340.1,164.269a18.118,18.118,0,0,1-2.465,2.79,8.719,8.719,0,0,0-2.278,3.247c-.393.813-1.555,4.3-1.091,5.807s.271,2.555,1.994,3.833,3.256,1.712,2.489,4.05-.186,4.836-1,6.084a4.191,4.191,0,0,0,1,5.313c1.905,1.626,4.344,1.278,4.925,1.394S346.578,198.037,346.927,198.748Z" transform="translate(-126.798 -46.759)" fill="#108f6e"/>
      <path id="Trazado_120977" data-name="Trazado 120977" d="M256.653,248.883a3.886,3.886,0,0,1-1.161,2.642c-1.161,1.045-2.323,2.9-1.161,3.136a25.172,25.172,0,0,1,4.181.926c.581.352,3.6,1.978,4.413,1.4s1.394-1.975,2.207-2.091,1.045-2.175,1.743-2.83,3.136-2.978,3.368-4.836.465-4.645,0-5.343-3.717-1.161-4.065-2.091-2.419-1.626-4-.7-2.274,3.02-2.507,4.53S256.537,246.241,256.653,248.883Z" transform="translate(-93.785 -77.34)" fill="#108f6e"/>
      <g id="Grupo_876531" data-name="Grupo 876531" transform="translate(211.851 82.425)">
        <g id="Grupo_876530" data-name="Grupo 876530" transform="translate(0 9.341)">
          <path id="Trazado_120978" data-name="Trazado 120978" d="M342.74,151.026l-.956-.719s.285-.377.754-1.113,1.115-1.794,1.83-3.109a73.927,73.927,0,0,0,4.447-10.046,87.615,87.615,0,0,0,3.064-10.572c.367-1.458.55-2.7.727-3.557l.256-1.354,1.18.2-.259,1.37c-.18.869-.365,2.125-.737,3.6a88.856,88.856,0,0,1-3.105,10.714,75.113,75.113,0,0,1-4.522,10.213c-.73,1.342-1.387,2.435-1.877,3.187S342.74,151.026,342.74,151.026Z" transform="translate(-341.784 -120.555)" fill="#108f6e"/>
        </g>
        <path id="Trazado_120979" data-name="Trazado 120979" d="M363.93,109.651c-.356,2.579-2.341,4.375-4.4,4.015a4.608,4.608,0,0,1,1.09-8.964C362.709,104.848,364.191,107.063,363.93,109.651Z" transform="translate(-347.78 -104.694)" fill="#fce300"/>
        <path id="Trazado_120980" data-name="Trazado 120980" d="M360.363,112.5a7.7,7.7,0,0,0-.184-1.27,5.129,5.129,0,0,0-1.028-2.137,5.117,5.117,0,0,0-1.426,1.837,9.711,9.711,0,0,0-.525,1.145,6.655,6.655,0,0,0-3.784-1.744,7.884,7.884,0,0,0,2.506,5.233,6.531,6.531,0,0,0,2.129,1.352,6.005,6.005,0,0,0,2.491-.559,7.614,7.614,0,0,0,3.963-4.682A7.02,7.02,0,0,0,360.363,112.5Z" transform="translate(-346.566 -106.503)" fill="#108f6e"/>
      </g>
      <path id="Trazado_120981" data-name="Trazado 120981" d="M310.089,71.547a11.841,11.841,0,0,0-2.963,1.348c-1.96,1.132-6.359,5.488-6.359,5.488a16.908,16.908,0,0,0,3.658,4.486,32.763,32.763,0,0,0,3.005-1.524s1.22,5.88-1.22,9.495a6.514,6.514,0,0,0,3.7,2c2.308.349,4.747.305,6.751,1.743s5.27,1.306,6.664,0a19.165,19.165,0,0,0,0-8.755,22.346,22.346,0,0,0-2.874-6.576l.741.566s2.526-2.744,2.657-4.878a28.563,28.563,0,0,0-5.009-4.138,6.979,6.979,0,0,0-6.108,0A7.692,7.692,0,0,1,310.089,71.547Z" transform="translate(-113.071 -8.046)" fill="#108f6e"/>
      <path id="Trazado_120982" data-name="Trazado 120982" d="M308.866,60.724a8.326,8.326,0,0,0,1.682,3.752c1.164,1.164,2.07.453,2.393.582s.518,1.035.518,1.682a1.2,1.2,0,0,0,2.005.582c.971-.711.453-4.011.453-4.011a3.989,3.989,0,0,0,.138-2.588,3.011,3.011,0,0,0,.147-1.941c-.349-.711-.866-.518-1.125,0,0,0-1.229-2.264-3.041-1.876S308.607,58.265,308.866,60.724Z" transform="translate(-116.39 -2.606)" fill="#ff9a5c"/>
      <path id="Trazado_120983" data-name="Trazado 120983" d="M314.229,56.759c-.582-.776-.194-2.781-.95-3.946a2.3,2.3,0,0,0-2.349-.776s-.388-1.747-1.876-1.488-2.846,2.264-2.846,2.264a4.846,4.846,0,0,0-2.2,0c-1.423.259-3.04,1.229-2.458,2.652s2.782,1.343,2.782,1.343-.582,2.8,1.461,2.021c.06-.023.111-.055.168-.082a6.408,6.408,0,0,1-.141-.63,3.032,3.032,0,0,1,1.731-3.331h0a6.065,6.065,0,0,1,1.438-.486c1.811-.388,3.041,1.876,3.041,1.876.259-.518.776-.711,1.125,0a3.011,3.011,0,0,1-.147,1.941,4.181,4.181,0,0,1,.053,1.971,1.3,1.3,0,0,0,.218.035C315.176,60.123,314.812,57.535,314.229,56.759Z" transform="translate(-113.344 0)" fill="#753519"/>
      <path id="Trazado_120984" data-name="Trazado 120984" d="M308.462,60.214s2.228-.942,2.387-4.277c0,0,.685,2.079,3.682,1.706,0,0-.236-2.777-2.7-3.473s-4.276,3.421-4.276,3.421A2.873,2.873,0,0,0,308.462,60.214Z" transform="translate(-115.845 -1.467)" fill="#753519"/>
      <path id="Trazado_120985" data-name="Trazado 120985" d="M315.235,144.591c-.468-3.92-1.241-7.831-1.25-7.871l.324-.065c.008.039.785,3.964,1.253,7.9Z" transform="translate(-118.505 -35.408)" fill="#fff"/>
      <path id="Trazado_120986" data-name="Trazado 120986" d="M110.756,360.628a9.4,9.4,0,0,1,1.075.081c.384.067.631.612.74.83s-.37.2-.61-.109-.29-.381-.29-.381a1.327,1.327,0,0,0-.57,0c-.207.076-.459-.168-.5-.34S110.756,360.628,110.756,360.628Z" transform="translate(-34.895 -127.469)" fill="#ff9a5c"/>
      <path id="Trazado_120987" data-name="Trazado 120987" d="M102.789,366.371a4.763,4.763,0,0,0,1.4,1c.058.5.347.713.509.694s.165-.771.165-.771c.144.347.713.694.79.482a1.257,1.257,0,0,0,0-.559s.231.308.4.308.386-.154.309-.539a3.732,3.732,0,0,0-.54-1.273c-.231-.309-.366-.617-.867-.733a8.3,8.3,0,0,0-1.253-.1,10.885,10.885,0,0,0-1.446,0Z" transform="translate(-31.468 -129.219)" fill="#ff9a5c"/>
      <path id="Trazado_120988" data-name="Trazado 120988" d="M103.5,364.932v-.312a6.524,6.524,0,0,1,1.688-.329c.28.1.544.492.7.64A12.893,12.893,0,0,1,103.5,364.932Z" transform="translate(-31.978 -128.979)" fill="#ff9a5c"/>
      <circle id="Elipse_4977" data-name="Elipse 4977" cx="6.063" cy="6.063" r="6.063" transform="translate(99.445 266.679)" fill="#0e1a34"/>
      <path id="Trazado_120989" data-name="Trazado 120989" d="M159.32,428.677a2.708,2.708,0,1,1,2.709-2.709A2.711,2.711,0,0,1,159.32,428.677Zm0-5.086a2.377,2.377,0,1,0,2.378,2.377A2.38,2.38,0,0,0,159.32,423.591Z" transform="translate(-53.812 -153.226)" fill="#fff"/>
      <path id="Trazado_120990" data-name="Trazado 120990" d="M282.939,258.42a18.29,18.29,0,0,0-2.33,2.608c-.96,1.367,1.645.682,2.33.819s.822,1.127,2.193.769a7.724,7.724,0,0,0,1.371-.357,10.424,10.424,0,0,1,2.879-.412c1.234-.137.991-1.033,1.661-1.819a1.387,1.387,0,0,0,0-2.157c-.7-.685-1.112,1.371-2.483,0s-1.325-2.548-2.581-1.96-.93.8-1.505,1.31S282.939,258.42,282.939,258.42Z" transform="translate(-104.699 -84.368)" fill="#108f6e"/>
      <path id="Trazado_120991" data-name="Trazado 120991" d="M352.85,280.1a10.21,10.21,0,0,1-7.378-3.152,16.147,16.147,0,0,0-3.518,4.2,19.138,19.138,0,0,0,5.255,4.2s-1.263,10.619-.594,14.3c0,0,4.432.823,7.174,1.005a23.283,23.283,0,0,0,6.122-.685l-.777-13.114.777.914s2.833-2.6,2.878-4.021c0,0-4.039-3.793-5.789-4.386S354.553,280.24,352.85,280.1Z" transform="translate(-130.003 -93.081)" fill="#91b31e"/>
      <path id="Trazado_120992" data-name="Trazado 120992" d="M365.488,335.236l-.331-.005c.005-.3.122-7.314.33-8.283.2-.951,1.422-7.572,1.434-7.638l.326.06c-.012.067-1.233,6.692-1.437,7.648C365.609,327.953,365.489,335.163,365.488,335.236Z" transform="translate(-139.541 -110.494)" fill="#fff"/>
      <path id="Trazado_120993" data-name="Trazado 120993" d="M270.868,412.086h-6.762s-3.7-24.785,0-30.021S275.573,378.613,270.868,412.086Z" transform="translate(-97.324 -135.376)" fill="#ffd200"/>
      <path id="Trazado_120994" data-name="Trazado 120994" d="M248.264,423.763h-6.036s-7.918-2.469-11.71-8.505,1.833-8.6,5.948-6.013S248.264,423.763,248.264,423.763Z" transform="translate(-83.677 -147.053)" fill="#ffd200"/>
      <path id="Trazado_120995" data-name="Trazado 120995" d="M255.706,416.718H252s-8.78-8.669-9.877-19.151,7.271-7.078,10.975,2.127a58.954,58.954,0,0,1,4.115,17.024Z" transform="translate(-88.924 -140.008)" fill="#91b31e"/>
      <path id="Trazado_120996" data-name="Trazado 120996" d="M280.464,423.763H286.5s7.918-2.469,11.71-8.505-1.833-8.6-5.948-6.013S280.464,423.763,280.464,423.763Z" transform="translate(-104.725 -147.053)" fill="#ffd200"/>
      <path id="Trazado_120997" data-name="Trazado 120997" d="M275.684,416.718h3.7s8.78-8.669,9.877-19.151-7.271-7.078-10.975,2.127a58.954,58.954,0,0,0-4.115,17.024Z" transform="translate(-102.14 -140.008)" fill="#91b31e"/>
      <path id="Trazado_120998" data-name="Trazado 120998" d="M311.583,247.328l.359-.732.466.669.732.359-.669.466-.359.732-.466-.669-.732-.359Z" transform="translate(-117.243 -80.602)" fill="#fff"/>
      <path id="Trazado_120999" data-name="Trazado 120999" d="M333.577,252.673l.218-.445.283.407.445.218-.407.283-.218.445-.283-.407-.445-.218Z" transform="translate(-126.392 -82.918)" fill="#fff"/>
      <path id="Trazado_121000" data-name="Trazado 121000" d="M337.1,242.494l.218-.445.283.407.445.218-.407.283-.218.445-.283-.407-.445-.218Z" transform="translate(-127.839 -78.733)" fill="#fff"/>
      <path id="Trazado_121001" data-name="Trazado 121001" d="M306.5,238.694l.218-.445.283.407.445.218-.407.283-.218.445-.283-.407-.445-.218Z" transform="translate(-115.263 -77.171)" fill="#fff"/>
      <path id="Trazado_121002" data-name="Trazado 121002" d="M311.07,266.591l.218-.445.283.407.445.218-.407.283-.218.445-.284-.407-.445-.218Z" transform="translate(-117.14 -88.639)" fill="#fff"/>
      <g id="Grupo_876532" data-name="Grupo 876532" transform="translate(143.647 77.033)">
        <path id="Trazado_121003" data-name="Trazado 121003" d="M233.867,95.915l-.135-.1c.131-.184.206-.282.206-.282l.132.1S234,95.735,233.867,95.915Z" transform="translate(-229.162 -95.538)" fill="#fff"/>
        <path id="Trazado_121004" data-name="Trazado 121004" d="M226.378,106.006l-.161-.035c.011-.049.022-.1.033-.146l.161.038C226.4,105.91,226.389,105.957,226.378,106.006Zm.2-.81-.16-.044q.091-.336.192-.665l.158.048Q226.669,104.862,226.579,105.2Zm.4-1.315-.157-.053c.074-.221.153-.438.233-.653l.155.058Q227.093,103.552,226.981,103.88Zm.48-1.29-.153-.062q.131-.325.267-.639l.152.066Q227.592,102.267,227.461,102.59Zm.548-1.264-.15-.069q.147-.32.3-.625l.148.072C228.206,100.907,228.107,101.115,228.009,101.327Zm.608-1.236-.147-.077q.164-.315.326-.611l.145.079C228.834,99.678,228.726,99.881,228.617,100.09Zm.662-1.208-.144-.082q.181-.314.352-.6l.141.085C229.515,98.476,229.4,98.674,229.279,98.882Zm.713-1.178-.14-.089c.137-.215.264-.409.378-.581l.138.092C230.254,97.3,230.127,97.489,229.991,97.7Z" transform="translate(-226.073 -96.153)" fill="#fff"/>
        <path id="Trazado_121005" data-name="Trazado 121005" d="M226.135,113.193l-.163-.03c.021-.115.043-.23.067-.344l.162.034Q226.166,113.022,226.135,113.193Z" transform="translate(-225.972 -102.642)" fill="#fff"/>
      </g>
      <g id="Grupo_876533" data-name="Grupo 876533" transform="translate(148.694 77.456)">
        <path id="Trazado_121006" data-name="Trazado 121006" d="M235.918,96.628l-.163-.031c.042-.221.067-.341.067-.341l.162.034S235.959,96.409,235.918,96.628Z" transform="translate(-235.041 -96.256)" fill="#fff"/>
        <path id="Trazado_121007" data-name="Trazado 121007" d="M234.555,105.629q-.011-.347-.013-.693h.165q0,.343.012.688Zm.156-1.382-.166,0c0-.232.009-.463.018-.691l.165.006Q234.716,103.9,234.71,104.247Zm.049-1.377-.165-.009q.019-.351.044-.69l.164.011Q234.778,102.522,234.759,102.87Zm.1-1.375-.165-.014c.021-.236.043-.466.066-.689l.165.017Q234.889,101.143,234.858,101.5Zm.143-1.371-.164-.019q.042-.36.087-.687l.164.022Q235.044,99.766,235,100.124Zm.184-1.366-.164-.025c.038-.252.075-.481.109-.684l.163.027C235.259,98.28,235.223,98.508,235.185,98.758Z" transform="translate(-234.542 -96.993)" fill="#fff"/>
        <path id="Trazado_121008" data-name="Trazado 121008" d="M234.695,113.189c-.011-.115-.02-.232-.029-.348l.165-.012q.013.173.029.346Z" transform="translate(-234.593 -103.069)" fill="#fff"/>
      </g>
      <path id="Trazado_121009" data-name="Trazado 121009" d="M230.194,109.077c-.008-.114-.015-.227-.021-.34l.165-.008c.005.112.012.224.02.336Zm-.041-1c0-.088,0-.177,0-.266,0-.134,0-.266,0-.4l.166,0q0,.2,0,.4,0,.132,0,.263Zm.193-1.32-.166-.008c.012-.224.027-.445.046-.664l.165.014Q230.362,106.421,230.345,106.753Zm.111-1.314-.164-.019q.039-.333.087-.658l.164.024Q230.5,105.108,230.456,105.439Zm.191-1.305-.163-.029c.039-.221.081-.438.124-.653l.163.033Q230.7,103.8,230.647,104.134Zm.263-1.294-.161-.037q.076-.33.158-.645l.16.042C231.013,102.408,230.96,102.622,230.91,102.84Zm.33-1.279-.159-.045q.093-.328.19-.637l.158.049C231.365,101.133,231.3,101.345,231.24,101.561Zm.392-1.261-.157-.053c.074-.218.148-.428.221-.627l.155.057Q231.743,99.975,231.632,100.3Zm.454-1.24L231.932,99c.088-.223.173-.429.252-.615l.153.065C232.258,98.634,232.173,98.838,232.086,99.06Zm.517-1.214-.15-.069c.177-.384.288-.592.293-.6l.146.078S232.778,97.466,232.6,97.846Z" transform="translate(-84.042 -19.178)" fill="#fff"/>
      <path id="Trazado_121010" data-name="Trazado 121010" d="M89.441,350.828c-.071-.044-.145-.082-.216-.127a25.964,25.964,0,0,0-3.543-2.15,1.538,1.538,0,0,1-.144-.081,13.611,13.611,0,0,0-.96,1.791,22.855,22.855,0,0,0,3.144,2.394s.791-.658,1.436-1.088A6.049,6.049,0,0,1,89.441,350.828Z" transform="translate(-24.2 -122.481)" fill="#ffd200"/>
    </g>
  </g>
</svg>
