<svg xmlns="http://www.w3.org/2000/svg" width="445.826" height="319.416" viewBox="0 0 445.826 319.416">
  <g id="Grupo_878573" data-name="Grupo 878573" transform="translate(-810.674 -4200)">
    <rect id="BG" width="445.826" height="319.416" transform="translate(810.674 4200)" fill="#e8e8e8" opacity="0.949"/>
    <g id="Grupo_878570" data-name="Grupo 878570">
      <g id="Grupo_876623" data-name="Grupo 876623" transform="translate(649.825 3967.911)">
        <g id="Grupo_876559" data-name="Grupo 876559" transform="translate(406.016 324.754)">
          <path id="Trazado_125302" data-name="Trazado 125302" d="M917.786,596.544a.148.148,0,0,1-.09-.264,4.481,4.481,0,0,1,4.569-.172.148.148,0,0,1-.129.266,4.111,4.111,0,0,0-4.26.141A.147.147,0,0,1,917.786,596.544Z" transform="translate(-917.638 -595.577)" fill="#3797db"/>
        </g>
        <path id="Trazado_125303" data-name="Trazado 125303" d="M772.018,1140.779c-54.275-28.363-72.782-57.756-78.673-77.714h34.861a20.413,20.413,0,0,1-2.7,8.921,8.266,8.266,0,1,0,14.155-.01,20.4,20.4,0,0,1-2.7-8.911h35.056v32.477l.643-.058a21.653,21.653,0,0,0,8.88-2.817,7.086,7.086,0,1,1,.01,12.123,21.67,21.67,0,0,0-8.89-2.823l-.643-.057Z" transform="translate(-324.105 -661.658)" fill="#3b77be"/>
        <g id="Grupo_876560" data-name="Grupo 876560" transform="translate(448.946 378.419)">
          <path id="Trazado_125304" data-name="Trazado 125304" d="M1180.36,986.753a20.178,20.178,0,0,1,7.75,2.595,8.266,8.266,0,1,0-.01-14.154,20.159,20.159,0,0,1-7.74,2.589V946.606h41.279l.019-.571a21.5,21.5,0,0,0-2.89-11.507,7.086,7.086,0,1,1,12.123-.01,21.505,21.505,0,0,0-2.9,11.517l.019.571h31.019c-5.891,19.958-24.4,49.351-78.673,77.714Z" transform="translate(-1180.212 -923.618)" fill="#62bdf3"/>
          <path id="Trazado_125305" data-name="Trazado 125305" d="M1179.46,1023.812V985.834l.165.02a20.331,20.331,0,0,1,7.806,2.613,8.119,8.119,0,1,0-.008-13.9,20.3,20.3,0,0,1-7.8,2.609l-.165.02v-31.49h41.284l.014-.428a21.347,21.347,0,0,0-2.871-11.429,7.233,7.233,0,1,1,12.377-.008,21.367,21.367,0,0,0-2.874,11.436l.014.428h31.074l-.056.189c-5.836,19.771-24.234,49.317-78.746,77.8Zm.3-37.644v37.156c54.077-28.313,72.454-57.635,78.327-77.323h-30.964l-.024-.714a21.662,21.662,0,0,1,2.916-11.6,6.938,6.938,0,1,0-11.869.008,21.648,21.648,0,0,1,2.911,11.589l-.024.714h-41.274v30.86a20.009,20.009,0,0,0,7.518-2.549,8.414,8.414,0,1,1,.008,14.408A20.031,20.031,0,0,0,1179.755,986.168Z" transform="translate(-1179.46 -922.866)" fill="#96d9c9"/>
        </g>
        <path id="Trazado_125306" data-name="Trazado 125306" d="M719.086,749.59a7.087,7.087,0,0,1-6.064-10.752,21.6,21.6,0,0,0,2.9-10.094l.02-.61H679.51a62.583,62.583,0,0,1-2.31-16.621c0-12.715,4.025-24.606,11.333-33.481a37.545,37.545,0,0,1,29.327-14.174,49.077,49.077,0,0,1,30.5,10.7,50.341,50.341,0,0,1,10.164,10.6v15.019a20.2,20.2,0,0,1-7.067-2.5,8.266,8.266,0,1,0,.01,14.155,20.19,20.19,0,0,1,7.057-2.494v18.8H722.234l.02.61a21.59,21.59,0,0,0,2.89,10.085,7.087,7.087,0,0,1-6.058,10.762Z" transform="translate(-310.608 -327.908)" fill="#179587"/>
        <g id="Grupo_876563" data-name="Grupo 876563" transform="translate(354.357 302.15)">
          <g id="Grupo_876561" data-name="Grupo 876561" transform="translate(25.199 12.949)">
            <path id="Trazado_125307" data-name="Trazado 125307" d="M794.887,575.388a3.7,3.7,0,0,0-1.782.569,31.519,31.519,0,0,1-3.262-1.473s-8.9-4.379-9.37-4.633l-6.422-8.057-4.95,2.276s7.223,8.566,7.68,8.943,13.215,4.838,14.324,5.269c0,0,1.119,1.019,1.842,1.635a7.691,7.691,0,0,0,1.923,1,8.1,8.1,0,0,0,1.96.686c.972.211.162-.448.162-.448s-1.72-.724-1.635-.855c.065-.1.979.352,2.053.6.276.063.548.124.8.178.659.142.948-.234.286-.5a6.454,6.454,0,0,0-.921-.3,5.306,5.306,0,0,1-.845-.331,7.018,7.018,0,0,1-.869-.347c.026-.023-.046-.136.25-.078a16.293,16.293,0,0,0,1.6.447c.3.034.925.144.925.144s1.1.105,1.112-.049c.016-.337-.663-.526-1.081-.517a4.361,4.361,0,0,0-.923-.231s-1.28-.5-1.206-.693a9.106,9.106,0,0,1,1.627.1c.87.06,1.5.059,1.546-.109.073-.266-.619-.367-.619-.367s-.61-.089-.81-.134c-.234-.053-.922-.268-.922-.268s-2.355-.862-2.27-1.036.474-.536.64-.535.463.166.629.167.523-.031.548-.24-.9-.64-.9-.64A2.615,2.615,0,0,0,794.887,575.388Z" transform="translate(-766.996 -557.679)" fill="#efac7f"/>
            <path id="Trazado_125308" data-name="Trazado 125308" d="M767.786,545.8s-1.6,1.451-2.269,1.929c-.554.4-3.254,1.694-3.254,1.694s-2.686-4.1-3.86-6.158c-1.425-2.5-2.411-6.206-2.075-6.306a4.943,4.943,0,0,1,3.447.095C763.931,538.953,767.786,545.8,767.786,545.8Z" transform="translate(-756.262 -536.691)" fill="#3b77be"/>
            <path id="Trazado_125309" data-name="Trazado 125309" d="M916.874,654.334a1.541,1.541,0,0,0,1.758-.674C918.7,654.432,917.53,654.815,916.874,654.334Z" transform="translate(-890.539 -634.481)" fill="#fe875e"/>
          </g>
          <path id="Trazado_125310" data-name="Trazado 125310" d="M664.039,973.67s-.178,3.14-.179,3.147c-.065.4-.323,1.384-.323,1.746,0,1.362,6.058-1.156,4.7-1.759-.123-.055-.767-.467-.807-.931-.062-.714-.22-2.158-.22-2.158Z" transform="translate(-653.543 -889.071)" fill="#efac7f"/>
          <path id="Trazado_125311" data-name="Trazado 125311" d="M667.129,992.416a21.9,21.9,0,0,1-2.151.521c-.729.1-1.689-.773-2.2-.536-.567.26-.545,2.607-.545,2.607s7.627.668,9.771-.023C672.85,994.711,670.036,993.386,667.129,992.416Z" transform="translate(-652.449 -904.697)" fill="#222b5a"/>
          <path id="Trazado_125312" data-name="Trazado 125312" d="M604.663,972.517s-.178,3.14-.179,3.146c-.065.4-.323,1.384-.323,1.746,0,1.362,6.057-1.156,4.7-1.759-.123-.055-.958-.776-1-1.239-.062-.714-.03-1.85-.03-1.85Z" transform="translate(-603.903 -888.107)" fill="#efac7f"/>
          <path id="Trazado_125313" data-name="Trazado 125313" d="M607.525,991.263a21.865,21.865,0,0,1-2.151.52c-.728.1-1.689-.772-2.2-.536-.567.261-.59,2.607-.59,2.607a95.179,95.179,0,0,0,9.816-.023C613.28,993.7,610.433,992.233,607.525,991.263Z" transform="translate(-602.581 -903.733)" fill="#222b5a"/>
          <path id="Trazado_125314" data-name="Trazado 125314" d="M606.644,667.9a38.525,38.525,0,0,0-.608,9.313c.418,4.016.451,18.283.451,18.283l-1.6,22.827,3.788.088s4.492-22.816,4.408-22.23,1.506-16.065,1.506-16.065L609.238,667.4Z" transform="translate(-604.512 -633.016)" fill="#222b5a"/>
          <path id="Trazado_125315" data-name="Trazado 125315" d="M607.485,649.6s-4.651,4.884-2.921,10.22c.695,2.143,7.177,22.616,7.26,24.289s2.192,20.17,2.192,20.17l4.4-.132.953-20.564-1.259-27.708-2.674-4.673Z" transform="translate(-603.917 -618.135)" fill="#222b5a"/>
          <path id="Trazado_125316" data-name="Trazado 125316" d="M636.969,519.639a43.4,43.4,0,0,0-4.838-4.162,15.745,15.745,0,0,0-2.78-1.959c-1.185-.407-3.214-1.494-6.149,2.942-2.1,3.174-15.355,19.611-17.531,20.164L619.88,543.4c.389-3.238,7.412-9.353,8.422-10.495C630.56,530.357,638.41,521.243,636.969,519.639Z" transform="translate(-605.164 -504.019)" fill="#3797db"/>
          <g id="Grupo_876562" data-name="Grupo 876562" transform="translate(26.713 0)">
            <path id="Trazado_125317" data-name="Trazado 125317" d="M769.928,510.635l-4.426,2.584s-.125,3.767,1.322,4.746c1.214.821,2.138-1.149,2.138-1.149a13.481,13.481,0,0,1,2.9-2.983C773.109,513.124,769.928,510.635,769.928,510.635Z" transform="translate(-765.5 -501.959)" fill="#efac7f"/>
            <path id="Trazado_125318" data-name="Trazado 125318" d="M787.353,512.293a9.23,9.23,0,0,0,1.149,2.858,7.179,7.179,0,0,1,1.524-1.319c.577-.327.21-1.033-.353-1.7-.794-.824-1.578-1.5-1.578-1.5l-.851.5A3.956,3.956,0,0,0,787.353,512.293Z" transform="translate(-783.667 -501.959)" fill="#d19369"/>
            <path id="Trazado_125319" data-name="Trazado 125319" d="M789.731,470.162c-.074-.092-3.713,4.424-3.264,6.542s2.648,4.051,4.177,3.52c1.691-.588,4.835-5.9,3.708-8.486S789.731,470.162,789.731,470.162Z" transform="translate(-782.997 -467.961)" fill="#efac7f"/>
            <path id="Trazado_125320" data-name="Trazado 125320" d="M787.061,458.5a6.906,6.906,0,0,0-6.107-.123,5.219,5.219,0,0,0-2.174,6.267,3.071,3.071,0,0,1-.108,2.981l1.261-.734a5.979,5.979,0,0,0,.833-2.06c.1-.914,1.433-.752,2.085-1.166.5-.319,1.144-1.356,1.957-1.894a6.5,6.5,0,0,1,3.053.313C789.577,463.04,789.333,459.756,787.061,458.5Z" transform="translate(-776.343 -457.719)" fill="#5e2e0d"/>
          </g>
          <path id="Trazado_125321" data-name="Trazado 125321" d="M753.668,586.685a8.774,8.774,0,0,0-1.958-.1,35.838,35.838,0,0,1-2.965-2.357s-8.008-6.782-8.428-7.163l-4.394-9.709-5.8.861s5.407,11.414,5.785,11.911,12.258,7.422,13.281,8.155c0,0,.9,1.309,1.5,2.113a8.709,8.709,0,0,0,1.719,1.518,9.186,9.186,0,0,0,1.826,1.223c.933.481.261-.39.261-.39s-1.575-1.192-1.461-1.3c.088-.08.91.62,1.937,1.162.264.14.525.276.766.4.632.325,1.006.041.4-.4a7.317,7.317,0,0,0-.863-.55,6.044,6.044,0,0,1-.779-.562,7.323,7.323,0,0,1-.773-.565c.031-.015-.043-.164.242-.025.342.168.994.681,1.516.889.3.118.9.4.9.4a5.356,5.356,0,0,0,.926.063c.182-.278-.349-.495-.771-.6a4.917,4.917,0,0,0-.88-.486s-1.18-.853-1.064-1.016c.044-.062.739.411,1.59.729.975.364,1.442.166,1.529.01.132-.239-.463-.385-.463-.385a8.56,8.56,0,0,1-1.008-.3,16.972,16.972,0,0,1-2.709-2.234c.123-.145.525-.146.692-.1s.463.168.63.216a.562.562,0,0,0,.53-.341c.07-.2-.555-.551-.555-.551A3.314,3.314,0,0,0,753.668,586.685Z" transform="translate(-709.21 -549.377)" fill="#efac7f"/>
          <path id="Trazado_125322" data-name="Trazado 125322" d="M717.753,527.039s1.669-.529,2.739-1.018c.717-.327,3.844-1.879,3.844-1.879a68.448,68.448,0,0,0-2.26-7.71c-3.345-7.483-7.146-2.322-7.662-1.119C713.262,518,717.753,527.039,717.753,527.039Z" transform="translate(-695.92 -503.483)" fill="#62bdf3"/>
        </g>
        <path id="Trazado_125323" data-name="Trazado 125323" d="M1129.216,728.133a20.315,20.315,0,0,1,2.742-10.3,8.266,8.266,0,1,0-14.155.01,20.3,20.3,0,0,1,2.737,10.3h-40.128V707.99l-.662.081a21.392,21.392,0,0,0-8.178,2.743,7.086,7.086,0,1,1-.01-12.123,21.41,21.41,0,0,0,8.188,2.749l.662.081V685.156a50.32,50.32,0,0,1,10.164-10.6,49.075,49.075,0,0,1,30.5-10.7,37.547,37.547,0,0,1,29.327,14.174c7.307,8.875,11.333,20.766,11.333,33.481a62.585,62.585,0,0,1-2.31,16.621Z" transform="translate(-631.319 -327.908)" fill="#222b5a"/>
        <g id="Grupo_876567" data-name="Grupo 876567" transform="translate(480.903 406.328)">
          <path id="Trazado_125324" data-name="Trazado 125324" d="M1596.974,1204.7H1584.95a1.078,1.078,0,0,1-1.079-1.078h0a1.078,1.078,0,0,1,1.079-1.078h12.025a1.079,1.079,0,0,1,1.079,1.078h0A1.079,1.079,0,0,1,1596.974,1204.7Z" transform="translate(-1549.518 -1184.599)" fill="#179587"/>
          <path id="Trazado_125325" data-name="Trazado 125325" d="M1592.133,1215.084h-14.387a1.078,1.078,0,0,1-1.079-1.078h0a1.078,1.078,0,0,1,1.079-1.079h14.387a1.079,1.079,0,0,1,1.078,1.079h0A1.078,1.078,0,0,1,1592.133,1215.084Z" transform="translate(-1543.495 -1193.276)" fill="#222b5a"/>
          <g id="Grupo_876566" data-name="Grupo 876566">
            <path id="Trazado_125326" data-name="Trazado 125326" d="M1382.046,1648.177s-1.107,1.1-1.133,1.5-.1,4.709.354,5.111,1.781.687,1.353,1.139c-.323.342-2.805.269-4.45.177-.48-.027-1.083-3.911-1.273-4.482-.276-.829-1.271-2.634-1.021-3.212a7.675,7.675,0,0,1,1.856-1.463,7.6,7.6,0,0,0,1.7-1.833Z" transform="translate(-1375.594 -1554.596)" fill="#efac7f"/>
            <path id="Trazado_125327" data-name="Trazado 125327" d="M1497.15,1679.909s-.991,2.838-.992,2.845c-.073.45-.364,1.561-.364,1.969,0,1.536,6.832-1.3,5.3-1.984a1.642,1.642,0,0,1-.619-1.076,3.631,3.631,0,0,1,.576-1.815Z" transform="translate(-1475.882 -1583.638)" fill="#efac7f"/>
            <g id="Grupo_876564" data-name="Grupo 876564" transform="translate(2.78 42.39)">
              <path id="Trazado_125328" data-name="Trazado 125328" d="M1510.683,1351.606l2.473,6.406s1.614,15.287.674,24.439c-.393,3.827-8.9,24.315-8.9,24.315l-4.226-.6,5.66-24.261-2.083-9.278-2.947-18.339Z" transform="translate(-1482.766 -1351.606)" fill="#222b5a"/>
              <path id="Trazado_125329" data-name="Trazado 125329" d="M1407.573,1353.643l-2.122,7.133-3.228,21.528-10.915,20.139s1.641,2.52,3.4,2.916l15.492-20.354,8.4-25.481-.295-5.661Z" transform="translate(-1391.309 -1353.309)" fill="#222b5a"/>
            </g>
            <path id="Trazado_125330" data-name="Trazado 125330" d="M1573.849,1235.913a2.872,2.872,0,0,0-1.305.882,22.934,22.934,0,0,1-2.87-.77s-7.9-2.442-8.318-2.592l-6.635-6.406-3.491,3.11s7.367,6.734,7.8,7,11.408,2.048,12.371,2.243c0,0,1.082.752,1.774,1.2a5.673,5.673,0,0,0,1.717.579,5.761,5.761,0,0,0,1.686.273c.812.013.043-.456.043-.456s-1.5-.356-1.461-.5c.033-.108.844.146,1.743.171.231.007.459.012.668.016.55.008.707-.4.132-.525a4.521,4.521,0,0,0-.788-.105,3.772,3.772,0,0,1-.734-.151,5,5,0,0,1-.756-.162c.016-.027-.062-.12.183-.122a11.391,11.391,0,0,0,1.356.116c.245-.026.761-.041.761-.041a4.354,4.354,0,0,0,.839-.2c.028-.324-.593-.435-.922-.346a3.006,3.006,0,0,0-.777-.041s-1.112-.232-1.089-.425c.019-.159,2.764-.234,2.773-.561.008-.267-.819-.29-.819-.29s-.5.033-.668.029c-.2-.005-.782-.077-.782-.077s-2.033-.365-2-.546.273-.6.406-.631.4.069.531.038a.4.4,0,0,0,.261-.413c-.02-.2-.706-.354-.706-.354A1.8,1.8,0,0,0,1573.849,1235.913Z" transform="translate(-1522.229 -1205.065)" fill="#f8a492"/>
            <path id="Trazado_125331" data-name="Trazado 125331" d="M1532.524,1202.369l-3.321,4.511s-2.936-3.519-4.255-5.286c-1.6-2.144-3.357-5.111-3.1-5.272a3.431,3.431,0,0,1,2.713-.652C1528.269,1196.635,1532.524,1202.369,1532.524,1202.369Z" transform="translate(-1497.645 -1178.781)" fill="#3b77be"/>
            <path id="Trazado_125332" data-name="Trazado 125332" d="M1376.55,1656.123s2.333,7.144,3.332,7.5c.265.093,1.758.472,2,1.042a.3.3,0,0,1,.015.051.594.594,0,0,1-.6.7h-4.74s-.673-3.21-.939-4.62c0,0-1.408-3.446-1.252-3.759S1376.55,1656.123,1376.55,1656.123Z" transform="translate(-1374.357 -1563.803)" fill="#222b5a"/>
            <path id="Trazado_125333" data-name="Trazado 125333" d="M1493.426,1699.9l.762-2.505a6.863,6.863,0,0,0,2.484.587,24.622,24.622,0,0,0,2.425-.587c3.279,1.094,5.966,1.625,5.477,2.505h-11.149Z" transform="translate(-1473.903 -1598.307)" fill="#222b5a"/>
            <path id="Trazado_125334" data-name="Trazado 125334" d="M1683,1290.087a1.645,1.645,0,0,0,1.448-.874A1.033,1.033,0,0,1,1683,1290.087Z" transform="translate(-1632.394 -1257.054)" fill="#fe875e"/>
            <path id="Trazado_125335" data-name="Trazado 125335" d="M1455.412,1193.78a38.554,38.554,0,0,0-5.29.883c-1.107.388-2.607,4.007-2.607,4.007s6.007,17.364,5.771,20.469-.9,7.7-.9,7.7,11.829.747,16.309-1.022c0,0-1.415-7.034-1.415-8.881s-.794-20.309-1.36-21.276-1.705-1.517-3.867-1.989S1455.412,1193.78,1455.412,1193.78Z" transform="translate(-1435.52 -1177.024)" fill="#3797db"/>
            <path id="Trazado_125336" data-name="Trazado 125336" d="M1496.462,1162.193l-.789,5.167s2.373,2.737,4.094,2.2c1.444-.448,1.064-2.476,1.064-2.476a14.82,14.82,0,0,1-.551-4.386C1500.516,1161.239,1496.462,1162.193,1496.462,1162.193Z" transform="translate(-1475.781 -1150.605)" fill="#efac7f"/>
            <path id="Trazado_125337" data-name="Trazado 125337" d="M1503.97,1162.7c.236-1.463-3.818-.508-3.818-.508l-.065.428a2.378,2.378,0,0,0,.439.72,5.355,5.355,0,0,0,3.545,1.594A7.916,7.916,0,0,1,1503.97,1162.7Z" transform="translate(-1479.472 -1150.605)" fill="#d19369"/>
            <g id="Grupo_876565" data-name="Grupo 876565" transform="translate(16.769)">
              <path id="Trazado_125338" data-name="Trazado 125338" d="M1494.83,1110.943c-.115-.042-.918,5.885.607,7.515s4.5,2.165,5.564.88c1.179-1.421,1.12-7.79-1.252-9.467S1494.83,1110.943,1494.83,1110.943Z" transform="translate(-1491.583 -1106.665)" fill="#efac7f"/>
              <path id="Trazado_125339" data-name="Trazado 125339" d="M1483.89,1093.115a6.6,6.6,0,0,0-3.457,1.958c-.832.1-1.964.555-3.132,2.476a4.785,4.785,0,0,0,1.3,6.264,3.733,3.733,0,0,1,1.65,2.764l.264-.764a4.261,4.261,0,0,0,.209-1.808,3.5,3.5,0,0,0-.271-1.086c-.4-.858.864-1.427,1.219-2.141.273-.549.286-1.807.717-2.715l.515-.693a3.283,3.283,0,0,1,2.347-.658C1486.409,1096.972,1486.242,1092.639,1483.89,1093.115Z" transform="translate(-1476.627 -1093.079)" fill="#282828"/>
              <path id="Trazado_125340" data-name="Trazado 125340" d="M1499.138,1139.867c.012.723-.319,1.315-.739,1.322s-.771-.573-.783-1.3.319-1.315.739-1.322S1499.126,1139.144,1499.138,1139.867Z" transform="translate(-1494.175 -1131.112)" fill="#efac7f"/>
            </g>
            <rect id="Rectángulo_293810" data-name="Rectángulo 293810" width="23.874" height="20.71" transform="translate(50.969 41.838) rotate(180)" fill="#187167"/>
            <path id="Trazado_125505" data-name="Trazado 125505" d="M0,0H20.71V20.71H0Z" transform="translate(62.661 41.838) rotate(180)" fill="#179587"/>
            <path id="Trazado_125341" data-name="Trazado 125341" d="M1501,1267.592c-1.219-.353-15.18-3.93-15.706-4.276s-9.149-8.4-9.149-8.4l4.939-2.613,7.72,7.6c.527.221,10.415,3.982,10.415,3.982a29.5,29.5,0,0,0,3.285,1.181,12.616,12.616,0,0,1,2.133-.626,2.964,2.964,0,0,1,1.2.1s.868.265.866.475a.428.428,0,0,1-.394.38c-.175.01-.507-.134-.682-.124s-.541.4-.61.578c-.042.108,2.4,1.9,2.524,2.139.056.056,2.989-.143,2.868.044,0,.3-.349.214-.352.257-.045.8-4.2,1.4-4.484,1.319C1505.1,1269.474,1501,1267.592,1501,1267.592Z" transform="translate(-1459.456 -1226.194)" fill="#efac7f"/>
            <path id="Trazado_125342" data-name="Trazado 125342" d="M1454.64,1214.982l5.658-3.7s-6.553-9.938-8.79-10.964c-1.54-.707-3.458.359-4.209,2.971C1446.483,1206.122,1454.64,1214.982,1454.64,1214.982Z" transform="translate(-1435.291 -1182.553)" fill="#3b77be"/>
          </g>
          <path id="Trazado_125343" data-name="Trazado 125343" d="M1662.6,1222.621l-.96.92v-5.374a1.009,1.009,0,0,0-1.009-1.009h-8.391a1.009,1.009,0,0,0-1.009,1.009v6.245l-1.033-1.791-3.543,1.033s2.843,5.412,4.577,6.295c2.319,1.181,8.077,1.155,10.408,0,1.419-.7,3.839-5.035,3.839-5.035Z" transform="translate(-1602.005 -1196.813)" fill="#222b5a"/>
          <path id="Trazado_125344" data-name="Trazado 125344" d="M1694.5,1282.251c-.164-1.859-1.415-3.3-2.934-3.3s-2.779,1.456-2.936,3.325A19.631,19.631,0,0,0,1694.5,1282.251Z" transform="translate(-1637.096 -1248.471)" fill="#179587"/>
        </g>
        <g id="Grupo_876569" data-name="Grupo 876569" transform="translate(475.394 287.874)">
          <path id="Trazado_125345" data-name="Trazado 125345" d="M1353.693,371.978c-.855,1.454-2.383,1.395-4.022,1.8-1.1.274-1.777,2.084-1.672,3.453.267,3.468-2.451,2.88-4.639,4.315-5.239,3.439-1.859,12.411,3.865,12.991a6.063,6.063,0,0,0,3.469-.641,14.4,14.4,0,0,1,2.315-1.37c1.93-.683,4.078-.92,5.62-2.4,2.207-2.123.378-3.16.948-4.705s3.023-.771,3.49-3.972c.505-3.463-.048-6.448-1.325-8.168-2.114-2.846-5.827-3.039-7.18-2.176A2.608,2.608,0,0,0,1353.693,371.978Z" transform="translate(-1340.758 -370.652)" fill="#5e2e0d"/>
          <path id="Trazado_125346" data-name="Trazado 125346" d="M1498.4,396.5c-.2-.43-2.016.843-2.417.6s1.623-2.284,1.417-2.641c-.38-.657-2.355,2.1-2.549,1.808s1.7-3.235,1.025-3.4-1.648,3.257-2,3.037,1.189-3.1.533-3.685c-.35-.314-2,5.252-2.6,5.483s-1.274-2.2-1.838-2.1,1.849,4.469,1.731,4.811-2.328,7.481-3.632,9.638c-.785-.375-1.55-.753-2.278-1.121-.293,1.656-.325,3.4-.71,5.025,2.531,1.112,4.789,1.919,5.524,1.649,2.238-.824,3.342-11.689,3.7-13.716s1.317-2.427,1.862-3.492S1498.6,396.932,1498.4,396.5Z" transform="translate(-1461.421 -388.678)" fill="#efac7f"/>
          <path id="Trazado_125347" data-name="Trazado 125347" d="M1433.048,474.174l-3.746,3.779s4.949,2.684,9.147,4.528c.385-1.626.417-3.369.71-5.025C1435.69,475.705,1433.048,474.174,1433.048,474.174Z" transform="translate(-1414.784 -457.2)" fill="#222b5a"/>
          <path id="Trazado_125348" data-name="Trazado 125348" d="M1594.669,722.737a29.917,29.917,0,0,1,2.965,4.208c.063.12.087.811.149.937,2.557,1.682,5.266,1.216,7.49.523a22.742,22.742,0,0,1-3.694-1.674,31.908,31.908,0,0,1-3.137-5.44C1597.3,722.43,1596.216,722.3,1594.669,722.737Z" transform="translate(-1553.036 -663.797)" fill="#efac7f"/>
          <path id="Trazado_125349" data-name="Trazado 125349" d="M1612.246,756.343a7.041,7.041,0,0,0,.069,3.139c.242.054,8.827,1.322,9.926.22.661-.663-.587-1.173-2.383-1.992C1617.634,758.4,1612.329,757.035,1612.246,756.343Z" transform="translate(-1567.622 -693.103)" fill="#3797db"/>
          <path id="Trazado_125350" data-name="Trazado 125350" d="M1599.113,769.967a29.91,29.91,0,0,1,2.965,4.208c.063.12.087.811.149.937,2.557,1.682,5.266,1.216,7.49.523a22.737,22.737,0,0,1-3.694-1.674,31.941,31.941,0,0,1-3.137-5.44C1601.74,769.66,1600.66,769.529,1599.113,769.967Z" transform="translate(-1556.752 -703.283)" fill="#efac7f"/>
          <path id="Trazado_125351" data-name="Trazado 125351" d="M1616.69,803.575a7.049,7.049,0,0,0,.069,3.139c.242.054,8.827,1.322,9.927.22.661-.663-.586-1.172-2.383-1.992C1622.079,805.635,1616.773,804.267,1616.69,803.575Z" transform="translate(-1571.337 -732.59)" fill="#3797db"/>
          <path id="Trazado_125352" data-name="Trazado 125352" d="M1479.407,635.781l-4.464,1.546L1450.91,617.39a159.475,159.475,0,0,1,16.375,1C1470.428,618.71,1479.407,635.781,1479.407,635.781Z" transform="translate(-1432.849 -576.932)" fill="#13695f"/>
          <path id="Trazado_125353" data-name="Trazado 125353" d="M1392.053,600.022a13.64,13.64,0,0,0-.722,2.605c-.262,2.973,1.275,6.751,2.93,7.329,1.7.593,12.128,3.5,18.411,2.617l13.617,18.152,4.54-1.993-10.635-18.677s-2.05-3.216-3.735-3.973-15.384-4.407-15.384-4.407l-2.12-3.083Z" transform="translate(-1383.014 -561.218)" fill="#179587"/>
          <path id="Trazado_125354" data-name="Trazado 125354" d="M1404.108,469.114a28.244,28.244,0,0,0-1.528-2.5,5.834,5.834,0,0,0-2.8-2.1s-.675.014-1.45.052a.619.619,0,0,1-.146.258c-.291.219-1.959-.064-3.038.67-3.612,3.107-2.613,18.167-2.329,22.923l8.776.323s.839-10.453,3.074-13.082C1406.226,473.833,1405.225,471.179,1404.108,469.114Z" transform="translate(-1383.997 -449.129)" fill="#179587"/>
          <path id="Trazado_125355" data-name="Trazado 125355" d="M1427.711,430.733a45,45,0,0,1-1.027,5.386c-.422,1.053,2.323,3.305,4.606,3.989s-.7-2.326-.6-3.452.51-6.456.51-6.456Z" transform="translate(-1412.559 -420.437)" fill="#efac7f"/>
          <path id="Trazado_125356" data-name="Trazado 125356" d="M1435.6,431.73c.067-.882.115-1.529.115-1.529l-3.485.532s-.088.509-.185,1.229A2.857,2.857,0,0,0,1435.6,431.73Z" transform="translate(-1417.074 -420.437)" fill="#d19369"/>
          <path id="Trazado_125357" data-name="Trazado 125357" d="M1424.934,384.976a3.957,3.957,0,0,0-2.222,1.609c-.848,1.3-1.43,5.123,1.364,6.908s4.967-.74,5-3.2S1428.589,384.542,1424.934,384.976Z" transform="translate(-1408.689 -382.595)" fill="#efac7f"/>
          <path id="Trazado_125358" data-name="Trazado 125358" d="M1461.953,405.965c-.238.594-.711.963-1.056.824s-.431-.734-.193-1.328.711-.963,1.056-.824S1462.192,405.371,1461.953,405.965Z" transform="translate(-1440.925 -399.04)" fill="#efac7f"/>
          <path id="Trazado_125359" data-name="Trazado 125359" d="M1417.629,411.089c.2.64.018,1.27-.414,1.408s-.945-.27-1.148-.91-.017-1.27.414-1.408S1417.427,410.449,1417.629,411.089Z" transform="translate(-1403.651 -403.676)" fill="#efac7f"/>
          <g id="Grupo_876568" data-name="Grupo 876568" transform="translate(16.004 21.482)">
            <path id="Trazado_125360" data-name="Trazado 125360" d="M1496.587,502.533s.939.026,1.207,0c1.541-.148.9,2.128.9,2.128s-.752-.737-1.054-.737a4.66,4.66,0,0,0-.721.082Z" transform="translate(-1487.04 -502.385)" fill="#222b5a"/>
            <path id="Trazado_125361" data-name="Trazado 125361" d="M1521,593.559s.634.986,1.347.543,1.942-1.3,2.172-.656.184,1.186-.065,1.316a10.928,10.928,0,0,1-3.084,1.2,2.594,2.594,0,0,1-1.823-.877Z" transform="translate(-1506.236 -578.202)" fill="#3b77be"/>
            <path id="Trazado_125362" data-name="Trazado 125362" d="M1454.614,538.025a5.2,5.2,0,0,0-.612-2.38,46.809,46.809,0,0,0-6.376-7.359c-.681-.4-.191-1.925-.191-1.925l-2.728-1.473-1.421-.768s-3.222,4.918-3.468,5.382.19,1.984-.136,2.92.013,6.01-.449,6.567c-.361.361-.7.412-.809.629a.372.372,0,0,0,.018.432c.37.475,2.258.076,2.258.076.014-.029.792-1.122.67-1.772-.122-.629.264-4.416.525-4.416.229,0,1.317,1.683,1.751,2v0a.236.236,0,0,0,.119.055,7.415,7.415,0,0,1,2.772.887,1.406,1.406,0,0,1,.168.838c.006.267-.009.568-.032.876-.043.563-.122,1.14-.177,1.519.479,0,.959,0,1.438,0a2.481,2.481,0,0,1,2.189-1.2,2.507,2.507,0,0,1,2.116,1.08c.8-.043,1.116.349,1.806.284C1454.082,540.041,1454.625,538.333,1454.614,538.025Z" transform="translate(-1438.361 -520.438)" fill="#3797db"/>
            <path id="Trazado_125363" data-name="Trazado 125363" d="M1471.076,502.035a1.349,1.349,0,0,0-1.143-.352,4.066,4.066,0,0,1-1,.016,3.3,3.3,0,0,0-2.676.637c-.646.646-.728,2.951,0,4.033s2.786,1.356,2.967,1.847,1.966.728,2.221.128a.6.6,0,0,0,.473.05,1.123,1.123,0,0,0,.674-1.562c-.237-.71-1.238-2.166-1.056-3.477A1.477,1.477,0,0,0,1471.076,502.035Z" transform="translate(-1461.255 -501.667)" fill="#3b77be"/>
            <path id="Trazado_125364" data-name="Trazado 125364" d="M1495.244,528.9a.323.323,0,0,0-.011.435,4.315,4.315,0,0,0,.844.8c.4.227.773-.735.773-1.165C1496.851,528.554,1495.942,528.183,1495.244,528.9Z" transform="translate(-1485.842 -524.096)" fill="#222b5a"/>
            <path id="Trazado_125365" data-name="Trazado 125365" d="M1479.2,571.272a.374.374,0,0,0-.4-.359h-.007A1.81,1.81,0,0,0,1477.14,573a.452.452,0,0,1,0,.154,11.041,11.041,0,0,1-.691,1.448l1.91.477c.467-.809.929-1.562.929-1.562Z" transform="translate(-1470.202 -559.559)" fill="#3b77be"/>
            <path id="Trazado_125366" data-name="Trazado 125366" d="M1466.376,593.573s-.722,2.164-.928,2.991c.582.335.936-.323,2.257.041.035-.26.5-1.865.5-2.258a12.862,12.862,0,0,1,1.053-1.892.1.1,0,0,0-.062-.154c-.578-.161-1.312-.457-1.889-.617a.158.158,0,0,0-.184.079A16.919,16.919,0,0,0,1466.376,593.573Z" transform="translate(-1461.007 -576.919)" fill="#3b77be"/>
            <path id="Trazado_125367" data-name="Trazado 125367" d="M1461.967,616.758a1.3,1.3,0,0,1,1.184-.672c.62,0,1.609.925,1.609.925a1.626,1.626,0,0,1-1.1.287C1462.85,617.3,1461.688,617.36,1461.967,616.758Z" transform="translate(-1458.061 -597.325)" fill="#3b77be"/>
            <path id="Trazado_125368" data-name="Trazado 125368" d="M1484.2,615.964a1.3,1.3,0,0,1,1.183-.672,1.662,1.662,0,0,1,.781.293.5.5,0,0,1-.25.919h-.024C1485.08,616.5,1483.917,616.566,1484.2,615.964Z" transform="translate(-1476.646 -596.661)" fill="#3b77be"/>
            <path id="Trazado_125369" data-name="Trazado 125369" d="M1519.611,615.964a1.628,1.628,0,0,1,1.424-.672,2.267,2.267,0,0,1,.94.293c.508.26.3.915-.3.919h-.029C1520.674,616.5,1519.275,616.566,1519.611,615.964Z" transform="translate(-1506.246 -596.661)" fill="#3b77be"/>
            <path id="Trazado_125370" data-name="Trazado 125370" d="M1468.386,502.518a.6.6,0,0,1,.049-.84,2.9,2.9,0,0,0-2.175.667c-.646.646-.728,2.951,0,4.033.654.972,2.379,1.291,2.856,1.7.494-.841-.262-1.548-.44-1.944s.887-1.393,1.01-2.185S1468.832,502.963,1468.386,502.518Z" transform="translate(-1461.255 -501.675)" fill="#222b5a"/>
            <path id="Trazado_125371" data-name="Trazado 125371" d="M1457.64,502.429a2.38,2.38,0,0,1-1.457-.064c-.811-.287-1.616,1.161-1.616,1.161a6.819,6.819,0,0,0,1.352,2.021C1456.52,505.943,1457.64,502.429,1457.64,502.429Z" transform="translate(-1451.91 -502.219)" fill="#3b77be"/>
          </g>
          <path id="Trazado_125372" data-name="Trazado 125372" d="M1429.3,527.018c0-.36-1.1-1.4-1.635-1.232a26.28,26.28,0,0,0-2.6,1.473l-9.237-2.172a33.728,33.728,0,0,1-2.559-9.883,12.665,12.665,0,0,0-4.914,1.672c.808,4.368,2.771,11.447,4.941,12.775.913.559,11.814-.669,11.814-.669a14.035,14.035,0,0,0,2.83.161C1430.246,528.507,1429.3,527.744,1429.3,527.018Z" transform="translate(-1397.266 -491.503)" fill="#efac7f"/>
          <path id="Trazado_125373" data-name="Trazado 125373" d="M1408.444,468.588c-.286-1.378-.619-2.762-2.109-3.2a3.01,3.01,0,0,0-2.7.593,3.68,3.68,0,0,0-1.119,2.966,42.565,42.565,0,0,0,.63,7.5c1.675-.933,4.114-.826,6.041-1.088A26.1,26.1,0,0,0,1408.444,468.588Z" transform="translate(-1392.391 -449.766)" fill="#222b5a"/>
        </g>
        <path id="Trazado_125374" data-name="Trazado 125374" d="M884.777,339.523c-.977,5.19-4.1,16.1-9.186,15.934-.247-7.121-.6-13.238-1.085-15.171a9.828,9.828,0,0,0-.4-1.163c3.169.275,5.073-4.556,5.8-7.959-.65,2.159-2.122,5.619-4.051,6.776a2.4,2.4,0,0,1-2.2.235c-1.839-3.426-5.315-5.718-6.992-7.757-1.327-1.632-.476-8.158-.148-10.228a34.912,34.912,0,0,0-.755,8.373c.259,2.767,1.687,2.942,4.957,6.658,2.619,2.931,3.533,4.512,3.625,15.743a4.559,4.559,0,0,1-.724.093c-2.681.049-5.147-2.555-6.512-4.834,1.079,2.072,2.992,4.418,5.236,5.129a5.023,5.023,0,0,0,1.276.221,5.393,5.393,0,0,0,.729-.042c.058.985.359,20.281.093,32.747.791.01.647-.36,1.423-.3-.03-3.377.142-16-.217-27.084C881.574,356.655,884.066,345.677,884.777,339.523Z" transform="translate(-468.205 -40.589)" fill="#222b5a"/>
        <g id="Grupo_876570" data-name="Grupo 876570" transform="translate(393.442 279.091)">
          <path id="Trazado_125375" data-name="Trazado 125375" d="M842.32,320.024a4.466,4.466,0,0,0,3.013.731l-4.382-3.513A4.466,4.466,0,0,0,842.32,320.024Z" transform="translate(-840.951 -317.216)" fill="#96a65f"/>
          <path id="Trazado_125376" data-name="Trazado 125376" d="M840.951,317.11l4.382,3.513a3.657,3.657,0,0,0-4.382-3.513Z" transform="translate(-840.951 -317.084)" fill="#9ed16f"/>
        </g>
        <g id="Grupo_876571" data-name="Grupo 876571" transform="translate(412.308 311.416)">
          <path id="Trazado_125377" data-name="Trazado 125377" d="M958.869,523.023a4.466,4.466,0,0,0,2.756-1.419l-5.612.212A4.466,4.466,0,0,0,958.869,523.023Z" transform="translate(-956.013 -520.395)" fill="#96a65f"/>
          <path id="Trazado_125378" data-name="Trazado 125378" d="M956.013,515.65l5.612-.212a3.657,3.657,0,0,0-5.612.212Z" transform="translate(-956.013 -514.229)" fill="#9ed16f"/>
        </g>
        <g id="Grupo_876572" data-name="Grupo 876572" transform="translate(414.291 306.177)">
          <path id="Trazado_125379" data-name="Trazado 125379" d="M970.6,484.938a3.63,3.63,0,0,0,1.339-2.136l-3.836,2.477A3.631,3.631,0,0,0,970.6,484.938Z" transform="translate(-968.107 -482.716)" fill="#96a65f"/>
          <path id="Trazado_125380" data-name="Trazado 125380" d="M968.107,484.84l3.836-2.477a2.974,2.974,0,0,0-3.836,2.477Z" transform="translate(-968.107 -482.277)" fill="#9ed16f"/>
        </g>
        <g id="Grupo_876573" data-name="Grupo 876573" transform="translate(411.155 305.676)">
          <path id="Trazado_125381" data-name="Trazado 125381" d="M949.128,481.731a3.632,3.632,0,0,0,1.793,1.772l-1.582-4.283A3.631,3.631,0,0,0,949.128,481.731Z" transform="translate(-948.977 -479.219)" fill="#96a65f"/>
          <path id="Trazado_125382" data-name="Trazado 125382" d="M951.189,479.219l1.582,4.283a2.973,2.973,0,0,0-1.582-4.283Z" transform="translate(-950.826 -479.219)" fill="#9ed16f"/>
        </g>
        <g id="Grupo_876574" data-name="Grupo 876574" transform="translate(397.714 284.71)">
          <path id="Trazado_125383" data-name="Trazado 125383" d="M868.159,351.8a3.325,3.325,0,0,0-1.157,2l3.431-2.389A3.324,3.324,0,0,0,868.159,351.8Z" transform="translate(-867.002 -351.352)" fill="#96a65f"/>
          <path id="Trazado_125384" data-name="Trazado 125384" d="M870.433,351.681,867,354.07a2.723,2.723,0,0,0,3.431-2.389Z" transform="translate(-867.002 -351.627)" fill="#9ed16f"/>
        </g>
        <g id="Grupo_876575" data-name="Grupo 876575" transform="translate(409.814 294.722)">
          <path id="Trazado_125385" data-name="Trazado 125385" d="M942.963,412.422a3.324,3.324,0,0,0-2.16.813l4.169.325A3.324,3.324,0,0,0,942.963,412.422Z" transform="translate(-940.803 -412.416)" fill="#96a65f"/>
          <path id="Trazado_125386" data-name="Trazado 125386" d="M944.972,417.737l-4.169-.325a2.723,2.723,0,0,0,4.169.325Z" transform="translate(-940.803 -416.593)" fill="#9ed16f"/>
        </g>
        <g id="Grupo_876576" data-name="Grupo 876576" transform="translate(397.501 307.844)">
          <path id="Trazado_125387" data-name="Trazado 125387" d="M867.865,492.452a3.325,3.325,0,0,0-2.16.813l4.169.324A3.324,3.324,0,0,0,867.865,492.452Z" transform="translate(-865.705 -492.446)" fill="#96a65f"/>
          <path id="Trazado_125388" data-name="Trazado 125388" d="M869.874,497.767l-4.169-.324a2.723,2.723,0,0,0,4.169.324Z" transform="translate(-865.705 -496.624)" fill="#9ed16f"/>
        </g>
        <g id="Grupo_876577" data-name="Grupo 876577" transform="translate(399.847 305.093)">
          <path id="Trazado_125389" data-name="Trazado 125389" d="M883.548,477.26a3.325,3.325,0,0,0-1.672-1.592l1.521,3.895A3.325,3.325,0,0,0,883.548,477.26Z" transform="translate(-881.571 -475.668)" fill="#96a65f"/>
          <path id="Trazado_125390" data-name="Trazado 125390" d="M881.841,479.563l-1.521-3.895a2.723,2.723,0,0,0,1.521,3.895Z" transform="translate(-880.016 -475.668)" fill="#9ed16f"/>
        </g>
        <g id="Grupo_876578" data-name="Grupo 876578" transform="translate(408.794 292.22)">
          <path id="Trazado_125391" data-name="Trazado 125391" d="M936.9,398.186a2.124,2.124,0,0,0-1.052-1.033l.933,2.5A2.123,2.123,0,0,0,936.9,398.186Z" transform="translate(-935.642 -397.153)" fill="#96a65f"/>
          <path id="Trazado_125392" data-name="Trazado 125392" d="M935.719,399.655l-.933-2.5a1.739,1.739,0,0,0,.933,2.5Z" transform="translate(-934.577 -397.153)" fill="#9ed16f"/>
        </g>
        <g id="Grupo_876579" data-name="Grupo 876579" transform="translate(393.916 287.527)">
          <path id="Trazado_125393" data-name="Trazado 125393" d="M846.145,368.678a3.325,3.325,0,0,0-2.3.171l3.907,1.488A3.325,3.325,0,0,0,846.145,368.678Z" transform="translate(-843.843 -368.531)" fill="#96a65f"/>
          <path id="Trazado_125394" data-name="Trazado 125394" d="M847.75,371.955l-3.907-1.488a2.723,2.723,0,0,0,3.907,1.488Z" transform="translate(-843.843 -370.15)" fill="#9ed16f"/>
        </g>
        <path id="Trazado_125395" data-name="Trazado 125395" d="M941.746,586.012h.609V562.1a.3.3,0,0,0-.3-.3h0a.3.3,0,0,0-.3.3Z" transform="translate(-531.777 -242.58)" fill="#96a65f"/>
        <path id="Trazado_125396" data-name="Trazado 125396" d="M898.463,700.794s2.8-3.371,5.061-2.411,2.626-.774,3.807-.2a13.233,13.233,0,0,1,2.657,2.013Z" transform="translate(-495.591 -356.504)" fill="#3b77be"/>
        <g id="Grupo_876580" data-name="Grupo 876580" transform="translate(406.016 325.27)">
          <path id="Trazado_125397" data-name="Trazado 125397" d="M919.909,599.728a4.66,4.66,0,0,1-2.193-.572.148.148,0,0,1,.138-.261,3.919,3.919,0,0,0,4.253-.141.148.148,0,0,1,.185.23A4.112,4.112,0,0,1,919.909,599.728Z" transform="translate(-917.637 -598.721)" fill="#3797db"/>
        </g>
        <g id="Grupo_876581" data-name="Grupo 876581" transform="translate(404.004 322.885)">
          <path id="Trazado_125398" data-name="Trazado 125398" d="M907.623,587.032l-.263-.155c-.2-.117-1.935-1.164-1.993-1.97a.559.559,0,0,1,.224-.49.81.81,0,0,1,.834-.19c.832.33,1.126,2.281,1.156,2.5Zm-1.45-2.558a.653.653,0,0,0-.4.174.266.266,0,0,0-.115.238c.034.469.982,1.18,1.573,1.565-.13-.669-.437-1.759-.919-1.95A.388.388,0,0,0,906.174,584.473Z" transform="translate(-905.365 -584.177)" fill="#3797db"/>
        </g>
        <g id="Grupo_876582" data-name="Grupo 876582" transform="translate(403.961 325.52)">
          <path id="Trazado_125399" data-name="Trazado 125399" d="M905.546,602.254a.409.409,0,0,1-.361-.224.543.543,0,0,1-.046-.482c.237-.642,1.624-1.125,1.782-1.178l.361-.122-.186.333c-.154.278-.954,1.663-1.543,1.672Zm1.077-1.454c-.467.2-1.088.525-1.207.85a.248.248,0,0,0,.022.228c.049.082.09.08.11.081C905.8,601.954,906.27,601.36,906.623,600.8Z" transform="translate(-905.103 -600.248)" fill="#3797db"/>
        </g>
        <path id="Trazado_125400" data-name="Trazado 125400" d="M917.356,598.959a.253.253,0,1,1-.253-.253A.253.253,0,0,1,917.356,598.959Z" transform="translate(-510.963 -273.438)" fill="#3797db"/>
        <path id="Trazado_125401" data-name="Trazado 125401" d="M306.653,1220.017l.892.76,1.084-.5.939.922.99-.889,1.108,1,1.013-.706,1.222.783-.3.464-.914-.586-1.068.745-1.065-.957-1.007.9-1.037-1.018-1.058.488-.827-.7-.628.467-.327-.443Z" transform="translate(0 -792.875)" fill="#9ed16f"/>
        <path id="Trazado_125402" data-name="Trazado 125402" d="M1030.49,358.43l-3.612-.835-.955,2.573-3.593-.7-1.3,2.347-2.765-.179-.012,1.11,3.7.239,1.235-2.224,3.738.728.939-2.531,3.274.756Z" transform="translate(-595.737 -71.862)" fill="#9ed16f"/>
        <path id="Trazado_125403" data-name="Trazado 125403" d="M1718.438,686.6l1.3-2.2-1.075-2.323a.352.352,0,0,1,.4-.491l2.5.56,1.877-1.74a.352.352,0,0,1,.589.225l.24,2.548,2.235,1.247a.352.352,0,0,1-.032.63l-2.349,1.015-.5,2.511a.352.352,0,0,1-.609.164l-1.692-1.921-2.541.3A.352.352,0,0,1,1718.438,686.6Z" transform="translate(-1181.076 -341.657)" fill="#f1b62b"/>
        <g id="Grupo_876591" data-name="Grupo 876591" transform="translate(312.246 400.488)">
          <path id="Trazado_125404" data-name="Trazado 125404" d="M389.051,1083.417a2.73,2.73,0,0,1,1.757-1.547,2.114,2.114,0,0,1,2.662,1.463c.389,1.293-.285,3.163-2.827,5.378-3.342-.444-4.936-1.633-5.325-2.925a2.114,2.114,0,0,1,1.414-2.689A2.731,2.731,0,0,1,389.051,1083.417Z" transform="translate(-378.749 -1077.787)" fill="#179587"/>
          <g id="Grupo_876583" data-name="Grupo 876583" transform="translate(0 7.568)">
            <path id="Trazado_125405" data-name="Trazado 125405" d="M346.233,1105.187a28.183,28.183,0,0,0,3.163-.59c.315-.078.883-.119,1.034-.442a.341.341,0,0,0-.107-.455c-.3-.2-.745.015-1.062.093-.966.237-2.071.46-3.2.621a.4.4,0,0,0-.3.473.4.4,0,0,0,.473.3Z" transform="translate(-345.752 -1103.615)" fill="#179587"/>
          </g>
          <g id="Grupo_876584" data-name="Grupo 876584" transform="translate(16.757 6.267)">
            <path id="Trazado_125406" data-name="Trazado 125406" d="M448.416,1097.073c.464-.106.926-.22,1.389-.333a4.36,4.36,0,0,0,1.366-.412.343.343,0,0,0-.144-.642,4.317,4.317,0,0,0-1.4.265c-.462.115-.925.228-1.385.35a.4.4,0,0,0,.172.773Z" transform="translate(-447.948 -1095.678)" fill="#179587"/>
          </g>
          <g id="Grupo_876585" data-name="Grupo 876585" transform="translate(5.451 11.517)">
            <path id="Trazado_125407" data-name="Trazado 125407" d="M379.769,1130.34a4.954,4.954,0,0,1,1.427-2.093.32.32,0,0,0-.364-.516,3.685,3.685,0,0,0-1.819,2.381.4.4,0,0,0,.755.229Z" transform="translate(-378.996 -1127.701)" fill="#179587"/>
          </g>
          <g id="Grupo_876586" data-name="Grupo 876586" transform="translate(11.205 12.653)">
            <path id="Trazado_125408" data-name="Trazado 125408" d="M415.036,1137.278a3.5,3.5,0,0,1-.107-1.447c.041-.3.408-1.194-.17-1.2-.544-.01-.616.9-.652,1.283a4.139,4.139,0,0,0,.152,1.542c.143.489.916.321.776-.173Z" transform="translate(-414.09 -1134.626)" fill="#179587"/>
          </g>
          <g id="Grupo_876587" data-name="Grupo 876587" transform="translate(15.083 10.648)">
            <path id="Trazado_125409" data-name="Trazado 125409" d="M438.026,1123.194l.907.374c.3.124.614.336.936.185a.35.35,0,0,0,.146-.461c-.115-.3-.57-.389-.846-.5l-.909-.368a.406.406,0,0,0-.5.269.412.412,0,0,0,.269.5Z" transform="translate(-437.74 -1122.401)" fill="#179587"/>
          </g>
          <g id="Grupo_876588" data-name="Grupo 876588" transform="translate(4.119 1.225)">
            <path id="Trazado_125410" data-name="Trazado 125410" d="M373.189,1067.27c-1.555-2.127-1.538-2.143-1.784-2.29a.351.351,0,0,0-.521.37c.069.292.063.243,1.707,2.474a.41.41,0,0,0,.576.022.417.417,0,0,0,.022-.576Z" transform="translate(-370.875 -1064.932)" fill="#179587"/>
          </g>
          <g id="Grupo_876589" data-name="Grupo 876589" transform="translate(9.791)">
            <path id="Trazado_125411" data-name="Trazado 125411" d="M406.32,1059.975a6.055,6.055,0,0,0,.038-1.294c-.031-.4-.025-1.023-.45-1.206a.3.3,0,0,0-.3.069c-.275.3-.079.813-.052,1.184a7.144,7.144,0,0,1-.023,1.217.4.4,0,0,0,.379.409.4.4,0,0,0,.409-.379Z" transform="translate(-405.462 -1057.46)" fill="#179587"/>
          </g>
          <g id="Grupo_876590" data-name="Grupo 876590" transform="translate(14.657 1.102)">
            <path id="Trazado_125412" data-name="Trazado 125412" d="M437.187,1064.543c.026-.2-.161-.332-.33-.356-.349-.049-.693.362-.923.584a6.935,6.935,0,0,0-.729.842.4.4,0,0,0,.129.548.407.407,0,0,0,.547-.129C436.761,1064.933,437.125,1065.029,437.187,1064.543Z" transform="translate(-435.144 -1064.182)" fill="#179587"/>
          </g>
        </g>
        <path id="Trazado_125413" data-name="Trazado 125413" d="M1907.227,864.259c-.385,3.038,2.779,5.45,5.593,5.26a6.924,6.924,0,0,0,6.2-5.818c.492-3.309-1.5-5.955-4.572-6.2a3.838,3.838,0,0,0-4.045,5.118c.62,1.928,2.38,2.647,3.267,2.115a.881.881,0,0,0-.187-1.645.864.864,0,0,0-.859.37,2.527,2.527,0,0,1-.956-3.064c.6-1.839,2.929-1.944,4.373-1.086,1.838,1.092,2.127,3.443,1.453,5.316a5.656,5.656,0,0,1-4.742,3.665,4.407,4.407,0,0,1-4.669-4.03A.43.43,0,0,0,1907.227,864.259Z" transform="translate(-1338.925 -489.789)" fill="#222b5a"/>
        <path id="Trazado_125414" data-name="Trazado 125414" d="M419.163,1280.335a2.651,2.651,0,0,0,2.864,2.694,3.547,3.547,0,0,0,3.178-2.98,2.607,2.607,0,0,0-2.342-3.174,1.965,1.965,0,0,0-2.071,2.621c.318.988,1.219,1.356,1.673,1.083a.451.451,0,0,0-.1-.843.443.443,0,0,0-.44.19,1.294,1.294,0,0,1-.49-1.569,1.5,1.5,0,0,1,2.24-.557,2.225,2.225,0,0,1,.744,2.723,2.9,2.9,0,0,1-2.429,1.877,2.257,2.257,0,0,1-2.391-2.064A.22.22,0,0,0,419.163,1280.335Z" transform="translate(-94.867 -840.404)" fill="#9ed16f"/>
        <path id="Trazado_125415" data-name="Trazado 125415" d="M451.355,839.649l-.023-2.913-2.413-1.633a.4.4,0,0,1,.1-.711l2.764-.922.807-2.8a.4.4,0,0,1,.707-.127l1.731,2.344,2.912-.1a.4.4,0,0,1,.339.633l-1.694,2.371.993,2.739a.4.4,0,0,1-.5.518l-2.778-.878-2.3,1.791A.4.4,0,0,1,451.355,839.649Z" transform="translate(-119.609 -467.125)" fill="#3797db"/>
        <g id="Grupo_876600" data-name="Grupo 876600" transform="translate(538.838 401.83)">
          <path id="Trazado_125416" data-name="Trazado 125416" d="M1752.539,1093.141a2.434,2.434,0,1,1,2.6,2.26A2.435,2.435,0,0,1,1752.539,1093.141Z" transform="translate(-1748.46 -1086.457)" fill="#62bdf3"/>
          <g id="Grupo_876592" data-name="Grupo 876592" transform="translate(6.656 11.059)">
            <path id="Trazado_125417" data-name="Trazado 125417" d="M1769.842,1135.6a16.284,16.284,0,0,0-.474-2.143.556.556,0,0,0-1.075.222,17.454,17.454,0,0,0,.459,2.3.582.582,0,0,0,.737.353.594.594,0,0,0,.353-.737Z" transform="translate(-1768.292 -1133.096)" fill="#62bdf3"/>
          </g>
          <g id="Grupo_876593" data-name="Grupo 876593" transform="translate(9.224 8.783)">
            <path id="Trazado_125418" data-name="Trazado 125418" d="M1787.107,1120.976a24.185,24.185,0,0,1-2.255-1.627.556.556,0,0,0-.73.839,10.6,10.6,0,0,0,2.46,1.85.592.592,0,0,0,.525-1.061Z" transform="translate(-1783.953 -1119.216)" fill="#62bdf3"/>
          </g>
          <g id="Grupo_876594" data-name="Grupo 876594" transform="translate(10.68 5.765)">
            <path id="Trazado_125419" data-name="Trazado 125419" d="M1793,1101.227a.419.419,0,0,0-.106.562c.273.495.965.47,1.457.453a5.256,5.256,0,0,0,1.512-.287.59.59,0,0,0-.392-1.113C1794.067,1101.324,1793.534,1100.8,1793,1101.227Z" transform="translate(-1792.833 -1100.807)" fill="#62bdf3"/>
          </g>
          <g id="Grupo_876595" data-name="Grupo 876595" transform="translate(8.869 1.252)">
            <path id="Trazado_125420" data-name="Trazado 125420" d="M1782.992,1073.486c-.708,1.036-1.288,1.386-1.2,1.957a.491.491,0,0,0,.638.42c.381-.087.588-.49.816-.773s.433-.544.629-.833a.606.606,0,0,0-.058-.829.591.591,0,0,0-.828.058Z" transform="translate(-1781.785 -1073.287)" fill="#62bdf3"/>
          </g>
          <g id="Grupo_876596" data-name="Grupo 876596" transform="translate(5.905)">
            <path id="Trazado_125421" data-name="Trazado 125421" d="M1765.119,1066.921a2.587,2.587,0,0,0-.57-1.149.51.51,0,0,0-.83.282,2.472,2.472,0,0,0,.288,1.258.59.59,0,1,0,1.112-.391Z" transform="translate(-1763.709 -1065.649)" fill="#62bdf3"/>
          </g>
          <g id="Grupo_876597" data-name="Grupo 876597" transform="translate(2.249 1.835)">
            <path id="Trazado_125422" data-name="Trazado 125422" d="M1743.495,1077.8c-1.022-.776-1.229-.995-1.631-.953a.486.486,0,0,0-.448.515c.1.49.381.624,1.32,1.309a.593.593,0,0,0,.815-.056.583.583,0,0,0-.057-.815Z" transform="translate(-1741.41 -1076.838)" fill="#62bdf3"/>
          </g>
          <g id="Grupo_876598" data-name="Grupo 876598" transform="translate(0 5.75)">
            <path id="Trazado_125423" data-name="Trazado 125423" d="M1727.927,1101.314a.54.54,0,0,0,.2.966,9.707,9.707,0,0,0,2.607-.383.608.608,0,0,0,.547-.629.594.594,0,0,0-.629-.547A10.263,10.263,0,0,0,1727.927,1101.314Z" transform="translate(-1727.696 -1100.715)" fill="#62bdf3"/>
          </g>
          <g id="Grupo_876599" data-name="Grupo 876599" transform="translate(1.634 9.465)">
            <path id="Trazado_125424" data-name="Trazado 125424" d="M1739.433,1123.577c-1.111,1.075-1.274.886-1.713,1.544a.5.5,0,0,0,.48.716,2.1,2.1,0,0,0,1.154-.621c.339-.269.664-.558.976-.858a.6.6,0,0,0-.058-.838.607.607,0,0,0-.839.058Z" transform="translate(-1737.659 -1123.376)" fill="#62bdf3"/>
          </g>
        </g>
        <path id="Trazado_125425" data-name="Trazado 125425" d="M588.059,1050.954h2.381V924.517a1.191,1.191,0,0,0-1.191-1.191h0a1.191,1.191,0,0,0-1.191,1.191Z" transform="translate(-236.083 -544.832)" fill="#3797db"/>
        <path id="Trazado_125426" data-name="Trazado 125426" d="M686.151,1040.039h2.381V911.461a1.19,1.19,0,0,0-1.19-1.191h0a1.191,1.191,0,0,0-1.191,1.191Z" transform="translate(-318.091 -533.917)" fill="#3797db"/>
        <rect id="Rectángulo_293812" data-name="Rectángulo 293812" width="16.388" height="1.427" transform="translate(353.669 392.2)" fill="#3797db"/>
        <rect id="Rectángulo_293813" data-name="Rectángulo 293813" width="16.388" height="1.427" transform="translate(353.669 411.32)" fill="#3797db"/>
        <rect id="Rectángulo_293814" data-name="Rectángulo 293814" width="16.388" height="1.427" transform="translate(353.669 430.439)" fill="#3797db"/>
        <rect id="Rectángulo_293815" data-name="Rectángulo 293815" width="16.388" height="1.427" transform="translate(353.669 449.559)" fill="#3797db"/>
        <g id="Grupo_876612" data-name="Grupo 876612" transform="translate(320.997 410.749)">
          <path id="Trazado_125427" data-name="Trazado 125427" d="M565.671,1430.745H555.333a1.545,1.545,0,0,0-1.546,1.545v5.8h1.729v-5.5h10.155Z" transform="translate(-528.428 -1379.8)" fill="#13375b"/>
          <path id="Trazado_125428" data-name="Trazado 125428" d="M539.3,1328.163l-3.2-3.381s-3.43,1.886-7.428,3.689c-1.1-1.913-2.893-8.207-2.99-8.507s2.1-4.082,1.61-4.176-1.13,2.019-1.65,1.8-1.856-5.118-2.169-4.85c-.585.5.7,3.05.395,3.235s-1.091-2.825-1.687-2.7,1.006,2.741.83,2.992-1.85-2.2-2.2-1.632c-.188.308,1.544,2.135,1.188,2.339s-1.917-.946-2.1-.574,1.457.761,1.913,1.7,1.286,1.31,1.561,3.093,1.028,11.313,2.97,12.078C528.03,1333.949,539.3,1328.163,539.3,1328.163Z" transform="translate(-500.077 -1281.137)" fill="#efac7f"/>
          <g id="Grupo_876601" data-name="Grupo 876601" transform="translate(62.944 82.065)">
            <path id="Trazado_125429" data-name="Trazado 125429" d="M791.894,1629.44a60.315,60.315,0,0,0,.1-8.618c1.568-.08,2.9-.179,4.462-.282-.653,4.472-1.091,9.077-1.091,9.077l.107.884.058,2.62-8.875.066a39.805,39.805,0,0,0,4.487-2.468A1.78,1.78,0,0,0,791.894,1629.44Z" transform="translate(-786.06 -1620.539)" fill="#efac7f"/>
            <path id="Trazado_125430" data-name="Trazado 125430" d="M792.721,1684.26l-9.358.111c-.339-.031-.421-.3-.3-.473a11.168,11.168,0,0,1,2.512-1.157c2.107.22,6.516-1.22,6.848-1.7A11.431,11.431,0,0,1,792.721,1684.26Z" transform="translate(-783.009 -1671.117)" fill="#222b5a"/>
          </g>
          <g id="Grupo_876602" data-name="Grupo 876602" transform="translate(80.224 79.015)">
            <path id="Trazado_125431" data-name="Trazado 125431" d="M892.852,1612.04a60.319,60.319,0,0,0-4.454-7.379c1.291-.894,2.57-1.8,3.847-2.719,1.8,4.145,3.653,8.416,3.653,8.416l.557.7,1.43,2.2-7.507,4.734a39.887,39.887,0,0,0,2.512-4.463A1.782,1.782,0,0,0,892.852,1612.04Z" transform="translate(-888.398 -1601.942)" fill="#efac7f"/>
            <path id="Trazado_125432" data-name="Trazado 125432" d="M906.351,1659.972l-7.786,4.829c-.3.153-.518-.036-.508-.242.022-.423.8-1.2,1.525-2.307,1.906-.924,4.876-4.493,4.9-5.08A10.376,10.376,0,0,1,906.351,1659.972Z" transform="translate(-896.474 -1648.116)" fill="#222b5a"/>
          </g>
          <path id="Trazado_125433" data-name="Trazado 125433" d="M786.125,1136.058a7.351,7.351,0,0,0-4.535-8,8.489,8.489,0,0,0-1.918-5.683c-2.594-2.6-7.544-3.512-9.451-.2-2.52,1.425-4.5,4.512-3.75,7.324-2.442,2.529-1.514,7.1,2.046,9.266a7.5,7.5,0,0,0,3.925,6.87,16.389,16.389,0,0,1,1.645.823c-.155-.147,1.838,5.4,8.03,2.863C788.435,1146.734,790.243,1139.439,786.125,1136.058Z" transform="translate(-705.098 -1120.041)" fill="#5e2e0d"/>
          <path id="Trazado_125434" data-name="Trazado 125434" d="M785.464,1417.24c.769-4.263-1.9-14.832-3.53-19.479-1.694-4.833-2.771-25.287-2.771-25.287l1.92-2.245,7.836-.469s-3.334,10.244-3.334,13.764a64.18,64.18,0,0,0,3.527,17.335c1.758,4.362,1.027,13.507.5,16.515A11.372,11.372,0,0,1,785.464,1417.24Z" transform="translate(-716.85 -1328.814)" fill="#136c62"/>
          <path id="Trazado_125435" data-name="Trazado 125435" d="M790.9,1375.559c.359.359,2.465,2.853,2.465,4.6s-3.969,17.433-3.017,18.385,4.477,3.332,6.725,6.649a139.071,139.071,0,0,1,7.068,12.8,16.861,16.861,0,0,1-4.7,2.208c-.263-1.43-13.1-15.578-14.562-18.536s-2.26-16.483-3-18.279-2.717-6.359-2.717-6.359Z" transform="translate(-716.85 -1333.663)" fill="#179587"/>
          <path id="Trazado_125436" data-name="Trazado 125436" d="M721.119,1305s-4.838,5.521-10.192,7.6a6,6,0,0,0-1.557.96c0,.564,1,.156,1,.156a1.689,1.689,0,0,0-.16,1.217c.176.669,1.344.224,1.979.224.291,0,1.784-1.67,3.8-2.652,2.386-1.162,5.2-2.3,5.544-2.642C722.172,1309.23,721.307,1304.8,721.119,1305Z" transform="translate(-658.5 -1274.67)" fill="#efac7f"/>
          <path id="Trazado_125437" data-name="Trazado 125437" d="M782.028,1209.912s-4.869-.493-7.409,1.127-4.163,7.4-4.163,9.861,1.831,15.426,1.127,17.892c0,0,8.046-.352,10.8-.352s3.317-1.057,3.317-1.057-5.716-5.635-5.716-8.1S782.028,1209.912,782.028,1209.912Z" transform="translate(-709.569 -1195.117)" fill="#222b5a"/>
          <g id="Grupo_876611" data-name="Grupo 876611" transform="translate(0 22.244)">
            <path id="Trazado_125438" data-name="Trazado 125438" d="M435.557,1492.281v8.444h.914v-7.677h6.053v2.635a4.916,4.916,0,0,0-4.169,5.042,4.645,4.645,0,1,0,9.251,0,4.916,4.916,0,0,0-4.169-5.042v-2.635h1.256v-1h-1.256v-3.04h1.256v-1h-1.256v-3.383H460v-1.5h-9.15v-8.6a5.1,5.1,0,0,1,4.937-4.865h7.868v-1.5h-7.868a6.5,6.5,0,0,0-6.307,6.366v8.6h-6.04V1478.3h-.914v9.707h-3.065A4.106,4.106,0,0,0,435.557,1492.281Zm6.967-.234h-6.045a3.121,3.121,0,0,1,2.981-3.04h3.065Z" transform="translate(-429.583 -1433.323)" fill="#222b5a"/>
            <path id="Trazado_125439" data-name="Trazado 125439" d="M434.182,1621.378s.184,3.256.185,3.263c.068.413.335,1.434.335,1.81,0,1.412-6.282-1.2-4.874-1.824a4.431,4.431,0,0,0,1.035-1.285,10.954,10.954,0,0,0,.467-2.354Z" transform="translate(-424.621 -1561.094)" fill="#f48c7f"/>
            <path id="Trazado_125440" data-name="Trazado 125440" d="M404.347,1642.808a22.589,22.589,0,0,0,2.23.54c.756.108,1.751-.8,2.286-.555.588.27.622,2.753.622,2.753s-7.9.263-10.19-.074C398.379,1645.337,401.332,1643.814,404.347,1642.808Z" transform="translate(-399.125 -1579.288)" fill="#466eb6"/>
            <g id="Grupo_876603" data-name="Grupo 876603" transform="translate(41.008 16.804)">
              <path id="Trazado_125441" data-name="Trazado 125441" d="M649.226,1394.71h1.735V1361.65a2.26,2.26,0,0,1,2.434-2.023h15.61a.738.738,0,0,0,.755-.721h0a.738.738,0,0,0-.755-.721H653.4c-2.3,0-4.169,1.554-4.169,3.464Z" transform="translate(-649.226 -1358.185)" fill="#222b5a"/>
            </g>
            <g id="Grupo_876604" data-name="Grupo 876604" transform="translate(20.121 44.094)">
              <path id="Trazado_125442" data-name="Trazado 125442" d="M546.213,1538.648a10.566,10.566,0,1,1-10.472,10.566A10.519,10.519,0,0,1,546.213,1538.648Z" transform="translate(-533.461 -1536.348)" fill="#222b5a"/>
              <path id="Trazado_125443" data-name="Trazado 125443" d="M521.838,1537.488a12.752,12.752,0,1,0,12.751-12.866A12.809,12.809,0,0,0,521.838,1537.488Zm1.208,0a11.544,11.544,0,1,1,11.543,11.647A11.6,11.6,0,0,1,523.046,1537.488Z" transform="translate(-521.838 -1524.622)" fill="#222b5a"/>
            </g>
            <rect id="Rectángulo_293816" data-name="Rectángulo 293816" width="5.123" height="19.849" transform="translate(46.368 42.3) rotate(180)" fill="#179587"/>
            <g id="Grupo_876605" data-name="Grupo 876605" transform="translate(15.867 54.684)">
              <path id="Trazado_125444" data-name="Trazado 125444" d="M504.464,1589.211h-4.335a4.26,4.26,0,0,0-4.236,4.274v8.444h.992v-8.444a3.263,3.263,0,0,1,3.245-3.274h4.335Z" transform="translate(-495.893 -1589.211)" fill="#179587"/>
            </g>
            <rect id="Rectángulo_293817" data-name="Rectángulo 293817" width="13.473" height="2.311" transform="translate(22.645 45.889) rotate(180)" fill="#222b5a"/>
            <g id="Grupo_876606" data-name="Grupo 876606" transform="translate(16.363 58.725)">
              <rect id="Rectángulo_293818" data-name="Rectángulo 293818" width="8.001" height="1.001" fill="#179587"/>
            </g>
            <g id="Grupo_876607" data-name="Grupo 876607" transform="translate(23.926 49.8)">
              <rect id="Rectángulo_293819" data-name="Rectángulo 293819" width="18.474" height="1.501" fill="#179587"/>
            </g>
            <rect id="Rectángulo_293820" data-name="Rectángulo 293820" width="24.054" height="2.347" transform="translate(46.368 45.889) rotate(180)" fill="#222b5a"/>
            <g id="Grupo_876608" data-name="Grupo 876608" transform="translate(45.624 18.573)">
              <path id="Trazado_125445" data-name="Trazado 125445" d="M677.376,1405.5h1.488v-33.061a2.058,2.058,0,0,1,2.087-2.022h14.031v-1.442H680.951a3.525,3.525,0,0,0-3.575,3.464Z" transform="translate(-677.376 -1368.975)" fill="#179587"/>
            </g>
            <path id="Trazado_125446" data-name="Trazado 125446" d="M510.993,1640.948a5.61,5.61,0,1,0,5.583-5.066A5.344,5.344,0,0,0,510.993,1640.948Z" transform="translate(-492.65 -1573.546)" fill="#222b5a"/>
            <path id="Trazado_125447" data-name="Trazado 125447" d="M524.31,1651.051a3.416,3.416,0,1,0,3.4-3.085A3.254,3.254,0,0,0,524.31,1651.051Z" transform="translate(-503.784 -1583.648)" fill="#179587"/>
            <path id="Trazado_125448" data-name="Trazado 125448" d="M439.893,1462.939c1.615-1.614,24.116-.836,24.116-.836s-19.063,4.652-20.176,5.258-5.256,21.08-5.26,21.347c-1.15-.274-1.846-.067-3.016-.306C435.744,1484.845,437.292,1465.54,439.893,1462.939Z" transform="translate(-429.583 -1428.104)" fill="#3b77be"/>
            <path id="Trazado_125449" data-name="Trazado 125449" d="M452.13,1623.972s.184,3.256.185,3.263c.068.413.335,1.435.335,1.811,0,1.412-6.282-1.2-4.874-1.824.128-.057.993-.8,1.035-1.285.065-.741.03-1.918.03-1.918Z" transform="translate(-439.627 -1563.589)" fill="#f7a491"/>
            <path id="Trazado_125450" data-name="Trazado 125450" d="M422.294,1643.412a22.567,22.567,0,0,0,2.23.54c.755.108,1.751-.8,2.286-.555.588.27.622,2.752.622,2.752s-7.9.263-10.19-.073C416.326,1645.942,419.279,1644.418,422.294,1643.412Z" transform="translate(-414.129 -1579.793)" fill="#466eb6"/>
            <path id="Trazado_125451" data-name="Trazado 125451" d="M479.356,1464.071s-.194,5.108-1.894,5.169-12.61.3-18.755-.247l-4.134,18.273-4.855-.468s1.462-12.2,1.982-16.846c.512-4.567,1.986-8.4,4.568-8.491s19.555-2.719,19.555-2.719Z" transform="translate(-441.422 -1425.451)" fill="#3797db"/>
            <path id="Trazado_125452" data-name="Trazado 125452" d="M579.066,1342.016s2.755.7,2.381,6.079-3.349,21.658-8.852,22.936-9.087-10.309-9.087-10.309,3.472-1.141,4.917-6.526c1-3.731,3.686-12.151,4.359-12.556C574.454,1340.633,579.066,1342.016,579.066,1342.016Z" transform="translate(-536.556 -1327.242)" fill="#179587"/>
            <path id="Trazado_125453" data-name="Trazado 125453" d="M588.059,1484.279h1.488v-9.754a5.328,5.328,0,0,1,5.359-4.865h8.542v-1.5h-8.542c-3.647,0-6.847,2.975-6.847,6.366Z" transform="translate(-557.08 -1433.323)" fill="#179587"/>
            <path id="Trazado_126564" data-name="Trazado 126564" d="M12.027,0A12.135,12.135,0,1,1,0,12.135,12.081,12.081,0,0,1,12.027,0Z" transform="translate(34.341 46.219)" fill="#179587"/>
            <path id="Trazado_125454" data-name="Trazado 125454" d="M592.6,1536.249a14.646,14.646,0,1,0,14.645-14.776A14.711,14.711,0,0,0,592.6,1536.249Zm1.388,0a13.258,13.258,0,1,1,13.257,13.376A13.317,13.317,0,0,1,593.984,1536.249Z" transform="translate(-560.873 -1477.896)" fill="#179587"/>
            <path id="Trazado_125455" data-name="Trazado 125455" d="M621.418,1560.562a9.919,9.919,0,1,0,9.919-10.008A9.964,9.964,0,0,0,621.418,1560.562Z" transform="translate(-584.969 -1502.208)" fill="#222b5a"/>
            <path id="Trazado_125456" data-name="Trazado 125456" d="M668.3,1600.107a2.232,2.232,0,1,0,2.232-2.252A2.242,2.242,0,0,0,668.3,1600.107Z" transform="translate(-624.166 -1541.754)" fill="#179587"/>
            <rect id="Rectángulo_293821" data-name="Rectángulo 293821" width="15.143" height="2.623" transform="translate(17.272 68.941) rotate(180)" fill="#222b5a"/>
            <rect id="Rectángulo_293822" data-name="Rectángulo 293822" width="8.596" height="2.623" transform="translate(17.272 68.941) rotate(180)" fill="#179587"/>
            <g id="Grupo_876609" data-name="Grupo 876609" transform="translate(23.43 45.861)">
              <rect id="Rectángulo_293823" data-name="Rectángulo 293823" width="0.992" height="23.081" fill="#179587"/>
            </g>
            <path id="Trazado_125457" data-name="Trazado 125457" d="M541.453,1665.427a.612.612,0,1,0,.612-.617A.615.615,0,0,0,541.453,1665.427Z" transform="translate(-518.116 -1597.73)" fill="#45258f"/>
            <g id="Grupo_876610" data-name="Grupo 876610" transform="translate(35.403)">
              <path id="Trazado_125458" data-name="Trazado 125458" d="M620.488,1256.074a1.724,1.724,0,0,1,2.745.98,4.248,4.248,0,0,1,.774.02,6.258,6.258,0,0,1,1.134.774,4.748,4.748,0,0,1,1.91,3.813,5.677,5.677,0,0,1-1.787,4.286,4.449,4.449,0,0,1-1.143.972c-.535.287-.957.059-1.46.181-.423.1-.572.549-1.071.388-.7-.226-1.434-1.1-2.3-.972a8.737,8.737,0,0,1-2.872-.652c-2.57-1-.835-5.976-.342-7.741A3.6,3.6,0,0,1,620.488,1256.074Z" transform="translate(-615.044 -1255.704)" fill="#282828"/>
              <path id="Trazado_125459" data-name="Trazado 125459" d="M628.847,1312.642l-.667,1.821-.36,1.018s-.025,1.822.4,2.294c.731.812,3.739-2.2,3.739-2.2l.953-5.729Z" transform="translate(-625.724 -1300.969)" fill="#efac7f"/>
              <path id="Trazado_125460" data-name="Trazado 125460" d="M634.405,1311.7a6.579,6.579,0,0,1-4.428,2.776l.674-1.839,4.064-2.795Z" transform="translate(-627.529 -1300.969)" fill="#d19369"/>
              <path id="Trazado_125461" data-name="Trazado 125461" d="M627.589,1271.827a2.877,2.877,0,0,0-4.171,1.427,21.77,21.77,0,0,0-.824,2.647c-.587,2.446.156,5.116,1.271,5.362a5.388,5.388,0,0,0,5.429-4.124A4.759,4.759,0,0,0,627.589,1271.827Z" transform="translate(-621.184 -1268.835)" fill="#efac7f"/>
              <path id="Trazado_125462" data-name="Trazado 125462" d="M658.979,1302.745a.838.838,0,1,0,1.019-.8A.926.926,0,0,0,658.979,1302.745Z" transform="translate(-651.751 -1294.347)" fill="#efac7f"/>
              <path id="Trazado_125463" data-name="Trazado 125463" d="M625.958,1312.456s1.47.48,1.59,1.02a2.006,2.006,0,0,1-.78,1.919,2.712,2.712,0,0,1-2.679-.1,2.542,2.542,0,0,1-.32-2.509C624.188,1312.006,625.958,1312.456,625.958,1312.456Z" transform="translate(-622.173 -1303.043)" fill="#282828"/>
              <path id="Trazado_125464" data-name="Trazado 125464" d="M630.805,1317.434s-.009.6-.21.71a1.86,1.86,0,0,1-.67.215.959.959,0,0,1-.9-.408.731.731,0,0,1-.052-.087,2.68,2.68,0,0,1-.18-.83,3.249,3.249,0,0,1,.98-.09A4.111,4.111,0,0,1,630.805,1317.434Z" transform="translate(-626.541 -1306.891)" fill="#efac7f"/>
            </g>
          </g>
          <path id="Trazado_125465" data-name="Trazado 125465" d="M733.1,1335.192c.582-.581,3.281-1.479,5.328-2.958.9-.654,2.645-1.515,4.338-2.452a10.878,10.878,0,0,1,3.191,2.575c-3.063,1.408-6.388,2.824-6.893,3.328-.953.951-2.611,3.1-3,3.1a13.39,13.39,0,0,1-3.775-1.3C731.845,1337.041,732.516,1335.773,733.1,1335.192Z" transform="translate(-677.54 -1295.391)" fill="#efac7f"/>
          <path id="Trazado_125466" data-name="Trazado 125466" d="M796.909,1229.868c2.135-1.181,4.2-2.482,4.412-3.641.388-2.078-1.376-11.059-.388-12.785a11.541,11.541,0,0,1,3.211-3.17,3.051,3.051,0,0,1,1.976,2.324c.353,1.55-.282,15.5-.635,16.765-.166.595-2.58,2.965-5.292,4.212C799.357,1232.544,798.146,1230.553,796.909,1229.868Z" transform="translate(-731.686 -1195.477)" fill="#179587"/>
          <path id="Trazado_125467" data-name="Trazado 125467" d="M589.3,1443.733l-8.514,2.231a21.289,21.289,0,0,1-3.629,2.164c-1.126.358-2.5,1.6-2.232,1.979s1.684-.912,1.914-.873-.831,1.569-1,2.573-.517,1.977.058,1.9.993-2.339.993-2.339.884-1.708,1.027-1.506-.591,1.374-.591,1.374-.174,1.268-.251,1.714c-.057.333.249,1.331.51.964.154-.216.081-1.04.259-1.51a7.454,7.454,0,0,1,.963-1.73s-.64,2.89-.238,2.959.818-2.325.818-2.325.983-1.994,1.411-2.172,1.607-.937,2.519-1.253,4.68.726,6.361.748,4.409-1.018,4.636-2.337a1.656,1.656,0,0,0-.565-1.272A4.464,4.464,0,0,0,589.3,1443.733Z" transform="translate(-546.068 -1390.533)" fill="#efac7f"/>
          <path id="Trazado_125468" data-name="Trazado 125468" d="M658.39,1345.735s2.576-.458,4.907,3.736.822,15,.822,15l-5.013-2.558Z" transform="translate(-615.879 -1308.716)" fill="#135f56"/>
          <path id="Trazado_125469" data-name="Trazado 125469" d="M717.256,1363.009c-.3,0-1.888.1-2.137-.15s.82-.885.928-.777.561-.129.712.022.605-.021.734.107S717.559,1363.009,717.256,1363.009Z" transform="translate(-663.275 -1322.37)" fill="#efac7f"/>
          <path id="Trazado_125470" data-name="Trazado 125470" d="M802.919,1175.837a24.269,24.269,0,0,0-.434,4.156c.108,1.176-.413,4.965-2.755,4.977s-.75-3.934-.53-5.086.578-5.6.578-5.6Z" transform="translate(-732.989 -1165.388)" fill="#efac7f"/>
          <path id="Trazado_125471" data-name="Trazado 125471" d="M805.582,1175.645a10.592,10.592,0,0,1,.213-1.751l3.072,1.618s-.111.609-.222,1.386A2.856,2.856,0,0,1,805.582,1175.645Z" transform="translate(-738.937 -1165.064)" fill="#d19369"/>
          <path id="Trazado_125472" data-name="Trazado 125472" d="M802.885,1130.276a4.031,4.031,0,0,1,2.037,1.9c.718,1.435.955,5.45-1.939,6.993s-4.8-1.3-4.624-3.852S799.342,1129.431,802.885,1130.276Z" transform="translate(-732.889 -1128.486)" fill="#efac7f"/>
          <path id="Trazado_125473" data-name="Trazado 125473" d="M793.1,1151.6c-.076.661.158,1.224.522,1.259s.722-.473.8-1.134-.157-1.224-.522-1.259S793.177,1150.943,793.1,1151.6Z" transform="translate(-728.49 -1145.479)" fill="#efac7f"/>
          <path id="Trazado_125474" data-name="Trazado 125474" d="M836.222,1159.761c-.255.64-.128,1.312.283,1.5s.95-.177,1.2-.817.128-1.311-.283-1.5S836.476,1159.121,836.222,1159.761Z" transform="translate(-764.443 -1152.524)" fill="#efac7f"/>
        </g>
        <g id="Grupo_876613" data-name="Grupo 876613" transform="translate(535.036 303.255)">
          <path id="Trazado_125475" data-name="Trazado 125475" d="M1704.507,464.453l5.649,7.753,3.74-4.091Z" transform="translate(-1704.507 -464.453)" fill="#222b5a"/>
          <path id="Trazado_125476" data-name="Trazado 125476" d="M1714.4,465.973l-.507,2.143-9.389-3.662Z" transform="translate(-1704.507 -464.453)" fill="#179587"/>
          <path id="Trazado_125477" data-name="Trazado 125477" d="M1713.9,468.933l-9.389-4.48,8.726,7.753Z" transform="translate(-1704.507 -464.453)" fill="#179587"/>
          <path id="Trazado_125478" data-name="Trazado 125478" d="M1762.4,519.441a9.646,9.646,0,0,1-3.811-1.479,6.6,6.6,0,0,1-2.885-3.955.253.253,0,0,1,.506,0,6.244,6.244,0,0,0,2.647,3.53,9.339,9.339,0,0,0,3.592,1.4.253.253,0,0,1-.049.5Zm-6.19-5.436v0Z" transform="translate(-1747.313 -505.67)" fill="#62bdf3"/>
          <path id="Trazado_125479" data-name="Trazado 125479" d="M1785.181,521.734a26.381,26.381,0,0,1-8.321-3.212c-2.137-1.272-3.861-3.211-6.041-4.288a.253.253,0,1,1,.224-.454c2.257,1.114,3.967,3.052,6.076,4.307a25.881,25.881,0,0,0,8.162,3.151,15.819,15.819,0,0,0,3.716.23.253.253,0,1,1,.021.506A16.438,16.438,0,0,1,1785.181,521.734Z" transform="translate(-1759.827 -505.67)" fill="#62bdf3"/>
        </g>
        <g id="Grupo_876617" data-name="Grupo 876617" transform="translate(415.757 373.72)">
          <g id="Grupo_876616" data-name="Grupo 876616" transform="translate(0 0)">
            <g id="Grupo_876615" data-name="Grupo 876615">
              <path id="Trazado_125480" data-name="Trazado 125480" d="M997.762,928.666s-6.214-11.09-7.725-13.447-5.45-11.725-5.59-12.094,2.712-4.8,2.075-4.954-1.341,2.337-2.021,2.04-2.664-6.289-3.051-5.992c-.724.556,1.07,3.717.684,3.916s-1.556-3.478-2.314-3.37,1.442,3.37,1.23,3.658-2.5-2.785-2.91-2.13c-.225.356,2.1,2.683,1.654,2.9s-2.515-1.284-2.734-.851,1.913,1.026,2.55,2.194,1.723,1.672,2.174,3.835,1.125,9.988,3.434,13.892,7.387,12.545,7.387,12.545Z" transform="translate(-977.044 -894.208)" fill="#efac7f"/>
              <g id="Grupo_876614" data-name="Grupo 876614" transform="translate(33.214 50.29)">
                <path id="Trazado_125481" data-name="Trazado 125481" d="M1194.656,1238.6s-.506-.631-.657-.854c-.178-.261-.651-1.085-.651-1.085s-1.513-2.946-1.286-3.04.769.266.926.415.355.308.513.457a.422.422,0,0,0,.6-.027c.2-.182-.3-.913-.521-1.131a34.335,34.335,0,0,0-3.138-2.287c-.27-.193-1.954-5.786-2.683-7.656h0c-1.1-3.1-2.08-6.336-2.2-6.665l-.694-14.062-5.253-1.751s.551,15.617.668,16.395c.055.37,3.166,7.351,3.169,7.349,1.749,3.341,3.3,6.28,3.579,6.853,0,0,.382,1.94.551,3.19a10.9,10.9,0,0,0,.93,2.676,8.125,8.125,0,0,0,1.168,2.5c.747,1.074.531-.3.531-.3s-1.026-2.244-.836-2.3c.147-.041.635,1.219,1.45,2.415.209.308.417.611.61.888.507.726,1.1.615.69-.231a8.735,8.735,0,0,0-.625-1.113,7.292,7.292,0,0,1-.525-1.079,9.6,9.6,0,0,1-.534-1.115c.044,0,.071-.174.3.145.279.384.692,1.335,1.147,1.867.258.3.758.966.758.966a8.293,8.293,0,0,0,1,.947c.375-.213-.088-1.112-.492-1.476a5.907,5.907,0,0,0-.684-1.05s-.793-1.636-.564-1.755c.189-.1,2.845,3.442,3.206,3.2C1195.406,1239.7,1194.656,1238.6,1194.656,1238.6Z" transform="translate(-1179.613 -1200.919)" fill="#efac7f"/>
              </g>
              <path id="Trazado_125482" data-name="Trazado 125482" d="M1052.5,1031.346a18.571,18.571,0,0,0-1.7-8.952,7.59,7.59,0,0,0-6.767-3.855c-8.46-.011-9.536,11.167-14.921,15.478-1.646,1.318-3.485,2.391-5.042,3.812-5.75,5.246-3.16,14.958,2.12,19.557,3.664,3.192,9.422,5.005,13.937,2.51a14.2,14.2,0,0,0,5.421-5.839,79.879,79.879,0,0,0,4.262-10.839A40.452,40.452,0,0,0,1052.5,1031.346Z" transform="translate(-1013.638 -998.153)" fill="#282828"/>
              <path id="Trazado_125483" data-name="Trazado 125483" d="M1035.658,1698.9s-.6,4.126-1.622,5.458a10.53,10.53,0,0,0-1.386,1.82,5.342,5.342,0,0,0,.187,4.159c.243.529-.017.528.537.7a3.4,3.4,0,0,0,4.083-1.913,9.7,9.7,0,0,0,.8-3.516,12.712,12.712,0,0,1,1.342-5.651Z" transform="translate(-1023.242 -1566.961)" fill="#efac7f"/>
              <path id="Trazado_125484" data-name="Trazado 125484" d="M1158.713,1710.413a38.832,38.832,0,0,1,.07,6.164c-.16.81-1.051,2.476-.642,3.238a2.05,2.05,0,0,0,.876.952l10.589.17c.577.009.2-.361-.269-.7a21.37,21.37,0,0,0-3.807-2.1c-.159-.076-.736-.443-.944-.57a7.33,7.33,0,0,1-1.515-1.335c-.76-.845-.827-4.942-.827-4.942Z" transform="translate(-1128.358 -1576.583)" fill="#efac7f"/>
              <path id="Trazado_125485" data-name="Trazado 125485" d="M1161.079,1327.3s1.333,7.554.458,12.506-5.078,50.856-5.078,50.856l-4.67.263s-.979-19.175-.8-21.841a41.281,41.281,0,0,1,1.561-7.129l-.465-15.482,5.893-20.339Z" transform="translate(-1122.448 -1255.315)" fill="#222b5a"/>
              <path id="Trazado_125486" data-name="Trazado 125486" d="M1062.288,1314.818s-3.677,5.523-4.553,10.095.643,18.62-1.042,24.61c-.912,3.243-4.367,8.25-4.893,12.441s-2.586,15.167-2.586,15.167l4.668.923,10.848-27.413,8.51-24.777,2.18-12.761Z" transform="translate(-1037.381 -1244.418)" fill="#222b5a"/>
              <path id="Trazado_125487" data-name="Trazado 125487" d="M1110.565,1131.8s-4.868-.31-6.795,1.786,4.273,18.669,4.623,21.336-1.786,9.757-1.786,9.757,11.437,2.3,14.706.138c0,0,.35-19.175,0-21.08s-3.269-9.651-3.969-10.413S1110.565,1131.8,1110.565,1131.8Z" transform="translate(-1082.682 -1092.833)" fill="#179587"/>
              <path id="Trazado_125488" data-name="Trazado 125488" d="M1147.878,1091.737s-.025.143-.07.387a36.825,36.825,0,0,1-1.618,6.109c-.683,1.287,2.336,5.394,5.242,4.892.865-.149-.731-3.773-.654-4.157.147-.735.346-1.737.55-2.765l.341-1.721.564-2.854Z" transform="translate(-1118.374 -1059.259)" fill="#efac7f"/>
              <path id="Trazado_125489" data-name="Trazado 125489" d="M1155.88,1092.124c.046-.243.071-.387.071-.387l4.354-.108-.564,2.854-.339,1.711a4.079,4.079,0,0,1-2.079-1.04,5.479,5.479,0,0,1-1.575-2.337C1155.8,1092.542,1155.846,1092.305,1155.88,1092.124Z" transform="translate(-1126.447 -1059.259)" fill="#d19369"/>
              <path id="Trazado_125490" data-name="Trazado 125490" d="M1150.518,1031.994a3.929,3.929,0,0,0-3.339,1.424c-1.286,1.66-2.673,6.8.523,9.587s6.353-.368,6.821-3.719S1155.174,1031.873,1150.518,1031.994Z" transform="translate(-1118.084 -1009.392)" fill="#efac7f"/>
              <path id="Trazado_125491" data-name="Trazado 125491" d="M1196.119,1066.889c-.381.74-1.022,1.15-1.43.915s-.43-1.025-.049-1.765,1.022-1.15,1.43-.915S1196.5,1066.149,1196.119,1066.889Z" transform="translate(-1158.734 -1037.045)" fill="#efac7f"/>
              <path id="Trazado_125492" data-name="Trazado 125492" d="M1140.962,1028.441s-2.742,4.883-4.7,5.109-2.219,2.82-2.219,2.82.7-5.978,2.643-7.131A7.223,7.223,0,0,1,1140.962,1028.441Z" transform="translate(-1108.298 -1006.388)" fill="#282828"/>
              <path id="Trazado_125493" data-name="Trazado 125493" d="M1035.942,1745.333a5.221,5.221,0,0,1-5.117-2.134,5.591,5.591,0,0,0-.487,4.174c.419.912,1.643.885,2.607.921a2.518,2.518,0,0,0,2.313-1.413A8.425,8.425,0,0,0,1035.942,1745.333Z" transform="translate(-1021.408 -1603.993)" fill="#222b5a"/>
              <path id="Trazado_125494" data-name="Trazado 125494" d="M1164.462,1752.815a9.6,9.6,0,0,1-6.029-.237,4.847,4.847,0,0,0-.485,2.515c.257.748.623.917.947.926,2.558.067,9.37.158,11.321.184a.318.318,0,0,0,.248-.523C1169.979,1755.1,1164.67,1752.942,1164.462,1752.815Z" transform="translate(-1128.237 -1611.834)" fill="#222b5a"/>
              <path id="Trazado_125495" data-name="Trazado 125495" d="M1140.248,1060.32c.16.867-.161,1.662-.717,1.776s-1.135-.5-1.294-1.364.161-1.662.717-1.776S1140.089,1059.453,1140.248,1060.32Z" transform="translate(-1111.773 -1031.931)" fill="#efac7f"/>
              <path id="Trazado_125496" data-name="Trazado 125496" d="M1068.047,1082.444s6.873,7.376,7.895,10.348-1,7.225-3.783,7.411-8.988-13.092-8.988-13.092Z" transform="translate(-1049.048 -1051.58)" fill="#179587"/>
            </g>
          </g>
        </g>
        <g id="Grupo_876619" data-name="Grupo 876619" transform="translate(427.44 301.193)">
          <path id="Trazado_125497" data-name="Trazado 125497" d="M1075.914,462.024l-7.762,1.69a3.45,3.45,0,0,1-4.1-2.637l-.723-3.322a3.45,3.45,0,0,1,2.637-4.1l7.761-1.69a3.45,3.45,0,0,1,4.1,2.637l.723,3.322A3.45,3.45,0,0,1,1075.914,462.024Z" transform="translate(-1060.794 -451.881)" fill="#179587"/>
          <path id="Trazado_125498" data-name="Trazado 125498" d="M1051.625,496.948l-3.325,5.374,5.1-2.2Z" transform="translate(-1048.3 -489.558)" fill="#179587"/>
          <g id="Grupo_876618" data-name="Grupo 876618" transform="translate(6.871 1.873)">
            <path id="Trazado_125499" data-name="Trazado 125499" d="M1090.415,467.321l1.294-.316s1.361-1.592,1.314-2.036-.522-1.3-.294-1.47a.873.873,0,0,1,1.214.112c.34.36.477,1.922.653,1.989a7.055,7.055,0,0,0,1.4-.245.987.987,0,0,1,.973.319h0a.527.527,0,0,1,.019.663l-.235.308.3.252a.526.526,0,0,1,.063.74l-.189.226.2.143a.526.526,0,0,1,.08.78l-.171.188.043.049a.526.526,0,0,1-.016.711l-.174.181-3.447.842a2.438,2.438,0,0,1-.986.035l-1.261.1a.275.275,0,0,1-.289-.213l-.691-3.028A.275.275,0,0,1,1090.415,467.321Z" transform="translate(-1090.206 -463.303)" fill="#fff"/>
          </g>
        </g>
        <g id="Grupo_876621" data-name="Grupo 876621" transform="translate(452.746 271.64)">
          <path id="Trazado_125500" data-name="Trazado 125500" d="M1216.747,271.989c6.953,1.295,11.945,5.807,11.149,10.078-.4,2.136-2.167,3.807-4.706,4.782l1.649,6.823-5.027-6a19.492,19.492,0,0,1-5.946-.214c-6.953-1.295-11.945-5.807-11.149-10.078S1209.794,270.695,1216.747,271.989Z" transform="translate(-1202.634 -271.64)" fill="#62bdf3"/>
          <g id="Grupo_876620" data-name="Grupo 876620" transform="translate(8.811 3.338)">
            <path id="Trazado_125501" data-name="Trazado 125501" d="M1264.855,298.4a4.463,4.463,0,1,1-2.09-5.956A4.462,4.462,0,0,1,1264.855,298.4Z" transform="translate(-1256.369 -292)" fill="#3797db"/>
            <path id="Trazado_125502" data-name="Trazado 125502" d="M1267.405,316.814a2.386,2.386,0,1,0,4.3,2.066Z" transform="translate(-1265.398 -312.745)" fill="#efefef"/>
          </g>
        </g>
        <path id="Trazado_125503" data-name="Trazado 125503" d="M1878.395,1035.62l-1.538.156-.525-2.447-2.277-.049-.692-1.767-.894.35.925,2.363,2.158.047.545,2.545,2.314-.235Z" transform="translate(-1309.893 -635.279)" fill="#179587"/>
        <g id="Grupo_876622" data-name="Grupo 876622" transform="translate(554.029 355.32)">
          <path id="Trazado_125504" data-name="Trazado 125504" d="M1825.95,788.161l-3.6-1.576-.818,2.485-1.191-.392,1.248-3.794,3.577,1.567.913-2.939,3.292,1.372,1.353-2.891,1.135.531L1830,786.5l-3.13-1.3Z" transform="translate(-1820.344 -781.992)" fill="#9ed16f"/>
        </g>
      </g>
    </g>
  </g>
</svg>
