<svg xmlns="http://www.w3.org/2000/svg" width="134" height="134" viewBox="0 0 134 134">
  <g id="Grupo_878573" data-name="Grupo 878573" transform="translate(-733 -4731)">
    <g id="Elipse_4984" data-name="Elipse 4984" transform="translate(733 4731)" fill="#fff" stroke="#ec5060" stroke-width="5">
      <circle cx="67" cy="67" r="67" stroke="none"/>
      <circle cx="67" cy="67" r="64.5" fill="none"/>
    </g>
    <g id="Grupo_876631" data-name="Grupo 876631" transform="translate(1032.088 4078.821)">
      <path id="Trazado_125531" data-name="Trazado 125531" d="M-212.107,733.194c-.416,2.964-.828,5.869-1.226,8.777a1.376,1.376,0,0,0,.061.74c.715,1.481,1.46,2.946,2.281,4.586.472-.94.926-1.732,1.268-2.569a1.161,1.161,0,0,1,1.392-.85,10.583,10.583,0,0,0,1.317.009,13.873,13.873,0,0,0-.846-1.425,9.2,9.2,0,0,1-1.935-6.835,1.769,1.769,0,0,1,1.1-1.722c5.172-2.533,10.31-5.133,15.461-7.709.225-.112.455-.211.743-.344v30.375H-269V726.558c.222.159.421.289.607.437,2.152,1.72,4.307,3.436,6.446,5.172a.929.929,0,0,0,1.1.179c1.728-.728,3.487-1.382,5.212-2.119a1.314,1.314,0,0,0,.659-.8c.528-2.227,1-4.467,1.494-6.733-.728-.416-1.458-.786-2.138-1.229-5.453-3.553-7.663-8.675-7.178-15.061a19.992,19.992,0,0,1,2.13-7.848,13.8,13.8,0,0,1,10.129-7.353,31.807,31.807,0,0,1,14.228.409,12.923,12.923,0,0,1,2.625,1.087,4.7,4.7,0,0,1,1.359,1.117,2.309,2.309,0,0,1-.894,3.9,42.017,42.017,0,0,1-4.705,1.144c-.974.23-1.956.434-2.916.713-.272.079-.48.381-.718.58.27.17.524.444.814.488a15.424,15.424,0,0,0,2.454.213c2.5-.017,4.992-.143,7.486-.111a17.9,17.9,0,0,1,3.5.478,4.742,4.742,0,0,1,1.726.817,3.171,3.171,0,0,1-.264,5.5,18.168,18.168,0,0,1-4.542,1.354c-1.935.4-3.907.624-5.862.93a1.969,1.969,0,0,0-.592.163c-.327.169-.632.38-.947.572.326.255.616.635.984.74.886.254,1.809.375,2.715.558.5.1,1.014.183,1.5.33a2.751,2.751,0,0,1,2.289,2.4,3.316,3.316,0,0,1-1.892,3.194,8.876,8.876,0,0,1-4.227.653c-1.672-.039-3.342-.165-5.013-.179a6.065,6.065,0,0,0-1.5.376,12.857,12.857,0,0,0,.894,1.189c.44.466.992.832,1.4,1.318a1.805,1.805,0,0,1-1.008,3.094,14.758,14.758,0,0,1-5.745-.216c-1.213-.2-2.418-.462-3.706-.711L-252.3,728.9c1.072-.426,1.994-.819,2.939-1.145a.84.84,0,0,1,.747.157c1.524,1.978,3.011,3.983,4.542,6.025l-2.26,3.412,7.627,5.107L-241,744.631l7.4,2.966c-1.007-1.767-1.826-3.376-2.811-4.874a1.863,1.863,0,0,1,.078-2.632,17.128,17.128,0,0,0,1.352-2l-5.987-3.606a3.915,3.915,0,0,1,.154-.438c1.4-2.811,2.8-5.619,4.193-8.434.18-.363.327-.576.8-.416q11.727,3.944,23.464,7.861A1.826,1.826,0,0,1-212.107,733.194Zm-19.376,4.109c-.828,1.247-1.588,2.44-2.4,3.594a.927.927,0,0,0-.025,1.172c1.843,3.187,3.657,6.39,5.478,9.589.129.228.243.465.45.861L-245.49,745.5l2.913-2.653-7.185-4.809c.832-1.252,1.613-2.4,2.357-3.574a.822.822,0,0,0,.075-.718c-.752-1.072-1.556-2.109-2.356-3.176-.2.064-.366.109-.528.173-3.508,1.4-7.028,2.776-10.513,4.234a1.652,1.652,0,0,1-2.036-.276c-1.179-1.054-2.459-2-3.767-3.041v22.09h71.566V729.9a1.712,1.712,0,0,0-.319.084q-5.793,2.9-11.579,5.809c-.15.075-.39.22-.384.321.053,1.007-.3,2.051.279,3.015q1.956,3.24,3.889,6.5c.127.212.237.433.405.742-1.563,0-3.023.019-4.482-.012a.828.828,0,0,0-.882.548c-.864,1.785-1.758,3.554-2.647,5.326a5.76,5.76,0,0,1-.348.528c-1.407-2.819-2.7-5.566-4.146-8.236a5.156,5.156,0,0,1-.537-3.606c.369-1.994.592-4.015.884-6.081l-20.24-6.759-2.711,5.439ZM-248.9,701.581l2.408.525c-.852,3.942-1.683,7.789-2.551,11.8l5.678-3.237,1.209,2.118c-.258.161-.468.3-.686.426-2.141,1.23-4.288,2.451-6.421,3.693a1.153,1.153,0,0,0-.541.579c-.278,1.089-.494,2.2-.762,3.431l6.9,1.146.152-.327a9.185,9.185,0,0,1-.868-.727,3.013,3.013,0,0,1-.877-3.24,2.759,2.759,0,0,1,2.742-1.889c1.873-.052,3.75.065,5.625.054a21.343,21.343,0,0,0,3.141-.225c.389-.06.724-.476,1.083-.729l-.108-.32c-.794-.159-1.6-.28-2.38-.484a26.143,26.143,0,0,1-3.6-1.063,2.627,2.627,0,0,1-1.524-2.657,2.619,2.619,0,0,1,1.658-2.407,5.512,5.512,0,0,1,1.368-.511c1.844-.339,3.7-.6,5.545-.943,1.411-.261,2.819-.56,4.2-.938.346-.094.847-.579.822-.842a1.61,1.61,0,0,0-.79-1.009,3.435,3.435,0,0,0-1.538-.44c-2.08-.07-4.162-.067-6.244-.093-1.748-.022-3.5.019-5.24-.094a3.712,3.712,0,0,1-3.167-1.64,2.667,2.667,0,0,1,1.473-4.037,39.316,39.316,0,0,1,4.909-1.263c1.01-.242,2.032-.437,3.049-.654l.022-.224a4.244,4.244,0,0,0-.772-.558,16.293,16.293,0,0,0-2.3-.876,29.934,29.934,0,0,0-12.333-.411,11.554,11.554,0,0,0-9.345,7.2,18.623,18.623,0,0,0-1.381,5.839c-.364,4.481.754,8.448,4.219,11.507a37.161,37.161,0,0,0,3.146,2.247c.495-2.274.911-4.286,1.382-6.285a1.3,1.3,0,0,0-.3-1.251c-1.4-1.711-2.763-3.444-4.177-5.216l1.927-1.539,3.363,4.2Z" transform="translate(0 -1.199)" fill="#222b5a"/>
      <path id="Trazado_125532" data-name="Trazado 125532" d="M-193.513,715.8l1.919-1.437a2.879,2.879,0,0,1-.178,4.242,9.357,9.357,0,0,1-4.69,2.009,41.626,41.626,0,0,1-12.14.4,32.732,32.732,0,0,1-8.884-1.816,9.394,9.394,0,0,1-2.525-1.437,2.78,2.78,0,0,1-.386-4.176,24.188,24.188,0,0,1,2.522-2.266l1.17,2.328c-.345.238-.644.43-.927.644-1.344,1.012-1.318,1.54.188,2.237a14.11,14.11,0,0,0,2.535.9,42.188,42.188,0,0,0,18.724.567,10.863,10.863,0,0,0,2.3-.85C-193.345,716.9-193,716.475-193.513,715.8Z" transform="translate(-4.875 -3.311)" fill="#222b5a"/>
      <path id="Trazado_125533" data-name="Trazado 125533" d="M-219.616,721.3l2.415-.651c1.8,2.552,4.562,3.222,7.372,3.654a34.082,34.082,0,0,0,11.141-.1,4.851,4.851,0,0,0,3.006-1.394,9.285,9.285,0,0,1,1.824-1.264,2.523,2.523,0,0,1-.7,3.581,9.483,9.483,0,0,1-3.362,1.42,33.589,33.589,0,0,1-15.879-.639,9.553,9.553,0,0,1-4.672-2.87A17.26,17.26,0,0,1-219.616,721.3Z" transform="translate(-5.032 -4.262)" fill="#222b5a"/>
      <path id="Trazado_125534" data-name="Trazado 125534" d="M-197.345,728.04l1.119,2.225c-6.109,2.726-12.143,1.924-18.3.069l.862-2.331a31.872,31.872,0,0,0,8.164,1.514A17.039,17.039,0,0,0-197.345,728.04Z" transform="translate(-5.551 -5.011)" fill="#222b5a"/>
      <path id="Trazado_125535" data-name="Trazado 125535" d="M-258.025,688.724l-1.97,1.485-7.411-9.894,1.969-1.49Z" transform="translate(-0.162)" fill="#222b5a"/>
      <path id="Trazado_125536" data-name="Trazado 125536" d="M-204.372,703.884l-1.971,1.485-7.407-9.892,1.967-1.49Z" transform="translate(-5.63 -1.545)" fill="#222b5a"/>
      <path id="Trazado_125537" data-name="Trazado 125537" d="M-197.117,711.242l-.544,2.2-10.831-1.173V709.97A52.868,52.868,0,0,1-197.117,711.242Z" transform="translate(-6.166 -3.174)" fill="#222b5a"/>
      <path id="Trazado_125538" data-name="Trazado 125538" d="M-206.954,733.375c2.64.245,5.184.636,7.555-.862l1.628,1.8c-2.855,2.237-6.179,1.887-9.643,1.482Z" transform="translate(-6.276 -5.471)" fill="#222b5a"/>
      <path id="Trazado_125539" data-name="Trazado 125539" d="M-259.119,727.7l-1.926,1.544-4.942-6.178,1.924-1.552Z" transform="translate(-0.307 -4.35)" fill="#222b5a"/>
      <path id="Trazado_125540" data-name="Trazado 125540" d="M-201.345,694.6l-1.93,1.541-4.936-6.173,1.92-1.555Z" transform="translate(-6.195 -0.978)" fill="#222b5a"/>
      <path id="Trazado_125541" data-name="Trazado 125541" d="M-216.505,709.259l1.978-1.472,3.7,4.94-1.974,1.486Z" transform="translate(-5.349 -2.951)" fill="#222b5a"/>
      <path id="Trazado_125542" data-name="Trazado 125542" d="M-222.008,685.824l1.97-1.483,3.7,4.944-1.968,1.487Z" transform="translate(-4.789 -0.562)" fill="#222b5a"/>
      <path id="Trazado_125543" data-name="Trazado 125543" d="M-263.108,698.934l-1.97,1.484-3.7-4.94,1.966-1.491Z" transform="translate(-0.023 -1.545)" fill="#222b5a"/>
      <path id="Trazado_125544" data-name="Trazado 125544" d="M-192.165,711.442l-3.7-4.94,1.967-1.49,3.7,4.947Z" transform="translate(-7.453 -2.669)" fill="#222b5a"/>
      <path id="Trazado_125545" data-name="Trazado 125545" d="M-254.555,749.41l3.174-1.037.776,2.319-3.4,1.169a2.828,2.828,0,0,0,1.624,2.7,19.113,19.113,0,0,1,2.074,1.37l-1.368,2.055c-1.335-.893-2.64-1.745-3.916-2.637a1.219,1.219,0,0,1-.326-.666c-.32-1.219-.581-2.454-.947-3.657a1.752,1.752,0,0,0-.753-.932c-1.21-.671-2.465-1.26-3.791-1.924l1.08-2.223c1.773.889,3.514,1.745,5.231,2.648C-254.867,748.709-254.768,749.072-254.555,749.41Z" transform="translate(-0.774 -6.839)" fill="#222b5a"/>
    </g>
  </g>
</svg>
