<svg xmlns="http://www.w3.org/2000/svg" xmlns:xlink="http://www.w3.org/1999/xlink" width="400" height="373" viewBox="0 0 400 373">
  <defs>
    <clipPath id="clip-path">
      <rect id="Rect치ngulo_294006" data-name="Rect치ngulo 294006" width="264" height="373" transform="translate(1057.006 5526.457)" fill="#fff" stroke="#707070" stroke-width="1"/>
    </clipPath>
  </defs>
  <g id="Grupo_878572" data-name="Grupo 878572" transform="translate(-180 -7925)">
    <rect id="Rect치ngulo_293900" data-name="Rect치ngulo 293900" width="400" height="350.119" rx="21" transform="translate(180 7939.023)" fill="#222b5a"/>
    <text id="EOT" transform="translate(180 8205.049)" fill="#fff" font-size="24" font-family="Roboto-Black, Roboto" font-weight="800"><tspan x="177.934" y="25">EOT</tspan></text>
    <g id="Grupo_878552" data-name="Grupo 878552" transform="translate(-4894.719 7176.59)">
      <path id="Trazado_617385" data-name="Trazado 617385" d="M5183.6,885.346c-14.295-14.506-10.162-32.928.3-42.308a28.136,28.136,0,0,1,38.771.8c10.213,10.01,13.071,27.507-.395,41.28a89.953,89.953,0,0,1,8.491,4.443,93.5,93.5,0,0,1,7.649,6.217l8.034-2.758c-9.777-8.439-14.95-18.859-13.958-31.774a35.4,35.4,0,0,1,12.438-24.444,35.937,35.937,0,0,1,50.388,2.225c13.727,14.564,14.563,38.214-3.814,53.97l8.29,2.926a34.625,34.625,0,0,1,16.146-10.565c-6.835-6.762-10.262-14.734-9.255-24.215a28.531,28.531,0,0,1,48.079-17.378c9.907,9.558,13.448,27.413-.522,41.621a34.559,34.559,0,0,1,15.563,10.167,32.877,32.877,0,0,1,8.238,21.187c.12,4.918-.039,9.842.051,14.761a4.765,4.765,0,0,1-2.9,4.778,92.551,92.551,0,0,1-26.27,8.712c-2.236.369-4.4.476-5.84-1.762-1.9-2.942.006-5.876,3.868-6.891,6.735-1.77,13.366-3.943,20.054-5.9,1.885-.55,2.489-1.655,2.375-3.6-.271-4.537.12-9.157-.568-13.618a23.926,23.926,0,0,0-23.276-20.3c-7.986-.154-16-.158-23.967.314-5.51.326-10.117,3.169-13.644,6.825,2.45,2.686,4.879,5.143,7.069,7.8,7.019,8.5,10.1,18.353,9.928,29.329-.081,5.374-.071,10.753.069,16.125.069,2.662-.745,4.453-3.23,5.685q-52.98,26.249-105.819-.224a5.894,5.894,0,0,1-2.937-4.092c-.21-7.362-.2-14.75.189-22.106.661-12.6,6.24-22.814,15.858-30.872.408-.344.787-.725,1.3-1.2a23.109,23.109,0,0,0-16.463-7.606c-7.352-.237-14.728-.241-22.076.028-12.643.464-22.889,11.083-23.231,23.8-.093,3.551.051,7.11-.069,10.659-.054,1.525.436,2.419,1.863,2.845,6.938,2.067,13.856,4.193,20.821,6.175,2.07.59,4.091,1.355,4.075,3.685a7.135,7.135,0,0,1-1.918,4.377c-.661.711-2.4.766-3.573.6a84.253,84.253,0,0,1-27.521-9.12,4.8,4.8,0,0,1-2.32-3.341c-.135-6.459-.538-13.006.292-19.373,1.722-13.21,9.261-22.215,21.626-27.14C5182.43,885.855,5183,885.6,5183.6,885.346Zm85.545,15.037-.036.5c-4.722,0-9.446-.088-14.169.016-15.464.342-29.669,11.854-32.242,27.139-1.253,7.458-.742,15.222-.871,22.85-.013.655,1.052,1.6,1.827,1.957q45.23,20.876,90.547.114a2.873,2.873,0,0,0,1.986-3.092c-.141-5-.183-10.009-.192-15.014-.021-15.453-10.682-29.558-25.756-32.755C5283.394,900.644,5276.187,900.9,5269.144,900.383Zm-.168-64.079A28.231,28.231,0,0,0,5241.1,864.1c-.042,15.116,12.633,27.942,27.671,28a27.895,27.895,0,1,0,.2-55.789Zm-66.2,47.606a19.745,19.745,0,1,0-19.66-19.588A19.785,19.785,0,0,0,5202.774,883.91Zm132.025,0a19.746,19.746,0,1,0-19.533-19.726A19.757,19.757,0,0,0,5334.8,883.909Z" transform="translate(-0.001 0)" fill="#fff"/>
    </g>
  </g>
</svg>
