<svg xmlns="http://www.w3.org/2000/svg" width="134" height="134" viewBox="0 0 134 134">
  <g id="Grupo_878564" data-name="Grupo 878564" transform="translate(-391 -2861.379)">
    <circle id="Elipse_5076" data-name="Elipse 5076" cx="67" cy="67" r="67" transform="translate(391 2861.379)" fill="#179587"/>
    <g id="Grupo_878559" data-name="Grupo 878559" transform="translate(-4751.053 1927.988)">
      <path id="Trazado_617401" data-name="Trazado 617401" d="M5170.673,1032.014c-.11-3.78-.624-7.427-.2-10.964.417-3.517,1.772-6.922,2.726-10.413-1.975,0-4.139-.007-6.3,0a1.667,1.667,0,0,1-1.8-1.193,1.633,1.633,0,0,1,1.731-2.141c2.139-.034,4.283-.078,6.419.014,1.091.047,1.579-.271,1.534-1.377a7.6,7.6,0,0,1,.129-1.149c-.224-.037-.382-.078-.544-.088-1.468-.09-1.982-.612-1.989-2.12-.015-3.064,0-6.127,0-9.191v-2.28c-1.825-.366-3.525-.859-4.589-2.448a5.2,5.2,0,0,1-.5-5.054c-3.119-3.207-3.24-5.6-.364-8.269a4.577,4.577,0,0,1,0-4.263c.081-.149.143-.341.271-.426,1.564-1.037,1.908-2.574,2.052-4.34a3.893,3.893,0,0,1,2.391-3.106,1.214,1.214,0,0,0,.767-1.343c-.044-1.088-.03-2.178,0-3.267.029-1.207.656-1.91,1.654-1.919,1.034-.009,1.68.737,1.691,1.986.012,1.219,0,2.438,0,3.7,3.667-.123,7.3-.656,10.815-.245s6.912,1.768,10.484,2.744c0-.292,0-.747,0-1.2,0-1.736-.023-3.473.018-5.208a1.64,1.64,0,0,1,1.689-1.776,1.669,1.669,0,0,1,1.65,1.821c.021,2.549.007,5.1.007,7.761l2.446.317c.056-.295.1-.487.127-.682a1.632,1.632,0,0,1,1.879-1.678c3.5-.011,7,0,10.5,0h1.171c.361-1.838.861-3.578,2.495-4.656a5.247,5.247,0,0,1,5.038-.45c2.486-3.333,5.894-3.076,8.215-.427,2.976-.927,4.086-.571,6.173,1.917a1.025,1.025,0,0,0,.751.235,5.175,5.175,0,0,1,5.328,2.811,1.272,1.272,0,0,0,.916.535c1.151.065,2.308.016,3.462.029,1.239.014,2.011.674,2,1.686s-.768,1.638-2.031,1.652c-1.214.014-2.43,0-3.646,0,.108,3.731.622,7.4.2,10.964-.414,3.517-1.77,6.922-2.722,10.412,1.975,0,4.139.008,6.3,0a1.664,1.664,0,0,1,1.8,1.194,1.635,1.635,0,0,1-1.736,2.14c-2.139.034-4.282.073-6.418-.012-1.081-.044-1.583.267-1.533,1.379a4.994,4.994,0,0,1-.107.945c.72.225,1.547.245,1.933.669a3.167,3.167,0,0,1,.562,1.956c.05,3.672.024,7.345.024,11.1,1.822.364,3.557.875,4.624,2.505a5.241,5.241,0,0,1,.46,5.034c3.1,2.88,3.245,5.625.393,8.208.044.152.088.34.154.518a4.382,4.382,0,0,1-1.643,5.4,1.267,1.267,0,0,0-.658,1.3,5.017,5.017,0,0,1-2.813,5.121,1.175,1.175,0,0,0-.492.853c-.057,1.189,0,2.382-.032,3.573-.029,1.216-.647,1.907-1.651,1.921-1.052.014-1.695-.71-1.709-1.962-.014-1.222,0-2.443,0-3.7-3.668.109-7.327.624-10.876.208-3.508-.411-6.906-1.762-10.411-2.716,0,1.655,0,3.487,0,5.318a10.693,10.693,0,0,1-.038,1.325,1.6,1.6,0,0,1-1.718,1.519,1.624,1.624,0,0,1-1.608-1.746c-.029-2.212-.01-4.425-.012-6.638v-1.191l-2.485-.319c-.041.321-.069.518-.089.716-.134,1.3-.664,1.8-1.979,1.8-3.465.009-6.929,0-10.394,0h-1.178c-.363,1.83-.858,3.575-2.494,4.649a5.178,5.178,0,0,1-5.032.451c-2.527,3.364-5.927,3.054-8.221.433-2.99.925-4.077.576-6.173-1.918a1.025,1.025,0,0,0-.752-.234,5.178,5.178,0,0,1-5.328-2.812,1.272,1.272,0,0,0-.916-.533c-1.151-.064-2.309-.015-3.463-.028-1.238-.014-2.008-.676-2-1.689s.766-1.636,2.03-1.649C5168.245,1032,5169.461,1032.014,5170.673,1032.014Zm42.3-2.554c3.6.184,6.837,1.4,10.071,2.636a29.529,29.529,0,0,0,4.2,1.535c5.076,1.094,10.144-.04,15.213-.275a1.323,1.323,0,0,0,1.144-1.574c-.069-.8-.783-.71-1.354-.712-2.14-.008-4.28.013-6.42-.015a1.66,1.66,0,1,1-.048-3.318c.3-.022.612-.014.917-.015,2.615,0,5.231.01,7.847-.005,1.182-.007,1.86-.545,1.885-1.426.026-.9-.592-1.35-1.868-1.351-3.125,0-6.251,0-9.376,0-1.317,0-2.093-.659-2.06-1.714.032-1.018.772-1.609,2.056-1.611,3.261-.007,6.522.015,9.784-.017a5.572,5.572,0,0,0,1.877-.342,1.251,1.251,0,0,0,.831-1.645,3.157,3.157,0,0,0-1.3-1.221c-.277-.172-.729-.074-1.1-.074-3.057,0-6.115,0-9.172-.005a5.279,5.279,0,0,1-1.114-.07,1.551,1.551,0,0,1-1.346-1.662,1.59,1.59,0,0,1,1.409-1.62,4.4,4.4,0,0,1,.915-.033c2.65,0,5.3.014,7.949-.013a1.668,1.668,0,0,0,1.754-1.613,1.769,1.769,0,0,0-1.667-1.63,7.65,7.65,0,0,0-.815-.013h-10.293c-.374,0-.749.015-1.121-.012a1.619,1.619,0,0,1-1.625-1.619,1.58,1.58,0,0,1,1.634-1.7c1.357-.046,2.717-.014,4.076-.024.273,0,.547-.04.82-.061l.077-.314a13.475,13.475,0,0,0-2.75-1.158,31.536,31.536,0,0,0-4.049-.26,7.664,7.664,0,0,0-5.37,1.8c-1.671,1.339-3.4,2.607-5.091,3.917a10.776,10.776,0,0,1-5.5,2.223c-.327.036-.654.07-1.016.109Zm-33.63-38.29-.13.34a10.546,10.546,0,0,0,2.52,1.108,37.073,37.073,0,0,0,4.757.3,6.966,6.966,0,0,0,4.531-1.564c1.749-1.349,3.514-2.678,5.257-4.036a10.868,10.868,0,0,1,4.757-2.2c.621-.114,1.256-.155,1.871-.227v-14.9c-4.057-.289-7.7-1.755-11.373-3.2a14.309,14.309,0,0,0-4.98-1.289c-4.338-.007-8.676.323-13.011.564a1.334,1.334,0,0,0-1.232,1.5c.014.906.783.77,1.378.774,2.106.01,4.212-.014,6.318.012a1.685,1.685,0,1,1,.11,3.366c-.3.029-.611.014-.917.015-2.649,0-5.3-.011-7.949.01-1.1.009-1.755.568-1.766,1.421-.013.877.564,1.306,1.788,1.308,3.125,0,6.25,0,9.376,0,1.342,0,2.117.607,2.142,1.65.026,1.081-.766,1.727-2.169,1.735-1.9.011-3.806,0-5.708,0-1.664.006-3.33-.02-4.991.057a1.655,1.655,0,0,0-1.74,1.635c0,.912.638,1.5,1.762,1.592.3.026.611.013.917.013,3.193,0,6.387-.008,9.581.007a1.669,1.669,0,1,1,0,3.319c-2,.019-4.009,0-6.013.007-.849,0-1.7-.036-2.547.021a1.683,1.683,0,0,0-1.636,1.638,1.726,1.726,0,0,0,1.682,1.6c.3.024.612.011.917.011q5.4,0,10.8,0c1.37,0,2.1.591,2.121,1.664.02,1.109-.737,1.731-2.152,1.741S5180.765,991.169,5179.34,991.169Zm-1.064,13.59c-.269,4.267-1.842,8.063-3.38,11.878a14.779,14.779,0,0,0-1.011,3.615c-.588,4.7.218,9.366.492,14.044a1.34,1.34,0,0,0,1.58,1.14c.741-.057.671-.729.688-1.271.009-.271,0-.544,0-.816,0-1.906-.026-3.812.023-5.716a1.623,1.623,0,0,1,1.654-1.705,1.681,1.681,0,0,1,1.692,1.781c.014.271,0,.544,0,.816,0,2.655-.009,5.309.006,7.964.007,1.161.583,1.8,1.52,1.743,1.048-.067,1.215-.793,1.214-1.655-.005-3.267-.019-6.534.012-9.8a1.692,1.692,0,0,1,1.736-1.848,1.735,1.735,0,0,1,1.623,1.865c.013.34,0,.681,0,1.021,0,3.2-.012,6.4.011,9.6.01,1.314.7,2.172,1.665,2.19,1.006.018,1.59-.766,1.6-2.168.007-1.735,0-3.471,0-5.207,0-1.7-.025-3.4.016-5.1a1.669,1.669,0,0,1,3.336-.078,9.094,9.094,0,0,1,.025,1.02c0,2.552-.014,5.1.014,7.656a1.675,1.675,0,0,0,1.48,1.781,1.7,1.7,0,0,0,1.716-1.552,6.666,6.666,0,0,0,.051-1.017q.005-5.461,0-10.923a1.887,1.887,0,0,1,.826-1.85,1.672,1.672,0,0,1,2.517,1.594c.029,1.575.006,3.151.006,4.727l.387.1a16.175,16.175,0,0,0,1.2-3.04,25.637,25.637,0,0,0,.218-4.061,7.424,7.424,0,0,0-1.618-4.833c-.853-1.1-1.67-2.232-2.543-3.318-2.015-2.513-3.94-5.061-3.787-8.567Zm59.341-9.924c.292-4.5,2.017-8.5,3.645-12.527a11.5,11.5,0,0,0,.732-2.749c.641-4.77-.209-9.5-.457-14.249a1.347,1.347,0,0,0-1.555-1.178c-.812.044-.718.77-.721,1.338-.011,2.076.014,4.152-.013,6.228-.016,1.254-.7,1.978-1.735,1.945-1-.031-1.616-.753-1.625-1.949-.015-1.838,0-3.675,0-5.513,0-1.055.037-2.112-.019-3.164a1.357,1.357,0,1,0-2.677-.262c-.074,2.993-.04,5.989-.041,8.984,0,.34.012.681-.006,1.021-.061,1.166-.733,1.9-1.711,1.884a1.729,1.729,0,0,1-1.654-1.935c-.014-3.37.008-6.739-.019-10.108a3.024,3.024,0,0,0-.316-1.66,2.42,2.42,0,0,0-1.526-.914c-.738-.075-1.208.54-1.366,1.271a4.924,4.924,0,0,0-.05,1.017c0,3.3.007,6.6-.007,9.9a1.692,1.692,0,0,1-1.668,1.908c-1.005.009-1.672-.69-1.694-1.881-.032-1.769-.008-3.539-.011-5.309,0-1.089.026-2.18-.029-3.266a1.591,1.591,0,0,0-1.542-1.6,1.608,1.608,0,0,0-1.613,1.425,5.914,5.914,0,0,0-.073,1.117q-.008,5.258,0,10.516c0,.306.008.614-.021.918a1.658,1.658,0,1,1-3.314-.094c-.033-1.615-.009-3.232-.009-4.849l-.316-.1a9.959,9.959,0,0,0-1.108,2.4,35.666,35.666,0,0,0-.376,4.652,7.352,7.352,0,0,0,1.65,4.921c1.376,1.772,2.721,3.568,4.087,5.347a10.672,10.672,0,0,1,2.107,4.8c.093.557.123,1.124.184,1.708Zm-41.049,9.869c.038.424.049.694.089.959.245,1.645.247,1.644,1.852,1.644q6.114,0,12.229,0c1.655,0,2.171.531,2.189,2.206.005.494,0,.989,0,1.531.361,0,.562.011.759,0,1.725-.112,1.812-.2,1.812-1.89q0-5.822,0-11.643c0-1.953.681-2.617,2.652-2.636.365,0,.73,0,1.179,0-.04-.413-.054-.71-.1-1-.239-1.594-.241-1.594-1.793-1.594q-6.116,0-12.229,0c-1.722,0-2.221-.516-2.235-2.265,0-.533,0-1.066,0-1.771l-2.572.518v1.174c0,4.256.006,8.511,0,12.767,0,1.352-.6,1.973-1.884,2C5197.911,1004.716,5197.3,1004.7,5196.568,1004.7Zm9.808-15.845h10.242c-1.039-1.366-1.97-2.608-2.922-3.834a10.59,10.59,0,0,1-2.332-6.8c.011-.918,0-1.836,0-2.754a10.394,10.394,0,0,1,2.867-7.207c.166-.182.308-.386.509-.64h-8.367Zm-4.98,43.082h8.113v-21.215h-10.329C5205.416,1017.379,5206.776,1024.34,5201.4,1031.942Zm-4.43-40.9c-1.391,1.065-2.606,1.982-3.808,2.916a10.8,10.8,0,0,1-7,2.353c-.781-.013-1.562,0-2.344,0a10.521,10.521,0,0,1-7.395-2.909c-.18-.165-.38-.308-.617-.5v8.384h21.163Zm21.979,17.333c1.338-1.022,2.549-1.928,3.74-2.861a9.471,9.471,0,0,1,5.048-2.229,42.365,42.365,0,0,1,5.884-.038,9.1,9.1,0,0,1,5.168,2.178c.427.344.843.7,1.3,1.081v-8.221h-21.138Z" transform="translate(0)" fill="#fff"/>
    </g>
  </g>
</svg>
