<svg xmlns="http://www.w3.org/2000/svg" width="400" height="350.119" viewBox="0 0 400 350.119">
  <g id="Grupo_878573" data-name="Grupo 878573" transform="translate(-600 -7939.023)">
    <rect id="Rectángulo_293901" data-name="Rectángulo 293901" width="400" height="350.119" rx="21" transform="translate(600 7939.023)" fill="#222b5a"/>
    <text id="PBOT" transform="translate(600 8205.049)" fill="#fff" font-size="24" font-family="Roboto-Black, Roboto" font-weight="800"><tspan x="169.098" y="25">PBOT</tspan></text>
    <g id="Grupo_878553" data-name="Grupo 878553" transform="translate(-4620.699 6949.707)">
      <path id="Trazado_617386" data-name="Trazado 617386" d="M5330,1140.677a89.6,89.6,0,0,1,2.284-9.631,39.856,39.856,0,0,1,21.483-23.65c.482-.226.96-.455,1.668-.79-9.419-6.682-14.02-15.685-12.9-27.165a26.97,26.97,0,0,1,10.446-18.928,28.135,28.135,0,0,1,39.532,4.437c9.6,11.93,8.457,31.143-6.859,41.611,1.371.687,2.66,1.309,3.927,1.976,2.455,1.293,3.26,3.207,2.207,5.179-1.043,1.954-3.059,2.353-5.522,1.093-19.281-9.848-41.885-.221-47.875,20.365a43.923,43.923,0,0,0-1.295,13.039c.034,2.369.007,4.739.007,7.387h43.32c.593,0,1.188-.023,1.774.025a3.542,3.542,0,0,1,.245,7.044,12.424,12.424,0,0,1-1.772.046c-15.272,0-30.544-.03-45.814.038-2.174.011-3.784-.6-4.857-2.5Zm61.575-58.026a21.055,21.055,0,1,0-42.11-.181c-.051,11.526,9.211,21.136,20.43,21.2C5382.108,1103.732,5391.5,1094.627,5391.576,1082.651Z" transform="translate(-0.001 10.931)" fill="#fff"/>
      <path id="Trazado_617387" data-name="Trazado 617387" d="M5387.168,1134.183a28.257,28.257,0,1,1,30.159.035,40.849,40.849,0,0,1,14.515,10.034,39.859,39.859,0,0,1,10.861,26.888c.108,4.979.038,9.964.024,14.945-.006,2.875-1.258,4.181-4.076,4.182q-36.4.016-72.8,0c-2.851,0-4.152-1.284-4.122-4.126.065-6.342-.332-12.743.4-19.008,1.739-14.862,9.813-25.448,23.143-32.072C5385.851,1134.771,5386.446,1134.515,5387.168,1134.183Zm48.167,48.875c0-5.2.477-10.33-.087-15.346a32.7,32.7,0,0,0-28.787-28.949c-16.276-2.086-29.372,7.281-34.942,19.894-3.475,7.872-2.573,16.111-2.674,24.4Zm-33.059-51.849a20.853,20.853,0,0,0,21-21.109,21.052,21.052,0,1,0-42.1.105A20.838,20.838,0,0,0,5402.276,1131.209Z" transform="translate(18.716 27.246)" fill="#fff"/>
      <path id="Trazado_617388" data-name="Trazado 617388" d="M5462.7,1155.586c-.045-8.736.731-17.261-3.071-25.37a33.478,33.478,0,0,0-45.532-15.682c-3,1.54-5.04,1.217-6.1-.961-1.025-2.1-.132-3.805,2.852-5.36,1.04-.542,2.11-1.031,3.367-1.642-9.233-6.572-13.839-15.357-12.918-26.668a27.018,27.018,0,0,1,9.43-18.535,28.289,28.289,0,1,1,33.953,45.074c2.784,1.667,5.748,3.129,8.363,5.064,10.728,7.934,16.281,18.693,16.746,32.023.177,5.035.057,10.081.036,15.123-.012,2.671-1.39,4.041-4.08,4.044q-23.707.019-47.411,0c-2.48,0-4-1.387-4.015-3.535-.013-2.224,1.507-3.568,4.14-3.572q20.953-.016,41.908,0Zm-54.445-73.055a21.055,21.055,0,1,0,21.155-21.073A20.979,20.979,0,0,0,5408.25,1082.531Z" transform="translate(42.055 10.944)" fill="#fff"/>
      <path id="Trazado_617389" data-name="Trazado 617389" d="M5397.618,1092.283a28.21,28.21,0,1,1,28.16-27.948A28.112,28.112,0,0,1,5397.618,1092.283Zm.063-7.119a21.1,21.1,0,1,0-21.111-21.081A21.007,21.007,0,0,0,5397.681,1085.164Z" transform="translate(23.32 0)" fill="#fff"/>
    </g>
  </g>
</svg>
