<svg xmlns="http://www.w3.org/2000/svg" width="134" height="134" viewBox="0 0 134 134">
  <g id="Grupo_878579" data-name="Grupo 878579" transform="translate(-466 -9577)">
    <circle id="Elipse_5067" data-name="Elipse 5067" cx="67" cy="67" r="67" transform="translate(466 9577)" fill="#222b5a"/>
    <g id="Grupo_876818" data-name="Grupo 876818" transform="translate(172.161 8141.576)">
      <path id="Trazado_126248" data-name="Trazado 126248" d="M327.668,1521.623c.115-1.392-.157-2.707.645-3.863.911-1.313,2.3-.847,3.625-.994,0-1.276,0-2.525,0-3.774,0-.618.293-1.125.881-1.175a1.994,1.994,0,0,1,1.252.484c.2.156.207.61.214.932.023,1.151.009,2.3.009,3.531,1.267.087,2.766-.264,3.356,1.169a21.472,21.472,0,0,1,.814,3.69c.614,0,1.427,0,2.24,0,1.317,0,1.7.381,1.7,1.7q0,12.025,0,24.05v.965h4.658c.016-.357.044-.7.044-1.051q0-26.748,0-53.5a6.322,6.322,0,0,1,.042-1,1.078,1.078,0,0,1,1.025-.982,9.192,9.192,0,0,1,.923-.031h23.276c1.837,0,2.055.215,2.055,2.023q0,26.71,0,53.419v1.118h4.722v-.963q0-21.159,0-42.319c0-1.628.3-1.927,1.937-1.927h2.084c0-.549,0-1.029,0-1.509.008-2.485.907-3.4,3.352-3.427.2,0,.407-.018.733-.032v-1.909c0-1.259-.007-2.518,0-3.777.007-.906.43-1.405,1.164-1.411s1.182.505,1.188,1.39c.014,1.85.015,3.7.023,5.549a1.064,1.064,0,0,0,.088.191h1.134a2.525,2.525,0,0,1,2.763,2.481c.073.784.012,1.58.012,2.453.9,0,1.661,0,2.426,0,1.268.007,1.651.385,1.652,1.668q0,12.295,0,24.589,0,9.752,0,19.5c0,1.569-.289,1.864-1.824,1.864H325.675c-1.545,0-1.834-.292-1.835-1.854q0-12.718,0-25.437c0-1.532.314-1.84,1.863-1.841Zm21.889-27.434v54.148H371.99V1494.19Zm32.043,54.144h13.677v-42.749H381.6Zm-41.645-24.243H326.277v24.255h13.677Zm51.329-21c0-.7.03-1.4-.025-2.107-.011-.142-.34-.367-.526-.371-1.538-.03-3.077-.033-4.614,0a.71.71,0,0,0-.509.464c-.061.653-.024,1.315-.024,2.009Zm-55.469,18.49c0-.625-.014-1.208,0-1.792.016-.512-.226-.657-.708-.643-.974.028-1.95.008-2.925.008-2.3,0-2.3,0-2.067,2.329,0,.02.033.038.087.1Z" transform="translate(0 -12.685)" fill="#fff"/>
      <path id="Trazado_126249" data-name="Trazado 126249" d="M366.434,1465.835H341.162v.921q0,14.181,0,28.361c0,1.255-.347,1.79-1.163,1.8s-1.2-.532-1.2-1.767q0-14.989,0-29.979c0-1.439.309-1.743,1.772-1.743q13.255,0,26.508,0c1.425,0,1.755.334,1.756,1.781q0,5.125,0,10.25a3.769,3.769,0,0,1-.031.691,1.181,1.181,0,0,1-2.347-.037,8.629,8.629,0,0,1-.026-1.231q0-4.085,0-8.169Z" transform="translate(-6.867)" fill="#fff"/>
      <path id="Trazado_126250" data-name="Trazado 126250" d="M376.436,1472.267c.692,0,1.385-.015,2.077,0a1.169,1.169,0,0,1,1.274,1.238q.05,2.153,0,4.308a1.17,1.17,0,0,1-1.284,1.231q-2.038.029-4.077,0a1.182,1.182,0,0,1-1.311-1.282q-.047-2.115,0-4.231a1.175,1.175,0,0,1,1.323-1.267C375.1,1472.255,375.77,1472.267,376.436,1472.267Zm.92,2.433h-1.822v1.91h1.822Z" transform="translate(-22.6 -4.055)" fill="#fff"/>
      <path id="Trazado_126251" data-name="Trazado 126251" d="M354.279,1514.971c0,.667.011,1.333,0,2-.018.85-.424,1.321-1.25,1.341q-2.075.051-4.154,0a1.176,1.176,0,0,1-1.246-1.341c-.014-1.385-.016-2.77,0-4.155a1.149,1.149,0,0,1,1.285-1.285q2.038-.03,4.077,0a1.157,1.157,0,0,1,1.286,1.286C354.292,1513.534,354.279,1514.253,354.279,1514.971Zm-4.248-1.065v1.944h1.822v-1.944Z" transform="translate(-10.91 -22.068)" fill="#fff"/>
      <path id="Trazado_126252" data-name="Trazado 126252" d="M347.625,1495.6c0-.718-.016-1.437.005-2.154a1.143,1.143,0,0,1,1.251-1.242q2.077-.028,4.154,0a1.141,1.141,0,0,1,1.24,1.255q.028,2.115,0,4.231a1.169,1.169,0,0,1-1.292,1.29q-2.038.029-4.077,0a1.18,1.18,0,0,1-1.281-1.3c0-.051,0-.1,0-.154Q347.623,1496.561,347.625,1495.6Zm2.388.957h1.86v-1.934h-1.86Z" transform="translate(-10.912 -13.199)" fill="#fff"/>
      <path id="Trazado_126253" data-name="Trazado 126253" d="M347.625,1475.658c0-.692-.012-1.385,0-2.077a1.163,1.163,0,0,1,1.263-1.312q2.077-.028,4.154,0a1.143,1.143,0,0,1,1.23,1.266q.028,2.116,0,4.232a1.165,1.165,0,0,1-1.3,1.279c-1.359.017-2.719.019-4.077,0a1.172,1.172,0,0,1-1.269-1.311C347.613,1477.043,347.625,1476.35,347.625,1475.658Zm2.417-.978v1.921h1.834v-1.921Z" transform="translate(-10.913 -4.052)" fill="#fff"/>
      <path id="Trazado_126254" data-name="Trazado 126254" d="M354.289,1533.838c0,.719.018,1.438-.005,2.156a1.152,1.152,0,0,1-1.21,1.208,1.141,1.141,0,0,1-1.131-1.205q-.037-1.308,0-2.618c.013-.443-.158-.587-.583-.575-.769.021-1.541.017-2.31,0-.907-.02-1.4-.447-1.406-1.181s.506-1.191,1.386-1.2c1.31-.011,2.618-.015,3.928,0a1.2,1.2,0,0,1,1.336,1.332c0,.026,0,.051,0,.078v2Z" transform="translate(-10.922 -30.74)" fill="#fff"/>
      <path id="Trazado_126255" data-name="Trazado 126255" d="M366.717,1475.706c0,.693.017,1.387,0,2.079a1.2,1.2,0,0,1-1.166,1.273,1.169,1.169,0,0,1-1.19-1.238q-.041-2.156,0-4.313a1.149,1.149,0,0,1,1.194-1.229,1.187,1.187,0,0,1,1.162,1.271C366.734,1474.267,366.718,1474.987,366.717,1475.706Z" transform="translate(-18.584 -4.063)" fill="#fff"/>
      <path id="Trazado_126256" data-name="Trazado 126256" d="M382.291,1586.3c1.229,0,2.459-.008,3.689,0,.93.008,1.475.468,1.469,1.208s-.549,1.184-1.488,1.187q-3.766.011-7.532,0c-.964,0-1.478-.418-1.493-1.168-.016-.781.517-1.222,1.513-1.228C379.728,1586.294,381.01,1586.3,382.291,1586.3Z" transform="translate(-24.364 -56.384)" fill="#fff"/>
      <path id="Trazado_126257" data-name="Trazado 126257" d="M382.216,1526.339c-1.281,0-2.562.008-3.843,0-.932-.008-1.452-.463-1.438-1.224.014-.734.507-1.161,1.414-1.165q3.843-.016,7.686,0c.883,0,1.408.465,1.413,1.18.005.74-.542,1.2-1.466,1.209C384.726,1526.346,383.471,1526.339,382.216,1526.339Z" transform="translate(-24.364 -27.769)" fill="#fff"/>
      <path id="Trazado_126258" data-name="Trazado 126258" d="M382.2,1565.769c1.255,0,2.511-.005,3.766,0,.935.005,1.479.45,1.483,1.188s-.534,1.2-1.473,1.2q-3.8.016-7.609,0c-.942,0-1.451-.465-1.432-1.229.018-.728.525-1.153,1.422-1.16C379.636,1565.762,380.917,1565.769,382.2,1565.769Z" transform="translate(-24.364 -46.963)" fill="#fff"/>
      <path id="Trazado_126259" data-name="Trazado 126259" d="M382.189,1557.707c-1.281,0-2.562.008-3.842,0-.889-.008-1.4-.444-1.413-1.17-.014-.744.47-1.207,1.365-1.213q3.881-.025,7.762,0c.871,0,1.4.495,1.389,1.2s-.542,1.171-1.417,1.179C384.751,1557.717,383.469,1557.707,382.189,1557.707Z" transform="translate(-24.364 -42.164)" fill="#fff"/>
      <path id="Trazado_126260" data-name="Trazado 126260" d="M382.2,1534.4c1.281,0,2.562-.008,3.843,0,.869.008,1.4.47,1.407,1.184s-.521,1.193-1.4,1.2q-3.881.026-7.762,0c-.892-.007-1.374-.482-1.355-1.225.018-.725.529-1.15,1.423-1.156C379.637,1534.4,380.917,1534.4,382.2,1534.4Z" transform="translate(-24.363 -32.569)" fill="#fff"/>
      <path id="Trazado_126261" data-name="Trazado 126261" d="M382.133,1544.9c1.306,0,2.613-.006,3.919,0,.871.005,1.4.462,1.4,1.177s-.536,1.167-1.411,1.169q-3.88.01-7.76,0c-.846,0-1.328-.43-1.345-1.142-.018-.75.472-1.2,1.358-1.2C379.572,1544.891,380.852,1544.9,382.133,1544.9Z" transform="translate(-24.364 -37.386)" fill="#fff"/>
      <path id="Trazado_126262" data-name="Trazado 126262" d="M382.2,1515.883c-1.28,0-2.561.006-3.842,0-.906-.006-1.406-.418-1.426-1.146-.021-.769.481-1.209,1.43-1.212q3.842-.011,7.684,0c.877,0,1.4.464,1.4,1.176s-.534,1.173-1.405,1.18C384.763,1515.891,383.483,1515.883,382.2,1515.883Z" transform="translate(-24.364 -22.987)" fill="#fff"/>
      <path id="Trazado_126263" data-name="Trazado 126263" d="M382.216,1575.867c1.255,0,2.51-.01,3.765,0,.934.01,1.477.469,1.467,1.2s-.557,1.172-1.493,1.174q-3.765.007-7.531,0c-.957,0-1.478-.416-1.492-1.164s.489-1.2,1.442-1.21C379.655,1575.856,380.935,1575.867,382.216,1575.867Z" transform="translate(-24.363 -51.596)" fill="#fff"/>
      <path id="Trazado_126264" data-name="Trazado 126264" d="M382.212,1505.413c-1.281,0-2.562.008-3.842,0-.952-.008-1.455-.443-1.438-1.207.016-.727.524-1.149,1.42-1.151q3.842-.008,7.684,0c.872,0,1.405.457,1.412,1.171s-.522,1.177-1.395,1.186C384.773,1505.423,383.492,1505.412,382.212,1505.413Z" transform="translate(-24.363 -18.182)" fill="#fff"/>
      <path id="Trazado_126265" data-name="Trazado 126265" d="M402.7,1565.726a4.565,4.565,0,0,1,.835.1,1.084,1.084,0,0,1,.834,1.15,1.044,1.044,0,0,1-.887,1.1,5.178,5.178,0,0,1-1.3.056,1.2,1.2,0,0,1-1.195-1.172,1.229,1.229,0,0,1,1.249-1.2c.153-.01.308,0,.462,0Z" transform="translate(-35.402 -46.944)" fill="#fff"/>
      <path id="Trazado_126266" data-name="Trazado 126266" d="M402.719,1534.416a3.39,3.39,0,0,1,.615.006,1.116,1.116,0,0,1,1.034,1.145,1.067,1.067,0,0,1-.981,1.176,5.323,5.323,0,0,1-1.227.027,1.194,1.194,0,0,1-1.175-1.186,1.223,1.223,0,0,1,1.272-1.178c.154-.009.308,0,.462,0Z" transform="translate(-35.401 -32.57)" fill="#fff"/>
      <path id="Trazado_126267" data-name="Trazado 126267" d="M402.465,1526.338a2.175,2.175,0,0,1-.511-.042,1.159,1.159,0,0,1-.957-1.151c-.031-.861.654-1.258,2.018-1.2.916.037,1.421.522,1.358,1.3C404.312,1526.013,403.789,1526.342,402.465,1526.338Z" transform="translate(-35.406 -27.769)" fill="#fff"/>
      <path id="Trazado_126268" data-name="Trazado 126268" d="M402.584,1588.731a4.8,4.8,0,0,1-.7-.09,1.1,1.1,0,0,1-.876-1.125,1.043,1.043,0,0,1,.872-1.118,4.96,4.96,0,0,1,1.6-.015,1.044,1.044,0,0,1,.9,1.166,1.1,1.1,0,0,1-.968,1.123A6.112,6.112,0,0,1,402.584,1588.731Z" transform="translate(-35.411 -56.397)" fill="#fff"/>
      <path id="Trazado_126269" data-name="Trazado 126269" d="M402.676,1557.773c-.365-.095-.823-.087-1.071-.311a1.468,1.468,0,0,1-.515-1.086,1.6,1.6,0,0,1,.82-.967,2.751,2.751,0,0,1,1.287-.089,1.147,1.147,0,0,1,1.222,1.2,1.189,1.189,0,0,1-1.261,1.174c-.154.009-.308,0-.462,0Z" transform="translate(-35.445 -42.155)" fill="#fff"/>
      <path id="Trazado_126270" data-name="Trazado 126270" d="M402.738,1513.417c.347.069.81.026,1.012.235a1.7,1.7,0,0,1,.551,1.2c-.066.365-.549.733-.935.938a2.309,2.309,0,0,1-1.062.043,1.183,1.183,0,1,1-.039-2.355c.154-.008.308,0,.462,0Z" transform="translate(-35.401 -22.941)" fill="#fff"/>
      <path id="Trazado_126271" data-name="Trazado 126271" d="M402.733,1502.964a4.514,4.514,0,0,1,.968.18.959.959,0,0,1,.624,1.246,2.027,2.027,0,0,1-.957.93,2.5,2.5,0,0,1-1.139.047,1.2,1.2,0,0,1-1.246-1.189,1.213,1.213,0,0,1,1.279-1.163c.154-.007.308,0,.462,0Z" transform="translate(-35.4 -18.144)" fill="#fff"/>
      <path id="Trazado_126272" data-name="Trazado 126272" d="M402.693,1578.275c-.323-.061-.751-.016-.946-.208a1.779,1.779,0,0,1-.637-1.163c.043-.367.507-.785.888-.981a2.54,2.54,0,0,1,1.213-.065,1.142,1.142,0,0,1,1.219,1.2,1.185,1.185,0,0,1-1.266,1.166c-.154.008-.308,0-.462,0Z" transform="translate(-35.457 -51.576)" fill="#fff"/>
      <path id="Trazado_126273" data-name="Trazado 126273" d="M402.684,1547.287c-.325-.053-.756,0-.951-.184a2.063,2.063,0,0,1-.663-1.171.982.982,0,0,1,.962-1.017,7.34,7.34,0,0,1,1.23-.015,1.127,1.127,0,0,1,1.15,1.181,1.139,1.139,0,0,1-1.1,1.152c-.2.018-.411,0-.616,0Z" transform="translate(-35.439 -37.379)" fill="#fff"/>
      <path id="Trazado_126274" data-name="Trazado 126274" d="M443.72,1582.213c0,.692.015,1.385,0,2.077a1.183,1.183,0,0,1-1.3,1.294q-2.038.034-4.076,0a1.168,1.168,0,0,1-1.275-1.308c-.017-1.41-.019-2.821,0-4.23a1.132,1.132,0,0,1,1.25-1.239q2.076-.028,4.153,0a1.146,1.146,0,0,1,1.243,1.252C443.736,1580.776,443.72,1581.5,443.72,1582.213Zm-4.233-1.037v1.961H441.3v-1.961Z" transform="translate(-51.953 -52.94)" fill="#fff"/>
      <path id="Trazado_126275" data-name="Trazado 126275" d="M443.721,1545.317c0,.667.011,1.333,0,2-.018.859-.425,1.3-1.26,1.314q-2.075.032-4.152,0a1.127,1.127,0,0,1-1.237-1.25q-.028-2.115,0-4.23a1.169,1.169,0,0,1,1.288-1.3q2.036-.041,4.075,0a1.191,1.191,0,0,1,1.285,1.309C443.734,1543.88,443.72,1544.6,443.721,1545.317Zm-4.235-1.025v1.942H441.3v-1.942Z" transform="translate(-51.953 -35.98)" fill="#fff"/>
      <path id="Trazado_126276" data-name="Trazado 126276" d="M437.07,1526.791c0-.717-.019-1.436.005-2.153a1.094,1.094,0,0,1,1.143-1.182q2.152-.052,4.305,0a1.12,1.12,0,0,1,1.193,1.221q.032,2.153,0,4.306a1.134,1.134,0,0,1-1.189,1.235c-1.434.04-2.871.043-4.3,0-.753-.024-1.118-.491-1.154-1.267,0-.051,0-.1,0-.154v-2Zm4.245-.93h-1.838v1.935h1.838Z" transform="translate(-51.956 -27.535)" fill="#fff"/>
      <path id="Trazado_126277" data-name="Trazado 126277" d="M437.067,1563.709c0-.692-.014-1.385,0-2.077a1.172,1.172,0,0,1,1.271-1.31q2.038-.034,4.077,0a1.191,1.191,0,0,1,1.3,1.362q.02,2.039,0,4.077a1.183,1.183,0,0,1-1.315,1.343q-2.038.026-4.077,0a1.144,1.144,0,0,1-1.255-1.239C437.05,1565.145,437.067,1564.427,437.067,1563.709Zm2.414-.969v1.958h1.829v-1.958Z" transform="translate(-51.955 -44.457)" fill="#fff"/>
      <path id="Trazado_126278" data-name="Trazado 126278" d="M337,1587.423c1.076,0,2.151-.008,3.227,0,.937.009,1.464.456,1.459,1.209,0,.724-.512,1.185-1.4,1.192q-3.3.025-6.608,0c-.871-.007-1.4-.5-1.392-1.21s.541-1.176,1.411-1.188C334.8,1587.412,335.9,1587.423,337,1587.423Z" transform="translate(-3.877 -56.899)" fill="#fff"/>
      <path id="Trazado_126279" data-name="Trazado 126279" d="M337.062,1569.589c-1.1,0-2.2.009-3.3,0-.929-.01-1.477-.472-1.469-1.206s.556-1.182,1.488-1.185q3.226-.01,6.453,0c.939,0,1.464.449,1.46,1.2s-.525,1.177-1.479,1.187C339.161,1569.6,338.111,1569.589,337.062,1569.589Z" transform="translate(-3.877 -47.616)" fill="#fff"/>
      <path id="Trazado_126280" data-name="Trazado 126280" d="M337,1559.477c-1.079,0-2.158.005-3.237,0-.934-.007-1.481-.458-1.473-1.2.008-.713.534-1.157,1.424-1.161q3.276-.013,6.551,0c.907,0,1.413.426,1.426,1.151.014.758-.51,1.2-1.455,1.207C339.156,1559.483,338.077,1559.477,337,1559.477Z" transform="translate(-3.877 -42.991)" fill="#fff"/>
      <path id="Trazado_126281" data-name="Trazado 126281" d="M337.048,1579.705c-1.13,0-2.261.009-3.391,0-.831-.008-1.346-.45-1.37-1.141-.024-.71.514-1.209,1.374-1.214q3.353-.018,6.7,0a1.184,1.184,0,1,1,0,2.351C339.257,1579.715,338.152,1579.7,337.048,1579.705Z" transform="translate(-3.876 -52.274)" fill="#fff"/>
    </g>
  </g>
</svg>
