<svg xmlns="http://www.w3.org/2000/svg" width="134" height="134" viewBox="0 0 134 134">
  <g id="Grupo_878566" data-name="Grupo 878566" transform="translate(-319.067 -4542.5)">
    <circle id="Elipse_5084" data-name="Elipse 5084" cx="67" cy="67" r="67" transform="translate(319.067 4542.5)" fill="#ee4e5d"/>
    <g id="Grupo_877771" data-name="Grupo 877771" transform="translate(792.279 4176.783)">
      <path id="Trazado_126565" data-name="Trazado 126565" d="M-352.605,397.342c.414.126.835.235,1.241.383a6.251,6.251,0,0,1,4.109,6.038c.02,1.776,0,3.552,0,5.328q0,21.786.014,43.571a2.747,2.747,0,0,1-.866,2.127q-7.062,7.013-14.065,14.085a2.337,2.337,0,0,1-1.8.744c-7.94-.019-15.879-.01-23.819-.017a2.889,2.889,0,0,1-1-.132,1.111,1.111,0,0,1-.716-1.29,1.133,1.133,0,0,1,.977-1.033,3.993,3.993,0,0,1,.8-.028h23.044V466.3c0-2.53-.006-5.06,0-7.59a6.242,6.242,0,0,1,6.482-6.55c2.525-.024,5.05-.005,7.575-.005h.883v-.861q0-23.61,0-47.22c0-2.752-1.491-4.243-4.227-4.243h-48.8c-2.686,0-4.179,1.5-4.179,4.211q0,21.275,0,42.549c0,1.23-.429,1.851-1.263,1.832-.81-.018-1.219-.623-1.219-1.807q0-21.2,0-42.4c0-3.677,1.6-5.782,5.14-6.777.04-.012.07-.061.105-.092Zm.821,57.356a.664.664,0,0,0-.172-.038c-2.135,0-4.27-.028-6.4,0a3.708,3.708,0,0,0-3.831,3.886c-.019,1.993-.005,3.986,0,5.979,0,.206.021.412.03.572Z" transform="translate(-25.764 0)" fill="#fff"/>
      <path id="Trazado_126566" data-name="Trazado 126566" d="M-427.328,611.049a7.847,7.847,0,0,1-3.639-2.4c-2.96-3.02-5.975-5.985-8.946-8.994a4.774,4.774,0,0,1-1.259-5.033,4.636,4.636,0,0,1,3.773-3.349,4.95,4.95,0,0,1,4.655,1.478q2.529,2.523,5.04,5.065a4.428,4.428,0,0,1,.473.748c2.12-2.947,4.078-5.668,6.034-8.389q3.83-5.326,7.66-10.653a3.684,3.684,0,0,1,.4-.516,1.2,1.2,0,0,1,1.595-.114,1.179,1.179,0,0,1,.36,1.556,9.6,9.6,0,0,1-.7,1.023q-6.869,9.561-13.74,19.12c-.9,1.258-1.52,1.3-2.623.2q-3.142-3.148-6.284-6.294a2.534,2.534,0,0,0-2.659-.74,2.455,2.455,0,0,0-1,4.114c1.072,1.126,2.191,2.208,3.29,3.309q3.193,3.2,6.388,6.4a2.521,2.521,0,0,0,4.241-.346q11-15.3,22.012-30.589a2.555,2.555,0,0,0-1.417-4.206,2.381,2.381,0,0,0-2.422,1c-.527.7-1.019,1.422-1.543,2.122a1.249,1.249,0,0,1-1.774.413,1.236,1.236,0,0,1-.244-1.853c.482-.7.984-1.387,1.488-2.072a4.947,4.947,0,0,1,7.016-1.181,4.978,4.978,0,0,1,1.046,7c-2.178,3.072-4.388,6.122-6.586,9.181-5.034,7-10.086,14-15.088,21.023a6.581,6.581,0,0,1-3.949,2.986Z" transform="translate(0 -138.957)" fill="#fff"/>
      <path id="Trazado_126567" data-name="Trazado 126567" d="M-312.858,438.178h-17.986c-.243,0-.486.009-.728-.011a1.217,1.217,0,0,1-1.169-1.171,1.22,1.22,0,0,1,.994-1.261,3.916,3.916,0,0,1,.8-.044q18.1,0,36.19,0a3.258,3.258,0,0,1,.932.093A1.116,1.116,0,0,1-293,437.07a1.127,1.127,0,0,1-1.077,1.089,6.469,6.469,0,0,1-.8.018Z" transform="translate(-87.526 -30.881)" fill="#fff"/>
      <path id="Trazado_126568" data-name="Trazado 126568" d="M-317.2,476.586h-13.616c-.243,0-.487.007-.728-.015a1.226,1.226,0,0,1-1.2-1.22,1.242,1.242,0,0,1,1.184-1.243,5.556,5.556,0,0,1,.655-.017q13.689,0,27.378,0a3.7,3.7,0,0,1,1.007.1,1.116,1.116,0,0,1,.839,1.218,1.127,1.127,0,0,1-.961,1.126,4.741,4.741,0,0,1-.87.051Q-310.353,476.588-317.2,476.586Z" transform="translate(-87.526 -61.806)" fill="#fff"/>
      <path id="Trazado_126569" data-name="Trazado 126569" d="M-321.515,512.587c3.155,0,6.31,0,9.465.006a1.647,1.647,0,0,1,.974.161,1.658,1.658,0,0,1,.644,1.094,1.885,1.885,0,0,1-.763,1.1c-.225.177-.65.13-.986.131q-9.392.009-18.785,0c-.17,0-.341.008-.509-.007a1.267,1.267,0,0,1-1.272-1.242,1.223,1.223,0,0,1,1.33-1.236c2.718-.016,5.437-.008,8.155-.009Z" transform="translate(-87.522 -92.81)" fill="#fff"/>
      <path id="Trazado_126570" data-name="Trazado 126570" d="M-128.412,535.332q0-3.973,0-7.946c0-.195-.007-.389,0-.583.048-.848.493-1.335,1.222-1.345.756-.01,1.22.493,1.266,1.377.008.145,0,.292,0,.437v16.256c0,.1,0,.195,0,.292-.024,1-.468,1.54-1.264,1.531s-1.225-.546-1.228-1.563C-128.417,540.969-128.412,538.15-128.412,535.332Z" transform="translate(-252.079 -103.177)" fill="#fff"/>
      <path id="Trazado_126571" data-name="Trazado 126571" d="M-125.93,643.063c0,.437.036.877-.008,1.31a1.177,1.177,0,0,1-1.2,1.124,1.14,1.14,0,0,1-1.223-1.091,23.421,23.421,0,0,1,0-2.764,1.184,1.184,0,0,1,1.225-1.106,1.217,1.217,0,0,1,1.2,1.145C-125.894,642.137-125.93,642.6-125.93,643.063Z" transform="translate(-252.089 -195.853)" fill="#fff"/>
      <path id="Trazado_126572" data-name="Trazado 126572" d="M-368.608,438.154c-.436,0-.874.021-1.309,0a1.226,1.226,0,0,1-1.2-1.145,1.2,1.2,0,0,1,1.044-1.287,19.958,19.958,0,0,1,2.9.007,1.146,1.146,0,0,1,1,1.306,1.165,1.165,0,0,1-1.13,1.115c-.434.031-.872.006-1.309.006Z" transform="translate(-56.62 -30.865)" fill="#fff"/>
      <path id="Trazado_126573" data-name="Trazado 126573" d="M-368.678,515.042c-.412,0-.827.032-1.235-.007a1.257,1.257,0,0,1-1.2-1.3,1.222,1.222,0,0,1,1.257-1.161c.823-.027,1.649-.028,2.472,0a1.172,1.172,0,0,1,1.222,1.176,1.194,1.194,0,0,1-1.13,1.276,13,13,0,0,1-1.38.009Z" transform="translate(-56.618 -92.783)" fill="#fff"/>
      <path id="Trazado_126574" data-name="Trazado 126574" d="M-368.657,476.649a12.482,12.482,0,0,1-1.379-.01,1.166,1.166,0,0,1-1.05-1.2,1.091,1.091,0,0,1,.972-1.181,20.063,20.063,0,0,1,3.041.006,1.089,1.089,0,0,1,.926,1.276,1.108,1.108,0,0,1-1.058,1.1,14.4,14.4,0,0,1-1.452.01Z" transform="translate(-56.645 -61.902)" fill="#fff"/>
    </g>
  </g>
</svg>
