<svg xmlns="http://www.w3.org/2000/svg" width="134" height="134" viewBox="0 0 134 134">
  <g id="Grupo_878576" data-name="Grupo 878576" transform="translate(-737.933 -5213)">
    <g id="Elipse_4987" data-name="Elipse 4987" transform="translate(737.933 5213)" fill="#fff" stroke="#ec5060" stroke-width="5">
      <circle cx="67" cy="67" r="67" stroke="none"/>
      <circle cx="67" cy="67" r="64.5" fill="none"/>
    </g>
    <g id="Grupo_876629" data-name="Grupo 876629" transform="translate(53.088 3831.079)">
      <path id="Trazado_125508" data-name="Trazado 125508" d="M763.164,1406.921h19.258c.143.054.283.115.429.16a4.523,4.523,0,0,1,3.383,3.848,12.593,12.593,0,0,1-.1,2.413,4.722,4.722,0,0,1,2.977,6.15c2.206,1,3.322,2.368,3.386,4.241a4.655,4.655,0,0,1-3.263,4.8c.062.925.165,1.769.167,2.615q.024,7.5-.005,15.009a4.491,4.491,0,0,0,.525,2.22,20.016,20.016,0,0,1,2.54,8.81c.179,6.216.07,12.441.039,18.662a4.462,4.462,0,0,1-3.624,4.364,15.512,15.512,0,0,1-2.771.028c-1.265,2.767-2.95,3.61-6.193,2.983a4.946,4.946,0,0,1-3.705,3.37h-1.553a4.907,4.907,0,0,1-3.671-3.26c-1.135.052-2.182.136-3.231.141-3.8.017-7.6-.015-11.392.028a6.5,6.5,0,0,0-1.984.455c-1.969.68-3.905,1.462-5.889,2.093a22.56,22.56,0,0,1-3.031.543h-4.348c-.083-.058-.163-.118-.248-.172a1.556,1.556,0,0,1,.834-2.938q.582-.015,1.164,0a18.236,18.236,0,0,0,9.025-1.844,11.386,11.386,0,0,1,6.016-1.293c2.268.107,4.545.024,6.714.024v-15.561h-.96c-3.829,0-7.659-.013-11.488.01a1.888,1.888,0,0,1-1.868-1.106,9.445,9.445,0,0,0-4.618-4.318c-2.509-1.139-5.158-.747-7.833-.8,0,.39,0,.7,0,1,0,1.6-.491,2.1-2.073,2.1q-3.842,0-7.684,0c-2.38,0-4.761-.007-7.141,0a1.56,1.56,0,1,0-.027,3.1c1.992.013,3.985-.014,5.977.013a1.532,1.532,0,0,1,1.5,2.128,1.625,1.625,0,0,1-1.689.979c-2.924-.01-5.848,0-8.771-.009a1.678,1.678,0,0,0-1.635.826,1.549,1.549,0,0,0,1.5,2.285c2.949.018,5.9,0,8.848.007,1.144,0,1.851.581,1.875,1.516.025.964-.7,1.591-1.875,1.594-1.863.005-3.726,0-5.589,0-1.13,0-1.838.606-1.843,1.547s.706,1.558,1.828,1.562c1.915.007,3.829-.006,5.744.005a1.561,1.561,0,1,1,.029,3.105c-.879.014-1.759,0-2.639,0-1.138.007-1.843.593-1.857,1.533-.013.969.705,1.571,1.892,1.577,1.113,0,2.226-.015,3.338.008a1.537,1.537,0,0,1,1.6,1.467,1.768,1.768,0,0,1-1.09,1.638H723.1c-.142-.054-.282-.116-.428-.161a4.519,4.519,0,0,1-3.382-3.831,12.739,12.739,0,0,1,.093-2.434,4.691,4.691,0,0,1-2.781-2.391,4.78,4.78,0,0,1-.188-3.793,4.981,4.981,0,0,1-3.409-3.729V1468.7a4.917,4.917,0,0,1,3.257-3.683c-.053-1.109-.141-2.133-.144-3.157-.015-4.971,0-9.943-.022-14.915a4.576,4.576,0,0,0-.348-1.473c-.723-2.012-1.534-4-2.192-6.029a21.973,21.973,0,0,1-.55-3.11v-19.3a4.618,4.618,0,0,1,3.167-3.6,18.173,18.173,0,0,1,3.3-.273,4.583,4.583,0,0,1,2.337-2.642,4.723,4.723,0,0,1,3.785-.184,4.961,4.961,0,0,1,3.723-3.42h1.553a4.9,4.9,0,0,1,3.673,3.263c1.108-.054,2.13-.142,3.152-.145,4.909-.015,9.819.006,14.728-.024a5.193,5.193,0,0,0,1.691-.387c1.814-.661,3.587-1.444,5.425-2.025A28.991,28.991,0,0,1,763.164,1406.921Zm1.264,54.775h.95c1.874,0,2.29.417,2.29,2.274v14.078c0,.208,0,.415,0,.622a1.581,1.581,0,0,0,1.543,1.693,1.562,1.562,0,0,0,1.556-1.677c.016-2,.007-3.993.006-5.989a1.549,1.549,0,0,1,.9-1.507,1.254,1.254,0,0,1,1.578.206,2.637,2.637,0,0,1,.6,1.5c.056,2.877.025,5.755.028,8.633,0,1.211.569,1.926,1.529,1.94.98.015,1.574-.724,1.575-1.974,0-2.878,0-5.755,0-8.634,0-1.125.618-1.835,1.56-1.83s1.539.714,1.543,1.848c.006,1.867,0,3.733,0,5.6,0,1.145.582,1.854,1.514,1.877.961.024,1.586-.709,1.589-1.881.005-1.867,0-3.734,0-5.6,0-1.133.606-1.84,1.547-1.843s1.548.708,1.557,1.835c.007.959-.024,1.92.015,2.878a1.534,1.534,0,0,0,1.568,1.5,1.562,1.562,0,0,0,1.515-1.481c.02-.232.009-.467.009-.7,0-4.848-.076-9.7.023-14.544a23.032,23.032,0,0,0-2.741-11.731,3.589,3.589,0,0,1-.371-1.629c-.031-3.863-.016-7.726-.016-11.589v-.686H770.774v.988c0,3.759-.024,7.518.016,11.278a2.181,2.181,0,0,1-1.279,2.168,8.628,8.628,0,0,0-4.616,6.118A56.923,56.923,0,0,0,764.428,1461.7Zm-45.216-3.077h15.531v-1c0-3.759.021-7.518-.014-11.277a2.116,2.116,0,0,1,1.219-2.12,9.438,9.438,0,0,0,4.549-5.574c.728-2.223.372-4.505.465-6.835-.445,0-.8,0-1.157,0-1.424-.006-1.953-.541-1.954-1.987q0-3.5,0-7c0-2.644.006-5.288,0-7.933a1.589,1.589,0,0,0-1.409-1.743,1.569,1.569,0,0,0-1.689,1.693c-.015,2,.011,3.993-.013,5.988a1.552,1.552,0,0,1-1.973,1.578,1.617,1.617,0,0,1-1.124-1.747q-.008-4.395,0-8.788c0-.668-.131-1.321-.762-1.574a2.377,2.377,0,0,0-1.527-.042,1.39,1.39,0,0,0-.824,1.456q.006,4.433,0,8.866c0,1.178-.619,1.907-1.581,1.889-.936-.018-1.519-.726-1.523-1.868-.005-1.841,0-3.681,0-5.522,0-1.206-.575-1.924-1.535-1.935s-1.566.712-1.569,1.9c0,1.892.006,3.785,0,5.678a1.563,1.563,0,1,1-3.1-.028c-.009-.856,0-1.711,0-2.567-.007-1.141-.588-1.851-1.521-1.87-.963-.02-1.582.708-1.583,1.886q0,8.243,0,16.488a15.7,15.7,0,0,0,1.592,7.534,14.683,14.683,0,0,1,1.535,7.847C719.129,1452.915,719.212,1455.818,719.212,1458.619Zm48.456-23.677c0-.37,0-.6,0-.835,0-1.875.416-2.289,2.274-2.289h14.049c.207,0,.414.005.621,0a1.581,1.581,0,0,0,1.686-1.55,1.561,1.561,0,0,0-1.676-1.556c-1.992-.015-3.985.012-5.977-.012a1.543,1.543,0,0,1-1.481-2.245,1.632,1.632,0,0,1,1.61-.863c2.9.01,5.8.006,8.693,0,1.2,0,1.922-.575,1.936-1.534.014-.984-.72-1.575-1.97-1.576-2.872,0-5.744,0-8.616,0-1.122,0-1.832-.62-1.826-1.564s.711-1.542,1.844-1.545c1.863-.006,3.726,0,5.589,0,1.142,0,1.85-.583,1.874-1.518.025-.963-.706-1.589-1.876-1.592-1.889,0-3.778.006-5.667,0a1.565,1.565,0,1,1-.012-3.107c.983-.012,1.967.019,2.949-.016a1.538,1.538,0,0,0,.4-3.012,3.405,3.405,0,0,0-.92-.083c-4.916,0-9.834.073-14.748-.027a22.75,22.75,0,0,0-11.561,2.709,3.744,3.744,0,0,1-1.694.408c-3.855.035-7.71.019-11.566.019h-.693v15.56h.981c3.778,0,7.555.02,11.333-.013a2.063,2.063,0,0,1,2.048,1.2,9.454,9.454,0,0,0,5.7,4.612C763.152,1435.192,765.379,1434.837,767.668,1434.942Zm-23.609-3.123c0,1.428.032,2.749-.006,4.067a12.548,12.548,0,0,1-5.667,10.5,1.116,1.116,0,0,0-.547,1.073c.022,2.411.009,4.821.011,7.232,0,.248.022.5.036.784,1.39,0,2.708-.032,4.023.006a12.478,12.478,0,0,1,10.477,5.678,1.109,1.109,0,0,0,1.07.548c2.406-.021,4.812-.008,7.218-.011.248,0,.5-.022.783-.036,0-1.418-.038-2.765.007-4.108a12.5,12.5,0,0,1,5.664-10.419,1.111,1.111,0,0,0,.546-1.073c-.02-2.411-.008-4.821-.011-7.232,0-.249-.022-.5-.036-.783-1.208,0-2.343,0-3.479,0a12.678,12.678,0,0,1-11.124-5.8.9.9,0,0,0-.58-.4C749.685,1431.811,746.921,1431.819,744.059,1431.819Z" fill="#222b5a"/>
      <path id="Trazado_125509" data-name="Trazado 125509" d="M754.146,1551.819a1.547,1.547,0,1,1-1.544-1.514A1.567,1.567,0,0,1,754.146,1551.819Z" transform="translate(-17.857 -67.286)" fill="#222b5a"/>
    </g>
  </g>
</svg>
