<svg xmlns="http://www.w3.org/2000/svg" width="134" height="134" viewBox="0 0 134 134">
  <g id="Grupo_878569" data-name="Grupo 878569" transform="translate(-1080.176 -3364.636)">
    <circle id="Elipse_5081" data-name="Elipse 5081" cx="67" cy="67" r="67" transform="translate(1080.176 3364.636)" fill="#179587"/>
    <g id="Grupo_878558" data-name="Grupo 878558" transform="translate(-4160.88 2322.82)">
      <path id="Trazado_617397" data-name="Trazado 617397" d="M5281.9,1070.367h2.77a2.913,2.913,0,0,0,.436.128,13.911,13.911,0,0,1,9.888,5.983c.689.974,1.21,2.068,1.84,3.162a32.522,32.522,0,0,1,23.135.069c.1-.21.164-.346.224-.485a13.811,13.811,0,0,1,7.521-7.631,35.122,35.122,0,0,1,4.333-1.225h2.769a3.512,3.512,0,0,0,.436.132c6.152,1.023,10.116,4.558,11.942,10.5a26.2,26.2,0,0,1,.543,2.774v1.7c-.047.222-.112.441-.138.665a14.207,14.207,0,0,1-5.938,10.183,37.608,37.608,0,0,1-3.264,1.931,32.57,32.57,0,0,1-.03,23.245c.207.094.365.168.527.24a14.085,14.085,0,0,1,7.988,8.562,32.978,32.978,0,0,1,.855,3.879v1.7a2.527,2.527,0,0,0-.125.431,14.511,14.511,0,0,1-10.346,12.406c-.8.238-1.633.384-2.451.572h-2.769a1.828,1.828,0,0,0-.355-.124,14.291,14.291,0,0,1-8.551-4.275,14.586,14.586,0,0,1-3.159-4.933,32.584,32.584,0,0,1-23.233.041c-.1.193-.182.346-.251.506a14.237,14.237,0,0,1-8.5,7.948,32.57,32.57,0,0,1-3.328.836h-2.77a2.678,2.678,0,0,0-.429-.136,14.587,14.587,0,0,1-12.314-12.234,14.326,14.326,0,0,1,8.511-15.094c.2-.087.385-.207.577-.312a32.63,32.63,0,0,1,.007-23.383c-.224-.114-.377-.2-.539-.274-5.489-2.391-9.139-8.255-8.67-13.935a14.3,14.3,0,0,1,10.838-13.112C5280.545,1070.63,5281.224,1070.51,5281.9,1070.367Zm37.2,11.493a29.946,29.946,0,0,0-21.254-.115c-.548.2-.431.54-.383.911a14.508,14.508,0,0,1-10.831,15.93,13.837,13.837,0,0,1-6.132.152,30.189,30.189,0,0,0,0,22.174,14.379,14.379,0,0,1,6.886.316,1.175,1.175,0,0,1,.952,1.43c-.166.67-.784.943-1.585.791a19.091,19.091,0,0,0-3.179-.486,12.091,12.091,0,0,0-12.115,13.713,10.182,10.182,0,0,0,1.466,4.168c.822-1.933,1.1-2.185,3.1-2.879,1.082-.374,2.163-.752,3.26-1.134-2.473-3.682-2.43-6.554.09-8.847a5.861,5.861,0,0,1,7.68-.173,5.67,5.67,0,0,1,2.047,3.432,6.02,6.02,0,0,1-1.834,5.561c1.219.423,2.313.856,3.439,1.182a3.735,3.735,0,0,1,2.96,3.011,12.214,12.214,0,0,0-2.587-15.2,1.189,1.189,0,0,1-.221-1.861,1.227,1.227,0,0,1,1.781.169,14.323,14.323,0,0,1,4.814,12.716c-.073.672.031.983.716,1.22a30.094,30.094,0,0,0,20.483-.085.769.769,0,0,0,.605-1,14.525,14.525,0,0,1,10.866-15.905,14.066,14.066,0,0,1,5.956-.177c.069-.164.123-.276.166-.393a29.993,29.993,0,0,0,.077-21.165c-.163-.458-.374-.542-.842-.473a14.415,14.415,0,0,1-16.1-11.611A42.025,42.025,0,0,1,5319.1,1081.86Zm3.97,59.048a3.533,3.533,0,0,1,2.635-2.818c1.236-.389,2.454-.838,3.7-1.27-2.491-3.218-2.493-6.474-.06-8.741a5.877,5.877,0,0,1,7.913-.164c2.608,2.3,2.68,5.455.146,8.907,1.321.459,2.618.918,3.918,1.358a3.345,3.345,0,0,1,2.028,1.658c.158.311.272.645.418,1a11.954,11.954,0,1,0-20.7.07Zm20.658-50.27a11.949,11.949,0,1,0-20.655-.031,3.648,3.648,0,0,1,2.882-2.862c1.164-.337,2.294-.789,3.477-1.2a6,6,0,0,1-.185-8.632,5.9,5.9,0,0,1,7.966-.3c2.658,2.3,2.743,5.466.19,8.95.937.321,1.845.657,2.767.944C5341.8,1088.013,5343.347,1088.6,5343.724,1090.638Zm-64.386-4.082c-2.473-3.041-2.516-6.278-.193-8.612a5.868,5.868,0,0,1,7.9-.406,5.706,5.706,0,0,1,2.077,3.58,6.02,6.02,0,0,1-1.857,5.421c1.247.432,2.393.874,3.566,1.224a3.625,3.625,0,0,1,2.809,2.846,11.8,11.8,0,0,0-2.353-14.879,11.934,11.934,0,0,0-16.384.412c-4.5,4.427-4.268,11-1.9,14.44.347-1.737,1.56-2.471,3.077-2.913C5277.161,1087.357,5278.208,1086.947,5279.337,1086.556Zm-4.053,5.809c-.359,1.029.377,1.636,1.256,2.235a12.037,12.037,0,0,0,13.2.244c1.127-.707,1.928-1.484,1.611-2.94a2.084,2.084,0,0,1,0-.538,1.175,1.175,0,0,0-.941-1.3c-1.823-.6-3.606-1.335-5.457-1.825a6.222,6.222,0,0,0-3.023-.084c-2,.52-3.933,1.3-5.89,1.979a1.047,1.047,0,0,0-.757,1.119C5275.292,1091.564,5275.284,1091.872,5275.284,1092.366Zm66.144.071v-.8c0-1.131-.1-1.277-1.2-1.652-1.742-.6-3.456-1.314-5.24-1.745a7.591,7.591,0,0,0-3.24.011,33.013,33.013,0,0,0-4,1.335c-2.711.945-2.382.409-2.368,3.406a1.509,1.509,0,0,0,.491,1.015,11.92,11.92,0,0,0,14.366.55C5341.074,1093.979,5341.75,1093.393,5341.428,1092.436Zm-66.144,50.069c.087.577-.2,1.249.5,1.813a12.1,12.1,0,0,0,14.019.754c1.127-.714,1.829-1.5,1.547-2.9a2.152,2.152,0,0,1,0-.538,1.174,1.174,0,0,0-.934-1.3c-1.87-.619-3.7-1.372-5.6-1.874a5.991,5.991,0,0,0-2.95-.014c-1.973.526-3.884,1.286-5.817,1.956a1.045,1.045,0,0,0-.765,1.113C5275.292,1141.821,5275.284,1142.129,5275.284,1142.506Zm66.144.188v-.647c0-1.314-.073-1.418-1.275-1.83-1.307-.448-2.633-.847-3.916-1.355a7.3,7.3,0,0,0-5.667,0c-.923.375-1.883.66-2.824.99-2.708.949-2.345.44-2.4,3.335a1.321,1.321,0,0,0,.569,1.161,11.989,11.989,0,0,0,14.327.473C5341.081,1144.238,5341.744,1143.646,5341.428,1142.694Zm-4.453-10.306a3.591,3.591,0,1,0-7.181-.029,3.591,3.591,0,1,0,7.181.029Zm-53.651-3.609a3.6,3.6,0,0,0-.012,7.2,3.6,3.6,0,0,0,.012-7.2Zm.023-50.255a3.592,3.592,0,0,0-.057,7.184,3.592,3.592,0,1,0,.057-7.184Zm53.628,3.633a3.59,3.59,0,0,0-7.18-.094,3.59,3.59,0,1,0,7.18.094Z" transform="translate(0 0)" fill="#fff"/>
      <path id="Trazado_617398" data-name="Trazado 617398" d="M5304.354,1124.215a18.043,18.043,0,0,1,15.027-17.916c.822-.132,1.42.211,1.542.882.133.732-.287,1.236-1.164,1.4a15.59,15.59,0,1,0,5.643.133c-.227-.044-.454-.084-.678-.137a1.175,1.175,0,0,1-1.011-1.382,1.189,1.189,0,0,1,1.481-.878,17.914,17.914,0,1,1-20.708,19.813C5304.4,1125.42,5304.384,1124.7,5304.354,1124.215Z" transform="translate(-13.942 -14.159)" fill="#fff"/>
      <path id="Trazado_617399" data-name="Trazado 617399" d="M5325.1,1140.245a13.485,13.485,0,1,1,13.274-11.157c-.178,1.035-.839,1.536-1.619,1.214-.707-.292-.789-.87-.673-1.535a11.172,11.172,0,1,0-2.19,4.862c.73-.922,1.359-1.134,1.965-.662s.558,1.188-.146,2.087A13.552,13.552,0,0,1,5325.1,1140.245Z" transform="translate(-16.806 -16.918)" fill="#fff"/>
      <path id="Trazado_617400" data-name="Trazado 617400" d="M5324.255,1136.153c.134-.763.254-1.681.464-2.578a1.359,1.359,0,0,0-.5-1.537c-.611-.5-1.147-1.1-1.715-1.656-.431-.423-.844-.864-.622-1.54.209-.637.8-.652,1.325-.735.834-.134,1.67-.264,2.511-.345a1.164,1.164,0,0,0,1.1-.77,16.343,16.343,0,0,1,1.2-2.406,1.927,1.927,0,0,1,1.157-.919c.337-.025.82.506,1.063.9a16.4,16.4,0,0,1,1.2,2.405,1.212,1.212,0,0,0,1.165.8c.94.1,1.88.238,2.809.419,1.162.227,1.417,1.08.586,1.946-.691.722-1.456,1.376-2.119,2.122a1.553,1.553,0,0,0-.34,1.061c.09.942.354,1.869.424,2.811a1.493,1.493,0,0,1-.429,1.18,1.729,1.729,0,0,1-1.329.066,6.862,6.862,0,0,1-1.833-.955,1.922,1.922,0,0,0-2.492.012,11.494,11.494,0,0,1-1.829.974C5325.03,1137.861,5324.265,1137.375,5324.255,1136.153Zm1.352-6.024a3.725,3.725,0,0,0,5.744,4.171c-.788-1.832-.139-3.115,1.321-4.209a3.7,3.7,0,0,0-7.064.038Z" transform="translate(-20.83 -21.018)" fill="#fff"/>
    </g>
  </g>
</svg>
