<svg xmlns="http://www.w3.org/2000/svg" width="134" height="134" viewBox="0 0 134 134">
  <g id="Grupo_878572" data-name="Grupo 878572" transform="translate(-390 -4731)">
    <g id="Elipse_4983" data-name="Elipse 4983" transform="translate(390 4731)" fill="#fff" stroke="#ec5060" stroke-width="5">
      <circle cx="67" cy="67" r="67" stroke="none"/>
      <circle cx="67" cy="67" r="64.5" fill="none"/>
    </g>
    <g id="Grupo_876630" data-name="Grupo 876630" transform="translate(1128.131 4028.334)">
      <path id="Trazado_125510" data-name="Trazado 125510" d="M-575.629,827.8v-21.69c-.813,0-1.57.042-2.319-.019a2.132,2.132,0,0,1-1-.4c-1.906-1.349-2.49-3.132-2.388-5.507.21-4.853.07-9.721.052-14.582a1.573,1.573,0,0,1,.516-1.278c.8-.75,1.585-1.528,2.333-2.333a1.6,1.6,0,0,1,1.334-.565c1.418.04,2.839.013,4.259.013l.1-.19c-.654-.632-1.336-1.238-1.948-1.908a1.655,1.655,0,0,1-.416-.988c-.041-1.739-.042-3.48-.014-5.219a7.752,7.752,0,0,1,8.253-7.868,7.762,7.762,0,0,1,7.187,7.213c.082,2.018.037,4.042.011,6.063a1.267,1.267,0,0,1-.37.776c-.642.65-1.328,1.256-2,1.879l.115.242c1.133,0,2.274.083,3.4-.023a2.966,2.966,0,0,1,2.787,1.163,31.231,31.231,0,0,0,2.229,2.209v18.741c-.773.732-1.528,1.484-2.33,2.182a1.693,1.693,0,0,1-.928.382c-.755.055-1.517.018-2.357.018v.995q0,9.854,0,19.708c0,.329-.042.658-.065.987h-6.911l-1.271-1.471-1.34,1.471Zm11.085-44.054c0,.222-.01.369,0,.515.226,2.883.36,5.777.714,8.644.235,1.906.13,3.58-1.449,4.891a5.72,5.72,0,0,0-.444.528c-.1.107-.229.262-.348.265-.869.024-1.741.05-2.609,0-.428-.023-2.447-2.776-2.415-3.206.152-2.016.313-4.031.467-6.047.14-1.832.274-3.663.418-5.6a41.959,41.959,0,0,1-4.437-.032,3.86,3.86,0,0,0-3.932,1.712,1.83,1.83,0,0,0-.374.938q-.035,7.757-.009,15.514a1.3,1.3,0,0,0,.172.714,2.553,2.553,0,0,0,3.163,1.086V789.918h2.309V825.5h2.807a1.949,1.949,0,0,0,1.955-1.941q0-8.525,0-17.05v-.923h2.311v.962q0,8.525,0,17.05c0,.666.818,1.852,1.4,1.881,1.116.056,2.236.016,3.447.016V789.908h2.3v13.9h1.072a2.195,2.195,0,0,0,2.207-2.17c0-4.583-.069-9.167.039-13.747a3.82,3.82,0,0,0-1.553-3.616c-.244-.171-.48-.5-.724-.5C-560.2,783.734-562.342,783.751-564.543,783.751Zm2.633-8.546c-.053-1.07-.02-2.153-.178-3.208a5.358,5.358,0,0,0-4.364-4.374,5.5,5.5,0,0,0-5.648,2.691c-.828,1.462-.577,3.065-.757,4.624a5.529,5.529,0,0,0,2.137,5.242,4.667,4.667,0,0,0,3.2,1.316,4.632,4.632,0,0,0,3.659-1.513C-562.457,778.612-561.434,777.268-561.91,775.2Zm-5.9,8.69c-.045.079-.089.12-.092.165q-.41,5.27-.812,10.54c-.061.8.591,1.188,1.047,1.669.1.1.407.065.587,0a2.59,2.59,0,0,0,1.016-1.755c-.124-1.732-.243-3.465-.376-5.2-.139-1.8-.292-3.6-.441-5.425Z" transform="translate(-76.619 -24.392)" fill="#222b5a"/>
      <path id="Trazado_125511" data-name="Trazado 125511" d="M-703.239,827.8a4.916,4.916,0,0,0,.072-.6q.006-10.214,0-20.427c0-.178-.02-.356-.038-.66-.76,0-1.52.042-2.272-.019a1.76,1.76,0,0,1-.991-.414,8.167,8.167,0,0,1-2.186-2.32,8.455,8.455,0,0,1-.115-3.11c0-4.915-.012-9.83.018-14.745a1.842,1.842,0,0,1,.463-1.115c.807-.89,1.667-1.735,2.548-2.553a1.54,1.54,0,0,1,.926-.38c1.475-.039,2.952-.018,4.667-.018-.791-.793-1.435-1.425-2.06-2.075-.169-.176-.4-.407-.4-.612a56.357,56.357,0,0,1,.15-7.049,7.546,7.546,0,0,1,7.992-6.44,7.646,7.646,0,0,1,7.223,6.987c.17,2.112.078,4.246.067,6.37a1.181,1.181,0,0,1-.381.7c-.645.652-1.322,1.272-1.986,1.9l.082.178h4.137v2.346h-6.739c.074,1.124.134,2.161.212,3.2.207,2.755.433,5.51.618,8.267a2.1,2.1,0,0,1-.275.969,3.633,3.633,0,0,1-.517.664c-1.507,1.857-1.507,1.866-3.859,1.76a2.114,2.114,0,0,1-.716-.314c-.042-.02-.064-.078-.1-.117-2.023-2.407-1.992-2.4-1.7-5.539.261-2.8.443-5.612.658-8.418.01-.124,0-.249,0-.469H-701.2a8.821,8.821,0,0,1-1.3-.01,3.289,3.289,0,0,0-3.26,1.317,2.494,2.494,0,0,0-.713,1.736c.034,4.94.018,9.881.018,14.822a2.2,2.2,0,0,0,2.178,2.2h1.1V789.888h2.31v35.6c1.2,0,2.346.044,3.482-.019.54-.03,1.354-1.246,1.355-1.844q0-8.524,0-17.048V805.6h2.311v.88q0,8.562,0,17.125a1.952,1.952,0,0,0,1.921,1.9c.918,0,1.836,0,2.842,0V789.9h2.308V803.69a2.569,2.569,0,0,0,3.132-1.073,1.6,1.6,0,0,0,.2-.853c.014-3.2.009-6.4.009-9.6v-.9h2.271c.012.273.032.522.032.771,0,3.558.016,7.117-.019,10.674a1.889,1.889,0,0,1-.46,1.125,7.647,7.647,0,0,1-2.135,2.061,9.414,9.414,0,0,1-3.028.3v21.6h-6.911l-1.34-1.471-1.271,1.471Zm13.823-52.522c-.044-.994-.047-1.992-.139-2.982a5.354,5.354,0,0,0-4.253-4.644,5.52,5.52,0,0,0-5.73,2.52c-.884,1.472-.641,3.1-.819,4.686a5.6,5.6,0,0,0,2.188,5.372,4.677,4.677,0,0,0,3.065,1.262,4.747,4.747,0,0,0,3.79-1.566C-689.936,778.592-688.95,777.286-689.416,775.28Zm-5.994,8.6c-.277,3.652-.6,7.237-.768,10.829-.025.51.636,1.073,1.037,1.564a.658.658,0,0,0,.627-.063c.454-.547,1.058-.983.961-1.884-.222-2.081-.334-4.174-.5-6.262-.109-1.391-.23-2.78-.347-4.185Z" transform="translate(0 -24.391)" fill="#222b5a"/>
      <path id="Trazado_125512" data-name="Trazado 125512" d="M-637.444,894.327c.025-.3.072-.606.073-.91q.007-8.255,0-16.511v-.939h21.658v.939q0,8.255,0,16.511c0,.3.047.607.073.91Zm19.378-16.047h-16.948v13.705h16.948Z" transform="translate(-42.91 -90.915)" fill="#222b5a"/>
      <path id="Trazado_125513" data-name="Trazado 125513" d="M-639.383,763.319V749.425h2.227v33.633h-2.221V765.624c-.833,0-1.594.036-2.349-.017a1.621,1.621,0,0,1-.927-.373,8.269,8.269,0,0,1-2.2-2.315,8.359,8.359,0,0,1-.127-3.108c0-4.915-.014-9.83.019-14.745a1.975,1.975,0,0,1,.489-1.185,28.415,28.415,0,0,1,2.388-2.386,2.085,2.085,0,0,1,1.189-.483c1.2-.063,2.4-.02,3.608-.024.244,0,.488-.024.944-.047-.793-.777-1.466-1.4-2.087-2.067a1.421,1.421,0,0,1-.389-.847c-.03-1.919-.057-3.841,0-5.759a7.74,7.74,0,0,1,8.077-7.5,7.76,7.76,0,0,1,7.306,7.261c.072,1.994.042,3.993.017,5.989a1.408,1.408,0,0,1-.383.85c-.626.666-1.3,1.283-1.961,1.919l.139.239a2.7,2.7,0,0,0,.754-.362c1-.957,1.983-1.927,2.925-2.937a1.518,1.518,0,0,0,.311-.953c.024-2.867-.005-5.734.035-8.6a1.979,1.979,0,0,1,.477-1.187,7.565,7.565,0,0,1,2.266-2.128,8.432,8.432,0,0,1,3.037-.1c.661,0,1.322,0,2.084,0v.87c0,4.787-.007,9.574.01,14.361a1.618,1.618,0,0,1-.52,1.275c-2.694,2.662-5.357,5.357-8.052,8.02a1.7,1.7,0,0,0-.56,1.335q.026,15.743.012,31.486v.959h-2.266c-.012-.256-.036-.525-.036-.794q0-16.319-.012-32.638a1.625,1.625,0,0,1,.525-1.273q4.067-4.022,8.082-8.1a1.882,1.882,0,0,0,.491-1.184c.036-3.966.022-7.932.022-11.889a2.519,2.519,0,0,0-3.117,1.08,1.507,1.507,0,0,0-.152.794c-.01,2.867-.016,5.734,0,8.6a1.362,1.362,0,0,1-.488,1.207,17.292,17.292,0,0,0-5.186,7.608c-1.284,3.282-2.8,6.473-4.18,9.717-.221.52-.472.768-1.059.721-.838-.067-1.859.225-2.471-.161-.577-.363-.734-1.4-1.061-2.15q-2.3-5.268-4.6-10.541a1.851,1.851,0,0,0-2.55-.532,18.559,18.559,0,0,0-1.511,1.526,1.226,1.226,0,0,0-.26.749q-.022,7.833-.009,15.666a2.348,2.348,0,0,0,1.816,1.845C-640.4,763.326-639.945,763.319-639.383,763.319Zm2.737-28.842.114.012c0,.843-.014,1.687.009,2.53a1.122,1.122,0,0,0,.2.7,16.482,16.482,0,0,0,3.25,3.1c.857.487,2.187.142,3.305.169a.2.2,0,0,0,.076,0,3.039,3.039,0,0,0,.921-.406c.933-.872,1.83-1.783,2.715-2.7a1.181,1.181,0,0,0,.342-.712c.02-1.686.051-3.375-.028-5.058a5.328,5.328,0,0,0-4.839-5,5.271,5.271,0,0,0-5.643,3.743A23.212,23.212,0,0,0-636.646,734.478Zm5.544,20.284c.693-1.545,1.478-2.811,1.185-4.481-.32-1.831-.395-3.7-.579-5.558-.047-.47-.106-.939-.162-1.432l-.957.047c-.213,2.257-.3,4.462-.663,6.619C-632.577,751.719-631.957,753.13-631.1,754.761Zm5-11.4h-2.2l.369,3.83.156.012Zm-10.05-.028,1.691,3.873.157-.015.364-3.858Z" transform="translate(-38.333)" fill="#222b5a"/>
      <path id="Trazado_125514" data-name="Trazado 125514" d="M-610.683,843.971h-2.2V825.982h2.2Z" transform="translate(-57.666 -60.879)" fill="#222b5a"/>
      <path id="Trazado_125515" data-name="Trazado 125515" d="M-647.728,744.452h3.969v2.211h-3.969Z" transform="translate(-36.731 -11.889)" fill="#222b5a"/>
      <path id="Trazado_125516" data-name="Trazado 125516" d="M-645.5,732.459l1.159-1.993,3.507,2.035-1.146,1.99Z" transform="translate(-38.071 -3.485)" fill="#222b5a"/>
      <path id="Trazado_125517" data-name="Trazado 125517" d="M-644.33,757.919l-1.15-1.991,3.513-2.036,1.149,1.99Z" transform="translate(-38.082 -17.561)" fill="#222b5a"/>
      <path id="Trazado_125518" data-name="Trazado 125518" d="M-606.175,741.987c-1.634-.387-2.917-.051-3.728,1.434l1.625,1.553C-607.679,743.943-606.129,743.552-606.175,741.987Zm-3.855-7.445v2.232l1.213.531,1.623-1.457A3.869,3.869,0,0,0-610.03,734.542Zm3.777,5.662v-2.421c-.647.106-1.231.176-1.8.31a.632.632,0,0,0-.417.4c-.05.552-.02,1.11-.02,1.713Z" transform="translate(-59.383 -5.934)" fill="#222b5a"/>
      <path id="Trazado_125519" data-name="Trazado 125519" d="M-542.186,793.2c.076,1.593-1.533,1.954-2.117,3.023l-1.6-1.628A3,3,0,0,1-542.186,793.2Z" transform="translate(-97.918 -41.092)" fill="#222b5a"/>
      <path id="Trazado_125520" data-name="Trazado 125520" d="M-542.3,785.387v-2.069l2.206-.377v2.445Z" transform="translate(-100.08 -35.017)" fill="#222b5a"/>
      <path id="Trazado_125521" data-name="Trazado 125521" d="M-546.23,777.11v-2.188a3.651,3.651,0,0,1,2.818,1.274l-1.642,1.469Z" transform="translate(-97.719 -30.198)" fill="#222b5a"/>
      <path id="Trazado_125522" data-name="Trazado 125522" d="M-669.652,793.2c.125,1.59-1.549,1.908-2.1,3.117l-1.569-1.794A2.94,2.94,0,0,1-669.652,793.2Z" transform="translate(-21.351 -41.082)" fill="#222b5a"/>
      <path id="Trazado_125523" data-name="Trazado 125523" d="M-673.787,774.927a3.72,3.72,0,0,1,2.849,1.259l-1.64,1.474-1.21-.548Z" transform="translate(-21.072 -30.201)" fill="#222b5a"/>
      <path id="Trazado_125524" data-name="Trazado 125524" d="M-667.593,785.387h-2.16v-2.075l2.16-.386Z" transform="translate(-23.496 -35.007)" fill="#222b5a"/>
      <path id="Trazado_125525" data-name="Trazado 125525" d="M-598.273,907.877v-2.623h2.2v2.623Z" transform="translate(-66.448 -108.512)" fill="#222b5a"/>
      <path id="Trazado_125526" data-name="Trazado 125526" d="M-596.073,897.865h-2.192v-2.2h2.192Z" transform="translate(-66.452 -102.748)" fill="#222b5a"/>
      <path id="Trazado_125527" data-name="Trazado 125527" d="M-598.274,888.2V886.01h2.205V888.2Z" transform="translate(-66.447 -96.949)" fill="#222b5a"/>
      <path id="Trazado_125528" data-name="Trazado 125528" d="M-605.983,752.973c.045,1.565-1.5,1.956-2.1,2.987l-1.625-1.553C-608.9,752.922-607.617,752.587-605.983,752.973Z" transform="translate(-59.575 -16.92)" fill="#222b5a"/>
      <path id="Trazado_125529" data-name="Trazado 125529" d="M-610.03,734.542a3.869,3.869,0,0,1,2.835,1.306l-1.623,1.457-1.213-.531Z" transform="translate(-59.383 -5.934)" fill="#222b5a"/>
      <path id="Trazado_125530" data-name="Trazado 125530" d="M-603.947,745.083h-2.237c0-.6-.03-1.161.02-1.713a.632.632,0,0,1,.417-.4c.569-.134,1.152-.2,1.8-.31Z" transform="translate(-61.689 -10.813)" fill="#222b5a"/>
    </g>
  </g>
</svg>
