<svg xmlns="http://www.w3.org/2000/svg" xmlns:xlink="http://www.w3.org/1999/xlink" width="627" height="484" viewBox="0 0 627 484">
  <defs>
    <clipPath id="clip-path">
      <rect id="Rectángulo_294011" data-name="Rectángulo 294011" width="627" height="484" rx="13" transform="translate(835.333 88)" fill="#fff" stroke="#707070" stroke-width="1"/>
    </clipPath>
  </defs>
  <g id="Grupo_878644" data-name="Grupo 878644" transform="translate(12453 13212)">
    <g id="Enmascarar_grupo_83" data-name="Enmascarar grupo 83" transform="translate(-13288.333 -13300)" clip-path="url(#clip-path)">
      <g id="Grupo_878643" data-name="Grupo 878643" transform="translate(4.628 0.172)">
        <g id="Grupo_878642" data-name="Grupo 878642" transform="translate(922.426 117.504)">
          <g id="Grupo_878641" data-name="Grupo 878641" transform="translate(-59.578 -11.863)">
            <g id="Grupo_878636" data-name="Grupo 878636" transform="translate(536.68 385.578)">
              <path id="Trazado_617611" data-name="Trazado 617611" d="M1447.464,497.725a8.474,8.474,0,0,0,.953-.589s-.905-2.718-1.846-5.168a5.482,5.482,0,0,0,1.216-.773s-1.989-7.138-2.58-8.591c-1.431,1.32-4.333,8.2-4.333,8.2a6.053,6.053,0,0,0,.948.712c-1.361,2.163-2.643,4.574-2.643,4.574a7.393,7.393,0,0,0,.944.838c-1.142,1.489-2.049,2.812-2.049,2.812a9.853,9.853,0,0,0,10.59.393S1448.149,499.057,1447.464,497.725Z" transform="translate(-1399.564 -467.459)" fill="#bcb124"/>
              <path id="Trazado_617612" data-name="Trazado 617612" d="M1432.456,493.056a7.578,7.578,0,0,0,.79-.488s-.749-2.25-1.528-4.275a4.645,4.645,0,0,0,1.007-.64s-1.646-5.9-2.134-7.109c-1.186,1.093-3.587,6.788-3.587,6.788a4.932,4.932,0,0,0,.785.589c-1.125,1.789-2.187,3.783-2.187,3.783a6.127,6.127,0,0,0,.782.693c-.944,1.233-1.695,2.327-1.695,2.327a8.151,8.151,0,0,0,8.76.326S1433.023,494.157,1432.456,493.056Z" transform="translate(-1418.491 -470.37)" fill="#bcb124"/>
              <path id="Trazado_617613" data-name="Trazado 617613" d="M1443.314,494.6a6.954,6.954,0,0,0,.787-.488s-.748-2.247-1.526-4.275a4.714,4.714,0,0,0,1.007-.637s-1.646-5.907-2.134-7.109c-1.188,1.091-3.587,6.786-3.587,6.786a4.941,4.941,0,0,0,.784.589c-1.125,1.791-2.187,3.785-2.187,3.785a6.105,6.105,0,0,0,.782.693c-.944,1.233-1.7,2.327-1.7,2.327a8.153,8.153,0,0,0,8.763.323S1443.878,495.7,1443.314,494.6Z" transform="translate(-1403.143 -468.191)" fill="#bcb124"/>
              <path id="Trazado_617614" data-name="Trazado 617614" d="M1431.511,494.715a8.585,8.585,0,0,0,.951-.586s-.9-2.718-1.845-5.168a5.615,5.615,0,0,0,1.217-.772s-1.989-7.138-2.581-8.591c-1.434,1.318-4.335,8.2-4.335,8.2a6.178,6.178,0,0,0,.948.712c-1.359,2.163-2.644,4.572-2.644,4.572a7.293,7.293,0,0,0,.947.838c-1.142,1.492-2.05,2.815-2.05,2.815a9.847,9.847,0,0,0,10.587.391S1432.194,496.048,1431.511,494.715Z" transform="translate(-1422.121 -471.711)" fill="#bcb124"/>
              <path id="Trazado_617615" data-name="Trazado 617615" d="M1442.293,493.984a8.613,8.613,0,0,0,.953-.589s-.9-2.718-1.846-5.168a5.562,5.562,0,0,0,1.217-.77s-1.989-7.141-2.581-8.594c-1.431,1.32-4.333,8.2-4.333,8.2a5.9,5.9,0,0,0,.949.712c-1.361,2.163-2.646,4.575-2.646,4.575a7.533,7.533,0,0,0,.946.838c-1.142,1.492-2.05,2.812-2.05,2.812a9.854,9.854,0,0,0,10.59.393S1442.977,495.316,1442.293,493.984Z" transform="translate(-1406.876 -472.748)" fill="#bcb124"/>
              <path id="Trazado_617616" data-name="Trazado 617616" d="M1439.1,495.279a8.549,8.549,0,0,0,.953-.736s-.906-3.408-1.844-6.477a5.849,5.849,0,0,0,1.217-.968s-1.992-8.948-2.581-10.769c-1.434,1.654-4.335,10.279-4.335,10.279a6.311,6.311,0,0,0,.949.893c-1.362,2.711-2.643,5.733-2.643,5.733a8.276,8.276,0,0,0,.944,1.05c-1.14,1.868-2.049,3.524-2.049,3.524a8.289,8.289,0,0,0,10.59.492S1439.788,496.95,1439.1,495.279Z" transform="translate(-1411.388 -476.33)" fill="#bcb124"/>
              <path id="Trazado_617617" data-name="Trazado 617617" d="M1435.281,492.754a7.479,7.479,0,0,0,.857-.533s-.813-2.465-1.658-4.686a5.176,5.176,0,0,0,1.094-.7s-1.786-6.472-2.317-7.792c-1.287,1.2-3.891,7.438-3.891,7.438a5.284,5.284,0,0,0,.852.647c-1.221,1.962-2.375,4.147-2.375,4.147a6.542,6.542,0,0,0,.85.76c-1.024,1.352-1.84,2.549-1.84,2.549a8.777,8.777,0,0,0,9.506.357S1435.9,493.964,1435.281,492.754Z" transform="translate(-1415.431 -472.494)" fill="#bcb124"/>
            </g>
            <path id="Trazado_617618" data-name="Trazado 617618" d="M1378.4,429.863c-65.251-11.843,33.959-15.787,25.506-10.373C1400.269,421.817,1386.92,431.411,1378.4,429.863Z" transform="translate(-978.867 -174.493)" fill="#bfa68e"/>
            <path id="Trazado_617619" data-name="Trazado 617619" d="M1367.215,434.378c-44.342,4.292-87.09-4.294-64.691-15.089,9.033-4.355,4.567-8.888,25.093-14.658s.736,11.292,20.318,13.735-6.737,9.091,13.286,11.295S1380.834,433.06,1367.215,434.378Z" transform="translate(-1063.236 -193.803)" fill="#bfa68e"/>
            <path id="Trazado_617620" data-name="Trazado 617620" d="M1414.334,424.526c-11.546,1.362-16.888,13.672-42.051,13.306s19.111-22.558-3.408-29.491S1442.955,421.149,1414.334,424.526Z" transform="translate(-967.225 -188.955)" fill="#bfa68e"/>
            <path id="Trazado_617621" data-name="Trazado 617621" d="M1270.055,406.275c5.8-6.706,7.143-15.053,2.993-18.645s-12.217-1.067-18.02,5.639-7.143,15.053-2.993,18.645S1264.255,412.981,1270.055,406.275Z" transform="translate(-1129.341 -218.48)" fill="#bfa68e"/>
            <ellipse id="Elipse_5167" data-name="Elipse 5167" cx="44.891" cy="30.501" rx="44.891" ry="30.501" transform="translate(176.104 124.128) rotate(-30.645)" fill="#a58e72"/>
            <path id="Trazado_617622" data-name="Trazado 617622" d="M1369.688,383.29c3.653,1.458,7.4.664,8.379-1.779s-1.193-5.605-4.843-7.065-7.4-.661-8.379,1.779S1366.039,381.829,1369.688,383.29Z" transform="translate(-966.756 -235.842)" fill="#938067"/>
            <path id="Trazado_617623" data-name="Trazado 617623" d="M1360.273,388.246c6.352,2.539,12.879,1.154,14.578-3.095s-2.076-9.75-8.427-12.289-12.878-1.154-14.578,3.092S1353.92,385.707,1360.273,388.246Z" transform="translate(-985.38 -238.845)" fill="#938067"/>
            <ellipse id="Elipse_5168" data-name="Elipse 5168" cx="29.068" cy="19.75" rx="29.068" ry="19.75" transform="translate(145.829 161.84) rotate(-30.646)" fill="#bfa68e"/>
            <path id="Trazado_617624" data-name="Trazado 617624" d="M1338.235,450.854l-16.577-2.163-20.325,10.093-14.129.432-21.334,14.271s-18.2,25.373-20.76,29c-.157.22-.253.36-.287.408l68.585,24.221,35.784-67.18Z" transform="translate(-1136.129 -129.831)" fill="#56333b"/>
            <path id="Trazado_617625" data-name="Trazado 617625" d="M1286.954,458.618l-7.952.024-4.147,6.682-16.668,3.063-3.172,7.017s2.629,8.765,2.643,8.84l9.461,2.021,8.557,8.792,61.982,6.274-42.6-40.224Z" transform="translate(-1121.719 -115.795)" fill="#3f222a"/>
            <path id="Trazado_617626" data-name="Trazado 617626" d="M1279.989,482.945c-11.6-2.39-28.151-1.152-24.256-5.755s10.976-5.844,10.976-5.844-.8-4.159,5.666-4.248a28.864,28.864,0,0,1,12.4,3.1Z" transform="translate(-1121.524 -103.809)" fill="#ea492f"/>
            <path id="Trazado_617627" data-name="Trazado 617627" d="M1260.6,505.755c-21.453,2.926-49.249,15.123-45.329,4.816s15.381-16.745,15.381-16.745-3.9-6.691,7.188-10.771,23.256-2.187,23.256-2.187Z" transform="translate(-1178.448 -84.957)" fill="#ff7639"/>
            <path id="Trazado_617628" data-name="Trazado 617628" d="M1272.623,497.467c-21.453,2.926-49.247,15.121-45.326,4.816s15.379-16.746,15.379-16.746-3.9-6.691,7.189-10.771,23.256-2.189,23.256-2.189Z" transform="translate(-1161.438 -96.676)" fill="#ea492f"/>
            <path id="Trazado_617629" data-name="Trazado 617629" d="M1232.76,494.922l8.246-12.156,10.207-3.125,16.433-10.577,9.514-.054,6.343,14.38L1246.4,500.323Z" transform="translate(-1153.186 -101.101)" fill="#3f222a"/>
            <path id="Trazado_617630" data-name="Trazado 617630" d="M1370.1,349.4c43.875,15.954,95.553,38.046,83.356,44.182-46.6,23.449-123.406-6.45-123.406-6.45Z" transform="translate(-1015.62 -270.227)" fill="#938067"/>
            <path id="Trazado_617631" data-name="Trazado 617631" d="M1425.45,385.189c-53.015,34.906-121.824,27.217-121.824,14.532s90.721-48.052,90.721-48.052Z" transform="translate(-1052.985 -267.015)" fill="#938067"/>
            <path id="Trazado_617632" data-name="Trazado 617632" d="M1352.708,371.654l-4.478-24.6-12.437,18.068c4.476,7.688,2.187,33.059,5.273,50.357,3.135,17.588-1.5,38.319-2.586,60.737l12.734,9.612c2.687-19.99-3.947-52.563-5.062-61.152C1342.659,397.794,1352.708,371.654,1352.708,371.654Z" transform="translate(-1007.502 -273.544)" fill="#c4b39d"/>
            <path id="Trazado_617633" data-name="Trazado 617633" d="M1349.878,361.313l-4.951-4.468c-2.341,18.457,2.323,37.884,1.658,44.878S1341,423.482,1341,423.482l2.332,23.507c-.441-25.255,3.64-37.689,4.29-43.9S1346.6,373.359,1349.878,361.313Z" transform="translate(-1000.146 -259.696)" fill="#c4b39d"/>
            <path id="Trazado_617634" data-name="Trazado 617634" d="M1327.819,351.662l4.461-6.165c7.565,17.5,7.4,38.408,10.008,45.119s12.14,19.642,12.14,19.642L1358,434.4c-6.189-25.221-14.141-36.134-16.531-42.077S1334.752,362.469,1327.819,351.662Z" transform="translate(-1018.778 -275.741)" fill="#c4b39d"/>
            <path id="Trazado_617635" data-name="Trazado 617635" d="M1268.93,615.714l102.063-74.385,31.714-46.707,47.283-58.239,16.722-40.364,50.743,9.226,25.371,50.166,60.545,70.348,55.933,64.005,53.049,66.889v13.839H1234.91Z" transform="translate(-1150.146 -204.305)" fill="#875863"/>
            <path id="Trazado_617636" data-name="Trazado 617636" d="M1506.2,585.164l-57.145-62.774-60.545-70.348-25.371-50.166-19.1-3.472,11.983,41.529,94.951,128.01,3.075,65.351-54.017,33.829h158l21.222-1.561-41.2-54.142Z" transform="translate(-995.833 -200.935)" fill="#7c4a58"/>
            <path id="Trazado_617637" data-name="Trazado 617637" d="M1437.422,516.215l-11.937-21.234L1406.521,482.5l-16.864-14.563,1.558,14.043,7.873,40.709Z" transform="translate(-931.342 -102.615)" fill="#875863"/>
            <path id="Trazado_617638" data-name="Trazado 617638" d="M1394.1,523.454c16.147-34.6,6.921-48.438-1.154-68.042s1.76-53.2,1.76-53.2l-34.049-6.189s13.262,25.8,2.882,75.537c-10.687,51.2-46.13,46.13-53.625,66.888L1416.59,618.6C1394.679,576.5,1377.957,558.051,1394.1,523.454Zm-18.418-86.175c8.2,16.183-.043,29.467-9.533,43.89C1366.151,481.169,1367.481,421.1,1375.684,437.279Zm-5.2,40.694c13.692-20.83-.138,6.243-2.387,10.235C1368.094,488.208,1369.079,480.107,1370.482,477.973Zm9.446-45.606c3.319-9.294,9.033-15.6,8.9-13.545-.531,7.968.4,24.716-.664,27.49C1388.159,446.312,1379.068,434.773,1379.927,432.367ZM1356.42,538.36c7.826-12.434,16.975-15.164,23.029-31.495,1.5-4.038-9.1,33.7-11.85,38.884,0,0-.47-8.031-3.816-9.665C1361.164,534.8,1355.293,540.151,1356.42,538.36Zm41.43-61.9c10.667,21.045-.058,38.324-12.4,57.085C1385.453,533.544,1387.184,455.413,1397.851,476.46Z" transform="translate(-1044.092 -204.305)" fill="#ff8948"/>
            <path id="Trazado_617639" data-name="Trazado 617639" d="M1313.021,545.987,1429.5,502.74l64.357-9.368,104.643-9.3,40.892,19.817v42.094Z" transform="translate(-1039.702 -79.799)" fill="#bcb124"/>
            <path id="Trazado_617640" data-name="Trazado 617640" d="M1514.416,484.076l-104.642,9.3-37.286,5.427,83.233,36.27L1543.9,512l7.58-9.961Z" transform="translate(-955.62 -79.799)" fill="#d3cb31"/>
            <path id="Trazado_617641" data-name="Trazado 617641" d="M1464.128,485.542l-44.893,18.344-18.857,17-13.545,19.122,9.03-.8,8.764-17.529,18.06-16.732,45.681-19.919Z" transform="translate(-935.335 -78.451)" fill="#bcb124"/>
            <path id="Trazado_617642" data-name="Trazado 617642" d="M1544.514,508.382l-220.021-24.218-97.121,19.029-12.59,20.182L1199.8,545.862h468.218Z" transform="translate(-1199.796 -79.675)" fill="#3f222a"/>
            <path id="Trazado_617643" data-name="Trazado 617643" d="M1243.042,498.5l8.428-8.57-25.03,3.092-11.657,22.2L1199.8,537.71H1254.5l-11.748-14.7Z" transform="translate(-1199.796 -71.522)" fill="#99921d"/>
            <path id="Trazado_617644" data-name="Trazado 617644" d="M1239.338,539.047h-26.616s3.867-2.6,4.983-6.494c1.13-3.944-5.748-36.861,23.835-43.569l-6.868,15.138s-9.588,4.512-2.5,14.6A38.087,38.087,0,0,1,1239.338,539.047Z" transform="translate(-1181.518 -72.86)" fill="#87601a"/>
            <path id="Trazado_617645" data-name="Trazado 617645" d="M1241.45,540.537h-26.693s3.985-3.054,4.914-7.568-8.234-42.273,20.053-45.039l-5.181,14.761s-8.9,3.85-1.327,15.4A50.892,50.892,0,0,1,1241.45,540.537Z" transform="translate(-1178.641 -74.35)" fill="#ff7639"/>
            <path id="Trazado_617646" data-name="Trazado 617646" d="M1216.749,507.921a2.823,2.823,0,0,0,.437.256c3.923,1.649,10.58-5.291,14.87-15.5a50.418,50.418,0,0,0,1.9-5.337C1222.436,489.7,1218.142,498.622,1216.749,507.921Z" transform="translate(-1175.824 -75.188)" fill="#ff994d"/>
            <path id="Trazado_617647" data-name="Trazado 617647" d="M1350.483,448.572l106.962,51.416-.433,2.787h-83.368l-73.774-47.792-.955-6.411Z" transform="translate(-1059.646 -130)" fill="#f4bd98"/>
            <path id="Trazado_617648" data-name="Trazado 617648" d="M1347.416,448.691,1460,502.605l-89.737,1.586L1296.8,455.1Z" transform="translate(-1062.633 -129.831)" fill="#c18156"/>
            <path id="Trazado_617649" data-name="Trazado 617649" d="M1263.654,535.266l4.613-56.894,121.475-28.447,91.876,44.592.447,67.843Z" transform="translate(-1109.503 -128.086)" fill="#843636"/>
            <path id="Trazado_617650" data-name="Trazado 617650" d="M1334.707,509.469l143.329-9.729-.034-5.222-91.875-44.592-117.259,29.5-2.656,55.242,70.9,10.162Z" transform="translate(-1105.887 -128.086)" fill="#772f2f"/>
            <path id="Trazado_617651" data-name="Trazado 617651" d="M1334.655,455.695l-63.387,20.174-6.5,18.18,28.821,14.526L1330,534.468Z" transform="translate(-1107.934 -119.929)" fill="#bf5b4b"/>
            <path id="Trazado_617652" data-name="Trazado 617652" d="M1303.694,491.894c11.478,6.025,20.943,13.6,27.458,21.375l5.924-58.009-71.02,15.57-.838,10.339C1276.421,481.205,1290.154,484.787,1303.694,491.894Z" transform="translate(-1107.292 -120.543)" fill="#773131"/>
            <path id="Trazado_617653" data-name="Trazado 617653" d="M1358.294,449.925l-101.726,31.666,1.609,2.859,84.932,1.225,67.081-31.522v-4.229Z" transform="translate(-1119.524 -128.086)" fill="#c18156"/>
            <path id="Trazado_617654" data-name="Trazado 617654" d="M1355.987,448.492l-99.419,35.126,84.234.625,72.49-34.15-2.862-1.6Z" transform="translate(-1119.524 -130.113)" fill="#ffd6b8"/>
            <path id="Trazado_617655" data-name="Trazado 617655" d="M1303.69,448.492l-2.84,25.075,47.624-22.436.242-2.136-.9-.5Z" transform="translate(-1056.91 -130.113)" fill="#ffe4d2"/>
            <path id="Trazado_617656" data-name="Trazado 617656" d="M1397.2,525.064a24.392,24.392,0,0,0,2.747-1.7s-2.607-7.836-5.318-14.9a16.243,16.243,0,0,0,3.508-2.226s-5.738-20.576-7.44-24.767c-4.131,3.8-12.495,23.645-12.495,23.645a17.29,17.29,0,0,0,2.735,2.052c-3.922,6.238-7.618,13.185-7.618,13.185a21.26,21.26,0,0,0,2.723,2.414c-3.288,4.3-5.906,8.106-5.906,8.106a28.393,28.393,0,0,0,30.521,1.134S1399.172,528.9,1397.2,525.064Z" transform="translate(-958.949 -83.473)" fill="#99921d"/>
            <path id="Trazado_617657" data-name="Trazado 617657" d="M1387.578,491.8c-1.325-4.475-2.622-8.668-3.292-10.32-2.579,2.375-6.8,11-9.62,17.141a3.828,3.828,0,0,0,.934.7C1378.859,500.992,1383.967,497.678,1387.578,491.8Z" transform="translate(-952.539 -83.473)" fill="#b2a822"/>
            <path id="Trazado_617658" data-name="Trazado 617658" d="M1390.034,519.568a24.592,24.592,0,0,0,2.747-1.695s-2.607-7.836-5.318-14.9a16.305,16.305,0,0,0,3.505-2.226s-5.736-20.576-7.437-24.767c-4.13,3.8-12.495,23.644-12.495,23.644a17.438,17.438,0,0,0,2.735,2.052c-3.923,6.238-7.621,13.185-7.621,13.185a21.362,21.362,0,0,0,2.725,2.414c-3.29,4.3-5.909,8.106-5.909,8.106a28.4,28.4,0,0,0,30.524,1.134S1392.005,523.411,1390.034,519.568Z" transform="translate(-969.083 -91.241)" fill="#99921d"/>
            <path id="Trazado_617659" data-name="Trazado 617659" d="M1384.039,492.978c-1.808-6.3-4.229-14.513-5.236-16.994-4.13,3.8-12.495,23.644-12.495,23.644a17.438,17.438,0,0,0,2.735,2.052c-.379.6-.756,1.214-1.13,1.825a5.609,5.609,0,0,0,1.28.664C1373.85,505.789,1379.913,500.973,1384.039,492.978Z" transform="translate(-964.356 -91.241)" fill="#b2a822"/>
            <path id="Trazado_617660" data-name="Trazado 617660" d="M1234.287,499.684l-10.764,17.684,13.456,18.066,5.767,1.538,7.3,11.534,33.443,7.3,59.586-2.308s59.969-2.692,61.121-2.692,42.671,10,42.671,10l34.213-2.308,43.055,6.151H1647.92l2.691-5.381-8.075-5.383h-16.144l-8.459-4.613-1.921-10.764-29.984-13.839-16.147-5.765-31.318-22.3-4.816,18.45-21.144,5.383L1374.6,505.067l-23.833-16.147-34.2-18.044-30,4.975-18.836,9.994-23.065,6.537Z" transform="translate(-1166.246 -98.463)" fill="#3f222a"/>
            <path id="Trazado_617661" data-name="Trazado 617661" d="M1609.822,544.447l-7.5-8-2.465-3.655-5.752.628-23.93-9.371-11.051,15.138-39.56,1.666-50.64-15.582-56.264-1.847-6.534,5.96-14.416-12.111-21.911-4.613-10.4,5.781-12.661-16.159-25.948-23.065-1.612-4.606-5.089-1.767-29.819,3.681-18.836,10-23.065,6.535-10.38,7.3-8.157,13.4,18.153,10.431,1.921,10.764,11.317,8.487,31.738,3.814,49.589-1.538s63.813-3.459,64.967-3.459,43.822,11.531,43.822,11.531l29.216-3.075,48.822,11.147,76.114-3.459Z" transform="translate(-1165.808 -95.679)" fill="#56333b"/>
            <path id="Trazado_617662" data-name="Trazado 617662" d="M1367.863,440.947c-38.63,47.072-99.089,57.7-113.274,19.106s14.595-100.446,142.036-114.3c0,0,7.36-28.009,41.443-29.083s61.922,10.894,69.594,22.133c0,0,72.688-10.257,88.746,24.366s-17.122,48.289-17.122,48.289.343,29.394-29.761,33.687c-30.227,4.311-69.765-20.8-85.692-27.145s-27.14,23.287-49.162,35.149C1380.539,471.531,1367.863,440.947,1367.863,440.947Z" transform="translate(-1126.978 -316.6)" fill="#d6c3ae"/>
            <path id="Trazado_617663" data-name="Trazado 617663" d="M1287.446,466.238l-11.821-.288-2.018,17.587,12.542,3.6Z" transform="translate(-1095.43 -105.429)" fill="#773131"/>
            <path id="Trazado_617664" data-name="Trazado 617664" d="M1286.072,466.809l-10.175-.248-1.738,15.138,10.8,3.1Z" transform="translate(-1094.649 -104.565)" fill="#3f222a"/>
            <path id="Trazado_617665" data-name="Trazado 617665" d="M1299.961,466.237l-15.045-.367-2.569,22.385,15.963,4.587Z" transform="translate(-1083.073 -105.542)" fill="#773131"/>
            <path id="Trazado_617666" data-name="Trazado 617666" d="M1298.343,466.825l-12.878-.331-2.379,20.182,13.63,4.136Z" transform="translate(-1082.028 -104.659)" fill="#3f222a"/>
            <path id="Trazado_617667" data-name="Trazado 617667" d="M1296.519,467.2l-10.354.234-2.428,17.457,11.436,2.728Z" transform="translate(-1081.107 -103.661)" fill="#c18156"/>
            <path id="Trazado_617668" data-name="Trazado 617668" d="M1350.957,471.311l-18.529-2.913-2.545,26.949,19.1,2.758Z" transform="translate(-1015.86 -101.967)" fill="#773131"/>
            <path id="Trazado_617669" data-name="Trazado 617669" d="M1347.655,471.7l-15.357-2.414-2.109,22.335,15.828,2.286Z" transform="translate(-1015.426 -100.711)" fill="#3f222a"/>
            <path id="Trazado_617670" data-name="Trazado 617670" d="M1345.66,472.1l-13.266-2.085-1.822,19.294,13.674,1.975Z" transform="translate(-1014.885 -99.677)" fill="#9e6239"/>
            <path id="Trazado_617671" data-name="Trazado 617671" d="M1343.278,468.363,1319,466.216l-6.784,53.613,27.952,2.105Z" transform="translate(-1040.841 -105.052)" fill="#3f222a"/>
            <path id="Trazado_617672" data-name="Trazado 617672" d="M1335.663,461.4q.829.54,1.653,1.113c1.127-16.079,3.57-35.248,8.644-25.238,5.7,11.251,3.449,21.1-1.639,30.91.712.659,1.417,1.354,2.124,2.057.227-.143.309-.036.273.268a103.725,103.725,0,0,1,12.637,15.71c1.869-11.232,4.654-17.89,8.772-9.764,5.407,10.667,5.313,20.366,2.3,29.783.094.205.186.418.28.623,6.564-23.089-.842-35.326-7.485-51.453-8.072-19.606,1.76-53.2,1.76-53.2l-34.048-6.189S1342.381,418.325,1335.663,461.4Zm14.541-29.037c3.32-9.294,9.033-15.6,8.9-13.545-.531,7.968.4,24.716-.664,27.49C1358.436,446.312,1349.346,434.773,1350.2,432.367Z" transform="translate(-1014.37 -204.305)" fill="#ffaf3b"/>
            <path id="Trazado_617673" data-name="Trazado 617673" d="M1319.343,492.922l40.612,22.267,21.527-8.073,23.45,9.226,21.527,18.837,15.376,11.148,47.667-.769,18.474-4.376L1494.5,525.76l-60.545-70.348-25.371-50.166-50.743-9.226-16.722,40.364-29.21,35.978Z" transform="translate(-1041.275 -204.305)" fill="#68494f" opacity="0.4" style="mix-blend-mode: multiply;isolation: isolate"/>
            <path id="Trazado_617674" data-name="Trazado 617674" d="M1594.558,335.65c-3.068,8.9-11.177,19.961-32.192,24.3-37.679,7.773-90.289-12.642-111.073-17.115s-31.724,26.29-58.231,40.627c-41.081,22.22-57.623,3.614-57.623,3.614-22.653,26.606-54.529,41.336-83.039,44.223.2.611.41,1.219.63,1.82,14.184,38.6,75.926,38.519,114.556-8.553,0,0,11.394,20.031,45.524,1.646,22.022-11.862,33.236-41.5,49.162-35.149s55.465,31.456,85.692,27.145c30.1-4.292,29.761-33.686,29.761-33.686s33.18-13.665,17.122-48.288C1594.755,336.034,1594.654,335.845,1594.558,335.65Z" transform="translate(-1125.417 -289.664)" fill="#bfa68e"/>
            <path id="Trazado_617675" data-name="Trazado 617675" d="M1275.637,519.821h46.13l.577-8.015-13.358-9.224-19.51,3.019-10.091,7.5Z" transform="translate(-1092.56 -53.633)" fill="#56333b"/>
            <path id="Trazado_617676" data-name="Trazado 617676" d="M1304.916,505.362l-2.883,6.055,1.153,6.92h42.67l-.289-6.055-10.956-1.73-22.488-6.919Z" transform="translate(-1055.238 -52.148)" fill="#56333b"/>
            <path id="Trazado_617677" data-name="Trazado 617677" d="M1280.147,505.75l.62,4.378-7.033,7-15.065-.35-7.125-5.817,14.9-6.478Z" transform="translate(-1126.627 -50.942)" fill="#56333b"/>
            <path id="Trazado_617678" data-name="Trazado 617678" d="M1276.712,519.714l8.841-5.19-3.267-8.265.577-7.3,5.766-10.571-3.844,11.148,1.73,10.379,5.19,2.307,6.343,4.613v2.883Z" transform="translate(-1091.04 -73.708)" fill="#3f222a"/>
            <path id="Trazado_617679" data-name="Trazado 617679" d="M1307.685,516.834l-21.912-12.3-7.5.961-14.031.961-11.725-6.151-10.763-9.611,9.995,11.533,8.265,5,4.805,2.691h9.034l8.072,1.922,3.268,4.229,1.73,2.307Z" transform="translate(-1140.464 -70.443)" fill="#3f222a"/>
            <path id="Trazado_617680" data-name="Trazado 617680" d="M1292.477,529.645c2.407-4.613-39.736-3.43-44.752-14.563-5.666-12.569,15.958-29.257,15.958-29.257l-2.612-2.981,6.966-10.208s-19.263,17.219-23.191,25.759C1225.9,539.593,1287.7,538.808,1292.477,529.645Z" transform="translate(-1141.183 -95.976)" fill="#3f222a"/>
            <path id="Trazado_617681" data-name="Trazado 617681" d="M1426.083,515.688l-33.156-15.281-8.073,1.153-24.218,2.018-9.514,5.766,12.4-3.46,12.4.577,11.821.577v6.343l-6.343,4.9Z" transform="translate(-985.83 -56.708)" fill="#3f222a"/>
            <path id="Trazado_617682" data-name="Trazado 617682" d="M1284.391,478.929l-24.062,3.448-6.787-8.637,19.6-10.091,38.634-9.37,17.587-5.766,15.848,1.326,11.542,3.719,6.343,4.9-22.873,11.917-16.049,3.075-32-1.441Z" transform="translate(-1123.802 -130.084)" fill="#56333b"/>
            <path id="Trazado_617683" data-name="Trazado 617683" d="M1282.361,477.223l-26.093,2.595,4.262-3.287,20.484-3.344,4.366-7.917,28.694,1,22.488-2.691,10.187-5.19,6.15-7.784,6.343,4.9-7.5,8.265-14.031,6.92-17.875,2.114-29.6-2.5Z" transform="translate(-1119.945 -127.129)" fill="#3f222a"/>
            <path id="Trazado_617684" data-name="Trazado 617684" d="M1312.323,502.554c7.208,12.973,53.293,23.306,65.4,21s-8.362-16.144-20.183-20.47c0,0-1.907-23.384-41.693-25.979Z" transform="translate(-1040.689 -89.657)" fill="#ea492f"/>
            <path id="Trazado_617685" data-name="Trazado 617685" d="M1249.726,538.9h41.518s-40.076-8.359-47.861-14.126-10.667-24.219-10.667-24.219l-4.613-2.595.116-8.881s-8.765,10.035-6.747,17.53S1239.059,519.012,1249.726,538.9Z" transform="translate(-1169.575 -72.718)" fill="#ff7639"/>
            <path id="Trazado_617686" data-name="Trazado 617686" d="M1287.446,528.837c2.407-4.613-37.3-2.457-42.316-13.591-5.665-12.569,15.959-29.257,15.959-29.257l-2.612-2.981,6.964-10.209s-16.338,11.609-20.265,20.149C1226.229,534.148,1282.667,538,1287.446,528.837Z" transform="translate(-1141.11 -95.743)" fill="#ea492f"/>
            <path id="Trazado_617687" data-name="Trazado 617687" d="M1281.9,523.953c-10.68-1.786-33.083-2.793-36.769-10.971a10.661,10.661,0,0,1-.787-2.636,6.375,6.375,0,0,1-1.245-2.032c-3.592-9.871,9.731-22.269,15.7-27.2l-.323-.369,2.085-3.058-1.364-1.731,1.188-1.552c-5.144,4.133-12.7,10.831-15.211,16.282-4.436,9.646-4.741,17.245-2.542,23.109C1250.757,526.685,1273.866,528.177,1281.9,523.953Z" transform="translate(-1141.11 -93.478)" fill="#ff994d"/>
            <path id="Trazado_617688" data-name="Trazado 617688" d="M1283.163,472.092c-24.724.6-32.914,18.64-14.464,28.443s49.036,23.707,36.928,30.051S1293,520.921,1268.834,509.5c-19.9-9.4-28.548-14.966-11.015-31.458C1270.418,466.194,1283.163,472.092,1283.163,472.092Z" transform="translate(-1131.137 -98.82)" fill="#3f222a"/>
            <path id="Trazado_617689" data-name="Trazado 617689" d="M1282.358,471.806c-24.724.6-34.269,19.007-15.817,28.81s48.439,22.778,36.328,29.119-6.918-6.631-25.66-18.162-40.021-17.24-22.488-33.732C1267.319,465.99,1282.358,471.806,1282.358,471.806Z" transform="translate(-1131.37 -99.166)" fill="#ea492f"/>
            <path id="Trazado_617690" data-name="Trazado 617690" d="M1302.043,521.645c.294-.188.557-.377.8-.567-6.854-6.4-23.981-14.223-36.117-20.67a23.987,23.987,0,0,1-6.576-4.932c-11.08-7.285-6.112-19.978,10.341-25.042-4.627.369-11.432,1.711-16.813,6.773-9.719,9.142-6.274,15.394.814,20.736,5.776,2.993,13.716,5.62,21.3,9.173C1294.894,516.061,1290.276,529.128,1302.043,521.645Z" transform="translate(-1132.084 -99.09)" fill="#ff994d"/>
            <path id="Trazado_617691" data-name="Trazado 617691" d="M1344.888,489.882c-15.816-3.662-28.508-2.146-28.351,3.385a5.629,5.629,0,0,0,1.195,3.022c16.543,8.328,44.919,13.76,54.038,12.022a8.8,8.8,0,0,0,1.823-.534,3.225,3.225,0,0,0,.214-1.253C1373.651,500.993,1360.7,493.541,1344.888,489.882Z" transform="translate(-1034.733 -74.414)" fill="#ff7639"/>
            <path id="Trazado_617692" data-name="Trazado 617692" d="M1314.4,519.443l6.717-49.533,22.631,2.163-1.063,27.745,2.015.263,1.306-32.468-25.818-2.35-9.107,53.514Z" transform="translate(-1042.442 -106.401)" fill="#773131"/>
            <path id="Trazado_617693" data-name="Trazado 617693" d="M1313.9,491.3l3.171-24.22,22.84,1.992-.73,18.923-.4-18.193-21.181-1.793Z" transform="translate(-1038.466 -103.834)" fill="#bf3737"/>
            <path id="Trazado_617694" data-name="Trazado 617694" d="M1349.813,496.848c-6.771,1.337-10.711,3.063-14.31,2.947s7.271,7.544,13.5,7.425S1356.973,495.433,1349.813,496.848Z" transform="translate(-1008.921 -61.909)" fill="#ea492f"/>
            <path id="Trazado_617695" data-name="Trazado 617695" d="M1349.813,496.844c-6.771,1.337-10.71,3.063-14.31,2.947-.785-.027-.881.319-.485.874,3.066,1.984,7.646,4.092,10.933,4.029,3.983-.075,6.127-4.874,5.284-7.954A5.5,5.5,0,0,0,1349.813,496.844Z" transform="translate(-1008.92 -61.906)" fill="#ff7639"/>
            <path id="Trazado_617696" data-name="Trazado 617696" d="M1310.687,502.223c-11.865,3.561-12.927,18.59-12.927,18.59h-31.692c-8.6-4.707,7.058-11.908,22.309-6.4,7.037,2.542,7.831-5.494,11.42-8.367C1307.116,500.185,1310.687,502.223,1310.687,502.223Z" transform="translate(-1109.549 -54.625)" fill="#ea492f"/>
            <path id="Trazado_617697" data-name="Trazado 617697" d="M1237.507,513.313h13.9s-15.758-6.551-17.262-6.107S1237.507,513.313,1237.507,513.313Z" transform="translate(-1151.637 -47.126)" fill="#3f222a"/>
            <path id="Trazado_617698" data-name="Trazado 617698" d="M1228.977,500.814c-3.5-4.205-3.314-11.77-5.1-11.374s-3.295,8.55-2.3,13.013,4.186,7.556,5.967,7.157S1231.9,504.326,1228.977,500.814Z" transform="translate(-1169.439 -72.236)" fill="#ff994d"/>
            <path id="Trazado_617699" data-name="Trazado 617699" d="M1225.424,519.872c5.822,9.219-10.711,1.5-8.676-17.354s5.224-2.921,5.313,3.454S1223.3,516.507,1225.424,519.872Z" transform="translate(-1176.072 -66.327)" fill="#ff994d"/>
            <path id="Trazado_617700" data-name="Trazado 617700" d="M1265.643,469.706c-3.459,6.467-1.784,16.342,6.3,20.1s14.117.191,9.7-2.33-10.913-3.923-14-6.983C1262.964,475.859,1265.643,469.706,1265.643,469.706Z" transform="translate(-1109.098 -100.118)" fill="#ff7639"/>
            <path id="Trazado_617701" data-name="Trazado 617701" d="M1264.2,467.509c6.107.973,12.038-1.417,14.961-2.3s19.565-3.01,27.71-1.152,11.331-1.414,6.283-3.541-14.783,1.593-18.944.71-11.6-4.516-15.669-3.01-5.489,6.728-7.437,7.524A56.142,56.142,0,0,1,1264.2,467.509Z" transform="translate(-1108.739 -116.879)" fill="#ea492f"/>
            <path id="Trazado_617702" data-name="Trazado 617702" d="M1319.114,488.714l11.42.266S1326.153,483.005,1319.114,488.714Z" transform="translate(-1031.087 -76.734)" fill="#ff7639"/>
            <path id="Trazado_617703" data-name="Trazado 617703" d="M1312.719,397.124c4.63-4.442,5.936-10.595,2.918-13.74s-9.219-2.1-13.849,2.346-5.938,10.595-2.921,13.74S1308.089,401.568,1312.719,397.124Z" transform="translate(-1062.011 -224.735)" fill="#bfa68e"/>
            <path id="Trazado_617704" data-name="Trazado 617704" d="M1403.15,398.346c18.7,8.8,38.7,5.634,44.68-7.07s-4.331-30.136-23.027-38.935-80.232-22.855-86.209-10.153S1384.453,389.547,1403.15,398.346Z" transform="translate(-1004.218 -287.604)" fill="#d6c3ae"/>
            <ellipse id="Elipse_5169" data-name="Elipse 5169" cx="37.415" cy="25.423" rx="37.415" ry="25.423" transform="matrix(0.722, -0.692, 0.692, 0.722, 263.174, 74.047)" fill="#d6c3ae"/>
            <path id="Trazado_617705" data-name="Trazado 617705" d="M1326.633,384.91c7.539-7.235,9.668-17.252,4.753-22.377s-15.015-3.411-22.553,3.821-9.668,17.252-4.753,22.377S1319.092,392.142,1326.633,384.91Z" transform="translate(-1056.085 -255.829)" fill="#d6c3ae"/>
            <path id="Trazado_617706" data-name="Trazado 617706" d="M1294.4,395.251c7.541-7.235,9.668-17.252,4.753-22.375s-15.015-3.413-22.553,3.819-9.67,17.253-4.753,22.377S1286.856,402.486,1294.4,395.251Z" transform="translate(-1101.667 -241.206)" fill="#d6c3ae"/>
            <path id="Trazado_617707" data-name="Trazado 617707" d="M1298.38,394.132c2.585-2.479,3.314-5.912,1.629-7.669s-5.149-1.171-7.734,1.308-3.314,5.914-1.629,7.669S1295.794,396.611,1298.38,394.132Z" transform="translate(-1072.622 -219.251)" fill="#bfa68e"/>
            <g id="Grupo_878637" data-name="Grupo 878637" transform="translate(176.614 328.717)">
              <path id="Trazado_617708" data-name="Trazado 617708" d="M1310.939,455.3l3.187-.531-2.656-.531-5.444-.4-9.96-1.062-5.577.8-5.312,1.2-12.217,5.312,3.719-1.461,6.772-2.789,11.819-1.593,13.678,1.593,4.179,5.311-.625-1.981Z" transform="translate(-1272.959 -452.775)" fill="#ff7639"/>
              <path id="Trazado_617709" data-name="Trazado 617709" d="M1291.794,459.029l-2.195-2.789.171.542Z" transform="translate(-1249.432 -447.875)" fill="#ea492f"/>
            </g>
            <path id="Trazado_617710" data-name="Trazado 617710" d="M1245.71,489.263a9.257,9.257,0,0,0,.485-1c.676-1.511,1.895-4.432,2.916-6.911.963-2.334,1.752-4.275,1.752-4.275l5.274-1.094,8.6-2.889,2.841-4.364-2-4.99,3.833,5.554-2.542,3.894-3,2.209-4.155,2.467-4.338.56-2.37,1.014-.954-1.733-6.682,14.793Z" transform="translate(-1135.346 -108.549)" fill="#ff7639"/>
            <path id="Trazado_617711" data-name="Trazado 617711" d="M1344.888,489.882c-15.816-3.662-28.508-2.146-28.351,3.385a5.629,5.629,0,0,0,1.195,3.022c16.543,8.328,44.919,13.76,54.038,12.022a8.8,8.8,0,0,0,1.823-.534,3.225,3.225,0,0,0,.214-1.253C1373.651,500.993,1360.7,493.541,1344.888,489.882Z" transform="translate(-1034.733 -74.414)" fill="#ff7639"/>
            <path id="Trazado_617712" data-name="Trazado 617712" d="M1331.3,494.091l-6.906-4.781-1.948-5.489-.708-4.072,7.082,4.6,3.364,3.541-1.594,1.594Z" transform="translate(-1027.378 -85.918)" fill="#56333b"/>
            <path id="Trazado_617713" data-name="Trazado 617713" d="M1344.07,496.432l7.249-2.8,5.352,1.357,5.639,3.2-7.2,3.03-6.534-.9Z" transform="translate(-995.8 -66.291)" fill="#56333b"/>
            <path id="Trazado_617714" data-name="Trazado 617714" d="M1317.185,492.94l-2.972-5.811,1.254-1.973.934-.794,2.365,2.62,1.292,2.3-1.562.171Z" transform="translate(-1038.016 -79.394)" fill="#56333b"/>
            <path id="Trazado_617715" data-name="Trazado 617715" d="M1327.459,481.44l-4.042,2.133-4.306-2.31-4.118-3.468,8.387-1.028,2.616.631,4.124,2.936Z" transform="translate(-1036.913 -90.133)" fill="#7c4040"/>
            <g id="Grupo_878638" data-name="Grupo 878638" transform="translate(377.449 427.927)">
              <path id="Trazado_617716" data-name="Trazado 617716" d="M1356.158,501.409l4.66-1.72-2.358.3Z" transform="translate(-1356.158 -485.65)" fill="#ea492f"/>
              <path id="Trazado_617717" data-name="Trazado 617717" d="M1380.519,493.873l-3.718,5.489-8.5,4.781-10.213,3.769,10.037-1.29,6.068-2.908,2.43-1.164,5.135-7.968Z" transform="translate(-1353.428 -493.873)" fill="#ea492f"/>
            </g>
            <g id="Grupo_878639" data-name="Grupo 878639" transform="translate(76.58 441.884)">
              <path id="Trazado_617718" data-name="Trazado 617718" d="M1231.52,499.655l7.115,2.426-3.059-1.894Z" transform="translate(-1231.52 -499.655)" fill="#ea492f"/>
              <path id="Trazado_617719" data-name="Trazado 617719" d="M1274.213,505.568l-9.6,2.9-14.546-2.492-15.6-5.316,13.022,8.06,9.9,2.374,3.966.951,13.634-4.462Z" transform="translate(-1227.352 -498.234)" fill="#ea492f"/>
            </g>
            <g id="Grupo_878640" data-name="Grupo 878640" transform="translate(272.169 451.207)">
              <path id="Trazado_617720" data-name="Trazado 617720" d="M1312.544,506.15l5.093-.006-2.377-.542Z" transform="translate(-1312.544 -500.571)" fill="#ea492f"/>
              <path id="Trazado_617721" data-name="Trazado 617721" d="M1341.208,503.517l-5.521,3.967-9.871,1.593-11.163.013,10.115,2.31,6.87-.651,2.751-.261,7.76-5.85Z" transform="translate(-1309.561 -503.517)" fill="#ea492f"/>
            </g>
            <path id="Trazado_617722" data-name="Trazado 617722" d="M1393.96,502.608l-.3.2-7.284,4.856-7.665.211-1.315,1.054,10.371.316,4.477-2.424,2.175-3.162Z" transform="translate(-948.685 -53.596)" fill="#ea492f"/>
            <path id="Trazado_617723" data-name="Trazado 617723" d="M1311.729,493.631l-.3.2-7.285,4.857-7.664.211-1.315,1.054,10.37.316,4.477-2.424,2.175-3.162Z" transform="translate(-1064.954 -66.288)" fill="#ea492f"/>
            <path id="Trazado_617724" data-name="Trazado 617724" d="M1364.829,516.571h56.836s-3.983-10.752-13.013-9.424c0,0-19.256-6.375-28.552,2.257C1374.217,514.869,1364.829,516.571,1364.829,516.571Z" transform="translate(-966.448 -50.384)" fill="#ea492f"/>
            <path id="Trazado_617725" data-name="Trazado 617725" d="M1247.807,487.787l-2.922-2.39-10.756,5.71-3.718,2.391-3.054-.4-2.258-4.648,1.062,6.374,4.382.265,11.686-6.374,12.483.4Z" transform="translate(-1164.017 -77.932)" fill="#ea492f"/>
            <path id="Trazado_617726" data-name="Trazado 617726" d="M1264.028,509.709a55.156,55.156,0,0,0,8.1.56c6.841,0,12.574-1.072,14.211-2.52C1276.609,504.739,1267.04,506.711,1264.028,509.709Z" transform="translate(-1108.975 -48.447)" fill="#ff994d"/>
            <path id="Trazado_617727" data-name="Trazado 617727" d="M1357.673,406.871c-26.763,12.355-63.953,27.205-48.38,14.44s-21.414,1.523-1.113-9.888,85.152-12.253,78.236-5.06S1367.925,402.137,1357.673,406.871Z" transform="translate(-1055.389 -196.216)" fill="#d6c3ae"/>
            <path id="Trazado_617728" data-name="Trazado 617728" d="M1393.509,406.385c93.311,31.022-60.462-.118-48.016-2.993C1350.847,402.153,1381.321,402.332,1393.509,406.385Z" transform="translate(-994.809 -194.837)" fill="#d6c3ae"/>
            <path id="Trazado_617729" data-name="Trazado 617729" d="M1398.9,410.356c61.527,24.748-43.182,3.618-33.812.022C1369.122,408.828,1390.866,407.121,1398.9,410.356Z" transform="translate(-966.925 -186.635)" fill="#d6c3ae"/>
            <path id="Trazado_617730" data-name="Trazado 617730" d="M1310.283,413.831c-6.269,3.206-19.679,2.322-14.894-3.046s10.085.041,12.311-1.463c12.924-8.739,21.7-4.152,18.749,1.767-.572,1.147-3.71,2.5-8.873.374C1315.306,410.526,1312.622,412.636,1310.283,413.831Z" transform="translate(-1066.062 -192.366)" fill="#d6c3ae"/>
            <path id="Trazado_617731" data-name="Trazado 617731" d="M1294.737,467.935l-8.544.22-1.96,14.332,9.359,2.25Z" transform="translate(-1080.406 -102.622)" fill="#3f222a"/>
            <path id="Trazado_617732" data-name="Trazado 617732" d="M1289.073,467.513l-1.434.072-2.009,17.931,1.5-.123Z" transform="translate(-1078.432 -103.219)" fill="#c18156"/>
            <path id="Trazado_617733" data-name="Trazado 617733" d="M1294.4,472.5l0-1.5-9.74-1.079-.034,1.515Z" transform="translate(-1079.851 -99.816)" fill="#c18156"/>
            <path id="Trazado_617734" data-name="Trazado 617734" d="M1284.551,467.072l-7.963.18-1.867,13.426,8.8,2.1Z" transform="translate(-1093.856 -103.842)" fill="#c18156"/>
            <path id="Trazado_617735" data-name="Trazado 617735" d="M1283.18,467.637l-6.571.169-1.508,11.023,7.2,1.73Z" transform="translate(-1093.317 -103.043)" fill="#3f222a"/>
            <path id="Trazado_617736" data-name="Trazado 617736" d="M1278.824,467.312l-1.1.055-1.545,13.79,1.154-.095Z" transform="translate(-1091.798 -103.502)" fill="#c18156"/>
            <path id="Trazado_617737" data-name="Trazado 617737" d="M1282.92,471.144l0-1.151-7.491-.83-.027,1.165Z" transform="translate(-1092.89 -100.886)" fill="#c18156"/>
            <path id="Trazado_617738" data-name="Trazado 617738" d="M1343.177,472.751l-10.665-1.677-1.464,15.511,10.992,1.588Z" transform="translate(-1014.213 -98.183)" fill="#3f222a"/>
            <path id="Trazado_617739" data-name="Trazado 617739" d="M1336,471.057l-1.48.041-1.678,17.31,1.48-.041Z" transform="translate(-1011.679 -98.207)" fill="#9e6239"/>
            <path id="Trazado_617740" data-name="Trazado 617740" d="M1343.477,476.935l.031-1.479-12.378-1.881-.032,1.48Z" transform="translate(-1014.14 -94.649)" fill="#9e6239"/>
            <path id="Trazado_617741" data-name="Trazado 617741" d="M1274.167,463.258c2.752-3.165,8.946-2.585,11.947-2.778-4.188-1.33-9.706-3.488-13.009-2.267-2.392.884-3.865,3.046-5.069,4.845C1269.911,463.519,1272.6,465.061,1274.167,463.258Z" transform="translate(-1103.307 -116.879)" fill="#ff994d"/>
            <path id="Trazado_617742" data-name="Trazado 617742" d="M1269.429,469.572c0-1.429-3.064-2.523-5.245-2.523s-4.317,2.223-4.317,3.652,1.77,2.59,3.952,2.59S1269.429,471,1269.429,469.572Z" transform="translate(-1114.858 -103.873)" fill="#ff994d"/>
          </g>
        </g>
      </g>
    </g>
  </g>
</svg>
