<svg xmlns="http://www.w3.org/2000/svg" width="45.514" height="47.764" viewBox="0 0 45.514 47.764">
  <g id="Grupo_878396" data-name="Grupo 878396" transform="translate(-458.083 -1328.956)">
    <path id="Trazado_617149" data-name="Trazado 617149" d="M475.06,1376.721l-10.042-3.734c-.023.095-.047.18-.062.266a2.338,2.338,0,0,1-2.245,2.113,14.044,14.044,0,0,1-2.374,0,2.344,2.344,0,0,1-2.232-2.323,12.546,12.546,0,0,1-.005-1.305.7.7,0,0,1,.666-.759c.4-.012.682.285.7.767.017.4-.007.809.011,1.213a1.021,1.021,0,0,0,1.065,1.06c.636.02,1.275.015,1.912,0a1.051,1.051,0,0,0,1.147-1.17c.011-1.352,0-2.7,0-4.057q0-5.387,0-10.774c0-1.071-.352-1.425-1.418-1.427-.5,0-1-.009-1.493,0a1.092,1.092,0,0,0-1.221,1.247q-.006,4.571,0,9.141c0,.731-.213,1.063-.682,1.068s-.7-.332-.7-1.054q0-4.524,0-9.048a2.445,2.445,0,0,1,2.718-2.7c.575,0,1.151-.013,1.726,0a2.391,2.391,0,0,1,2.441,2.367c.007.106.012.212.019.352h1.932v-15.046c0-1.358.282-1.643,1.633-1.651H469c0-.483,0-.942,0-1.4.005-.937.394-1.344,1.323-1.349q2.332-.013,4.664,0c.908.006,1.286.408,1.291,1.328,0,.45,0,.9,0,1.385h1.372v-8.694c-1.007-.126-1.2-.347-1.2-1.342,0-.358,0-.715,0-1.073,0-.846.313-1.16,1.146-1.163.684,0,1.368,0,2.052,0h8.768a2.849,2.849,0,0,1,.465.015.639.639,0,0,1,.589.671.611.611,0,0,1-.552.647,3.566,3.566,0,0,1-.556.037q-4.967,0-9.934,0h-.589v.774h19.105v-.748c-.167-.009-.331-.024-.5-.025-.995,0-1.99,0-2.985,0a2.939,2.939,0,0,1-.464-.028.667.667,0,0,1,.057-1.329c1.476-.018,2.954-.021,4.43,0a.819.819,0,0,1,.821.851c.03.48.018.963.017,1.445,0,.858-.157,1.055-1.007,1.272v29.292c.633-.421,1.2-.815,1.784-1.185a2.817,2.817,0,0,1,3.792.46,2.735,2.735,0,0,1-.093,3.766c-1.154,1.13-2.381,2.187-3.581,3.27-1.685,1.52-3.395,3.014-5.056,4.559a8,8,0,0,1-4.535,2.064c-4.37.6-8.732,1.246-13.1,1.876a.635.635,0,0,0-.163.075Zm-10.067-5.253c.091.044.171.09.257.123,3.134,1.188,6.261,2.395,9.41,3.54a3.773,3.773,0,0,0,1.736.146c4.277-.585,8.544-1.242,12.822-1.818a7.337,7.337,0,0,0,4.266-1.965c1.655-1.574,3.385-3.069,5.084-4.6,1.04-.936,2.086-1.864,3.118-2.808a1.5,1.5,0,0,0,.385-1.78,1.4,1.4,0,0,0-1.544-.786,2.418,2.418,0,0,0-.836.38c-2.871,1.91-5.732,3.835-8.607,5.74a1.661,1.661,0,0,1-.852.28c-.713,0-1.429-.05-2.141-.115q-4.269-.393-8.537-.808-2.69-.259-5.379-.536c-.491-.05-.747-.323-.719-.74s.338-.641.828-.612c.031,0,.061.009.092.012q5.311.517,10.622,1.034c.642.062,1.284.113,1.932.17a2.733,2.733,0,0,0-2.551-2.723c-1.71-.222-3.421-.44-5.138-.585a17.33,17.33,0,0,1-7.386-2.193,12.073,12.073,0,0,0-6.74-1.455c-.04,0-.079.037-.123.058Zm23.359-5.026c.454.034.872.05,1.286.1a1.554,1.554,0,0,0,1.125-.3q2.383-1.635,4.8-3.217a.746.746,0,0,0,.384-.713q-.013-14.646-.007-29.292v-.486H479.086v29.088l.865.08c0-.249,0-.434,0-.62,0-.606-.015-1.213.009-1.819.023-.583.311-.911.837-.923.917-.023,1.834-.018,2.751,0a.754.754,0,0,1,.772.676,4.034,4.034,0,0,1,.048.694c.005.834,0,1.668,0,2.508l.923.143c0-.957,0-1.872,0-2.787,0-1.017.238-1.25,1.271-1.25.684,0,1.368,0,2.052,0,.77.007,1.078.31,1.084,1.073.006.9,0,1.8,0,2.705,0,.867-.306,1.163-1.191,1.167-.488,0-.975,0-1.594,0A4.43,4.43,0,0,1,488.352,1366.442Zm-20.074-23.788v14.738c0,.783,0,.783.756.928a.526.526,0,0,0,.147-.024c0-.427,0-.846,0-1.264,0-.852.261-1.111,1.115-1.112q3.427,0,6.855,0h.51V1354h-.567c-2.285,0-4.57,0-6.855,0-.8,0-1.055-.273-1.058-1.071,0-.466,0-.933,0-1.4,0-.948.242-1.195,1.178-1.2h7.289v-1.9h-.771q-3.311,0-6.621,0c-.79,0-1.07-.286-1.074-1.064,0-.466,0-.932,0-1.4,0-.981.228-1.211,1.207-1.211q3.358,0,6.715,0h.545v-2.1Zm2.3,9.958h7.08v-.87h-7.08Zm.012,4.709v.874h7.067v-.874Zm7.07-11.172h-7.073v.883h7.073Zm-2.766-6.245h-4.475v1.336h4.475Zm-2.358,19.7a12.739,12.739,0,0,0,5.119,1.844V1359.6Zm8.814.1v2.16h1.611v-2.16Zm6.938,2.176V1359.7h-1.616v2.169Z" transform="translate(0 0)" fill="#222b5a"/>
    <path id="Trazado_617150" data-name="Trazado 617150" d="M530.057,1401.742c0-.482-.012-.964,0-1.445.022-.708.338-1.017,1.041-1.023q1.165-.011,2.331,0a.915.915,0,0,1,1.039,1.03q.022,1.445,0,2.89a.914.914,0,0,1-1.045,1.022q-1.166.011-2.331,0c-.7-.007-1.014-.316-1.035-1.028C530.046,1402.705,530.057,1402.223,530.057,1401.742Zm1.386-1.078v2.155h1.626v-2.155Z" transform="translate(-50.105 -48.95)" fill="#222b5a"/>
    <path id="Trazado_617151" data-name="Trazado 617151" d="M530.06,1375.375c0-.5-.018-1,0-1.491a.88.88,0,0,1,.965-.959q1.234-.034,2.47,0a.9.9,0,0,1,.971,1.007q.025,1.468,0,2.937c-.012.678-.336.984-1.019.993q-1.188.016-2.378,0c-.687-.009-.979-.305-1.016-1,0-.031,0-.062,0-.093v-1.4Zm3.011,1.119v-2.167h-1.62v2.167Z" transform="translate(-50.105 -30.599)" fill="#222b5a"/>
    <path id="Trazado_617152" data-name="Trazado 617152" d="M534.465,1349.164c0,.466.009.932,0,1.4-.017.7-.334,1.033-1.028,1.047q-1.188.025-2.377,0a.9.9,0,0,1-1.006-1.014q-.026-1.468,0-2.937c.014-.685.328-.98,1.019-.99q1.188-.016,2.377,0a.9.9,0,0,1,1.013,1C534.478,1348.169,534.465,1348.667,534.465,1349.164Zm-3.024-1.125v2.166h1.616v-2.166Z" transform="translate(-50.096 -12.326)" fill="#222b5a"/>
    <path id="Trazado_617153" data-name="Trazado 617153" d="M565.2,1401.734c0-.5-.008-.994,0-1.491a.87.87,0,0,1,.94-.975q1.258-.024,2.517,0a.861.861,0,0,1,.936.934q.022,1.538,0,3.076a.86.86,0,0,1-.942.927q-1.258.021-2.517,0a.858.858,0,0,1-.933-.933C565.191,1402.76,565.2,1402.247,565.2,1401.734Zm1.38-1.07v2.138h1.625v-2.138Z" transform="translate(-74.573 -48.942)" fill="#222b5a"/>
    <path id="Trazado_617154" data-name="Trazado 617154" d="M547.645,1401.758c0-.528-.015-1.057,0-1.585a.846.846,0,0,1,.912-.9q1.281-.026,2.563,0a.857.857,0,0,1,.917.908q.032,1.561,0,3.123a.855.855,0,0,1-.921.9q-1.281.025-2.564,0a.845.845,0,0,1-.908-.906C547.63,1402.784,547.645,1402.271,547.645,1401.758Zm3,1.057v-2.138h-1.621v2.138Z" transform="translate(-62.349 -48.942)" fill="#222b5a"/>
    <path id="Trazado_617155" data-name="Trazado 617155" d="M569.6,1375.421c0,.482.007.963,0,1.445-.012.66-.316.983-.965.994q-1.235.022-2.47,0c-.652-.011-.955-.328-.961-.993q-.013-1.468,0-2.936a.881.881,0,0,1,.959-1.007q1.234-.036,2.47,0a.893.893,0,0,1,.966,1C569.605,1374.426,569.6,1374.923,569.6,1375.421Zm-2.981-1.1v2.161H568.2v-2.161Z" transform="translate(-74.571 -30.598)" fill="#222b5a"/>
    <path id="Trazado_617156" data-name="Trazado 617156" d="M569.6,1349.132c0,.5.008.994,0,1.491a.864.864,0,0,1-.894.975c-.869.033-1.74.033-2.609,0a.853.853,0,0,1-.891-.973q-.015-1.492,0-2.983a.866.866,0,0,1,.981-.974q1.212-.021,2.424,0c.678.011.981.331.991,1.017C569.6,1348.169,569.6,1348.65,569.6,1349.132Zm-3.013,1.081H568.2v-2.17h-1.618Z" transform="translate(-74.57 -12.325)" fill="#222b5a"/>
    <path id="Trazado_617157" data-name="Trazado 617157" d="M565.2,1428.055c0-.513-.012-1.026,0-1.538a.836.836,0,0,1,.9-.906q1.281-.026,2.563,0a.849.849,0,0,1,.924.938q.02,1.515,0,3.03a.864.864,0,0,1-.909.963c-.853.029-1.709.029-2.563,0-.619-.02-.905-.36-.924-.994,0-.031,0-.062,0-.093v-1.4Zm1.387-1.075v2.167H568.2v-2.167Z" transform="translate(-74.574 -67.281)" fill="#222b5a"/>
    <path id="Trazado_617158" data-name="Trazado 617158" d="M547.642,1375.419c0-.513-.012-1.026,0-1.538a.858.858,0,0,1,.914-.954c.853-.029,1.709-.029,2.563,0a.871.871,0,0,1,.92.957q.024,1.515,0,3.03a.87.87,0,0,1-.971.945q-1.235.02-2.471,0a.857.857,0,0,1-.957-.948C547.63,1376.414,547.642,1375.917,547.642,1375.419Zm3,1.069v-2.17h-1.619v2.17Z" transform="translate(-62.347 -30.597)" fill="#222b5a"/>
    <path id="Trazado_617159" data-name="Trazado 617159" d="M547.645,1349.118c0-.513-.014-1.026,0-1.538a.833.833,0,0,1,.9-.906q1.281-.029,2.563,0a.858.858,0,0,1,.931.938c.017,1.01.016,2.02,0,3.03a.87.87,0,0,1-.914.961q-1.281.046-2.563,0c-.622-.021-.907-.352-.923-.993-.012-.5,0-.994,0-1.492Zm3.006-1.073H549.03v2.169h1.621Z" transform="translate(-62.349 -12.324)" fill="#222b5a"/>
  </g>
</svg>
