<svg xmlns="http://www.w3.org/2000/svg" width="134" height="134" viewBox="0 0 134 134">
  <g id="Grupo_878576" data-name="Grupo 878576" transform="translate(-391 -1717.636)">
    <circle id="Elipse_5102" data-name="Elipse 5102" cx="67" cy="67" r="67" transform="translate(391 1717.636)" fill="#f3f9ff"/>
    <g id="Grupo_878395" data-name="Grupo 878395" transform="translate(-124.948 232.877)">
      <path id="Trazado_617123" data-name="Trazado 617123" d="M607.678,1586.2H553.512c-.027-.04-.046-.1-.083-.115-2.666-1.05-3.566-2.361-3.566-5.2q0-30.714,0-61.428c0-3.22,1.911-5.13,5.137-5.133q5.278-.005,10.557,0h.8c.047-1.79.3-2.033,1.986-2.033,1.734,0,3.468-.01,5.2.008a.8.8,0,0,0,.879-.5,6.75,6.75,0,0,1,4.435-3.686,3.2,3.2,0,0,0,.512-.25h2.295c.277.079.554.16.832.236a7.043,7.043,0,0,1,4.748,4.2h5.828c1.669,0,1.86.182,1.956,1.862,0,.042.053.082.114.171h.8c3.568,0,7.137-.017,10.706,0a4.625,4.625,0,0,1,4.868,4.911c.006,1.5,0,3.008,0,4.512v2.463c.672-.9,1.166-1.842,1.749-2.728a5.93,5.93,0,0,1,1.337-1.538c1.863-1.366,3.721-1.071,5.617.071,2.8,1.687,3.483,4.094,1.857,6.913q-5.09,8.821-10.166,17.65a3.053,3.053,0,0,0-.378,1.424c-.034,2.982-.017,5.965-.017,8.947q0,12.2,0,24.394a4.591,4.591,0,0,1-3.109,4.591C608.164,1586.019,607.922,1586.112,607.678,1586.2Zm12.54-60.9-.311-.525-17.148,29.706.477.213.822.519c.165-.269.288-.461.4-.657q3.016-5.224,6.03-10.449,4.773-8.266,9.547-16.529A1.992,1.992,0,0,0,620.218,1525.3Zm-17.745-6.28,2.672.022c1.229.011,1.632.417,1.632,1.662q0,6.454,0,12.908v.75a24.214,24.214,0,0,0,1.992-3.157,2.389,2.389,0,0,0,.283-1.074c.02-3.641.016-7.282.01-10.922a2.163,2.163,0,0,0-2.254-2.429c-1.447-.062-2.9.01-4.349.022h-7.406v2.218Zm0,64.706c1.3.007,2.6.018,3.9.02,1.916,0,2.7-.773,2.7-2.674q0-14.3,0-28.6v-.713a20.378,20.378,0,0,0-1.835,2.943,3.831,3.831,0,0,0-.433,1.642c-.028,7.851-.018,15.7-.02,23.552,0,1.164-.4,1.553-1.558,1.563l-2.752.024c-.331-.008-.662-.022-.993-.022H556.349c-1.387,0-1.752-.369-1.752-1.775q0-29.446,0-58.893c0-1.331.408-1.744,1.728-1.745q4.589,0,9.178,0h.82v-2.284h-.792q-5.2,0-10.4,0c-2.032,0-2.819.792-2.819,2.831q0,30.671,0,61.341c0,2.042.771,2.811,2.816,2.811q23.252,0,46.5,0C601.909,1583.749,602.189,1583.736,602.469,1583.729Zm0-62.192h-7.379c-.254,2-.319,2.055-2.344,2.055H568.426c-1.739,0-1.959-.206-2.078-1.938,0-.039-.055-.075-.079-.108h-9.175v57.467h44.768c.2,0,.407-.016.61-.024h1.81v-20.54l-1.811,1.11-3.842,2.166c-1.315.741-2.191.249-2.2-1.251-.01-1.984.054-3.971-.022-5.953a6.1,6.1,0,0,1,.934-3.52c1.774-2.958,3.445-5.978,5.156-8.974.431-.716.84-1.448,1.3-2.146a3.427,3.427,0,0,0,.549-2.007c-.027-5.177-.014-10.354-.014-15.53v-.806Zm-33.6-.464h23.621v-6.333h-5.551c-1.324,0-1.488-.117-1.924-1.365a4.556,4.556,0,0,0-8.593-.048c-.485,1.332-.6,1.413-2.051,1.413h-5.5Zm31.771,32.183,17.123-29.664c-1.18-.225-1.812.126-2.512,1.337q-7.767,13.451-15.53,26.9c-.122.21-.225.432-.356.685Zm-1.734,1.834v3.65l3.165-1.835Z" transform="translate(0 0)" fill="#040404"/>
      <path id="Trazado_617124" data-name="Trazado 617124" d="M607.517,1588.531c-.2.008-.406.024-.61.024H562.139v-57.467h9.175c.024.032.076.068.079.108.119,1.732.339,1.938,2.078,1.938h24.318c2.025,0,2.089-.055,2.344-2.055h7.379c0,.994.01,1.988.012,2.982q.011,8.753.021,17.507c-1.712,3-3.382,6.016-5.156,8.974a6.1,6.1,0,0,0-.934,3.52c.076,1.982.012,3.969.022,5.953.008,1.5.884,1.992,2.2,1.251l3.842-2.166Q607.517,1578.816,607.517,1588.531Zm-28.094-14.759a3.305,3.305,0,0,0-3.15-2.182c-1.936-.014-3.872-.021-5.808,0a3.139,3.139,0,0,0-3.2,3.189q-.034,2.98,0,5.96a2.979,2.979,0,0,0,2.777,3.092,64.656,64.656,0,0,0,6.716,0,2.978,2.978,0,0,0,2.776-3.094c.021-1.044-.032-2.091.027-3.132a1.686,1.686,0,0,1,.449-1.024c.944-.927,1.956-1.785,2.925-2.687a1.213,1.213,0,0,0,.227-1.817,1.266,1.266,0,0,0-1.891.028C580.656,1572.639,580.061,1573.194,579.423,1573.771Zm-.009-16.646a3.273,3.273,0,0,0-3.122-2.192c-1.961-.028-3.924-.042-5.884.005a3.127,3.127,0,0,0-3.147,3.243q-.027,2.9,0,5.808a3.116,3.116,0,0,0,3.062,3.246c2.061.065,4.128.07,6.188,0a3.1,3.1,0,0,0,3.024-3.2c.016-1.044-.031-2.091.024-3.133a1.571,1.571,0,0,1,.433-.954c.948-.924,1.954-1.787,2.924-2.689a1.215,1.215,0,0,0,.206-1.871,1.255,1.255,0,0,0-1.834.057C580.676,1555.973,580.079,1556.526,579.414,1557.125Zm.005-16.661a3.1,3.1,0,0,0-2.729-2.126c-2.188-.066-4.382-.1-6.567,0a3,3,0,0,0-2.859,3.1q-.036,2.98,0,5.961a3.138,3.138,0,0,0,3.195,3.2q2.941.043,5.884,0a3.147,3.147,0,0,0,3.193-3.2c.018-1.044-.03-2.09.024-3.133a1.577,1.577,0,0,1,.426-.959c.947-.925,1.953-1.789,2.925-2.689a1.226,1.226,0,0,0,.223-1.873,1.263,1.263,0,0,0-1.888.09C580.653,1539.347,580.072,1539.878,579.419,1540.464Zm14.07,2.519c2.291,0,4.581.009,6.872,0a1.207,1.207,0,0,0,1.348-1.3c-.048-.706-.575-1.14-1.444-1.144-2.113-.01-4.225,0-6.338,0-2.392,0-4.785,0-7.177,0a1.3,1.3,0,0,0-1.4.833,1.2,1.2,0,0,0,1.265,1.614C588.908,1542.994,591.2,1542.982,593.49,1542.983Zm-.041,14.966c2.265,0,4.53,0,6.8,0,.918,0,1.447-.439,1.466-1.187.019-.779-.526-1.255-1.48-1.256q-6.719-.008-13.438,0c-.968,0-1.5.451-1.5,1.233s.533,1.211,1.511,1.212Q590.127,1557.953,593.448,1557.949Zm.074,15.908q-3.359,0-6.719,0c-.982,0-1.506.431-1.509,1.215s.533,1.229,1.5,1.23q6.719.005,13.437,0c.954,0,1.5-.477,1.477-1.26-.02-.747-.547-1.182-1.469-1.184C598,1573.853,595.762,1573.857,593.522,1573.857Zm-3.565-25.535c1.119,0,2.237.008,3.355,0,.863-.008,1.37-.448,1.39-1.177.021-.765-.5-1.262-1.385-1.267q-3.317-.018-6.633,0c-.884,0-1.408.5-1.39,1.263.017.728.527,1.172,1.386,1.18C587.771,1548.33,588.864,1548.322,589.957,1548.323ZM590,1579.2c-1.119,0-2.237-.009-3.355,0-.849.01-1.352.473-1.353,1.209a1.208,1.208,0,0,0,1.345,1.233q3.355.023,6.709,0a1.208,1.208,0,0,0,1.353-1.225c0-.743-.492-1.206-1.345-1.216C592.237,1579.188,591.119,1579.2,590,1579.2Zm.018-18.347c-1.1,0-2.192-.005-3.289,0-.917.005-1.434.448-1.435,1.212s.524,1.228,1.43,1.232q3.289.014,6.578,0c.892,0,1.415-.5,1.4-1.263-.017-.735-.522-1.172-1.391-1.179C592.211,1560.844,591.115,1560.852,590.018,1560.852Z" transform="translate(-5.045 -9.544)" fill="#eaedef"/>
      <path id="Trazado_617125" data-name="Trazado 617125" d="M604.176,1589.944c-.28.007-.56.02-.841.02h-46.5c-2.045,0-2.816-.769-2.816-2.811q0-30.671,0-61.341c0-2.039.787-2.83,2.819-2.831q5.2,0,10.4,0h.792v2.284h-.82q-4.589,0-9.178,0c-1.32,0-1.728.414-1.728,1.745q0,29.447,0,58.893c0,1.405.365,1.775,1.752,1.775h45.125c.331,0,.662.014.993.022Q604.175,1588.822,604.176,1589.944Z" transform="translate(-1.707 -6.215)" fill="#817481"/>
      <path id="Trazado_617126" data-name="Trazado 617126" d="M582.127,1522.782v-6.333h5.5c1.449,0,1.566-.081,2.051-1.413a4.556,4.556,0,0,1,8.593.048c.436,1.248.6,1.365,1.924,1.365h5.551v6.333Zm10.327-7.283a1.505,1.505,0,0,0,1.513,1.561,1.527,1.527,0,1,0-.008-3.053A1.5,1.5,0,0,0,592.454,1515.5Z" transform="translate(-13.26 -1.71)" fill="#dfa36c"/>
      <path id="Trazado_617127" data-name="Trazado 617127" d="M639.171,1614.361q0-1.122,0-2.244l2.752-.024c1.162-.009,1.557-.4,1.558-1.563,0-7.851-.008-15.7.02-23.552a3.831,3.831,0,0,1,.433-1.642,20.378,20.378,0,0,1,1.835-2.943v.713q0,14.3,0,28.6c0,1.9-.782,2.677-2.7,2.674C641.77,1614.379,640.47,1614.367,639.171,1614.361Z" transform="translate(-36.702 -30.632)" fill="#665c66"/>
      <path id="Trazado_617128" data-name="Trazado 617128" d="M635.175,1564.188l-1.276-.738c.131-.253.234-.475.356-.685q7.763-13.453,15.53-26.9c.7-1.211,1.332-1.562,2.512-1.337Z" transform="translate(-34.536 -10.933)" fill="#dfa36c"/>
      <path id="Trazado_617129" data-name="Trazado 617129" d="M639.158,1523.013c1.45-.012,2.9-.084,4.349-.022a2.163,2.163,0,0,1,2.254,2.429c.006,3.64.01,7.281-.01,10.922a2.388,2.388,0,0,1-.283,1.074,24.2,24.2,0,0,1-1.992,3.157v-.75q0-6.453,0-12.908c0-1.245-.4-1.651-1.632-1.662l-2.672-.022Z" transform="translate(-36.698 -6.209)" fill="#665c66"/>
      <path id="Trazado_617130" data-name="Trazado 617130" d="M639.177,1614.284q0-9.715,0-19.429l1.811-1.11v20.54Z" transform="translate(-36.705 -35.296)" fill="#d1d1d6"/>
      <path id="Trazado_617131" data-name="Trazado 617131" d="M657.456,1537.474a1.992,1.992,0,0,1-.181,2.277q-4.774,8.264-9.547,16.53-3.016,5.223-6.031,10.449c-.114.2-.237.388-.4.657l-.822-.519a3.323,3.323,0,0,1,.172-.414q1.537-2.674,3.082-5.344l5.483-9.5q2.684-4.65,5.372-9.3C655.526,1540.691,656.5,1539.087,657.456,1537.474Z" transform="translate(-37.238 -12.171)" fill="#c08656"/>
      <path id="Trazado_617132" data-name="Trazado 617132" d="M639.2,1551.569q-.011-8.753-.021-17.507c0-.994-.008-1.988-.012-2.982h1.868v.806c0,5.176-.013,10.353.014,15.53a3.427,3.427,0,0,1-.549,2.007C640.04,1550.121,639.632,1550.853,639.2,1551.569Z" transform="translate(-36.702 -9.544)" fill="#cfcfd4"/>
      <path id="Trazado_617133" data-name="Trazado 617133" d="M633.991,1523.046l.013,2.218h-7.419v-2.218Z" transform="translate(-31.53 -6.242)" fill="#827682"/>
      <path id="Trazado_617134" data-name="Trazado 617134" d="M657.124,1537.108c-.958,1.613-1.93,3.217-2.873,4.839q-2.7,4.642-5.373,9.3l-5.483,9.5q-1.543,2.672-3.082,5.344a3.342,3.342,0,0,0-.172.414l-.477-.213,17.148-29.706Z" transform="translate(-36.906 -11.805)" fill="#dfa36c"/>
      <path id="Trazado_617135" data-name="Trazado 617135" d="M633.122,1588.043l3.165,1.814-3.165,1.835Z" transform="translate(-34.217 -32.953)" fill="#615761"/>
      <path id="Trazado_617136" data-name="Trazado 617136" d="M582.987,1602.025c.638-.577,1.233-1.132,1.846-1.667a1.266,1.266,0,0,1,1.891-.028,1.213,1.213,0,0,1-.227,1.817c-.969.9-1.981,1.76-2.925,2.687a1.686,1.686,0,0,0-.449,1.024c-.059,1.041-.007,2.088-.027,3.132a2.978,2.978,0,0,1-2.776,3.094,64.656,64.656,0,0,1-6.716,0,2.978,2.978,0,0,1-2.777-3.092q-.034-2.979,0-5.96a3.139,3.139,0,0,1,3.2-3.189c1.936-.022,3.872-.015,5.808,0A3.306,3.306,0,0,1,582.987,1602.025Zm-2.334,5.469c-.327.28-.535.45-.735.63-.883.8-1.4.8-2.225-.02s-1.665-1.649-2.485-2.485a1.227,1.227,0,0,1-.142-1.88c.54-.535,1.225-.492,1.881.158.63.627,1.232,1.282,1.85,1.927a8.748,8.748,0,0,0,1.583-1.476,2.323,2.323,0,0,0,.182-1.559c-.042-.22-.626-.47-.971-.479-1.781-.048-3.565-.018-5.347-.024-.607,0-.975.223-.974.885q.006,2.826,0,5.654a.767.767,0,0,0,.825.881q2.865.026,5.73,0a.77.77,0,0,0,.833-.878C580.647,1608.43,580.653,1608.035,580.653,1607.494Z" transform="translate(-8.609 -37.797)" fill="#040404"/>
      <path id="Trazado_617137" data-name="Trazado 617137" d="M582.979,1573.75c.664-.6,1.262-1.153,1.875-1.687a1.255,1.255,0,0,1,1.834-.057,1.215,1.215,0,0,1-.206,1.871c-.97.9-1.976,1.765-2.924,2.689a1.571,1.571,0,0,0-.434.954c-.055,1.042-.008,2.088-.024,3.133a3.1,3.1,0,0,1-3.024,3.2c-2.06.074-4.127.069-6.188,0a3.116,3.116,0,0,1-3.062-3.246q-.025-2.9,0-5.808a3.127,3.127,0,0,1,3.147-3.243c1.96-.047,3.923-.033,5.884-.005A3.273,3.273,0,0,1,582.979,1573.75Zm-2.324,5.437c-.348.307-.54.474-.729.643-.917.822-1.4.81-2.282-.062-.813-.809-1.63-1.615-2.433-2.433-.644-.657-.687-1.342-.143-1.881a1.24,1.24,0,0,1,1.885.167c.625.627,1.218,1.288,1.829,1.94a8.24,8.24,0,0,0,1.549-1.456,2.589,2.589,0,0,0,.224-1.617c-.029-.2-.635-.457-.984-.466-1.732-.048-3.466-.027-5.2-.02-.88,0-1.1.214-1.1,1.068q-.009,2.638,0,5.277c0,.865.215,1.08,1.083,1.084q2.524.011,5.048,0c1.03,0,1.245-.225,1.251-1.258C580.657,1579.9,580.655,1579.635,580.655,1579.187Z" transform="translate(-8.61 -26.168)" fill="#040404"/>
      <path id="Trazado_617138" data-name="Trazado 617138" d="M582.983,1545.485c.652-.586,1.234-1.118,1.825-1.64a1.263,1.263,0,0,1,1.888-.089,1.225,1.225,0,0,1-.223,1.872c-.971.9-1.977,1.765-2.925,2.69a1.577,1.577,0,0,0-.426.959c-.054,1.042-.006,2.088-.024,3.132a3.147,3.147,0,0,1-3.193,3.2q-2.941.045-5.884,0a3.138,3.138,0,0,1-3.195-3.2q-.033-2.98,0-5.961a3,3,0,0,1,2.859-3.1c2.185-.095,4.38-.063,6.567,0A3.1,3.1,0,0,1,582.983,1545.485Zm-4.214,3.829a9.081,9.081,0,0,0,1.608-1.517,2.525,2.525,0,0,0,.184-1.563c-.025-.2-.538-.464-.834-.47-1.86-.042-3.722-.027-5.582-.016a.791.791,0,0,0-.878.909c.011,1.886.005,3.772,0,5.658a.761.761,0,0,0,.851.852c1.886.008,3.773.032,5.658-.028a1.167,1.167,0,0,0,.826-.673,5.156,5.156,0,0,0,.036-1.507c-.33.283-.541.459-.747.641-.871.769-1.4.755-2.229-.073-.815-.808-1.629-1.616-2.433-2.433-.659-.67-.716-1.332-.186-1.88a1.256,1.256,0,0,1,1.885.139C577.558,1547.984,578.149,1548.649,578.769,1549.314Z" transform="translate(-8.609 -14.564)" fill="#040404"/>
      <path id="Trazado_617139" data-name="Trazado 617139" d="M609.63,1549.576c-2.291,0-4.581.011-6.872-.006a1.2,1.2,0,0,1-1.265-1.613,1.3,1.3,0,0,1,1.4-.833c2.393.006,4.785,0,7.177,0,2.113,0,4.225-.007,6.338,0,.869,0,1.4.438,1.444,1.144a1.207,1.207,0,0,1-1.348,1.3C614.211,1549.586,611.921,1549.577,609.63,1549.576Z" transform="translate(-21.186 -16.137)" fill="#040404"/>
      <path id="Trazado_617140" data-name="Trazado 617140" d="M609.6,1574.987q-3.321,0-6.642,0c-.978,0-1.508-.431-1.511-1.212s.529-1.232,1.5-1.233q6.719-.006,13.438,0c.954,0,1.5.477,1.48,1.257-.018.748-.547,1.186-1.466,1.187C614.135,1574.991,611.869,1574.987,609.6,1574.987Z" transform="translate(-21.201 -26.581)" fill="#010101"/>
      <path id="Trazado_617141" data-name="Trazado 617141" d="M609.678,1603.7c2.239,0,4.479,0,6.718,0,.922,0,1.448.437,1.469,1.184.021.783-.522,1.259-1.477,1.26q-6.719.007-13.437,0c-.967,0-1.5-.449-1.5-1.23s.527-1.213,1.508-1.215Q606.319,1603.7,609.678,1603.7Z" transform="translate(-21.201 -39.388)" fill="#010101"/>
      <path id="Trazado_617142" data-name="Trazado 617142" d="M606.11,1558.64c-1.093,0-2.186.008-3.279,0-.859-.008-1.369-.453-1.386-1.18-.018-.762.506-1.259,1.39-1.263q3.316-.017,6.633,0c.885,0,1.406.5,1.385,1.267-.02.729-.527,1.169-1.39,1.177C608.347,1558.647,607.229,1558.64,606.11,1558.64Z" transform="translate(-21.199 -19.861)" fill="#040404"/>
      <path id="Trazado_617143" data-name="Trazado 617143" d="M606.155,1612.768c1.118,0,2.237-.01,3.355,0,.852.01,1.348.474,1.345,1.216a1.208,1.208,0,0,1-1.353,1.225q-3.354.023-6.709,0a1.208,1.208,0,0,1-1.345-1.233c0-.736.5-1.2,1.353-1.209C603.919,1612.758,605.037,1612.768,606.155,1612.768Z" transform="translate(-21.199 -43.113)" fill="#040404"/>
      <path id="Trazado_617144" data-name="Trazado 617144" d="M606.174,1581.621c1.1,0,2.193-.007,3.289,0,.869.007,1.374.444,1.391,1.179.018.765-.505,1.259-1.4,1.264q-3.288.018-6.578,0c-.905,0-1.43-.473-1.43-1.232s.518-1.206,1.435-1.212C603.982,1581.616,605.078,1581.621,606.174,1581.621Z" transform="translate(-21.201 -30.313)" fill="#010101"/>
      <path id="Trazado_617145" data-name="Trazado 617145" d="M599.66,1516.887a1.5,1.5,0,0,1,1.5-1.492,1.527,1.527,0,1,1,.008,3.053A1.505,1.505,0,0,1,599.66,1516.887Z" transform="translate(-20.465 -3.097)" fill="#040404"/>
      <path id="Trazado_617146" data-name="Trazado 617146" d="M582.367,1609.205c0,.541-.006.936,0,1.331a.77.77,0,0,1-.833.878q-2.864.03-5.729,0a.767.767,0,0,1-.825-.881q.012-2.827,0-5.654c0-.662.367-.887.974-.885,1.782.007,3.566-.023,5.347.024.345.01.929.259.971.479a2.323,2.323,0,0,1-.182,1.559,8.75,8.75,0,0,1-1.583,1.475c-.617-.646-1.219-1.3-1.849-1.927-.656-.651-1.341-.694-1.881-.158a1.227,1.227,0,0,0,.142,1.88c.821.836,1.653,1.661,2.485,2.485s1.342.816,2.225.02C581.831,1609.655,582.04,1609.485,582.367,1609.205Z" transform="translate(-10.323 -39.509)" fill="#86c4f7"/>
      <path id="Trazado_617147" data-name="Trazado 617147" d="M582.368,1580.9c0,.447,0,.716,0,.986-.006,1.033-.221,1.255-1.251,1.258q-2.523.008-5.048,0c-.868,0-1.081-.219-1.083-1.084q-.008-2.638,0-5.277c0-.854.219-1.064,1.1-1.068,1.734-.006,3.468-.028,5.2.02.349.009.954.261.984.466a2.589,2.589,0,0,1-.224,1.617,8.232,8.232,0,0,1-1.549,1.456c-.612-.651-1.2-1.312-1.83-1.94a1.24,1.24,0,0,0-1.885-.167c-.544.54-.5,1.224.143,1.881.8.819,1.62,1.625,2.433,2.433.878.872,1.366.884,2.282.062C581.829,1581.376,582.021,1581.209,582.368,1580.9Z" transform="translate(-10.323 -27.884)" fill="#69eebd"/>
      <path id="Trazado_617148" data-name="Trazado 617148" d="M580.483,1551.016c-.62-.665-1.211-1.33-1.837-1.96a1.256,1.256,0,0,0-1.885-.139c-.531.548-.473,1.21.186,1.88.8.818,1.619,1.626,2.433,2.433.833.827,1.358.841,2.229.073.206-.182.417-.358.747-.641a5.156,5.156,0,0,1-.036,1.507,1.168,1.168,0,0,1-.826.673c-1.884.06-3.772.036-5.658.028a.761.761,0,0,1-.851-.852c0-1.886.007-3.772,0-5.658a.791.791,0,0,1,.878-.909c1.86-.011,3.721-.026,5.582.016.3.006.809.274.834.47a2.525,2.525,0,0,1-.184,1.563A9.082,9.082,0,0,1,580.483,1551.016Z" transform="translate(-10.323 -16.266)" fill="#f6616c"/>
    </g>
  </g>
</svg>
