<svg xmlns="http://www.w3.org/2000/svg" width="553.684" height="433.963" viewBox="0 0 553.684 433.963">
  <g id="Grupo_878566" data-name="Grupo 878566" transform="translate(-151.316 -5999.037)">
    <g id="Grupo_878479" data-name="Grupo 878479" transform="translate(91.17 5958.568)">
      <g id="Grupo_878470" data-name="Grupo 878470" transform="translate(60.146 40.468)">
        <rect id="Rectángulo_293962" data-name="Rectángulo 293962" width="553.684" height="433.964" fill="#fff"/>
        <path id="Trazado_617322" data-name="Trazado 617322" d="M556.259,448.364C574.087,418.135,583,366.85,585.12,329.488c3.136-55.233-11.718-56.988-36.528-85.658-10.821-12.5,19.563-52.062-26.563-84.741-28.617-20.275-67.208,20.5-90.947-30.067C406.755,77.2,293.939,62.344,217.565,90.232c-99.1,36.186-46.907,67.094-84.522,91.672-71.537,46.742-6.07,115.659-28.32,150.615-24.607,38.658-1.034,110.057,9.445,115.844Z" transform="translate(-63.838 -44.396)" fill="#ee4e5d" opacity="0.084"/>
        <path id="Trazado_617323" data-name="Trazado 617323" d="M98.995,492.861H577.671a1.987,1.987,0,0,1,0,3.97H98.995a1.987,1.987,0,0,1,0-3.97Z" transform="translate(-64.189 -89.951)" fill="#179587"/>
      </g>
      <g id="Grupo_878473" data-name="Grupo 878473" transform="translate(171.63 101.026)">
        <g id="Grupo_878471" data-name="Grupo 878471" transform="translate(29.879 0)">
          <path id="Trazado_617324" data-name="Trazado 617324" d="M367.081,200.534c-1.357-.459-1.393-1.729-1.88-2.717-.139-.281.153-.688-.2-.947-3.108-2.261-3.414-5.878-4.362-9.156-.789-2.724-1.182-3.057-3.834-2.471-.127-.127-.313-.232-.372-.385-1-2.613-.981-2.582-3.448-1.156-.957.553-1.936,0-2.909-.173a4.821,4.821,0,0,1-1.992,1.357c-.673.224-.857.882-.92,1.546a10.934,10.934,0,0,0,.179,3.034,2.98,2.98,0,0,1-.637,2.672c-.042.047-.079.1-.121.147-1.836,2.125-1.478,4.58-1.177,7.055.735.112.8-.434.994-.779a4.577,4.577,0,0,1,1.105-1.532.925.925,0,0,1,1.582.574,4.421,4.421,0,0,1-.508,3.308,6.067,6.067,0,0,0-.991,2.849c-.046.949.081,1.665,1.166,2.1,1.331.53,1.434,1.094.805,2.362-.082.165-.343.359-.305.449.919,2.2-1.356,2.974-2,4.467a1.483,1.483,0,0,1-1.617.761c-.295-.018-.673-.138-.7.354-.024.377.245.574.553.68a5.172,5.172,0,0,0,1.1.282,6.2,6.2,0,0,1,2.235.378c.316.159.618.146.79-.218.46-.976,1.407-.966,2.267-1.141a22.214,22.214,0,0,0,2.437-.346,1.651,1.651,0,0,1,2.072,1.217,23.307,23.307,0,0,0,1.494,3.025c.852,2.138,1.81,4.336,1.279,6.749-.1.447.018.53.361.655a32.247,32.247,0,0,1,4.155,2.089,9.514,9.514,0,0,1,1.519,1.132,1.768,1.768,0,0,0,2.528.129,5.923,5.923,0,0,1,1.869-.909,3.456,3.456,0,0,0,1.843-.937,2.979,2.979,0,0,1,2.021-1.333,3.29,3.29,0,0,1-.252-1.193c-.017-.572,0-1.144,0-1.715,0-3.058-1.159-3.954-4.193-3.24a1.9,1.9,0,0,1-2.308-1.713,22.856,22.856,0,0,0-1.739-4.941,12.744,12.744,0,0,0-.859-2.146c-.214-.338-.34-1.267.34-1.458,1.134-.318,1.434-1.564,2.465-1.95.983-.367,1.005-1.2.97-2.089-.045-1.142-.818-2.238-.054-3.456C368.1,201.345,367.485,200.67,367.081,200.534Z" transform="translate(-232.658 -116.587)" fill="#179587"/>
          <path id="Trazado_617325" data-name="Trazado 617325" d="M368.1,321.328a1.943,1.943,0,0,1,2.365.69,1.87,1.87,0,0,0,1.4.444,9.257,9.257,0,0,0,3.179-.512,5.523,5.523,0,0,1,3.36-.211,7.533,7.533,0,0,0,2.081.161,34.483,34.483,0,0,0,9.039-.843c.445-.116.687-.269.7-.712.015-.572.009-1.144.007-1.715q-.051-14.1-.1-28.205c-.008-2.223-.007-4.447-.045-6.67-.023-1.3-.387-1.543-1.616-1.16a2.709,2.709,0,0,0-.864.391c-2.013,1.56-4.45,2.447-6.418,4.083a6.348,6.348,0,0,1-1.309.756c-2.266,1.1-4.808,1.643-6.737,3.442a2.253,2.253,0,0,1-2.337.413,2.239,2.239,0,0,0-2.3.416,3.739,3.739,0,0,1-3.262.64,5.063,5.063,0,0,0-3.322.412A23.442,23.442,0,0,1,358.7,294.3c-1.971.5-2.529.114-3.061-1.885-.1-.367-.208-.732-.283-1.1a2.3,2.3,0,0,0-1.3-1.776,2.51,2.51,0,0,1-1.667-2.508c0-.614-.409-1.03-1.173-1.124-.1.626-.2,1.243-.294,1.861a34.959,34.959,0,0,1-1.38,6.123c-.475,1.407-1.043,1.534-2.206.719a4.628,4.628,0,0,0-4.26-.714c-1.227.391-1.732.167-2.276-.995-.348-.745-.587-1.542-.911-2.3a2.478,2.478,0,0,0-3.264-.709.629.629,0,0,0-.216.835c.663,1.219.007,2.642.646,3.9a1.406,1.406,0,0,1-.567,1.7c-2.023,1.5-3.961,3.3-6.826,2.477-.318-.091-.647-.227-.888.027-.845.89-2.12,1.442-2.16,2.964a6.224,6.224,0,0,1-1.722,4.088c-.813.915-1.5,1.727-2.853,1.343-.32-.091-.753-.085-.831.24-.338,1.4-1.553,2.308-1.774,3.885-.427,3.032-.847,6.263-4.232,7.77-.072.032-.079.209-.117.322.313.452.814.219,1.222.324,1.063.275,1.013,1.371,1.551,2.012.558.666,1.9.213,2.225,1.441.359,1.343.554,2.634-.484,3.762a4,4,0,0,0-.96,2.426c-.359,3.364.66,6.53,1.374,9.741a.946.946,0,0,0,.28.489c1.7,1.422,2.862,3.591,5.569,3.57a2.5,2.5,0,0,1,2.747,2.145.849.849,0,0,0,.925.77,1.865,1.865,0,0,1,1.346.629,1.7,1.7,0,0,0,1.946.272c1.842-.575,3.62-1.426,5.584-1.03,0-2.129.036-4.027-.009-5.923-.058-2.475-.229-4.948-.257-7.424-.019-1.646.273-1.771,1.932-1.453s3.292,1.015,5.053.689a16.117,16.117,0,0,1,3.027-.229,4.406,4.406,0,0,0,3.532-1.554,6.53,6.53,0,0,0,1.323-2.26c.422-1.276,1.874-1.849,2.476-.968.824,1.2,1.365,1.158,2.206.141a2.191,2.191,0,0,1,1-.519c1.558-.5,2.668-2.175,4.583-1.754.086.019.235-.108.311-.2a2.5,2.5,0,0,1,3.705-.6C367.266,322.78,367.073,321.811,368.1,321.328Z" transform="translate(-229.394 -127.492)" fill="#ffae00"/>
          <path id="Trazado_617326" data-name="Trazado 617326" d="M337.612,186.17q.585,2.3,1.262,4.586a9.9,9.9,0,0,1,.378,4.137c-.171,1.36-.642,2.73-.056,4.1-.971,1.7-.343,3.259.347,4.854a2.63,2.63,0,0,1-.08,1.689,3.82,3.82,0,0,0,.335,2.976,4.348,4.348,0,0,1,3.765-.154,1.759,1.759,0,0,0,.753.046c.259-.023.57-.165.582-.413.057-1.232,1.962-1.3,1.678-2.743a2.364,2.364,0,0,1,.035-1.852c.213-.346,0-.578-.333-.727-1.288-.566-1.349-1.706-1.363-2.886a7.947,7.947,0,0,1,1.178-3.823c-.077-.34-.148-.357-.275-.225-.572.6-1.144,1.336-2.076,1.083-1.073-.291-.978-1.362-1.193-2.2-.238-.924.3-2.03-.765-2.781-.313-.222-.025-.732.241-1.011,1.026-1.078,1.34-2.587,2.3-3.712.653-.765.351-1.708.219-2.568a7.111,7.111,0,0,1,.092-3.206A2.25,2.25,0,0,1,346,179.622a4.938,4.938,0,0,0,2.475-1.988c.03-.038.063-.075.094-.113.751-1.907,2.015-3.533,2.374-5.721.257-1.563,1.975-2.833,3.283-4.028a1.562,1.562,0,0,0,.43-2.315c-1.111-1.875-.123-3.847.4-5.672a10.256,10.256,0,0,0,.691-3.639,2.181,2.181,0,0,1,.053-.688,5.112,5.112,0,0,0-4.1-1.22c-1.9.08-2.452-.591-1.782-2.345.09-.236.227-.454.323-.689.571-1.4.142-2.235-1.358-2.65-1.2-.332-1.271-.44-1.072-1.7.248-1.584-.069-1.96-1.618-1.812a36.206,36.206,0,0,0-5.385,1.332c2.214,1.535,1.65,3.179.52,4.844a5.662,5.662,0,0,0-.765,1.938,2.5,2.5,0,0,1-2.037,2.017,16.061,16.061,0,0,0-2.6,1.146c-1.978.819-2.736,2.512-3.294,4.394-.184.623.1.942.5,1.3,1.612,1.449,2.728,3.325,4.2,4.9a4.716,4.716,0,0,1,1.155,2.967c.122,1.712-.824,2.521-2.455,2.114a1.641,1.641,0,0,1-.356-.135,2.509,2.509,0,0,0-2.994.349,3.938,3.938,0,0,1-.872.416c.185.6.753.657,1.124.937a3.969,3.969,0,0,1,1.7,2.654,2.122,2.122,0,0,0,.947,1.724,2.327,2.327,0,0,1,.861,1.649,3.677,3.677,0,0,0,.975,2.4.834.834,0,0,1,.177,1.056C336.946,184.1,337.35,185.14,337.612,186.17Z" transform="translate(-231.222 -112.461)" fill="#d0d0d1"/>
          <path id="Trazado_617327" data-name="Trazado 617327" d="M322.962,304.7a.754.754,0,0,0,1.156.961c.835-1.154,2.12-2.076,2.03-3.736a3.755,3.755,0,0,1,1.625-3.264c.395-.313.7-.732,1.088-1.062a1.782,1.782,0,0,0,.637-1.86c-.126-.619-.161-1.257-.236-1.886a4.845,4.845,0,0,1,1.031-3.888c1.209-1.49,2.095-3.2,1.584-5.247,0-.784.026-1.545-.01-2.3a1.021,1.021,0,0,0-.7-1.031c-.6-.156-.716.384-.882.775a6.99,6.99,0,0,1-1.151,1.959,3.289,3.289,0,0,0-.66,3.856,2.316,2.316,0,0,1,.182,1.664,15.2,15.2,0,0,0-.56,4.679,2.527,2.527,0,0,1-1.505,2.437c-1.607.855-1.729.981-1.414,2.717a3.744,3.744,0,0,1-.7,3.045C323.957,303.228,323.444,303.953,322.962,304.7Z" transform="translate(-230.238 -127.374)" fill="#00558c"/>
          <path id="Trazado_617328" data-name="Trazado 617328" d="M290.346,302.234c-.772,1.73-.731,3.747-1.957,5.3a1.209,1.209,0,0,0-.15.733,12.6,12.6,0,0,1-1.731,6.912,1.265,1.265,0,0,0,.071,1.592,6.514,6.514,0,0,0,2.341,1.907c.791.289,1.29-.636,1.974-.91a2.956,2.956,0,0,0,.494-.286c1.553-1.013,3.5-1.6,4.014-3.741a.693.693,0,0,1,.387-.4c1.024-.384,1.266-1.321,1.645-2.188.249-.568.509-1.429,1.15-1.4a13.334,13.334,0,0,1,4.217.44,1.986,1.986,0,0,0,2.2-.1,5.724,5.724,0,0,1,.987-.568,1.672,1.672,0,0,1,1.775.34c.52.406.457.968.318,1.566-.1.448-.609.822-.323,1.453,1.238-.347,2.63-.817,3-1.846.416-1.17,1.421-2.333.764-3.858a1.441,1.441,0,0,1,1.231-1.991c2.759-.534,3.32-2.909,4.091-4.949.735-1.943.151-4.146.981-6.443-.623.068-.926.2-1.1.1-1.29-.728-2.378-.379-3.612.3-1.1.6-2.228.036-3.1-.815-.946-.922-.476-1.867.05-2.768a4.543,4.543,0,0,0,.968-2.832,10.6,10.6,0,0,1,.754-5.015c.784-2.471-.289-5.005.334-7.482a7.376,7.376,0,0,0,.049-1.894c-.009-.418-.214-.842-.668-.707a8.808,8.808,0,0,1-2.818.05,1.514,1.514,0,0,0-1.557,1.109c-.859,2.105-1.419,2.284-3.453,1.356a.992.992,0,0,0-.8-.105,2.042,2.042,0,0,1-.267.629,3.14,3.14,0,0,0-.745,3.464,1.553,1.553,0,0,1-.552,1.7,2.886,2.886,0,0,0-.756,2.755c.481,2.5.305,2.79-1.915,4.076-.932.541-2.075,1.131-2.185,2.243-.232,2.377-1.268,4.5-1.825,6.76A3.031,3.031,0,0,1,293,298.9,6.015,6.015,0,0,0,290.346,302.234Z" transform="translate(-226.241 -126.423)" fill="#179587"/>
          <path id="Trazado_617329" data-name="Trazado 617329" d="M311.334,319.8a3.333,3.333,0,0,0,1.709-2.577c.3-1.678.992-3.276,1.059-5.013a1.216,1.216,0,0,1,.39-.83c.867-.665,1.017-1.735,1.551-2.583a1.707,1.707,0,0,0-.183-2.108c-.179.32-.263.485-.36.641-.814,1.312-1.666,2.55-3.409,2.745-.564.063-.655.514-.371,1a1.658,1.658,0,0,1-.272,2.241,1.921,1.921,0,0,0-.405,1.039A5.645,5.645,0,0,1,306.2,317.9a2.784,2.784,0,0,1-.918-.207,1.014,1.014,0,0,1-.5-1.673c.276-.443.789-.77.748-1.385-.257-.045-.413-.126-.493-.079-1.3.786-2.57,1.8-4.135.509a.392.392,0,0,0-.356,0c-.981.6-1.812.029-2.843-.5-.567,1.446-.94,2.986-2.431,3.708-.074.036-.091.232-.1.356-.043.81-.667,1.167-1.209,1.607a30.865,30.865,0,0,1-4.336,2.746,1.949,1.949,0,0,0-1.107,2.325,9.594,9.594,0,0,0,.354,1.664c.661,1.714,1.3,3.436,1.946,5.158a4.97,4.97,0,0,1,.341,1.079c.122.973-.234,1.309-1.2,1.557a2.481,2.481,0,0,1-3.03-1.516c-.593.155-.721.631-1,.951a3.7,3.7,0,0,1-2.749,1.074c-.552.039-1-.707-1.587-.252-.541.423-.432,1.167-.734,1.721a5.629,5.629,0,0,0-.345.885c-1.029,3.043-1.028,3.043-4.1,2.589-1.269-.188-1.681.221-1.29,1.451a2.976,2.976,0,0,1,.194,2.374c-.311.631.1.758.572.877,2.06.518,2.227.7,2.508,2.681.218,1.531.207,1.593,1.81,1.856.919.15,1.593.419,1.708,1.428.111.974.7.889,1.375.658.6-.208,1.285-.522,1.812-.041.9.822,1.562.409,1.982-.379,1.266-2.375,3.48-4.021,4.784-6.355.257-.46.607-.921,1.151-.882,1.211.086,1.674-.744,2.119-1.59a11.639,11.639,0,0,1,3.15-3.771,2.9,2.9,0,0,0,1.348-2.735,1.983,1.983,0,0,1,1.332-2.245,5.086,5.086,0,0,0,2.651-2.855,2.69,2.69,0,0,1,1.426-1.69,1.375,1.375,0,0,0,.926-1.5,4.945,4.945,0,0,1,1.223-3.314C308.374,322.526,309.467,320.8,311.334,319.8Z" transform="translate(-225.009 -130.145)" fill="#179587"/>
          <path id="Trazado_617330" data-name="Trazado 617330" d="M296.546,289.78a8.129,8.129,0,0,1,2.24-1.725,5.58,5.58,0,0,0,1.12-.684.967.967,0,0,0,.24-1.049c-.149-.508-.584-.353-.94-.347-.883.011-1.765.038-2.648.04-.766,0-1.449.011-1.943.824a2.42,2.42,0,0,1-1.95.993c-1.223.123-1.327.329-1.149,1.559.357,2.476,1.6,4.6,2.7,7a10.564,10.564,0,0,0,1.443-4.586A3.13,3.13,0,0,1,296.546,289.78Z" transform="translate(-226.808 -127.877)" fill="#179587"/>
          <path id="Trazado_617331" data-name="Trazado 617331" d="M402.115,330a5.817,5.817,0,0,0,2.367-1.408,3.781,3.781,0,0,0-2.376.688c-.587.259-1.217.668-1.807.376-1.5-.74-3.166-.834-4.7-1.41-1.823-.685-3.62-1.431-5.643-.49a4.906,4.906,0,0,1-2.626.282,12.318,12.318,0,0,0-3.415.055,5.893,5.893,0,0,1-2.27-.128,6.927,6.927,0,0,0-3.556.172c-2.132.594-4.317,1.128-6.165-.679-.483.475-.219.93-.246,1.349-.077,1.19-.556,1.576-1.722,1.339a4.069,4.069,0,0,1-.872-.354c-.294-.139-.637-.32-.88-.047a4,4,0,0,1-3.416,1.294c-.34-.018-.532.315-.72.566a1.852,1.852,0,0,1-1.246.8,3.379,3.379,0,0,0-2.052,1.242c-.771.849-1.6.784-2.512.021-.28-.232-.33-.717-.807-.73-.262.12-.281.38-.362.609a6.217,6.217,0,0,1-6.3,4.231,5.86,5.86,0,0,0-1.7.117,10.424,10.424,0,0,1-5.252-.259c-1.179-.411-1.508-.141-1.467,1.087.058,1.712.177,3.422.24,5.134a84.392,84.392,0,0,0,.438,9.5c.083.551-.029,1.1.457,1.58a9.33,9.33,0,0,1,2.88,4.788,1.309,1.309,0,0,0,.509.775,36.567,36.567,0,0,1,3.635,3.626c1.352,1.432,2.808,2.652,4.892,1.183a2.592,2.592,0,0,1,.582-.208c-.017-.317-.025-.627-.05-.935a4.733,4.733,0,0,1,1.461-3.574,4.343,4.343,0,0,1,3.927-.578c2.63.732,4.361,2.878,6.508,4.375.413,2.109,2.136,3.258,3.448,4.708a.628.628,0,0,1,.089.167,1.73,1.73,0,0,0,1.826,1.022,3.238,3.238,0,0,0,2.28-.592,4.557,4.557,0,0,1,1.562-.664,6.185,6.185,0,0,0,4.332-4.161c.24-.708.542-1.127,1.364-.87a1.288,1.288,0,0,0,1.334-.4,2.071,2.071,0,0,0,.526-2.957c-.641-1.225-.472-1.908.644-2.605a1.848,1.848,0,0,0,1.044-2.182c-.448-1.9.346-3.464,1.249-5.023a1.6,1.6,0,0,1,2.027-.939,2.64,2.64,0,0,0,2.769-.793c.769-.755,1.628-1.418,2.375-2.191a2.566,2.566,0,0,1,2.017-.759,26.98,26.98,0,0,0,5.643-.535,46.872,46.872,0,0,0,9.005-2.639,11.919,11.919,0,0,0,3.361-2.518c-1.1-.177-2.169-.072-3.205-.211a3.737,3.737,0,0,0-2.394.175,1.946,1.946,0,0,1-2.439-.42,2.072,2.072,0,0,0-2.055-.569c-1.864.329-2.627-.248-2.837-2.1a2.805,2.805,0,0,0-1.982-2.689c-1.177-.421-1.358-1.247-.625-2.251A7.052,7.052,0,0,1,402.115,330Z" transform="translate(-232.378 -132.401)" fill="#222b5a"/>
          <path id="Trazado_617332" data-name="Trazado 617332" d="M417.373,345.993a2.29,2.29,0,0,0-2.276.558,4.212,4.212,0,0,1-2.836.9,2.465,2.465,0,0,0-1.1.232,19.206,19.206,0,0,1-7.589,1.491c-1.079,0-2.073.637-3.189.348-.328-.085-.557.231-.793.447-.747.686-1.524,1.341-2.262,2.038a3.611,3.611,0,0,1-3.6,1.205.779.779,0,0,0-.994.336c-.635,1.22-1.5,2.334-1.128,3.9.34,1.429.2,2.805-1.39,3.554-.581.272-.639.731-.352,1.267a4.566,4.566,0,0,1,.25.514c.849,2.2-.078,4.025-2.389,4.49a1.931,1.931,0,0,0-1.441,1.019,7.885,7.885,0,0,1-5.115,3.974c-.68.149-1.632.34-1.546,1.36a11.826,11.826,0,0,0,.595,1.8,1.135,1.135,0,0,0,1.369.979c.606-.055.9.334,1.044.891a5.982,5.982,0,0,0,1,2.036c.543.744,1.022,1.394,2.13,1.2a1.669,1.669,0,0,1,1.783,1.175,3.321,3.321,0,0,0,3.188,1.955,3.667,3.667,0,0,1,2.62.948c.081.089.249.214.316.184,2.014-.894,3.262,1.247,5.1,1.277a2.614,2.614,0,0,1,2.481,2.045c.064.239.1.65.229.681,1.464.366,1.375,1.606,1.608,2.69a4.866,4.866,0,0,0,.507,1.227c.648,1.212.874,1.315,2.279.958.8-.2,1.584-.455,2.359-.731,1.957-.7,2.055-.667,2.837,1.185a2.853,2.853,0,0,0,.859,1.446c.544.376,1.038.7,1.682.114a4.191,4.191,0,0,1,1.314-.749,1.97,1.97,0,0,1,2.338,1.1c.226.653-.235.88-.71,1.135-1.274.684-1.3.9-1.025,2.18a9.5,9.5,0,0,1-.012,4.515,2.467,2.467,0,0,0,.316,2.169c.286.419.62.8.916,1.217.364.507.466,1.336,1.131,1.454.765.136.837-.816,1.3-1.206a2.217,2.217,0,0,1,2.3-.5,3.238,3.238,0,0,0,2.028.268,1.383,1.383,0,0,1,1.745.777c.421.835,1.063.916,1.921.689,1.439-.381,1.75-.29,2.108,1.047.345,1.288,1.082,1.616,2.285,1.815.231.038.462.079.693.121.037-1.047.053-2.1.026-3.153a1.021,1.021,0,0,0-.389-.955c-1.455-.989-2.156-2.655-3.425-3.817a2.13,2.13,0,0,1-.368-3.029,1.934,1.934,0,0,0-.067-2.451,33.614,33.614,0,0,0-2.795-3.3c-.475-.421-1.137-.99-1.523-.87-1.581.491-1.8-.829-2.512-1.575-.843-.888-1.775-1.78-1.673-3.061.3-3.814.065-7.627.179-11.439.013-.472-.028-1.071.557-1.331a13.879,13.879,0,0,0,4.414-2.449c.226-.223.882-.118,1.3-.007s.867.268,1.133-.039c1.2-1.39,2.894-1.027,4.542-1.347.272,2.3,2.834,1.348,3.775,2.844a15.516,15.516,0,0,1,2.532-1.528c-.444-.949-.982-1.707-.724-2.621.5-1.755-.484-3.076-1.032-4.618-.608-1.716-1.649-1.6-2.781-1.452a14.576,14.576,0,0,1-7.056-.415,1.581,1.581,0,0,0-2.1.764v-.381a1.811,1.811,0,0,1-.584-1.525c-.036-2.986.025-5.985-.232-8.954a4.242,4.242,0,0,1-.013-.576,2.045,2.045,0,0,0-1.349-.43,2.7,2.7,0,0,1-2.7-1.411,3.967,3.967,0,0,0-2.706-1.892c-1.3-.221-1.557-1.6-.692-2.886C416.4,347.2,417.207,346.878,417.373,345.993Z" transform="translate(-236.453 -134.43)" fill="#222b5a"/>
          <path id="Trazado_617333" data-name="Trazado 617333" d="M447.926,251.7a5.424,5.424,0,0,1-3.229-.322c-2.241-1.04-4.214-.349-6.109.656a5.009,5.009,0,0,1-3.546.587c-.2.148-.409.292-.625.429a4.557,4.557,0,0,1-3.243.841,4.7,4.7,0,0,0-3.43.814,9.773,9.773,0,0,1-2.319,1.208,1.633,1.633,0,0,0-1.132,1.176c-.14.482-.471.914-.578,1.4-.732,3.305-3.368,4.66-6.16,5.2-3.163.614-5.457,2.6-8.117,4.01a2.065,2.065,0,0,0-.847,1.438,3.867,3.867,0,0,1-2.269,2.605c-2.227,1.045-3.512,3.209-5.253,4.836-.535.5-.4,1.3-.4,2,.005,4-.011,8.006.018,12.008.059,8.322.145,16.644.212,24.966.019,2.241.5,2.87,2.724,3.22a5.688,5.688,0,0,1,2.357.659,2.018,2.018,0,0,0,2.312-.084,4.456,4.456,0,0,1,3.812-.527c1.247.4,3.429-1.281,3.751-2.8a5.916,5.916,0,0,1,2.062-3.69,2.694,2.694,0,0,0,1.066-2.955,2.317,2.317,0,0,1,.168-1.676c.226-.518.657-.951,1.164-.789,1.59.511,2.967-.429,4.44-.43.317-.658-.419-1.3.13-1.862a2.8,2.8,0,0,1,1.917-.689,7.27,7.27,0,0,0,5.069-2.193,4.74,4.74,0,0,1,2.564-1.169,1.039,1.039,0,0,1,1.2.371c.421.764,1.1.609,1.765.764,1.1.258,2,.454,2.82-.652.369-.5,1.2-.358,1.82-.3,2.847.281,5.5-.878,8.278-1.088.805-.061,1.145-.716,1.461-1.356a2.461,2.461,0,0,1,2.868-1.652,1.391,1.391,0,0,0,1.374-.482c1.435-1.641,3.305-1.727,5.243-1.416a1.988,1.988,0,0,0,1.418-.264,3.329,3.329,0,0,1,3.93.214,2.294,2.294,0,0,0,2.577.413c-.347-2.3-1.5-4.39-1.861-6.712-.5-3.24-1.717-6.335-.455-9.764a7.177,7.177,0,0,0-.232-5.127,2.424,2.424,0,0,1,.093-1.718c.126-.32.595-.629.415-.92-1.656-2.683.765-3.6,2.118-4.966a5.723,5.723,0,0,0,1.524-4.767,3.242,3.242,0,0,1,1.3-3.1,6.41,6.41,0,0,0,1.778-7.4c-.533-1.056-1.048-1.629-2.321-1.154-.949.354-1.565-.48-2.282-.924-2.4-1.491-2.186-1-4.227.117-1.993,1.087-4.124,2.211-6.644,1.633a2.439,2.439,0,0,0-2.314.491,4.446,4.446,0,0,1-4.531.778A6.84,6.84,0,0,0,447.926,251.7Z" transform="translate(-238.753 -123.688)" fill="#ffae00"/>
          <path id="Trazado_617334" data-name="Trazado 617334" d="M323.7,244.334a2.171,2.171,0,0,0-.781,2.506c.191.888.612,1.761,1.706,1.753.928-.006,1.767.654,2.775.19.6-.276,1.094.24,1.271.835a6.737,6.737,0,0,1,.2,1.5,1.58,1.58,0,0,0,1.624,1.721,2.805,2.805,0,0,1,2.054.858,3.383,3.383,0,0,0,3.618,1.063,14.073,14.073,0,0,1,2.43-.429,1.5,1.5,0,0,0,1.619-1.66,7.489,7.489,0,0,1,1.75-4.332,1.243,1.243,0,0,1,1.824-.361,4.332,4.332,0,0,1,1.786,4.34c1.787-.981,3.871-1.452,5.285-3.081a.778.778,0,0,1,.885-.182c1.09.436,1.674-.183,2.162-.994.565-.94,1.133-1.845,2.348-2.051.561-.1.648-.574.606-1.032-.046-.5-.174-.995-.267-1.492-.246-1.307-.567-2.606-.714-3.925-.1-.873.569-1.407,1.583-1.513.9-.094,1.364.286,1.5,1.266.053.375,0,.769.084,1.136.108.484.612.655.835.314.861-1.312,2.466-2.306,1.858-4.3a3.621,3.621,0,0,1,.132-2.612,1.29,1.29,0,0,0-.694-1.9c-1.718-.629-3.032-2.007-4.868-2.42-1.277-.287-1.646-.963-1.079-2.068a3.169,3.169,0,0,0,.125-2.741c-.633-1.481-.538-3.269-1.925-4.454-.666-.569-.115-2.178-1.382-2.165a21.636,21.636,0,0,0-2.819.275c-.319.046-.705.077-.819.392-.575,1.581-1.567,1.323-2.726.724a3.133,3.133,0,0,0-1.3-.249c-1.6-.061-2.836-.62-3.351-2.27-.182-.582-.456-.784-1.122-.5-1.646.71-2.444.243-2.7-1.534a6.849,6.849,0,0,1,.039-2.838c.326-1.175-.386-2.07-.81-3.042a.372.372,0,0,0-.464-.217c-.152.054-.384.246-.371.352.168,1.427-.566,2.988.335,4.271,1.022,1.456.622,2.862.33,4.369s.37,3.261-.856,4.547c-1.175,1.234-1.395,2.774-1.825,4.295a2.126,2.126,0,0,0,.743,2.487c1.248,1.069,1.217,1.274-.125,2.211a16.78,16.78,0,0,0-4.45,3.818,7.712,7.712,0,0,1-3.64,2.913c-1.418.549-1.388.625-1.044,2.072C325.479,241.851,325.317,243.31,323.7,244.334Z" transform="translate(-230.241 -119.441)" fill="#00558c"/>
          <path id="Trazado_617335" data-name="Trazado 617335" d="M319.461,256.619a2.948,2.948,0,0,0,3.024.272,4.469,4.469,0,0,1,.55-.155c2.316-.7,3.372-.813,3.473,2.638A3.623,3.623,0,0,0,328.674,263a4.887,4.887,0,0,1,1.737,1.454c.533.68,1.073.55,1.55-.086.3-.406.566-.845.88-1.243a4.341,4.341,0,0,1,2.658-1.707c1.585-.3,1.624-.325,1.994,1.286.1.431.2.688.684.712.948.049,1.258.738,1.44,1.521a2.556,2.556,0,0,0,1.231,1.8c1.17.7,1.319,2.11,1.864,3.236a3.147,3.147,0,0,1-.3,3.4c-.586.858-.4,1.411.589,1.788a3.649,3.649,0,0,1,2.511,2.351,1.065,1.065,0,0,0,1.03.718,1.484,1.484,0,0,1,1.406.81c.26.567.615.782,1.19.413.555-.356,1.182-.847.878-1.5-1.209-2.619.217-4.161,2.112-5.542.468-.341.683-.654.443-1.266a2.681,2.681,0,0,1,.029-2.4,12.154,12.154,0,0,1,2.6-3.259c.725-.581,1.417-.118,2.026.431,1.368,1.232,1.481,1.233,2.6-.2.883-1.139,2.2-1.859,2.884-3.21a1.892,1.892,0,0,1,2.006-.807,2.055,2.055,0,0,0,1.82-1.5c.276-.753-.221-.992-.729-1.307-.863-.533-1.7-1.105-2.531-1.694-1.063-.758-1.1-1.4,0-2.181.482-.344.733-.646.658-1.217a2.731,2.731,0,0,1,.266-1.48,1.4,1.4,0,0,0-.156-1.422,3.276,3.276,0,0,1,.393-4.2,18.56,18.56,0,0,0,1.357-2.069c.24-.378.487-.912.906-.926,2.472-.082,2.116-2.4,2.96-3.733.412-.649.261-1.635,1.11-2.1a.442.442,0,0,0,.224-.29c-.025-1.774,1.264-2.976,1.9-4.462q.114-.264.238-.521l-.42-.028a2.347,2.347,0,0,1-1.205-.406,7.739,7.739,0,0,1-.955.651,17.663,17.663,0,0,1-4.027,2.021,2.61,2.61,0,0,0-1.066.769c-.567.6-1.014,1.361-2.048.809-.37-.2-.542.154-.692.436a2.779,2.779,0,0,0-.061,2.048c.611,2.519-1.2,3.984-2.466,5.671-.322.432-.935.345-1.438.214-.468-.122-.924-.3-1.383-.449a3.2,3.2,0,0,0,.223,1.82,5.167,5.167,0,0,1,.14,2.077c-.045.772-.38,1.436-1.163,1.538a2.676,2.676,0,0,0-1.982,1.583c-.618,1.01-1.379,1.849-2.741,1.673a1.623,1.623,0,0,0-1.037.4,21.735,21.735,0,0,1-2.5,1.366A3.774,3.774,0,0,0,346,256.884c-.23.58-.566,1.19-1.369,1.1-.877-.093-1.071-.808-1.241-1.489a2.893,2.893,0,0,1,.074-1.873c.189-.441.817-.745.523-1.327a2.72,2.72,0,0,0-1.234-1.459c-1.342.916-1.487,2.391-1.743,3.806-.1.56-.1,1.143-.227,1.7-.1.443-.383.907-.91.786-1.38-.316-2.624.309-3.928.484-1.656.222-3.177.115-4.39-1.2a2.675,2.675,0,0,0-1.5-.739c-2.235-.493-2.566-.909-2.753-3.169a4.98,4.98,0,0,0-.106-.552c-1.961.4-4.359-.76-5.9-2.837-.63.1-.577.645-.542,1.02a7.2,7.2,0,0,1-1.083,4.71A3.021,3.021,0,0,0,319.461,256.619Z" transform="translate(-229.873 -121.992)" fill="#00558c"/>
          <path id="Trazado_617336" data-name="Trazado 617336" d="M272.411,361.056A3.751,3.751,0,0,0,274.836,364a1.241,1.241,0,0,0,1.1-.087c1.326-.6,2.625-1.335,4.116-.345.327.217.781-.094.9-.472s-.2-.535-.544-.6c-1.175-.218-1.655-1.423-2.708-1.9-.562-.251-.65-1.186-.541-1.915.226-1.5.295-3.046,1.446-4.262a8.337,8.337,0,0,1-.772-.736,12.33,12.33,0,0,0-2.785-2.249c-1.117-.345-1.362-1.154-1.385-2.21-.037-1.66-.081-1.659-1.725-2.015-1.313-.285-1.865-1.1-1.352-2.319a1.657,1.657,0,0,0-.074-1.594,2.518,2.518,0,0,1-.242-1.482c.127-1.279.667-1.789,1.977-1.767a10.14,10.14,0,0,1,2.069.268.874.874,0,0,0,1.164-.651c.379-1.078.735-2.164,1.119-3.241.594-1.67,1.168-2.015,2.838-1.517a1.958,1.958,0,0,0,2.443-.881,8.035,8.035,0,0,1,.542-.783c.8-.927,1.363-.9,2.117.12.226.3.371.669.594.975a.745.745,0,0,0,1.021.193c.375-.2.2-.542.087-.831q-.859-2.219-1.639-4.467a9.166,9.166,0,0,1-.672-3.13,2.42,2.42,0,0,0-1.105-2.1c-.465-.326-.844-.771-1.294-1.123a2.383,2.383,0,0,1-.985-2.507c.2-.979-.356-1.292-1.108-1.667-1.717-.856-3.494-.347-5.245-.37-.464-.006-.528.484-.59.852a2.77,2.77,0,0,1-3.06,2.5c-.249,0-.595-.02-.734.124-1.027,1.072-2.4,1.136-3.7,1.538-1.048.322-1.722.321-2.312-.463a2.1,2.1,0,0,0-2.471-.883,4.734,4.734,0,0,1-2.927-.494c-1.443-.55-2.352-1.835-3.773-2.4-.634-.254-.769-1.116-.985-1.786-.057-.175-.115-.334-.174-.486-.727.485-.868,1.726-1.074,2.593a5.912,5.912,0,0,1-3.106,4.36c-1.25.608-1.238,1.852-1.481,2.881-.526,2.227-.773,2.617-2.9,2.827a2.121,2.121,0,0,0-1.065.343c0,.048,0,.094,0,.143a2.505,2.505,0,0,0,.713,1.89c1.406,1.627,2.878,3.218,3.481,5.381a1.7,1.7,0,0,0,1.684,1.293c1.486.1,2.924.637,4.466.027.9-.354,1.7.06,2.028,1.158a4.286,4.286,0,0,0,2.127,2.561,2.334,2.334,0,0,1,.342,3.949c-.737.669-1.649,1.185-1.86,2.333,1.006.338,1.95.647,2.889.972.878.3,1.429-.208,2.007-.741,1.412-1.306,2.168-1.25,3.111.358a5.475,5.475,0,0,0,1.417,1.492c1.389,1.118,1.515,1.7.533,3.175a2.845,2.845,0,0,0,.092,3.049.646.646,0,0,0,1.113.172c.628-.67,1.612-.734,2.213-1.445a.8.8,0,0,1,1.321.071,3.2,3.2,0,0,1,1.068,2.908A7.435,7.435,0,0,0,272.411,361.056Z" transform="translate(-221.6 -131.256)" fill="#ffcf45"/>
          <path id="Trazado_617337" data-name="Trazado 617337" d="M296.65,265.278c-.483.151-.979.414-1.472.175a1.969,1.969,0,0,0-2.266.492c-.55.452-1.548.729-1.327,1.633.24.98,1.159.418,1.8.469a1.8,1.8,0,0,1,1.826,1.8,1.773,1.773,0,0,1-1.791,1.812c-1.225-.133-1.367.452-1.423,1.393a20.367,20.367,0,0,1-.4,2.25c2.212-.989,2.483-.9,3.215,1.16.22.62.4,1.055,1.171.827a3.581,3.581,0,0,1,3.779,1.174c.268.274.5.6.956.367.435-.224.752-.574.561-1.068a4.036,4.036,0,0,1,.7-3.889c1.008-1.592,1.059-1.75,2.894-1.072,1.136.419,1.285.439,1.642-.745a2.351,2.351,0,0,1,2.7-1.861c1.157.1,2.256-.256,3.383-.2.608.029.769-.306.9-.747.311-1.031.651-2.056.91-3.1a16.47,16.47,0,0,0,.259-4.922.9.9,0,0,0-.607-.875c-.46-.165-.7.176-.929.473-.272.351-.521.72-.762,1.092-.827,1.27-1.795,2.025-3.484,1.546-1.307-.37-2.1.208-2.628,1.486a9.749,9.749,0,0,1-.46,1.043,2.62,2.62,0,0,1-2.409,1.584,2.267,2.267,0,0,1-2.261-1.735c-.356-1.535-1.648-2.357-2.344-3.607-.188-.338-.42-.436-.763-.249s-.7.373-.621.839c.042.241.234.454.3.7C297.982,264.632,297.8,264.921,296.65,265.278Z" transform="translate(-226.82 -125.071)" fill="#179587"/>
          <path id="Trazado_617338" data-name="Trazado 617338" d="M273.763,297.543a18.6,18.6,0,0,0-3.428,1.639,1.308,1.308,0,0,1-1.991-.363,1.145,1.145,0,0,0-1.285-.577c-.231.051-.61.044-.724-.1-.934-1.149-2.26-.939-3.488-1.069a2.8,2.8,0,0,1-1.566-.628,4.383,4.383,0,0,0-3.386-.858,1.32,1.32,0,0,0-.961.468,31.644,31.644,0,0,1-2.368,2.274c.038.03.071.064.111.094.689.5.693,1.376,1.275,1.889.287-.391.835-.626,1.081-1.053,1.008-1.755,1.9-1.617,3.178.175-.467.6-1.255.92-1.578,1.7.217,1.53,1.3,1.6,2.508,1.518.753-.05,1.619-.144,1.7.948.052.72.272,1.618-.934,1.73-.264.024-.738.255-.73.363.16,2.36-1.509,2.992-3.263,3.653-.686.259-.977,1.071-1.327,1.7-.266.476-.351.967-.777,1.3.078.2.153.4.223.627a1.937,1.937,0,0,0,1.437,1.582,1.628,1.628,0,0,1,1,.512,4.243,4.243,0,0,0,4.53,1.6,2.2,2.2,0,0,1,2.385.8c.415.564.808.653,1.588.48,1.217-.27,2.466-.259,3.407-1.266a1.057,1.057,0,0,1,.728-.165c1.757.075,2.414-.883,2.675-2.505.23-1.424.647-1.548,2.1-1.114a1.446,1.446,0,0,0,.72.14c1.708-.524,3.251.084,4.814.631,1.169.41,1.387.288,1.706-.924a5.733,5.733,0,0,0,.253-1.5c-.036-3.067,1.531-5.671,2.4-8.473a6.158,6.158,0,0,1,2.895-3.858,1.11,1.11,0,0,0,.536-1.589,34.841,34.841,0,0,0-1.691-4.237,11.117,11.117,0,0,1-1.284-5.69c.036-1.5.218-1.68,1.668-1.529a1.45,1.45,0,0,0,1.421-.367c-1.231-.118-1.9-1.336-3.232-1.028-.462.107-.727-.436-.888-.862-.338-.889-.616-1.8-1-2.67-.417-.94-.784-.91-1.781-.507-1.454.587-2.054,2.019-3.17,2.935a10.24,10.24,0,0,1-1.945,1.5,3.966,3.966,0,0,0-2.381,3.62,3.007,3.007,0,0,1-.943,2.393c-.253.212-.532.55-.386.809.573,1.023.454,2.382,1.276,3.2.8.79.513,1.294-.021,1.923A2.76,2.76,0,0,1,273.763,297.543Z" transform="translate(-222.775 -127.243)" fill="#ffcf45"/>
          <path id="Trazado_617339" data-name="Trazado 617339" d="M256.84,376.53c.02-1.014-.1-1.865-1.2-2.328a1.053,1.053,0,0,1-.431-1.741c1.276-1.771,1.41-4.065,2.766-5.812a1.52,1.52,0,0,0-.309-2.455c-.737-.509-.59-1.343-.252-2.082a3.928,3.928,0,0,1,2.617-2.049c.482-.152.989-.229,1.466-.392.852-.291,1.388-.664,1.054-1.8a3.187,3.187,0,0,1,.507-3.239.751.751,0,0,0-.224-1.274,4.3,4.3,0,0,1-2.074-2.406c-.68.015-.867.39-1.137.634a2.75,2.75,0,0,1-3.459.621,8.4,8.4,0,0,0-2.018-.53c-1.425-.38-1.808-1.292-1.087-2.59a8.427,8.427,0,0,1,1.919-2.094c.949-.845.908-1.387-.192-2.04a5.925,5.925,0,0,1-2.33-2.69c-.316-.671-.578-1.128-1.38-.72-1.86.949-3.581-.224-5.359-.406-.924-.094-1.418-1.072-1.654-1.94a11.84,11.84,0,0,0-2.959-4.6,5.3,5.3,0,0,1-1.166-1.9,18.48,18.48,0,0,1-1.967.9c-.292-.376-.9-.6-.913-1.129-.012-.728-.253-.95-.979-.976-.937-.034-.721.861-1.016,1.086-.615.466-.053,1.193-.84,1.689-1.486.933-1.852-.515-2.694-.89a2.236,2.236,0,0,0-2.094,1.955c-.066.6-.526,1.076-.793,1.085a1.357,1.357,0,0,0-1.5,1.579c.045,1.049-.331,2.113.7,3.088a3.309,3.309,0,0,1-.928,5.472c-.676.336-.732,1.161-.524,1.293.61.388.336.982.474,1.413.232.723-.02,1.17-1.091.972-5.347-.995-4.973-.193-6.909,3.5a11.976,11.976,0,0,0,4.059,3.322c1.848.752,2.627,2.386,3.423,4.013.362.739.667,1.543,1.72,1.325,2.185-.451,3.7.713,4.714,2.327a4.946,4.946,0,0,0,3.87,2.222,7.5,7.5,0,0,1,3.049,1.168,8,8,0,0,0,5.719,1.564c1.062-.163,2.152-.283,2.362,1.484a3.337,3.337,0,0,0,2.406,2.843c1.052.28.967.987.944,1.742a2.081,2.081,0,0,0,1.538,2.235,18.733,18.733,0,0,0,4.134.873C256.818,378.072,256.826,377.3,256.84,376.53Z" transform="translate(-218.87 -132.858)" fill="#ffcf45"/>
          <path id="Trazado_617340" data-name="Trazado 617340" d="M267.321,198.271a1.274,1.274,0,0,1,.938.958c.346,2.914,2.071,5.444,2.3,8.385a3.079,3.079,0,0,1-.956,2.669c-3.448-.8-3.619-1.392-1.278-4.653a4.556,4.556,0,0,1-1.3-.861,3.823,3.823,0,0,1-1.506,3.037c-.187.139-.427.423-.4.6a5.059,5.059,0,0,1-1.019,3.571.769.769,0,0,0,.252,1.016,5.2,5.2,0,0,0,.73.61c4.063,2.483,6.555,6.482,9.616,9.933,1.589,1.79.8,3.852.711,5.824-.023.517-.594.577-1.063.54a5.48,5.48,0,0,1-2.444-.986c-1.279-.794-2.3-.352-2.661,1.121a6.071,6.071,0,0,0-.077.949,1.434,1.434,0,0,1-1.385,1.523,4.305,4.305,0,0,0-.936.172c-.824.271-1.046,1.117-.312,1.543a2.683,2.683,0,0,1,1.693,2.7c-.031.363.266.566.56.694a2.3,2.3,0,0,1,1.344,2.512c-.164,2.038,1.5,3.113,2.284,4.646a.7.7,0,0,0,.847.258c1.537-.359,3.1-.634,4.6-1.124,1.671-.548,3.829.216,4.207,1.925a26.281,26.281,0,0,0,2.655,6.485,4.552,4.552,0,0,1,.471,3.135,7.451,7.451,0,0,0-.046,2.843c.213,1.193.889,1.423,1.868.682.658-.5,1.274-1.051,1.917-1.568a3.644,3.644,0,0,1,3.346-.936,1.031,1.031,0,0,0,.9-.168c-.35-2,.1-2.832,1.876-3.481.739-.269,1.426-.262,1.687.636a3.443,3.443,0,0,0,1.3,1.816,3.873,3.873,0,0,1,1.025,2c.242.679.57,1.384,1.39,1.361.786-.022,1.166-.693,1.425-1.369.355-.927.46-1.978,1.643-2.383a4.745,4.745,0,0,1,2.789-.31,1.634,1.634,0,0,0,1.9-.892c.389-.58.786-1.156,1.214-1.707a1.505,1.505,0,0,1,1.631-.747c.879.3,1.141,0,1.509-.791a6.467,6.467,0,0,0,.81-3.421,4.487,4.487,0,0,1,1.38-3.637c.843-.808,1.035-2.159,2.327-2.605.39-.134.385-.76.407-1.209a5.516,5.516,0,0,0-.276-1.678c-.468-1.782-.357-2.048,1.324-2.685a7.854,7.854,0,0,0,3.985-3.062c1.06-1.6,2.833-2.51,4.269-3.757-.029-.737-.893-.944-.818-1.662-.926-.01-1.3.658-1.844,1.052a4.513,4.513,0,0,1-3.68,1.163,1.953,1.953,0,0,1-1.763-1.726,3.7,3.7,0,0,0-.253-1.295,4.624,4.624,0,0,1-.024-5.044c.044-.073-.048-.227-.081-.357-.794.188-.953.941-1.333,1.491-.69,1-1.088,1.029-1.877.093a3.7,3.7,0,0,1-1.019-2.965c.141-1.069.184-2.15.276-3.225.022-.252-.029-.611.115-.737,1.418-1.243.664-2.816.509-4.181a7.374,7.374,0,0,0-2.543-4.3,13.66,13.66,0,0,0-1.409-.967c-.584-.436-1.109-.575-1.641.089a1.852,1.852,0,0,1-1.322.676,6.985,6.985,0,0,0-3.733,1.209c-.741.558-1.467.066-2.1-.355a1.177,1.177,0,0,0-1.9.341c-1.106,1.6-1.9,3.482-3.827,4.377-.284.131-.295.533-.387.839-.423,1.415-.46,1.5-1.729,1.077-.682-.227-.894.013-1.186.489-1.058,1.721-2.471,3.224-3,5.267-.289,1.126-1.241,1.482-2.333,1.63-2.219.3-4.477-.222-6.648.159-2.664.468-4.1-.347-4.775-3-.382-1.507-1.59-2.722-1.9-4.336a3.528,3.528,0,0,1,.976-3.644,4.741,4.741,0,0,0,1.487-3.213,36.2,36.2,0,0,1,1.11-4.818,3.42,3.42,0,0,1,1.612-2.033,3.449,3.449,0,0,0,1.462-2.553c.169-1.367.134-1.513-1.264-1.986a2.355,2.355,0,0,1-1.7-2.078c-.146-1.087-.213-2.174-1.364-2.763a.7.7,0,0,1-.311-.463c-.015-.094-.04-.182-.058-.273a10.358,10.358,0,0,0-1.12,1.307,8.75,8.75,0,0,1-5.815,3.519c-.578.119-1.129.341-1.708.411-.752.091-1.38.281-1.526,1.153A1.281,1.281,0,0,0,267.321,198.271Z" transform="translate(-223.806 -117.421)" fill="#179587"/>
          <path id="Trazado_617341" data-name="Trazado 617341" d="M249.837,230.454a2.624,2.624,0,0,1,1.042,3c-.384,1.242.206,2.148,1.67,2.072,1.027-.053,1.491.529,1.919,1.339,1.368,2.584,1.346,5.4,1.529,8.2.149,2.272-.7,4.583,1.234,6.748,1.46,1.636-.7,5.6-2.969,5.783a3.356,3.356,0,0,0-2.065,1.225c-.812.73-.539,1.623.552,1.835.538.1,1.171.126,1.294.621.449,1.813,1.885,3.487.971,5.514-.407.9-.613,1.653.39,2.3.729.473.385,1.262.364,1.9-.047,1.418.041,2.678,1.335,3.652a1.5,1.5,0,0,1,.252,2.482c-.97,1.135-.811,2.76-1.207,4.153-.225.794-.1,1.647-1.448,2.078a4.132,4.132,0,0,0-2.473,2.706,3.158,3.158,0,0,0,.349,2.145q.594-.5,1.177-1.014a8.106,8.106,0,0,0,.81-.8,3.358,3.358,0,0,1,4.458-1.08c1.735.773,3.366,1.777,5.376,1.535.973,1.054,2.765.407,3.612,1.748a.546.546,0,0,0,.831.153,26.007,26.007,0,0,1,3.448-1.655c-.645-1.468-.5-3.07-1.189-4.488a1.4,1.4,0,0,1,.651-1.66,2.157,2.157,0,0,0,.818-1.825,4.9,4.9,0,0,1,2.858-4.4,10.8,10.8,0,0,0,3.445-3.191c.76-.992.728-1.46-.143-2.275a4.635,4.635,0,0,1-1.211-1.445c-1.349-3.06-1.387-4.222,1.61-6.454a3.364,3.364,0,0,1,.483-.305c1.551-.781,2.05-1.935,2.14-3.753a10.209,10.209,0,0,0-1.674-6.278,12.383,12.383,0,0,1-1.18-3.4c-.476-1.648-1.4-2.117-3.052-1.674-1.53.41-3.087.719-4.636,1.053a1.869,1.869,0,0,1-2.219-1.047,3.51,3.51,0,0,0-.684-1.128,4.162,4.162,0,0,1-1.536-3.693,1.653,1.653,0,0,0-1.058-1.834,1.374,1.374,0,0,1-.929-1.5,1.6,1.6,0,0,0-.954-1.692,2.081,2.081,0,0,1-1.121-2.557,1.783,1.783,0,0,1,1.914-1.509c.826-.027,1.094-.415,1.09-1.188a3.139,3.139,0,0,1,1.093-2.154,2.222,2.222,0,0,1,3.218-.458,5.1,5.1,0,0,0,1.8.921c.523-1.551.733-3.033-.473-4.385-2.945-3.3-5.372-7.079-9.222-9.531-1.966-1.251-2.015-1.918-.872-3.921a2.237,2.237,0,0,0,.393-1.966,1.3,1.3,0,0,1,.794-1.838,2.321,2.321,0,0,0,1.28-2.186c.023-.463.04-.927.059-1.391-.893-1.428-2.835-1.918-4.026-3.241a8.133,8.133,0,0,1-2.1-2.884c-.482-1.453-1.6-1.706-3-.968-1.8.948-2.007,1.461-1.135,3.045a5.164,5.164,0,0,0,1.155,1.694c2.622,1.983,2.565,5.34,4.1,7.884.642,1.061-.435,2.165-1.267,3.006a41.864,41.864,0,0,0-5.688,6.868,2.282,2.282,0,0,0-.993-.519c-.855-.173-1.339-1.274-2.268-.984-.944.295-1.041,1.176-1.2,2.064-.113.647-.96.8-1.491,1.135-2.3,1.439-2.426,2.249-.765,4.221C246.614,227.048,247.854,229.04,249.837,230.454Z" transform="translate(-221.617 -118.087)" fill="#ffcf45"/>
          <path id="Trazado_617342" data-name="Trazado 617342" d="M280.812,191.509c.183,1.093.448,1.929,1.8,2.011.959.059,1.413.736,1.4,1.713-.017,1.9-.264,3.693-2.024,4.858-1.642,1.087-1.684,2.96-1.991,4.564-.413,2.158-.74,4.237-2.45,5.827-.639.593-.442,1.445-.258,2.17.533,2.114,1.975,3.828,2.665,5.881.12.359.478.369.8.367,2.6-.02,5.207-.036,7.811-.067a2.044,2.044,0,0,0,2.2-1.651c.663-2.226,2.384-3.871,3.529-5.842.061-.105.186-.173.262-.273.5-.665,1.571.615,1.908-.542a1.849,1.849,0,0,1,1.455-1.324,2.2,2.2,0,0,0,1.1-1.022c.462-.684.933-1.362,1.393-2.048,1.423-2.128,1.616-2.2,3.993-1.191.526.224.988.319,1.4-.077a3.9,3.9,0,0,1,2.636-.867c1.5-.112,2.114-.75,2.332-2.265a6.5,6.5,0,0,1,.352-2.425c.173-.316-.044-.592-.374-.746a3.06,3.06,0,0,0-1.8-.5,1.686,1.686,0,0,1-1.448-.27c-.643-.548-1.042-.281-1.606.217-1.457,1.287-2.186,1.2-3.664-.133a4.418,4.418,0,0,0-1.121-.707,1.8,1.8,0,0,1-1.231-2.258,2.079,2.079,0,0,0-.6-1.737,3.422,3.422,0,0,1-.5-2.911,2.285,2.285,0,0,1,1.829-1.96,8.463,8.463,0,0,0,1.466-.411c.94-.375,1.117-1.193.281-1.688a7.68,7.68,0,0,1-2.43-2.07,1.433,1.433,0,0,0-.825-.419c-.94-.2-1.877-.326-2.133-1.531-.078-.368-.578-.486-.939-.581a13.726,13.726,0,0,1-3.042-1.553,3.6,3.6,0,0,1-2-2.226c-1.019.065-1.669.826-2.4,1.54-1.421,1.388-2.166,3.261-3.415,4.779a5.822,5.822,0,0,1-2.461,1.785,15.608,15.608,0,0,0-3.614,2.079A9.8,9.8,0,0,1,280.812,191.509Z" transform="translate(-225.24 -116.051)" fill="#d0d0d1"/>
          <path id="Trazado_617343" data-name="Trazado 617343" d="M485.625,350.681c.192-.813-.38-1.474-.774-2.078a14.337,14.337,0,0,1-2.48-6.3,2.9,2.9,0,0,0-1.28-2.333c-1.282-.846-1.4-2.353-1.343-3.768a2.6,2.6,0,0,0-.951-2.313,6.357,6.357,0,0,1-2.4-3.384c-.189-.788-.827-2.142-2.412-1.41a.963.963,0,0,1-1.322-.9c-.1-1.807-1.371-2.135-2.847-2.09-.876.027-1.718.06-2.12-.937,2.374-2.374,4.667-4.788,7.1-7.049,1.142-1.061,1.183-3.049,3.026-3.386a5.35,5.35,0,0,0-2.661-4.854c-1.838-1.095-1.9-3.191-2.444-4.954-.353-1.15-.183-2.476-1.95-2.486a.669.669,0,0,1-.568-.3c-.15.067-.3.136-.445.218a2.076,2.076,0,0,1-2.334-.268c-1.336-1.025-2.672-1.473-4.067-.064-.405.41-.891.295-1.4.048a3.653,3.653,0,0,0-4.178.763c-.695.583-1.36,1.225-2.353.94a1.367,1.367,0,0,0-1.8.955,3.25,3.25,0,0,1-3.12,2.08c-2.715.2-5.316,1.313-8.1,1.01a1.059,1.059,0,0,0-1.072.639,1.454,1.454,0,0,1-1.453.737,12.545,12.545,0,0,0-3.557-.249c-.24.045-.447-.155-.643-.338-.866-.8-1.489-.928-2.073-.148-1.344,1.795-3.286,2.188-5.275,2.465-.943.132-1.517.22-1.321,1.451.121.753-.613,1.257-1.4,1.225-1.4-.057-2.624,1.005-4.1.564-.478-.143-.632.478-.508.793.539,1.357-.061,2.434-.735,3.513-.165.265-.283.68-.515.761-1.46.509-1.66,1.746-1.935,3.013a4.086,4.086,0,0,1-2.268,2.864,69.932,69.932,0,0,1-6.173,3.382,5.543,5.543,0,0,0-1.9,1.613c-.045.611.329.663.594.78a3.289,3.289,0,0,1,2.043,2.958c.147,1.518.255,1.558,1.791,1.437.509-.04,1.1-.24,1.494.05a3.716,3.716,0,0,0,3.779.739c1.189-.409,2.58.549,3.938.18a1.945,1.945,0,0,1,.938.018c.652.163,1.475.132,1.656,1.022.176.865-.434,1.232-1.083,1.575-.371.2-.965.377-.721.939.627,1.445-.341,2.253-1.137,3.148-.168.19-.367.354-.526.55-.382.472-.509.963.24,1.143a5.272,5.272,0,0,1,2.952,2.268c.3.4.6,1,1.131.927a4.076,4.076,0,0,1,2.374.428,1.969,1.969,0,0,1,1.518-.564,3.415,3.415,0,0,0,2.671-1.394c.727-.788,2.567-1.011,3-.169,1.45,2.829,3.982,2.366,6.338,2.231,3.177-.184,6.349-.33,9.532-.369,2.733-.034,5.464-.252,8.2-.346.453-.015.727-.376,1.143-.4l.762.381c-1.916-1.739-2.094-2.569-1.16-4.392.59-1.153,1.795-.944,2.028-.34.831,2.15,3.621,2.57,3.807,5.1,1.021-.555,1.934-.511,2.569-1.135l.763-.381c-.822-.3-1.056-.875-.566-1.52a6.353,6.353,0,0,1,2.684-1.861,5.224,5.224,0,0,0,2.688-2.121,4.977,4.977,0,0,1,4.4-2.251,2.415,2.415,0,0,1,.264,2.391c-.92,2.162.238,3.606,1.619,4.745a6.8,6.8,0,0,1,2.646,5.955,4.351,4.351,0,0,0,.7,3.276c.6.746.136,1.873.24,2.822.241,2.218.386,2.275,2.667,1.931a1.6,1.6,0,0,0,1.527-2.7C485.909,355.135,485.061,353.065,485.625,350.681Z" transform="translate(-239.499 -129.537)" fill="#222b5a"/>
          <path id="Trazado_617344" data-name="Trazado 617344" d="M305.205,195.238a1.007,1.007,0,0,0,1.637-.041c.98-1.174,2.007-1.434,3.3-.493.269.2.747.074,1.105.18,2.614.769,3.259.488,3.328,3.57,1.058-1,2.029-1.847,2.913-2.779a1.086,1.086,0,0,0-.037-1.266,5.047,5.047,0,0,1-.493-2.96,2.863,2.863,0,0,0-.323-1.653,3.691,3.691,0,0,1-.424-2.577,2,2,0,0,0-.971-2.068c-1.368-1.105-2.264-2.732-3.848-3.633a.436.436,0,0,1-.216-.3c.082-1.822-1.524-3.2-1.323-5.043a1.36,1.36,0,0,0-.824-1.543c-1.088-.519-2.013-1.31-3.117-1.826a4.909,4.909,0,0,0-2.16-.544c-1.826,0-2.534-.848-1.876-2.508.443-1.118.105-1.594-.837-1.8-1.318-.282-1.636-1.088-1.727-2.316a23.967,23.967,0,0,0-.754-3.532,3.053,3.053,0,0,0-1.366-1.927c-.161.407-.306.8-.827.863h.763c1.041.169,1.429.68.96,1.719-.315.7-.542,1.424-.923,2.114a2.814,2.814,0,0,0-.018,3.2,1.694,1.694,0,0,1-.044,2.284,5.5,5.5,0,0,0-1.141,3.64c0,1.307-.7,2.207-1.67,2.126a3.207,3.207,0,0,0,1.063.876,21.688,21.688,0,0,0,1.995,1.111c1.15.5,2.439.719,3.062,2.048.114.242.668.292,1.028.4A2.654,2.654,0,0,1,303,181.6a4.119,4.119,0,0,0,1.721,1.434,2.3,2.3,0,0,1,1.362,2.328,2.087,2.087,0,0,1-1.905,1.846,5.339,5.339,0,0,0-.542.176c-1.873.563-2.278,1.664-1.251,3.389.224.379.671.816.607,1.147C302.624,193.816,304.176,194.315,305.205,195.238Z" transform="translate(-227.12 -114.12)" fill="#d0d0d1"/>
          <path id="Trazado_617345" data-name="Trazado 617345" d="M416.669,252.625c-.073-.223-.283-.56-.446-.569a4.1,4.1,0,0,1-3.594-1.89c-1.735.156-3.527-.615-5.215.351-.549.314-1.139.558-1.717.818a3.7,3.7,0,0,1-3.294.017,4.565,4.565,0,0,0-3.629-.046c-1.111.441-2.017.679-2.959-.217a1.092,1.092,0,0,0-.665-.33c-1.887.03-3.8-.45-5.655.267-1.671.647-3.349,1.209-5.168.672-.461-.136-.878.143-1.308.113-3.4-.231-6.339,1.549-9.555,2.142-1.673.308-2.523.2-3.367-1.251a12.156,12.156,0,0,1-.489-1.233.487.487,0,0,0-.6-.329c-.47.156-.27.509-.135.761.29.542,1.026,1,.721,1.664-.684,1.479.048,3.334-1.473,4.613.907.63,1.664,1.2,2.463,1.7,1.357.854,1.592,1.541.908,2.961a6.113,6.113,0,0,0-.778,1.7c-.275,1.682-.9,1.9-2.23.9a1,1,0,0,0-.862-.346c-.568,1.51-2.1,2.384-3.145,3.7a3.57,3.57,0,0,1-2.387,1.425c-.847.1-1.177-.637-1.621-1.148s-.828-.517-1.238.01c-.468.6-.939,1.2-1.4,1.8a1.526,1.526,0,0,0-.237,1.614c.634,1.445.147,2.341-1.18,3.121-1.608.947-1.9,2.524-1.115,4.2a6.355,6.355,0,0,0,1.628,1.826c.5.479,1.175.917,1.082,1.7-.115.978.434,1.323,1.166,1.7a3.169,3.169,0,0,1,1.663,2.2c.114.492.314.971.379,1.469.113.855.607,1,1.346.881a14.367,14.367,0,0,0,3.6-1.19,4.821,4.821,0,0,1,3.506-.4,2.768,2.768,0,0,0,2.669-.6,2.272,2.272,0,0,1,2.091-.689c1.583.583,2.661-.069,3.718-1.091a2.862,2.862,0,0,1,.995-.549,53.5,53.5,0,0,0,8.9-4.631c1.562-.942,2.93-2.29,4.775-2.7a4.085,4.085,0,0,0,2.11-1.456c1.942-2.042,3.551-4.482,6.272-5.663a1.573,1.573,0,0,0,.985-1.086,4.4,4.4,0,0,1,2.977-3.4,4.581,4.581,0,0,0,1.236-.878,10.674,10.674,0,0,1,4.98-2.234,9.484,9.484,0,0,0,3.2-1.164c1.315-.785,2.512-1.61,2.87-3.323a19.616,19.616,0,0,1,1.406-3.407A4.448,4.448,0,0,1,416.669,252.625Z" transform="translate(-233.746 -123.947)" fill="#ffae00"/>
          <path id="Trazado_617346" data-name="Trazado 617346" d="M424.848,417.668c-1.291-.212-2.323-.615-2.614-2.063-.114-.568-.437-.891-1.1-.639a2.17,2.17,0,0,1-2.68-.851c-.332-.435-.632-.8-1.244-.532a.533.533,0,0,1-.371.045c-1.724-.78-3.047-.507-4.063,1.244a1.051,1.051,0,0,1-1.682-.071,13.08,13.08,0,0,1-2.933-4.589,1.768,1.768,0,0,1-.113-.932,12.352,12.352,0,0,0-.014-5.366,9.091,9.091,0,0,1,.139-1.876c-.951.187-1.826.489-2.692-.226a4.39,4.39,0,0,1-1.537-2.1c-.239-.759-.643-.953-1.431-.631a16.529,16.529,0,0,1-2.911.867,2.356,2.356,0,0,1-2.986-1.411,9.328,9.328,0,0,1-.826-1.918c-.208-.715-.128-1.517-1.148-1.742-.468-.1-.517-.681-.566-1.125a1.846,1.846,0,0,0-1.8-1.665,4.013,4.013,0,0,1-2.747-1.111c-.222-.264-.572-.214-.892-.149-.428.086-.85.334-1.3.126a1.976,1.976,0,0,0-2.243.6,5.513,5.513,0,0,1-3.175,1.575,2.454,2.454,0,0,0-1.566,1.009,3.649,3.649,0,0,1-3.312,1.47,1.739,1.739,0,0,0-1.954,1.641,2.879,2.879,0,0,1-2.651,2.945,3.244,3.244,0,0,0-2.363,2.283c-.149.419-.244.861-.43,1.261-.723,1.554-1.753,1.9-3.165.917-.76-.531-1.234-.478-1.744.208-.113.152-.229.3-.344.456-1.75,2.3-2.387,2.355-4.45.3a5.6,5.6,0,0,0-2.731-1.235,12.813,12.813,0,0,1-1.685-.273c-1.388-.594-2.5-.868-3.185,1.007-.265.729-1.194.723-1.7-.017-.654-.952-1.352-.889-2.294-.639-1.372.365-2.63.287-3.416-1.222a1.391,1.391,0,0,0-1.927-.7,1.647,1.647,0,0,1-1.768-.374,2.538,2.538,0,0,0-1.351-.668c-3.905-.4-7.677-.561-11.485,1.193q-1.93.888-3.868,1.766c.048.144.092.291.128.443a5.547,5.547,0,0,0,.917,2.114c.634.841,1.175,1.708.444,2.874a1.5,1.5,0,0,0,.336,1.689c1.521,1.558,3.184,2.844,5.528,2.658a2.059,2.059,0,0,1,2.308,1.144,2.4,2.4,0,0,0,2.462,1.576c.5-.038.931.528,1.335.909.871.822,1.562,1.805,3.047,1.782.88-.013,1.821,2.849,1.509,4.318a8.89,8.89,0,0,0-.568,2.864c.243,2.276.859,2.926,3.248,2.635,3.463-.42,5.365,1.446,4.8,4.8a13.979,13.979,0,0,0,0,3.424c.045.535.571,1.323.917,1.278,2.728-.354,3.154,2.975,5.348,3.274,2.878.393,5.726-.149,8.578-.525a26.978,26.978,0,0,1,3.807-.3c2.474.037,4.213-1.182,5.886-2.605.989-.84,1.779-1.923,3.263-1.673.747.126.79-.978,1.532-.778.122-.061.246,0,.377.192,1.914,2.755,4.767,2.614,7.625,2.486a2.9,2.9,0,0,1,1.917.358c1.641,1.117,2.618,1.045,3.989-.177a10.946,10.946,0,0,0,.953-.954,1.816,1.816,0,0,1,2.873-.2,12.09,12.09,0,0,1,1.893,1.54,1.382,1.382,0,0,0,1.339.581,2.111,2.111,0,0,1,2.662,1.706c.1.437.344.558.767.581a5.284,5.284,0,0,1,2.3,1.111c1.184.688,2.141,1.625,3.791,1.7,1.057.052,2.083,1.581,3.018,2.549a1.349,1.349,0,0,1-.136,1.307c-2.491,3.847-4.908,7.732-7.563,11.482a45.529,45.529,0,0,0-4.837,7.953c-.219.5-.406,1.018-.856,1.234l.851-.125a1.238,1.238,0,0,0,1.672.556c1.364-1.264,2.309-.593,3.159.508,2.438-1.533,2.549-1.5,4.144-.483a5.711,5.711,0,0,1,1.486,1.374c1.455,1.927,2.819,3.922,4.216,5.892l.123.428a.319.319,0,0,1,.093-.212c1.129-1.087.826-2.56,1.087-3.845,1.221-6.021,2.267-12.076,3.416-18.111.81-4.246,1.548-8.51,2.327-12.763.859-4.7,1.5-9.437,2.528-14.095a70.548,70.548,0,0,0,1.6-11C425.732,417.83,425.293,417.741,424.848,417.668Z" transform="translate(-230.428 -139.343)" fill="#222b5a"/>
          <path id="Trazado_617347" data-name="Trazado 617347" d="M296.978,390.293c1.5,1.778,2.834,2.774,5.478,1.535a3.522,3.522,0,0,1,4.585.786,3.421,3.421,0,0,0,2.86.966c1.862-.044,3.847,1,4.089,2.67a3.2,3.2,0,0,0,1.614,2.293,6.237,6.237,0,0,1,1.488,1.66c1.9-.809,3.778-1.677,5.693-2.453a26.666,26.666,0,0,1,4.484-1.328,2.349,2.349,0,0,0-1.816-.737,6.523,6.523,0,0,1-4.64-1.891,2.976,2.976,0,0,0-2.605-.869,15.7,15.7,0,0,1-1.711.1c-1.376-.007-1.682-.158-2.011-1.512a1.837,1.837,0,0,0-1.777-1.639,1.814,1.814,0,0,1-1.57-1.461,4.8,4.8,0,0,0-.738-1.534,2.082,2.082,0,0,0-1.9-1.023c-1.635.106-2.555-.891-3.2-2.241a12.973,12.973,0,0,0-4.3-5.594,1.272,1.272,0,0,1-.582-.713c-.212-1.812-1.579-2.127-2.984-2.3-1.364-.167-2.69-.277-3.2-1.868-.088-.275-.368-.333-.617-.377a42.508,42.508,0,0,1-4.2-1.011,5.3,5.3,0,0,1-3.37-2.192c-.857-1.329-.955-1.288-2.342-.4-.9.578-1.766,1.275-2.913.334-.543-.446-1.242-.081-1.8.212-1.055.558-2.075.937-3.212.2a5.1,5.1,0,0,1-2.675-3.513,6.466,6.466,0,0,1,.029-2.084,7.186,7.186,0,0,0,.156-1.322c-.02-.889-.338-1.091-1.185-.814a2.4,2.4,0,0,0-.881.344,2.661,2.661,0,0,1-2.582.819c-.474-.116-.845.224-1.21.466a14.932,14.932,0,0,1-2.869.984,2.466,2.466,0,0,0-1.293,1.07c-.444.792.314.945.675,1.315a1.789,1.789,0,0,1,.394,1.781,4.6,4.6,0,0,1-.682,1.76c-1.243,1.532-1.379,3.537-2.345,5.173-.252.426-.12.685.273.923a2.414,2.414,0,0,1,1.056,2.307c-.008.961-.019,1.923-.027,2.884a4.249,4.249,0,0,0,.6-.226,1.58,1.58,0,0,1,1.343.31c2.406,1.395,4.842,2.681,7.813,1.426a3.536,3.536,0,0,1,2.816.182c1.489.8,2.508.354,3.454-.8,1.715-2.1,4.1-2.163,5.675.03.689.963,1.241,1.829,2.521,1.876.608.023.82.663.9.966.521,1.874,2.113,1.793,3.26,1.422,1.388-.449,2.012-.156,2.51,1.04.279.671.682,1.25,1.52,1.136A1.951,1.951,0,0,1,296.978,390.293Z" transform="translate(-223.499 -136.203)" fill="#222b5a"/>
          <path id="Trazado_617348" data-name="Trazado 617348" d="M289.442,364.885a2.991,2.991,0,0,0,1.929,1.435c1.59.362,3.018,1.272,4.694,1.319.577.016,1.277.12,1.462.712.387,1.235,1.319,1.266,2.355,1.473,1.752.351,3.76.522,4.083,2.945.019.143.248.265.393.381a15.1,15.1,0,0,1,4.379,5.805c.4.913.947,1.795,2.053,1.692,1.993-.183,2.9,1.082,3.571,2.56.4.867.734,1.555,1.8,1.674a2.071,2.071,0,0,1,1.692,1.608c.515,1.444.552,1.516,1.966,1.239a4.436,4.436,0,0,1,4.345,1.3,4.605,4.605,0,0,0,2.885,1.342c2.188.242,4.3.57,5.688,2.552.036.051.1.121.144.118,1.869-.121,3.542.937,5.258,1.059,1.5.107,2.57.3,3.365,1.515a1.283,1.283,0,0,0,1.633.606,3.743,3.743,0,0,1,3.854.458c.194-.282.3-.436.405-.591,1.026-1.5,1.128-1.535,2.7-.715a6.859,6.859,0,0,0,2.19.585,6.359,6.359,0,0,1,4.344,2.065c.71.879,1.083.8,1.805-.068.243-.293.434-.629.674-.923,1.144-1.4,1.782-1.555,3.383-.582.8.485,1.163.2,1.469-.475.157-.344.223-.728.354-1.085a4.424,4.424,0,0,1,3.179-3.025c1.255-.276,1.594-.947,1.786-2.06a3.081,3.081,0,0,1,3.214-2.624,2.592,2.592,0,0,0,2.322-.989,3.934,3.934,0,0,1,2.585-1.462c1.132-.148,1.939-.834,2.955-2.163-2.332.2-3.677-.649-4.482-2.377a.974.974,0,0,0-1.252-.588,1.668,1.668,0,0,1-1.954-.807,15.193,15.193,0,0,1-1.11-1.545c-.476-.87-.721-1.887-2.061-1.859-.428.01-.649-.556-.807-.981a15.505,15.505,0,0,0-.666-1.781c-.352-.679-.794-1.387-1.732-1.2-1.173.235-1.771-.448-2.283-1.3-.391-.655-.711-1.369-1.5-1.652a2.609,2.609,0,0,1-1.684-2.136c-.175-.852-.464-1.569-1.421-1.83a1.334,1.334,0,0,1-.757-.544c-.778-1.381-2.225-1.761-3.445-2.526a2.9,2.9,0,0,0-4.412,3.149c.322,1.268.074,1.542-1.174,1.855-.3.077-.7-.006-.923.159-1.634,1.206-2.916.415-4.253-.6-1.983-1.5-3.305-3.691-5.373-5.1a1.2,1.2,0,0,1-.5-.991c0-1.613-1.114-2.724-2.026-3.763a4.42,4.42,0,0,1-1.282-2.8c-.09-1.3-.571-1.646-1.9-1.414a10.725,10.725,0,0,0-3.1.875c-2.178,1.132-3.795-.6-5.675-.937-.213-.038-.457-.476-.506-.76-.312-1.788-1.607-2.1-3.1-2.1a3.228,3.228,0,0,1-2.225-.94c-.894-.81-1.747-1.664-2.636-2.479a2.835,2.835,0,0,1-.938-1.613c-.358-1.933-1.011-3.8-1.213-5.77-.28-2.731-.618-5.42,1.372-7.8a1.373,1.373,0,0,0-.932-2.258A1.681,1.681,0,0,1,313,326.806c-.2-.826-.72-1.027-1.513-1.119a2.087,2.087,0,0,0-2.245,1.024,5.379,5.379,0,0,0-1.256,3.309,1.974,1.974,0,0,1-1.317,2.105,1.98,1.98,0,0,0-1.083,1.242,6.092,6.092,0,0,1-2.863,3.189,1.622,1.622,0,0,0-.967,1.67,3.065,3.065,0,0,1-1.09,2.713,14.218,14.218,0,0,0-3.925,4.6c-.446.834-.978,1.673-2.154,1.594a.988.988,0,0,0-.985.755,7.126,7.126,0,0,1-1.64,2.073,14.86,14.86,0,0,0-2.316,3.015,6.484,6.484,0,0,1-1.43,1.77c-1.023.911-1.221.983-2.475.234-.608-.363-1.257-.411-1.5.1-.489,1.014-1.379,1.879-1.437,3.061s-.819,2.752,1.3,3.057c.084.012.156.191.211.3a3.272,3.272,0,0,0,2.461,1.51A3.652,3.652,0,0,1,289.442,364.885Z" transform="translate(-225.843 -132.221)" fill="#222b5a"/>
          <path id="Trazado_617349" data-name="Trazado 617349" d="M289.33,269.456c-.143-.245-.451-.175-.7-.167a5.218,5.218,0,0,1-2.062-.264,1,1,0,0,0-1.06.139c-.607.456-1.272.838-1.861,1.315-1.467,1.185-1.74,2.219-1.3,3.737.365,1.261,1.518,1.836,2.154,2.828a1.123,1.123,0,0,0,1.209.587c1.711-.064,2.438.27,2.743,1.949.382,2.1,2.348,2.134,3.474,3.222,1.963,0,3.918.428,5.882.156a1.1,1.1,0,0,0,.9-1.547,3.377,3.377,0,0,0-3.178-1.983c-2.279.141-2.278.141-3.077-2a2.648,2.648,0,0,0-.332-.441c-.33.244-.571.447-.834.615a1.615,1.615,0,0,1-2.106,0,1.442,1.442,0,0,1-.018-2.064,3.12,3.12,0,0,0,.538-1.783c.15-1.984.385-2.231,2.32-2.52.313-.047.669,0,.682-.437s-.349-.474-.663-.464C291.029,270.357,289.978,270.573,289.33,269.456Z" transform="translate(-225.792 -126.016)" fill="#179587"/>
          <path id="Trazado_617350" data-name="Trazado 617350" d="M318.378,263.147a19.575,19.575,0,0,1-.944,5.6c-.37,1.262-1.169,2.389-1.14,3.789a13.4,13.4,0,0,1-.253,4.164,1.866,1.866,0,0,0,.132,1.306,4.03,4.03,0,0,1,.078,2.618c-.417,2.023-1.207,3.96-.982,6.122a5.386,5.386,0,0,1-1.184,3.363c-.63.961.069,1.452.817,1.641a1.24,1.24,0,0,0,1.1-.141,4.2,4.2,0,0,1,4.131-.46c1.753.519,2.108.811,1.664,2.593a44.038,44.038,0,0,0-.516,5.466,1.511,1.511,0,0,0,.339,1.469c1.068-1.086,1.855-2.106,1.323-3.716a3.844,3.844,0,0,1,.389-2.594c.279-.7.973-.7,1.564-.918a1.652,1.652,0,0,0,1.037-1.835,12.368,12.368,0,0,1,.417-4.332,2.139,2.139,0,0,0-.2-1.461,4.216,4.216,0,0,1,.481-4,23.584,23.584,0,0,0,1.853-3.085,1.689,1.689,0,0,1,2.964-.314,2.849,2.849,0,0,1,.765,1.712c.288,3.155.216,6.234-2.113,8.763a1.913,1.913,0,0,0-.565,1.553c.142,1.45.273,2.9.362,4.354.031.515.323.62.722.686,1,.167,4.464-1.546,4.966-2.466.06-.11.167-.267.13-.343-.562-1.152.038-2.541-.715-3.632a1.571,1.571,0,0,1,.322-2.2c1.065-1.15,2.369-.949,3.723-.74a2.029,2.029,0,0,1,1.971,1.715,12.173,12.173,0,0,0,.722,1.958c.151.378.37.676.854.5,1.945-.7,3.717.169,5.536.613a13.409,13.409,0,0,0,1.2-7.168c-.421.135-.842.262-1.258.405a1.006,1.006,0,0,1-1.339-.392,2.41,2.41,0,0,0-1.757-1.277,1.757,1.757,0,0,1-1.086-1.014,3.706,3.706,0,0,0-2.089-2.03,2.214,2.214,0,0,1-1.174-3.427,2.523,2.523,0,0,0,.21-2.666c-.475-.876-.544-2.039-1.548-2.539a2.4,2.4,0,0,1-1.316-1.743c-.156-.645-.329-1.213-1.244-1.014-.711.153-1-.365-1.136-.988-.077-.362.083-.774-.313-1.192-1.456.457-1.511.487-2.206,1.415-.3.406-.551.86-.887,1.237-1.08,1.211-2.124,1.25-3.22.06a6.016,6.016,0,0,0-1.737-1.453,4.039,4.039,0,0,1-2.5-4.463,2.043,2.043,0,0,0-.034-.569c-.2-1.19-.45-1.348-1.641-1.067-.981.232-1.931.768-2.969.51C318.627,261.162,318.374,261.533,318.378,263.147Z" transform="translate(-229.258 -125.136)" fill="#179587"/>
          <path id="Trazado_617351" data-name="Trazado 617351" d="M389.938,232.721a4.1,4.1,0,0,1-3.636-.633,2.511,2.511,0,0,0-2.667-.128,7.67,7.67,0,0,1-3.428.534,10.883,10.883,0,0,0-.694,1.326c-.6,1.366-1.226,2.719-1.824,4.075a31.3,31.3,0,0,1-1.724,3.7c-.132.216-.375.431-.378.649-.029,1.716-.957,2.3-2.572,2.61-1.041.2-1.18,1.677-2.035,2.537a3.192,3.192,0,0,1,1.853,2.163c.351,1.194.925,1.224,2.217.973,3.338-.651,6.472-2.235,9.962-2.179a5.337,5.337,0,0,1,1.134-.023,8.493,8.493,0,0,0,4.618-.554c2.64-.791,5.327-1.091,7.886.384.3.173.658.273.889.048,1.179-1.149,2.7-.209,3.991-.694a1.1,1.1,0,0,1,1.036.369,1.954,1.954,0,0,0,2.481.112c2.3-1.451,4.816-1.372,7.364-1.257.542.025,1.053.055,1.274.608a1.85,1.85,0,0,0,1.918,1.23,2.017,2.017,0,0,1,1.965,1.527,2.735,2.735,0,0,0,1.242,1.617,2.335,2.335,0,0,0,2.784.094,5.742,5.742,0,0,1,4.515-1.027,3.168,3.168,0,0,0,2.333-.63l.007-.005a4.668,4.668,0,0,1-.839-.761c-4.136-4.76-8.3-9.5-12.373-14.31-1.5-1.774-3.109-2.417-5.371-1.551a3.157,3.157,0,0,1-3.216-.732,7.294,7.294,0,0,0-2.471-1.559c-1.777-.624-3.357-1.051-5,.395a5.486,5.486,0,0,1-3.786,1.185c-.316,0-.709-.184-.95.183-1.063,1.617-2.262.85-3.43.183A3.636,3.636,0,0,0,389.938,232.721Z" transform="translate(-235.508 -121.828)" fill="#ffae00"/>
          <path id="Trazado_617352" data-name="Trazado 617352" d="M298.529,157.875h0a4.193,4.193,0,0,1,1.79,2.905c.157.808.473,1.592.575,2.4a2.646,2.646,0,0,0,1.788,2.561c1.477.564,1.541,1.087.971,2.716-.221.628-.336,1.29.539,1.148a4.239,4.239,0,0,1,3.017.848c1.084.656,2.19,1.274,3.289,1.9a2.024,2.024,0,0,1,1.073,2.065,3.328,3.328,0,0,0,.714,2.5c.157.189.352.469.318.673-.241,1.466.792,2.139,1.721,2.889,1.082.874,1.754,2.143,2.954,2.93a2.283,2.283,0,0,1,.755,2.072c-.012.379-.273.853-.124,1.114,1.051,1.837.443,3.977,1.148,5.874.6,1.616.378,2.459-.981,3.461-1.05.775-1.533,2.2-3.044,2.479-.545.1-.316.8,0,1.1a10.684,10.684,0,0,0,1.663,1.258,9.451,9.451,0,0,1,3.391,5.665c.01.19-.076.407-.01.566.579,1.395,1.022,2.758-.544,3.845-.137,1.753-.7,3.524.086,5.572a9.578,9.578,0,0,1,2.126-2.053,1.349,1.349,0,0,1,1.6-.019,1.44,1.44,0,0,1,.4,1.568,1.467,1.467,0,0,1-.213.526,3.624,3.624,0,0,0-.058,4.434,1.951,1.951,0,0,1,.206.531c.562,1.912,1.021,2.146,2.712,1.136a27.793,27.793,0,0,0,2.9-2.145c.479-.38.5-1,.637-1.554.326-1.354.543-2.759,1.722-3.72.634-2.584,1.583-5.165.389-7.819a3.929,3.929,0,0,1-.418-2.2,7.535,7.535,0,0,0,.042-1.9c-.167-1.456.012-1.755,1.252-2.418s1.44-.926,1.132-2.193a5.169,5.169,0,0,1,.178-2.433,9.323,9.323,0,0,0-.159-4.7c-.587-2.008-1.128-4.034-1.586-6.075a1.535,1.535,0,0,0-1.339-1.341c-1.323-.291-2.429-1.324-3.915-1.122a1.064,1.064,0,0,1-.851-.37c-1.209-1.768-3.5-1.934-4.919-3.364a1.986,1.986,0,0,0-1.544-.568,3,3,0,0,1-3-1.929,5.27,5.27,0,0,0-2.168-2.347,2.586,2.586,0,0,1-1.421-2.436,11.043,11.043,0,0,0-1.447-5.649,1.888,1.888,0,0,1,.314-2.565c.751-.794.64-1.1-.35-1.687-2-1.179-2.048-1.191-1.5-3.409a1.392,1.392,0,0,0-.558-1.648,6.862,6.862,0,0,0-2.987-1.61c-1.863-.256-2.539-1.472-2.747-3.136a6.6,6.6,0,0,1-.069-.759c-.008-1.356.072-2.691-.805-3.9-1.43,1.511-2.071,3.609-3.82,4.93-1.024.773-.388,2.275-.168,3.359C299.379,156.794,299.323,157.69,298.529,157.875Z" transform="translate(-227.583 -112.739)" fill="#d0d0d1"/>
          <path id="Trazado_617353" data-name="Trazado 617353" d="M305.262,146.814a3.4,3.4,0,0,1,.6,2.34,16.485,16.485,0,0,0,.075,1.9,2.309,2.309,0,0,0,2.186,2.411c1.355.167,2.3,1.291,3.637,1.912,1.821-2.634,3.5-5.24,3.314-8.662a6.583,6.583,0,0,0-1.15-3.751,7.06,7.06,0,0,1-1.178-2.406,3.954,3.954,0,0,0-.922.81c-1.722,1.972-3.308,4.084-6.293,4.25a1.505,1.505,0,0,0-.674.306A2.178,2.178,0,0,0,305.262,146.814Z" transform="translate(-228.275 -111.974)" fill="#d0d0d1"/>
          <path id="Trazado_617354" data-name="Trazado 617354" d="M342.7,134.766c-.632,1.417-.376,2.876-.551,4.3-.157,1.276.759,1.715,2.1,1.343a24.6,24.6,0,0,1,3.157-.688c1.848-.257,2.978.766,3.008,2.707a.845.845,0,0,0,.427.887c2.381,1.56,2.545,2.178,1.467,4.831a3.616,3.616,0,0,0-.1.715,9.205,9.205,0,0,1,3.155.368,3.966,3.966,0,0,1,2.231,1.105,4.216,4.216,0,0,1,.835-.612c1.217-.7,1.481-1.695,1.95-2.885a86.362,86.362,0,0,1,4.146-8.593c.672-1.271,2.1-1.622,3.408-1.9a3.411,3.411,0,0,0,2.755-2.272c.983-2.216,2.128-4.4,3.289-6.55a4.776,4.776,0,0,1,3.87-2.579,14.342,14.342,0,0,0,5.133-1.791c1.156-.614,2.231-1.382,3.628-1.325.637.027.868-.327.979-.944.1-.582-.032-1.278.737-1.866.737-.172,1.785.627,2.7-.395s1.056-1.978.126-2.859a2.745,2.745,0,0,1-.942-2.32c.061-1.646-1.193-2.106-2.463-2.254a5.189,5.189,0,0,1-3.437-1.93c-.974-1.111-1.712-1.095-2.438.2-.712,1.267-1.4,2.211-3.083,2.127-.939-.046-1.386.965-1.914,1.779-1.14-.771-2.055-.6-2.524.787-1.005-.389-1.681-1.367-2.825-.549a2.481,2.481,0,0,0-.876,2.877,2.368,2.368,0,0,1-.822,2.676c-2.274,1.876-4.38,3.925-7.611,4.275a6.631,6.631,0,0,0-4.2,2.6c-1.957,2.4-5.043,3.365-7.113,5.666-.637.708-1.885.817-3,.838-1.6.03-3.237-.3-4.762.408A5.988,5.988,0,0,1,342.7,134.766Z" transform="translate(-232.352 -108.463)" fill="#d0d0d1"/>
          <path id="Trazado_617355" data-name="Trazado 617355" d="M315.627,141.233c2.3,3.506,1.9,7.07.194,10.653a48.713,48.713,0,0,0-2.422,4.522c-.168.477-.382.94-.533,1.421a1.049,1.049,0,0,0,.7,1.506,2.988,2.988,0,0,1,1.294.772,1.81,1.81,0,0,1,.013,2.806c-.469.493-.642.858-.256,1.468a12.275,12.275,0,0,1,1.5,5.447,2.7,2.7,0,0,0,1.3,2.325,5.358,5.358,0,0,1,2.123,2.394,2.134,2.134,0,0,0,2.242,1.4c.313-.012.782-.1.922.063,1.316,1.552,3.571,1.59,4.9,3.087a4.324,4.324,0,0,0,.967.9c.861.52,1.942-.126,2.749.537a3.681,3.681,0,0,0,2.536.9,11.433,11.433,0,0,1-.741-2.624c-.064-.305-.1-.766-.3-.87-1.309-.682-1.441-1.905-1.7-3.156a2.616,2.616,0,0,0-1.84-1.794c-.72-.268-1.241-.663-1.126-1.527.1-.765.584-1.1,1.266-1.48a5.05,5.05,0,0,1,4.673-.49c.695.29,1.067-.023,1.007-.834a3.814,3.814,0,0,0-1.158-2.549c-1.527-1.445-2.444-3.411-4.148-4.7-.783-.591-.638-1.433-.463-2.272.685-3.3,2.951-5.112,5.952-6.057a3.047,3.047,0,0,0,2.346-2.371,11.238,11.238,0,0,1,1.123-2.188c.384-.741.564-1.431-.4-1.915a1.241,1.241,0,0,1-.547-1.793,2.6,2.6,0,0,0,.035-1.975,9.451,9.451,0,0,1,.289-4.86c.124-.458.24-.909.343-1.363a3.058,3.058,0,0,1-2.115-.947,2.08,2.08,0,0,0-2.865-.307c-1.065.808-1.648.026-2.306-.432-2.21-1.54-3.244-.342-3.575,1.738a6.928,6.928,0,0,1-1.184,3.244,2.5,2.5,0,0,1-2.113,1.142,4.361,4.361,0,0,0-1.7.2c-2.581,1.177-4.571-.566-6.655-1.425a3.393,3.393,0,0,0-1.167-.28A5.853,5.853,0,0,0,315.627,141.233Z" transform="translate(-229.141 -111.283)" fill="#d0d0d1"/>
        </g>
        <g id="Grupo_878472" data-name="Grupo 878472" transform="translate(0 32.561)">
          <path id="Trazado_617356" data-name="Trazado 617356" d="M196.014,148.023c-1.38-2.188-2.129-2.315-3.6-.361a7.484,7.484,0,0,1-3.247,2.889c-.666.256-1.076.868-.474,1.9a2.449,2.449,0,0,1-.684,3.013,9.674,9.674,0,0,0-1.862,1.93c-.288.477-.786,1.075-.1,1.918.9,1.1.762,2.43.094,3.791a2.755,2.755,0,0,0,.514,3.618,2.532,2.532,0,0,1,.547,2.642c-.5,1.889-.615,3.819-.932,5.726-.255,1.535-.812,3.01-.941,4.578a1.582,1.582,0,0,0,1.159,1.877c.685.176,1.127-.3,1.544-.9a12.014,12.014,0,0,0,1.926-4.2,43.2,43.2,0,0,1,2.938-9c.594-1.248,2.152-1.581,2.4-3.1a3.122,3.122,0,0,1-.405-4.659,2.068,2.068,0,0,0,.006-3.1,3.511,3.511,0,0,1-.747-1.505c-.158-.855-.293-2.244.9-2.2,1.878.075,2.726-1.151,3.816-2.178V150.5C198.23,149.318,196.716,149.137,196.014,148.023Z" transform="translate(-185.321 -145.162)" fill="#d0d0d1"/>
          <path id="Trazado_617357" data-name="Trazado 617357" d="M222.827,153.883c-1.791-1.38-4.09-2.327-3.525-4.969-1.553-.134-2.371.712-2.424,1.5-.1,1.469-1.041,1.636-1.991,1.676-1.751.074-2.751,1.207-3.811,2.321l.191.191c-.028,1.378.089,2.657-1.065,3.887-.757.806-.464,2.368.336,3.329a2.21,2.21,0,0,1,.4,2.721c-.4.863.132,1.69,1.092,2.074.191-.063.452-.069.561-.2,2.092-2.54,5.442-3.2,7.87-5.276.778-.664,1.56-1.028,1.091-2.146C220.76,157.1,221.291,155.507,222.827,153.883Z" transform="translate(-187.995 -145.448)" fill="#d0d0d1"/>
          <path id="Trazado_617358" data-name="Trazado 617358" d="M215.868,147.521c1.372-.9.67-1.668-.012-2.495h-.381c-1.1-.067-1.274,1.014-2.09,1.428C214.064,147.513,214.522,148.406,215.868,147.521Z" transform="translate(-188.391 -145.024)" fill="#d0d0d1"/>
        </g>
      </g>
      <g id="Grupo_878478" data-name="Grupo 878478" transform="translate(279.044 171.769)">
        <path id="Trazado_617359" data-name="Trazado 617359" d="M459.395,307.567c-1.435-1.167-12.534,3.7-12.393,5.4s-7.745,18.13-7.745,18.13L425.63,320.231l-.005,0c-.12-.393-1.413-4.619-1.475-5.375-.066-.793-2.369-2.18-3.439-1.976s.915,1.546,1.045,1.792c.355.671-1.016.922-1.016.922s-3.891-1.247-3.975-2.518-2.744,2.221-2.431,2.707,6.664,5.6,7.579,6.71c0,0,17.626,20.149,18.881,20.677,1.1.462,5.027-6.481,8.737-11.091S463.88,311.213,459.395,307.567Z" transform="translate(-317.782 -200.965)" fill="#f1907e"/>
        <path id="Trazado_617360" data-name="Trazado 617360" d="M504.687,473.131s2.422,2.363,2.478,3.23.215,10.159-.775,11.026-3.893,1.483-2.959,2.459c.705.737,6.135.58,9.733.381,1.05-.058,2.367-8.439,2.784-9.67.6-1.788,2.073-5.818,1.524-7.065a10.479,10.479,0,0,0-3.352-3.021,16.481,16.481,0,0,1-3.714-3.955Z" transform="translate(-327.51 -218.37)" fill="#ec756b"/>
        <path id="Trazado_617361" data-name="Trazado 617361" d="M475.573,480.106s2.168,6.123,2.17,6.139c.161.97.8,3.367.8,4.248,0,3.313-14.941-2.813-11.592-4.28a3.535,3.535,0,0,0,1.354-2.322,7.765,7.765,0,0,0-1.258-3.917Z" transform="translate(-323.486 -219.842)" fill="#f1907e"/>
        <g id="Grupo_878474" data-name="Grupo 878474" transform="translate(124.625 146.245)">
          <path id="Trazado_617362" data-name="Trazado 617362" d="M449.882,352.1s-1.089,10.976-1.089,11.14c0,17.756-3.52,52.441-2.85,55.779,1.633,8.143,19.208,49.68,19.208,49.68l9.5-1.136-10.2-50.194,2.373-19.555,6.445-39.568Z" transform="translate(-445.858 -352.101)" fill="#179587"/>
          <path id="Trazado_617363" data-name="Trazado 617363" d="M482.594,362l1.8,10.4,4.876,42.817,18.572,41.847s-2.612,6.089-6.467,6.945L471.82,421.05l-18.361-54.977.644-12.214Z" transform="translate(-446.689 -352.293)" fill="#1cb5a4"/>
        </g>
        <path id="Trazado_617364" data-name="Trazado 617364" d="M446.122,319.227l13.172,1.345s.6-10.8.6-15.95c0-6.249-.533-14.3-1.287-14.125a11.485,11.485,0,0,0-6.67,3.989C446.066,302.56,446.122,319.227,446.122,319.227Z" transform="translate(-321.262 -199.117)" fill="#a84232"/>
        <path id="Trazado_617365" data-name="Trazado 617365" d="M452.732,303.469c-.276,1.905-5.339,53.7-5.339,53.7,23.983,11.583,37.217,2.064,37.217,2.064s-.785-36.375.156-41.326c.623-3.276,1.4-25.042-.724-25.651a53.115,53.115,0,0,0-9.252-1.966c-2.906-.3-14.194-.477-16.214.2A25.718,25.718,0,0,0,452.732,303.469Z" transform="translate(-321.401 -199.066)" fill="#ee4e5d"/>
        <path id="Trazado_617366" data-name="Trazado 617366" d="M513.883,470.89s-5.582,15.717-7.767,16.476c-.58.2-3.365.712-3.889,1.944a5.315,5.315,0,0,0,0,1.609h11.635s1.471-6.925,2.053-9.968c0,0,3.081-7.434,2.738-8.11S513.883,470.89,513.883,470.89Z" transform="translate(-327.391 -218.849)" fill="#222b5a"/>
        <path id="Trazado_617367" data-name="Trazado 617367" d="M477.968,492.348l-1.712-5.4s-3.593,1.519-5.389,1.266a54.328,54.328,0,0,1-5.3-1.266c-7.171,2.36-13.047,3.505-11.978,5.4h24.383Z" transform="translate(-322.064 -220.605)" fill="#222b5a"/>
        <g id="Grupo_878475" data-name="Grupo 878475" transform="translate(121.407 128.697)">
          <path id="Trazado_617368" data-name="Trazado 617368" d="M443.85,345.909a3.126,3.126,0,0,1-.362-.269c.427-5.075.349-9.992-1.243-11.655.038-.08.387-.819.75-1.587,1.846,1.428,2.723,5.221,2.379,11.378a10.568,10.568,0,0,1-.243,1.274C444.6,345.638,444.11,346.017,443.85,345.909Z" transform="translate(-442.245 -332.398)" fill="#f1907e"/>
        </g>
        <path id="Trazado_617369" data-name="Trazado 617369" d="M473.439,279.01l1.546,10.19s-5.646,12.132-9.016,11.08c-2.829-.883-1.088-11.618-1.088-11.618s1.542-5.765,1.079-8.65S473.439,279.01,473.439,279.01Z" transform="translate(-323.256 -197.795)" fill="#f1907e"/>
        <path id="Trazado_617370" data-name="Trazado 617370" d="M466.133,280.012c-.461-2.885,7.479-1,7.479-1l.128.845a4.7,4.7,0,0,1-.861,1.421,10.459,10.459,0,0,1-6.944,3.142A15.708,15.708,0,0,0,466.133,280.012Z" transform="translate(-323.429 -197.795)" fill="#e95d47"/>
        <g id="Grupo_878476" data-name="Grupo 878476" transform="translate(137.926 58.363)">
          <path id="Trazado_617371" data-name="Trazado 617371" d="M474.353,262.508c.224-.082,1.8,11.6-1.189,14.82s-8.81,4.268-10.9,1.736c-2.31-2.8-2.194-15.361,2.452-18.669S474.353,262.508,474.353,262.508Z" transform="translate(-460.792 -254.071)" fill="#f1907e"/>
          <path id="Trazado_617372" data-name="Trazado 617372" d="M466.689,253.5a12.9,12.9,0,0,1,6.771,3.862c1.631.192,3.847,1.094,6.135,4.882a9.477,9.477,0,0,1-2.54,12.354c-3.276,2.533-3.23,5.458-3.23,5.458l-.517-1.513a8.468,8.468,0,0,1-.411-3.564,6.974,6.974,0,0,1,.53-2.143c.788-1.691-1.692-2.814-2.388-4.222-.535-1.084-.561-3.562-1.405-5.354l-1.007-1.367s-2.324-1.809-4.6-1.3S462.082,252.559,466.689,253.5Z" transform="translate(-460.996 -253.426)" fill="#0c2328"/>
          <path id="Trazado_617373" data-name="Trazado 617373" d="M472.242,272.5c-.024,1.426.624,2.593,1.447,2.607s1.51-1.13,1.534-2.556-.624-2.593-1.447-2.607S472.265,271.072,472.242,272.5Z" transform="translate(-462.044 -255.232)" fill="#f1907e"/>
        </g>
        <path id="Trazado_617374" data-name="Trazado 617374" d="M466.24,276.482l-4.5-.233a1.971,1.971,0,0,0,1.993,1.876C466.14,278.32,466.24,276.482,466.24,276.482Z" transform="translate(-322.97 -197.559)" fill="#fff"/>
        <g id="Grupo_878477" data-name="Grupo 878477">
          <path id="Trazado_617375" data-name="Trazado 617375" d="M425.008,306.016c1.058-1.083,2.045-2.2,2.963-3.342l19.66,19.2c1.209,1.18.792,3.566-.929,5.329s-4.1,2.235-5.3,1.054l-19.66-19.2C422.857,308.112,423.95,307.1,425.008,306.016Z" transform="translate(-318.595 -200.449)" fill="#0c2328"/>
          <ellipse id="Elipse_5142" data-name="Elipse 5142" cx="49.585" cy="49.893" rx="49.585" ry="49.893" transform="matrix(0.699, -0.716, 0.716, 0.699, 0, 70.962)" fill="#b7d5f2" opacity="0.6"/>
          <path id="Trazado_617376" data-name="Trazado 617376" d="M414.565,296.719a49.543,49.543,0,0,1-31.571,15.452L329.211,257.5c.011-.1.019-.206.029-.309a49.874,49.874,0,0,1,15.644-31.3Z" transform="translate(-308.474 -192.051)" fill="#fff" style="mix-blend-mode: soft-light;isolation: isolate"/>
          <path id="Trazado_617377" data-name="Trazado 617377" d="M381.484,210.959l49.738,50.556q-.036,2.294-.281,4.622a49.99,49.99,0,0,1-6.247,19.424l-67.171-68.276A49.113,49.113,0,0,1,381.484,210.959Z" transform="translate(-311.571 -190.417)" fill="#fff" style="mix-blend-mode: soft-light;isolation: isolate"/>
          <path id="Trazado_617378" data-name="Trazado 617378" d="M338.832,300.066a56.058,56.058,0,1,0-1.187-79.515A56.233,56.233,0,0,0,338.832,300.066Zm4.523-4.63a49.586,49.586,0,1,1,70.339-.615A49.739,49.739,0,0,1,343.354,295.436Z" transform="translate(-307.659 -189.627)" fill="#113744"/>
          <path id="Trazado_617379" data-name="Trazado 617379" d="M341.628,298.051a52.656,52.656,0,1,0-1.115-74.689A52.82,52.82,0,0,0,341.628,298.051Zm2.146-2.2a49.586,49.586,0,1,1,70.339-.615A49.739,49.739,0,0,1,343.773,295.855Z" transform="translate(-308.078 -190.046)" fill="#4dad92" opacity="0.5" style="mix-blend-mode: multiply;isolation: isolate"/>
          <path id="Trazado_617380" data-name="Trazado 617380" d="M510.714,392.219l3.055-3.169a7.965,7.965,0,0,0-.206-11.263l-56.757-55.027a7.965,7.965,0,0,0-11.263.206l-3.055,3.169a7.964,7.964,0,0,0,.206,11.262l56.757,55.028A7.965,7.965,0,0,0,510.714,392.219Z" transform="translate(-320.62 -202.402)" fill="#113744"/>
        </g>
        <path id="Trazado_617381" data-name="Trazado 617381" d="M512.879,359.209a1.437,1.437,0,0,0,.006-.333c-.354-3.587-3.332-33.71-3.833-34.991-.453-1.156-13.812-20.262-13.812-20.262l-6.566,8.945L501.522,329.7c.288,1.089,4.923,21.424,4.923,21.424s.949,3.707,1.375,5.927c-.193.534-.384,1.039-.553,1.454a13.393,13.393,0,0,1-1.384,2.225,15.2,15.2,0,0,0-1.641,2.9c-.136.524-.381,1.61-.52,2.267s-.33,1.421-.362,1.776a3.388,3.388,0,0,1-.415.955.573.573,0,0,0,.677.827c.467-.155.83-.759,1.054-1.136.632-1.062.97-3,1.127-2.9s.712,3.394.8,3.766a40.485,40.485,0,0,0,1.128,4.893c.375.7.871.582,1,.145.113-.377-.414-5.726-.414-5.726s-.066-.682.233-.468.786,5.068.995,5.778.681,1.087,1.083.517c.489-.695-.352-5.845-.352-5.845s-.094-.647.183-.587.623,4.2.838,4.556a.545.545,0,0,0,1.017-.11c.305-.7-.485-5.294-.485-5.294s.038-.365.211-.244.72,3.627,1.077,3.953a.379.379,0,0,0,.549.008c.655-.447-.349-3.782-.339-5.44s-.76-3.522-.53-5.5C512.813,359.705,512.854,359.4,512.879,359.209Z" transform="translate(-325.916 -200.553)" fill="#f19080"/>
        <path id="Trazado_617382" data-name="Trazado 617382" d="M504.961,314.514l-11.411,7.661s-6.431-9.57-9.883-12.977c-4.325-4.268,1.576-17.342,4.361-16.6C494.261,294.25,504.961,314.514,504.961,314.514Z" transform="translate(-325.201 -199.344)" fill="#ee4e5d"/>
      </g>
    </g>
  </g>
</svg>
