<svg xmlns="http://www.w3.org/2000/svg" xmlns:xlink="http://www.w3.org/1999/xlink" width="193.147" height="194.095" viewBox="0 0 193.147 194.095">
  <defs>
    <linearGradient id="linear-gradient" x1="1.091" y1="1.163" x2="0.386" y2="0.408" gradientUnits="objectBoundingBox">
      <stop offset="0" stop-color="#dae3fe"/>
      <stop offset="1" stop-color="#e9effd"/>
    </linearGradient>
    <linearGradient id="linear-gradient-2" y1="0.5" x2="1" y2="0.5" gradientUnits="objectBoundingBox">
      <stop offset="0" stop-color="#4f52ff"/>
      <stop offset="1" stop-color="#4042e2"/>
    </linearGradient>
  </defs>
  <g id="Grupo_878564" data-name="Grupo 878564" transform="translate(-1070.495 -4511.5)">
    <g id="Grupo_878464" data-name="Grupo 878464" transform="translate(640.992 4056.5)">
      <path id="Trazado_617266" data-name="Trazado 617266" d="M623.432,617.722a72.806,72.806,0,0,1-12.787,10.38c-33.116,22.112-70.971,15.739-82.675,13.56-18.883-3.514-34.822-5.994-48.517-18.367-31.119-28.115-29.605-86.765-5.827-123.1,2.819-4.308,26.562-39.5,64.5-44.461.928-.121,1.62-.19,2.227-.255,5.869-.621,42.236-3.9,71.89,20.943a88.466,88.466,0,0,1,17.411,19.754C652.816,531.954,652.889,587.358,623.432,617.722Z" transform="translate(-24.62 0)" fill="url(#linear-gradient)"/>
      <g id="Grupo_878452" data-name="Grupo 878452" transform="translate(429.503 469.001)">
        <ellipse id="Elipse_5132" data-name="Elipse 5132" cx="86.056" cy="92.889" rx="86.056" ry="92.889" transform="translate(0 171.946) rotate(-87.486)" fill="#7d97f4"/>
        <path id="Trazado_617267" data-name="Trazado 617267" d="M703.671,1004.086c-2.039,3.273-3.611,6.958-3.316,10.8.342,4.452,2.6,8.621,2.711,13.085.2,7.57-5.648,13.907-7.471,21.257-2.038,8.215,5.645,17.576,8.706,22.161s1.745-3.72,3.6-6.959,5.858,13.628,12.11,17.33c3.354,1.986,7.289,3.308,9.7,6.37,3.518,4.466,2.544,10.821,2.015,16.481s.263,12.559,5.361,15.076c3,1.482,6.817.98,9.526,2.947,4.757,3.454,2.485,10.985,4.37,16.553,2.05,6.056,6.115,6.135,12.4,7.419s-.792-12.533,2.154-17.362c1.549-2.538,3.912-4.558,5.134-7.269,1.694-3.759,1.217-8.782,4.5-11.273,2.463-1.867,5.89-1.362,8.981-1.389s6.85-1.369,7.2-4.44c.311-2.725-2.417-4.9-5.086-5.529s-5.513-.33-8.133-1.137c-7.5-2.308-10.994-12.8-18.822-13.29-6.692-.42-12.3,7.092-18.873,5.78-3.666-.731-6.175-3.978-8.9-6.541-3.5-3.292-7.834-5.764-10.609-9.682s-3.247-10.183.7-12.916c2.933-2.031,7.1-1.206,10,.875s4.871,5.168,7,8.031a5.315,5.315,0,0,0,2.452,2.13c2.829.886,4.894-3.095,4.217-5.981s-2.716-5.425-2.812-8.388c-.169-5.222,5.455-8.536,10.388-10.257s10.748-3.772,12.2-8.792c.512-1.773.378-3.724,1.16-5.4,2.591-5.54,16.265-8.306,13-11.519s-13.642-3.911-15.662-10.381c-.723-2.316-1.468-5.378-3.884-5.6-3.936-.365-6.181,4.507-9.482,5.343-1.567.4-1.718,3.059-1.657,6.332a4.3,4.3,0,0,1-8.605.163,6.649,6.649,0,0,1,.5-2.662,12.04,12.04,0,0,1,3.059-3.966c5.077-4.848,20.228-10.175,17.055-12.238s-18.4-7.759-20.671-4.616,1.485.482,2.4,4.209-11.264,3.228-16.9,4.842a4.033,4.033,0,0,1-2.832.1c-.973-.471-1.383-1.6-1.911-2.547-2.828-5.053-12.236-1.773-12.236-1.773A15.31,15.31,0,0,0,703.671,1004.086Z" transform="translate(-677.171 -971.052)" fill="url(#linear-gradient-2)"/>
        <path id="Trazado_617268" data-name="Trazado 617268" d="M1440.362,732.921c-1.367,2.549,2.7,2.508,3.1,5.372,3.661.4,5.164-5.373,8.785-6.046,2.043-.38,4.024,1.084,5.135,2.841s1.628,3.82,2.569,5.673a13.967,13.967,0,0,0,11.1,7.452,3.838,3.838,0,0,0,2.883-.652c2.206-1.944-.95-5.6-.13-8.421.937-3.227,5.591-2.738,8.736-3.921.867-.326,7.54-2.107,7.647-3.027.19-1.632-2.905-2.671-6.368-3.562-5.867-1.509-16.19-1.446-21.236-.989-6.713.607-17.9.117-22.227,5.283Z" transform="translate(-1371.31 -722.819)" fill="url(#linear-gradient-2)"/>
        <g id="Grupo_878450" data-name="Grupo 878450" transform="translate(144.491 36.26)">
          <path id="Trazado_617269" data-name="Trazado 617269" d="M2589.251,1277.033a84.605,84.605,0,0,0-.373-28.785c-.471-2.529-1.575-5.544-4.121-5.908-2.946-.421-6.552,2.963-8.4.627-.814-1.031-.489-2.532-.028-3.761a24.929,24.929,0,0,1,5.549-8.7,31.327,31.327,0,0,0,4.4-4.706c2.485-3.874.741-9.535-2.777-12.5s-8.055,2.355-11.752.242-3.812-7.239-4.507-11.441c-.515-3.112-2.808-11.544-5.341-7.437s3.378,20.452,10.032,28.288c.8.945,1.689,2,1.621,3.242-.162,2.956-4.47,2.825-7.368,3.43-3.587.749-9.086-1.172-6.052,5.079,1.6,3.3,9.245,7.81,7.191,10.016s-8.369,8.6-11.332,13.766-4.4,11.6-2.165,17.128,8.954,9.337,14.438,7.01c2.567-1.089,5.365-3.353,7.751-1.91,2.161,1.307,1.842,4.443,1.735,6.965s1.347,5.872,3.8,5.279a4.073,4.073,0,0,0,1.988-1.434C2587,1287.555,2588.421,1282.229,2589.251,1277.033Z" transform="translate(-2552.74 -1193.559)" fill="url(#linear-gradient-2)"/>
        </g>
        <ellipse id="Elipse_5133" data-name="Elipse 5133" cx="72.889" cy="68.857" rx="72.889" ry="68.857" transform="translate(18.859 15.125)" fill="#91b3fa" opacity="0.19"/>
        <g id="Grupo_878451" data-name="Grupo 878451" transform="translate(14.405 7.338)" opacity="0.68">
          <path id="Trazado_617270" data-name="Trazado 617270" d="M1581.85,858.918a261.121,261.121,0,0,1-3.718,45.331c-.673,3.736-1.455,7.454-2.386,11.137a107.25,107.25,0,0,1-3.335,10.9c-.663,1.782-1.387,3.544-2.2,5.265a40.868,40.868,0,0,1-2.774,5,20.45,20.45,0,0,1-3.73,4.359,10.618,10.618,0,0,1-2.436,1.573,7.283,7.283,0,0,1-2.838.671,7.143,7.143,0,0,1-2.868-.529,9.966,9.966,0,0,1-2.492-1.486,19.4,19.4,0,0,1-3.811-4.291,39.494,39.494,0,0,1-2.819-4.975c-.826-1.716-1.561-3.474-2.23-5.253a104.842,104.842,0,0,1-3.371-10.886c-.941-3.68-1.73-7.4-2.41-11.132-1.355-7.471-2.278-15.015-2.9-22.579s-.921-15.155-.953-22.745c-.016-3.795.078-7.589.21-11.381s.342-7.581.616-11.366c.552-7.568,1.381-15.12,2.618-22.609.621-3.744,1.345-7.472,2.218-11.167a107.27,107.27,0,0,1,3.154-10.943c.635-1.791,1.329-3.562,2.12-5.292a38.585,38.585,0,0,1,2.715-5.019,18.667,18.667,0,0,1,3.731-4.324,9.525,9.525,0,0,1,2.464-1.48,6.942,6.942,0,0,1,2.832-.506,7.492,7.492,0,0,1,2.8.659,10.95,10.95,0,0,1,2.434,1.523,20.836,20.836,0,0,1,3.813,4.251,40.735,40.735,0,0,1,2.9,4.915c.859,1.7,1.625,3.438,2.332,5.2a103.686,103.686,0,0,1,3.581,10.811c1.008,3.661,1.861,7.363,2.6,11.086A239.034,239.034,0,0,1,1581.85,858.918Zm-.87,0c.01-7.566-.281-15.134-.913-22.674a217.83,217.83,0,0,0-2.981-22.49c-.7-3.716-1.521-7.411-2.494-11.066a103.233,103.233,0,0,0-3.473-10.789c-.688-1.759-1.434-3.5-2.273-5.187a40.334,40.334,0,0,0-2.829-4.894,20.519,20.519,0,0,0-3.716-4.217,10.665,10.665,0,0,0-2.357-1.5,7.076,7.076,0,0,0-2.694-.654,6.625,6.625,0,0,0-2.719.508,9.234,9.234,0,0,0-2.376,1.456,18.36,18.36,0,0,0-3.627,4.28,38.251,38.251,0,0,0-2.646,4.993c-.771,1.723-1.446,3.489-2.062,5.274a106.939,106.939,0,0,0-3.047,10.918c-.838,3.688-1.528,7.409-2.115,11.146-1.17,7.476-1.933,15.013-2.419,22.564s-.671,15.122-.659,22.689q-.02,11.349.815,22.679c.573,7.544,1.448,15.068,2.754,22.519.654,3.725,1.418,7.43,2.333,11.1a104.238,104.238,0,0,0,3.286,10.841c.654,1.77,1.372,3.517,2.179,5.22a38.947,38.947,0,0,0,2.75,4.923,18.92,18.92,0,0,0,3.682,4.2,9.486,9.486,0,0,0,2.363,1.43,6.548,6.548,0,0,0,2.678.507,6.807,6.807,0,0,0,2.651-.646,10.133,10.133,0,0,0,2.314-1.516,19.953,19.953,0,0,0,3.607-4.272,40.331,40.331,0,0,0,2.706-4.949c.8-1.708,1.5-3.459,2.151-5.232a106.678,106.678,0,0,0,3.248-10.852c.9-3.67,1.659-7.378,2.307-11.1,1.3-7.453,2.16-14.978,2.733-22.522S1580.982,866.485,1580.98,858.918Z" transform="translate(-1473.78 -774.732)" fill="#fff" style="mix-blend-mode: soft-light;isolation: isolate"/>
          <path id="Trazado_617271" data-name="Trazado 617271" d="M1028.958,852.754a112.534,112.534,0,0,1-.978,14.6,106.744,106.744,0,0,1-2.931,14.34,92.984,92.984,0,0,1-12.07,26.56,76.216,76.216,0,0,1-9.241,11.334,64.8,64.8,0,0,1-11.383,9.168,54.932,54.932,0,0,1-13.273,6.1,50.1,50.1,0,0,1-28.89.01,54.94,54.94,0,0,1-13.281-6.092,64.843,64.843,0,0,1-11.4-9.162,76.255,76.255,0,0,1-9.255-11.332,93.092,93.092,0,0,1-12.095-26.567,105.992,105.992,0,0,1-2.946-14.347,110.189,110.189,0,0,1,.007-29.227,105.967,105.967,0,0,1,2.954-14.343,93.059,93.059,0,0,1,12.108-26.553,76.212,76.212,0,0,1,9.256-11.323,64.693,64.693,0,0,1,11.393-9.15,55.112,55.112,0,0,1,13.273-6.074,49.827,49.827,0,0,1,28.855.009,55.08,55.08,0,0,1,13.265,6.083,64.661,64.661,0,0,1,11.381,9.155,76.185,76.185,0,0,1,9.242,11.325,92.958,92.958,0,0,1,12.083,26.545,106.8,106.8,0,0,1,2.939,14.336A112.563,112.563,0,0,1,1028.958,852.754Zm-1,0a111.6,111.6,0,0,0-.925-14.478,105.82,105.82,0,0,0-2.862-14.222,92.677,92.677,0,0,0-11.772-26.419,75.579,75.579,0,0,0-9.079-11.308,63.473,63.473,0,0,0-11.226-9.17,54.258,54.258,0,0,0-13.142-6.091,48.867,48.867,0,0,0-28.632.009,54.224,54.224,0,0,0-13.133,6.1,63.436,63.436,0,0,0-11.214,9.175,75.526,75.526,0,0,0-9.065,11.31,92.566,92.566,0,0,0-11.747,26.411,110.487,110.487,0,0,0,.015,57.362,92.531,92.531,0,0,0,11.76,26.4A75.509,75.509,0,0,0,926,919.13a63.281,63.281,0,0,0,11.211,9.162,54.4,54.4,0,0,0,13.125,6.082,48.6,48.6,0,0,0,28.6.01,54.414,54.414,0,0,0,13.133-6.074,63.333,63.333,0,0,0,11.224-9.157,75.552,75.552,0,0,0,9.08-11.3,92.632,92.632,0,0,0,11.784-26.4,105.793,105.793,0,0,0,2.869-14.219A111.585,111.585,0,0,0,1027.961,852.754Z" transform="translate(-882.617 -768.568)" fill="#fff" style="mix-blend-mode: soft-light;isolation: isolate"/>
          <path id="Trazado_617272" data-name="Trazado 617272" d="M740.1,1512.365l19.36-.121,19.36-.069,38.72-.055,38.72.061,19.36.075,19.36.131a.044.044,0,0,1,0,.088l-19.36.131-19.36.075-38.72.061-38.72-.055-19.36-.069-19.36-.121a.066.066,0,0,1,0-.131Z" transform="translate(-733.311 -1461.52)" fill="#fff" style="mix-blend-mode: soft-light;isolation: isolate"/>
          <path id="Trazado_617273" data-name="Trazado 617273" d="M1070.142,1035.875l13.745-.121,13.745-.068c4.582-.03,9.163-.026,13.745-.035l13.745-.02,27.49.061,13.745.075,13.745.131a.044.044,0,0,1,0,.088l-13.745.131-13.745.075-27.49.061-13.745-.02c-4.582-.009-9.163-.006-13.745-.035l-13.745-.069-13.745-.121a.065.065,0,0,1,0-.131Z" transform="translate(-1040.889 -1017.456)" fill="#fff" style="mix-blend-mode: soft-light;isolation: isolate"/>
          <path id="Trazado_617274" data-name="Trazado 617274" d="M641.24,1988.854l21.042-.121,21.042-.069,42.084-.056,42.084.061,21.042.075,21.042.131a.044.044,0,0,1,0,.088l-21.042.131-21.042.075-42.084.061-42.084-.056-21.042-.069-21.042-.121a.066.066,0,0,1,0-.131Z" transform="translate(-641.175 -1905.582)" fill="#fff" style="mix-blend-mode: soft-light;isolation: isolate"/>
          <path id="Trazado_617275" data-name="Trazado 617275" d="M740.1,2465.344l19.36-.121,19.36-.069,38.72-.056,38.72.061,19.36.075,19.36.131a.044.044,0,0,1,0,.088l-19.36.13-19.36.075-38.72.061-38.72-.055-19.36-.069-19.36-.121a.066.066,0,0,1,0-.131Z" transform="translate(-733.311 -2349.646)" fill="#fff" style="mix-blend-mode: soft-light;isolation: isolate"/>
          <path id="Trazado_617276" data-name="Trazado 617276" d="M1218.552,2943.237h-109.96a.23.23,0,0,1,0-.46h109.96a.23.23,0,0,1,0,.46Z" transform="translate(-1076.569 -2794.817)" fill="#fff" style="mix-blend-mode: soft-light;isolation: isolate"/>
        </g>
      </g>
      <g id="Grupo_878453" data-name="Grupo 878453" transform="translate(434.181 510.113)">
        <path id="Trazado_617277" data-name="Trazado 617277" d="M503.7,1337.748c-4.545-1.725-6.483-18.3-4.92-24.359,1.354-5.249,8.2-13.156,11.067-17.518a24.368,24.368,0,0,1,9.215-8.662,1.762,1.762,0,0,0,.1,3.024c5.03-2.811,9.582-5.439,13.747-9.575,4.7-4.65,7.868-11.582,14.581-13.728a35.581,35.581,0,0,1,12.583-2.045c4.248.221,8.6,1.6,12.664.355-1.483.454-3.2,2.393-4.64,3.175-1.332.722-3.976.891-4.693,2.362a6.069,6.069,0,0,1,4.465,1.746c1.173,1.018,2.315,2.2,3.817,2.593-.234-.062-3.058,1.788-3.627,1.992a14.668,14.668,0,0,0-4.164,2.23,9.124,9.124,0,0,0-2.375,2.487,5.594,5.594,0,0,0,3.837,8.346,9.7,9.7,0,0,0,3.723-.242,35.525,35.525,0,0,0,3.777-1.035c-.752,1.047-2.048,2.737-2.062,4.071-.05,4.906,7.686,2.427,10.147,2.292,3.832-.209,9.251-.282,12.617,1.744a6.151,6.151,0,0,0-3.072,3.941,1.572,1.572,0,0,0,.044,1.119,1.654,1.654,0,0,0,.729.605,10.575,10.575,0,0,0,8.726.44,18.155,18.155,0,0,0-2.211,2.45.787.787,0,0,0-.221.591c.048.239.3.376.52.472a8.959,8.959,0,0,0,6.727.092c-.453,4.091.637,6.529,3.975,8.821.2.137.421.328.386.567a.6.6,0,0,1-.187.31c-.714.734-8,2.344-10.64,2.628-8.253.887-42.457,3.759-51.316,3.343C539.145,1322.011,508.235,1339.47,503.7,1337.748Z" transform="translate(-498.245 -1264.852)" fill="#f1b62b"/>
        <path id="Trazado_617278" data-name="Trazado 617278" d="M1610.664,1438.781c-8.542-1.887-8.327,8-8.12,8.094C1606.864,1448.848,1607.619,1443.125,1610.664,1438.781Z" transform="translate(-1527.333 -1426.721)" fill="#f1b62b"/>
      </g>
      <g id="Grupo_878454" data-name="Grupo 878454" transform="translate(543.563 546.223)">
        <path id="Trazado_617279" data-name="Trazado 617279" d="M2154.216,1808.454c.595-2.865,1.29-6.58,3.837-8.907a5.346,5.346,0,0,0,1.474,5.31c1.759,1.87,4.344,2.416,6.652,3.8a10.762,10.762,0,0,1,2.614,2.079,7.455,7.455,0,0,1,1.173,7.292,26.4,26.4,0,0,1-4.027,7.03c4.49-2.657,4.793-.287,9.51-2.679-3.394,1.7-2.507,6.906-4.252,9.708-2.95,4.734,3.211,6.994-1.977,10.335-6.525,4.2-18.524-.364-25.635-.788-14.077-.84-23.337-13.2-33.665-21.141-2.655-2.042-5.1-5.263-4.149-8.474.561-1.894,2.167-3.25,3.49-4.718a19.341,19.341,0,0,0,4.873-11.388,19.657,19.657,0,0,1,6.747,3.325,8.627,8.627,0,0,0,.51-3.753,15.106,15.106,0,0,1,5.5,5.353c1.063,1.771,2.055,4,4.084,4.377,6.391,1.2,2.338-8.008-.235-9.68,6.2,1.475,11.1,5.339,12.74,10.053a33.292,33.292,0,0,0,1.329,4.04,5.5,5.5,0,0,0,3.552,2.962C2152.186,1813.577,2153.751,1810.694,2154.216,1808.454Z" transform="translate(-2105.561 -1795.484)" fill="#f1b62b"/>
      </g>
      <g id="Grupo_878455" data-name="Grupo 878455" transform="translate(477.624 480.646)">
        <path id="Trazado_617280" data-name="Trazado 617280" d="M1399.845,1162.917s.315.772.8,2.143c.238.687.52,1.524.815,2.493s.612,2.069.9,3.286.57,2.545.763,3.974c.087.716.169,1.454.2,2.216l.017.286v.3q0,.283,0,.569c-.03.4-.036.81-.1,1.2a15.536,15.536,0,0,1-1.377,4.747,45.251,45.251,0,0,0-2.27,4.285l-.09.267-.023.067c.018-.068,0-.008.005-.018l0,.019-.008.038-.033.152-.132.607a8.187,8.187,0,0,0-.165,1.161,11.124,11.124,0,0,0-.069,1.168c-.022.393-.011.793,0,1.19.037,1.591.2,3.178.291,4.752.018.4.044.785.055,1.182q.013.572.027,1.132.027,1.12.052,2.189c.034,1.423.066,2.768.1,4.01.059,2.484.108,4.553.142,6s.035,2.289.035,2.289l-2.249-.01s.017-.824.048-2.265.044-3.519.075-6c.015-1.242.032-2.588.05-4.011q.013-1.068.027-2.19.007-.56.014-1.132c0-.365-.008-.748-.012-1.126-.035-1.528-.141-3.142-.12-4.812,0-.417.008-.836.046-1.262a12.343,12.343,0,0,1,.125-1.291,9.934,9.934,0,0,1,.234-1.283l.154-.6.038-.151.03-.112.03-.08.119-.318a12.689,12.689,0,0,1,1.231-2.295l.667-1.031.3-.495.294-.536a14.541,14.541,0,0,0,1.433-4.361c.073-.373.087-.73.131-1.093l.022-.569.009-.267-.006-.275c0-.732-.057-1.451-.117-2.15-.137-1.4-.367-2.716-.608-3.926s-.519-2.31-.772-3.283-.508-1.813-.719-2.5c-.428-1.381-.712-2.154-.712-2.154Z" transform="translate(-1379.765 -1140.387)" fill="#222b5a"/>
        <path id="Trazado_617281" data-name="Trazado 617281" d="M1348.167,1179.115l-.151-.284c-.1-.184-.233-.452-.4-.8-.334-.689-.792-1.68-1.266-2.9a29.018,29.018,0,0,1-1.318-4.289,17.167,17.167,0,0,1-.364-2.528,10.159,10.159,0,0,1,.152-2.667c.057-.221.094-.445.172-.661l.2-.617.2-.61c.059-.2.1-.4.147-.594a12.028,12.028,0,0,0,.223-1.2c.05-.4.084-.8.1-1.194.005-.394.026-.782,0-1.162-.01-.19-.013-.378-.028-.564l-.057-.548c-.029-.362-.106-.708-.153-1.047-.071-.334-.134-.66-.214-.967a14.235,14.235,0,0,0-.524-1.652c-.088-.243-.185-.464-.278-.667s-.183-.386-.268-.55-.167-.306-.241-.428a3.135,3.135,0,0,0-.194-.3l-.173-.244.255-.207.194.254a3.4,3.4,0,0,1,.217.314c.081.125.177.269.267.438s.2.351.3.56.211.431.311.678a14.712,14.712,0,0,1,.6,1.683c.093.314.17.647.255.99.062.348.153.7.2,1.077l.078.567c.022.192.033.387.05.585.042.394.035.8.044,1.212a13.449,13.449,0,0,1-.26,2.538c-.046.215-.084.438-.138.648l-.177.616-.176.614c-.063.19-.088.395-.132.591a9.312,9.312,0,0,0-.051,2.447,16.208,16.208,0,0,0,.427,2.376,27.968,27.968,0,0,0,1.413,4.083c.5,1.168.978,2.115,1.323,2.768.173.327.314.58.41.751l.148.257Z" transform="translate(-1329.639 -1130.619)" fill="#222b5a"/>
        <path id="Trazado_617282" data-name="Trazado 617282" d="M1476.226,1248.677l.183.014c.116.008.285.018.5.025a13.512,13.512,0,0,0,1.787-.051,7.078,7.078,0,0,0,1.2-.216,2.862,2.862,0,0,0,1.182-.6,1.381,1.381,0,0,0,.341-.5,3.746,3.746,0,0,0,.106-.49l.169-.939c.061-.314.1-.632.152-.943s.1-.618.142-.915.07-.585.1-.858l.088-.769a6.253,6.253,0,0,0,.039-.655c.006-.2.012-.366.016-.506.009-.28.014-.44.014-.44l-.492.006-.034.431c-.011.137-.024.3-.039.494a6.076,6.076,0,0,1-.067.641c-.038.235-.079.49-.123.76s-.085.554-.142.848-.121.6-.183.9-.12.62-.195.934-.143.627-.213.935a3.854,3.854,0,0,1-.109.426.927.927,0,0,1-.229.311,2.063,2.063,0,0,1-.843.391,5.991,5.991,0,0,1-1,.156,12.191,12.191,0,0,1-1.606.011c-.195-.011-.347-.023-.449-.032l-.151-.015Z" transform="translate(-1453.114 -1213.001)" fill="#222b5a"/>
        <path id="Trazado_617283" data-name="Trazado 617283" d="M1225.433,1377.779s.029.214.1.579a12.33,12.33,0,0,0,.407,1.492,8.728,8.728,0,0,0,.4.965,5.344,5.344,0,0,0,.624,1.01,2.909,2.909,0,0,0,1.025.841,2.06,2.06,0,0,0,.689.193c.126.014.233.019.335.022l.316.012a39.649,39.649,0,0,1,4.563.336,4.164,4.164,0,0,1,1.3.375c.111.066.127.11.118.1s-.014-.03-.009-.028l.957-.115a.952.952,0,0,0-.107-.311,1.2,1.2,0,0,0-.507-.464,4.895,4.895,0,0,0-1.633-.406,40.2,40.2,0,0,0-4.674-.111l-.315,0c-.108,0-.211,0-.293,0a1.483,1.483,0,0,1-.515-.116,2.384,2.384,0,0,1-.868-.649,4.872,4.872,0,0,1-.614-.892,8.251,8.251,0,0,1-.423-.9,11.983,11.983,0,0,1-.468-1.427c-.091-.353-.129-.554-.129-.554Z" transform="translate(-1219.388 -1340.584)" fill="#222b5a"/>
        <path id="Trazado_617284" data-name="Trazado 617284" d="M1185.79,853.457c.259.095.71-3.918.613-4.435a6.586,6.586,0,0,0-3.558-4.456c-5.89-3.213-4.712-7.71-7.6-8.353s-2.677-6-7.282-3.855c-2.606,1.212-4.4,3.176-6.563,4.978-2.345,1.957-4.678,1.167-7.568,1.23-1.722.037-3.734.881-3.971,2.587-.153,1.1.5,2.191.329,3.285a3.551,3.551,0,0,1-2.438,2.462,3.594,3.594,0,0,0-1.951,1.164,2.818,2.818,0,0,0,.183,2.512,12.054,12.054,0,0,0,3.493,4.977c1.889,1.448,4.4,1.551,6.682,1.261,1.85-.235,3.616-1.343,5.508-1.334,2.058.009,4.275,1.265,5.933,2.409,2.143,1.478,3.913,3.437,6,5,3.813,2.852,8.748,3.712,12.822.779a20.4,20.4,0,0,0,4.825-5.483,1.036,1.036,0,0,0,.242-.659,1,1,0,0,0-.322-.539A14.156,14.156,0,0,0,1185.79,853.457Z" transform="translate(-1144.956 -831.856)" fill="#222b5a"/>
        <path id="Trazado_617285" data-name="Trazado 617285" d="M1138.99,1311.953s2.691-3.775,4.5-3.092a9.469,9.469,0,0,1,3.213,1.5c1.486,1.025,3.012,1.628,1.124,2.23s.08,2.731-5.5,2.53S1134.533,1312.877,1138.99,1311.953Z" transform="translate(-1136.613 -1276.323)" fill="#222b5a"/>
      </g>
      <g id="Grupo_878457" data-name="Grupo 878457" transform="translate(470.579 537.107)">
        <g id="Grupo_878456" data-name="Grupo 878456" transform="translate(5.644 5.493)">
          <path id="Trazado_617286" data-name="Trazado 617286" d="M1117.633,1742.58l-.088.189c-.055.127-.137.315-.223.562s-.182.549-.273.9a7.144,7.144,0,0,0-.185,1.188,4.451,4.451,0,0,0,.1,1.37,3.142,3.142,0,0,0,.649,1.308,16.474,16.474,0,0,1,1.116,1.462l.272.406.232.426.232.429c.078.143.13.3.2.448a10.173,10.173,0,0,1,.6,1.852c.058.315.121.628.171.939l.082.923c.032.3.011.6.019.891q0,.219,0,.432c0,.134,0,.266,0,.4-.009.534-.017,1.038-.024,1.5s.015.876.018,1.248.017.691.038.956.026.477.041.609l.019.206-1.278.133s-.006-.083-.016-.239-.014-.37-.025-.651-.016-.616-.011-1-.007-.831.018-1.294.043-.969.068-1.5q.008-.2.017-.414t.01-.4c0-.268.03-.546.007-.823l-.05-.846c-.038-.282-.088-.565-.13-.853a9.145,9.145,0,0,0-.492-1.683c-.056-.136-.1-.279-.165-.41l-.2-.394-.2-.394-.231-.366a15.426,15.426,0,0,0-1.021-1.42,4.017,4.017,0,0,1-.785-1.691,5.266,5.266,0,0,1-.077-1.62,7.93,7.93,0,0,1,.243-1.316c.11-.38.218-.706.324-.968s.2-.465.26-.6l.106-.213Z" transform="translate(-1116.035 -1742.253)" fill="#222b5a"/>
          <path id="Trazado_617287" data-name="Trazado 617287" d="M1153.258,1770.1l.088-.022c.071-.019.094-.024.189-.056a4.233,4.233,0,0,0,.726-.334,2.557,2.557,0,0,0,.8-.682.962.962,0,0,0,.111-.209l.016-.052.009-.026v0h0c-.005.094,0,.024,0,.045v-.034a1.339,1.339,0,0,0,.006-.17.535.535,0,0,1-.01-.1l-.035-.156c-.026-.106-.062-.219-.1-.332-.159-.457-.36-.935-.51-1.4-.075-.233-.14-.463-.189-.685a4.283,4.283,0,0,1-.1-.637,3.891,3.891,0,0,1-.006-.547c.018-.163.04-.3.061-.418l.1-.353.255.075s-.018.118-.05.325c-.005.1-.008.232-.007.376a3.49,3.49,0,0,0,.067.483,3.8,3.8,0,0,0,.158.558c.069.2.155.4.253.606.195.417.443.846.678,1.319.058.12.115.243.167.376l.074.205c.022.088.042.181.058.273a1.985,1.985,0,0,1,.018.2l0,.023v.011l0,.054v.008l-.009.064-.02.128a1.869,1.869,0,0,1-.16.457,3.5,3.5,0,0,1-1.005,1.143,5.434,5.434,0,0,1-.875.547c-.108.055-.247.111-.289.127l-.085.033Z" transform="translate(-1150.725 -1762.451)" fill="#222b5a"/>
        </g>
        <path id="Trazado_617288" data-name="Trazado 617288" d="M1034.11,1667.975a1.71,1.71,0,0,1-.651-2.59c.668-.879,4.562-2.983,5.526-3.568a3.038,3.038,0,0,1,2.855.168c1.555.844,2.387,1.842,4.45,1.922,1.146.045,2.867.944,2.723,1.245.1-.207,1.691,2.356.465,3.058a27.643,27.643,0,0,1-3.28,1.374c-1.755.316-.852,1.612-1.727,2.212a2.473,2.473,0,0,1-2.828-.62A5.7,5.7,0,0,0,1039,1669C1037.66,1668.55,1034.319,1668.1,1034.11,1667.975Z" transform="translate(-1033.096 -1661.529)" fill="#222b5a"/>
      </g>
      <path id="Trazado_617289" data-name="Trazado 617289" d="M2015.678,1473.688c-2.465-.318.138-4.03-.4-5.285.027,1.951-4.031,4.765-.047,5.664-.131.146-.529.381-.484.578,1.968-.4,2.541,2.062,7.8-2.364a15.925,15.925,0,0,0-4.5,1.518c3.067-1.5,1.092-3.162,3.815-5.064C2018.6,1469.861,2019.009,1474.118,2015.678,1473.688Z" transform="translate(-1476.185 -944.438)" fill="#222b5a"/>
      <path id="Trazado_617290" data-name="Trazado 617290" d="M2208.94,1382.758c-1.187.461-8.428.687-9.544-.207.993,1.787,7.473,1.4,9.323.777-.049.2-.3.614-.16.773,1.148-.8,5.949,2.685,6.035-1.134-.791.161-1.751.49-2.5.011,2.459-2.152,5.423-3.532,6.992-6.638C2216.632,1379,2212.22,1381.483,2208.94,1382.758Z" transform="translate(-1649.447 -858.64)" fill="#222b5a"/>
      <g id="Grupo_878458" data-name="Grupo 878458" transform="translate(521.178 529.788)">
        <path id="Trazado_617291" data-name="Trazado 617291" d="M1781.138,1600.127a3.72,3.72,0,0,1,1.187-1.347c.705-.4.236.7-.09,1.059a2.616,2.616,0,0,0-.463.69s.294,4.219,2.956,5.083,4.074,1.96,6.5,1.032,3.332-.235,3.553,1.118-.307,3.341.91,3.668,1.785.258,2.608,1.629,1.287,2.748,1.751,2.794.435,1.135.435,1.135-1.4-.059-1.672-.773-1.739-3.276-1.739-3.276-4.728-.011-5.238-.857-1.095-1.886-1.095-1.886-5.944,1.571-6.786.927-4.731-1.572-4.595-.731a8.467,8.467,0,0,0,.829,1.871c-.021.107,1.546.313,1.724.778a9.825,9.825,0,0,1,.334,1.26s-1.833-1.1-2.33-1.388-.7-1.281-.768-1.454-2.678-1.553-1.528-1.82a8.975,8.975,0,0,1,3.587-.474,11.665,11.665,0,0,1-.1-3.553,12.165,12.165,0,0,0-1.248-2.869s-2.1.372-2.407.092-1.527-.717-.3-1.064,2.774-.914,2.756-1.155S1780.361,1599.994,1781.138,1600.127Z" transform="translate(-1776.617 -1595.65)" fill="#222b5a"/>
        <path id="Trazado_617292" data-name="Trazado 617292" d="M1789.107,1558.867s.782-.978.534-1.626-1.526-.92-2.068-1.125-1.474.251-1.54-.782a7.97,7.97,0,0,1-.034-1.21s.234,1.431.581,1.43a14.123,14.123,0,0,1,1.41.187s-1.037-1.024-.625-1.761c0,0,.864,1.735,1.235,1.841a.7.7,0,0,1,.469.448s-.273-1.532.215-1.984c0,0,0,1.554.43,1.769s.543,1.115.248,1.856a2.612,2.612,0,0,0-.208,1.27Z" transform="translate(-1785.354 -1553.98)" fill="#222b5a"/>
        <path id="Trazado_617293" data-name="Trazado 617293" d="M2025.315,1678.242c.12-.108.9-.864.812-1.278a9.062,9.062,0,0,1-.278-1.406,1.307,1.307,0,0,1,.692.739c.047.156.184-.232.184-.232a.7.7,0,0,1,.369.962c-.287.705-.2,1.083-1.38,1.348S2025.315,1678.242,2025.315,1678.242Z" transform="translate(-2008.156 -1667.284)" fill="#222b5a"/>
      </g>
      <path id="Trazado_617294" data-name="Trazado 617294" d="M525.69,1902.977c31.853,95.168,143.942,42.549,177.447,10.576C636.987,1861.317,566.4,1866.191,525.69,1902.977Z" transform="translate(-89.641 -1323.223)" fill="#222b5a"/>
      <path id="Trazado_617295" data-name="Trazado 617295" d="M543.688,2124.681c40.939,93.535,151.836,67.043,176.222,6C627.092,2154.844,632.15,2074.468,543.688,2124.681Z" transform="translate(-106.414 -1540.352)" fill="#f1b62b"/>
      <g id="Grupo_878460" data-name="Grupo 878460" transform="translate(439.291 500.615)">
        <g id="Grupo_878459" data-name="Grupo 878459" transform="translate(9.995 17.21)">
          <path id="Trazado_617296" data-name="Trazado 617296" d="M722.528,1378.187s.315.772.8,2.143c.238.687.52,1.524.815,2.493s.612,2.069.9,3.286.57,2.545.763,3.974c.087.716.169,1.454.2,2.216l.017.286v.866c-.03.4-.036.811-.1,1.2a15.533,15.533,0,0,1-1.377,4.747,45.261,45.261,0,0,0-2.269,4.285l-.09.267-.023.067c.018-.068,0-.008.005-.019l0,.019-.008.038-.033.152-.132.607a8.157,8.157,0,0,0-.166,1.16,11.1,11.1,0,0,0-.069,1.168c-.022.393-.011.793,0,1.191.037,1.591.2,3.178.291,4.752.018.4.044.785.055,1.182q.013.572.027,1.132.027,1.121.052,2.189c.034,1.423.066,2.768.1,4.01.059,2.484.108,4.554.142,6s.035,2.289.035,2.289l-2.249-.01s.017-.824.048-2.266.044-3.519.074-6c.015-1.242.032-2.588.05-4.011q.013-1.068.027-2.19.007-.56.014-1.132c0-.365-.008-.748-.012-1.126-.035-1.528-.141-3.142-.12-4.812,0-.417.008-.836.046-1.262a12.294,12.294,0,0,1,.125-1.291,9.9,9.9,0,0,1,.234-1.283l.154-.6.038-.15.03-.112.03-.08.119-.318a12.677,12.677,0,0,1,1.231-2.295l.667-1.031.3-.495.294-.536a14.549,14.549,0,0,0,1.433-4.361c.072-.373.087-.73.13-1.093q.011-.286.021-.569l.009-.267-.006-.275c0-.732-.057-1.45-.117-2.15-.138-1.4-.367-2.716-.608-3.926s-.519-2.31-.772-3.283-.508-1.813-.719-2.5c-.428-1.381-.712-2.154-.712-2.154Z" transform="translate(-720.203 -1378.187)" fill="#222b5a"/>
          <path id="Trazado_617297" data-name="Trazado 617297" d="M784.093,1431.621s.145-.212.391-.605.585-.957.961-1.653a22.989,22.989,0,0,0,1.147-2.436,13.4,13.4,0,0,0,.472-1.427,7.216,7.216,0,0,0,.163-.745l.033-.188.015-.082.009-.1.037-.4a10.919,10.919,0,0,0-.018-1.536c-.035-.513-.1-1.022-.165-1.516-.134-.989-.27-1.927-.3-2.754-.009-.206,0-.407,0-.6s.028-.372.041-.542a5.021,5.021,0,0,1,.183-.876,3.243,3.243,0,0,1,.205-.545l.084-.189.522.27-.069.163a2.69,2.69,0,0,0-.171.471,4.426,4.426,0,0,0-.152.774c-.009.155-.027.318-.032.493s0,.36.006.554c.032.777.174,1.692.32,2.686.07.5.144,1.017.187,1.553a11.52,11.52,0,0,1,.035,1.649l-.033.4-.008.1-.017.115-.033.206a7.9,7.9,0,0,1-.167.807,14.047,14.047,0,0,1-.481,1.51,23.672,23.672,0,0,1-1.156,2.529c-.378.719-.72,1.3-.967,1.706s-.4.633-.4.633Z" transform="translate(-779.745 -1412.899)" fill="#222b5a"/>
          <path id="Trazado_617298" data-name="Trazado 617298" d="M832.476,1432.785l.067-.052c.045-.037.113-.1.2-.175a5.383,5.383,0,0,0,.639-.737,6.194,6.194,0,0,0,.359-.554,5.887,5.887,0,0,0,.334-.661,6.956,6.956,0,0,0,.28-.746l.114-.4.088-.406c.057-.277.085-.539.129-.832l.112-.823c.037-.267.1-.532.147-.779s.122-.478.178-.691a4.866,4.866,0,0,1,.21-.574,2.654,2.654,0,0,1,.243-.426l.123-.148c.045-.04.089-.073.122-.1a.644.644,0,0,1,.13-.067l.1.3a.427.427,0,0,0-.049.032l-.068.06-.085.115a2.342,2.342,0,0,0-.186.37,4.458,4.458,0,0,0-.168.538,6.687,6.687,0,0,0-.138.663c-.033.24-.082.485-.106.752l-.073.827c-.028.268-.046.579-.093.867l-.074.439-.1.431a7.53,7.53,0,0,1-.265.821,6.521,6.521,0,0,1-.331.74,6.9,6.9,0,0,1-.368.631,6.106,6.106,0,0,1-.684.868c-.094.1-.173.172-.229.223l-.092.079Z" transform="translate(-824.835 -1421.458)" fill="#222b5a"/>
        </g>
        <path id="Trazado_617299" data-name="Trazado 617299" d="M574.871,1147.529a2.214,2.214,0,0,1-1.533-2.2c.067-1.459,1.976-2.357,2.016-3.911.029-1.134-.967-2.178-.708-3.282.254-1.082,1.531-1.531,2.629-1.707s3.305-2.28,3.512-2.764a2.876,2.876,0,0,1,3.258-1.6c-1.336-.347,2.746-4.762,3.163-5.009,2.331-1.381,6.777-2.321,9.417-1.386a4.063,4.063,0,0,1,2.434,4.845c.134-.4,7.844,1.974,8.429,2.235,1.006.449,2.33,1.2,2,2.519-.146.575-.01,3.3.65,3.817s2.148,11.4-2.083,12.582c-.964.269-4.684,2.337-5.8,2.8a5.378,5.378,0,0,1-4.923-.9c-1.437-.979-2.587-2.321-3.947-3.406a13.85,13.85,0,0,0-9.874-2.926c-1.647.161-3.255.62-4.9.764A8.366,8.366,0,0,1,574.871,1147.529Z" transform="translate(-573.335 -1125.297)" fill="#222b5a"/>
        <path id="Trazado_617300" data-name="Trazado 617300" d="M753.4,1643.485c2.424-3.731,5.173-5.8,8.307-5.9l.4.92c-2.508-.469-5.747,1.583-9.408,6.552Z" transform="translate(-740.501 -1602.722)" fill="#222b5a"/>
        <path id="Trazado_617301" data-name="Trazado 617301" d="M706.434,1485.394c-3.07-.653-5.214-1.994-6.255-4.152l.443-.538c.495,1.879,2.093,3.2,6.465,4.486Z" transform="translate(-691.547 -1456.518)" fill="#222b5a"/>
        <path id="Trazado_617302" data-name="Trazado 617302" d="M842.154,1618.368s-3.081,4.638-4.809,3.611-1.67-.759-3.043-2.2-2.829-2.341-.885-2.962.209-3.521,5.75-2.806S846.694,1617.545,842.154,1618.368Z" transform="translate(-814.841 -1580.649)" fill="#222b5a"/>
        <path id="Trazado_617303" data-name="Trazado 617303" d="M626.556,1474.333s-1.453,1.332-2.426,1.227-1.369,1.775-2.222,1.468-3.927-1.26-3.065-1.775a20.069,20.069,0,0,1,5.7-2.022C627.32,1472.649,628.65,1473.354,626.556,1474.333Z" transform="translate(-615.605 -1449.356)" fill="#222b5a"/>
      </g>
      <g id="Grupo_878462" data-name="Grupo 878462" transform="translate(578.377 511.325)">
        <g id="Grupo_878461" data-name="Grupo 878461" transform="translate(7.448 21.761)">
          <path id="Trazado_617304" data-name="Trazado 617304" d="M2842.342,1612.923s.315.772.8,2.143c.238.687.52,1.524.814,2.493s.613,2.069.9,3.286.57,2.545.763,3.973c.087.716.169,1.454.2,2.216l.017.286v.3q0,.283,0,.569c-.03.4-.036.81-.1,1.2a15.541,15.541,0,0,1-1.377,4.747,45.236,45.236,0,0,0-2.27,4.285l-.09.267-.023.066c.018-.068,0-.008.005-.018l0,.019-.009.038-.033.152-.132.607a8.146,8.146,0,0,0-.166,1.16,11.257,11.257,0,0,0-.069,1.168c-.022.393-.011.793,0,1.191.037,1.591.2,3.178.292,4.752.018.4.044.785.055,1.182q.013.572.027,1.132.026,1.121.052,2.19c.033,1.423.066,2.768.095,4.01.059,2.484.108,4.553.143,6s.034,2.289.034,2.289l-2.249-.01s.017-.824.048-2.265.044-3.519.074-6c.015-1.242.032-2.588.05-4.011q.013-1.068.027-2.19.007-.56.014-1.133c0-.365-.009-.747-.012-1.126-.035-1.528-.141-3.142-.12-4.812,0-.417.008-.836.046-1.262a12.349,12.349,0,0,1,.125-1.291,9.857,9.857,0,0,1,.234-1.282l.154-.6.039-.15.03-.112.03-.079.119-.318a12.663,12.663,0,0,1,1.231-2.294l.667-1.031.3-.495.294-.536a14.538,14.538,0,0,0,1.433-4.361c.073-.373.087-.73.131-1.093q.011-.286.021-.569l.009-.268-.006-.275c0-.732-.057-1.45-.117-2.15-.137-1.4-.367-2.716-.608-3.926s-.519-2.31-.772-3.283-.508-1.812-.719-2.5c-.428-1.381-.712-2.154-.712-2.154Z" transform="translate(-2832.297 -1612.209)" fill="#222b5a"/>
          <path id="Trazado_617305" data-name="Trazado 617305" d="M2790.664,1629.12l-.151-.284c-.1-.184-.233-.452-.4-.8-.334-.689-.792-1.68-1.266-2.9a29.034,29.034,0,0,1-1.318-4.289,17.167,17.167,0,0,1-.364-2.528,10.17,10.17,0,0,1,.152-2.667c.057-.221.094-.445.172-.661l.2-.617.2-.61c.059-.2.1-.4.147-.594a12.107,12.107,0,0,0,.223-1.2c.05-.4.084-.8.1-1.194s.026-.782,0-1.162c-.01-.19-.012-.378-.028-.564s-.038-.368-.057-.548c-.029-.362-.106-.708-.154-1.047-.071-.334-.134-.66-.214-.967a14.326,14.326,0,0,0-.524-1.652c-.088-.243-.185-.464-.278-.667s-.184-.386-.268-.55-.168-.306-.241-.428a3.055,3.055,0,0,0-.195-.3l-.173-.244.255-.207.194.254a3.393,3.393,0,0,1,.216.314c.081.125.177.269.267.438s.2.351.3.56.211.431.311.678a14.7,14.7,0,0,1,.6,1.683c.093.314.17.647.255.99.062.348.153.7.2,1.077q.039.28.078.567c.022.192.033.387.05.584.042.394.035.8.044,1.212a13.443,13.443,0,0,1-.259,2.538c-.046.215-.084.438-.138.648l-.177.616-.176.614c-.063.19-.088.395-.132.591a9.333,9.333,0,0,0-.051,2.447,16.271,16.271,0,0,0,.427,2.375,27.993,27.993,0,0,0,1.413,4.083c.5,1.168.978,2.115,1.323,2.768.173.327.313.581.41.751l.148.257Z" transform="translate(-2782.171 -1602.44)" fill="#222b5a"/>
          <path id="Trazado_617306" data-name="Trazado 617306" d="M2768.583,1631.828l-.1.021c-.062.012-.153.026-.268.037a2.646,2.646,0,0,1-.958-.075,1.837,1.837,0,0,1-.642-.319,1.994,1.994,0,0,1-.633-.889,3.448,3.448,0,0,1-.183-.743c-.033-.284-.04-.492-.057-.724-.03-.458-.06-.924-.091-1.389s-.054-.936-.082-1.4-.052-.914-.076-1.353-.037-.866-.055-1.269-.033-.785-.048-1.137-.015-.68-.021-.968-.006-.541-.009-.748c0-.415-.008-.651-.008-.651l.264.009s.007.232.019.637c.006.2.013.448.021.73s.012.6.036.948.042.725.066,1.125.046.82.076,1.254.065.883.1,1.339.064.918.1,1.382.076.927.114,1.383c.019.224.036.473.058.63a2.181,2.181,0,0,0,.123.46,1.293,1.293,0,0,0,.452.578,1.453,1.453,0,0,0,.536.23,2.375,2.375,0,0,0,.861.016c.1-.016.186-.034.241-.048l.081-.022Z" transform="translate(-2762.719 -1619.013)" fill="#222b5a"/>
          <path id="Trazado_617307" data-name="Trazado 617307" d="M2729.814,1641.066l-.1.014c-.062.008-.153.017-.268.024a4.008,4.008,0,0,1-.958-.049,2.34,2.34,0,0,1-.642-.209,1.512,1.512,0,0,1-.634-.582,1.663,1.663,0,0,1-.183-.486c-.033-.186-.04-.322-.057-.474-.03-.3-.06-.6-.091-.909s-.054-.612-.082-.913l-.076-.885c-.023-.287-.038-.567-.055-.83s-.033-.514-.047-.744-.015-.445-.021-.634-.007-.354-.009-.49c0-.271-.007-.426-.007-.426l.263.006s.007.152.019.417c.006.132.013.293.021.478s.011.392.036.62.042.475.066.736.045.536.076.82l.1.876c.035.3.064.6.1.9s.077.607.114.905c.019.147.037.31.058.412a1.059,1.059,0,0,0,.123.3,1.028,1.028,0,0,0,.452.378,1.932,1.932,0,0,0,.536.15,3.608,3.608,0,0,0,.861.01c.1-.01.186-.022.241-.031l.081-.015Z" transform="translate(-2726.589 -1631.362)" fill="#222b5a"/>
          <path id="Trazado_617308" data-name="Trazado 617308" d="M2899.8,1845.189s-.029.214-.1.578a12.3,12.3,0,0,1-.407,1.492,8.686,8.686,0,0,1-.4.965,5.339,5.339,0,0,1-.624,1.01,2.91,2.91,0,0,1-1.025.841,2.057,2.057,0,0,1-.689.193c-.127.015-.233.019-.336.022l-.316.012a39.649,39.649,0,0,0-4.563.336,4.153,4.153,0,0,0-1.3.375c-.111.066-.127.11-.118.1s.014-.03.009-.027l-.957-.115a.945.945,0,0,1,.107-.311,1.2,1.2,0,0,1,.508-.464,4.9,4.9,0,0,1,1.633-.406,40.177,40.177,0,0,1,4.674-.11l.315,0c.108,0,.211,0,.293,0a1.482,1.482,0,0,0,.515-.116,2.388,2.388,0,0,0,.868-.65,4.873,4.873,0,0,0,.614-.892,8.093,8.093,0,0,0,.423-.9,11.926,11.926,0,0,0,.468-1.427c.092-.353.129-.554.129-.554Z" transform="translate(-2877.922 -1828.626)" fill="#222b5a"/>
        </g>
        <path id="Trazado_617309" data-name="Trazado 617309" d="M2656,1303.713c-.747-1.157.272-2.855-.076-4.26a6.675,6.675,0,0,0-3.49-4.133c-1.161-.633-2.168-1.066-2.52-2.508-.114-.464-.127-.948-.227-1.415a5.278,5.278,0,0,0-2.548-3.254c-1.049-.635-2.494-.771-3.439-1.523a10.506,10.506,0,0,1-1.519-2.142c-1.26-1.7-2.579-2.321-4.633-1.366-4.6,2.142-5.89,5.247-9.209,6.746s-6.425,5.354-4.926,6.425c.873.623-2.369,2.028-2.709,2.218a5.933,5.933,0,0,0-3.51,4.833,3.03,3.03,0,0,0,.434,2.336,4.53,4.53,0,0,0,2.181,1.328l1.728.64c2.587.958,8.281-2.483,10.013-.753,1.183,1.181,2.123,2.632,3.618,3.471,1.427.8,3.423,1.024,5.018,1.417a22.994,22.994,0,0,0,13.551-.792A7.444,7.444,0,0,0,2656.9,1309a3.232,3.232,0,0,0,.563-3.5,22.017,22.017,0,0,0-1.435-1.749Z" transform="translate(-2617.138 -1282.665)" fill="#222b5a"/>
        <path id="Trazado_617310" data-name="Trazado 617310" d="M2961.611,1801.586s2.69-3.775,4.5-3.092a9.472,9.472,0,0,1,3.212,1.5c1.486,1.025,3.012,1.628,1.125,2.23s.08,2.731-5.5,2.53S2957.154,1802.51,2961.611,1801.586Z" transform="translate(-2935.954 -1763.313)" fill="#222b5a"/>
      </g>
      <path id="Trazado_617311" data-name="Trazado 617311" d="M2080.427,1285.207a1.148,1.148,0,0,0-.833.131,5.207,5.207,0,0,1,.85.669l0,.025a5.023,5.023,0,0,0,1.1,3.689c1.5,1.819,3.243.833,4.211.775-1.529-.641-3.652-1.41-3.178-2.647,4.24,3,3.046.116,6.243-.137-3.628-.84-3.549.771-6.239-1.263-.9-3.37,1.021-1.377,3.365-3.783C2083.021,1284.274,2079.7,1281.21,2080.427,1285.207Z" transform="translate(-1537.798 -771.34)" fill="#222b5a"/>
      <g id="Grupo_878463" data-name="Grupo 878463" transform="translate(553.79 548.108)">
        <path id="Trazado_617312" data-name="Trazado 617312" d="M2666.333,1973.184s.869.019,1,1.18-.428,1.952-.919,2S2666.333,1973.184,2666.333,1973.184Z" transform="translate(-2638.246 -1962.976)" fill="#179587"/>
        <path id="Trazado_617313" data-name="Trazado 617313" d="M2383.741,1968.515a33.114,33.114,0,0,0,1.031-4.692l-2.605-2.659s-.548,6.61-.893,6.73-2.287,1.124-1.071,1.385c.856.184,2.032.586,2.858.1,1.226-.719,1.735-2.605,2.348-3.809l5.859.9a15.864,15.864,0,0,0-.3,2.351,1.777,1.777,0,0,1-.19.878c-.393.618-2.333.175-2.4,1.2-.068,1.1,3.552.59,4.113.516l2.111-3.221a3.546,3.546,0,0,0,.7-1.334,19.165,19.165,0,0,0-.086-1.948,1.139,1.139,0,0,0-.293-.922,1.371,1.371,0,0,0-.585-.25c-4.036-1.018-8-2.217-12.094-3.028q.018.222.036.444Z" transform="translate(-2371.371 -1951.357)" fill="#179587"/>
        <path id="Trazado_617314" data-name="Trazado 617314" d="M2314.023,1872.135s.159-1.466.691-1.221a2.187,2.187,0,0,1,.828.69Z" transform="translate(-2310.063 -1867.64)" fill="#179587"/>
        <path id="Trazado_617315" data-name="Trazado 617315" d="M2282.773,1841.591c-.215.65-.431,1.29-.634,1.915a2.9,2.9,0,0,1-.391.863c-.7.934-3.024.446-3.977.2a3.756,3.756,0,0,1,1.515-2.352.573.573,0,0,0,.2-.253.563.563,0,0,0,0-.249c-.25-1.541-.089-3.228-1.877-3.541a14.7,14.7,0,0,1-3.586-1.159c-1.029-.475-1.506,1.149-1.873,1.8a16.576,16.576,0,0,0-1.713,3.569c-.084.313-.65.474-1.352.505a5.651,5.651,0,0,1-2.245-.34c-1.116-.484.509-1.366,1.094-3s-1.729-7.218-2.1-7.6-4.358.877-5.475.959-1.146-.146-1.98.063-1.373-.126-2.3-.847,1.222-2.275,1.222-2.275a1.861,1.861,0,0,0,.507-1.135c.054-.709,8.377-3.866,11.073-4.98s2.594-.21,3-.116a77.174,77.174,0,0,1,9.628,6.492,6.558,6.558,0,0,1,2.6,6.338A29,29,0,0,1,2282.773,1841.591Z" transform="translate(-2255.841 -1823.184)" fill="#179587"/>
        <path id="Trazado_617316" data-name="Trazado 617316" d="M2257.007,1940.559c.041-.011.931.362.774.562s-.938.614-1.145.3A.573.573,0,0,1,2257.007,1940.559Z" transform="translate(-2256.498 -1932.571)" fill="#179587"/>
        <path id="Trazado_617317" data-name="Trazado 617317" d="M2311,1920.819s.156-.4.385-.369.609.12.475.236S2310.933,1920.957,2311,1920.819Z" transform="translate(-2307.244 -1913.83)" fill="#179587"/>
        <path id="Trazado_617318" data-name="Trazado 617318" d="M2355.987,1895.787l.023-.023c.016-.014.039-.035.071-.059a.955.955,0,0,1,.3-.154.56.56,0,0,1,.251-.019.4.4,0,0,1,.149.058.4.4,0,0,1,.122.122.649.649,0,0,1,.094.3c0,.025,0,.049,0,.074v.037l0,.04c0,.043-.007.086-.01.129s-.018.1-.027.146-.026.091-.039.135a1.428,1.428,0,0,1-.109.248,1.083,1.083,0,0,1-.067.11,1.057,1.057,0,0,1-.072.1c-.024.031-.049.061-.074.088s-.05.053-.076.076a1.37,1.37,0,0,1-.144.118,1.227,1.227,0,0,1-.121.076.7.7,0,0,1-.112.052s.027-.036.071-.1c.022-.031.047-.07.075-.114.014-.022.029-.045.043-.07s.031-.05.045-.078.032-.055.047-.085.032-.059.046-.091.032-.063.044-.1.031-.067.042-.1a2.231,2.231,0,0,0,.07-.217c.009-.037.018-.075.026-.113l.019-.109c0-.042.009-.085.013-.128l-.021-.018-.021-.01v0h0c0-.007,0,.008,0,.006v0l.023-.026c0-.018.014-.036.013-.053a.5.5,0,0,0-.024-.177.161.161,0,0,0-.089-.092.418.418,0,0,0-.162-.029,1.163,1.163,0,0,0-.165.011c-.051.007-.1.014-.133.021Z" transform="translate(-2349.171 -1890.602)" fill="#179587" opacity="0.34"/>
        <path id="Trazado_617319" data-name="Trazado 617319" d="M2455.239,2021.483c-.661.012-2.969,4.835-3.146,5.493-.083.312-.649.474-1.34.505C2450.788,2027.4,2453.926,2019.85,2455.239,2021.483Z" transform="translate(-2437.489 -2007.773)" fill="#179587" opacity="0.34"/>
      </g>
    </g>
  </g>
</svg>
