<svg xmlns="http://www.w3.org/2000/svg" xmlns:xlink="http://www.w3.org/1999/xlink" width="113.758" height="69.324" viewBox="0 0 113.758 69.324">
  <defs>
    <linearGradient id="linear-gradient" x1="0.516" y1="-0.331" x2="0.488" y2="1.057" gradientUnits="objectBoundingBox">
      <stop offset="0.012" stop-color="#ccf3ff"/>
      <stop offset="0.988" stop-color="gray"/>
    </linearGradient>
    <linearGradient id="linear-gradient-2" x1="0.5" y1="1.132" x2="0.5" y2="0.564" gradientUnits="objectBoundingBox">
      <stop offset="0.012" stop-color="#2c5659"/>
      <stop offset="0.988" stop-color="gray"/>
    </linearGradient>
    <linearGradient id="linear-gradient-3" x1="-11.279" y1="0.667" x2="-11.375" y2="4.576" xlink:href="#linear-gradient"/>
    <linearGradient id="linear-gradient-4" x1="0.526" y1="-0.977" x2="0.482" y2="1.674" xlink:href="#linear-gradient"/>
    <linearGradient id="linear-gradient-5" x1="0.5" y1="1.233" x2="0.5" y2="0.674" xlink:href="#linear-gradient-2"/>
    <linearGradient id="linear-gradient-6" x1="0.496" y1="-0.226" x2="0.502" y2="0.886" xlink:href="#linear-gradient"/>
    <linearGradient id="linear-gradient-7" x1="0.563" y1="-1.501" x2="0.467" y2="1.677" xlink:href="#linear-gradient"/>
    <linearGradient id="linear-gradient-8" x1="0.484" y1="-1.978" x2="0.511" y2="2.534" xlink:href="#linear-gradient"/>
    <linearGradient id="linear-gradient-9" x1="0.492" y1="-0.5" x2="0.507" y2="1.985" xlink:href="#linear-gradient"/>
    <linearGradient id="linear-gradient-10" x1="0.489" y1="-1.472" x2="0.506" y2="1.307" xlink:href="#linear-gradient"/>
  </defs>
  <g id="Grupo_878648" data-name="Grupo 878648" transform="translate(11053.372 11699.324)">
    <g id="Grupo_878647" data-name="Grupo 878647" transform="translate(-11183.664 -11716.526)">
      <g id="Grupo_876469" data-name="Grupo 876469">
        <g id="Grupo_876468" data-name="Grupo 876468">
          <g id="Grupo_876467" data-name="Grupo 876467">
            <g id="Grupo_876466" data-name="Grupo 876466">
              <g id="Grupo_876458" data-name="Grupo 876458">
                <path id="Trazado_120761" data-name="Trazado 120761" d="M153.795,86.28c-.045.028-.09.068-.151.109v-.006a2.439,2.439,0,0,0-.521-.923c-.046-.015.2-.631,1.045-1.055.2.011.7,1.14.582,1.272A8.93,8.93,0,0,1,153.795,86.28Z" fill="#74bbc2"/>
                <path id="Trazado_120762" data-name="Trazado 120762" d="M153.644,86.383v.006a.813.813,0,0,1-.588.129,2.973,2.973,0,0,1-.827-.26,1.562,1.562,0,0,1,.894-.8A2.439,2.439,0,0,1,153.644,86.383Z" fill="#cce9f0"/>
                <path id="Trazado_120763" data-name="Trazado 120763" d="M152.4,84.722c.248-.385,1.649-.324,1.763-.317-.848.424-1.091,1.04-1.045,1.055a1.562,1.562,0,0,0-.894.8A3.893,3.893,0,0,1,152.4,84.722Z" fill="#91c6c9"/>
              </g>
              <g id="Grupo_876459" data-name="Grupo 876459">
                <path id="Trazado_120764" data-name="Trazado 120764" d="M141.2,77.209a2.8,2.8,0,0,0,.6.5,6.8,6.8,0,0,1-1.775.181c-.074-.039-1.142-1.215-1.142-1.538C139.665,76.429,141.021,77.31,141.2,77.209Z" fill="#addade"/>
                <path id="Trazado_120765" data-name="Trazado 120765" d="M141.446,75.721c.033.866-.068,1.381-.243,1.488s-1.538-.78-2.318-.86a4.252,4.252,0,0,1,1.142-1.954C140.185,74.259,140.9,75.061,141.446,75.721Z" fill="#aedbe6"/>
                <path id="Trazado_120766" data-name="Trazado 120766" d="M142.09,76.53s-.033,1.036-.288,1.176a2.8,2.8,0,0,1-.6-.5c.175-.107.276-.622.243-1.488C141.8,76.158,142.09,76.53,142.09,76.53Z" fill="#91c6c9"/>
              </g>
              <g id="Grupo_876460" data-name="Grupo 876460">
                <path id="Trazado_120767" data-name="Trazado 120767" d="M156.684,81.738a2.436,2.436,0,0,0,.5.411,5.423,5.423,0,0,1-1.475.146c-.061-.025-.944-1-.944-1.269C155.417,81.087,156.537,81.828,156.684,81.738Z" fill="#addade"/>
                <path id="Trazado_120768" data-name="Trazado 120768" d="M156.887,80.5c.028.713-.057,1.141-.2,1.233s-1.267-.651-1.917-.712a3.451,3.451,0,0,1,.944-1.618C155.841,79.291,156.44,79.957,156.887,80.5Z" fill="#aedbe6"/>
                <path id="Trazado_120769" data-name="Trazado 120769" d="M157.423,81.172s-.033.859-.237.977a2.436,2.436,0,0,1-.5-.411c.146-.092.231-.52.2-1.233C157.186,80.866,157.423,81.172,157.423,81.172Z" fill="#91c6c9"/>
              </g>
              <g id="Grupo_876461" data-name="Grupo 876461">
                <path id="Trazado_120770" data-name="Trazado 120770" d="M142.3,81.69a6.167,6.167,0,0,1,1.549.442l-.418.242A3.245,3.245,0,0,0,142.3,81.69Z" fill="#79aaaa"/>
                <path id="Trazado_120771" data-name="Trazado 120771" d="M143.43,82.374l.418-.242a5.682,5.682,0,0,1,.418,1.7,4.331,4.331,0,0,1-.757-.249A10.7,10.7,0,0,0,143.43,82.374Z" fill="#addade"/>
                <path id="Trazado_120772" data-name="Trazado 120772" d="M142.9,84.162c-.012-.26.022-.605.61-.577a4.331,4.331,0,0,0,.757.249C144.129,84.081,142.9,84.162,142.9,84.162Z" fill="#cce9f0"/>
                <path id="Trazado_120773" data-name="Trazado 120773" d="M143.43,82.374a10.7,10.7,0,0,1,.079,1.211c-.588-.028-.622.317-.61.577-.2.022-.99-.911-1.007-1.075s.136-1.334.407-1.4A3.245,3.245,0,0,1,143.43,82.374Z" fill="#91c6c9"/>
              </g>
              <g id="Grupo_876462" data-name="Grupo 876462">
                <path id="Trazado_120774" data-name="Trazado 120774" d="M150.517,73.361a3.069,3.069,0,0,0-.152-1.6c.287-.024,1.148,1.255,1.192,1.729C151.557,73.49,150.574,73.387,150.517,73.361Z" fill="#79aaaa"/>
                <path id="Trazado_120775" data-name="Trazado 120775" d="M151.557,73.49a4.46,4.46,0,0,1-1.142,2.244.23.23,0,0,1-.157,0,3.329,3.329,0,0,1,.107-1.7,3.894,3.894,0,0,0,.152-.671C150.574,73.387,151.557,73.49,151.557,73.49Z" fill="#91c6c9"/>
                <path id="Trazado_120776" data-name="Trazado 120776" d="M148.121,72.823a2.323,2.323,0,0,0,2.244,1.209,3.329,3.329,0,0,0-.107,1.7c-.623-.12-2.555-1.282-2.522-1.7A7.508,7.508,0,0,1,148.121,72.823Z" fill="#addade"/>
                <path id="Trazado_120777" data-name="Trazado 120777" d="M150.517,73.361a3.894,3.894,0,0,1-.152.671,2.323,2.323,0,0,1-2.244-1.209,5.5,5.5,0,0,1,2.244-1.062A3.069,3.069,0,0,1,150.517,73.361Z" fill="#cce9f0"/>
              </g>
              <g id="Grupo_876463" data-name="Grupo 876463">
                <path id="Trazado_120778" data-name="Trazado 120778" d="M158.458,77.887c-.062.04-.13.1-.221.157v0a3.384,3.384,0,0,0-.769-1.368c-.068-.017.295-.933,1.55-1.565.3.022,1.028,1.685.859,1.889A14.8,14.8,0,0,1,158.458,77.887Z" fill="#74bbc2"/>
                <path id="Trazado_120779" data-name="Trazado 120779" d="M158.237,78.04v0a1.155,1.155,0,0,1-.869.193,4.213,4.213,0,0,1-1.222-.385,2.286,2.286,0,0,1,1.322-1.18A3.384,3.384,0,0,1,158.237,78.04Z" fill="#cce9f0"/>
                <path id="Trazado_120780" data-name="Trazado 120780" d="M156.406,75.57c.367-.559,2.441-.469,2.612-.463-1.255.632-1.618,1.548-1.55,1.565a2.286,2.286,0,0,0-1.322,1.18A5.794,5.794,0,0,1,156.406,75.57Z" fill="#91c6c9"/>
              </g>
              <g id="Grupo_876464" data-name="Grupo 876464">
                <path id="Trazado_120781" data-name="Trazado 120781" d="M151.784,79.255a6.584,6.584,0,0,1-.854,1.5l-.154-.5A3.322,3.322,0,0,0,151.784,79.255Z" fill="#79aaaa"/>
                <path id="Trazado_120782" data-name="Trazado 120782" d="M150.776,80.261l.154.5s-1.657.2-1.883,0a5.447,5.447,0,0,1,.452-.723A10.9,10.9,0,0,0,150.776,80.261Z" fill="#addade"/>
                <path id="Trazado_120783" data-name="Trazado 120783" d="M149.047,79.255c.278.051.627.182.452.781a5.447,5.447,0,0,0-.452.723C148.822,80.56,149.047,79.255,149.047,79.255Z" fill="#cce9f0"/>
                <path id="Trazado_120784" data-name="Trazado 120784" d="M150.776,80.261a10.9,10.9,0,0,1-1.277-.225c.175-.6-.174-.73-.452-.781.034-.214,1.2-.8,1.379-.78s1.358.481,1.358.78A3.322,3.322,0,0,1,150.776,80.261Z" fill="#91c6c9"/>
              </g>
              <g id="Grupo_876465" data-name="Grupo 876465">
                <path id="Trazado_120785" data-name="Trazado 120785" d="M136.9,72.489A6.59,6.59,0,0,1,136.04,74l-.146-.5A3.487,3.487,0,0,0,136.9,72.489Z" fill="#79aaaa"/>
                <path id="Trazado_120786" data-name="Trazado 120786" d="M135.894,73.5l.146.5a5.976,5.976,0,0,1-1.881,0,5.339,5.339,0,0,1,.452-.73A10.715,10.715,0,0,0,135.894,73.5Z" fill="#addade"/>
                <path id="Trazado_120787" data-name="Trazado 120787" d="M134.159,72.489c.276.056.627.181.452.78a5.339,5.339,0,0,0-.452.73C133.932,73.8,134.159,72.489,134.159,72.489Z" fill="#cce9f0"/>
                <path id="Trazado_120788" data-name="Trazado 120788" d="M135.894,73.5a10.715,10.715,0,0,1-1.283-.228c.175-.6-.176-.724-.452-.78.034-.215,1.2-.8,1.384-.774s1.356.481,1.356.774A3.487,3.487,0,0,1,135.894,73.5Z" fill="#91c6c9"/>
              </g>
            </g>
          </g>
        </g>
        <path id="Trazado_120789" data-name="Trazado 120789" d="M136.769,64.131c-2.609-.214-8.563-2.159-5.731-5.573s10.851-.949,13.758,1.112c-.954-3.934.809-9.594,5.9-8.932,4.706.614,5.289,6.465,5.029,10.191,3.153-3.4,9.523-5.733,11.732-1.261,2.063,4.172-5.4,6.292-8.211,7.278,5.036.993,8.067,6.822-7.849,2.5-2.989,2.713-11.251,4.627-12.116-1.155C131.523,72.869,132.456,65.725,136.769,64.131Z" fill="#629ba2"/>
        <path id="Trazado_120790" data-name="Trazado 120790" d="M136.769,64.131c-2.609-.214-8.563-2.159-5.731-5.573s10.851-.949,13.758,1.112c-.954-3.934.809-9.594,5.9-8.932,4.706.614,5.289,6.465,5.029,10.191,3.153-3.4,9.523-5.733,11.732-1.261,2.063,4.172-5.4,6.292-8.211,7.278,5.036.993,8.067,6.822-7.849,2.5-2.989,2.713-11.251,4.627-12.116-1.155C131.523,72.869,132.456,65.725,136.769,64.131Z" fill="url(#linear-gradient)" style="mix-blend-mode: hard-light;isolation: isolate"/>
        <path id="Trazado_120791" data-name="Trazado 120791" d="M136.769,64.131c-2.609-.214-8.563-2.159-5.731-5.573s10.851-.949,13.758,1.112c-.954-3.934.809-9.594,5.9-8.932,4.706.614,5.289,6.465,5.029,10.191,3.153-3.4,9.523-5.733,11.732-1.261,2.063,4.172-5.4,6.292-8.211,7.278,5.036.993,8.067,6.822-7.849,2.5-2.989,2.713-11.251,4.627-12.116-1.155C131.523,72.869,132.456,65.725,136.769,64.131Z" fill="url(#linear-gradient-2)" style="mix-blend-mode: hard-light;isolation: isolate"/>
        <path id="Trazado_120792" data-name="Trazado 120792" d="M162.32,60.982a2.441,2.441,0,0,1,1.091,3.49l.238-.028a4,4,0,0,0,1.6-3.1c0-3.338-3.381-3.1-6.2-2.024-.047.026-.1.046-.146.074a.113.113,0,0,0,.008-.022,13.386,13.386,0,0,0-2.161,1.082c-.006.144-.019.293-.039.446A7,7,0,0,1,162.32,60.982Z" fill="url(#linear-gradient-3)" style="mix-blend-mode: hard-light;isolation: isolate"/>
        <path id="Trazado_120793" data-name="Trazado 120793" d="M155.743,60.448c.012-.268.027-.533.029-.815l-.232.092a.089.089,0,0,1-.1-.041c-.723-1.231-1.11-2.556-2.21-3.528a6.339,6.339,0,0,0-3.626-1.792c-2.913-.173-4.334,2.148-4.939,4.631.037.23.079.455.131.675-.074-.052-.164-.1-.245-.157-.027.138-.054.276-.077.415a.088.088,0,0,1-.13.052c-4.042-2.948-10.115-1.636-12.88,2.278a8.749,8.749,0,0,0,2.454,1.244,15.041,15.041,0,0,1,9.709,2.045c.6-5.138,8.084-8.012,9.752-2.771A13.4,13.4,0,0,1,155.743,60.448Z" fill="url(#linear-gradient-4)" style="mix-blend-mode: hard-light;isolation: isolate"/>
      </g>
      <g id="Grupo_876484" data-name="Grupo 876484">
        <g id="Grupo_876483" data-name="Grupo 876483">
          <g id="Grupo_876482" data-name="Grupo 876482">
            <g id="Grupo_876470" data-name="Grupo 876470">
              <path id="Trazado_120794" data-name="Trazado 120794" d="M174.514,71.519c-.077.006-.153.015-.252.028l.005-.007a3.254,3.254,0,0,0,.035-1.447,2.426,2.426,0,0,1,1.974-.515,2.792,2.792,0,0,1-.213,1.91A11.627,11.627,0,0,1,174.514,71.519Z" fill="#74bbc2"/>
              <path id="Trazado_120795" data-name="Trazado 120795" d="M174.267,71.54l-.005.007a1.125,1.125,0,0,1-.779-.265,3.516,3.516,0,0,1-.787-.884,2.1,2.1,0,0,1,1.606-.305A3.254,3.254,0,0,1,174.267,71.54Z" fill="#cce9f0"/>
              <path id="Trazado_120796" data-name="Trazado 120796" d="M173.98,68.712c.553-.273,2.162.787,2.3.866a2.426,2.426,0,0,0-1.974.515,2.1,2.1,0,0,0-1.606.305S173.43,68.987,173.98,68.712Z" fill="#91c6c9"/>
            </g>
            <g id="Grupo_876471" data-name="Grupo 876471">
              <path id="Trazado_120797" data-name="Trazado 120797" d="M192.653,78.989c-.073,0-.154.017-.248.024h0a3.178,3.178,0,0,0,.032-1.46,2.444,2.444,0,0,1,1.972-.507,2.724,2.724,0,0,1-.21,1.9A11.767,11.767,0,0,1,192.653,78.989Z" fill="#74bbc2"/>
              <path id="Trazado_120798" data-name="Trazado 120798" d="M192.4,79.013h0a1.142,1.142,0,0,1-.789-.265,3.763,3.763,0,0,1-.787-.885,2.1,2.1,0,0,1,1.608-.31A3.178,3.178,0,0,1,192.4,79.013Z" fill="#cce9f0"/>
              <path id="Trazado_120799" data-name="Trazado 120799" d="M192.117,76.174c.554-.265,2.163.786,2.292.872a2.444,2.444,0,0,0-1.972.507,2.1,2.1,0,0,0-1.608.31S191.562,76.454,192.117,76.174Z" fill="#91c6c9"/>
            </g>
            <g id="Grupo_876472" data-name="Grupo 876472">
              <path id="Trazado_120800" data-name="Trazado 120800" d="M197.788,60.582a3.785,3.785,0,0,0,.363,1.009,9.366,9.366,0,0,1-2.221-1.038,7.545,7.545,0,0,1-.262-2.607C196.54,58.584,197.5,60.575,197.788,60.582Z" fill="#addade"/>
              <path id="Trazado_120801" data-name="Trazado 120801" d="M199.128,59c-.568,1.038-1.047,1.571-1.34,1.578s-1.248-2-2.12-2.636a5.776,5.776,0,0,1,2.713-1.5C198.666,56.394,198.943,57.848,199.128,59Z" fill="#aedbe6"/>
              <path id="Trazado_120802" data-name="Trazado 120802" d="M199.313,60.411s-.76,1.185-1.162,1.18a3.785,3.785,0,0,1-.363-1.009c.293-.007.772-.54,1.34-1.578C199.237,59.771,199.313,60.411,199.313,60.411Z" fill="#91c6c9"/>
            </g>
            <g id="Grupo_876473" data-name="Grupo 876473">
              <path id="Trazado_120803" data-name="Trazado 120803" d="M213.764,74.2a2.989,2.989,0,0,0,.3.826,7.241,7.241,0,0,1-1.832-.859,5.852,5.852,0,0,1-.227-2.153C212.727,72.542,213.526,74.19,213.764,74.2Z" fill="#addade"/>
              <path id="Trazado_120804" data-name="Trazado 120804" d="M214.868,72.893c-.474.853-.868,1.3-1.1,1.305s-1.037-1.656-1.759-2.186a4.681,4.681,0,0,1,2.251-1.235C214.486,70.727,214.725,71.923,214.868,72.893Z" fill="#aedbe6"/>
              <path id="Trazado_120805" data-name="Trazado 120805" d="M215.023,74.049s-.642.986-.959.975a2.989,2.989,0,0,1-.3-.826c.236,0,.63-.452,1.1-1.305C214.96,73.525,215.023,74.049,215.023,74.049Z" fill="#91c6c9"/>
            </g>
            <g id="Grupo_876474" data-name="Grupo 876474">
              <path id="Trazado_120806" data-name="Trazado 120806" d="M195.935,66.612c.367.111,1.511,1.6,1.511,1.6h-.666A4.466,4.466,0,0,0,195.935,66.612Z" fill="#79aaaa"/>
              <path id="Trazado_120807" data-name="Trazado 120807" d="M196.78,68.216h.666s-.379,2.1-.707,2.3a6.925,6.925,0,0,1-.715-.825A12.756,12.756,0,0,0,196.78,68.216Z" fill="#addade"/>
              <path id="Trazado_120808" data-name="Trazado 120808" d="M194.9,69.942c.169-.314.451-.694,1.122-.249a6.925,6.925,0,0,0,.715.825C196.4,70.714,194.9,69.942,194.9,69.942Z" fill="#cce9f0"/>
              <path id="Trazado_120809" data-name="Trazado 120809" d="M196.78,68.216a12.756,12.756,0,0,1-.756,1.477c-.671-.445-.953-.065-1.122.249a3.916,3.916,0,0,1-.423-1.965c.1-.211,1.089-1.475,1.456-1.365A4.466,4.466,0,0,1,196.78,68.216Z" fill="#91c6c9"/>
            </g>
            <g id="Grupo_876475" data-name="Grupo 876475">
              <path id="Trazado_120810" data-name="Trazado 120810" d="M204.684,58.851a4.2,4.2,0,0,0,.943-1.987c.351.181.468,2.28.184,2.876C205.811,59.74,204.727,58.929,204.684,58.851Z" fill="#79aaaa"/>
              <path id="Trazado_120811" data-name="Trazado 120811" d="M205.811,59.74a6.067,6.067,0,0,1-2.913,1.83.351.351,0,0,1-.186-.112c.073-.787,1.317-1.916,1.317-1.916a5.413,5.413,0,0,0,.655-.691C204.727,58.929,205.811,59.74,205.811,59.74Z" fill="#91c6c9"/>
              <path id="Trazado_120812" data-name="Trazado 120812" d="M202.24,56.545a3.206,3.206,0,0,0,1.789,3s-1.244,1.129-1.317,1.916c-.647-.575-2.1-3.3-1.773-3.761A10.136,10.136,0,0,1,202.24,56.545Z" fill="#addade"/>
              <path id="Trazado_120813" data-name="Trazado 120813" d="M204.684,58.851a5.413,5.413,0,0,1-.655.691,3.206,3.206,0,0,1-1.789-3c.5-.317,3.036.138,3.387.319A4.2,4.2,0,0,1,204.684,58.851Z" fill="#cce9f0"/>
            </g>
            <g id="Grupo_876476" data-name="Grupo 876476">
              <path id="Trazado_120814" data-name="Trazado 120814" d="M179.071,61.1a3.028,3.028,0,0,0-.378.028l0-.008a4.607,4.607,0,0,0,.057-2.147c-.068-.067,1.006-.885,2.917-.751.344.24.028,2.7-.313,2.821A19.423,19.423,0,0,1,179.071,61.1Z" fill="#74bbc2"/>
              <path id="Trazado_120815" data-name="Trazado 120815" d="M178.7,61.122l0,.008a1.621,1.621,0,0,1-1.158-.386,5.932,5.932,0,0,1-1.165-1.308,3.129,3.129,0,0,1,2.384-.461A4.607,4.607,0,0,1,178.7,61.122Z" fill="#cce9f0"/>
              <path id="Trazado_120816" data-name="Trazado 120816" d="M178.286,56.939c.827-.407,3.2,1.156,3.385,1.285-1.911-.134-2.985.684-2.917.751a3.129,3.129,0,0,0-2.384.461S177.456,57.345,178.286,56.939Z" fill="#91c6c9"/>
            </g>
            <g id="Grupo_876477" data-name="Grupo 876477">
              <path id="Trazado_120817" data-name="Trazado 120817" d="M219.769,63.755a3.185,3.185,0,0,0,.275.776,7.06,7.06,0,0,1-1.7-.8,5.664,5.664,0,0,1-.2-1.993C218.812,62.219,219.55,63.76,219.769,63.755Z" fill="#addade"/>
              <path id="Trazado_120818" data-name="Trazado 120818" d="M220.795,62.549c-.437.791-.807,1.2-1.026,1.206s-.957-1.536-1.627-2.017a4.4,4.4,0,0,1,2.079-1.156C220.441,60.542,220.661,61.655,220.795,62.549Z" fill="#aedbe6"/>
              <path id="Trazado_120819" data-name="Trazado 120819" d="M220.937,63.622s-.592.918-.893.909a3.185,3.185,0,0,1-.275-.776c.219-.007.589-.415,1.026-1.206C220.881,63.13,220.937,63.622,220.937,63.622Z" fill="#91c6c9"/>
            </g>
            <g id="Grupo_876478" data-name="Grupo 876478">
              <path id="Trazado_120820" data-name="Trazado 120820" d="M208.788,70.413a9.231,9.231,0,0,1-2.052,1.171l.162-.695A4.736,4.736,0,0,0,208.788,70.413Z" fill="#79aaaa"/>
              <path id="Trazado_120821" data-name="Trazado 120821" d="M206.9,70.889l-.162.695s-2.1-.927-2.218-1.324a6.919,6.919,0,0,1,1.038-.534A14.631,14.631,0,0,0,206.9,70.889Z" fill="#addade"/>
              <path id="Trazado_120822" data-name="Trazado 120822" d="M205.573,68.491c.293.25.614.647-.017,1.235a6.919,6.919,0,0,0-1.038.534C204.391,69.868,205.573,68.491,205.573,68.491Z" fill="#cce9f0"/>
              <path id="Trazado_120823" data-name="Trazado 120823" d="M206.9,70.889a14.631,14.631,0,0,1-1.342-1.163c.631-.588.31-.985.017-1.235a4.272,4.272,0,0,1,2.168.053c.193.16,1.26,1.51,1.047,1.869A4.736,4.736,0,0,1,206.9,70.889Z" fill="#91c6c9"/>
            </g>
            <g id="Grupo_876479" data-name="Grupo 876479">
              <path id="Trazado_120824" data-name="Trazado 120824" d="M187.848,67.388a9.145,9.145,0,0,1-2.051,1.171l.169-.69A4.917,4.917,0,0,0,187.848,67.388Z" fill="#79aaaa"/>
              <path id="Trazado_120825" data-name="Trazado 120825" d="M185.966,67.869l-.169.69s-2.1-.927-2.22-1.324a7.3,7.3,0,0,1,1.045-.54A14.859,14.859,0,0,0,185.966,67.869Z" fill="#addade"/>
              <path id="Trazado_120826" data-name="Trazado 120826" d="M184.633,65.466c.3.252.625.645-.011,1.229a7.3,7.3,0,0,0-1.045.54C183.455,66.837,184.633,65.466,184.633,65.466Z" fill="#cce9f0"/>
              <path id="Trazado_120827" data-name="Trazado 120827" d="M185.966,67.869a14.859,14.859,0,0,1-1.344-1.174c.636-.584.312-.977.011-1.229a4.272,4.272,0,0,1,2.168.053c.2.153,1.261,1.51,1.047,1.869A4.917,4.917,0,0,1,185.966,67.869Z" fill="#91c6c9"/>
            </g>
            <g id="Grupo_876480" data-name="Grupo 876480">
              <path id="Trazado_120828" data-name="Trazado 120828" d="M228.4,62.33a9.18,9.18,0,0,1-2.052,1.172l.171-.691A4.917,4.917,0,0,0,228.4,62.33Z" fill="#79aaaa"/>
              <path id="Trazado_120829" data-name="Trazado 120829" d="M226.517,62.811l-.171.691s-2.095-.927-2.219-1.325a7.713,7.713,0,0,1,1.044-.54A14.2,14.2,0,0,0,226.517,62.811Z" fill="#addade"/>
              <path id="Trazado_120830" data-name="Trazado 120830" d="M225.183,60.409c.3.254.625.645-.012,1.228a7.713,7.713,0,0,0-1.044.54C224.005,61.779,225.183,60.409,225.183,60.409Z" fill="#cce9f0"/>
              <path id="Trazado_120831" data-name="Trazado 120831" d="M226.517,62.811a14.2,14.2,0,0,1-1.346-1.174c.637-.583.311-.974.012-1.228a4.272,4.272,0,0,1,2.168.052c.2.156,1.261,1.511,1.047,1.869A4.917,4.917,0,0,1,226.517,62.811Z" fill="#91c6c9"/>
            </g>
            <g id="Grupo_876481" data-name="Grupo 876481">
              <path id="Trazado_120832" data-name="Trazado 120832" d="M198.107,81.377a2.193,2.193,0,0,0,.505-1.057,2.369,2.369,0,0,1,.1,1.528S198.134,81.421,198.107,81.377Z" fill="#79aaaa"/>
              <path id="Trazado_120833" data-name="Trazado 120833" d="M198.71,81.848a3.211,3.211,0,0,1-1.554.972.318.318,0,0,1-.094-.054c.04-.429.7-1.026.7-1.026a3.757,3.757,0,0,0,.343-.363C198.134,81.421,198.71,81.848,198.71,81.848Z" fill="#91c6c9"/>
              <path id="Trazado_120834" data-name="Trazado 120834" d="M196.822,80.151a1.677,1.677,0,0,0,.942,1.589s-.662.6-.7,1.026c-.343-.315-1.113-1.758-.932-2A5.3,5.3,0,0,1,196.822,80.151Z" fill="#addade"/>
              <path id="Trazado_120835" data-name="Trazado 120835" d="M198.107,81.377a3.757,3.757,0,0,1-.343.363,1.677,1.677,0,0,1-.942-1.589,4.021,4.021,0,0,1,1.79.169A2.193,2.193,0,0,1,198.107,81.377Z" fill="#cce9f0"/>
            </g>
          </g>
        </g>
        <path id="Trazado_120836" data-name="Trazado 120836" d="M187.6,30.512c-10.014-20.14-14.737-2.222-13.194,4.133-5.158-6.353-14.567-8.823-17.955-3.578-5.991,9.276,6.746,14.8,13.723,16.591-2.074-.459-6.676,1.867-4.963,5.825,1.846,4.27,13.708,1.479,15.924-.315,8.461,8.992,16.218,2.107,19.394,0,33.729,10.271,40.15-2.7,35.231-3.634,18.465-11.179,1.807-14.3-8.8-8.8,4.451-1.986-1.415-16.4-18.453-4.579C210.369,25.453,203.061,2.688,187.6,30.512Z" fill="#629ba2"/>
        <path id="Trazado_120837" data-name="Trazado 120837" d="M187.6,30.512c-10.014-20.14-14.737-2.222-13.194,4.133-5.158-6.353-14.567-8.823-17.955-3.578-5.991,9.276,6.746,14.8,13.723,16.591-2.074-.459-6.676,1.867-4.963,5.825,1.846,4.27,13.708,1.479,15.924-.315,8.461,8.992,16.218,2.107,19.394,0,33.729,10.271,40.15-2.7,35.231-3.634,18.465-11.179,1.807-14.3-8.8-8.8,4.451-1.986-1.415-16.4-18.453-4.579C210.369,25.453,203.061,2.688,187.6,30.512Z" fill="url(#linear-gradient-5)" style="mix-blend-mode: hard-light;isolation: isolate"/>
        <path id="Trazado_120838" data-name="Trazado 120838" d="M187.6,30.512c-10.014-20.14-14.737-2.222-13.194,4.133-5.158-6.353-14.567-8.823-17.955-3.578-5.991,9.276,6.746,14.8,13.723,16.591-2.074-.459-6.676,1.867-4.963,5.825,1.846,4.27,13.708,1.479,15.924-.315,8.461,8.992,16.218,2.107,19.394,0,33.729,10.271,40.15-2.7,35.231-3.634,18.465-11.179,1.807-14.3-8.8-8.8,4.451-1.986-1.415-16.4-18.453-4.579C210.369,25.453,203.061,2.688,187.6,30.512Z" fill="url(#linear-gradient-6)" style="mix-blend-mode: hard-light;isolation: isolate"/>
        <path id="Trazado_120839" data-name="Trazado 120839" d="M199,42.487c-1.967-4.952-12.141-.679-12.106,3.711,0,.071-.113.09-.122.018-.252-1.795-1-3.79-2.885-4.417a6.258,6.258,0,0,0-4.656.461c-2.36,1.152-4.513,3.35-4.821,5.96,1.708-1.9,4.015-3.425,6.581-3.344,3.248.1,5.055,2.542,5.852,5.4,1.28-3.726,5.858-5.387,9.585-4.644a7.407,7.407,0,0,1,2.179.785A5.424,5.424,0,0,0,199,42.487Z" fill="url(#linear-gradient-7)" style="mix-blend-mode: hard-light;isolation: isolate"/>
        <path id="Trazado_120840" data-name="Trazado 120840" d="M173.644,39.823a5.343,5.343,0,0,1,1.632-3.2c-4.569-4.734-12.135-6.421-14.943-2.282-1.512,2.232-1.64,4.2-.922,5.9C162.121,36.807,169.728,36.861,173.644,39.823Z" fill="url(#linear-gradient-8)" style="mix-blend-mode: hard-light;isolation: isolate"/>
        <path id="Trazado_120841" data-name="Trazado 120841" d="M188.067,35.487c1.286-2.385,4.9-3.88,7.363-3.607,3.424.383,4.311,3.106,4.361,5.978a10.979,10.979,0,0,1,5.916-1.685c.281-9.293-6.066-23.377-18.363-2.293-8.147-15.607-12.256-3.547-11.628,2.339C178.907,33.533,184.932,32.949,188.067,35.487Z" fill="url(#linear-gradient-9)" style="mix-blend-mode: hard-light;isolation: isolate"/>
        <path id="Trazado_120842" data-name="Trazado 120842" d="M221.472,42.319c3.5-1.486-.349-11.4-12.088-5.986.661.078,1.276.249,1.845.293,10.507.813,8.452,6.106,8.233,6.581,3.894-1.716,9.537-.764,11.456,3.3a7.694,7.694,0,0,1,.555,1.611C243.519,40.1,230.162,38.033,221.472,42.319Z" fill="url(#linear-gradient-10)" style="mix-blend-mode: hard-light;isolation: isolate"/>
      </g>
    </g>
  </g>
</svg>
