<svg xmlns="http://www.w3.org/2000/svg" width="134" height="134" viewBox="0 0 134 134">
  <g id="Grupo_878578" data-name="Grupo 878578" transform="translate(-1000 -9341)">
    <circle id="Elipse_5066" data-name="Elipse 5066" cx="67" cy="67" r="67" transform="translate(1000 9341)" fill="#222b5a"/>
    <g id="Grupo_876815" data-name="Grupo 876815" transform="translate(1238.475 8735.561)">
      <path id="Trazado_126204" data-name="Trazado 126204" d="M-127.32,699.8a1.876,1.876,0,0,1-1.791.863q-41.681-.023-83.363-.013c-1.155,0-1.753-.421-1.781-1.239-.027-.788.5-1.231,1.694-1.359,0-1.119-.011-2.248,0-3.376a68.505,68.505,0,0,1,.155-7.642,9.824,9.824,0,0,1,9.8-8.624c.59-.014,1.181,0,1.888,0v-.981c0-3.374.008-6.748,0-10.122a1.332,1.332,0,0,1,.976-1.494c.856-.236,1.564.43,1.571,1.5.016,2.609.006,5.217.006,7.825v3.2h2.872v-23.37h-2.872c0,1.1,0,2.17,0,3.238,0,.964.028,1.929-.017,2.891a1.231,1.231,0,0,1-1.292,1.287,1.211,1.211,0,0,1-1.23-1.33c-.022-1.7-.009-3.4-.01-5.1v-1c-1.332-.084-2.906.27-3.536-1.143a16.952,16.952,0,0,1-.733-3.815c-1.775-.382-2.292-1.767-2.2-3.621.077-1.5,0-3,.019-4.508a2.634,2.634,0,0,1,2.808-2.818c.589-.006,1.178,0,1.868,0-.223-1.318-.425-2.539-.636-3.76a3.036,3.036,0,0,1,3.031-3.711c.674-.012,1.349,0,2.011,0,.258-1.4.6-1.862,1.368-1.867.792,0,1.172.5,1.374,1.869.691,0,1.395-.016,2.1,0a3.01,3.01,0,0,1,2.974,3.535c-.195,1.282-.428,2.558-.66,3.933.62,0,1.151,0,1.682,0,1.988.007,3.005,1.036,3.01,3.051q.005,2.382,0,4.763c0,1.84-.577,2.617-2.4,3.182,0,.651,0,1.327,0,2a2.573,2.573,0,0,1-2.892,2.866c-.337,0-.674,0-1.083,0v23.312a45.45,45.45,0,0,1,4.493,2.291,8.685,8.685,0,0,1,3.451,4.713.779.779,0,0,0,.9.635c1.782-.029,3.566,0,5.348-.015a5.9,5.9,0,0,1,4.178,1.58c.838.763,1.69,1.51,2.518,2.282a1.269,1.269,0,0,1,.225,1.935,1.312,1.312,0,0,1-1.956-.075c-.807-.711-1.608-1.43-2.4-2.164a3.643,3.643,0,0,0-2.615-1.01q-8.065.022-16.129,0a3.272,3.272,0,0,0-2.467.935q-4.137,4.215-8.252,8.45a1.426,1.426,0,0,0-.151.262h39.144c-.514-.483-.944-.891-1.379-1.294-.291-.269-.6-.516-.883-.8a1.258,1.258,0,0,1-.131-1.881,1.242,1.242,0,0,1,1.822-.007,30.526,30.526,0,0,1,2.829,2.567,4.672,4.672,0,0,0,3.886,1.5c10.356-.069,20.713-.029,31.07-.049a1.831,1.831,0,0,1,1.786.864Zm-59.9-13.945a1.993,1.993,0,0,0-.082-.406c-1.183-2.437-3.074-4.131-5.772-4.325a80.718,80.718,0,0,0-10.169-.066,7.159,7.159,0,0,0-6.711,6.538,28.537,28.537,0,0,0-.058,3.313c-.006,2.376,0,4.753,0,7.408a6,6,0,0,0,1.3-.727c3.026-3.061,6.079-6.1,9.011-9.247a7.254,7.254,0,0,1,6.016-2.51C-191.55,685.938-189.4,685.855-187.217,685.855Zm-17.338-44.209v5.741h15.732v-5.741Zm11.019-2.625c.253-1.421.532-2.828.721-4.246.025-.184-.409-.613-.637-.618q-3.257-.071-6.515,0c-.229,0-.664.389-.642.547.2,1.446.477,2.88.733,4.32Zm-8.645,13.279h10.943v-2.245h-10.943Z" fill="#fff"/>
      <path id="Trazado_126205" data-name="Trazado 126205" d="M-106.615,683.183a10.531,10.531,0,0,0-6.06.324c-2.424.857-4.853,1.7-7.281,2.547-.16.056-.319.115-.483.158a1.261,1.261,0,0,1-1.6-.738,1.222,1.222,0,0,1,.7-1.617c3.312-1.134,6.6-2.349,9.971-3.289a10.552,10.552,0,0,1,6.9.641q2,.822,3.957,1.742a3.863,3.863,0,0,1,2.337,3.808,3.774,3.774,0,0,1-2.841,3.528c-4.911,1.426-9.837,2.8-14.756,4.194-.268.076-.535.158-.779.23-.027.1-.066.161-.051.2.751,2.183-.375,3.626-2.434,4.054-1.434.3-2.829.79-4.242,1.19-1.989.563-3.1-.04-3.756-2.024-.043-.13-.1-.253-.178-.431-1.666.47-3.321.846-4.912,1.405a27.214,27.214,0,0,1-9.6,1.31c-2.715-.043-5.433.033-8.15.048a3.212,3.212,0,0,1-3.426-2.545,3.208,3.208,0,0,1,2.335-3.733l1.5-.534c-.93-1.5-1.807-2.91-2.686-4.322-.688-1.105-1.4-2.2-2.065-3.317a1.528,1.528,0,0,1,.939-2.457c.645-.209,1.295-.412,1.955-.563a4.386,4.386,0,0,1,4.1,1.065c2.056,1.822,4.155,3.6,6.171,5.461a1.865,1.865,0,0,0,2.224.459c3.63-1.342,7.3-2.577,10.954-3.852.133-.047.265-.1.4-.139a1.271,1.271,0,0,1,1.728.742,1.239,1.239,0,0,1-.9,1.653c-2.072.749-4.154,1.472-6.234,2.2q-8.521,2.98-17.044,5.954c-.107.037-.249.045-.312.119-.2.233-.363.492-.542.74.253.172.507.495.758.494,4.329-.022,8.669.076,12.983-.209,2.044-.135,4.039-1.021,6.055-1.568.518-.141,1.033-.294,1.551-.432.936-.25,1.845-.4,2.237-1.583.162-.487.929-.9,1.506-1.1,1.711-.577,3.466-1.028,5.2-1.532a2.759,2.759,0,0,1,2.631.516,1.043,1.043,0,0,0,.8.175q7.514-2.087,15.013-4.224c1.065-.3,1.488-.915,1.265-1.754A2.143,2.143,0,0,0-103,684.93c-1.175.306-2.345.637-3.518.954-1.065.287-1.734.037-1.959-.727-.245-.828.161-1.371,1.278-1.723C-107.044,683.386-106.9,683.308-106.615,683.183Zm-36.337,8.209c-.033-.116-.032-.187-.066-.217-2.04-1.8-4.07-3.6-6.13-5.376a1.912,1.912,0,0,0-2.237-.065l4.413,7.067Zm17.812,4.081.695,2.371,5.56-1.6-.69-2.368Z" transform="translate(-30.745 -26.014)" fill="#fff"/>
      <path id="Trazado_126206" data-name="Trazado 126206" d="M-173.76,765.151a4.435,4.435,0,0,1-.921-.079,1.176,1.176,0,0,1-.907-1.269,1.193,1.193,0,0,1,1.1-1.2,6.772,6.772,0,0,1,1.266-.021,1.3,1.3,0,0,1,1.382,1.292,1.3,1.3,0,0,1-1.416,1.252c-.169.006-.338,0-.507,0Z" transform="translate(-19.903 -68.389)" fill="#fff"/>
      <path id="Trazado_126207" data-name="Trazado 126207" d="M-163.738,754.422a6.4,6.4,0,0,1,.675,0,1.165,1.165,0,0,1,1.137,1.15,1.152,1.152,0,0,1-1.038,1.319,6,6,0,0,1-1.513.03,1.207,1.207,0,0,1-1.181-1.287,1.208,1.208,0,0,1,1.244-1.221c.224-.018.45,0,.675,0Z" transform="translate(-25.016 -64.189)" fill="#fff"/>
      <path id="Trazado_126208" data-name="Trazado 126208" d="M-184.477,765.115a5.31,5.31,0,0,1-.676,0,1.185,1.185,0,0,1-1.162-1.217,1.164,1.164,0,0,1,1.08-1.29,5.4,5.4,0,0,1,1.6.007,1.168,1.168,0,0,1,1.05,1.241,1.2,1.2,0,0,1-1.133,1.254,5.213,5.213,0,0,1-.76.006Z" transform="translate(-14.381 -68.379)" fill="#fff"/>
      <path id="Trazado_126209" data-name="Trazado 126209" d="M-163.79,765.116a4.613,4.613,0,0,1-.759-.007,1.184,1.184,0,0,1-1.1-1.193,1.179,1.179,0,0,1,1.065-1.307,5.964,5.964,0,0,1,1.349-.026,1.285,1.285,0,0,1,1.328,1.256,1.293,1.293,0,0,1-1.377,1.287c-.169.007-.338,0-.508,0Z" transform="translate(-25.02 -68.385)" fill="#fff"/>
      <path id="Trazado_126210" data-name="Trazado 126210" d="M-153.881,765.127c-.226,0-.453.018-.676,0a1.255,1.255,0,0,1-1.215-1.271,1.229,1.229,0,0,1,1.151-1.25,7.068,7.068,0,0,1,1.266-.016,1.256,1.256,0,0,1,1.327,1.326,1.249,1.249,0,0,1-1.346,1.217c-.168.008-.338,0-.507,0Z" transform="translate(-30.103 -68.389)" fill="#fff"/>
      <path id="Trazado_126211" data-name="Trazado 126211" d="M-143.919,765.13c-.226,0-.452.017-.676,0a1.245,1.245,0,0,1-1.221-1.258A1.255,1.255,0,0,1-144.6,762.6a8.675,8.675,0,0,1,1.183-.007,1.305,1.305,0,0,1,1.362,1.314,1.3,1.3,0,0,1-1.353,1.23c-.169.009-.338,0-.507,0Z" transform="translate(-35.228 -68.392)" fill="#fff"/>
      <path id="Trazado_126212" data-name="Trazado 126212" d="M-132.907,765.127c-.226,0-.453.018-.676,0a1.252,1.252,0,0,1-1.215-1.27,1.224,1.224,0,0,1,1.147-1.25,6.978,6.978,0,0,1,1.266-.017,1.253,1.253,0,0,1,1.329,1.325,1.25,1.25,0,0,1-1.345,1.218c-.169.008-.338,0-.507,0Z" transform="translate(-40.9 -68.389)" fill="#fff"/>
      <path id="Trazado_126213" data-name="Trazado 126213" d="M-173.7,756.959c-.359-.057-.833.008-1.05-.2a1.93,1.93,0,0,1-.708-1.267,1.742,1.742,0,0,1,.972-1.057,3.434,3.434,0,0,1,1.416-.061,1.21,1.21,0,0,1,1.288,1.187,1.267,1.267,0,0,1-1.238,1.337,5.888,5.888,0,0,1-.674,0Z" transform="translate(-19.971 -64.15)" fill="#fff"/>
      <path id="Trazado_126214" data-name="Trazado 126214" d="M-143.921,754.431a6.09,6.09,0,0,1,.758,0,1.162,1.162,0,0,1,1.09,1.194,1.112,1.112,0,0,1-.932,1.234,6.231,6.231,0,0,1-1.676.052,1.187,1.187,0,0,1-1.126-1.331,1.18,1.18,0,0,1,1.21-1.167c.224-.016.45,0,.675,0Z" transform="translate(-35.231 -64.191)" fill="#fff"/>
      <path id="Trazado_126215" data-name="Trazado 126215" d="M-153.854,754.385a7.041,7.041,0,0,1,.758.038,1.138,1.138,0,0,1,1.056,1.128,1.123,1.123,0,0,1-.934,1.309,5.886,5.886,0,0,1-1.51.065,1.288,1.288,0,0,1-1.3-1.287,1.288,1.288,0,0,1,1.335-1.239c.2-.012.394,0,.591,0Z" transform="translate(-30.1 -64.178)" fill="#fff"/>
      <path id="Trazado_126216" data-name="Trazado 126216" d="M-96.187,701.1a1.246,1.246,0,0,1-1.181,1.292,1.278,1.278,0,0,1-1.345-1.229,1.312,1.312,0,0,1,1.283-1.307A1.273,1.273,0,0,1-96.187,701.1Z" transform="translate(-59.475 -36.111)" fill="#fff"/>
      <path id="Trazado_126217" data-name="Trazado 126217" d="M-80.881,697.076a1.278,1.278,0,0,1-1.142-1.419,1.244,1.244,0,0,1,1.352-1.11,1.277,1.277,0,0,1,1.165,1.318A1.313,1.313,0,0,1-80.881,697.076Z" transform="translate(-68.063 -33.374)" fill="#fff"/>
      <path id="Trazado_126218" data-name="Trazado 126218" d="M-89.12,699.744a1.268,1.268,0,0,1-1.259-1.307,1.258,1.258,0,0,1,1.274-1.2,1.261,1.261,0,0,1,1.26,1.219A1.269,1.269,0,0,1-89.12,699.744Z" transform="translate(-63.765 -34.758)" fill="#fff"/>
      <path id="Trazado_126219" data-name="Trazado 126219" d="M-104.488,703.851a1.282,1.282,0,0,1-1.217,1.268,1.291,1.291,0,0,1-1.29-1.287,1.231,1.231,0,0,1,1.308-1.242A1.217,1.217,0,0,1-104.488,703.851Z" transform="translate(-55.212 -37.515)" fill="#fff"/>
      <path id="Trazado_126220" data-name="Trazado 126220" d="M-112.772,706.483a1.261,1.261,0,0,1-1.219,1.259,1.21,1.21,0,0,1-1.3-1.239,1.251,1.251,0,0,1,1.2-1.28A1.3,1.3,0,0,1-112.772,706.483Z" transform="translate(-50.941 -38.871)" fill="#fff"/>
      <path id="Trazado_126221" data-name="Trazado 126221" d="M-71.207,693.217a1.239,1.239,0,0,1-1.4,1.139A1.228,1.228,0,0,1-73.7,693a1.269,1.269,0,0,1,1.312-1.164A1.286,1.286,0,0,1-71.207,693.217Z" transform="translate(-72.348 -31.978)" fill="#fff"/>
      <path id="Trazado_126222" data-name="Trazado 126222" d="M-171.507,658.831a1.273,1.273,0,0,1,1.4-1.164,1.222,1.222,0,0,1,1.129,1.327,1.248,1.248,0,0,1-1.374,1.176A1.3,1.3,0,0,1-171.507,658.831Z" transform="translate(-22.003 -14.39)" fill="#fff"/>
      <path id="Trazado_126223" data-name="Trazado 126223" d="M-188.6,657.662a1.249,1.249,0,0,1,1.26,1.3,1.281,1.281,0,0,1-1.268,1.22,1.243,1.243,0,0,1-1.242-1.312A1.207,1.207,0,0,1-188.6,657.662Z" transform="translate(-12.56 -14.389)" fill="#fff"/>
      <path id="Trazado_126224" data-name="Trazado 126224" d="M-179.179,660.179a1.254,1.254,0,0,1-1.269-1.2,1.217,1.217,0,0,1,1.23-1.312,1.218,1.218,0,0,1,1.27,1.189A1.26,1.26,0,0,1-179.179,660.179Z" transform="translate(-17.402 -14.389)" fill="#fff"/>
    </g>
  </g>
</svg>
