<svg xmlns="http://www.w3.org/2000/svg" width="134" height="134" viewBox="0 0 134 134">
  <g id="Grupo_878581" data-name="Grupo 878581" transform="translate(-738.933 -2262.636)">
    <circle id="Elipse_5106" data-name="Elipse 5106" cx="67" cy="67" r="67" transform="translate(738.933 2262.636)" fill="#f3f9ff"/>
    <g id="Grupo_878391" data-name="Grupo 878391" transform="translate(299.254 979.862)">
      <path id="Trazado_616984" data-name="Trazado 616984" d="M466,1377.3a1.941,1.941,0,0,1,1.824-.81c2.326.043,4.652.016,7.029.016.015-.232.04-.433.04-.635,0-3.282.009-6.565-.012-9.848a1.04,1.04,0,0,0-.316-.777,12.285,12.285,0,0,1-5.782-8.964,14.2,14.2,0,0,1,2.837-11.732c3.869-4.828,10.223-4.826,14.144-.049a14.85,14.85,0,0,1-.115,18.352,24.006,24.006,0,0,1-2.689,2.316c-.177.153-.42.373-.421.563-.025,3.568-.019,7.135-.019,10.775H486.2c2.065,0,4.13-.031,6.194.024a2.172,2.172,0,0,1,1.331.522c1.63,1.55,3.207,3.157,4.788,4.757a1.306,1.306,0,0,1-.025,2.131c-.441.457-.892.9-1.337,1.356a.936.936,0,0,0-.073.169c.826.822,1.667,1.691,2.546,2.519a2.025,2.025,0,0,1,.694,1.685c-.042.871-.01,1.746-.01,2.75.693-.614,1.449-1.028,1.282-2.089a6.427,6.427,0,0,1-.007-1.427,2.679,2.679,0,0,0-.919-2.675,1.533,1.533,0,0,1-.342-1.079c-.034-1.746-.068-3.5,0-5.241.107-2.869-.717-5.6-1.171-8.382-.612-3.755-1.344-7.49-2.026-11.233-.018-.1-.055-.2-.09-.319a11,11,0,0,1-1.744.118,3.654,3.654,0,0,1-3.2-2.256,3.582,3.582,0,0,1,.491-3.882c1.921-2.427,3.883-4.822,5.83-7.228q6.966-8.606,13.934-17.211c.884-1.092,1.267-1.171,2.48-.442q13.209,7.936,26.415,15.878c1.806,1.086,2.561,2.509,2.262,4.237-.286,1.65-1.493,2.732-3.527,3.158-.075.016-.15.033-.336.075l4.916,24.084c.448,0,.866-.006,1.284,0,1.051.018,1.489.482,1.49,1.6q0,7.306,0,14.612,0,5.043,0,10.086c0,1.236-.426,1.657-1.674,1.657q-38.993,0-77.986.016a1.939,1.939,0,0,1-1.666-.81Zm56.061-40.8-.206-.167-2.936-1.77-3.676-2.211-1.234-.794c-.22.248-.385.418-.533.6q-8.579,10.6-17.155,21.2a21.609,21.609,0,0,0-1.713,2.176,1.639,1.639,0,0,0-.086,1.367,1.666,1.666,0,0,0,1.148.64,3.968,3.968,0,0,0,1.3-.249,3.123,3.123,0,0,0,.8-.52q7.4-9.154,14.779-18.327a3.754,3.754,0,0,1,5.167-.894c2.607,1.557,5.194,3.146,7.8,4.7a1.413,1.413,0,0,1,.743,1.856c-.74.8-1.152.868-2.065.318q-3.762-2.267-7.516-4.547c-1.117-.675-1.57-.594-2.364.4q-1.836,2.286-3.676,4.568c-1.866,2.322-3.731,4.644-5.64,7.021l1.024.669c.271.2.54.414.814.614.968.7,1.07,1.281.392,2.269-.366.533-.737,1.064-1.118,1.614,1.135.8,2.2,1.529,3.245,2.286a1.274,1.274,0,1,1-1.465,2.066q-2.089-1.433-4.148-2.907a1.267,1.267,0,0,1-.369-1.977c.39-.592.809-1.165,1.245-1.788l-.493-.288-.731-.562c-1.2,1.488-2.316,2.929-3.5,4.317a1.554,1.554,0,0,0-.334,1.444c.738,4,1.454,8,2.181,12,.3,1.628.6,3.254.9,4.858h12.824l-.7-3.614c-.382-2.291-.786-4.578-1.141-6.873a3.765,3.765,0,0,1,3.154-4.389q2.455-.448,4.918-.854a3.725,3.725,0,0,1,4.38,2.945c.246,1.08.4,2.18.6,3.271q.638,3.5,1.279,7.01l.373,2.5h5.211l-.516-2.5c-.047-.324-.094-.648-.145-1-.518.081-.93.176-1.347.2a1.263,1.263,0,0,1-.392-2.49,8.556,8.556,0,0,1,1.249-.208,1.527,1.527,0,0,0,1.266-.8,19.233,19.233,0,0,1,1.269-1.818,1.265,1.265,0,1,1,2.049,1.475c-.465.705-.978,1.379-1.445,2.083a1.038,1.038,0,0,0-.206.637c.093.648.253,1.286.387,1.929l.368,2.5h5.88l-.544-2.511q-1.138-5.621-2.278-11.241c-.545-2.66-1.112-5.316-1.669-7.974-.1-.543-.231-1.082-.284-1.629a1.687,1.687,0,0,0-.941-1.413c-2.455-1.437-4.877-2.932-7.306-4.412-.923-.562-1.053-.934-.73-1.964.778-.714,1.129-.758,2.033-.214q3.8,2.289,7.594,4.588a3.164,3.164,0,0,0,2.758-.247,1.259,1.259,0,0,0,.1-1.775,2.9,2.9,0,0,0-.631-.469q-8.721-5.249-17.449-10.486a3.838,3.838,0,0,0-.566-.229Zm-44.6,31.116v8.843h2.5V1366.3h-2.5Zm47.814,6.348c-.553-3.246-1.092-6.5-1.669-9.738a1.211,1.211,0,0,0-1.405-1q-2.535.418-5.058.906a1.185,1.185,0,0,0-1.026,1.377c.468,2.724.975,5.441,1.468,8.16.124.808.227,1.62.388,2.421a.626.626,0,0,0,.437.4c2.427.025,4.855.018,7.38.018Zm-41.623-12.692a6.55,6.55,0,0,0,.572-.648,12.31,12.31,0,0,0,1.875-9.391,10.124,10.124,0,0,0-3.436-6.265,5.988,5.988,0,0,0-8.577.7,6.514,6.514,0,0,0-.512.485c-3.331,3.9-3.279,11.254.1,15.1C476.665,1364.638,481.018,1364.649,483.65,1361.267Zm-9.385,27.917c.582.009,1.167-.017,1.744.038a1.7,1.7,0,0,0,1.521-.612c1.087-1.156,2.229-2.262,3.36-3.376.786-.773,1.592-1.526,2.441-2.338-1.3-1.288-2.477-2.464-3.671-3.622a.872.872,0,0,0-.554-.216c-2.672,0-5.345.009-8.017.019H468.6v22.786h47c-.233-.876.411-1.883-.644-2.493a2.434,2.434,0,0,0-2.636-1.267,2.268,2.268,0,0,1-.632,0,1.268,1.268,0,0,1-1.208-1.233,1.253,1.253,0,0,1,1.226-1.292c.413-.029.829-.005,1.312-.005,0-.885-.02-1.7.006-2.51a1.264,1.264,0,1,1,2.527-.01,10.482,10.482,0,0,1-.01,1.978,2.427,2.427,0,0,0,1.379,2.521c.48-.5.953-1.028,1.464-1.516a1.248,1.248,0,0,1,1.836-.1,1.261,1.261,0,0,1-.045,1.9c-.481.523-.98,1.028-1.471,1.542-1.062.645-.429,1.642-.618,2.5h26.671v-2.5q.006-10.083.009-20.167c0-.041-.055-.083-.11-.159-2.646,0-5.318.052-7.986-.025a2.981,2.981,0,0,0-2.609,1.081c-.832.973-1.8,1.828-2.692,2.717a11.464,11.464,0,0,0,2.515,2.442c.812.4,1.963.118,2.964.138h.079c.936.018,1.5.5,1.5,1.273s-.568,1.256-1.5,1.267c-.757.009-1.513,0-2.183,0a2.747,2.747,0,0,0,1.051,3.209,24.086,24.086,0,0,1,2.089,2.063,1.289,1.289,0,1,1-1.8,1.8c-.888-.871-1.705-1.824-2.656-2.619a3.339,3.339,0,0,1-1.345-3.323,3.4,3.4,0,0,0-1.3-3.231c-1.1-1.049-2.071-2.1-3.771-1.715a.248.248,0,0,1-.079,0,1.275,1.275,0,0,1-1.2-1.247,1.249,1.249,0,0,1,1.243-1.28c.528-.031,1.059.011,1.587-.018a1.088,1.088,0,0,0,.64-.2c.766-.708,1.5-1.451,2.356-2.291h-28.7c0,1.7.024,3.363-.013,5.024a1.441,1.441,0,0,0,.554,1.3,1.95,1.95,0,0,1,.743,1.74c-.041,1.428.034,2.861-.038,4.286a2.4,2.4,0,0,1-.562,1.4c-1.089,1.19-2.266,2.3-3.4,3.444a1.336,1.336,0,0,1-1.56.454,1.38,1.38,0,0,1-.808-1.488c.017-1.614.032-3.23-.015-4.843a1.818,1.818,0,0,0-.441-1.088c-.914-.992-1.9-1.917-2.842-2.883a1.281,1.281,0,0,1,.007-2.071c.475-.49.976-.955,1.538-1.5-1.135-1.121-2.222-2.159-3.263-3.24a1.671,1.671,0,0,0-1.374-.586c-1.481.045-2.964.015-4.446.015H483c1,.98,1.846,1.8,2.679,2.634.889.89.888,1.464,0,2.357q-2.942,2.953-5.893,5.9c-.177.177-.346.363-.571.6.57.543,1.087,1,1.562,1.5a1.272,1.272,0,1,1-1.794,1.791c-.6-.563-1.141-1.183-1.758-1.721a2.7,2.7,0,0,0-.9-.325c-1.289-.008-2.579,0-3.868-.029a1.271,1.271,0,1,1-.011-2.535C473.055,1389.194,473.66,1389.194,474.265,1389.184Z" transform="translate(0 -20.278)" fill="#020202"/>
      <path id="Trazado_616985" data-name="Trazado 616985" d="M589.774,1302.858c1.188.743,1.26,1.489.245,2.513l-.225.224c-.922.922-.908.914-.258,2.032a2.693,2.693,0,0,1,.081,2.938,11.781,11.781,0,0,1-2.073,2.26,1.082,1.082,0,0,1-1.568-.206,1.169,1.169,0,0,1-.041-1.656c.369-.447.863-.8,1.192-1.267a1.029,1.029,0,0,0,.051-.933c-1.168-1.743-1.071-3.1.441-4.588.477-.469,1.012-.88,1.52-1.317Z" transform="translate(-94.23 0)" fill="#050505"/>
      <path id="Trazado_616986" data-name="Trazado 616986" d="M565.864,1302.858c1.187.742,1.261,1.488.248,2.509l-.224.224c-.93.929-.916.922-.266,2.029a2.685,2.685,0,0,1,.09,2.933,11.782,11.782,0,0,1-2.065,2.26,1.08,1.08,0,0,1-1.566-.207,1.166,1.166,0,0,1-.046-1.654,11.966,11.966,0,0,1,1.107-1.132.724.724,0,0,0,.1-1.148,3.015,3.015,0,0,1,.3-4.332c.531-.526,1.122-.991,1.686-1.484Z" transform="translate(-75.403 0)" fill="#050505"/>
      <path id="Trazado_616987" data-name="Trazado 616987" d="M824.578,1323.571a7.733,7.733,0,0,1,.536-.938,5.069,5.069,0,0,1,.78-.787c.611-.5.754-.923.179-1.631a2.623,2.623,0,0,1-.2-3.188,10.781,10.781,0,0,1,2.033-2.189,1.088,1.088,0,0,1,1.57.19,1.17,1.17,0,0,1,.061,1.653,11.684,11.684,0,0,1-1.158,1.193.693.693,0,0,0-.086,1.087,3.051,3.051,0,0,1-.313,4.4,5.7,5.7,0,0,1-1.205,1.133,1.821,1.821,0,0,1-1.373.114C825.045,1324.464,824.848,1323.936,824.578,1323.571Z" transform="translate(-282.488 -9.237)" fill="#050505"/>
      <path id="Trazado_616988" data-name="Trazado 616988" d="M805.218,1314.04c.372.3.889.52,1.016.878a1.865,1.865,0,0,1-.164,1.37,5.611,5.611,0,0,1-1.14,1.2.667.667,0,0,0-.056,1.03,3.068,3.068,0,0,1-.351,4.461c-.354.357-.695.731-1.077,1.055a1.261,1.261,0,0,1-1.766-1.8c.348-.4.729-.767,1.114-1.13a.669.669,0,0,0,.085-1.029,3.071,3.071,0,0,1,.378-4.516c.318-.319.613-.664.959-.948A7.444,7.444,0,0,1,805.218,1314.04Z" transform="translate(-264.168 -8.809)" fill="#050505"/>
      <path id="Trazado_616989" data-name="Trazado 616989" d="M829.186,1448.186a4.977,4.977,0,0,1-.492.958,14.528,14.528,0,0,1-1.334,1.343,1.262,1.262,0,0,1-1.767-1.8,6.812,6.812,0,0,1,1.357-1.309,1.79,1.79,0,0,1,1.359-.172C828.67,1447.33,828.9,1447.84,829.186,1448.186Z" transform="translate(-282.992 -113.664)" fill="#050505"/>
      <path id="Trazado_616990" data-name="Trazado 616990" d="M829.087,1479.051c.029.907-1,1.665-1.739,1.162a7.168,7.168,0,0,1-1.914-1.934c-.489-.742.306-1.761,1.209-1.7A4.233,4.233,0,0,1,829.087,1479.051Z" transform="translate(-283.045 -136.852)" fill="#050505"/>
      <path id="Trazado_616991" data-name="Trazado 616991" d="M575.1,1510.27c-.246-.186-.718-.375-.883-.713a1.444,1.444,0,0,1,0-1.238,9.177,9.177,0,0,1,1.713-1.735,1.073,1.073,0,0,1,1.451.152,1.029,1.029,0,0,1,.291,1.418,20.078,20.078,0,0,1-1.927,1.946C575.646,1510.193,575.448,1510.183,575.1,1510.27Z" transform="translate(-85.142 -160.322)" fill="#050505"/>
      <path id="Trazado_616992" data-name="Trazado 616992" d="M600.274,1526.34c0,1.3-.391,1.89-1.252,1.9-.884.015-1.292-.6-1.292-1.943,0-.158,0-.316,0-.474a1.274,1.274,0,1,1,2.54-.041C600.281,1525.971,600.273,1526.156,600.274,1526.34Z" transform="translate(-103.776 -174.561)" fill="#050505"/>
      <path id="Trazado_616993" data-name="Trazado 616993" d="M514.68,1578.975a2.7,2.7,0,0,1,.9.325c.618.537,1.162,1.158,1.758,1.721a1.272,1.272,0,1,0,1.794-1.791c-.475-.5-.991-.953-1.562-1.5.225-.237.394-.423.571-.6q2.946-2.95,5.893-5.9c.89-.893.891-1.467,0-2.357-.833-.834-1.681-1.654-2.679-2.634h3.923c1.482,0,2.965.03,4.446-.015a1.671,1.671,0,0,1,1.374.586c1.041,1.082,2.128,2.119,3.263,3.24-.562.548-1.063,1.012-1.538,1.5a1.281,1.281,0,0,0-.007,2.071c.942.966,1.928,1.891,2.842,2.883a1.817,1.817,0,0,1,.44,1.088c.047,1.613.031,3.229.015,4.843a1.38,1.38,0,0,0,.808,1.488,1.336,1.336,0,0,0,1.56-.454c1.138-1.145,2.315-2.254,3.4-3.444a2.4,2.4,0,0,0,.562-1.4c.073-1.426,0-2.858.038-4.286a1.95,1.95,0,0,0-.743-1.74,1.441,1.441,0,0,1-.554-1.3c.037-1.661.013-3.323.013-5.024h28.7c-.856.839-1.59,1.582-2.356,2.291a1.088,1.088,0,0,1-.64.2c-.528.029-1.06-.013-1.587.018a1.249,1.249,0,0,0-1.243,1.28,1.275,1.275,0,0,0,1.2,1.247.248.248,0,0,0,.079,0c1.7-.387,2.673.666,3.771,1.715a3.4,3.4,0,0,1,1.3,3.231,3.339,3.339,0,0,0,1.345,3.323c.951.795,1.768,1.748,2.656,2.619a1.289,1.289,0,1,0,1.8-1.8,24.076,24.076,0,0,0-2.089-2.063,2.747,2.747,0,0,1-1.051-3.209c.67,0,1.427.007,2.183,0,.936-.011,1.5-.494,1.5-1.267s-.562-1.255-1.5-1.273H575.2c-1-.02-2.152.264-2.964-.138a11.465,11.465,0,0,1-2.515-2.442c.891-.888,1.86-1.744,2.692-2.717a2.981,2.981,0,0,1,2.609-1.081c2.668.078,5.34.025,7.986.025.055.077.11.118.11.159q0,10.084-.009,20.167l-26.053,0c.491-.513.99-1.019,1.471-1.542a1.262,1.262,0,0,0,.045-1.9,1.248,1.248,0,0,0-1.836.1c-.511.488-.984,1.016-1.464,1.516a2.427,2.427,0,0,1-1.379-2.521,10.482,10.482,0,0,0,.01-1.978,1.264,1.264,0,1,0-2.527.01c-.026.811-.006,1.624-.006,2.51-.482,0-.9-.024-1.312.005a1.253,1.253,0,0,0-1.226,1.292,1.268,1.268,0,0,0,1.208,1.233,2.268,2.268,0,0,0,.632,0,2.434,2.434,0,0,1,2.636,1.267q-11.656,0-23.311,0a13.52,13.52,0,0,1-2.2-.2,21.437,21.437,0,0,1-10.337-4.613C516.459,1580.917,515.6,1579.9,514.68,1578.975Z" transform="translate(-38.35 -207.474)" fill="#fbaa67"/>
      <path id="Trazado_616994" data-name="Trazado 616994" d="M668.883,1423.682c-.134-.642-.294-1.281-.387-1.929a1.037,1.037,0,0,1,.206-.636c.467-.7.98-1.378,1.445-2.083a1.265,1.265,0,1,0-2.049-1.475,19.226,19.226,0,0,0-1.269,1.818,1.528,1.528,0,0,1-1.266.8,8.556,8.556,0,0,0-1.249.208,1.263,1.263,0,0,0,.391,2.49c.417-.027.83-.123,1.348-.2l.145,1h-5.069q-.64-3.505-1.279-7.01c-.2-1.091-.356-2.191-.6-3.271a3.725,3.725,0,0,0-4.38-2.945q-2.462.408-4.918.854a3.765,3.765,0,0,0-3.154,4.389c.355,2.295.759,4.583,1.141,6.873a9.487,9.487,0,0,1-1.64-.533c-1.033-.55-2.017-1.192-3.021-1.8,1.094-.233,1.583-.694,1.452-1.517q-.411-2.577-.931-5.136a1.123,1.123,0,0,0-1.355-.94c-1.87.31-3.728.691-5.591,1.044-.424-.786-.9-1.55-1.262-2.363a5.1,5.1,0,0,1,.795-5.754,12.584,12.584,0,0,0,.916-1.445l.493.288c-.436.623-.855,1.2-1.245,1.788a1.267,1.267,0,0,0,.369,1.977q2.061,1.472,4.148,2.907a1.274,1.274,0,1,0,1.465-2.066c-1.046-.758-2.11-1.489-3.245-2.286.381-.55.751-1.08,1.118-1.614.678-.988.576-1.565-.392-2.269-.275-.2-.543-.409-.814-.614a.879.879,0,0,1,.092-.3c2.436-3.035,4.859-6.082,7.327-9.091a2.671,2.671,0,0,1,3.6-.745c3.566,2.147,7.116,4.323,10.677,6.478q4.869,2.947,9.749,5.875c.557,2.658,1.123,5.313,1.669,7.974q1.151,5.618,2.278,11.241Zm-18.263-17.749a5.082,5.082,0,1,0-5.079-5A5.078,5.078,0,0,0,650.619,1405.933Zm19.127,8.259c-.287-1.563-.577-3.335-.95-5.089a1.148,1.148,0,0,0-1.479-.861c-1.641.273-3.281.547-4.915.857a1.233,1.233,0,0,0-1.05,1.448q.414,2.54.9,5.069a1.216,1.216,0,0,0,1.407,1q2.54-.413,5.068-.9C669.4,1415.581,669.755,1415.109,669.747,1414.192Z" transform="translate(-133.174 -69.985)" fill="#d9e3fa"/>
      <path id="Trazado_616995" data-name="Trazado 616995" d="M485.977,1579.184c.924.93,1.779,1.941,2.783,2.773a21.439,21.439,0,0,0,10.337,4.613,13.533,13.533,0,0,0,2.2.2q11.656.018,23.311,0c1.055.61.411,1.617.644,2.493h-47v-22.786h2.49c.05.336.082.675.154,1.006a49.972,49.972,0,0,0,1.133,4.957,38.349,38.349,0,0,0,1.889,4.145c-.6.009-1.21.01-1.814.031a1.271,1.271,0,1,0,.011,2.535C483.4,1579.179,484.687,1579.176,485.977,1579.184Z" transform="translate(-9.647 -207.682)" fill="#e98d49"/>
      <path id="Trazado_616996" data-name="Trazado 616996" d="M502.41,1400.9a5.988,5.988,0,0,1,8.577-.7,10.124,10.124,0,0,1,3.435,6.266,12.309,12.309,0,0,1-1.875,9.391,6.553,6.553,0,0,1-.572.649c-.369,0-.739-.013-1.108-.009a7.319,7.319,0,0,1-5.646-2.58,12.811,12.811,0,0,1-3.127-10.688C502.2,1402.458,502.305,1401.681,502.41,1400.9Z" transform="translate(-28.326 -75.522)" fill="#71a964"/>
      <path id="Trazado_616997" data-name="Trazado 616997" d="M636.446,1350.419a3.825,3.825,0,0,1,.566.229q8.728,5.237,17.449,10.486a2.893,2.893,0,0,1,.631.469,1.258,1.258,0,0,1-.1,1.775,3.163,3.163,0,0,1-2.758.247q-3.8-2.293-7.594-4.588c-.9-.545-1.255-.5-2.033.212l-1.942-1.226a1.413,1.413,0,0,0-.743-1.856c-2.608-1.555-5.2-3.145-7.8-4.7a3.754,3.754,0,0,0-5.167.894q-7.4,9.154-14.779,18.327a3.119,3.119,0,0,1-.8.52,2.614,2.614,0,0,1,.445-2.6q3.764-4.616,7.5-9.251,4.69-5.8,9.366-11.6a15.946,15.946,0,0,0,.953-1.487l3.676,2.212a1.311,1.311,0,0,0-1.437.99,1.369,1.369,0,0,0,.876,1.592c.623.345,1.21.757,1.845,1.076a1.248,1.248,0,0,0,1.851-.943A5.572,5.572,0,0,0,636.446,1350.419Z" transform="translate(-114.402 -34.201)" fill="#e65a59"/>
      <path id="Trazado_616998" data-name="Trazado 616998" d="M628.575,1448.173a12.554,12.554,0,0,1-.916,1.445,5.1,5.1,0,0,0-.795,5.754c.364.813.838,1.576,1.262,2.362a1.682,1.682,0,0,0-.466,1.73q.388,2.017.736,4.043c.244,1.411.691,1.737,2.11,1.491,1.349-.234,2.7-.476,4.044-.715,1,.6,1.988,1.246,3.02,1.8a9.478,9.478,0,0,0,1.64.533l.7,3.614H627.092c-.3-1.6-.6-3.231-.9-4.858-.727-4-1.443-8-2.181-12a1.554,1.554,0,0,1,.334-1.444c1.179-1.388,2.3-2.828,3.5-4.317Z" transform="translate(-124.448 -114.036)" fill="#b9cdef"/>
      <path id="Trazado_616999" data-name="Trazado 616999" d="M493.157,1576.516a38.337,38.337,0,0,1-1.889-4.145,49.967,49.967,0,0,1-1.133-4.957c-.072-.331-.1-.671-.154-1.006,2.672-.01,5.345-.023,8.017-.019a.871.871,0,0,1,.554.216c1.194,1.158,2.371,2.334,3.671,3.622-.849.811-1.655,1.564-2.441,2.338-1.132,1.114-2.273,2.22-3.36,3.376a1.7,1.7,0,0,1-1.521.613C494.324,1576.5,493.739,1576.525,493.157,1576.516Z" transform="translate(-18.892 -207.609)" fill="#fbaa67"/>
      <path id="Trazado_617000" data-name="Trazado 617000" d="M703.567,1502.133c-.493-2.719-1-5.437-1.469-8.161a1.185,1.185,0,0,1,1.026-1.376q2.523-.486,5.058-.906a1.211,1.211,0,0,1,1.405,1c.577,3.242,1.116,6.491,1.669,9.737Z" transform="translate(-185.984 -148.748)" fill="#e65a59"/>
      <path id="Trazado_617001" data-name="Trazado 617001" d="M671.054,1384.327l1.942,1.226c-.323,1.031-.193,1.4.73,1.965,2.43,1.48,4.851,2.975,7.306,4.412a1.687,1.687,0,0,1,.941,1.413c.053.547.187,1.086.284,1.629q-4.875-2.937-9.749-5.875c-3.562-2.155-7.111-4.331-10.677-6.478a2.671,2.671,0,0,0-3.6.745c-2.468,3.01-4.891,6.056-7.327,9.091a.878.878,0,0,0-.092.3l-1.024-.669c1.909-2.377,3.774-4.7,5.64-7.021q1.837-2.285,3.676-4.568c.794-.989,1.247-1.07,2.364-.4q3.76,2.271,7.516,4.547C669.9,1385.2,670.314,1385.123,671.054,1384.327Z" transform="translate(-144.791 -60.504)" fill="#b9cdef"/>
      <path id="Trazado_617002" data-name="Trazado 617002" d="M712.009,1662.118l26.053,0v2.5H711.391C711.58,1663.76,710.947,1662.763,712.009,1662.118Z" transform="translate(-193.304 -283.025)" fill="#e98d49"/>
      <path id="Trazado_617003" data-name="Trazado 617003" d="M493.04,1409.008c-.105.777-.215,1.553-.315,2.33a12.812,12.812,0,0,0,3.127,10.688,7.318,7.318,0,0,0,5.646,2.579c.369,0,.738.006,1.108.009-2.633,3.382-6.986,3.371-9.975-.025-3.382-3.842-3.435-11.2-.1-15.1A6.515,6.515,0,0,1,493.04,1409.008Z" transform="translate(-18.956 -83.625)" fill="#589048"/>
      <path id="Trazado_617004" data-name="Trazado 617004" d="M620.717,1343.322a15.958,15.958,0,0,1-.953,1.487q-4.668,5.813-9.366,11.6-3.747,4.63-7.5,9.251a2.613,2.613,0,0,0-.445,2.6,3.972,3.972,0,0,1-1.3.249,1.666,1.666,0,0,1-1.148-.64,1.638,1.638,0,0,1,.086-1.367,21.592,21.592,0,0,1,1.713-2.177q8.577-10.6,17.155-21.2c.148-.183.312-.353.533-.6Z" transform="translate(-105.475 -31.252)" fill="#dc4a4a"/>
      <path id="Trazado_617005" data-name="Trazado 617005" d="M522.5,1512.453v8.842H520v-8.842Z" transform="translate(-42.54 -165.119)" fill="#fbaa68"/>
      <path id="Trazado_617006" data-name="Trazado 617006" d="M709.088,1540.969l7.69.3.515,2.546c-2.525,0-4.953.007-7.38-.018a.627.627,0,0,1-.437-.4C709.315,1542.589,709.212,1541.777,709.088,1540.969Z" transform="translate(-191.505 -187.584)" fill="#dc4a4a"/>
      <path id="Trazado_617007" data-name="Trazado 617007" d="M794.5,1542.385l5.7-.014.544,2.511h-5.88Z" transform="translate(-258.795 -188.688)" fill="#b9cdef"/>
      <path id="Trazado_617008" data-name="Trazado 617008" d="M757.965,1542.386h5.069l.516,2.5h-5.211Z" transform="translate(-230.01 -188.7)" fill="#b9cdef"/>
      <path id="Trazado_617009" data-name="Trazado 617009" d="M713.008,1358.629a5.553,5.553,0,0,1,.008.78,1.248,1.248,0,0,1-1.851.943c-.635-.32-1.222-.732-1.845-1.076a1.368,1.368,0,0,1-.875-1.592,1.311,1.311,0,0,1,1.437-.99l2.937,1.77.206.166Z" transform="translate(-190.963 -42.411)" fill="#fcf9f9"/>
      <path id="Trazado_617010" data-name="Trazado 617010" d="M522.5,1507.584H520v-1.311h2.5Z" transform="translate(-42.54 -160.25)" fill="#e68c48"/>
      <path id="Trazado_617011" data-name="Trazado 617011" d="M729.423,1365.2l-.206-.166Z" transform="translate(-207.362 -48.981)" fill="#e65a59"/>
      <path id="Trazado_617012" data-name="Trazado 617012" d="M689.579,1421.056a5.082,5.082,0,0,1-.055-10.164,5.082,5.082,0,1,1,.055,10.164Zm-.036-2.565a2.535,2.535,0,0,0,2.569-2.463,2.577,2.577,0,0,0-2.551-2.583,2.527,2.527,0,0,0-2.509,2.525A2.487,2.487,0,0,0,689.543,1418.491Z" transform="translate(-172.134 -85.108)" fill="#050505"/>
      <path id="Trazado_617013" data-name="Trazado 617013" d="M648.046,1497.917c-1.348.239-2.7.481-4.044.715-1.419.246-1.865-.08-2.11-1.491q-.351-2.024-.736-4.042a1.682,1.682,0,0,1,.466-1.73c1.863-.353,3.721-.734,5.591-1.044a1.123,1.123,0,0,1,1.355.939q.518,2.558.931,5.136C649.629,1497.222,649.14,1497.684,648.046,1497.917Zm-1.306-2.442-.432-2.421-2.413.429C644.07,1495.885,644.407,1496.129,646.74,1495.475Z" transform="translate(-137.943 -147.67)" fill="#050505"/>
      <path id="Trazado_617014" data-name="Trazado 617014" d="M767.342,1475.52c.008.918-.344,1.389-1.021,1.521q-2.526.493-5.068.9a1.216,1.216,0,0,1-1.407-1q-.489-2.527-.9-5.069a1.233,1.233,0,0,1,1.05-1.448c1.634-.31,3.274-.584,4.915-.856a1.148,1.148,0,0,1,1.479.86C766.765,1472.185,767.055,1473.957,767.342,1475.52Zm-5.217-.3,2.492-.474c-.17-.9-.313-1.665-.462-2.457l-2.457.443Z" transform="translate(-230.77 -131.314)" fill="#050505"/>
      <path id="Trazado_617015" data-name="Trazado 617015" d="M699.017,1427.972a2.487,2.487,0,0,1-2.491-2.521,2.527,2.527,0,0,1,2.509-2.526,2.577,2.577,0,0,1,2.551,2.583A2.535,2.535,0,0,1,699.017,1427.972Z" transform="translate(-181.608 -94.589)" fill="#b9cdef"/>
      <path id="Trazado_617016" data-name="Trazado 617016" d="M657.119,1505.684c-2.333.654-2.67.411-2.845-1.991l2.413-.43Z" transform="translate(-148.322 -157.879)" fill="#b9cdef"/>
      <path id="Trazado_617017" data-name="Trazado 617017" d="M772.405,1485.406l-.427-2.488,2.457-.443.462,2.457Z" transform="translate(-241.05 -141.502)" fill="#b9cdef"/>
    </g>
  </g>
</svg>
