<svg xmlns="http://www.w3.org/2000/svg" width="134" height="134" viewBox="0 0 134 134">
  <g id="Grupo_878575" data-name="Grupo 878575" transform="translate(-738.933 -1717.636)">
    <circle id="Elipse_5103" data-name="Elipse 5103" cx="67" cy="67" r="67" transform="translate(738.933 1717.636)" fill="#f3f9ff"/>
    <g id="Grupo_878393" data-name="Grupo 878393" transform="translate(298.748 198.913)">
      <path id="Trazado_617039" data-name="Trazado 617039" d="M570.888,1655.484q-.008-9.674,0-19.348a1.232,1.232,0,0,1,.346-.777q6.959-6.993,13.945-13.96a1.973,1.973,0,0,1,.162-.162,7.126,7.126,0,0,1,4.073.221c.29.281.59.553.885.829l1.576,1.657a5.1,5.1,0,0,1,.391-.343,4.062,4.062,0,0,0,1.761-4.116,39.6,39.6,0,0,1-.03-4.248l-1.2-.067v-2.227l1.176-.071v-7.242a2.407,2.407,0,0,1,.329-.722c1.207-1.243,2.436-2.464,3.669-3.682a.871.871,0,0,1,.508-.283c2.006-.019,4.013-.012,6.071-.012v.827q0,15.172.012,30.345a1.611,1.611,0,0,1-.523,1.262q-7.856,7.819-15.693,15.657a1.573,1.573,0,0,0-.518,1.266c.041,1.731.034,3.463.045,5.194Zm28.911-43.958h2.453c0-2.684,0-5.3-.012-7.924,0-.1-.172-.2-.264-.307-1.6-.222-3.127-.268-4.175,1.315a5.216,5.216,0,0,1-1.02,1.026,1.4,1.4,0,0,0-.5,1.189c.019,4.6-.029,9.207.036,13.81.019,1.372-.038,2.608-1.265,3.477-.419.4-.843.8-1.256,1.21a.511.511,0,0,0-.178.312c.045,1,.157,2.005.146,3.007a1.762,1.762,0,0,1-.448,1.113c-2.476,2.526-4.987,5.017-7.488,7.517-.118.118-.243.228-.28.262l-1.7-1.54c2.436-2.429,4.833-4.818,7.227-7.208a1.889,1.889,0,0,0,.15-2.266c-.8-.815-1.628-1.6-2.444-2.4a1.8,1.8,0,0,0-2.944-.118q-6.1,6.1-12.193,12.211a1.646,1.646,0,0,0-.449,1.037c-.028,5.141-.02,10.282-.018,15.422,0,.216.029.432.043.638H585.5v-3.078h-4.449v-2.274c1.5,0,2.974.035,4.442-.023a1.916,1.916,0,0,0,1.175-.492q7.6-7.536,15.133-15.131a1.638,1.638,0,0,0,.435-1.041c.027-5.579.019-11.158.018-16.737,0-.22-.021-.44-.032-.649h-2.427c-.49.029-.736-.136-.677-.691a15.417,15.417,0,0,0,.012-1.585Z" transform="translate(-59.696 -31.555)" fill="#020202"/>
      <path id="Trazado_617040" data-name="Trazado 617040" d="M480.763,1622.211c.844-1.225,2.075-1.258,3.411-1.261a3.014,3.014,0,0,1,2.373,1.005c4.367,4.429,8.784,8.81,13.171,13.221a1.454,1.454,0,0,1,.452.882c.021,6.449.01,12.9.005,19.348H483.192c.011-1.757.049-3.514.012-5.27a1.774,1.774,0,0,0-.453-1.114q-7.809-7.865-15.665-15.683a4.6,4.6,0,0,0-.572-.42V1600.8c1.877.019,3.756.014,5.632.079a1.858,1.858,0,0,1,1.111.461c1.167,1.1,2.29,2.238,3.4,3.389a3.286,3.286,0,0,1,.432.829v7.293h1.177v2.3h-1.2c0,2.156-.006,4.239.009,6.323a.882.882,0,0,0,.216.532c.576.643,1.176,1.263,1.818,1.945Zm-8.436-18.54c-.207-.172-.406-.481-.622-.493-.953-.055-1.91-.024-2.853-.024v8.343h3.033v2.3h-3a.836.836,0,0,0-.066.193q-.006,8.713.005,17.426a1.138,1.138,0,0,0,.324.712q7.687,7.716,15.406,15.4a1.178,1.178,0,0,0,.715.33c.838.029,1.679-.01,2.518-.023h2.22v2.3l-1.006.072H485.56v3.026h12.274a1.046,1.046,0,0,0,.053-.2c0-5.352.011-10.7-.009-16.057a1.244,1.244,0,0,0-.366-.771q-6.257-6.287-12.54-12.549a1.886,1.886,0,0,0-2.384.029q-1.245,1.241-2.487,2.488a1.806,1.806,0,0,0,.009,2.654l7.028,7.023-1.6,1.642c-2.49-2.489-4.962-4.991-7.476-7.45a2.206,2.206,0,0,1-.8-1.919,6.19,6.19,0,0,0,0-2.789c-.363-.848-1.358-1.412-2.012-2.157a1.858,1.858,0,0,1-.458-1.106c-.03-5.123-.015-10.246-.031-15.369a1.41,1.41,0,0,0-.266-.883C473.806,1605.071,473.055,1604.382,472.327,1603.671Z" transform="translate(0 -31.478)" fill="#020202"/>
      <path id="Trazado_617041" data-name="Trazado 617041" d="M527.36,1558.668a4.833,4.833,0,0,1,8.633-.019,11.732,11.732,0,0,1,.183,6.4c1.472-.573,2.3.589,3.249,1.527a1.593,1.593,0,0,1,.526,1.259c-.024,3.381-.012,6.762-.012,10.143v.842h6.647c-.366-1.946-.7-3.813-1.07-5.674-.348-1.772-.361-1.769-2.185-1.634l-1.186-.07v-2.234l1.186-.061h1.7v-7.469h4.044a2.068,2.068,0,0,0-1.564-1.842c-2.57,0-5.14.012-7.71.02a2.021,2.021,0,0,1-1.98-.9,2.8,2.8,0,0,0-.383-.347,3.062,3.062,0,0,0-.464-.5,4.643,4.643,0,0,1-1.969-4.729c.159-1.588-.017-3.2.841-4.669a6.005,6.005,0,0,1,6.414-2.8,5.857,5.857,0,0,1,4.563,5.279c.076,1.526.054,3.058.038,4.586a1.251,1.251,0,0,1-.324.713c-.277.325-.617.6-1.1,1.046,1.115,0,2.015-.029,2.912.017a1.759,1.759,0,0,1,.855.349,5.313,5.313,0,0,1,2.249,5.148c-.207,3.761-.065,7.542-.047,11.315a1.4,1.4,0,0,1-.483,1.2c-.445.379-.82.839-1.259,1.227a8.977,8.977,0,0,1-.988.659l.675,3.678H547.3v10.686c-1.684,0-3.308.024-4.931-.024-.268-.008-.553-.3-.783-.515a5.647,5.647,0,0,1-.578-.772,2.346,2.346,0,0,1-2.87,1.223c-.016-.311-.035-.66-.053-1.008l.053-1.123a1.694,1.694,0,0,0,1.653-1.934c0-2.343.012-4.685-.013-7.027a4.845,4.845,0,0,0-.317-1.115c-.863.748-1.558,1.391-2.6,1.1v10.1l-.076,1.094c-1.4,0-2.812.039-4.218-.031-.3-.016-.589-.424-.957-.709-.45.95-1.314.743-2.11.746-.962,0-1.924,0-2.924,0l-.085-1.091-.009-1.079v-9.057c-1.468.482-1.963-.849-2.829-1.459-.054.06-.081.077-.081.093q-.009,4.2-.014,8.4c0,1.214.446,1.759,1.7,2.01v.968a.085.085,0,0,0,0,.123v1a2.247,2.247,0,0,1-2.864-1.224c-.74,1.517-1.971,1.354-3.172,1.323-1.018-.027-2.038-.006-3.139-.006v-14.453c-.125-.063-.173-.11-.209-.1-1.858.43-2.7-1.014-3.754-2.051a.975.975,0,0,1-.153-.63q-.012-7,.009-14a2.571,2.571,0,0,1,.346-.862c.009-.021.04-.033.054-.053a4.551,4.551,0,0,1,5.327-2.006c-.03-.218-.021-.282-.044-.3a2.883,2.883,0,0,1-1.187-2.977,32.257,32.257,0,0,1,.378-4.536,5.681,5.681,0,0,1,5.861-4.073,5.759,5.759,0,0,1,5.469,4.883,44.961,44.961,0,0,1,.123,5.267.983.983,0,0,1-.318.563c-.684.721-1.386,1.424-2.081,2.133a3.372,3.372,0,0,0-.443.412,2.066,2.066,0,0,1-1.906.817c-1.728-.06-3.461,0-5.192,0-.815-.009-1.63-.024-2.445-.022-.5,0-1.626.894-1.644,1.379-.042,1.16-.014,2.323-.014,3.466h1.823v-1.834h1.668l.634.088v3c-.011.152-.031.3-.031.456q0,11.317,0,22.633c0,.146.017.291.03.5h.795c1.605,0,2.083-.466,2.083-2.04q0-5.964,0-11.928c0-.359-.06-.738.483-.726h1.674c0-2.421,0-4.782.007-7.144a1.108,1.108,0,0,1,.156-.7c1-1.02,1.828-2.4,3.622-1.964.047.011.111-.05-.014.011A11.405,11.405,0,0,1,527.36,1558.668Zm4.8,6.323c.919-.043,1.176-.945,1.785-1.393a.857.857,0,0,0,.219-.6c.024-.736.03-1.475,0-2.211a2.4,2.4,0,0,0-2.151-2.446,6.347,6.347,0,0,0-1.719.4c-1.005.561-1.706,3.829-.986,4.731C530.01,1564.351,530.733,1565.4,532.163,1564.992Zm9.954-16.687a3.559,3.559,0,0,0-4.765,3.13c-.044.761.056,1.536-.036,2.288a3.023,3.023,0,0,0,1.05,2.587,3.2,3.2,0,0,0,3.119,1.222c.348-.064.685-.187,1.027-.283.6-.585,1.212-1.159,1.792-1.764a.959.959,0,0,0,.258-.592c.012-1.22.032-2.443-.037-3.661A3.368,3.368,0,0,0,542.117,1548.305Zm-18.213,8.981c.615-.6,1.244-1.189,1.836-1.813a1.072,1.072,0,0,0,.271-.656c.024-1.114.036-2.23-.006-3.343a3.438,3.438,0,0,0-2.42-3.158,3.521,3.521,0,0,0-4.761,3.025,15.5,15.5,0,0,0,.027,3.505c.11.624.829,1.133,1.249,1.712a2.24,2.24,0,0,0,2.371.979Zm5.474,10.057c-.84-.009-1.679-.031-2.518-.022a1.186,1.186,0,0,0-1.145,1.156c-.012.611,0,1.222.01,1.832a.8.8,0,0,0,.092.229l.686-.044.111-1.089h2.211v20.011c1.145.386,1.772-.241,1.747-1.29-.067-2.773-.023-5.548-.023-8.322v-.845l1.754-.1c.5,0,.523.318.522.715-.012,2.854.04,5.71-.03,8.563-.027,1.078.64,1.67,1.751,1.262v-20c.268-.018.467-.041.666-.043.5-.006,1.008,0,1.562,0,.033.411.059.757.09,1.138h.781c0-.7.01-1.361,0-2.019a1.19,1.19,0,0,0-1.153-1.148C534.118,1567.321,531.748,1567.335,529.378,1567.343Zm15.6,13.854h-2.88c0,2.391,0,4.747.009,7.1a.991.991,0,0,0,.206.459c.666,1.047,1.688.737,2.665.74Zm2.352-17.178c-.093,3.7-.2,7.325.951,10.845a1.564,1.564,0,0,0,.842-1.544c-.045-2.827-.018-5.654-.018-8.481v-.82Zm-31.321,10.845v-7.791h-1.752c0,2.155,0,4.26,0,6.366C514.256,1574.565,514.862,1575.063,516.007,1574.864Zm20.87-2v5.444l.2.114c.187-.271.526-.538.535-.815.052-1.569.025-3.142.025-4.743Zm-10.4,5.48v-5.517l-.762.047c0,1.58.007,3.08,0,4.581A.782.782,0,0,0,526.48,1578.344Z" transform="translate(-25.995)" fill="#020202"/>
      <path id="Trazado_617042" data-name="Trazado 617042" d="M535.055,1575.856a11.4,11.4,0,0,0-.171,6.358c.125-.061.06,0,.014-.011-1.795-.431-2.621.944-3.622,1.964a1.109,1.109,0,0,0-.156.7c-.011,2.362-.007,4.724-.007,7.144h-1.674c0-2.687-.026-5.374.014-8.061.01-.689-.2-.88-.862-.838-.833.053-1.672.01-2.509.007v-3l-.634-.088c.118-1.014-.411-2.16.612-2.989,1.731-.008,3.464-.064,5.192,0a2.066,2.066,0,0,0,1.906-.817,3.385,3.385,0,0,1,.443-.412Z" transform="translate(-33.69 -17.188)" fill="#44fce6"/>
      <path id="Trazado_617043" data-name="Trazado 617043" d="M569.549,1575.789a2.814,2.814,0,0,1,.383.347,2.021,2.021,0,0,0,1.98.9c.047,1.592.1,3.184.141,4.776.012.471,0,.943,0,1.481a7.039,7.039,0,0,0,.945-.006,2.143,2.143,0,0,1,1.733.7c.841.662.681,1.5.714,2.342l-1.186.061v2.235l1.186.07c0,2.062.009,4.123-.027,6.184a4.44,4.44,0,0,1-.325,1.124h-3.04v-.842c0-3.381-.012-6.762.012-10.143a1.593,1.593,0,0,0-.526-1.259c-.954-.938-1.777-2.1-3.249-1.527a11.731,11.731,0,0,0-.183-6.4Z" transform="translate(-58.11 -17.174)" fill="#fb3f61"/>
      <path id="Trazado_617044" data-name="Trazado 617044" d="M494.863,1628.57l-1.654,1.738c-.642-.682-1.242-1.3-1.818-1.945a.882.882,0,0,1-.216-.532c-.015-2.084-.009-4.167-.009-6.323h1.2v-2.3h-1.177v-7.293l1.832,1.8-.767.914c.227.193.412.371.618.52a2.192,2.192,0,0,1,.874,2.039c-.059,2.645-.023,5.293-.02,7.939,0,.266.026.531.039.79l1.086.063Z" transform="translate(-14.1 -37.836)" fill="#f8bf74"/>
      <path id="Trazado_617045" data-name="Trazado 617045" d="M619.924,1611.911v7.242l-1.176.071v2.227l1.2.067a39.582,39.582,0,0,0,.03,4.248,4.062,4.062,0,0,1-1.761,4.116,5.157,5.157,0,0,0-.391.343l-1.575-1.657q.005-1.3.011-2.592l1.127-.073v-.855c0-2.341.078-4.686-.029-7.022a3.447,3.447,0,0,1,1.36-3.372c.031-.021.033-.084.057-.151l-.684-.79Z" transform="translate(-85.649 -37.836)" fill="#f8bf74"/>
      <path id="Trazado_617046" data-name="Trazado 617046" d="M496.31,1627.26l-1.086-.062c-.013-.258-.038-.524-.039-.79,0-2.646-.039-5.294.02-7.939a2.192,2.192,0,0,0-.874-2.039c-.205-.149-.39-.327-.618-.52l.767-.914.951-.839c.625.664,1.258,1.32,1.864,2a.89.89,0,0,1,.179.55q.01,5.145-.005,10.288a.781.781,0,0,1-.069.192Z" transform="translate(-15.558 -39.12)" fill="#080807"/>
      <path id="Trazado_617047" data-name="Trazado 617047" d="M616.534,1615.006l.684.79c-.024.067-.026.13-.057.151a3.446,3.446,0,0,0-1.36,3.372c.107,2.336.029,4.681.029,7.022v.856l-1.127.073-1.173-.065v-.733c0-3.151-.018-6.3.022-9.451a2.153,2.153,0,0,1,.5-1.173c.464-.6,1.022-1.12,1.54-1.675Z" transform="translate(-84.09 -39.129)" fill="#080807"/>
      <path id="Trazado_617048" data-name="Trazado 617048" d="M570.144,1635.827v-10.1c1.045.295,1.74-.348,2.6-1.1a4.841,4.841,0,0,1,.317,1.115c.024,2.342.013,4.685.013,7.027a1.694,1.694,0,0,1-1.653,1.934l-.054,1.123Z" transform="translate(-59.275 -45.113)" fill="#fdc377"/>
      <path id="Trazado_617049" data-name="Trazado 617049" d="M542.994,1649.362a.085.085,0,0,1,0-.123l1.227-.949.009,1.079Z" transform="translate(-43.73 -58.644)" fill="#59a9e5"/>
      <path id="Trazado_617050" data-name="Trazado 617050" d="M596.349,1641.42c.816.8,1.644,1.589,2.444,2.4a1.889,1.889,0,0,1-.15,2.266c-2.394,2.391-4.791,4.779-7.227,7.208l1.7,1.54c.037-.035.163-.145.28-.262,2.5-2.5,5.012-4.992,7.488-7.518a1.762,1.762,0,0,0,.448-1.113c.011-1-.1-2-.146-3.007a.512.512,0,0,1,.178-.312c.413-.41.837-.808,1.257-1.21l1.354,1.425,1.985-1.752.1,1.1h1.177c1.053,0,1.053,0,1.054-1.067,0-1.155,0-1.155-1.113-1.283l.177-1.458.936-.076a8.5,8.5,0,0,1,.009-1.175c.114-.775-.125-1.192-.968-1.108l.027-4.84h2.427c.011.209.032.429.032.649,0,5.579.009,11.158-.018,16.737a1.637,1.637,0,0,1-.435,1.04q-7.54,7.593-15.133,15.131a1.916,1.916,0,0,1-1.175.492c-1.468.058-2.939.022-4.442.022v2.274h4.449v3.078h-8.932c0-5.427,0-10.854-.018-16.281a1.708,1.708,0,0,1,.568-1.332q5.56-5.521,11.091-11.071C595.959,1641.747,596.159,1641.588,596.349,1641.42Zm1.677,17.394q5.006-5.005,9.986-10a1.064,1.064,0,0,0,.273-.668q.039-1.946,0-3.893c0-.176-.175-.487-.291-.5a8.148,8.148,0,0,0-1.674,0c-.125.014-.294.362-.3.562-.034.838-.046,1.68,0,2.518a1.616,1.616,0,0,1-.547,1.338c-2.734,2.7-5.441,5.429-8.166,8.139a11.126,11.126,0,0,1-.987.791Z" transform="translate(-67.27 -48.861)" fill="#fdf3ca"/>
      <path id="Trazado_617051" data-name="Trazado 617051" d="M591.833,1653.994c-.19.168-.389.327-.569.506q-5.544,5.537-11.091,11.071a1.708,1.708,0,0,0-.568,1.332c.023,5.427.016,10.854.018,16.281h-3.351c-.015-.206-.043-.422-.043-.638,0-5.141-.011-10.282.018-15.422a1.646,1.646,0,0,1,.449-1.037q6.076-6.126,12.193-12.211A1.8,1.8,0,0,1,591.833,1653.994Z" transform="translate(-62.754 -61.436)" fill="#fdc377"/>
      <path id="Trazado_617052" data-name="Trazado 617052" d="M632.095,1616.888q-.013,2.42-.027,4.839l-1.293.069v2.211l1.315.079-.177,1.458-1.141.084c-.028.42-.054.792-.079,1.164l-1.985,1.752-1.354-1.425c1.227-.868,1.284-2.1,1.265-3.477-.064-4.6-.017-9.207-.036-13.81a1.4,1.4,0,0,1,.5-1.189,5.212,5.212,0,0,0,1.02-1.026c1.048-1.583,2.577-1.537,4.175-1.315-.578.607-1.186,1.188-1.719,1.833a1.878,1.878,0,0,0-.446,1.052c-.042,1.781-.015,3.564-.012,5.347l-.673.078a15.422,15.422,0,0,1-.011,1.586C631.359,1616.752,631.6,1616.916,632.095,1616.888Z" transform="translate(-91.999 -34.563)" fill="#fdc377"/>
      <path id="Trazado_617053" data-name="Trazado 617053" d="M638.432,1614.685c0-1.783-.03-3.565.012-5.347a1.879,1.879,0,0,1,.446-1.052c.532-.645,1.141-1.226,1.719-1.833.092.1.264.2.264.307.015,2.62.012,5.24.012,7.924Z" transform="translate(-98.329 -34.714)" fill="#fdf3ca"/>
      <path id="Trazado_617054" data-name="Trazado 617054" d="M496.76,1654.048l1.006-.072v-2.3h-2.22q-7.462-7.462-14.914-14.935a1.69,1.69,0,0,1-.538-1.013q-.036-14.109-.009-28.217c.728.711,1.479,1.4,2.167,2.147a1.41,1.41,0,0,1,.266.883c.015,5.123,0,10.246.031,15.369a1.857,1.857,0,0,0,.458,1.106c.654.745,1.649,1.309,2.012,2.157a6.189,6.189,0,0,1,0,2.789,2.206,2.206,0,0,0,.8,1.919c2.515,2.459,4.987,4.961,7.476,7.45l1.6-1.642-7.028-7.023a1.807,1.807,0,0,1-.009-2.654q1.243-1.244,2.487-2.488a1.886,1.886,0,0,1,2.384-.029q6.276,6.269,12.54,12.549a1.244,1.244,0,0,1,.366.771c.019,5.352.012,10.7.009,16.057a1.046,1.046,0,0,1-.053.2h-8.827Q496.762,1655.561,496.76,1654.048Z" transform="translate(-7.759 -35.321)" fill="#fdf3ca"/>
      <path id="Trazado_617055" data-name="Trazado 617055" d="M475.4,1606.812q-.007,14.109.009,28.217a1.69,1.69,0,0,0,.538,1.014q7.441,7.483,14.914,14.935c-.84.013-1.68.051-2.518.023a1.178,1.178,0,0,1-.715-.329q-7.718-7.686-15.406-15.4a1.138,1.138,0,0,1-.324-.712q-.023-8.713-.005-17.426a.839.839,0,0,1,.066-.193h3v-2.3h-3.033V1606.3c.943,0,1.9-.031,2.853.024C474.994,1606.331,475.193,1606.639,475.4,1606.812Z" transform="translate(-3.073 -34.618)" fill="#fdc377"/>
      <path id="Trazado_617056" data-name="Trazado 617056" d="M514.453,1716.237q0,1.513,0,3.026h-3.446v-3.026Z" transform="translate(-25.451 -97.51)" fill="#f8bf74"/>
      <path id="Trazado_617057" data-name="Trazado 617057" d="M526.931,1592.873c.837,0,1.676.046,2.509-.007.659-.042.873.149.862.838-.04,2.686-.015,5.374-.014,8.061-.543-.012-.484.367-.483.726q.005,5.964,0,11.928c0,1.574-.478,2.042-2.083,2.04h-.795c-.012-.206-.029-.351-.029-.5q0-11.316,0-22.633C526.9,1593.177,526.92,1593.025,526.931,1592.873Z" transform="translate(-34.539 -26.939)" fill="#59a9e5"/>
      <path id="Trazado_617058" data-name="Trazado 617058" d="M552.432,1596.153c2.37-.008,4.74-.023,7.11-.021a1.19,1.19,0,0,1,1.153,1.148c.013.659,0,1.318,0,2.019h-.781c-.03-.381-.057-.727-.09-1.138-.554,0-1.058,0-1.562,0-.2,0-.4.025-.666.043v20c-1.111.408-1.777-.184-1.751-1.262.071-2.853.018-5.708.03-8.563,0-.4-.026-.711-.522-.715,0-2.381,0-4.762,0-7.23h-1.4c-1.7,0-1.717,0-1.692-1.731C552.283,1597.857,552.375,1597.005,552.432,1596.153Z" transform="translate(-49.048 -28.81)" fill="#b37cd3"/>
      <path id="Trazado_617059" data-name="Trazado 617059" d="M547.752,1596.15c-.057.852-.149,1.7-.162,2.557-.025,1.731-.008,1.731,1.692,1.731h1.4c0,2.468,0,4.849,0,7.23l-1.754.1v.845c0,2.774-.044,5.55.023,8.322.025,1.049-.6,1.676-1.747,1.29v-20.011h-2.211l-.111,1.089-.686.044a.8.8,0,0,1-.092-.229c-.009-.611-.021-1.222-.01-1.832a1.186,1.186,0,0,1,1.145-1.156C546.073,1596.119,546.912,1596.141,547.752,1596.15Z" transform="translate(-44.369 -28.806)" fill="#4e57d5"/>
      <path id="Trazado_617060" data-name="Trazado 617060" d="M580.531,1587.959c-.033-.839.127-1.68-.714-2.342a2.144,2.144,0,0,0-1.733-.7,6.994,6.994,0,0,1-.945.007c0-.538.011-1.01,0-1.481-.043-1.592-.094-3.184-.141-4.776,2.57-.008,5.14-.024,7.71-.02a2.068,2.068,0,0,1,1.564,1.842h-4.044v7.469Z" transform="translate(-63.194 -18.809)" fill="#ef71ad"/>
      <path id="Trazado_617061" data-name="Trazado 617061" d="M532.959,1560.389l-1.432.252a2.24,2.24,0,0,1-2.371-.979c-.419-.579-1.139-1.089-1.249-1.712a15.5,15.5,0,0,1-.026-3.505,3.52,3.52,0,0,1,4.761-3.025,9.885,9.885,0,0,0-1.249,2.619,31.66,31.66,0,0,0-.123,4.544.641.641,0,0,0,.213.385C531.967,1559.449,532.465,1559.917,532.959,1560.389Z" transform="translate(-35.05 -3.103)" fill="#cb2a00"/>
      <path id="Trazado_617062" data-name="Trazado 617062" d="M576.365,1560.355c-.342.1-.679.219-1.027.283a3.2,3.2,0,0,1-3.119-1.222,3.024,3.024,0,0,1-1.05-2.587c.092-.753-.008-1.527.036-2.289a3.56,3.56,0,0,1,4.765-3.131,5.23,5.23,0,0,0-1.383,3.362c-.03.885.078,1.784-.035,2.655C574.354,1558.943,575.345,1559.639,576.365,1560.355Z" transform="translate(-59.848 -3.105)" fill="#fdc377"/>
      <path id="Trazado_617063" data-name="Trazado 617063" d="M541.984,1634.235l-1.227.949v-.968c-1.251-.25-1.7-.8-1.7-2.01q.005-4.2.014-8.4c0-.017.028-.033.081-.094.866.61,1.361,1.942,2.829,1.459Z" transform="translate(-41.495 -44.589)" fill="#44fee7"/>
      <path id="Trazado_617064" data-name="Trazado 617064" d="M580.884,1560.646c-1.02-.716-2.011-1.412-1.813-2.928.113-.871.006-1.77.036-2.655a5.23,5.23,0,0,1,1.382-3.362,3.369,3.369,0,0,1,2.409,2.93c.069,1.217.049,2.441.037,3.661a.959.959,0,0,1-.258.591C582.1,1559.486,581.484,1560.061,580.884,1560.646Z" transform="translate(-64.366 -3.395)" fill="#fdf3ca"/>
      <path id="Trazado_617065" data-name="Trazado 617065" d="M537.58,1560.7c-.493-.472-.992-.94-1.476-1.422a.642.642,0,0,1-.213-.385,31.669,31.669,0,0,1,.123-4.544,9.892,9.892,0,0,1,1.249-2.619,3.438,3.438,0,0,1,2.42,3.158c.042,1.113.03,2.229.006,3.343a1.072,1.072,0,0,1-.271.656C538.824,1559.51,538.195,1560.1,537.58,1560.7Z" transform="translate(-39.671 -3.413)" fill="#ec8600"/>
      <path id="Trazado_617066" data-name="Trazado 617066" d="M585.245,1628.551v8.3c-.977,0-2,.308-2.665-.74a.991.991,0,0,1-.206-.459c-.013-2.356-.009-4.712-.009-7.1Z" transform="translate(-66.265 -47.354)" fill="#fdf3ca"/>
      <path id="Trazado_617067" data-name="Trazado 617067" d="M584.43,1613.168a4.435,4.435,0,0,0,.325-1.124c.036-2.061.023-4.123.027-6.184,1.824-.135,1.837-.138,2.185,1.634.366,1.861.7,3.727,1.07,5.674Z" transform="translate(-67.447 -34.345)" fill="#ed6faa"/>
      <path id="Trazado_617068" data-name="Trazado 617068" d="M594.519,1588.416h1.775v.82c0,2.828-.027,5.655.018,8.481a1.564,1.564,0,0,1-.842,1.544C594.316,1595.741,594.425,1592.117,594.519,1588.416Z" transform="translate(-73.186 -24.397)" fill="#f4eac3"/>
      <path id="Trazado_617069" data-name="Trazado 617069" d="M557.524,1575.146a2.4,2.4,0,0,1,2.151,2.446c.032.736.026,1.475,0,2.211a.857.857,0,0,1-.219.6c-.609.448-.866,1.35-1.785,1.393a3.063,3.063,0,0,1-1.11-2.927A5.558,5.558,0,0,1,557.524,1575.146Z" transform="translate(-51.505 -16.806)" fill="#f4eac3"/>
      <path id="Trazado_617070" data-name="Trazado 617070" d="M519.071,1603.342c-1.145.2-1.751-.3-1.752-1.426,0-2.105,0-4.211,0-6.366h1.752Z" transform="translate(-29.059 -28.477)" fill="#e58200"/>
      <path id="Trazado_617071" data-name="Trazado 617071" d="M521.427,1578.663c-1.023.829-.494,1.975-.612,2.989h-1.668v1.834h-1.823c0-1.143-.029-2.306.014-3.466.018-.485,1.148-1.378,1.644-1.379C519.8,1578.64,520.612,1578.655,521.427,1578.663Z" transform="translate(-29.057 -18.805)" fill="#58a7e2"/>
      <path id="Trazado_617072" data-name="Trazado 617072" d="M554.8,1575.146a5.559,5.559,0,0,0-.962,3.725,3.063,3.063,0,0,0,1.11,2.927c-1.429.4-2.153-.64-2.854-1.517-.72-.9-.02-4.17.986-4.731A6.351,6.351,0,0,1,554.8,1575.146Z" transform="translate(-48.784 -16.806)" fill="#fc9377"/>
      <path id="Trazado_617073" data-name="Trazado 617073" d="M570.173,1609.081h.762c0,1.6.027,3.174-.025,4.743-.009.277-.348.543-.535.815l-.2-.114Z" transform="translate(-59.292 -36.217)" fill="#f4eac3"/>
      <path id="Trazado_617074" data-name="Trazado 617074" d="M544.86,1614.512a.782.782,0,0,1-.766-.89c.011-1.5,0-3,0-4.58l.762-.047Z" transform="translate(-44.375 -36.167)" fill="#f4eac3"/>
      <path id="Trazado_617075" data-name="Trazado 617075" d="M614.318,1675.555l-1.713-1.708a11.192,11.192,0,0,0,.987-.791c2.726-2.71,5.433-5.438,8.166-8.139a1.615,1.615,0,0,0,.547-1.338c-.043-.838-.031-1.68,0-2.518.008-.2.177-.548.3-.562a8.165,8.165,0,0,1,1.674,0c.116.011.288.322.291.5q.037,1.946,0,3.893a1.063,1.063,0,0,1-.273.668Q619.328,1670.563,614.318,1675.555Z" transform="translate(-83.562 -65.602)" fill="#fefefe"/>
      <path id="Trazado_617076" data-name="Trazado 617076" d="M636.662,1644.838l-1.315-.079v-2.211l1.293-.069c.842-.084,1.082.333.968,1.108a8.5,8.5,0,0,0-.009,1.175Z" transform="translate(-96.571 -55.314)" fill="#fdfdfd"/>
      <path id="Trazado_617077" data-name="Trazado 617077" d="M635.156,1652.658l.079-1.164,1.141-.084c1.113.128,1.113.128,1.113,1.283,0,1.066,0,1.066-1.054,1.067h-1.177Z" transform="translate(-96.462 -60.429)" fill="#fefefe"/>
    </g>
  </g>
</svg>
