<svg xmlns="http://www.w3.org/2000/svg" width="295" height="203.517" viewBox="0 0 295 203.517">
  <g id="Grupo_878574" data-name="Grupo 878574" transform="translate(-1020 -7084.5)">
    <g id="Grupo_876750" data-name="Grupo 876750" transform="translate(887.756 7028.085)">
      <path id="Trazado_125866" data-name="Trazado 125866" d="M427.244,94.576V221.3c0,20.32-17.416,34.026-38.459,36.793-25.146,3.306-51.643,1.765-101.554-1.5-29.137-1.9-87.356,1.246-116.527,1.5-21.24.181-38.46-16.473-38.46-36.793V94.576c0-20.32,17.256-37.988,38.46-36.793,19.691,1.11,48.654,5.5,78.845,2.813,35.909-3.2,104.067-5.919,139.236-2.813C409.936,59.651,427.244,74.256,427.244,94.576Z" transform="translate(0 0)" fill="#daebe8"/>
      <ellipse id="Elipse_4988" data-name="Elipse 4988" cx="117.019" cy="14.919" rx="117.019" ry="14.919" transform="translate(165.456 211.632)" fill="#b8d5dc" opacity="0.5"/>
      <g id="Grupo_876681" data-name="Grupo 876681" transform="translate(160.533 169.41)">
        <path id="Trazado_125867" data-name="Trazado 125867" d="M602.866,1235.9h-3.706l3.318-30.07h3.706Z" transform="translate(-572.432 -1183.386)" fill="#99c4cc"/>
        <g id="Grupo_876680" data-name="Grupo 876680" transform="translate(0 0)">
          <path id="Trazado_125868" data-name="Trazado 125868" d="M434.193,1047.642H380.53l-8.2-31.8h53.664Z" transform="translate(-372.325 -1015.781)" fill="#99c4cc"/>
          <path id="Trazado_125869" data-name="Trazado 125869" d="M451.585,1047.642H397.922l-8.205-31.8H443.38Z" transform="translate(-387.667 -1015.781)" fill="#b8d5dc"/>
          <g id="Grupo_876673" data-name="Grupo 876673" transform="translate(4.102 7.787)">
            <rect id="Rectángulo_293866" data-name="Rectángulo 293866" width="53.664" height="0.456" fill="#99c4cc"/>
          </g>
          <g id="Grupo_876674" data-name="Grupo 876674" transform="translate(6.152 15.731)">
            <rect id="Rectángulo_293867" data-name="Rectángulo 293867" width="53.664" height="0.456" fill="#99c4cc"/>
          </g>
          <g id="Grupo_876675" data-name="Grupo 876675" transform="translate(8.201 23.674)">
            <rect id="Rectángulo_293868" data-name="Rectángulo 293868" width="53.663" height="0.456" fill="#99c4cc"/>
          </g>
          <g id="Grupo_876676" data-name="Grupo 876676" transform="translate(11.434 0)">
            <rect id="Rectángulo_293869" data-name="Rectángulo 293869" width="0.455" height="32.846" transform="translate(0 0.114) rotate(-14.467)" fill="#99c4cc"/>
          </g>
          <g id="Grupo_876677" data-name="Grupo 876677" transform="translate(22.78 0)">
            <rect id="Rectángulo_293870" data-name="Rectángulo 293870" width="0.455" height="32.846" transform="translate(0 0.114) rotate(-14.465)" fill="#99c4cc"/>
          </g>
          <g id="Grupo_876678" data-name="Grupo 876678" transform="translate(34.124)">
            <rect id="Rectángulo_293871" data-name="Rectángulo 293871" width="0.455" height="32.846" transform="translate(0 0.114) rotate(-14.467)" fill="#99c4cc"/>
          </g>
          <g id="Grupo_876679" data-name="Grupo 876679" transform="translate(45.47 0)">
            <rect id="Rectángulo_293872" data-name="Rectángulo 293872" width="0.455" height="32.846" transform="translate(0 0.114) rotate(-14.465)" fill="#99c4cc"/>
          </g>
        </g>
        <path id="Trazado_125870" data-name="Trazado 125870" d="M607.9,1437.8h6.281a2.736,2.736,0,0,1,2.736,2.736H607.9Z" transform="translate(-580.137 -1388.02)" fill="#99c4cc"/>
      </g>
      <g id="Grupo_876689" data-name="Grupo 876689" transform="translate(226.883 188.86)">
        <path id="Trazado_125871" data-name="Trazado 125871" d="M1087.089,1289.32h-2.438l2.183-19.784h2.438Z" transform="translate(-1067.065 -1259.036)" fill="#99c4cc"/>
        <path id="Trazado_125872" data-name="Trazado 125872" d="M976.114,1201.67H940.807l-5.4-20.925h35.307Z" transform="translate(-935.409 -1180.707)" fill="#99c4cc"/>
        <path id="Trazado_125873" data-name="Trazado 125873" d="M987.557,1201.67H952.25l-5.4-20.925h35.307Z" transform="translate(-945.503 -1180.707)" fill="#b8d5dc"/>
        <g id="Grupo_876682" data-name="Grupo 876682" transform="translate(2.699 5.123)">
          <rect id="Rectángulo_293873" data-name="Rectángulo 293873" width="35.307" height="0.301" fill="#99c4cc"/>
        </g>
        <g id="Grupo_876683" data-name="Grupo 876683" transform="translate(4.047 10.349)">
          <rect id="Rectángulo_293874" data-name="Rectángulo 293874" width="35.307" height="0.301" fill="#99c4cc"/>
        </g>
        <g id="Grupo_876684" data-name="Grupo 876684" transform="translate(5.396 15.576)">
          <rect id="Rectángulo_293875" data-name="Rectángulo 293875" width="35.306" height="0.301" fill="#99c4cc"/>
        </g>
        <g id="Grupo_876685" data-name="Grupo 876685" transform="translate(7.523 0)">
          <rect id="Rectángulo_293876" data-name="Rectángulo 293876" width="0.3" height="21.611" transform="translate(0 0.075) rotate(-14.464)" fill="#99c4cc"/>
        </g>
        <g id="Grupo_876686" data-name="Grupo 876686" transform="translate(14.987 0)">
          <rect id="Rectángulo_293877" data-name="Rectángulo 293877" width="0.3" height="21.611" transform="matrix(0.968, -0.25, 0.25, 0.968, 0, 0.075)" fill="#99c4cc"/>
        </g>
        <g id="Grupo_876687" data-name="Grupo 876687" transform="translate(22.452 0)">
          <rect id="Rectángulo_293878" data-name="Rectángulo 293878" width="0.3" height="21.611" transform="translate(0 0.075) rotate(-14.465)" fill="#99c4cc"/>
        </g>
        <g id="Grupo_876688" data-name="Grupo 876688" transform="translate(29.916 0)">
          <rect id="Rectángulo_293879" data-name="Rectángulo 293879" width="0.3" height="21.611" transform="matrix(0.968, -0.25, 0.25, 0.968, 0, 0.075)" fill="#99c4cc"/>
        </g>
        <path id="Trazado_125874" data-name="Trazado 125874" d="M1090.4,1422.154h4.133a1.8,1.8,0,0,1,1.8,1.8H1090.4Z" transform="translate(-1072.134 -1393.67)" fill="#99c4cc"/>
      </g>
      <g id="Grupo_876690" data-name="Grupo 876690" transform="translate(329.247 98.621)" opacity="0.8">
        <path id="Trazado_125875" data-name="Trazado 125875" d="M1834.2,418.772a8.726,8.726,0,0,0-8.652-4.123c-6.2.591-5.463,5.315-8.416,4.872s-7.087,0-7.973,2.953-4.873,1.329-5.02,3.839,4.577,4.282,10.04,2.067,8.121,1.721,15.8,1.008,8.629-1.6,13.174-1.156,4.437-2.669,2.369-4.736S1835.083,421.626,1834.2,418.772Z" transform="translate(-1804.132 -414.597)" fill="#fff"/>
      </g>
      <g id="Grupo_876691" data-name="Grupo 876691" transform="translate(251.795 77.402)" opacity="0.6">
        <path id="Trazado_125876" data-name="Trazado 125876" d="M1167.806,237.437a6.089,6.089,0,0,0-6.037-2.877c-4.327.412-3.812,3.709-5.872,3.4s-4.945,0-5.563,2.061-3.4.927-3.5,2.679,3.194,2.988,7.005,1.442,5.666,1.2,11.023.7,6.021-1.115,9.192-.806,3.1-1.862,1.653-3.3S1168.425,239.429,1167.806,237.437Z" transform="translate(-1146.829 -234.525)" fill="#fff"/>
      </g>
      <g id="Grupo_876692" data-name="Grupo 876692" transform="translate(175.788 104.375)" opacity="0.6">
        <path id="Trazado_125877" data-name="Trazado 125877" d="M525.526,467.1a6.8,6.8,0,0,0-6.831-3.623c-4.9.519-4.313,4.67-6.645,4.281s-5.6,0-6.3,2.595-3.847,1.168-3.964,3.373,3.614,3.762,7.927,1.816,6.412,1.512,12.474.886,6.813-1.4,10.4-1.015,3.5-2.345,1.871-4.161S526.225,469.608,525.526,467.1Z" transform="translate(-501.787 -463.432)" fill="#fff"/>
      </g>
      <g id="Grupo_876694" data-name="Grupo 876694" transform="translate(354.051 142.555)">
        <path id="Trazado_125878" data-name="Trazado 125878" d="M2209.525,1027.051h-3.009l.251-22.151.385-33.929h1.363l.54,29.974Z" transform="translate(-2183.906 -949.346)" fill="#fff"/>
        <path id="Trazado_125879" data-name="Trazado 125879" d="M2210.938,1000.944a34.592,34.592,0,0,0-2.288,3.956l.385-33.929h1.363Z" transform="translate(-2185.788 -949.345)" fill="#b8d5dc"/>
        <g id="Grupo_876693" data-name="Grupo 876693">
          <path id="Trazado_125880" data-name="Trazado 125880" d="M2209.459,809.7l-.614-1.859a6.167,6.167,0,0,1,1.062-5.812l11.715-14.476a.271.271,0,0,1,.452.294L2210.8,809.805A.73.73,0,0,1,2209.459,809.7Z" transform="translate(-2185.687 -787.45)" fill="#fff"/>
          <path id="Trazado_125881" data-name="Trazado 125881" d="M2215.968,965.867l1.956-.088a6.166,6.166,0,0,1,5.308,2.6l10.765,15.2a.271.271,0,0,1-.406.356L2215.5,967.132A.731.731,0,0,1,2215.968,965.867Z" transform="translate(-2191.627 -944.761)" fill="#fff"/>
          <path id="Trazado_125882" data-name="Trazado 125882" d="M2039.594,962.084l-1,1.686a6.166,6.166,0,0,1-5.075,3.026l-18.609.709a.271.271,0,0,1-.076-.534l23.95-5.967A.731.731,0,0,1,2039.594,962.084Z" transform="translate(-2014.633 -940.533)" fill="#fff"/>
          <circle id="Elipse_4989" data-name="Elipse 4989" cx="1.591" cy="1.591" r="1.591" transform="translate(22.012 22.397) rotate(-61.83)" fill="#366f90"/>
        </g>
        <path id="Trazado_125883" data-name="Trazado 125883" d="M2184.675,1430.81H2174a3.173,3.173,0,0,1,3.173-3.173h4.325a3.173,3.173,0,0,1,3.173,3.173Z" transform="translate(-2155.226 -1352.202)" fill="#fff"/>
      </g>
      <g id="Grupo_876696" data-name="Grupo 876696" transform="translate(330.875 123.459)">
        <path id="Trazado_125884" data-name="Trazado 125884" d="M2060.953,901.5h-4.945l.413-30.521.632-46.749h2.241l.886,41.3Z" transform="translate(-2027.958 -800.798)" fill="#fff"/>
        <path id="Trazado_125885" data-name="Trazado 125885" d="M2063.274,865.526a46.482,46.482,0,0,0-3.76,5.45l.633-46.749h2.24Z" transform="translate(-2031.051 -800.798)" fill="#b8d5dc"/>
        <g id="Grupo_876695" data-name="Grupo 876695">
          <path id="Trazado_125886" data-name="Trazado 125886" d="M1959.958,812.169l1.2,2.684a9.264,9.264,0,0,1-.7,8.85l-15.291,23.433a.407.407,0,0,1-.721-.371l13.482-34.548A1.1,1.1,0,0,1,1959.958,812.169Z" transform="translate(-1929.519 -789.588)" fill="#fff"/>
          <path id="Trazado_125887" data-name="Trazado 125887" d="M1847.718,649.769l-2.91.431a9.265,9.265,0,0,1-8.332-3.066l-18.42-21.063a.407.407,0,0,1,.552-.594l29.609,22.329A1.1,1.1,0,0,1,1847.718,649.769Z" transform="translate(-1817.951 -625.391)" fill="#fff"/>
          <path id="Trazado_125888" data-name="Trazado 125888" d="M2061.34,738.436l1.229-2.672a9.265,9.265,0,0,1,7.121-5.3l27.707-3.912a.407.407,0,0,1,.2.787l-34.882,12.59A1.1,1.1,0,0,1,2061.34,738.436Z" transform="translate(-2032.569 -714.626)" fill="#fff"/>
          <path id="Trazado_125889" data-name="Trazado 125889" d="M2056.047,804.753a2.391,2.391,0,1,1-3.306-.71A2.391,2.391,0,0,1,2056.047,804.753Z" transform="translate(-2024.11 -782.653)" fill="#366f90"/>
        </g>
        <path id="Trazado_125890" data-name="Trazado 125890" d="M2020.114,1453.537h-17.536a5.215,5.215,0,0,1,5.215-5.214h7.107a5.214,5.214,0,0,1,5.214,5.214Z" transform="translate(-1980.823 -1351.355)" fill="#fff"/>
      </g>
      <g id="Grupo_876697" data-name="Grupo 876697" transform="translate(210.803 173.817)">
        <path id="Trazado_125891" data-name="Trazado 125891" d="M828.584,1053.654c.189,5.576.636,11.139.941,16.708a19.647,19.647,0,0,1-.368,6.655,9.267,9.267,0,0,1-2.933,4.527c-3.87,3.276-9.325,3.009-14.068,3.461-4.1.39-8.706,1.533-11.375,4.931-2.924,3.725-2.108,8.783.739,12.3,3.109,3.839,8.264,5.246,12.971,5.756a38.335,38.335,0,0,0,16.371-1.8,22.3,22.3,0,0,0,3.719-1.605,33.922,33.922,0,0,0,3.351-2.282,24.626,24.626,0,0,1,6.564-3.495c10.037-3.422,20.7-.428,29.983,3.814,1.232.563,2.453,1.15,3.668,1.75,1.066.526,2.006-1.072.935-1.6-9.335-4.609-19.518-8.489-30.1-6.94a27.929,27.929,0,0,0-7.006,1.978,35.383,35.383,0,0,0-6.435,3.956c-4.393,3.119-10.1,4.333-15.41,4.559-4.89.208-10.39-.293-14.607-3-3.43-2.2-6.1-6.9-4.121-10.918,1.81-3.679,6.326-5.057,10.111-5.474,4.968-.548,10.32-.237,14.691-3.076a11.951,11.951,0,0,0,5.289-9.944c.1-2.69-.215-5.428-.383-8.111-.173-2.762-.356-5.524-.5-8.288q-.1-1.925-.169-3.851c-.04-1.189-1.893-1.194-1.853,0Z" transform="translate(-798.947 -1052.76)" fill="#acab58"/>
      </g>
      <g id="Grupo_876698" data-name="Grupo 876698" transform="translate(211.452 173.817)">
        <path id="Trazado_125892" data-name="Trazado 125892" d="M834.089,1053.654c.189,5.576.636,11.139.941,16.708a19.644,19.644,0,0,1-.368,6.655,9.265,9.265,0,0,1-2.933,4.527c-3.87,3.276-9.325,3.009-14.068,3.461-4.1.39-8.706,1.533-11.375,4.931-2.924,3.725-2.108,8.783.738,12.3,3.109,3.839,8.264,5.246,12.971,5.756a38.334,38.334,0,0,0,16.371-1.8,22.3,22.3,0,0,0,3.719-1.605,33.916,33.916,0,0,0,3.351-2.282A24.625,24.625,0,0,1,850,1098.8c10.036-3.422,20.7-.428,29.983,3.814,1.232.563,2.454,1.15,3.668,1.75,1.066.526,2.006-1.072.935-1.6-9.335-4.609-19.518-8.489-30.1-6.94a27.929,27.929,0,0,0-7.006,1.978,35.382,35.382,0,0,0-6.435,3.956c-4.393,3.119-10.1,4.333-15.409,4.559-4.89.208-10.39-.293-14.607-3-3.43-2.2-6.1-6.9-4.121-10.918,1.81-3.679,6.326-5.057,10.111-5.474,4.968-.548,10.32-.237,14.69-3.076A11.951,11.951,0,0,0,837,1073.9c.1-2.69-.215-5.428-.383-8.111-.173-2.762-.356-5.524-.5-8.288q-.1-1.925-.169-3.851c-.04-1.189-1.894-1.194-1.853,0Z" transform="translate(-804.453 -1052.76)" fill="#c4c66d"/>
      </g>
      <rect id="Rectángulo_293880" data-name="Rectángulo 293880" width="9.339" height="12.269" rx="4.67" transform="translate(238.074 174.654)" fill="#acab58"/>
      <g id="Grupo_876699" data-name="Grupo 876699" transform="translate(202.818 93.032)">
        <path id="Trazado_125893" data-name="Trazado 125893" d="M846.4,372.051v45.576a4.9,4.9,0,0,1-3.463,4.671,4.824,4.824,0,0,1-1.421.212,4.9,4.9,0,0,1-4.883-4.883V372.051a4.9,4.9,0,0,1,4.883-4.883,4.824,4.824,0,0,1,1.421.212,4.9,4.9,0,0,1,3.463,4.671Z" transform="translate(-824.211 -367.168)" fill="#b8d5dc"/>
        <path id="Trazado_125894" data-name="Trazado 125894" d="M867.674,373.642v45.576a3.619,3.619,0,1,1-6.925,0V373.642a3.511,3.511,0,1,1,6.925,0Z" transform="translate(-845.482 -368.759)" fill="#fff"/>
        <path id="Trazado_125895" data-name="Trazado 125895" d="M1202.452,372.051v45.576a4.9,4.9,0,0,1-3.463,4.671,4.821,4.821,0,0,1-1.42.212,4.9,4.9,0,0,1-4.883-4.883V372.051a4.9,4.9,0,0,1,4.883-4.883,4.821,4.821,0,0,1,1.42.212,4.9,4.9,0,0,1,3.463,4.671Z" transform="translate(-1138.306 -367.168)" fill="#b8d5dc"/>
        <path id="Trazado_125896" data-name="Trazado 125896" d="M1223.724,373.642v45.576a3.619,3.619,0,1,1-6.925,0V373.642a3.511,3.511,0,1,1,6.925,0Z" transform="translate(-1159.577 -368.759)" fill="#fff"/>
        <path id="Rectángulo_293881" data-name="Rectángulo 293881" d="M29.418,0h9.762A29.418,29.418,0,0,1,68.6,29.418v0A29.418,29.418,0,0,1,39.179,58.835H29.418A29.418,29.418,0,0,1,0,29.418v0A29.418,29.418,0,0,1,29.418,0Z" transform="translate(0 29.236)" fill="#acab58"/>
        <rect id="Rectángulo_293882" data-name="Rectángulo 293882" width="64.043" height="58.835" rx="29.418" transform="translate(9.186 29.236)" fill="#c4c66d"/>
      </g>
      <g id="Grupo_876700" data-name="Grupo 876700" transform="translate(231.921 136.523)">
        <path id="Trazado_125897" data-name="Trazado 125897" d="M994.045,769.059l8.8-13h-9.833l12.414-19.8h8.153l-10.283,15.6h10.283Z" transform="translate(-991.266 -736.263)" fill="#acab58"/>
        <path id="Trazado_125898" data-name="Trazado 125898" d="M980.948,769.059l7.054-13h-9.833l12.414-19.8h8.153l-10.284,15.6h10.284Z" transform="translate(-978.169 -736.263)" fill="#fff"/>
      </g>
      <g id="Grupo_876711" data-name="Grupo 876711" transform="translate(315.096 176.486)">
        <path id="Trazado_125899" data-name="Trazado 125899" d="M1967.271,1280.2c-.079.467-.032,1.444-.1,1.913-.031.2-.087.9.105.977.167.067.466-.439.579-.7.7,1.607,2.185,3.451.924.176h0c.129.274,1.01,2.313,1.379,2.017.271-.217-.5-1.876-.71-2.328l.011-.006c.248.444.927,1.823,1.2,1.63.354-.255-.575-2.007-.575-2.007s.737,1.471,1,1.029c.149-.249-.314-1.107-.609-1.637h0c-.062-.111-.117-.208-.156-.282a.9.9,0,0,0-.106-.156,8.03,8.03,0,0,0-1.024-1.328,1.026,1.026,0,0,0-1.215-.327A1.479,1.479,0,0,0,1967.271,1280.2Z" transform="translate(-1933.778 -1255.079)" fill="#ffb27d"/>
        <path id="Trazado_125900" data-name="Trazado 125900" d="M1688.44,1084.279c-.051-.471-.361-1.4-.421-1.866-.026-.2-.161-.888-.367-.907-.179-.017-.329.555-.366.839-1.113-1.34-3.037-2.684-.935.1l0,0c-.2-.226-1.6-1.93-1.873-1.54-.2.286.992,1.656,1.314,2.031l-.009.009c-.358-.355-1.385-1.484-1.592-1.221-.271.346,1.1,1.761,1.1,1.761s-1.108-1.2-1.24-.7c-.075.282.6.972,1.03,1.4h0l.227.225a.863.863,0,0,0,.144.119,7.831,7.831,0,0,0,1.345.981,1.018,1.018,0,0,0,1.255-.036A1.5,1.5,0,0,0,1688.44,1084.279Z" transform="translate(-1684.04 -1080.177)" fill="#ffb27d"/>
        <path id="Trazado_125901" data-name="Trazado 125901" d="M1830.886,1523.856s.039,1.074-.693,1.419-2.89.74-2.035,1.384c.491.37,2.673-.01,3.293-.045s1.219.194,1.656-.234c.48-.47-.163-2.641-.163-2.641a2.533,2.533,0,0,1-1,.315A2.036,2.036,0,0,1,1830.886,1523.856Z" transform="translate(-1811.002 -1470.912)" fill="#331832"/>
        <path id="Trazado_125902" data-name="Trazado 125902" d="M1944.355,1478.241s1.593,4.232,1.27,4.99-1.678,2.532-.622,2.426c.606-.061,1.989-1.839,2.429-2.29s1.036-.691,1.085-1.309c.054-.679-2.059-2.846-2.059-2.846s-.2-3.086-.555-2.744C1945.4,1476.96,1944.355,1478.241,1944.355,1478.241Z" transform="translate(-1913.682 -1429.186)" fill="#331832"/>
        <path id="Trazado_125903" data-name="Trazado 125903" d="M1856.682,1077.118s.124-1.853,1.812-1.7,1.088,1.3,1.331,1.663-.688,1.135-1.508,1.105S1856.682,1077.118,1856.682,1077.118Z" transform="translate(-1836.339 -1075.41)" fill="#ef8062"/>
        <path id="Trazado_125904" data-name="Trazado 125904" d="M1804.009,1288.554c.3-3.405,7.3.536,7.3.536s2.448,23.47,1.014,26.723c-.283.642-1.44.605-1.979.532-3.821-.517-4.5-12.235-5.387-17.4A63.078,63.078,0,0,1,1804.009,1288.554Z" transform="translate(-1789.846 -1262.216)" fill="#ef8062"/>
        <path id="Trazado_125905" data-name="Trazado 125905" d="M1816.241,1279c-.22.833-3.45,1.639-7.272.663s-6.8-1.987-6.577-2.82,3.554-1.171,7.376-.2S1816.461,1278.165,1816.241,1279Z" transform="translate(-1788.436 -1252.408)" fill="#331832"/>
        <path id="Trazado_125906" data-name="Trazado 125906" d="M1804.262,1157.244a12.09,12.09,0,0,1-1.784-1.07,7.086,7.086,0,0,1,6.356-3.123c.589.046,3.239.575,3.808.689,7.3,1.464,3.719,16.409,3.685,16.733a24.883,24.883,0,0,0-13.849-2.157A40.2,40.2,0,0,1,1804.262,1157.244Z" transform="translate(-1788.522 -1143.882)" fill="#71a99e"/>
        <path id="Trazado_125907" data-name="Trazado 125907" d="M1816.362,1287.541s-6.41-2.162-11.757-1.957a.479.479,0,0,0-.466.431s-.149,1.916-.116,2.554c.073,1.413,12.752,1.184,12.752,1.184Z" transform="translate(-1789.881 -1260.806)" fill="#ef8062"/>
        <path id="Trazado_125908" data-name="Trazado 125908" d="M1858.217,1117.628a2.83,2.83,0,0,1-2.349.911c-1.438-.033-.735-1.45-.735-1.45a.521.521,0,0,0,.588-.509l.045-.418.022-.207.072-.661.064-.594.263-2.437.607,2.5.1.425.356,1.466a1.352,1.352,0,0,0,.958.971Z" transform="translate(-1834.82 -1107.922)" fill="#ffb27d"/>
        <path id="Trazado_125909" data-name="Trazado 125909" d="M1863.081,1137.093a1.7,1.7,0,0,1-1.109.766l.072-.661C1862.462,1137.128,1863.081,1137.093,1863.081,1137.093Z" transform="translate(-1841.006 -1129.825)" fill="#331832"/>
        <path id="Trazado_125910" data-name="Trazado 125910" d="M1876.186,1118.645a2.646,2.646,0,0,0-.386,1.169,1.107,1.107,0,0,1-1.881.647c-.023-.057.891-1.891.891-1.891l.524-.051Z" transform="translate(-1851.545 -1113.44)" fill="#ef8062"/>
        <ellipse id="Elipse_4990" data-name="Elipse 4990" cx="2.836" cy="2.373" rx="2.836" ry="2.373" transform="translate(18.22 6.204) rotate(-63.811)" fill="#ffb27d"/>
        <path id="Trazado_125911" data-name="Trazado 125911" d="M1852.591,1088.693c.024.106-.93,1.277,1.468,2.739s2.246-2.2.4-3.115c-2.665-1.318-3.873.261-3.905,1.011S1852.591,1088.693,1852.591,1088.693Z" transform="translate(-1830.933 -1086.349)" fill="#ef8062"/>
        <path id="Trazado_125912" data-name="Trazado 125912" d="M1877.256,1113.9a2.641,2.641,0,0,1-.31,2.443s.9-.364,1.02-.595a9.742,9.742,0,0,0,.359-1.16Z" transform="translate(-1854.216 -1109.365)" fill="#ef8062"/>
        <path id="Trazado_125913" data-name="Trazado 125913" d="M1875.684,1117.982a.6.6,0,0,1-.789-.293.62.62,0,0,1,.476-.711.6.6,0,0,1,.789.293A.62.62,0,0,1,1875.684,1117.982Z" transform="translate(-1852.389 -1112.043)" fill="#ffb27d"/>
        <g id="Grupo_876701" data-name="Grupo 876701" transform="translate(21.36 4.544)">
          <path id="Trazado_125914" data-name="Trazado 125914" d="M1865.335,1114.068a.052.052,0,0,1,.036-.092.6.6,0,0,1,.574.424.052.052,0,0,1-.033.066.06.06,0,0,1-.069-.033.944.944,0,0,0-.476-.352A.055.055,0,0,1,1865.335,1114.068Z" transform="translate(-1865.315 -1113.975)" fill="#080435"/>
        </g>
        <path id="Trazado_125915" data-name="Trazado 125915" d="M1864.225,1118.557a.206.206,0,0,1-.244.143.2.2,0,0,1-.068-.273.206.206,0,0,1,.244-.143A.2.2,0,0,1,1864.225,1118.557Z" transform="translate(-1842.697 -1113.224)" fill="#080435"/>
        <g id="Grupo_876702" data-name="Grupo 876702" transform="translate(19.47 3.95)">
          <path id="Trazado_125916" data-name="Trazado 125916" d="M1849.317,1109.076a.054.054,0,0,1-.035-.033.051.051,0,0,1,.032-.067.6.6,0,0,1,.693.182.051.051,0,0,1,0,.074.06.06,0,0,1-.076-.005.954.954,0,0,0-.575-.152A.057.057,0,0,1,1849.317,1109.076Z" transform="translate(-1849.279 -1108.933)" fill="#080435"/>
        </g>
        <path id="Trazado_125917" data-name="Trazado 125917" d="M1850.546,1113.473c0,.125-.075.225-.168.224s-.169-.1-.17-.229.075-.225.168-.224S1850.546,1113.348,1850.546,1113.473Z" transform="translate(-1830.628 -1108.786)" fill="#080435"/>
        <path id="Trazado_125918" data-name="Trazado 125918" d="M1861.809,1109.592a1.476,1.476,0,0,1-1.111,1.349c-.529.046-.888-.484-.8-1.184a1.476,1.476,0,0,1,1.111-1.35C1861.534,1108.362,1861.894,1108.892,1861.809,1109.592Z" transform="translate(-1839.162 -1104.517)" fill="#fff" opacity="0.3"/>
        <ellipse id="Elipse_4991" data-name="Elipse 4991" cx="1.291" cy="0.795" rx="1.291" ry="0.795" transform="translate(18.194 5.362) rotate(-65.118)" fill="#fff" opacity="0.3"/>
        <g id="Grupo_876703" data-name="Grupo 876703" transform="translate(20.591 3.695)">
          <path id="Trazado_125919" data-name="Trazado 125919" d="M1860.844,1108.428a1.86,1.86,0,0,0,.066-.271c.006-.032.011-.064.014-.1.006-.054.01-.107.012-.161a1.218,1.218,0,0,0-.311-.9.756.756,0,0,0-.613-.227.883.883,0,0,0-.143.024,1.485,1.485,0,0,0-.923.88,1.5,1.5,0,0,0-.059.154,1.836,1.836,0,0,0-.087.383,1.732,1.732,0,0,0,0,.367,1.128,1.128,0,0,0,.3.7.767.767,0,0,0,.306.192.768.768,0,0,0,.307.036.933.933,0,0,0,.329-.09,1.535,1.535,0,0,0,.67-.677c.018-.031.034-.063.049-.1A1.906,1.906,0,0,0,1860.844,1108.428Zm-1.85.54a1.219,1.219,0,0,1-.106-.4,1.556,1.556,0,0,1,0-.349,1.837,1.837,0,0,1,.076-.348,1.54,1.54,0,0,1,.059-.156,1.378,1.378,0,0,1,.889-.844.716.716,0,0,1,.377.014.668.668,0,0,1,.271.169.957.957,0,0,1,.236.427,1.27,1.27,0,0,1,.039.215s0,.008,0,.012a.017.017,0,0,1,0,.007.886.886,0,0,1,.006.117,1.518,1.518,0,0,1-.01.215,1.68,1.68,0,0,1-.043.234c-.013.052-.028.1-.045.151s-.039.1-.061.153h0a1.5,1.5,0,0,1-.643.725.861.861,0,0,1-.339.1.686.686,0,0,1-.344-.06.671.671,0,0,1-.2-.14.854.854,0,0,1-.167-.242Z" transform="translate(-1858.79 -1106.766)" fill="#331832"/>
        </g>
        <g id="Grupo_876704" data-name="Grupo 876704" transform="translate(18.496 3.134)">
          <path id="Trazado_125920" data-name="Trazado 125920" d="M1842.738,1103.63c.014-.035.026-.069.038-.1l-.034,0a2.018,2.018,0,0,1-.234.523l0,0c.012-.017.024-.034.035-.051l.005-.008c.014-.02.027-.042.039-.063s.038-.064.056-.1.034-.066.05-.1S1842.725,1103.664,1842.738,1103.63Zm0,0c.014-.035.026-.069.038-.1l-.034,0a2.018,2.018,0,0,1-.234.523l0,0c.012-.017.024-.034.035-.051l.005-.008c.014-.02.027-.042.039-.063s.038-.064.056-.1.034-.066.05-.1S1842.725,1103.664,1842.738,1103.63Zm0,0c.014-.035.026-.069.038-.1l-.034,0a2.018,2.018,0,0,1-.234.523l0,0c.012-.017.024-.034.035-.051l.005-.008c.014-.02.027-.042.039-.063s.038-.064.056-.1.034-.066.05-.1S1842.725,1103.664,1842.738,1103.63Zm0,0c.014-.035.026-.069.038-.1l-.034,0a2.018,2.018,0,0,1-.234.523l0,0c.012-.017.024-.034.035-.051l.005-.008c.014-.02.027-.042.039-.063s.038-.064.056-.1.034-.066.05-.1S1842.725,1103.664,1842.738,1103.63Zm0,0c.014-.035.026-.069.038-.1l-.034,0a2.018,2.018,0,0,1-.234.523l0,0c.012-.017.024-.034.035-.051l.005-.008c.014-.02.027-.042.039-.063s.038-.064.056-.1.034-.066.05-.1S1842.725,1103.664,1842.738,1103.63Zm0,0c.014-.035.026-.069.038-.1l-.034,0a2.018,2.018,0,0,1-.234.523l0,0c.012-.017.024-.034.035-.051l.005-.008c.014-.02.027-.042.039-.063s.038-.064.056-.1.034-.066.05-.1S1842.725,1103.664,1842.738,1103.63Zm0,0c.014-.035.026-.069.038-.1l-.034,0a2.018,2.018,0,0,1-.234.523l0,0c.012-.017.024-.034.035-.051l.005-.008c.014-.02.027-.042.039-.063s.038-.064.056-.1.034-.066.05-.1S1842.725,1103.664,1842.738,1103.63Zm0,0c.014-.035.026-.069.038-.1l-.034,0a2.018,2.018,0,0,1-.234.523l0,0c.012-.017.024-.034.035-.051l.005-.008c.014-.02.027-.042.039-.063s.038-.064.056-.1.034-.066.05-.1S1842.725,1103.664,1842.738,1103.63Zm.1-.107c.015-.052.028-.106.038-.16.006-.029.01-.058.015-.087a1.3,1.3,0,0,0-.252-1.085.65.65,0,0,0-.174-.127.577.577,0,0,0-.161-.052.607.607,0,0,0-.124-.006h0l-.032,0c-.506.045-1.006.677-1.113,1.41a1.3,1.3,0,0,0,.253,1.085.614.614,0,0,0,.19.135.588.588,0,0,0,.264.051h0l.034,0a.923.923,0,0,0,.529-.256h0a1.788,1.788,0,0,0,.41-.574A1.991,1.991,0,0,0,1842.836,1103.523Zm-.342.55a1.425,1.425,0,0,1-.343.369.775.775,0,0,1-.328.148h0l-.012,0a.291.291,0,0,1-.042.006.382.382,0,0,1-.049,0,.5.5,0,0,1-.369-.158,1.2,1.2,0,0,1-.231-.994s0,0,0,0,0,0,0,0v-.011c.1-.7.566-1.3,1.035-1.337a.536.536,0,0,1,.089,0,.48.48,0,0,1,.167.042.528.528,0,0,1,.162.115l.011.012a.894.894,0,0,1,.2.413,1.621,1.621,0,0,1,.014.586c-.005.033-.01.066-.017.1-.011.056-.025.113-.041.168a2.018,2.018,0,0,1-.234.523A.2.2,0,0,0,1842.494,1104.073Zm.244-.443c.014-.035.026-.069.038-.1l-.034,0a2.018,2.018,0,0,1-.234.523l0,0c.012-.017.024-.034.035-.051l.005-.008c.014-.02.027-.042.039-.063s.038-.064.056-.1.034-.066.05-.1S1842.725,1103.664,1842.738,1103.63Zm0,0c.014-.035.026-.069.038-.1l-.034,0a2.018,2.018,0,0,1-.234.523l0,0c.012-.017.024-.034.035-.051l.005-.008c.014-.02.027-.042.039-.063s.038-.064.056-.1.034-.066.05-.1S1842.725,1103.664,1842.738,1103.63Zm0,0c.014-.035.026-.069.038-.1l-.034,0a2.018,2.018,0,0,1-.234.523l0,0c.012-.017.024-.034.035-.051l.005-.008c.014-.02.027-.042.039-.063s.038-.064.056-.1.034-.066.05-.1S1842.725,1103.664,1842.738,1103.63Zm0,0c.014-.035.026-.069.038-.1l-.034,0a2.018,2.018,0,0,1-.234.523l0,0c.012-.017.024-.034.035-.051l.005-.008c.014-.02.027-.042.039-.063s.038-.064.056-.1.034-.066.05-.1S1842.725,1103.664,1842.738,1103.63Zm0,0c.014-.035.026-.069.038-.1l-.034,0a2.018,2.018,0,0,1-.234.523l0,0c.012-.017.024-.034.035-.051l.005-.008c.014-.02.027-.042.039-.063s.038-.064.056-.1.034-.066.05-.1S1842.725,1103.664,1842.738,1103.63Zm0,0c.014-.035.026-.069.038-.1l-.034,0a2.018,2.018,0,0,1-.234.523l0,0c.012-.017.024-.034.035-.051l.005-.008c.014-.02.027-.042.039-.063s.038-.064.056-.1.034-.066.05-.1S1842.725,1103.664,1842.738,1103.63Zm0,0c.014-.035.026-.069.038-.1l-.034,0a2.018,2.018,0,0,1-.234.523l0,0c.012-.017.024-.034.035-.051l.005-.008c.014-.02.027-.042.039-.063s.038-.064.056-.1.034-.066.05-.1S1842.725,1103.664,1842.738,1103.63Z" transform="translate(-1841.01 -1102.006)" fill="#331832"/>
        </g>
        <g id="Grupo_876705" data-name="Grupo 876705" transform="translate(20.118 4.49)">
          <path id="Trazado_125921" data-name="Trazado 125921" d="M1854.823,1113.677a.084.084,0,0,1-.047-.055.08.08,0,0,1,.061-.1.94.94,0,0,1,.726.2.08.08,0,0,1,.017.114.085.085,0,0,1-.117.014.772.772,0,0,0-.585-.171A.085.085,0,0,1,1854.823,1113.677Z" transform="translate(-1854.774 -1113.513)" fill="#331832"/>
        </g>
        <path id="Trazado_125922" data-name="Trazado 125922" d="M1886.929,1091.137a1.788,1.788,0,0,1,2.423-.7c1.445.881.746,1.575.418,2.056a1.6,1.6,0,0,1-1.873.309C1887.175,1092.414,1886.929,1091.137,1886.929,1091.137Z" transform="translate(-1863.022 -1088.431)" fill="#ef8062"/>
        <g id="Grupo_876706" data-name="Grupo 876706" transform="translate(22.313 7.42)">
          <path id="Trazado_125923" data-name="Trazado 125923" d="M1874.4,1139.247a.051.051,0,0,1-.043-.023,2.271,2.271,0,0,0-.931-.741.051.051,0,0,1-.027-.066.048.048,0,0,1,.067-.028,2.328,2.328,0,0,1,.977.78.051.051,0,0,1-.015.071A.054.054,0,0,1,1874.4,1139.247Z" transform="translate(-1873.399 -1138.384)" fill="#ef8062"/>
        </g>
        <g id="Grupo_876707" data-name="Grupo 876707" transform="translate(19.791 6.088)">
          <path id="Trazado_125924" data-name="Trazado 125924" d="M1852.769,1127.458c-.245,0-.626-.05-.766-.341a.028.028,0,0,1,.013-.037.03.03,0,0,1,.036.012c.191.4.923.3.927.3a.032.032,0,0,1,.031.023.028.028,0,0,1-.023.032A1.781,1.781,0,0,1,1852.769,1127.458Z" transform="translate(-1852 -1127.077)" fill="#020202"/>
        </g>
        <path id="Trazado_125925" data-name="Trazado 125925" d="M1848.755,1152.7s-.63,1.385.735,1.45c0,0-.734.679-1.229.388s-.009-.527-.219-.718-.441-.331-.223-.543.014-.6.014-.6A2.005,2.005,0,0,1,1848.755,1152.7Z" transform="translate(-1828.444 -1143.534)" fill="#daebe8"/>
        <path id="Trazado_125926" data-name="Trazado 125926" d="M1848.48,1181.009a.215.215,0,1,0-.219.2A.211.211,0,0,0,1848.48,1181.009Z" transform="translate(-1828.725 -1168.379)" fill="#daebe8"/>
        <path id="Trazado_125927" data-name="Trazado 125927" d="M1839.543,1237.425a.215.215,0,1,0-.219.2A.211.211,0,0,0,1839.543,1237.425Z" transform="translate(-1820.841 -1218.147)" fill="#daebe8"/>
        <path id="Trazado_125928" data-name="Trazado 125928" d="M1840.127,1211.784a.215.215,0,1,0-.219.2A.211.211,0,0,0,1840.127,1211.784Z" transform="translate(-1821.356 -1195.527)" fill="#daebe8"/>
        <path id="Trazado_125929" data-name="Trazado 125929" d="M1718.072,1117.444a38.23,38.23,0,0,0-.969,8.471l5.395-14.057a28.725,28.725,0,0,1-7.242-.872c-2.463-.613-6.856-4.335-7.316-4.6-.5-.288-2.267,1.842-2.267,1.842C1705.277,1108.919,1711.482,1115.868,1718.072,1117.444Z" transform="translate(-1703.108 -1102.711)" fill="#71a99e"/>
        <path id="Trazado_125930" data-name="Trazado 125930" d="M1881.649,1159.532s4.7.107,11.233,13.741a.823.823,0,0,1-.344,1.08l-1.518.809a1.419,1.419,0,0,1-1.865-.494c-1.377-2.127-4.527-6.676-7.106-8.02C1878.645,1164.872,1881.649,1159.532,1881.649,1159.532Z" transform="translate(-1857.285 -1149.62)" fill="#71a99e"/>
        <path id="Trazado_125931" data-name="Trazado 125931" d="M1864.655,1157.787l.968.206a.489.489,0,0,1-.318.637c-.48.144-.575.142-.736.495s-.754.355-.96.226-.582.328-.92.32-.525-.592-.384-.973A6.3,6.3,0,0,0,1864.655,1157.787Z" transform="translate(-1841.258 -1148.08)" fill="#daebe8"/>
        <g id="Grupo_876708" data-name="Grupo 876708" transform="translate(26.079 17.718)">
          <path id="Trazado_125932" data-name="Trazado 125932" d="M1907.956,1228.725a.033.033,0,0,1-.03-.019,8.729,8.729,0,0,0-2.552-2.866.034.034,0,0,1-.008-.047.034.034,0,0,1,.046-.008,8.844,8.844,0,0,1,2.574,2.894.034.034,0,0,1-.016.044Z" transform="translate(-1905.359 -1225.778)" fill="#331832"/>
        </g>
        <g id="Grupo_876709" data-name="Grupo 876709" transform="translate(14.931 13.629)">
          <path id="Trazado_125933" data-name="Trazado 125933" d="M1810.784,1192.215a.02.02,0,0,1-.01,0,.033.033,0,0,1-.022-.042l.333-1.071a.037.037,0,0,1,.042-.022.032.032,0,0,1,.022.041l-.333,1.071A.034.034,0,0,1,1810.784,1192.215Z" transform="translate(-1810.751 -1191.078)" fill="#331832"/>
        </g>
        <path id="Trazado_125934" data-name="Trazado 125934" d="M1837.7,1301.075s4.139,18.37,11.414,24.94a2.268,2.268,0,0,0,2.559.335l1.332-.679a1.9,1.9,0,0,0,.818-2.529c-1.884-3.823-6.354-13.5-7.748-21.924Z" transform="translate(-1819.593 -1274.484)" fill="#ef8062"/>
        <g id="Grupo_876710" data-name="Grupo 876710" transform="translate(17.294 29.054)">
          <path id="Trazado_125935" data-name="Trazado 125935" d="M1836.08,1333.488a77.455,77.455,0,0,1-2.481-7.68,5.543,5.543,0,0,0-2.788-3.739l.038-.086a5.649,5.649,0,0,1,2.84,3.8,77.372,77.372,0,0,0,2.479,7.666Z" transform="translate(-1830.81 -1321.983)" fill="#331832"/>
        </g>
      </g>
      <g id="Grupo_876720" data-name="Grupo 876720" transform="translate(219.995 97.757)">
        <g id="Grupo_876712" data-name="Grupo 876712" transform="translate(10.766 1.309)">
          <path id="Trazado_125936" data-name="Trazado 125936" d="M988.834,419.942a3.4,3.4,0,0,0-3.568-1.512c-2.541.386-4.3,3.177-6.273,1.5s-4.058-1.6-5.272-.078.329,3.395-2.844,2.864-3.267,2.269-.98,4.988,8.937,4.046,11.875,2.708,6.269-3.191,7.408-4.5S990.771,421.093,988.834,419.942Z" transform="translate(-968.321 -418.379)" fill="#331832"/>
        </g>
        <g id="Grupo_876713" data-name="Grupo 876713" transform="translate(17.618 0.799)">
          <path id="Trazado_125937" data-name="Trazado 125937" d="M1039.771,416.441c0-.022-.477-2.183-2.441-2.247a6.668,6.668,0,0,0-3.552,1.245c-.982.58-1.83,1.081-2.528.658-1.741-1.054-3.008-1.464-4.714-.61l-.062-.123c1.937-.969,3.4-.262,4.847.615.628.38,1.4-.079,2.387-.659a6.723,6.723,0,0,1,3.626-1.264c2.073.068,2.566,2.334,2.571,2.357Z" transform="translate(-1026.474 -414.054)" fill="#331832"/>
        </g>
        <g id="Grupo_876714" data-name="Grupo 876714" transform="translate(19.35 3.226)">
          <path id="Trazado_125938" data-name="Trazado 125938" d="M1043.848,436.733a4.39,4.39,0,0,1-2.67-1.2.024.024,0,0,1,0-.033.027.027,0,0,1,.032,0c1.633,1.363,3.168,1.567,4.11.549a3.338,3.338,0,0,1,3.6-1.057,1.794,1.794,0,0,0,1.952-.335.023.023,0,0,1,.032,0,.022.022,0,0,1,0,.032,1.806,1.806,0,0,1-1.245.5,2,2,0,0,1-.757-.155,3.3,3.3,0,0,0-3.549,1.046A1.976,1.976,0,0,1,1043.848,436.733Z" transform="translate(-1041.169 -434.646)" fill="#331832"/>
        </g>
        <g id="Grupo_876715" data-name="Grupo 876715" transform="translate(14.662 3.162)">
          <path id="Trazado_125939" data-name="Trazado 125939" d="M1003.957,439.435a18.153,18.153,0,0,1-2.569-4.884l2.455-.443c1.347,3.48,5.248,6.12,8.625,5.76l2.744,3.913C1013.267,444.51,1007.144,443.411,1003.957,439.435Z" transform="translate(-1001.388 -434.108)" fill="#ffb27d"/>
        </g>
        <path id="Trazado_125940" data-name="Trazado 125940" d="M996.862,411.213c.095-.4.1-1.237.192-1.636.038-.173.125-.767-.042-.844-.145-.067-.438.35-.552.568-.541-1.418-1.761-3.083-.812-.2h0c-.1-.242-.776-2.041-1.12-1.808-.252.171.348,1.637.508,2.037l-.01,0c-.2-.4-.728-1.616-.978-1.465-.328.2.406,1.754.406,1.754s-.578-1.3-.835-.939c-.145.205.221.967.456,1.438h0c.049.1.093.185.124.251a.768.768,0,0,0,.086.14,6.965,6.965,0,0,0,.841,1.2.932.932,0,0,0,1.063.348A1.266,1.266,0,0,0,996.862,411.213Z" transform="translate(-979.841 -407.272)" fill="#ffb27d"/>
        <path id="Trazado_125941" data-name="Trazado 125941" d="M1003.55,740.061a9.877,9.877,0,0,1-.248,2.737c-.3.6-1.518,1.951-.628,1.963.511.007,1.749-1.343,2.138-1.677s.943-.473.967-.988c.011-.244-.4-.588-.561-1.016a7.33,7.33,0,0,1-.355-1.566s-.644-.722-.953-.47A1.219,1.219,0,0,0,1003.55,740.061Z" transform="translate(-987.578 -699.904)" fill="#331832"/>
        <path id="Trazado_125942" data-name="Trazado 125942" d="M1068.778,579.958c-.233.783-3.219.583-6.67-.446s-6.058-2.5-5.825-3.28,3.22-.583,6.67.446S1069.011,579.176,1068.778,579.958Z" transform="translate(-1035.14 -555.902)" fill="#331832"/>
        <path id="Trazado_125943" data-name="Trazado 125943" d="M881.613,654.331a9.573,9.573,0,0,1-2.622.622c-.647-.1-2.251-.829-2.009.02.139.487,1.75,1.238,2.173,1.5s.71.746,1.2.608c.231-.066.433-.566.787-.85a7.3,7.3,0,0,1,1.358-.827s.489-.837.167-1.051A1.164,1.164,0,0,0,881.613,654.331Z" transform="translate(-876.957 -625.114)" fill="#331832"/>
        <path id="Trazado_125944" data-name="Trazado 125944" d="M1066.8,486.557a4.157,4.157,0,0,0-4.052-2.716c-1.552-.042-3.016-.1-3.944,2.555a52.418,52.418,0,0,0-2.415,8.743,16.445,16.445,0,0,1,12.495,3.726c.725-2.462.681-7.981.187-11.757C1068.919,485.928,1067.07,487.4,1066.8,486.557Z" transform="translate(-1035.249 -474.808)" fill="#ef8062"/>
        <path id="Trazado_125945" data-name="Trazado 125945" d="M1083.694,482.7l-.75,3.048s-9.522,1.187-10.3-.217a7.7,7.7,0,0,1-.54-4.795,40.065,40.065,0,0,0,4.155.08,6.413,6.413,0,0,1,3.1.236A20.143,20.143,0,0,1,1083.694,482.7Z" transform="translate(-1048.966 -472.081)" fill="#ef8062"/>
        <path id="Trazado_125946" data-name="Trazado 125946" d="M1148.662,496.439c.24.35-.1,1.581-.824,2.435-.759.891-1.516,1.553-2.007,1.239-.692-.443.236-2.131.979-2.892C1147.781,496.228,1148.491,496.189,1148.662,496.439Z" transform="translate(-1113.934 -485.818)" fill="#331832"/>
        <path id="Trazado_125947" data-name="Trazado 125947" d="M1107.335,452.835c-.431-.211-.027-1.113-.027-1.113.374-.034.619-.081.682-.365l.077-.349.038-.173.122-.552.109-.5.449-2.033.26,2.169.044.369s.053,1.345.871,1.546C1109.99,451.824,1108.273,453.294,1107.335,452.835Z" transform="translate(-1080.014 -442.985)" fill="#ffb27d"/>
        <path id="Trazado_125948" data-name="Trazado 125948" d="M1116.339,469.174a1.408,1.408,0,0,1-.985.543l.122-.552C1115.827,469.145,1116.339,469.174,1116.339,469.174Z" transform="translate(-1087.263 -461.866)" fill="#f09962"/>
        <path id="Trazado_125949" data-name="Trazado 125949" d="M1128.8,450.685a2.3,2.3,0,0,0-.186,1.029c-.016,1.062-1.266,1.134-1.471.769-.025-.045.519-1.7.519-1.7l.424-.1Z" transform="translate(-1097.66 -445.566)" fill="#331832"/>
        <ellipse id="Elipse_4992" data-name="Elipse 4992" cx="2.408" cy="1.967" rx="2.408" ry="1.967" transform="translate(26.013 6.807) rotate(-73.397)" fill="#ffb27d"/>
        <g id="Grupo_876716" data-name="Grupo 876716" transform="translate(28.376 4.942)">
          <path id="Trazado_125950" data-name="Trazado 125950" d="M1117.794,449.3a.044.044,0,0,1,.019-.082.487.487,0,0,1,.518.288.044.044,0,0,1-.019.06.05.05,0,0,1-.06-.02.771.771,0,0,0-.43-.24A.043.043,0,0,1,1117.794,449.3Z" transform="translate(-1117.772 -449.215)" fill="#080435"/>
        </g>
        <path id="Trazado_125951" data-name="Trazado 125951" d="M1118.54,453.251c-.027.1-.11.169-.185.15a.172.172,0,0,1-.087-.221c.027-.1.11-.169.184-.15A.172.172,0,0,1,1118.54,453.251Z" transform="translate(-1089.827 -447.635)" fill="#080435"/>
        <g id="Grupo_876717" data-name="Grupo 876717" transform="translate(26.763 4.643)">
          <path id="Trazado_125952" data-name="Trazado 125952" d="M1104.125,446.823a.045.045,0,0,1-.032-.023.044.044,0,0,1,.019-.06.487.487,0,0,1,.589.071.045.045,0,0,1,0,.063.049.049,0,0,1-.063,0,.771.771,0,0,0-.489-.06A.045.045,0,0,1,1104.125,446.823Z" transform="translate(-1104.088 -446.672)" fill="#080435"/>
        </g>
        <path id="Trazado_125953" data-name="Trazado 125953" d="M1107.025,450.235c.014.105-.036.2-.113.208s-.151-.067-.165-.172.036-.2.113-.208S1107.01,450.13,1107.025,450.235Z" transform="translate(-1079.668 -445.02)" fill="#080435"/>
        <path id="Trazado_125954" data-name="Trazado 125954" d="M1107.81,459.544a.7.7,0,0,0,.429.556.6.6,0,0,0,.687-.308A2.537,2.537,0,0,1,1107.81,459.544Z" transform="translate(-1080.608 -453.385)" fill="#fff"/>
        <path id="Trazado_125955" data-name="Trazado 125955" d="M1007.474,588.773s-7.44,4.515-8.877,7.8-1.554,9.821-.114,10.679,2.876.912,3.67-1.957.87-6.747,3.516-7.829,10.253-4.847,9.316-6.5S1008.618,588.043,1007.474,588.773Z" transform="translate(-983.26 -567.199)" fill="#73b3ce"/>
        <path id="Trazado_125956" data-name="Trazado 125956" d="M929.9,581.572s-8.28,1.285-10.545,2.607-6.722,4.379-6.636,5.875a2.34,2.34,0,0,0,2.89,2.023c1.315-.256,6.591-3.6,8.47-4.054a78.476,78.476,0,0,1,10.674-1.608l1.095-3.779A16.265,16.265,0,0,0,929.9,581.572Z" transform="translate(-908.5 -561.032)" fill="#73b3ce"/>
        <g id="Grupo_876718" data-name="Grupo 876718" transform="translate(17.22 23.417)">
          <path id="Trazado_125957" data-name="Trazado 125957" d="M1023.16,609.473l-.066-.064c.858-.911,4.111-3.383,4.144-3.408l.055.072C1027.261,606.1,1024.013,608.566,1023.16,609.473Z" transform="translate(-1023.094 -606.001)" fill="#331832"/>
        </g>
        <path id="Trazado_125958" data-name="Trazado 125958" d="M1100.975,427.014a1.1,1.1,0,0,1-1.278.761,2.156,2.156,0,0,0-1.767.882l.537-2.764,2.529-.2,1.409.625.191,2.4-.216,1.086-.23-.917S1101.657,427.209,1100.975,427.014Z" transform="translate(-1071.891 -423.522)" fill="#331832"/>
        <path id="Trazado_125959" data-name="Trazado 125959" d="M1129.48,452.053a.486.486,0,0,1-.68-.153.534.534,0,0,1,.311-.654.486.486,0,0,1,.681.153A.534.534,0,0,1,1129.48,452.053Z" transform="translate(-1099.094 -446.001)" fill="#ffb27d"/>
        <g id="Grupo_876719" data-name="Grupo 876719" transform="translate(32.126 10.833)">
          <path id="Trazado_125960" data-name="Trazado 125960" d="M1155.672,508.641a18.15,18.15,0,0,1-1.4,5.338l-2.111-1.33a10.431,10.431,0,0,0-2.374-10.376.711.711,0,0,1-.11-.817c.487-1.316,2-2.819,2.63-2.036C1153.979,501.489,1155.893,505.238,1155.672,508.641Z" transform="translate(-1149.601 -499.204)" fill="#ffb27d"/>
        </g>
        <path id="Trazado_125961" data-name="Trazado 125961" d="M1162.974,607.248c-.337.228-.912.842-1.245,1.077-.145.1-.61.482-.538.651.062.148.559.037.791-.047-.558,1.411-.781,3.464.463.7l0,0c-.089.246-.8,2.03-.393,2.09.3.044.848-1.443,1-1.846l.011,0c-.122.424-.553,1.684-.267,1.741.376.075.884-1.568.884-1.568s-.453,1.352-.017,1.257c.245-.054.489-.863.634-1.369h0c.031-.106.057-.2.078-.269a.79.79,0,0,0,.031-.161,6.971,6.971,0,0,0,.187-1.451.932.932,0,0,0-.549-.974A1.266,1.266,0,0,0,1162.974,607.248Z" transform="translate(-1127.692 -583.482)" fill="#ffb27d"/>
      </g>
      <g id="Grupo_876729" data-name="Grupo 876729" transform="translate(261.968 139.821)">
        <g id="Grupo_876724" data-name="Grupo 876724">
          <g id="Grupo_876723" data-name="Grupo 876723">
            <path id="Trazado_125962" data-name="Trazado 125962" d="M1269.425,764.269c-19.168-.72-35.5,16.687-36.234,33.183-.459,10.368,5.355,17.908,14.5,22.258a21.3,21.3,0,0,1,11.879,18.791l16.725.628c.5-11.2,11.928-18.47,13.39-19.354,6.985-4.092,11.688-11.572,13.128-24.334C1304.66,779.027,1288.593,764.989,1269.425,764.269Z" transform="translate(-1233.165 -764.248)" fill="#fff" opacity="0.6"/>
            <path id="Trazado_125963" data-name="Trazado 125963" d="M1447.821,1338.831s2.353,3.568-.216,6.847c-.718.917-2.63,1.4-5.044,1.59-6.224.482-15.776-1.045-16.735-2.407-1.33-1.892-.529-4.01,1.005-4.464,0,0-2.058-1.749-1.4-3.8s1.781-2.422,1.781-2.422-1.575-.98-1.6-3.743a3.491,3.491,0,0,1,2.1-3.162c2.452-1.333,7.471-1.907,17.134-.193,0,0,4.361.814,3.086,5.677C1447.926,1332.748,1450.881,1336.184,1447.821,1338.831Z" transform="translate(-1402.53 -1259.813)" fill="#c4c66d"/>
            <path id="Trazado_125964" data-name="Trazado 125964" d="M1346.309,835.729s-7.951,1.9-12.763,8.09-11.151,1.552-9.737-5.013,9.762-12.042,14.591-10.876S1350.671,831.522,1346.309,835.729Z" transform="translate(-1312.951 -820.287)" fill="#fff" opacity="0.9"/>
            <g id="Grupo_876721" data-name="Grupo 876721" transform="translate(31.26 77.394)">
              <path id="Trazado_125965" data-name="Trazado 125965" d="M1512.515,1422.987a.3.3,0,0,1-.143-.021,20.613,20.613,0,0,0-4.091-1.022,22.413,22.413,0,0,0-9.438.517.3.3,0,0,1-.168-.586,23.034,23.034,0,0,1,9.717-.531,20.729,20.729,0,0,1,4.207,1.057.3.3,0,0,1-.084.586Z" transform="translate(-1498.455 -1421.059)" fill="#acab58"/>
            </g>
            <g id="Grupo_876722" data-name="Grupo 876722" transform="translate(30.319 71.324)">
              <path id="Trazado_125966" data-name="Trazado 125966" d="M1505.576,1371.462a.3.3,0,0,1-.114-.01,39.284,39.284,0,0,0-5.121-1.01c-2.657-.347-6.456-.55-9.47.452a.3.3,0,1,1-.192-.578c3.126-1.039,7.028-.833,9.751-.477a39.841,39.841,0,0,1,5.2,1.028.3.3,0,0,1-.054.6Z" transform="translate(-1490.471 -1369.548)" fill="#acab58"/>
            </g>
            <path id="Trazado_125967" data-name="Trazado 125967" d="M1442.561,1356.669c-6.224.482-15.776-1.045-16.735-2.408-1.33-1.893-.529-4.01,1.005-4.464,0,0-2.058-1.749-1.4-3.8s1.781-2.422,1.781-2.422-1.575-.98-1.6-3.743a3.49,3.49,0,0,1,2.1-3.162h0s-2.091,5.349,2.85,7a.636.636,0,0,1,.166,1.07c-.618.66.123,4.283,1.688,5.024s-.371,3.582,1.606,5.024C1435.539,1355.886,1440.4,1356.463,1442.561,1356.669Z" transform="translate(-1402.53 -1269.214)" fill="#acab58"/>
          </g>
        </g>
        <g id="Grupo_876728" data-name="Grupo 876728" transform="translate(21.386 13.065)">
          <path id="Trazado_125968" data-name="Trazado 125968" d="M1416.177,910.188c-3.421-4.734-1.729-14.921,12.1-20.27,12.194-4.716,16.12-10.548,16.12-10.548s4.6,14.478-2,25.656C1434.353,918.67,1420.6,916.313,1416.177,910.188Z" transform="translate(-1414.66 -878.87)" fill="#c4c66d"/>
          <g id="Grupo_876725" data-name="Grupo 876725" transform="translate(1.84)">
            <path id="Trazado_125969" data-name="Trazado 125969" d="M1430.884,916.758a.5.5,0,0,1-.489-.4c-.023-.12-2.19-12.085,12.7-21.245a32.738,32.738,0,0,0,14.591-19.581.5.5,0,0,1,.98.189,33.762,33.762,0,0,1-15.049,20.24c-14.3,8.8-12.261,20.09-12.239,20.2a.5.5,0,0,1-.392.586A.46.46,0,0,1,1430.884,916.758Z" transform="translate(-1430.272 -875.125)" fill="#acab58"/>
          </g>
          <g id="Grupo_876726" data-name="Grupo 876726" transform="translate(7.275 15.968)">
            <path id="Trazado_125970" data-name="Trazado 125970" d="M1477.579,1020.184a.5.5,0,0,1-.477-.355,13.719,13.719,0,0,1,.019-8.892.5.5,0,0,1,.916.4,12.991,12.991,0,0,0,.019,8.209.5.5,0,0,1-.333.622A.523.523,0,0,1,1477.579,1020.184Z" transform="translate(-1476.401 -1010.637)" fill="#acab58"/>
          </g>
          <g id="Grupo_876727" data-name="Grupo 876727" transform="translate(15.532 17.844)">
            <path id="Trazado_125971" data-name="Trazado 125971" d="M1549.464,1028.985c-1.428,0-2.416-.065-2.526-.073a.5.5,0,0,1-.463-.532.489.489,0,0,1,.532-.463c.073,0,7.558.5,11.766-1.313a.5.5,0,0,1,.394.918C1556.286,1028.759,1552.117,1028.985,1549.464,1028.985Z" transform="translate(-1546.474 -1026.562)" fill="#acab58"/>
          </g>
        </g>
      </g>
      <g id="Grupo_876748" data-name="Grupo 876748" transform="translate(250.392 175.37)">
        <g id="Grupo_876745" data-name="Grupo 876745" transform="translate(0)">
          <g id="Grupo_876730" data-name="Grupo 876730" transform="translate(17.884 8.566)">
            <path id="Trazado_125972" data-name="Trazado 125972" d="M1292.383,1152.461a3.412,3.412,0,0,1-1.373-.487c-1.394-.857-2.33-2.667-3.032-5.87a15.619,15.619,0,0,0-1.278-3.27l3.143-1.686a19.09,19.09,0,0,1,1.619,4.192c.244,1.113.374-5.91.975-6.574.369-.407,1.854.263,1.854.263a35.49,35.49,0,0,1,1.178,5.571,27.342,27.342,0,0,1,.261,4.146,6.816,6.816,0,0,1-.271,1.823,2.5,2.5,0,0,1-1.745,1.8A3.552,3.552,0,0,1,1292.383,1152.461Z" transform="translate(-1286.699 -1138.634)" fill="#ffb27d"/>
          </g>
          <g id="Grupo_876731" data-name="Grupo 876731" transform="translate(23.348 21.36)">
            <path id="Trazado_125973" data-name="Trazado 125973" d="M1333.756,1247.9c-.386,0-.689-.149-.69-.341a.221.221,0,0,1,.071-.156.929.929,0,0,1,.622-.188h.005c.386,0,.689.149.69.341s-.3.344-.693.344Zm0-.592a.843.843,0,0,0-.556.16.129.129,0,0,0-.044.09c0,.117.245.247.6.247h.006c.354,0,.6-.131.6-.25s-.245-.247-.6-.247Z" transform="translate(-1333.066 -1247.21)" fill="#e9845c"/>
          </g>
          <g id="Grupo_876732" data-name="Grupo 876732" transform="translate(22.201 15.287)">
            <path id="Trazado_125974" data-name="Trazado 125974" d="M1323.418,1199.261a.048.048,0,0,1-.046-.042,7.333,7.333,0,0,1,.487-3.516.042.042,0,0,1,.062-.022.046.046,0,0,1,.022.061,7.232,7.232,0,0,0-.479,3.466.047.047,0,0,1-.041.051Z" transform="translate(-1323.332 -1195.675)" fill="#e9845c"/>
          </g>
          <g id="Grupo_876736" data-name="Grupo 876736" transform="translate(23.398 7.21)">
            <path id="Trazado_125975" data-name="Trazado 125975" d="M1335.908,1131.177s1.91.162,2.657-.583,1.139-2.262.578-1.9a6.956,6.956,0,0,0-1.15,1.026s1.192-1.475.726-1.6-1.49,1.163-1.49,1.163,1.279-1.868.8-1.848-1.441,1.446-1.441,1.446,1.12-1.785.564-1.749-.916,1.482-1.382,1.352-2.274-.574-2.274.732Z" transform="translate(-1333.495 -1127.13)" fill="#ffb27d"/>
            <g id="Grupo_876733" data-name="Grupo 876733" transform="translate(3.852 2.553)">
              <path id="Trazado_125976" data-name="Trazado 125976" d="M1366.227,1149.365a.039.039,0,0,1,0-.077c.306-.019.573-.467.575-.471a.038.038,0,0,1,.054-.014.039.039,0,0,1,.014.052c-.012.021-.29.488-.637.51Z" transform="translate(-1366.188 -1148.797)" fill="#e9845c"/>
            </g>
            <g id="Grupo_876734" data-name="Grupo 876734" transform="translate(2.971 2.113)">
              <path id="Trazado_125977" data-name="Trazado 125977" d="M1358.749,1145.723a.038.038,0,0,1-.037-.029.037.037,0,0,1,.027-.047,1.317,1.317,0,0,0,.7-.568.039.039,0,1,1,.068.039,1.366,1.366,0,0,1-.747.6Z" transform="translate(-1358.71 -1145.059)" fill="#e9845c"/>
            </g>
            <g id="Grupo_876735" data-name="Grupo 876735" transform="translate(2.374 1.71)">
              <path id="Trazado_125978" data-name="Trazado 125978" d="M1353.69,1142.271h-.007a.038.038,0,0,1-.038-.04.038.038,0,0,1,.039-.037h.007c.323,0,.636-.526.638-.532a.037.037,0,0,1,.053-.014.039.039,0,0,1,.015.052C1354.383,1141.724,1354.058,1142.271,1353.69,1142.271Z" transform="translate(-1353.645 -1141.642)" fill="#e9845c"/>
            </g>
          </g>
          <path id="Trazado_125979" data-name="Trazado 125979" d="M1253.188,1527.855s.055,1.065.784,1.346,2.825.5,2.063,1.2c-.437.405-2.555.208-3.151.224s-1.148.291-1.6-.1c-.5-.426-.071-2.623-.071-2.623a2.382,2.382,0,0,0,.984.229A1.9,1.9,0,0,0,1253.188,1527.855Z" transform="translate(-1237.358 -1473.426)" fill="#331832"/>
          <path id="Trazado_125980" data-name="Trazado 125980" d="M1249.2,1253.553a81.123,81.123,0,0,1-1.012,14.07c-.928,6.689-2.055,13.435-2.61,16.669a2.511,2.511,0,0,1-2.289,2.1l-.616.041a2.108,2.108,0,0,1-2.218-2.224l.97-21.806.19-7.174Z" transform="translate(-1228.019 -1231.446)" fill="#71a99e"/>
          <path id="Trazado_125981" data-name="Trazado 125981" d="M1195.24,1529.418s.055,1.065.784,1.346,2.825.5,2.063,1.2c-.437.405-2.555.208-3.151.224s-1.149.291-1.6-.1c-.5-.426-.071-2.623-.071-2.623a2.38,2.38,0,0,0,.983.229A1.9,1.9,0,0,0,1195.24,1529.418Z" transform="translate(-1186.239 -1474.805)" fill="#331832"/>
          <path id="Trazado_125982" data-name="Trazado 125982" d="M1191.255,1255.115a81.136,81.136,0,0,1-1.012,14.07c-.928,6.689-2.055,13.435-2.61,16.669a2.511,2.511,0,0,1-2.289,2.1l-.616.041a2.107,2.107,0,0,1-2.218-2.224l.97-21.806.19-7.174Z" transform="translate(-1176.9 -1232.824)" fill="#71a99e"/>
          <path id="Trazado_125983" data-name="Trazado 125983" d="M1186.841,1288.767c.031.58,3.545.715,7.88.463s7.786-.946,7.755-1.526-3.531-.826-7.866-.574S1186.81,1288.187,1186.841,1288.767Z" transform="translate(-1180.723 -1260.98)" fill="#331832"/>
          <path id="Trazado_125984" data-name="Trazado 125984" d="M1185.064,1137.784s.685-3.061,6.345-3.245c8.162-.265,7.608,7.256,8.671,18.635a51.208,51.208,0,0,0-15.643.92S1183.417,1142.478,1185.064,1137.784Z" transform="translate(-1178.327 -1126.45)" fill="#73b3ce"/>
          <path id="Trazado_125985" data-name="Trazado 125985" d="M1174.265,1137.22l3.752,1.946s8.115.517,10.255.1a3.443,3.443,0,0,0,2.686-2.006,11.848,11.848,0,0,0-6.26-2.834c-.367-.05-.747-.084-1.141-.1a11.178,11.178,0,0,0-1.965.092A14.842,14.842,0,0,0,1174.265,1137.22Z" transform="translate(-1169.629 -1126.266)" fill="#73b3ce"/>
          <path id="Trazado_125986" data-name="Trazado 125986" d="M1231.417,1097.6l.39-1.391.114-.4.668-2.38.159,2.346.1,1.408.03.446c.021.3.207.361.439.618.094.1.694.735.041,1.045a3.073,3.073,0,0,1-2.973-.829S1231.291,1098.049,1231.417,1097.6Z" transform="translate(-1219.132 -1090.185)" fill="#ffb27d"/>
          <path id="Trazado_125987" data-name="Trazado 125987" d="M1205.58,1294.158s-4.738-1.256-14.423.9l-.037,1.4,14.286.12Z" transform="translate(-1184.498 -1266.946)" fill="#71a99e"/>
          <ellipse id="Elipse_4993" data-name="Elipse 4993" cx="0.984" cy="1.972" rx="0.984" ry="1.972" transform="matrix(0.566, -0.825, 0.825, 0.566, 4.008, 11.848)" fill="#331832"/>
          <g id="Grupo_876737" data-name="Grupo 876737" transform="translate(0.54 11.419)">
            <path id="Trazado_125988" data-name="Trazado 125988" d="M1143.033,1180.491c.239-3.756.833-9.354,2.506-13.645a12.84,12.84,0,0,1,.858-1.913c.248-.439-.243-1.376-.989-1.809a2.126,2.126,0,0,0-1.935-.093,11.331,11.331,0,0,0-1.018,2.16,45.118,45.118,0,0,0-2.95,15.251Z" transform="translate(-1139.505 -1162.845)" fill="#ffb27d"/>
          </g>
          <g id="Grupo_876743" data-name="Grupo 876743" transform="translate(9.265)">
            <path id="Trazado_125989" data-name="Trazado 125989" d="M1254.757,1082.2a3.1,3.1,0,0,1,.259,1.262c0,.732-1.07-.847-1.07-.847Z" transform="translate(-1249.186 -1080.286)" fill="#5c305d"/>
            <ellipse id="Elipse_4994" data-name="Elipse 4994" cx="2.099" cy="2.531" rx="2.099" ry="2.531" transform="translate(1.163 2.345) rotate(-19.09)" fill="#ffb27d"/>
            <path id="Trazado_125990" data-name="Trazado 125990" d="M1215.345,1069.975l.974-.308a.739.739,0,0,0,.47-.436c.138-.361.35-.575,1.285-.731a1.992,1.992,0,0,0,1.817-1.7.717.717,0,0,0-1.217-.536c-.529.421-.426-.365-1.01-.327-1.091.072-1.121.931-2,1.083-1.146.2-3.008,1.484-1.629,3.29Z" transform="translate(-1213.552 -1065.938)" fill="#331832"/>
            <g id="Grupo_876738" data-name="Grupo 876738" transform="translate(3.6 3.85)">
              <path id="Trazado_125991" data-name="Trazado 125991" d="M1244.567,1098.689a.043.043,0,0,0,.013-.036.043.043,0,0,0-.047-.037.46.46,0,0,0-.424.372.043.043,0,0,0,.03.052.047.047,0,0,0,.052-.03.729.729,0,0,1,.352-.309A.042.042,0,0,0,1244.567,1098.689Z" transform="translate(-1244.107 -1098.616)" fill="#080435"/>
            </g>
            <path id="Trazado_125992" data-name="Trazado 125992" d="M1247.212,1102.329c.046.091.136.137.2.1a.193.193,0,1,0-.2-.1Z" transform="translate(-1243.223 -1097.834)" fill="#080435"/>
            <g id="Grupo_876739" data-name="Grupo 876739" transform="translate(5.147 3.368)">
              <path id="Trazado_125993" data-name="Trazado 125993" d="M1257.662,1094.635a.032.032,0,0,0,.018-.025.052.052,0,0,0-.028-.053.3.3,0,0,0-.415.135.05.05,0,0,0,.011.058.032.032,0,0,0,.047,0,.445.445,0,0,1,.344-.113A.029.029,0,0,0,1257.662,1094.635Z" transform="translate(-1257.232 -1094.52)" fill="#080435"/>
            </g>
            <path id="Trazado_125994" data-name="Trazado 125994" d="M1258.391,1098.334c.008.1.074.179.147.173s.126-.093.119-.194-.074-.179-.147-.173S1258.383,1098.233,1258.391,1098.334Z" transform="translate(-1253.107 -1094.346)" fill="#080435"/>
            <path id="Trazado_125995" data-name="Trazado 125995" d="M1217.7,1097.457s.992,1.342,1.989,1.25c0,0-1.02-.968.5-2A5.4,5.4,0,0,0,1217.7,1097.457Z" transform="translate(-1217.21 -1093.083)" fill="#5c305d"/>
            <path id="Trazado_125996" data-name="Trazado 125996" d="M1228.5,1101.647a.411.411,0,1,0-.281-.544A.434.434,0,0,0,1228.5,1101.647Z" transform="translate(-1226.466 -1096.737)" fill="#ffb27d"/>
            <path id="Trazado_125997" data-name="Trazado 125997" d="M1234.3,1097.365s.123,1.272.424,1.455a4.587,4.587,0,0,0,2.661-.588l.005,0a1.708,1.708,0,0,1-.945,1.972,2.406,2.406,0,0,1-.81.166h0a1.66,1.66,0,0,1-1.473-.561,4.832,4.832,0,0,1-.1-1.13,1.1,1.1,0,0,0-.423-.8A1.618,1.618,0,0,1,1234.3,1097.365Z" transform="translate(-1231.276 -1093.662)" fill="#5c305d"/>
            <g id="Grupo_876740" data-name="Grupo 876740" transform="translate(4.584 0.04)">
              <path id="Trazado_125998" data-name="Trazado 125998" d="M1252.757,1066.5a.313.313,0,0,1-.3-.21l.055-.017a.25.25,0,0,0,.245.169.411.411,0,0,0,.1-.011l.012.055A.453.453,0,0,1,1252.757,1066.5Z" transform="translate(-1252.457 -1066.276)" fill="#331832"/>
            </g>
            <g id="Grupo_876741" data-name="Grupo 876741" transform="translate(4.774 0.442)">
              <path id="Trazado_125999" data-name="Trazado 125999" d="M1254.084,1071.41l-.014-.025c.013-.007,1.187-.633,1.106-1.289a.431.431,0,0,0-.168-.35c-.147-.08-.362.019-.55.105-.03.014-.058.028-.086.039l-.011-.025.084-.039c.2-.091.415-.192.577-.1a.459.459,0,0,1,.183.372C1255.288,1070.768,1254.133,1071.384,1254.084,1071.41Z" transform="translate(-1254.07 -1069.688)" fill="#fff"/>
            </g>
            <g id="Grupo_876742" data-name="Grupo 876742" transform="translate(1.674 0.486)">
              <path id="Trazado_126000" data-name="Trazado 126000" d="M1227.763,1070.994v-.028a2.075,2.075,0,0,0,1.706-.9l.025.014A2.1,2.1,0,0,1,1227.763,1070.994Z" transform="translate(-1227.762 -1070.065)" fill="#fff"/>
            </g>
          </g>
          <g id="Grupo_876744" data-name="Grupo 876744" transform="translate(2.418 18.943)">
            <path id="Trazado_126001" data-name="Trazado 126001" d="M1155.929,1228.187a.336.336,0,0,1-.052,0,.432.432,0,0,1-.287-.178.872.872,0,0,1-.136-.633h0a.933.933,0,0,1,.216-.493.456.456,0,0,1,.411-.174c.289.039.479.4.424.813C1156.451,1227.9,1156.2,1228.187,1155.929,1228.187Zm.1-1.346a.353.353,0,0,0-.254.131.785.785,0,0,0-.18.419h0a.732.732,0,0,0,.11.529.3.3,0,0,0,.195.124h.032c.2,0,.394-.24.437-.549.045-.332-.092-.626-.3-.655Z" transform="translate(-1155.444 -1226.699)" fill="#ec865c"/>
          </g>
          <path id="Trazado_126002" data-name="Trazado 126002" d="M1135.522,1301.538a15.9,15.9,0,0,1,3.129.309c.238.5.481,1.606.709,2.115.1.221.38.986.173,1.113-.18.11-.693-.393-.908-.661-.3,1.566-1.158,3.727-1.052.389h-.005c-.071.333-.422,2.42-.907,2.355-.369-.05-.1-2.014.01-2.563l-.015,0c-.16.548-.43,2.191-.849,2.094-.357-.083-.027-2.363-.027-2.363s-.452,1.858-.755,1.5c-.278-.326.1-2.078.207-2.609C1135.347,1302.663,1135.522,1301.538,1135.522,1301.538Z" transform="translate(-1134.923 -1273.777)" fill="#ffb27d"/>
        </g>
        <g id="Grupo_876746" data-name="Grupo 876746" transform="translate(18.836 10.745)">
          <path id="Trazado_126003" data-name="Trazado 126003" d="M1295.857,1159.079a7.413,7.413,0,0,0-1.081-1.891l.073-.058a7.544,7.544,0,0,1,1.1,1.921Z" transform="translate(-1294.776 -1157.13)" fill="#331832"/>
        </g>
        <g id="Grupo_876747" data-name="Grupo 876747" transform="translate(13.042 30.172)">
          <path id="Trazado_126004" data-name="Trazado 126004" d="M1245.695,1330.069l-.093-.011c.005-.04.531-3.978.928-5.392a6.167,6.167,0,0,1,2.262-2.672l.051.077a6.069,6.069,0,0,0-2.224,2.619C1246.225,1326.1,1245.7,1330.03,1245.695,1330.069Z" transform="translate(-1245.602 -1321.995)" fill="#331832"/>
        </g>
      </g>
      <path id="Trazado_126005" data-name="Trazado 126005" d="M1249.84,1109.908a2.96,2.96,0,0,0,1.359-.247.608.608,0,0,1-.458.618A.73.73,0,0,1,1249.84,1109.908Z" transform="translate(-985.907 -929.139)" fill="#fff"/>
      <g id="Grupo_876749" data-name="Grupo 876749" transform="translate(270.125 72.946)">
        <circle id="Elipse_4995" data-name="Elipse 4995" cx="22.793" cy="22.793" r="22.793" transform="translate(0 32.234) rotate(-45)" fill="#ffe690" opacity="0.1"/>
        <circle id="Elipse_4996" data-name="Elipse 4996" cx="16.149" cy="16.149" r="16.149" transform="translate(9.396 32.303) rotate(-45)" fill="#ffe690" opacity="0.4"/>
        <circle id="Elipse_4997" data-name="Elipse 4997" cx="11.379" cy="11.379" r="11.379" transform="translate(20.855 20.923)" fill="#ffe690"/>
      </g>
    </g>
  </g>
</svg>
