<svg xmlns="http://www.w3.org/2000/svg" width="39.9" height="44.297" viewBox="0 0 39.9 44.297">
  <g id="Grupo_878398" data-name="Grupo 878398" transform="translate(-749.242 -1481.762)">
    <path id="Trazado_617164" data-name="Trazado 617164" d="M786.379,1526.059H756.328a.326.326,0,0,0-.073-.045,3.265,3.265,0,0,1-2.691-3.54v-1.59c-.125-.008-.2-.014-.266-.018a4.118,4.118,0,0,1-4.026-3.627c-.124-.856.115-1.13.984-1.13h3.307v-.55q0-14.482,0-28.964a3.258,3.258,0,0,1,3.513-3.535q5.35,0,10.7,0c.165,0,.384.008.486-.087a5.418,5.418,0,0,1,2.483-1.208h1.209a5.746,5.746,0,0,1,2.289,1.034,1.179,1.179,0,0,0,.681.253c3.566.015,7.133.01,10.7.012a4.6,4.6,0,0,1,.731.036,3.244,3.244,0,0,1,2.783,3.411q0,18.048,0,36.1c0,.1,0,.2,0,.3a3.243,3.243,0,0,1-2.23,2.986C786.732,1525.949,786.555,1526,786.379,1526.059Zm-10.391-39.1c.2,0,.44-.008.682,0a3.229,3.229,0,0,1,3.089,3.081c.021.548-.212.805-.763.805q-7.642,0-15.284,0c-.552,0-.785-.256-.765-.8a3.2,3.2,0,0,1,2.535-3,11.837,11.837,0,0,1,1.243-.123l.4-2.524H757.45v29.362a3.059,3.059,0,0,1-.01.475.641.641,0,0,1-1.277-.014,3.075,3.075,0,0,1-.008-.432v-29.275a1.92,1.92,0,0,0-1.3,2.041q0,14.534,0,29.068v.492h23.875c.692,0,.864.161.914.845a2.808,2.808,0,0,0,5.606-.344q0-15.9,0-31.793v-.44H775.58Zm-21.128,33.911c0,.58,0,1.1,0,1.615a2,2,0,0,0,2.274,2.278H785.58a2,2,0,0,0,2.267-2.286q0-17.9,0-35.808c0-.173,0-.347-.009-.519a1.725,1.725,0,0,0-1.286-1.591v.52q0,15.677-.005,31.354a5.6,5.6,0,0,1-.132,1.326,4.085,4.085,0,0,1-4.143,3.11q-13.425,0-26.849,0Zm-4.215-3.445a2.759,2.759,0,0,0,2.771,2.145q12.837.006,25.674,0a1.518,1.518,0,0,0,.211-.02l-1.021-2.126Zm27.676-27.889a1.849,1.849,0,0,0-1.7-1.276c-.416-.018-.834,0-1.251-.008-.53-.008-.757-.23-.773-.764-.014-.461.008-.923-.023-1.382a3.223,3.223,0,0,0-6.438.023c-.029.459-.005.922-.021,1.382a.664.664,0,0,1-.753.74c-.417.008-.834-.008-1.251.008a1.8,1.8,0,0,0-1.706,1.277Z" transform="translate(0)" fill="#222b5a"/>
    <path id="Trazado_617165" data-name="Trazado 617165" d="M784.331,1515.428c-1.467,0-2.934.015-4.4-.005a1.928,1.928,0,0,1-2.04-2.291,2.415,2.415,0,0,1,.294-.758q2.207-3.86,4.432-7.708a1.937,1.937,0,0,1,3.506.017q2.217,3.829,4.413,7.67a1.958,1.958,0,0,1-1.759,3.075h-4.445Zm.035-1.3c1.438,0,2.875,0,4.313,0,.854,0,1.117-.46.693-1.2q-2.159-3.761-4.322-7.519c-.427-.742-.947-.739-1.377.007q-2.163,3.758-4.322,7.519c-.422.736-.157,1.188.7,1.19C781.491,1514.134,782.929,1514.13,784.367,1514.13Z" transform="translate(-13.01 -9.912)" fill="#222b5a"/>
    <path id="Trazado_617166" data-name="Trazado 617166" d="M781.125,1527.7h9.405a2.677,2.677,0,0,1,.473.022.633.633,0,0,1,.034,1.234,2.3,2.3,0,0,1-.514.039q-9.405,0-18.81,0c-.057,0-.115,0-.172,0-.541-.017-.827-.256-.812-.679.014-.4.288-.616.819-.617Q776.337,1527.7,781.125,1527.7Z" transform="translate(-9.769 -20.888)" fill="#222b5a"/>
    <path id="Trazado_617167" data-name="Trazado 617167" d="M781.127,1532.462h9.405a2.671,2.671,0,0,1,.473.022.633.633,0,0,1,.032,1.234,2.313,2.313,0,0,1-.514.039q-9.405,0-18.81,0c-.071,0-.143,0-.215,0-.506-.023-.783-.269-.768-.679.014-.391.283-.614.778-.615Q776.317,1532.459,781.127,1532.462Z" transform="translate(-9.769 -23.052)" fill="#222b5a"/>
    <path id="Trazado_617168" data-name="Trazado 617168" d="M781.13,1537.221h9.361a3.4,3.4,0,0,1,.474.015.634.634,0,0,1,.026,1.252,2.628,2.628,0,0,1-.472.029q-9.405,0-18.81,0a3,3,0,0,1-.345-.011.633.633,0,0,1-.636-.672.624.624,0,0,1,.651-.61c.129-.01.259,0,.388,0Z" transform="translate(-9.769 -25.216)" fill="#222b5a"/>
    <path id="Trazado_617169" data-name="Trazado 617169" d="M786.236,1488.471a1.937,1.937,0,1,1,1.951,1.943A1.94,1.94,0,0,1,786.236,1488.471Zm2.575,0a.638.638,0,1,0-.622.64A.644.644,0,0,0,788.811,1488.475Z" transform="translate(-16.821 -2.165)" fill="#222b5a"/>
    <path id="Trazado_617170" data-name="Trazado 617170" d="M789.89,1512.676h0v-.905a.76.76,0,0,0-.005-.086.627.627,0,0,0-.632-.629.6.6,0,0,0-.642.611c-.023.66-.023,1.321,0,1.982a.625.625,0,0,0,.627.635.638.638,0,0,0,.649-.661C789.905,1513.309,789.89,1512.992,789.89,1512.676Zm-.01,2.924a.634.634,0,1,0-.67.622A.62.62,0,0,0,789.88,1515.6Z" transform="translate(-17.893 -13.319)" fill="#222b5a"/>
    <path id="Trazado_617171" data-name="Trazado 617171" d="M789.89,1512.676c0,.316.015.633,0,.948a.638.638,0,0,1-.649.661.625.625,0,0,1-.627-.635c-.02-.66-.021-1.322,0-1.982a.6.6,0,0,1,.642-.611.627.627,0,0,1,.632.629.76.76,0,0,1,.005.086v.905Z" transform="translate(-17.893 -13.319)" fill="#222b5a"/>
    <path id="Trazado_617172" data-name="Trazado 617172" d="M789.894,1518.845a.634.634,0,1,1-.6-.65A.622.622,0,0,1,789.894,1518.845Z" transform="translate(-17.907 -16.565)" fill="#222b5a"/>
  </g>
</svg>
