<svg xmlns="http://www.w3.org/2000/svg" width="134" height="134" viewBox="0 0 134 134">
  <g id="Grupo_878565" data-name="Grupo 878565" transform="translate(-319.067 -4395)">
    <circle id="Elipse_5083" data-name="Elipse 5083" cx="67" cy="67" r="67" transform="translate(319.067 4395)" fill="#ee4e5d"/>
    <g id="Grupo_877773" data-name="Grupo 877773" transform="translate(800.749 3724.285)">
      <path id="Trazado_126586" data-name="Trazado 126586" d="M-435.4,699.215h27.218c2.3.8,3.071,2.46,3.023,4.828-.1,4.878-.03,9.759-.03,14.639v.9c.41,0,.728-.013,1.044,0a57.655,57.655,0,0,1,5.771.307,27.709,27.709,0,0,1,22.933,21.288c.313,1.366.485,2.763.723,4.146v4.313c-.109.731-.21,1.464-.33,2.193a27.676,27.676,0,0,1-26.074,23.451c-11.446.471-20.139-4.515-25.959-14.41a1.255,1.255,0,0,0-1.263-.739c-6.071.026-12.142.018-18.213.015-2.8,0-4.312-1.521-4.312-4.319q0-19.922-.013-39.845a4.645,4.645,0,0,1,1.445-3.515q5.6-5.543,11.146-11.142A7.8,7.8,0,0,1-435.4,699.215Zm32.756,22.855a25.351,25.351,0,0,0-25.366,25.4,25.372,25.372,0,0,0,25.333,25.366,25.445,25.445,0,0,0,25.425-25.452A25.387,25.387,0,0,0-402.643,722.07ZM-428.677,757.6c-2.939-8.246-2.546-16.2,1.685-23.764s10.786-12.083,19.268-13.875v-.784q0-7.808,0-15.616c0-1.439-.369-1.814-1.788-1.814h-24.852c0,2.95.007,5.8,0,8.645a5.09,5.09,0,0,1-5.338,5.324c-2.6.008-5.206,0-7.808,0h-.822v.847q0,19.595,0,39.19c0,1.477.364,1.845,1.843,1.846q7.436,0,14.873,0Zm-17.572-44.418c2.171,0,4.413.012,6.655,0a2.554,2.554,0,0,0,2.693-2.714c.014-1.807,0-3.613,0-5.42v-1.215Z" transform="translate(0 0)" fill="#fff"/>
      <path id="Trazado_126587" data-name="Trazado 126587" d="M-299.069,926.383a20.384,20.384,0,0,1-20.38-17.96,2.292,2.292,0,0,0-1.066-1.886,3.393,3.393,0,0,1-.686-4.877c.929-1.19,1.924-2.334,2.96-3.434a3.329,3.329,0,0,1,4.9.035c1,1.069,1.956,2.177,2.859,3.325a3.5,3.5,0,0,1-.968,5.218.785.785,0,0,0-.45.93,12.692,12.692,0,0,0,17.922,9.824,4.351,4.351,0,0,1,3.292-.437,3.548,3.548,0,0,1,2.628,3.1,3.6,3.6,0,0,1-1.936,3.863,18.787,18.787,0,0,1-7.2,2.168C-297.934,926.323-298.676,926.356-299.069,926.383Zm1.468-2.611a16.135,16.135,0,0,0,6.118-1.8,1.716,1.716,0,0,0,.859-.992,1.628,1.628,0,0,0-.437-1.221c-.415-.441-1-.307-1.52-.051a15.45,15.45,0,0,1-8.143,1.512,15.273,15.273,0,0,1-13.806-14.861c0-1.022.278-1.365,1.28-1.558a1.039,1.039,0,0,0,.652-1.817c-.791-.953-1.605-1.887-2.427-2.814a.912.912,0,0,0-1.567-.006c-.82.928-1.635,1.862-2.425,2.815-.684.826-.36,1.631.709,1.828a1.3,1.3,0,0,1,1.24,1.4c.046.691.068,1.385.145,2.073C-315.923,917.191-307.807,924.161-297.6,923.773Z" transform="translate(-103.325 -158.62)" fill="#fff"/>
      <path id="Trazado_126588" data-name="Trazado 126588" d="M-252.333,839.8c9.221,0,17.935,8.051,18.872,18.653a1.182,1.182,0,0,0,.494.787,3.571,3.571,0,0,1,.982,5.491q-1.25,1.522-2.57,2.985a3.391,3.391,0,0,1-5.316-.029q-1.226-1.4-2.426-2.815a3.516,3.516,0,0,1,.857-5.581c.444-.269.387-.582.325-.935a12.465,12.465,0,0,0-8.718-10.328,12.009,12.009,0,0,0-9.385.663,4,4,0,0,1-3.508.2,3.571,3.571,0,0,1-2.265-3.3,3.634,3.634,0,0,1,2.09-3.573A21.44,21.44,0,0,1-252.333,839.8Zm-1.327,2.544a17.58,17.58,0,0,0-8.019,1.889,1.288,1.288,0,0,0-.661,1.74,1.282,1.282,0,0,0,1.716.557c.161-.064.317-.14.474-.213a15.238,15.238,0,0,1,21.69,13.42c.026,1.027-.316,1.455-1.309,1.638-.94.173-1.3.959-.717,1.686.839,1.042,1.729,2.042,2.62,3.041a.8.8,0,0,0,1.3.042c.932-1.027,1.849-2.071,2.717-3.153a.991.991,0,0,0-.561-1.592c-1.43-.393-1.446-.413-1.522-1.907A17.771,17.771,0,0,0-253.66,842.347Z" transform="translate(-148.95 -112.653)" fill="#fff"/>
      <path id="Trazado_126589" data-name="Trazado 126589" d="M-345.377,788.616q3.825,0,7.649,0a3.685,3.685,0,0,1,.883.073,1.147,1.147,0,0,1,.922,1.191,1.147,1.147,0,0,1-.909,1.2,3.518,3.518,0,0,1-.883.077q-7.724.007-15.447,0a3.487,3.487,0,0,1-.81-.065,1.158,1.158,0,0,1-.958-1.238,1.143,1.143,0,0,1,.944-1.173,3.953,3.953,0,0,1,.884-.067Q-349.239,788.612-345.377,788.616Z" transform="translate(-76.885 -71.637)" fill="#fff"/>
      <path id="Trazado_126590" data-name="Trazado 126590" d="M-402.925,827.014q3.825,0,7.649,0a4.885,4.885,0,0,1,.741.026,1.151,1.151,0,0,1,1.046,1.081,1.155,1.155,0,0,1-.764,1.3,2.169,2.169,0,0,1-.8.126q-7.909.01-15.818,0a2.957,2.957,0,0,1-.518-.028,1.3,1.3,0,0,1-1.111-1.287,1.235,1.235,0,0,1,1.255-1.208c1.163-.029,2.327-.013,3.49-.014Q-405.339,827.013-402.925,827.014Z" transform="translate(-30.756 -102.403)" fill="#fff"/>
      <path id="Trazado_126591" data-name="Trazado 126591" d="M-405.514,867.862c-1.809,0-3.617,0-5.426,0-.971,0-1.582-.523-1.56-1.3.021-.757.6-1.226,1.55-1.227q5.426-.006,10.852,0c1,0,1.57.489,1.55,1.291-.02.769-.589,1.236-1.54,1.24C-401.9,867.867-403.7,867.862-405.514,867.862Z" transform="translate(-30.754 -133.106)" fill="#fff"/>
      <path id="Trazado_126592" data-name="Trazado 126592" d="M-406.817,906.114c-1.411,0-2.822.008-4.233,0a1.3,1.3,0,0,1-1.454-1.248,1.305,1.305,0,0,1,1.432-1.279q4.27-.016,8.541,0a1.3,1.3,0,0,1,1.448,1.257,1.28,1.28,0,0,1-1.426,1.269C-403.945,906.122-405.381,906.114-406.817,906.114Z" transform="translate(-30.751 -163.755)" fill="#fff"/>
      <path id="Trazado_126593" data-name="Trazado 126593" d="M-407.453,944.391c-1.212,0-2.424.011-3.635,0a1.278,1.278,0,0,1-1.41-1.209,1.29,1.29,0,0,1,1.394-1.315q3.672-.029,7.344,0a1.256,1.256,0,0,1,1.393,1.3c-.015.761-.539,1.218-1.451,1.227C-405.03,944.4-406.242,944.392-407.453,944.391Z" transform="translate(-30.754 -194.422)" fill="#fff"/>
    </g>
  </g>
</svg>
