<svg xmlns="http://www.w3.org/2000/svg" width="134" height="134" viewBox="0 0 134 134">
  <g id="Grupo_878567" data-name="Grupo 878567" transform="translate(-387.176 -3364.636)">
    <circle id="Elipse_5079" data-name="Elipse 5079" cx="67" cy="67" r="67" transform="translate(387.176 3364.636)" fill="#179587"/>
    <g id="Grupo_878556" data-name="Grupo 878556" transform="translate(-4758.046 2459.563)">
      <path id="Trazado_617394" data-name="Trazado 617394" d="M5254.7,950.129q-3.3,3.356-6.594,6.712c-.521.531-1.045,1.06-1.58,1.577a1.5,1.5,0,0,1-2.488-.028,4.768,4.768,0,0,1-.532-.768,3.35,3.35,0,0,0-1.825,3.274,15.281,15.281,0,0,1-1.579,8.743,23.641,23.641,0,0,1-3.1,4.247c-2.049,2.231-4.23,4.346-6.426,6.435a18.448,18.448,0,0,1-2.261,1.432,1.141,1.141,0,0,0-.432.8c-.034,2.288-.046,4.576-.013,6.864a17.14,17.14,0,0,1-2.594,9.753,4.79,4.79,0,0,0-.334,1.346c.587,0,.994-.025,1.4,0a1.407,1.407,0,0,1,1.506,1.516q.047,5.54,0,11.081c-.011,1.07-.629,1.523-1.843,1.524q-7.4.007-14.8,0-4.135,0-8.27,0c-1.44,0-1.927-.485-1.93-1.944q-.012-4.962,0-9.924c0-1.9.309-2.223,2.186-2.27.165,0,.328-.025.6-.047.01-1.094.275-2.119-.777-3.055a18.131,18.131,0,0,1-4.949-6.331,14.513,14.513,0,0,1-1.258-5.435c-.034-1.957-.1-3.919.005-5.87a3.392,3.392,0,0,0-1.2-2.858c-2.933-2.835-5.778-5.761-8.678-8.63a16.647,16.647,0,0,1-4.74-8.359,4.966,4.966,0,0,0-.706-1.223c-.337.32-.555.523-.768.729-.97.939-1.667.95-2.617.007q-2.9-2.885-5.792-5.787c-.564-.565-1.142-1.12-1.693-1.7a1.464,1.464,0,0,1-.014-2.375q8.292-8.316,16.606-16.608a1.472,1.472,0,0,1,2.377-.007q3.817,3.783,7.6,7.6a1.478,1.478,0,0,1-.034,2.432,7.628,7.628,0,0,1-.787.625c.869,1.136,1.665,1.838,3.137,1.772a25.048,25.048,0,0,1,5.585.371,13.978,13.978,0,0,1,7.461,4.164c.731.742,1.441,1.505,2.21,2.311,1.4-1.4,2.632-2.774,4.019-3.978a27.594,27.594,0,0,1,4.474-3.343,38.239,38.239,0,0,1,5.039-2l.1-.38a8.029,8.029,0,0,1-.955-.757,1.389,1.389,0,0,1-.015-2.187q3.865-3.911,7.776-7.778a1.44,1.44,0,0,1,2.2-.028c.165.144.315.308.471.464q7.926,7.922,15.845,15.849c.366.366.66.8.989,1.2Zm-24.311-5.275a7.839,7.839,0,0,1-2.111,1.231,14.44,14.44,0,0,0-7.486,4.1q-7.459,7.51-14.965,14.976a4.836,4.836,0,0,0-.651.743,1.277,1.277,0,0,0,.2,1.728,1.3,1.3,0,0,0,1.736.155,3.837,3.837,0,0,0,.617-.545q3.074-3.066,6.143-6.137a4.943,4.943,0,0,1,.683-.595,1.293,1.293,0,0,1,1.735.148,1.379,1.379,0,0,1,.146,1.81,5.4,5.4,0,0,1-.611.671q-4,4.009-8.006,8.016a5.145,5.145,0,0,0-.648.745,1.257,1.257,0,0,0,.194,1.724,1.287,1.287,0,0,0,1.732.158,4.54,4.54,0,0,0,.679-.6q4.106-4.08,8.208-8.166c.91-.9,1.715-1.016,2.366-.344s.527,1.439-.392,2.367l-.293.293q-3.916,3.918-7.834,7.837a4.5,4.5,0,0,0-.608.672,1.3,1.3,0,0,0,.131,1.738,1.258,1.258,0,0,0,1.719.222,4.736,4.736,0,0,0,.746-.647q4.041-4.029,8.077-8.064a3.676,3.676,0,0,1,.753-.635,1.374,1.374,0,0,1,1.892,1.834,3.567,3.567,0,0,1-.627.76q-4.056,4.072-8.121,8.135a3.911,3.911,0,0,0-.641.749,1.285,1.285,0,0,0,.205,1.665,1.259,1.259,0,0,0,1.659.229,4.235,4.235,0,0,0,.75-.641q6.524-6.516,13.044-13.036a4.2,4.2,0,0,1,.743-.649,1.3,1.3,0,0,1,1.731.194,1.284,1.284,0,0,1,.155,1.736,4.226,4.226,0,0,1-.546.617q-3.007,3.016-6.02,6.026c-.136.137-.277.269-.408.411a1.433,1.433,0,0,0-.137,2.128,1.379,1.379,0,0,0,2.12-.136c2.383-2.372,4.774-4.739,7.113-7.154a10.811,10.811,0,0,0,3.115-6.43c.2-1.855.168-3.739.184-5.61a2.506,2.506,0,0,1,.849-2.05c.558-.478,1.075-1,1.582-1.482ZM5204.5,970.492c-.142-.09-.352-.216-.554-.354a4.187,4.187,0,0,1-1.171-5.768,7.39,7.39,0,0,1,.97-1.123c1.668-1.679,3.35-3.346,5.087-5.078-.776-.768-1.507-1.472-2.217-2.2-.75-.767-.828-1.568-.24-2.189.615-.65,1.448-.6,2.243.2.714.718,1.386,1.478,2.08,2.224l2.042-2.043c-.876-.892-1.717-1.8-2.616-2.653a11.508,11.508,0,0,0-6.906-3.228,20.316,20.316,0,0,0-3.876-.1,4.373,4.373,0,0,1-4.313-1.792,3.5,3.5,0,0,0-.546-.516l-10.856,10.856a7.237,7.237,0,0,1,1.192,2.031,14.587,14.587,0,0,0,4.213,7.612c3.958,3.917,7.878,7.874,11.816,11.811a5.346,5.346,0,0,0,.737.66,1.388,1.388,0,0,0,1.938-1.9,4.274,4.274,0,0,0-.6-.682q-2.3-2.315-4.618-4.623c-.983-.983-1.135-1.821-.457-2.482s1.49-.481,2.485.514q1.581,1.578,3.161,3.156c.161.159.345.3.473.4Zm18.914,9.027c-1.341,1.346-2.671,2.7-4.021,4.03a4.049,4.049,0,0,1-4.24,1.135,4.138,4.138,0,0,1-2.99-3.317.885.885,0,0,0-.54-.566,4.182,4.182,0,0,1-3.445-3.455.814.814,0,0,0-.4-.528,9.85,9.85,0,0,0-1.334-.329,4.172,4.172,0,0,1-1.531,4.545c-1.7,1.277-3.474,1.126-5.3-.073,0,1.559-.034,3.01.007,4.459a10.9,10.9,0,0,0,2.319,6.669,57.354,57.354,0,0,0,3.949,4.216,2.458,2.458,0,0,1,.787,1.911c-.024.733,0,1.468,0,2.231h15.593c-.425-1.581.579-2.637,1.218-3.834a11.135,11.135,0,0,0,1.451-4.95c.086-3.331.083-6.666.093-10a1.246,1.246,0,0,0-.3-.711C5224.341,980.488,5223.913,980.062,5223.411,979.519Zm7.065-38.924,14.856,14.856,5.707-5.708-14.86-14.853Zm-42.015-4.6-14.771,14.774,5.739,5.735,14.8-14.8Zm15.427,75.761h21.08v-8.368h-21.08Z" transform="translate(0 0)" fill="#fff"/>
      <path id="Trazado_617395" data-name="Trazado 617395" d="M5264.4,1062.353c.052,1.053-.362,1.663-1.191,1.756-.88.1-1.456-.437-1.606-1.49-.372-2.633-1.509-3.742-4.228-4.13a1.437,1.437,0,0,1-1.383-1.536,1.454,1.454,0,0,1,1.576-1.267A7.07,7.07,0,0,1,5264.4,1062.353Z" transform="translate(-47.902 -69.304)" fill="#fff"/>
    </g>
  </g>
</svg>
