<svg xmlns="http://www.w3.org/2000/svg" width="134" height="134" viewBox="0 0 134 134">
  <g id="Grupo_878579" data-name="Grupo 878579" transform="translate(-1088.689 -1717.636)">
    <g id="Grupo_878578" data-name="Grupo 878578">
      <circle id="Elipse_5104" data-name="Elipse 5104" cx="67" cy="67" r="67" transform="translate(1088.689 1717.636)" fill="#f3f9ff"/>
      <g id="Grupo_878394" data-name="Grupo 878394" transform="translate(699.321 246.293)">
        <path id="Trazado_617078" data-name="Trazado 617078" d="M491.072,1537.45v32.213a1.535,1.535,0,0,1-1.394.7q-34.313-.018-68.626-.011c-1.022,0-1.369-.357-1.37-1.389q0-4.738,0-9.476c0-.926.16-1.129,1.085-1.429a1.272,1.272,0,0,1,1.017,1.438c-.026,2.648-.01,5.3-.01,7.945v.762H432.4v-6.884l-.536-.074c-1.535-.208-2.067-.929-1.9-2.466.139-1.267.214-2.542.323-3.813.13-1.525.141-3.1,1.291-4.3a18.983,18.983,0,0,1,1.76-1.456,4.5,4.5,0,0,1-1.023-3.228,4.818,4.818,0,0,1,4.115-4.6c.185-.043.454-.121.513-.256a5.344,5.344,0,0,1,2.584-2.684c-1.493-3.227-1.225-5.324.861-6.979a4.866,4.866,0,0,1,7.692,2.613,4.975,4.975,0,0,1-.843,4.228l1.989,1.714.246.494,2.416-2.227c-.027-.054-.084-.179-.155-.3a4.81,4.81,0,0,1,.76-6.272,1.521,1.521,0,0,0,.35-.972q.029-10.691.014-21.382c0-.247-.02-.494-.034-.8h-.893c-.3,0-.6.011-.905,0-.8-.041-1.087-.3-1.248-1.114a1.041,1.041,0,0,1,1.178-1.01c.535,0,1.068,0,1.6,0,1.707.005,2.389.7,2.39,2.42v21.6h1.759v-.782c0-3.231-.019-6.461.015-9.691a3.608,3.608,0,0,1,.382-1.784c.278-.453.906-.69,1.465-1.082,0-1.344-.011-2.831.005-4.317a.983.983,0,0,1,.969-1.059,1.039,1.039,0,0,1,1.107,1.008c.025.253.008.51.008.766,0,1.269,0,2.538,0,3.843a7.192,7.192,0,0,0,.771,0,2.894,2.894,0,0,1,2.638,1.089c.871.964,1.815,1.865,2.753,2.766a2.5,2.5,0,0,1,.8,1.928c-.014,1.626,0,3.253,0,4.88v2.457h1.7v-.735q0-12.339,0-24.68a1.926,1.926,0,0,1,1.919-2.176q3.066-.049,6.133,0a1.873,1.873,0,0,1,1.882,1.925c.019.418.007.837.007,1.255,0,.827,0,1.652,0,2.452.132.026.155.036.178.036.859.005,1.719.005,2.578.015a1.916,1.916,0,0,1,2.112,2.113c.011.9,0,1.8,0,2.692,2.031.307,2.388.736,2.388,2.8,0,2.393-.016,4.787.009,7.181a1.224,1.224,0,0,1-1.035,1.407c-.859-.283-1.09-.58-1.091-1.452,0-2.322,0-4.644,0-6.966,0-.245-.023-.492-.036-.751-.208-.018-.344-.037-.48-.041-1.65-.041-1.859-.257-1.859-1.922v-2.942h-3.642a1.249,1.249,0,0,1-1.255-1.125v-4.549a3.655,3.655,0,0,0-.367-.047q-1.631.008-3.262.021h-2.044c-.022.163-.04.232-.04.3q0,12.97.01,25.938a1.344,1.344,0,0,0,.346.775,4.73,4.73,0,0,1,1.12,4.529,12.1,12.1,0,0,1-.745,1.728,19.6,19.6,0,0,1,2.129,2.268,1.987,1.987,0,0,0,1.319.988,4.788,4.788,0,0,1,3.656,4.532,5.332,5.332,0,0,1-1.057,3.281,4.851,4.851,0,0,1,2.941,4c.2,1.635.328,3.279.438,4.922.161,2.408-.056,2.664-2.428,3.086v6.9h9.789v-30.207H485.35a1.224,1.224,0,0,1-.957-1q0-3.986.008-7.971c0-.93.218-1.224,1.094-1.508a1.214,1.214,0,0,1,1.032,1.4c-.03,1.668-.009,3.337-.009,5.006v1.963c.751,0,1.424.036,2.091-.008A2.208,2.208,0,0,1,491.072,1537.45Zm-54.4,6.055a2.721,2.721,0,0,0-2.273,2.816,2.648,2.648,0,0,0,2.29,2.566,3.321,3.321,0,0,0,.74.077,2.758,2.758,0,1,0-.757-5.459Zm24.82,0a2.713,2.713,0,0,0-2.26,2.819,2.642,2.642,0,0,0,2.279,2.567,3.4,3.4,0,0,0,.743.077,2.76,2.76,0,1,0-.761-5.462Zm12.409,0a2.7,2.7,0,0,0-2.254,2.815,2.634,2.634,0,0,0,2.272,2.565,3.4,3.4,0,0,0,.744.079,2.759,2.759,0,1,0-.761-5.458Zm-24.815,0a2.684,2.684,0,0,0-2.252,2.951,2.614,2.614,0,0,0,2.4,2.443,1.862,1.862,0,0,0,.461.083,2.78,2.78,0,0,0,2.611-3.191A2.729,2.729,0,0,0,449.087,1543.508Zm-6.258-10.9a2.739,2.739,0,0,0,0,5.382,2.745,2.745,0,0,0,2.875-4.16A2.616,2.616,0,0,0,442.829,1532.605Zm24.954-.01a2.724,2.724,0,0,0,0,5.4,2.727,2.727,0,0,0,2.778-4.111A2.586,2.586,0,0,0,467.783,1532.6Zm-12.545,5.392a2.743,2.743,0,1,0,.135-5.395,2.734,2.734,0,0,0-.135,5.395Zm-12.113,13.13.232.332a13.611,13.611,0,0,1,1.084-1.222,14.188,14.188,0,0,1,1.348-.963l-.3-.375a5.125,5.125,0,0,1-.14-5.152l2.256-2.221c-.577-1.1-1.644-1.542-3.4-1.31-1.066,0-2.136-.052-3.2.028a2.41,2.41,0,0,0-1.991,1.453,4.957,4.957,0,0,1,2.858,3.369,4.873,4.873,0,0,1-.827,4.108Zm14.635-7.378,2.259-2.223c-.58-1.1-1.65-1.543-3.408-1.31-1.066,0-2.137-.052-3.2.03a2.412,2.412,0,0,0-1.984,1.452,4.948,4.948,0,0,1,2.86,3.374,4.865,4.865,0,0,1-.826,4.1l2.073,1.957.158.245,2.436-2.181-.229-.292A5.123,5.123,0,0,1,457.76,1543.74Zm11.267-3.534c-1.064,0-2.133-.051-3.192.03a2.411,2.411,0,0,0-1.991,1.456,4.923,4.923,0,0,1,2.858,3.364,4.863,4.863,0,0,1-.827,4.109l2.073,1.951.228.351a13.665,13.665,0,0,1,1.082-1.229,14.647,14.647,0,0,1,1.353-.975l-.3-.379a5.141,5.141,0,0,1-.139-5.137l2.26-2.229C471.872,1540.428,470.769,1539.968,469.027,1540.206Zm-6.395-.517,1.7-1.329a1.286,1.286,0,0,0-.107-.24,4.921,4.921,0,0,1,.941-6.642,1.216,1.216,0,0,0,.358-.83c.033-1.649-.13-3.315.053-4.945a5.409,5.409,0,0,0-2-4.893,4.06,4.06,0,0,0-3.671-1.338l-.069.011h-.952a2.607,2.607,0,0,0-.05.334c0,3.755-.011,7.51.012,11.265a1.965,1.965,0,0,0,.355.77,15.563,15.563,0,0,1,1.308,2.474,4.454,4.454,0,0,1-.851,3.951l2.43,2.2Zm-24.685,11.426c-.928-.008-1.857-.046-2.785-.02a2.662,2.662,0,0,0-2.641,2.465c-.1.994-.188,1.989-.272,2.984-.071.845-.129,1.691-.2,2.579h.859c1.374,0,1.635.26,1.635,1.627q0,3.067,0,6.135c0,1.442,0,1.442,1.42,1.36.038,0,.074-.045.153-.1,0-2.55,0-5.126,0-7.7,0-.87.314-1.322.941-1.381.6-.055.978.3,1.177,1.111v8.039c1.506.132,1.532.108,1.532-1.269,0-2.158,0-4.315,0-6.473,0-.978.364-1.334,1.346-1.353.364-.007.728,0,1.2,0-.217-2.1-.359-4.134-.661-6.142a2.442,2.442,0,0,0-2.326-1.876C438.875,1551.077,438.411,1551.11,437.948,1551.116Zm24.82,0c-.928-.008-1.857-.046-2.784-.019a2.649,2.649,0,0,0-2.634,2.471c-.157,1.571-.288,3.144-.422,4.718-.022.267,0,.537,0,.838h.821c1.366,0,1.634.27,1.635,1.631q0,3.066,0,6.133c0,1.44,0,1.441,1.42,1.359.038,0,.073-.046.108-.072.009-.02.026-.041.026-.061q.009-3.868.015-7.735c0-.8.333-1.254.942-1.311s.988.305,1.172,1.111v8.042c1.524.127,1.535.117,1.535-1.339,0-2.135-.005-4.27,0-6.4,0-.98.364-1.335,1.348-1.354.363-.007.727,0,1.2,0-.212-2.085-.352-4.094-.643-6.08a2.457,2.457,0,0,0-2.348-1.938C463.695,1551.077,463.23,1551.11,462.767,1551.116Zm-12.113,9.063v8.049c1.529.1,1.533.1,1.533-1.3,0-2.138,0-4.276,0-6.414,0-1.021.36-1.375,1.387-1.392.36-.006.72,0,1.147,0-.2-2.034-.323-3.957-.584-5.861a2.516,2.516,0,0,0-2.53-2.162c-.416-.016-.835.013-1.252.02-.928-.008-1.856-.044-2.783-.019a2.637,2.637,0,0,0-2.628,2.4c-.178,1.684-.3,3.374-.446,5.061-.015.174,0,.351,0,.565h.839c1.357,0,1.631.277,1.631,1.636,0,2.229.014,4.458-.008,6.687-.005.588.184.881.8.824.243-.023.49,0,.776,0,0-2.667,0-5.241,0-7.816,0-.871.311-1.32.942-1.379C450.083,1559.013,450.462,1559.371,450.654,1560.178Zm24.661-9.055c-.974-.011-1.948-.051-2.921-.026a2.623,2.623,0,0,0-2.621,2.4c-.185,1.706-.308,3.42-.451,5.131a3.147,3.147,0,0,0,.037.489h.806c1.354,0,1.63.279,1.63,1.636,0,2.229.014,4.458-.008,6.686-.006.591.185.879.8.825.243-.022.489,0,.772,0,0-2.69,0-5.287,0-7.885,0-.8.331-1.252.943-1.31s.991.308,1.172,1.109v8.049c1.527.107,1.535.1,1.535-1.3,0-2.139,0-4.276,0-6.415,0-1.018.365-1.376,1.39-1.393.359-.006.718,0,1.14,0-.189-2.018-.329-3.915-.556-5.8a2.327,2.327,0,0,0-1.751-2.054A9.364,9.364,0,0,0,475.315,1551.123Zm-5.6,17.109c0-2.09-.024-4.13.014-6.169.012-.635-.111-.958-.824-.886a11.01,11.01,0,0,1-1.646.008c-.48-.025-.588.2-.578.628.024.953.008,1.905.008,2.859v3.561Zm-12.414.006c0-2.251.009-4.431-.02-6.61,0-.147-.288-.4-.458-.415-.638-.05-1.283,0-1.924-.03-.494-.025-.636.167-.631.647.022,1.974.008,3.95.011,5.924a4.8,4.8,0,0,0,.049.483Zm-12.41-.008c0-2.221-.009-4.356.007-6.492,0-.441-.181-.564-.585-.551-.6.02-1.193.032-1.787,0-.52-.031-.679.156-.673.678.027,1.974.009,3.949.014,5.924a3.031,3.031,0,0,0,.062.446Z" transform="translate(0)" fill="#020202"/>
        <path id="Trazado_617079" data-name="Trazado 617079" d="M447.092,1508.275l1.925.046a3.5,3.5,0,0,1,.421,2.123c-.018,2.319-.005,4.639-.007,6.959q-.006,11.724-.013,23.448l-1.989-1.714a4.976,4.976,0,0,0,.843-4.228,4.866,4.866,0,0,0-7.692-2.613c-2.086,1.656-2.354,3.752-.861,6.979a5.344,5.344,0,0,0-2.584,2.684c-.058.135-.327.213-.513.256a4.818,4.818,0,0,0-4.115,4.6,4.5,4.5,0,0,0,1.023,3.228,18.975,18.975,0,0,0-1.76,1.456c-1.15,1.2-1.161,2.777-1.291,4.3-.109,1.271-.184,2.546-.323,3.813-.169,1.537.363,2.258,1.9,2.466l.536.074v6.884H421.966v-.762c0-2.649-.016-5.3.01-7.945a1.272,1.272,0,0,0-1.017-1.438q-.019-1.408-.036-2.817c.877-.239,1.041-.447,1.042-1.37q0-4.807,0-9.614v-.816c.793,0,1.507,0,2.221,0,1.178,0,1.516-.343,1.517-1.546q0-3.937,0-7.873c0-.244.025-.488.04-.774h1.748c1.3,0,1.588-.286,1.589-1.6l.018-16.511a1.8,1.8,0,0,1,.41.228c.615.6,1.189,1.239,1.832,1.805a1.932,1.932,0,0,1,.678,1.634c-.037,2.526-.018,5.053-.013,7.58,0,.908.256,1.156,1.147,1.16l1.738.008c.179.83.486,1.088,1.334,1.094,1.045.006,2.09,0,3.134,0,1.078,0,1.425-.344,1.428-1.405,0-1.036,0-2.073,0-3.172h1.541c1.223,0,1.521-.293,1.521-1.508q0-6.582,0-13.165v-.854c.735,0,1.36.016,1.985,0C446.642,1509.352,446.926,1509.088,447.092,1508.275Z" transform="translate(-0.192 -0.834)" fill="#675d66"/>
        <path id="Trazado_617080" data-name="Trazado 617080" d="M493.813,1537.415a1.224,1.224,0,0,0,.957,1q0,15.1,0,30.207h-6.205v-6.9c2.372-.422,2.589-.678,2.428-3.086-.11-1.643-.243-3.286-.438-4.922a4.851,4.851,0,0,0-2.941-4,5.332,5.332,0,0,0,1.057-3.281,4.788,4.788,0,0,0-3.656-4.532,1.987,1.987,0,0,1-1.319-.988,19.6,19.6,0,0,0-2.129-2.268,12.1,12.1,0,0,0,.745-1.728,4.73,4.73,0,0,0-1.12-4.529,1.344,1.344,0,0,1-.346-.775q-.025-12.969-.01-25.938c0-.069.018-.137.04-.3h2.044c0,1.178-.006,2.358.01,3.536.01.761.3,1.034,1.054,1.037.855,0,1.711,0,2.565,0a1.249,1.249,0,0,0,1.255,1.125c0,.905,0,1.81,0,2.716,0,.786.25,1.029,1.038,1.041,1.112.016,1.331.238,1.331,1.353q0,9.955,0,19.91c0,.964.359,1.321,1.342,1.325C492.282,1537.42,493.048,1537.415,493.813,1537.415Z" transform="translate(-9.42 -0.387)" fill="#675d66"/>
        <path id="Trazado_617081" data-name="Trazado 617081" d="M497.306,1574.643q0-15.1,0-30.207h3.583v30.207Z" transform="translate(-11.958 -6.405)" fill="#554e55"/>
        <path id="Trazado_617082" data-name="Trazado 617082" d="M454.534,1540.85q.008-11.724.014-23.448c0-2.32-.011-4.639.007-6.959a3.5,3.5,0,0,0-.421-2.123l.953-.046c.161.814.445,1.073,1.248,1.114.3.014.6,0,.905,0h.893c.014.308.034.555.034.8q0,10.691-.014,21.382a1.521,1.521,0,0,1-.35.972,4.81,4.81,0,0,0-.76,6.272c.071.118.128.243.155.3l-2.416,2.227Z" transform="translate(-5.307 -0.834)" fill="#554e55"/>
        <path id="Trazado_617083" data-name="Trazado 617083" d="M495.082,1538.452c-.766,0-1.531.005-2.3,0-.983,0-1.342-.36-1.342-1.325q0-9.956,0-19.91c0-1.115-.219-1.337-1.331-1.353-.788-.012-1.034-.255-1.038-1.041-.006-.905,0-1.81,0-2.716h3.642v2.942c0,1.665.21,1.881,1.859,1.922.136,0,.272.023.48.041.013.26.036.506.036.751,0,2.322,0,4.644,0,6.966,0,.871.232,1.168,1.091,1.452l0,2.79c-.876.284-1.093.579-1.094,1.508Q495.083,1534.467,495.082,1538.452Z" transform="translate(-10.689 -1.425)" fill="#554e55"/>
        <path id="Trazado_617084" data-name="Trazado 617084" d="M484.516,1568.96c-.18-.8-.567-1.167-1.172-1.109s-.942.507-.943,1.31c0,2.6,0,5.2,0,7.885-.283,0-.53-.019-.772,0-.616.054-.807-.234-.8-.825.021-2.228.008-4.457.008-6.686,0-1.357-.276-1.633-1.63-1.636H478.4a3.147,3.147,0,0,1-.037-.489c.143-1.71.266-3.424.451-5.131a2.623,2.623,0,0,1,2.621-2.4c.973-.025,1.947.015,2.921.026a9.638,9.638,0,0,1,.938,2.265c.255,1.8.322,3.62.459,5.433C485.843,1568.829,485.714,1568.964,484.516,1568.96Z" transform="translate(-9.039 -8.782)" fill="#23efa7"/>
        <path id="Trazado_617085" data-name="Trazado 617085" d="M455.172,1568.961c-.192-.808-.571-1.166-1.174-1.11-.631.058-.942.508-.942,1.379,0,2.574,0,5.149,0,7.816-.286,0-.533-.019-.776,0-.618.057-.806-.236-.8-.824.021-2.229.009-4.458.008-6.687,0-1.359-.274-1.634-1.631-1.636h-.839c0-.214-.013-.391,0-.565.143-1.688.267-3.377.446-5.061a2.637,2.637,0,0,1,2.628-2.4c.927-.025,1.855.011,2.783.019a8.857,8.857,0,0,1,1.057,2.283c.277,1.843.362,3.715.468,5.579C456.465,1568.878,456.333,1568.961,455.172,1568.961Z" transform="translate(-4.518 -8.782)" fill="#f93981"/>
        <path id="Trazado_617086" data-name="Trazado 617086" d="M469.845,1568.96c-.184-.805-.566-1.167-1.172-1.111s-.941.509-.942,1.311q-.01,3.868-.015,7.735c0,.02-.017.041-.026.062-.036.025-.07.069-.108.071-1.42.081-1.42.08-1.42-1.359q0-3.067,0-6.133c0-1.361-.269-1.629-1.635-1.631H463.7c0-.3-.019-.57,0-.838.134-1.573.265-3.147.422-4.718a2.649,2.649,0,0,1,2.634-2.471c.927-.026,1.856.011,2.784.019a8.821,8.821,0,0,1,1.057,2.28c.276,1.843.362,3.716.469,5.581C471.138,1568.875,471.005,1568.961,469.845,1568.96Z" transform="translate(-6.781 -8.782)" fill="#63b7fa"/>
        <path id="Trazado_617087" data-name="Trazado 617087" d="M440.5,1568.96c-.2-.813-.574-1.166-1.177-1.111-.627.058-.94.511-.941,1.381,0,2.576,0,5.152,0,7.7-.08.051-.115.094-.153.1-1.42.081-1.42.081-1.42-1.36q0-3.067,0-6.135c0-1.366-.261-1.624-1.635-1.627h-.859c.067-.888.124-1.734.2-2.579.084-.995.171-1.99.272-2.984a2.662,2.662,0,0,1,2.641-2.465c.928-.025,1.857.012,2.785.02a8.942,8.942,0,0,1,1.056,2.284c.277,1.82.365,3.67.47,5.511C441.8,1568.879,441.672,1568.961,440.5,1568.96Z" transform="translate(-2.253 -8.782)" fill="#fabf6c"/>
        <path id="Trazado_617088" data-name="Trazado 617088" d="M469.761,1542.717l-.546.788-2.43-2.2a4.454,4.454,0,0,0,.851-3.951,15.561,15.561,0,0,0-1.308-2.474,1.965,1.965,0,0,1-.355-.77c-.023-3.755-.014-7.51-.012-11.265a2.607,2.607,0,0,1,.05-.334h.952a3.98,3.98,0,0,0,.385.557c.6.618,1.185,1.248,1.826,1.817a1.752,1.752,0,0,1,.594,1.463C469.75,1531.8,469.76,1537.26,469.761,1542.717Z" transform="translate(-7.129 -3.027)" fill="#675d66"/>
        <path id="Trazado_617089" data-name="Trazado 617089" d="M469.944,1542.7c0-5.456-.012-10.913.007-16.369a1.752,1.752,0,0,0-.594-1.463c-.641-.569-1.229-1.2-1.826-1.817a3.98,3.98,0,0,1-.385-.557l.068-.011a4.06,4.06,0,0,1,3.671,1.338,5.409,5.409,0,0,1,2,4.893c-.184,1.629-.02,3.3-.053,4.945a1.216,1.216,0,0,1-.358.83,4.921,4.921,0,0,0-.941,6.642,1.288,1.288,0,0,1,.107.24Z" transform="translate(-7.312 -3.015)" fill="#554e55"/>
        <path id="Trazado_617090" data-name="Trazado 617090" d="M478.211,1550.544a5.14,5.14,0,0,0,.139,5.136,2.725,2.725,0,0,1-.832.4,1.385,1.385,0,0,0-1.41,1.311c-.025.175-.077.346-.117.519l-2.073-1.951a4.863,4.863,0,0,0,.827-4.109,4.923,4.923,0,0,0-2.858-3.364,2.411,2.411,0,0,1,1.991-1.456c1.058-.08,2.128-.026,3.192-.03A5.338,5.338,0,0,1,478.211,1550.544Z" transform="translate(-8.042 -6.798)" fill="#f73980"/>
        <path id="Trazado_617091" data-name="Trazado 617091" d="M461.32,1557.918l-2.073-1.957a4.865,4.865,0,0,0,.826-4.1,4.948,4.948,0,0,0-2.86-3.374,2.412,2.412,0,0,1,1.984-1.452c1.06-.081,2.131-.025,3.2-.03a5.384,5.384,0,0,1,1.149,3.533,5.123,5.123,0,0,0,.143,5.152,3.437,3.437,0,0,1-.917.394,1.348,1.348,0,0,0-1.332,1.313A3.864,3.864,0,0,1,461.32,1557.918Z" transform="translate(-5.782 -6.798)" fill="#f8be6b"/>
        <path id="Trazado_617092" data-name="Trazado 617092" d="M448.869,1550.536a5.125,5.125,0,0,0,.14,5.152,3.365,3.365,0,0,1-.913.4,1.342,1.342,0,0,0-1.332,1.311,3.783,3.783,0,0,1-.118.52l-2.075-1.953a4.873,4.873,0,0,0,.827-4.108,4.957,4.957,0,0,0-2.858-3.369,2.41,2.41,0,0,1,1.991-1.453c1.061-.08,2.131-.025,3.2-.028A5.389,5.389,0,0,1,448.869,1550.536Z" transform="translate(-3.521 -6.798)" fill="#62b6f8"/>
        <path id="Trazado_617093" data-name="Trazado 617093" d="M456.24,1568.961c1.161,0,1.293-.083,1.228-1.2-.106-1.864-.191-3.737-.468-5.579a8.857,8.857,0,0,0-1.057-2.283c.417-.008.836-.036,1.252-.02a2.516,2.516,0,0,1,2.53,2.162c.261,1.9.388,3.827.584,5.861-.427,0-.788-.005-1.147,0-1.027.017-1.385.371-1.387,1.392-.005,2.138,0,4.276,0,6.414,0,1.4,0,1.408-1.533,1.3Z" transform="translate(-5.586 -8.783)" fill="#f81465"/>
        <path id="Trazado_617094" data-name="Trazado 617094" d="M470.911,1568.962c1.16,0,1.293-.085,1.228-1.2-.107-1.865-.194-3.738-.47-5.581a8.821,8.821,0,0,0-1.057-2.28c.463-.006.927-.039,1.388-.012a2.457,2.457,0,0,1,2.348,1.938c.291,1.986.431,3.995.643,6.08-.47,0-.833-.006-1.2,0-.985.019-1.346.373-1.348,1.354-.007,2.134,0,4.27,0,6.4,0,1.456-.011,1.466-1.535,1.339Z" transform="translate(-7.846 -8.783)" fill="#31a5f9"/>
        <path id="Trazado_617095" data-name="Trazado 617095" d="M441.568,1568.962c1.177,0,1.3-.081,1.232-1.267-.106-1.842-.194-3.692-.47-5.511a8.943,8.943,0,0,0-1.056-2.284c.463-.006.927-.039,1.388-.012a2.442,2.442,0,0,1,2.326,1.876c.3,2.007.444,4.039.661,6.142-.472,0-.836-.006-1.2,0-.982.019-1.343.375-1.346,1.353-.006,2.158,0,4.315,0,6.473,0,1.377-.026,1.4-1.532,1.269Z" transform="translate(-3.327 -8.783)" fill="#f9a42f"/>
        <path id="Trazado_617096" data-name="Trazado 617096" d="M485.607,1568.966c1.2,0,1.327-.131,1.235-1.357-.137-1.813-.2-3.636-.459-5.433a9.638,9.638,0,0,0-.938-2.265,9.364,9.364,0,0,1,1.922.138,2.327,2.327,0,0,1,1.751,2.054c.227,1.886.367,3.784.556,5.8-.422,0-.782-.005-1.14,0-1.024.017-1.387.375-1.39,1.393-.005,2.139,0,4.276,0,6.415,0,1.4-.008,1.408-1.535,1.3Z" transform="translate(-10.131 -8.789)" fill="#26cf91"/>
        <path id="Trazado_617097" data-name="Trazado 617097" d="M478.272,1578.851h-3.027v-3.561c0-.953.016-1.906-.008-2.859-.01-.431.1-.652.578-.628a11.01,11.01,0,0,0,1.646-.008c.713-.072.836.251.824.886C478.249,1574.721,478.272,1576.76,478.272,1578.851Z" transform="translate(-8.558 -10.618)" fill="#675d66"/>
        <path id="Trazado_617098" data-name="Trazado 617098" d="M463.6,1578.859h-2.974a4.8,4.8,0,0,1-.049-.483c0-1.974.011-3.95-.011-5.924-.005-.481.137-.672.631-.647.64.032,1.286-.02,1.924.03.17.013.457.267.458.415C463.607,1574.428,463.6,1576.608,463.6,1578.859Z" transform="translate(-6.298 -10.62)" fill="#675d66"/>
        <path id="Trazado_617099" data-name="Trazado 617099" d="M448.927,1578.85h-2.962a3.033,3.033,0,0,1-.062-.446c0-1.975.014-3.95-.014-5.924-.007-.522.152-.709.673-.678.594.037,1.191.025,1.787,0,.4-.014.588.11.585.551C448.918,1574.494,448.927,1576.63,448.927,1578.85Z" transform="translate(-4.038 -10.62)" fill="#675d66"/>
        <path id="Trazado_617100" data-name="Trazado 617100" d="M486.926,1509.943c-.854,0-1.71,0-2.565,0-.755,0-1.044-.276-1.054-1.037-.016-1.178-.008-2.358-.01-3.536q1.631-.012,3.262-.021a3.654,3.654,0,0,1,.367.047Z" transform="translate(-9.8 -0.383)" fill="#554e55"/>
        <path id="Trazado_617101" data-name="Trazado 617101" d="M461.307,1543.4a2.734,2.734,0,0,1,.135-5.395c.085.162.164.327.256.483A3.781,3.781,0,0,1,461.307,1543.4Z" transform="translate(-6.069 -5.414)" fill="#faae9e"/>
        <path id="Trazado_617102" data-name="Trazado 617102" d="M476.114,1543.409a2.724,2.724,0,0,1,0-5.4c.112.222.208.455.338.667a3.458,3.458,0,0,1,.4,3.274C476.643,1542.453,476.36,1542.923,476.114,1543.409Z" transform="translate(-8.329 -5.415)" fill="#c56d5b"/>
        <path id="Trazado_617103" data-name="Trazado 617103" d="M446.637,1543.4a2.739,2.739,0,0,1,0-5.382A3.851,3.851,0,0,1,446.637,1543.4Z" transform="translate(-3.809 -5.417)" fill="#fccbbd"/>
        <path id="Trazado_617104" data-name="Trazado 617104" d="M454.182,1556.3a2.614,2.614,0,0,1-2.4-2.443,2.684,2.684,0,0,1,2.252-2.951.661.661,0,0,0,.084.189,3.862,3.862,0,0,1,.261,4.693A2.253,2.253,0,0,0,454.182,1556.3Z" transform="translate(-4.943 -7.402)" fill="#c56d5b"/>
        <path id="Trazado_617105" data-name="Trazado 617105" d="M483.382,1556.287a2.634,2.634,0,0,1-2.272-2.565,2.7,2.7,0,0,1,2.255-2.815A4.062,4.062,0,0,1,483.382,1556.287Z" transform="translate(-9.462 -7.402)" fill="#fccbbd"/>
        <path id="Trazado_617106" data-name="Trazado 617106" d="M468.714,1556.289a2.642,2.642,0,0,1-2.279-2.567,2.713,2.713,0,0,1,2.26-2.819,3.745,3.745,0,0,1,.965,2.995A14.287,14.287,0,0,1,468.714,1556.289Z" transform="translate(-7.202 -7.401)" fill="#faae9e"/>
        <path id="Trazado_617107" data-name="Trazado 617107" d="M439.369,1556.288a2.648,2.648,0,0,1-2.29-2.566,2.721,2.721,0,0,1,2.273-2.816,4.708,4.708,0,0,1,1.014,2.93A5.364,5.364,0,0,1,439.369,1556.288Z" transform="translate(-2.68 -7.401)" fill="#fdccbe"/>
        <path id="Trazado_617108" data-name="Trazado 617108" d="M439.784,1556.282a5.364,5.364,0,0,0,1-2.452,4.707,4.707,0,0,0-1.014-2.93,2.758,2.758,0,1,1,.757,5.459A3.321,3.321,0,0,1,439.784,1556.282Z" transform="translate(-3.094 -7.395)" fill="#faae9e"/>
        <path id="Trazado_617109" data-name="Trazado 617109" d="M447.043,1543.393a3.851,3.851,0,0,0,0-5.382,2.616,2.616,0,0,1,2.874,1.222,2.745,2.745,0,0,1-2.875,4.16Z" transform="translate(-4.215 -5.406)" fill="#faae9e"/>
        <path id="Trazado_617110" data-name="Trazado 617110" d="M483.793,1556.281a4.061,4.061,0,0,0-.018-5.38,2.759,2.759,0,1,1,.761,5.458A3.4,3.4,0,0,1,483.793,1556.281Z" transform="translate(-9.873 -7.395)" fill="#faae9e"/>
        <path id="Trazado_617111" data-name="Trazado 617111" d="M469.126,1556.284a14.287,14.287,0,0,0,.947-2.391,3.746,3.746,0,0,0-.965-2.995,2.76,2.76,0,1,1,.761,5.462A3.4,3.4,0,0,1,469.126,1556.284Z" transform="translate(-7.614 -7.395)" fill="#f39c8b"/>
        <path id="Trazado_617112" data-name="Trazado 617112" d="M461.713,1543.394a3.782,3.782,0,0,0,.392-4.912c-.092-.156-.171-.321-.256-.483a2.743,2.743,0,1,1-.135,5.395Z" transform="translate(-6.475 -5.407)" fill="#f39c8b"/>
        <path id="Trazado_617113" data-name="Trazado 617113" d="M454.593,1556.3a2.257,2.257,0,0,1,.194-.513,3.862,3.862,0,0,0-.261-4.692.663.663,0,0,1-.084-.189,2.729,2.729,0,0,1,3.224,2.286,2.78,2.78,0,0,1-2.612,3.191A1.862,1.862,0,0,1,454.593,1556.3Z" transform="translate(-5.355 -7.395)" fill="#b75b4e"/>
        <path id="Trazado_617114" data-name="Trazado 617114" d="M476.544,1543.4c.246-.486.529-.956.733-1.458a3.458,3.458,0,0,0-.4-3.274c-.13-.212-.226-.444-.338-.667a2.744,2.744,0,0,1,2.747,4.183A2.539,2.539,0,0,1,476.544,1543.4Z" transform="translate(-8.759 -5.408)" fill="#b75b4e"/>
        <path id="Trazado_617115" data-name="Trazado 617115" d="M464.485,1550.53a5.384,5.384,0,0,0-1.149-3.533c1.757-.233,2.827.212,3.408,1.31Z" transform="translate(-6.725 -6.79)" fill="#ec9d2f"/>
        <path id="Trazado_617116" data-name="Trazado 617116" d="M449.814,1550.528a5.389,5.389,0,0,0-1.143-3.531c1.755-.233,2.822.213,3.4,1.31Z" transform="translate(-4.466 -6.79)" fill="#309eec"/>
        <path id="Trazado_617117" data-name="Trazado 617117" d="M479.155,1550.535a5.338,5.338,0,0,0-1.142-3.54c1.742-.239,2.844.222,3.4,1.31Z" transform="translate(-8.986 -6.79)" fill="#ec1461"/>
        <path id="Trazado_617118" data-name="Trazado 617118" d="M462.068,1559.5a3.873,3.873,0,0,0,.115-.521,1.348,1.348,0,0,1,1.332-1.313,3.437,3.437,0,0,0,.917-.394l.229.292-2.436,2.181Z" transform="translate(-6.53 -8.382)" fill="#ec9d2f"/>
        <path id="Trazado_617119" data-name="Trazado 617119" d="M447.394,1559.5a3.783,3.783,0,0,0,.118-.52,1.342,1.342,0,0,1,1.332-1.311,3.365,3.365,0,0,0,.913-.4l.3.375a14.188,14.188,0,0,0-1.348.963,13.611,13.611,0,0,0-1.084,1.222Z" transform="translate(-4.269 -8.382)" fill="#309eec"/>
        <path id="Trazado_617120" data-name="Trazado 617120" d="M476.739,1559.5c.04-.172.092-.343.117-.519a1.385,1.385,0,0,1,1.41-1.311,2.724,2.724,0,0,0,.832-.4l.3.38a14.655,14.655,0,0,0-1.353.975,13.665,13.665,0,0,0-1.082,1.229Z" transform="translate(-8.79 -8.38)" fill="#ec1461"/>
        <path id="Trazado_617121" data-name="Trazado 617121" d="M446.9,1507.62c-.166.813-.45,1.077-1.255,1.1-.624.02-1.249,0-1.985,0v.854q0,6.583,0,13.165c0,1.214-.3,1.507-1.521,1.508H440.6c0,1.1,0,2.135,0,3.172,0,1.061-.35,1.4-1.428,1.405-1.045,0-2.09.005-3.134,0-.848-.006-1.155-.264-1.334-1.094.01-3.32.03-6.639.012-9.959a1.272,1.272,0,0,0-.409-.75c-1.612-1.639-3.242-3.259-4.869-4.882-.139-.139-.3-.26-.527-.461v3.637q-.009,8.256-.018,16.511c0,1.31-.285,1.595-1.589,1.6h-1.748c-.015.286-.039.53-.04.774q0,3.936,0,7.873c0,1.2-.338,1.544-1.517,1.546-.714,0-1.428,0-2.221,0v.816q0,4.807,0,9.614c0,.922-.165,1.131-1.042,1.37-.834-.2-1.047-.454-1.048-1.287q-.006-5.263,0-10.528a1.927,1.927,0,0,1,2.088-2.079c.51-.006,1.021,0,1.629,0v-.763q0-3.556,0-7.111c0-1.643.684-2.321,2.321-2.326H426.8v-.825q0-12.48,0-24.961a2.769,2.769,0,0,1,.032-.693.98.98,0,0,1,1.123-.819.969.969,0,0,1,.928,1.031c.018,1.022-.01,2.046.019,3.067a1.17,1.17,0,0,0,.261.733c1.758,1.791,3.539,3.56,5.315,5.332a1.719,1.719,0,0,0,.247.156c0-.723,0-1.385,0-2.046.005-.845.35-1.3,1-1.318.686-.022,1.09.45,1.09,1.31q.006,6.8,0,13.6v.8H438.5v-2.062c0-1.791.672-2.455,2.491-2.464h.569v-.765q0-6.241,0-12.48c0-1.6.7-2.3,2.273-2.312.628,0,1.255,0,1.882,0A1.043,1.043,0,0,1,446.9,1507.62Z" transform="translate(0 -0.179)" fill="#020202"/>
        <path id="Trazado_617122" data-name="Trazado 617122" d="M430.588,1516.718v-3.637c.231.2.388.322.527.461,1.628,1.624,3.258,3.243,4.869,4.882a1.272,1.272,0,0,1,.409.75c.018,3.32,0,6.639-.012,9.959l-1.738-.008c-.891,0-1.145-.252-1.147-1.16-.005-2.527-.025-5.054.013-7.58a1.932,1.932,0,0,0-.678-1.634c-.642-.566-1.217-1.208-1.832-1.805A1.8,1.8,0,0,0,430.588,1516.718Z" transform="translate(-1.68 -1.575)" fill="#554e55"/>
      </g>
    </g>
  </g>
</svg>
