<svg xmlns="http://www.w3.org/2000/svg" width="134" height="134" viewBox="0 0 134 134">
  <g id="Grupo_878574" data-name="Grupo 878574" transform="translate(-1083 -4731)">
    <g id="Elipse_4985" data-name="Elipse 4985" transform="translate(1083 4731)" fill="#fff" stroke="#ec5060" stroke-width="5">
      <circle cx="67" cy="67" r="67" stroke="none"/>
      <circle cx="67" cy="67" r="64.5" fill="none"/>
    </g>
    <g id="Grupo_876632" data-name="Grupo 876632" transform="translate(1316.093 4165.619)">
      <path id="Trazado_125546" data-name="Trazado 125546" d="M-117.235,622.8v21.945a.821.821,0,0,0-.264.032q-13.115,6.552-26.217,13.131a1.168,1.168,0,0,0-.487.825,4.592,4.592,0,0,1-3.879,4.378,1.034,1.034,0,0,0-.656.646,4.545,4.545,0,0,1-3.89,3.865.851.851,0,0,0-.577.5,4.517,4.517,0,0,1-4.071,4.034,19.949,19.949,0,0,1-1.828,3.172,8.059,8.059,0,0,1-2.193,1.333h-2c-.971-.583-1.987-1.1-2.9-1.773a1.093,1.093,0,0,0-1.334-.187,4.571,4.571,0,0,1-6.47-3.324.878.878,0,0,0-.835-.844,4.194,4.194,0,0,1-3.17-2.31c-.3-.606-.259-1.482-.694-1.905-.462-.45-1.346-.432-1.974-.757a4.638,4.638,0,0,1-2.464-3.859,4.75,4.75,0,0,1-4.449-4.224.69.69,0,0,0-.241-.44c-1.4-.86-2.806-1.7-4.082-2.468-.386.445-.667,1.051-.962,1.057a10.756,10.756,0,0,1-3.391-.27C-200.6,654-204.9,652.5-209.23,651.087a1.048,1.048,0,0,1-.863-1.2q.04-14.595.019-29.19c0-.293.026-.586.043-.933,2.561-.021,5.11-.449,7.287,1.38.638.536,1.517.782,2.163,1.31a5.447,5.447,0,0,0,6.1.843c.305-.136.59-.317.884-.477a3.7,3.7,0,0,0-.591-.913,10.8,10.8,0,0,1-3.431-5.114,17.87,17.87,0,0,1-.445-6.385,9.983,9.983,0,0,1,6.184-9.159,28.7,28.7,0,0,1,4.646-1.233c-.375-.9-.836-1.937-1.232-3a.991.991,0,0,1,.087-.852c2.491-2.547,5.014-5.063,7.569-7.626,1.408.916,2.754,1.827,4.145,2.665a1.436,1.436,0,0,0,1.1.066c1.463-.556,2.884-1.225,4.351-1.768a1.148,1.148,0,0,0,.868-.987c.3-1.562.653-3.112.984-4.653h11.422c.339,1.6.639,3.169,1.025,4.716a1.466,1.466,0,0,0,.737.848c1.452.66,2.951,1.218,4.4,1.876a1.007,1.007,0,0,0,1.14-.057c1.347-.911,2.722-1.782,4.151-2.71,2.559,2.574,5.1,5.114,7.607,7.687a1.035,1.035,0,0,1,.019.865c-.406,1.052-.871,2.082-1.336,3.17a10.564,10.564,0,0,1,10.027,6.427c1.112,2.32,1.027,4.817.94,7.293a10.455,10.455,0,0,1-3.917,7.953,3.714,3.714,0,0,0-.57.836,3.733,3.733,0,0,0,.836.511q3.511,1.025,7.041,1.984a1.183,1.183,0,0,0,.747-.159c1.29-.658,2.562-1.351,3.853-2.007a2.526,2.526,0,0,1,1.014-.314C-119.228,622.747-118.231,622.787-117.235,622.8Zm-3.05,3.187c-.425.217-.741.374-1.052.538q-12.815,6.745-25.621,13.51a4.7,4.7,0,0,1-3.012.651,14.883,14.883,0,0,1-1.769-.349q-3.875-1.089-7.738-2.222a6.943,6.943,0,0,0-5.2.31q-4.1,2.017-8.172,4.092a2.226,2.226,0,0,0-1,3.14,2.059,2.059,0,0,0,3.055.59c1.613-.949,3.211-1.922,4.818-2.881,2.938-1.754,5.471-1.515,8.028.779,3.958,3.551,7.918,7.1,11.847,10.68a1.093,1.093,0,0,0,1.476.183q11.762-5.924,23.558-11.778a1.3,1.3,0,0,0,.852-1.372c-.033-4.955-.016-9.91-.019-14.866C-120.24,626.7-120.266,626.409-120.286,625.985Zm-46.669,10.205c-2.819-1.088-5.542-1.808-8.328-1.345-3.835.637-7.622,1.566-11.421,2.4a1.033,1.033,0,0,0-.656.589q-1.912,6.56-3.747,13.141a.75.75,0,0,0,.191.662c1.4.88,2.818,1.718,4.222,2.561,1.136-1.141,2.144-2.276,3.279-3.265a4.583,4.583,0,0,1,7.643,2.6.893.893,0,0,0,.874.807,4.255,4.255,0,0,1,3.154,2.338,15.55,15.55,0,0,1,.7,2,4.8,4.8,0,0,1,4.409,4.489,6.015,6.015,0,0,1,3.932,2.44,20.861,20.861,0,0,0,3.958,3.275,1.6,1.6,0,0,0,2.313-.462,1.6,1.6,0,0,0-.5-2.162c-.564-.5-1.157-.971-1.737-1.455l-5.947-4.967,1.9-2.271c.183.135.308.216.422.311,2.485,2.069,4.962,4.145,7.454,6.2a1.913,1.913,0,0,0,2.759.035c.671-.782.472-1.663-.588-2.549q-2.188-1.833-4.383-3.659c-1.011-.845-2.018-1.694-3.063-2.572l1.915-2.282c2.615,2.176,5.145,4.283,7.678,6.386a4.516,4.516,0,0,0,.731.529,1.819,1.819,0,0,0,2.227-.4,1.625,1.625,0,0,0-.188-2.214c-.162-.178-.353-.329-.533-.491q-5.76-5.184-11.52-10.37c-1.679-1.513-2.861-1.632-4.811-.467-1.71,1.023-3.388,2.106-5.14,3.05a4.968,4.968,0,0,1-7.341-4.126,4.992,4.992,0,0,1,2.943-5.151C-171.813,638.626-169.473,637.454-166.955,636.19Zm-11.6-3.9c.356-.056.652-.095.945-.149a18.677,18.677,0,0,1,8.521.238c3.479.968,6.967,1.9,10.446,2.868,2.7.751,5.4,1.536,8.1,2.289a6.752,6.752,0,0,0,1.156.161c.552.055.739-.224.734-.756-.019-1.632.034-3.265-.019-4.895a4.472,4.472,0,0,0-3.661-4.549c-2.54-.657-5.084-1.3-7.636-1.913-.508-.122-.7-.325-.686-.846.029-1.087.038-2.177-.012-3.263a1.168,1.168,0,0,1,.685-1.216,7.12,7.12,0,0,0,3.692-5.312,15.7,15.7,0,0,0,.051-4.065,11.766,11.766,0,0,0-1.03-3.7,7.18,7.18,0,0,0-7.48-3.809,7.129,7.129,0,0,0-5.953,5.14,23.645,23.645,0,0,0-.4,4.751,7.512,7.512,0,0,0,3.876,7.086,1.416,1.416,0,0,1,.553.983c.072,1.053-.023,2.117.043,3.17.046.723-.231.99-.9,1.147q-3.788.886-7.553,1.871A4.407,4.407,0,0,0-178.559,632.294Zm49.09-4.883-.048-.2c-2.106-.524-4.206-1.074-6.321-1.558-.642-.147-.905-.393-.864-1.079a26.157,26.157,0,0,0,0-2.989,1.29,1.29,0,0,1,.746-1.365,6.753,6.753,0,0,0,3.438-4.466,14.273,14.273,0,0,0-.193-7.341,7.58,7.58,0,0,0-6.9-5.123,7.186,7.186,0,0,0-7.151,5.308,23.374,23.374,0,0,0-.375,5.386,6.048,6.048,0,0,0,2.641,5.4c1.768,1.088,2.027,2.437,1.829,4.19a4.7,4.7,0,0,0,0,1.086c.074.611-.206.833-.775.961-1.424.319-2.832.7-4.427,1.109,2.712,2.644,2.091,5.967,2.19,9.228Zm-50.005-.7c-1.625-.415-3.073-.809-4.535-1.143a.676.676,0,0,1-.626-.8c.022-1.056.043-2.116-.012-3.17a1.3,1.3,0,0,1,.746-1.365,7.189,7.189,0,0,0,3.673-5.423,13.722,13.722,0,0,0,.045-3.7,13.443,13.443,0,0,0-1.077-3.961,7.142,7.142,0,0,0-7.407-3.771,7.041,7.041,0,0,0-5.974,5.1,26.141,26.141,0,0,0-.4,5.648,5.907,5.907,0,0,0,2.592,5.231c1.756,1.088,2.032,2.438,1.825,4.193a4.937,4.937,0,0,0,0,1.086.766.766,0,0,1-.74.981c-.823.145-1.626.4-2.462.618.072.115.09.18.132.2a46.045,46.045,0,0,0,5.167,2.981c2.109.9,2.8,2.278,2.336,4.407-.01.046.043.1.085.2,1.314-.292,2.641-.566,3.952-.9.211-.054.511-.365.509-.553A8.044,8.044,0,0,1-179.474,626.711Zm5.342-14.468c0-.641-.04-1.278.006-1.909a10.139,10.139,0,0,1,6.26-9.129,9.909,9.909,0,0,1,10.638,1.395c4.679,3.561,4.822,10.813,3.23,15.143a9.808,9.808,0,0,1-3.241,4.281c-.587.467-.608.978-.045,1.128,1.807.48,3.623.926,5.441,1.361a1.607,1.607,0,0,0,.7-.082c1.582-.389,3.163-.777,4.737-1.194.253-.067.659-.276.66-.422a1.4,1.4,0,0,0-.392-.81,20.08,20.08,0,0,1-2.38-2.7c-2.327-3.968-2.092-8.177-.9-12.434a1.752,1.752,0,0,0,.072-1.155c-3.227-5.454-8.063-8.4-14.368-8.387-6.149.017-10.9,2.876-14.152,8.158a1.561,1.561,0,0,0-.12,1.5,15.561,15.561,0,0,1-.183,11.226,9.8,9.8,0,0,1-3,3.8,1.631,1.631,0,0,0-.411.811c-.02.07.253.294.419.338,1.751.456,3.505.9,5.265,1.32a1.762,1.762,0,0,0,.79-.056c1.612-.393,3.221-.795,4.824-1.217.229-.06.612-.275.6-.374a1.579,1.579,0,0,0-.393-.814c-.552-.6-1.208-1.1-1.721-1.727A11.125,11.125,0,0,1-174.133,612.243Zm26.892-8.972c1.106-.7,2.172-1.367,3.226-2.053a.98.98,0,0,0,.314-.421c.46-1.05.924-2.1,1.343-3.164a.83.83,0,0,0-.06-.72c-1.471-1.511-2.975-2.99-4.516-4.523-1.245.81-2.44,1.625-3.679,2.365a1.186,1.186,0,0,1-1.018.028,24.383,24.383,0,0,0-7.083-2.914.889.889,0,0,1-.778-.825c-.218-1.186-.5-2.36-.722-3.547a.711.711,0,0,0-.838-.7q-2.627.043-5.255,0c-.5-.007-.689.2-.778.658-.23,1.185-.518,2.358-.727,3.546a.942.942,0,0,1-.835.882,22.139,22.139,0,0,0-6.982,2.907.881.881,0,0,1-1.132-.035c-1.018-.7-2.081-1.341-3.1-2.042a.653.653,0,0,0-1,.113q-1.9,1.948-3.847,3.843a.832.832,0,0,0-.231,1.1c.445.956.816,1.947,1.237,2.915a1.341,1.341,0,0,0,.408.567c1.034.708,2.088,1.387,3.174,2.1,3.913-5.725,9.332-8.98,16.372-9.011C-156.672,594.315-151.21,597.551-147.24,603.271Zm-59.832,19.449v21.563c0,1.238-.023,2.477.021,3.714a.961.961,0,0,0,.419.741c1.951.7,3.923,1.341,5.978,2.03l5.435-21.74c-3.535-2.061-7.018-4.1-10.523-6.11A4.152,4.152,0,0,0-207.072,622.72Zm12.3,30c.111-.335.213-.613.294-.9q.963-3.347,1.918-6.7c1.094-3.827,2.2-7.651,3.262-11.486.1-.369.1-1.025-.119-1.179-.946-.673-1.988-1.209-3.105-1.859-1.775,7.1-3.52,14.077-5.278,21.107Zm25.411,19.421c.136-.041.5-.042.691-.224a45.816,45.816,0,0,0,3.246-3.26,1.4,1.4,0,0,0-.25-1.966,1.4,1.4,0,0,0-1.969-.23,24.929,24.929,0,0,0-3.231,3.266C-171.621,670.671-170.741,672.09-169.365,672.143Zm-13.762-13.371c.46-.141.756-.144.91-.293a45.449,45.449,0,0,0,3.353-3.393,1.388,1.388,0,0,0-.363-1.947,1.433,1.433,0,0,0-1.99-.1,27.517,27.517,0,0,0-3.044,3.081,1.9,1.9,0,0,0-.075,1.657C-184.126,658.236-183.484,658.5-183.128,658.772Zm13.678,4.492a6.4,6.4,0,0,0-1.145-1.35,1.444,1.444,0,0,0-1.837.228q-1.32,1.239-2.572,2.547a1.668,1.668,0,0,0-.1,2.5,1.731,1.731,0,0,0,2.5-.173c.785-.751,1.568-1.508,2.295-2.314A9.151,9.151,0,0,0-169.45,663.264Zm-8.877-.093a1.868,1.868,0,0,0,.729-.278c1.088-1.04,2.191-2.073,3.179-3.2a1.4,1.4,0,0,0-.171-1.91,1.388,1.388,0,0,0-1.95-.345,22.559,22.559,0,0,0-3.356,3.383C-180.616,661.757-179.642,663.176-178.327,663.171Zm13.757,9.145c.8.807,1.607,1.706,2.86,1.192a1.91,1.91,0,0,0,.966-1.344c.12-1.266-1.079-1.622-1.731-2.315Z" fill="#222b5a"/>
    </g>
  </g>
</svg>
