<svg xmlns="http://www.w3.org/2000/svg" width="134" height="134" viewBox="0 0 134 134">
  <g id="Grupo_878577" data-name="Grupo 878577" transform="translate(-1000 -8807)">
    <circle id="Elipse_5064" data-name="Elipse 5064" cx="67" cy="67" r="67" transform="translate(1000 8807)" fill="#222b5a"/>
    <g id="Grupo_876816" data-name="Grupo 876816" transform="translate(420 7436.408)">
      <path id="Trazado_126225" data-name="Trazado 126225" d="M624.759,1465.253v-4.474c-.9,0-1.79,0-2.677,0a7.458,7.458,0,0,1-5.138-13.078,1.743,1.743,0,0,0,.423-1.036,9.039,9.039,0,0,1,8.135-8.225,8.948,8.948,0,0,1,9.441,6.77c.046.18.076.364.108.547.292,1.694.292,1.694,1.634,3.017a4.1,4.1,0,0,0,1.685-2.856,8.871,8.871,0,0,1,17.6.6c.1,1.182,1.042,1.5,1.5,2.285a4.106,4.106,0,0,0,1.731-2.9,8.79,8.79,0,0,1,9.21-7.471,9.024,9.024,0,0,1,8.46,8.194,2.142,2.142,0,0,0,.6,1.236,7.5,7.5,0,0,1,1.893,8.122,7.4,7.4,0,0,1-6.888,4.8c-.983.014-1.967,0-2.991,0v4.474h21.626c1.82,0,2.316.586,1.988,2.414-2.989,16.638-12.181,28.508-27.5,35.495a43.254,43.254,0,0,1-23.784,3.5c-15.568-1.991-27.317-9.873-35.264-23.409a44.8,44.8,0,0,1-5.513-16.1c-.189-1.237.472-1.9,1.869-1.9q10.321-.006,20.641,0Zm65.3,3.049H636.7c0,1.4.066,2.736-.031,4.062A3.137,3.137,0,0,1,636,1474a15.049,15.049,0,0,1-6.541,4.731,3.968,3.968,0,0,0-2.69,3.079,2.038,2.038,0,0,0,.331,2.11,9,9,0,0,1,2.214,7.2,3.249,3.249,0,0,1-1.435,2.788c-1.447.977-2.807,2.083-4.291,3.2a44.385,44.385,0,0,0,10.437,4.9.949.949,0,0,0,1.234-.4c1.447-1.862,2.9-3.722,4.428-5.516a3.4,3.4,0,0,1,1.65-1.028c1.789-.458,3.614-.777,5.505-1.166-.382-1.935-.72-3.792-1.124-5.634a1.739,1.739,0,0,1,.922-2.1c2.216-1.3,4.413-2.64,6.619-3.961,1.291-.773,1.507-.758,2.738.166,1.413,1.061,2.8,2.16,4.251,3.167a6.269,6.269,0,0,0,1.982.9c1.317.339,2.7.443,4,.84,2.109.646,3.91-.417,5.933-.732-.4-2-.753-3.887-1.151-5.762a1.8,1.8,0,0,1,.474-1.792c1.428-1.424,2.847-2.858,4.275-4.281a1.525,1.525,0,0,1,1.7-.39c1.081.376,2.166.746,3.265,1.065a2.12,2.12,0,0,0,1.161.039q3.228-1.028,6.422-2.16a1.155,1.155,0,0,0,.656-.646C689.36,1471.216,689.687,1469.8,690.059,1468.3Zm-2.533,8.406a21.776,21.776,0,0,0-2.257.742c-2.469,1.129-4.923,1.508-7.448.154a1.073,1.073,0,0,0-.938.226,31.821,31.821,0,0,0-2.427,2.439,1.42,1.42,0,0,0-.282,1.054c.333,1.893.735,3.774,1.112,5.659.245,1.221-.113,1.831-1.3,2.142-1.645.432-3.288.884-4.951,1.238a5.684,5.684,0,0,1-2.089.044q-3.02-.51-6.01-1.192a5.675,5.675,0,0,1-1.906-.864c-1.375-.952-2.7-1.975-4.02-3.01a.838.838,0,0,0-1.143-.056q-2.2,1.385-4.458,2.684a.843.843,0,0,0-.5,1.1c.41,1.782.728,3.586,1.083,5.381.247,1.252-.141,1.874-1.4,2.144-1.6.344-3.2.728-4.827.952a4.065,4.065,0,0,0-2.994,1.868c-.85,1.237-1.857,2.365-2.836,3.592A43.582,43.582,0,0,0,687.527,1476.708Zm-66.55,18.626c1.683-1.261,3.283-2.434,4.844-3.655a1.494,1.494,0,0,0,.449-.918,5.644,5.644,0,0,0-1.32-4.736,7.091,7.091,0,0,1-1.221-1.859,2.938,2.938,0,0,1-.219-1.731,24.589,24.589,0,0,1,1.258-3.79,3.267,3.267,0,0,1,1.258-1.465c1.415-.823,2.986-1.39,4.362-2.268a27.7,27.7,0,0,0,3.166-2.673.606.606,0,0,0,.161-.411c.013-1.17.007-2.341.007-3.544H604.213A43.386,43.386,0,0,0,620.977,1495.334Zm6.8-37.54c1.095,0,2.109.024,3.122-.005a4.455,4.455,0,0,0,4.106-3.1,4.319,4.319,0,0,0-1.652-4.939,2.3,2.3,0,0,1-1.147-2.3,5.92,5.92,0,1,0-11.837-.023,2.31,2.31,0,0,1-1.126,2.316,4.11,4.11,0,0,0-1.832,4.2,3.989,3.989,0,0,0,2.979,3.57,24.784,24.784,0,0,0,4.272.366c.41-1.579.085-2.595-1.272-3.243a20.593,20.593,0,0,1-2.391-1.563l1.645-2.464,2.2,1.415V1448.9h2.942v3.082l2.158-1.357,1.622,2.445c-1.122.757-2.205,1.469-3.263,2.218a1.185,1.185,0,0,0-.5.676A14.756,14.756,0,0,0,627.775,1457.794Zm20.807-8.921V1452l2.192-1.38,1.626,2.453c-.918.614-1.788,1.2-2.66,1.78-1.26.841-1.43,1.34-.976,2.939.982,0,1.972.024,2.962-.005a4.456,4.456,0,0,0,4.107-3.095,4.287,4.287,0,0,0-1.579-4.881,2.473,2.473,0,0,1-1.222-2.455,5.918,5.918,0,1,0-11.835.068,2.308,2.308,0,0,1-1.126,2.317,4.11,4.11,0,0,0-1.832,4.2,3.988,3.988,0,0,0,2.979,3.571,24.839,24.839,0,0,0,4.274.366c.407-1.578.086-2.595-1.272-3.243a20.479,20.479,0,0,1-2.392-1.564l1.644-2.464,2.2,1.414v-3.151Zm20.952,8.922c1.008,0,1.995.02,2.98,0a4.452,4.452,0,0,0,4.163-3.145,4.321,4.321,0,0,0-1.7-4.922,2.21,2.21,0,0,1-1.108-2.23,5.922,5.922,0,1,0-11.838-.018,2.24,2.24,0,0,1-1.091,2.24,4.129,4.129,0,0,0-1.822,4.458,4.053,4.053,0,0,0,3.426,3.476,24.58,24.58,0,0,0,3.919.039,4.517,4.517,0,0,1,.006-.729,1.793,1.793,0,0,0-1.071-2.089c-.944-.5-1.8-1.177-2.734-1.8l1.654-2.458,2.155,1.4v-3.095h3.019v3.052l2.115-1.352,1.622,2.459a17.735,17.735,0,0,1-2.319,1.528,2.4,2.4,0,0,0-1.448,2.989C669.463,1457.618,669.478,1457.645,669.534,1457.8Zm-23.944,2.933c-3.436.266-6.639.054-8.9-3-2.327,3.15-5.594,3.2-8.865,3.033v4.43H645.59Zm20.85.014c-3.4.23-6.629.076-8.912-3.011-2.3,3.12-5.546,3.217-8.858,3.026v4.422h17.77Z" transform="translate(0 -18.025)" fill="#fff"/>
      <path id="Trazado_126226" data-name="Trazado 126226" d="M612.468,1407.326c.452-2.181,1.423-2.981,3.549-2.982q4.788,0,9.576,0a4.483,4.483,0,1,1-.011,8.945c-1.826.005-3.653,0-5.554,0-.037.193-.061.365-.1.531a2.985,2.985,0,0,1-3.074,2.447q-4.322.021-8.646,0a4.472,4.472,0,1,1,.016-8.941C609.614,1407.317,611.007,1407.326,612.468,1407.326Zm4.41,5.96c.674-2.386,1.46-2.978,3.907-2.979,1.7,0,3.4.019,5.106-.012a1.465,1.465,0,0,0,1.512-1.447,1.438,1.438,0,0,0-1.446-1.506c-3.462-.027-6.925-.011-10.371-.011-.53,2.255-1.45,2.975-3.731,2.977-1.238,0-2.476-.02-3.714.01a1.47,1.47,0,0,0-1.553,1.5,1.449,1.449,0,0,0,1.494,1.462C611.017,1413.3,613.955,1413.287,616.877,1413.287Z" transform="translate(-1.123 -3.341)" fill="#fff"/>
      <path id="Trazado_126227" data-name="Trazado 126227" d="M671.6,1410.259a5.95,5.95,0,1,1,5.925,6.014A5.964,5.964,0,0,1,671.6,1410.259Zm5.941-2.928a2.977,2.977,0,1,0,2.979,2.948A2.983,2.983,0,0,0,677.545,1407.331Z" transform="translate(-30.437 -3.343)" fill="#fff"/>
      <path id="Trazado_126228" data-name="Trazado 126228" d="M743.236,1408.792H740.4c-.238-.809-.644-1.5-1.622-1.459-.884.035-1.283.643-1.484,1.431h-2.923a4.476,4.476,0,0,1,7.426-3.3,4.459,4.459,0,0,1,5.352-.435,4.127,4.127,0,0,1,2.021,3.745h-2.825c-.231-.792-.639-1.477-1.618-1.437C743.84,1407.369,743.442,1407.977,743.236,1408.792Z" transform="translate(-57.494 -3.332)" fill="#fff"/>
      <path id="Trazado_126229" data-name="Trazado 126229" d="M728.729,1418.573a4.41,4.41,0,0,1,5.176-.536,4.337,4.337,0,0,1,2.262,3.837h-2.9c-.225-.789-.635-1.473-1.612-1.436-.884.034-1.285.64-1.489,1.448h-2.847c-.228-.8-.637-1.484-1.612-1.448-.884.033-1.286.64-1.488,1.432h-2.922a4.476,4.476,0,0,1,7.437-3.3Z" transform="translate(-51.857 -8.983)" fill="#fff"/>
      <path id="Trazado_126230" data-name="Trazado 126230" d="M669.428,1404.229l-1.96-1.932,1.962-1.974,1.951,1.9Z" transform="translate(-28.654 -1.608)" fill="#fff"/>
      <path id="Trazado_126231" data-name="Trazado 126231" d="M690.018,1402.119l1.782-1.767,1.865,2.055-2.026,1.671Z" transform="translate(-38.375 -1.621)" fill="#fff"/>
      <path id="Trazado_126232" data-name="Trazado 126232" d="M669.667,1422.563l1.9,1.939-2.191,1.861-1.761-1.966Z" transform="translate(-28.717 -11.196)" fill="#fff"/>
      <path id="Trazado_126233" data-name="Trazado 126233" d="M691.482,1426.472l-1.866-1.911,2.145-1.788,1.715,1.913Z" transform="translate(-38.202 -11.286)" fill="#fff"/>
      <path id="Trazado_126234" data-name="Trazado 126234" d="M682.4,1399.492h-2.827v-2.9H682.4Z" transform="translate(-33.871)" fill="#fff"/>
      <path id="Trazado_126235" data-name="Trazado 126235" d="M666.732,1412.3v2.862H663.86V1412.3Z" transform="translate(-27.098 -6.772)" fill="#fff"/>
      <path id="Trazado_126236" data-name="Trazado 126236" d="M695.172,1415.188v-2.846h2.889v2.846Z" transform="translate(-40.597 -6.79)" fill="#fff"/>
      <path id="Trazado_126237" data-name="Trazado 126237" d="M682.424,1428.027v2.861h-2.871v-2.861Z" transform="translate(-33.864 -13.551)" fill="#fff"/>
    </g>
    <circle id="Elipse_5151" data-name="Elipse 5151" cx="67" cy="67" r="67" transform="translate(1000 8807)" fill="#222b5a"/>
    <g id="Grupo_878575" data-name="Grupo 878575" transform="translate(420 7436.408)">
      <path id="Trazado_126225-2" data-name="Trazado 126225" d="M624.759,1465.253v-4.474c-.9,0-1.79,0-2.677,0a7.458,7.458,0,0,1-5.138-13.078,1.743,1.743,0,0,0,.423-1.036,9.039,9.039,0,0,1,8.135-8.225,8.948,8.948,0,0,1,9.441,6.77c.046.18.076.364.108.547.292,1.694.292,1.694,1.634,3.017a4.1,4.1,0,0,0,1.685-2.856,8.871,8.871,0,0,1,17.6.6c.1,1.182,1.042,1.5,1.5,2.285a4.106,4.106,0,0,0,1.731-2.9,8.79,8.79,0,0,1,9.21-7.471,9.024,9.024,0,0,1,8.46,8.194,2.142,2.142,0,0,0,.6,1.236,7.5,7.5,0,0,1,1.893,8.122,7.4,7.4,0,0,1-6.888,4.8c-.983.014-1.967,0-2.991,0v4.474h21.626c1.82,0,2.316.586,1.988,2.414-2.989,16.638-12.181,28.508-27.5,35.495a43.254,43.254,0,0,1-23.784,3.5c-15.568-1.991-27.317-9.873-35.264-23.409a44.8,44.8,0,0,1-5.513-16.1c-.189-1.237.472-1.9,1.869-1.9q10.321-.006,20.641,0Zm65.3,3.049H636.7c0,1.4.066,2.736-.031,4.062A3.137,3.137,0,0,1,636,1474a15.049,15.049,0,0,1-6.541,4.731,3.968,3.968,0,0,0-2.69,3.079,2.038,2.038,0,0,0,.331,2.11,9,9,0,0,1,2.214,7.2,3.249,3.249,0,0,1-1.435,2.788c-1.447.977-2.807,2.083-4.291,3.2a44.385,44.385,0,0,0,10.437,4.9.949.949,0,0,0,1.234-.4c1.447-1.862,2.9-3.722,4.428-5.516a3.4,3.4,0,0,1,1.65-1.028c1.789-.458,3.614-.777,5.505-1.166-.382-1.935-.72-3.792-1.124-5.634a1.739,1.739,0,0,1,.922-2.1c2.216-1.3,4.413-2.64,6.619-3.961,1.291-.773,1.507-.758,2.738.166,1.413,1.061,2.8,2.16,4.251,3.167a6.269,6.269,0,0,0,1.982.9c1.317.339,2.7.443,4,.84,2.109.646,3.91-.417,5.933-.732-.4-2-.753-3.887-1.151-5.762a1.8,1.8,0,0,1,.474-1.792c1.428-1.424,2.847-2.858,4.275-4.281a1.525,1.525,0,0,1,1.7-.39c1.081.376,2.166.746,3.265,1.065a2.12,2.12,0,0,0,1.161.039q3.228-1.028,6.422-2.16a1.155,1.155,0,0,0,.656-.646C689.36,1471.216,689.687,1469.8,690.059,1468.3Zm-2.533,8.406a21.776,21.776,0,0,0-2.257.742c-2.469,1.129-4.923,1.508-7.448.154a1.073,1.073,0,0,0-.938.226,31.821,31.821,0,0,0-2.427,2.439,1.42,1.42,0,0,0-.282,1.054c.333,1.893.735,3.774,1.112,5.659.245,1.221-.113,1.831-1.3,2.142-1.645.432-3.288.884-4.951,1.238a5.684,5.684,0,0,1-2.089.044q-3.02-.51-6.01-1.192a5.675,5.675,0,0,1-1.906-.864c-1.375-.952-2.7-1.975-4.02-3.01a.838.838,0,0,0-1.143-.056q-2.2,1.385-4.458,2.684a.843.843,0,0,0-.5,1.1c.41,1.782.728,3.586,1.083,5.381.247,1.252-.141,1.874-1.4,2.144-1.6.344-3.2.728-4.827.952a4.065,4.065,0,0,0-2.994,1.868c-.85,1.237-1.857,2.365-2.836,3.592A43.582,43.582,0,0,0,687.527,1476.708Zm-66.55,18.626c1.683-1.261,3.283-2.434,4.844-3.655a1.494,1.494,0,0,0,.449-.918,5.644,5.644,0,0,0-1.32-4.736,7.091,7.091,0,0,1-1.221-1.859,2.938,2.938,0,0,1-.219-1.731,24.589,24.589,0,0,1,1.258-3.79,3.267,3.267,0,0,1,1.258-1.465c1.415-.823,2.986-1.39,4.362-2.268a27.7,27.7,0,0,0,3.166-2.673.606.606,0,0,0,.161-.411c.013-1.17.007-2.341.007-3.544H604.213A43.386,43.386,0,0,0,620.977,1495.334Zm6.8-37.54c1.095,0,2.109.024,3.122-.005a4.455,4.455,0,0,0,4.106-3.1,4.319,4.319,0,0,0-1.652-4.939,2.3,2.3,0,0,1-1.147-2.3,5.92,5.92,0,1,0-11.837-.023,2.31,2.31,0,0,1-1.126,2.316,4.11,4.11,0,0,0-1.832,4.2,3.989,3.989,0,0,0,2.979,3.57,24.784,24.784,0,0,0,4.272.366c.41-1.579.085-2.595-1.272-3.243a20.593,20.593,0,0,1-2.391-1.563l1.645-2.464,2.2,1.415V1448.9h2.942v3.082l2.158-1.357,1.622,2.445c-1.122.757-2.205,1.469-3.263,2.218a1.185,1.185,0,0,0-.5.676A14.756,14.756,0,0,0,627.775,1457.794Zm20.807-8.921V1452l2.192-1.38,1.626,2.453c-.918.614-1.788,1.2-2.66,1.78-1.26.841-1.43,1.34-.976,2.939.982,0,1.972.024,2.962-.005a4.456,4.456,0,0,0,4.107-3.095,4.287,4.287,0,0,0-1.579-4.881,2.473,2.473,0,0,1-1.222-2.455,5.918,5.918,0,1,0-11.835.068,2.308,2.308,0,0,1-1.126,2.317,4.11,4.11,0,0,0-1.832,4.2,3.988,3.988,0,0,0,2.979,3.571,24.839,24.839,0,0,0,4.274.366c.407-1.578.086-2.595-1.272-3.243a20.479,20.479,0,0,1-2.392-1.564l1.644-2.464,2.2,1.414v-3.151Zm20.952,8.922c1.008,0,1.995.02,2.98,0a4.452,4.452,0,0,0,4.163-3.145,4.321,4.321,0,0,0-1.7-4.922,2.21,2.21,0,0,1-1.108-2.23,5.922,5.922,0,1,0-11.838-.018,2.24,2.24,0,0,1-1.091,2.24,4.129,4.129,0,0,0-1.822,4.458,4.053,4.053,0,0,0,3.426,3.476,24.58,24.58,0,0,0,3.919.039,4.517,4.517,0,0,1,.006-.729,1.793,1.793,0,0,0-1.071-2.089c-.944-.5-1.8-1.177-2.734-1.8l1.654-2.458,2.155,1.4v-3.095h3.019v3.052l2.115-1.352,1.622,2.459a17.735,17.735,0,0,1-2.319,1.528,2.4,2.4,0,0,0-1.448,2.989C669.463,1457.618,669.478,1457.645,669.534,1457.8Zm-23.944,2.933c-3.436.266-6.639.054-8.9-3-2.327,3.15-5.594,3.2-8.865,3.033v4.43H645.59Zm20.85.014c-3.4.23-6.629.076-8.912-3.011-2.3,3.12-5.546,3.217-8.858,3.026v4.422h17.77Z" transform="translate(0 -18.025)" fill="#fff"/>
      <path id="Trazado_126226-2" data-name="Trazado 126226" d="M612.468,1407.326c.452-2.181,1.423-2.981,3.549-2.982q4.788,0,9.576,0a4.483,4.483,0,1,1-.011,8.945c-1.826.005-3.653,0-5.554,0-.037.193-.061.365-.1.531a2.985,2.985,0,0,1-3.074,2.447q-4.322.021-8.646,0a4.472,4.472,0,1,1,.016-8.941C609.614,1407.317,611.007,1407.326,612.468,1407.326Zm4.41,5.96c.674-2.386,1.46-2.978,3.907-2.979,1.7,0,3.4.019,5.106-.012a1.465,1.465,0,0,0,1.512-1.447,1.438,1.438,0,0,0-1.446-1.506c-3.462-.027-6.925-.011-10.371-.011-.53,2.255-1.45,2.975-3.731,2.977-1.238,0-2.476-.02-3.714.01a1.47,1.47,0,0,0-1.553,1.5,1.449,1.449,0,0,0,1.494,1.462C611.017,1413.3,613.955,1413.287,616.877,1413.287Z" transform="translate(-1.123 -3.341)" fill="#fff"/>
      <path id="Trazado_126227-2" data-name="Trazado 126227" d="M671.6,1410.259a5.95,5.95,0,1,1,5.925,6.014A5.964,5.964,0,0,1,671.6,1410.259Zm5.941-2.928a2.977,2.977,0,1,0,2.979,2.948A2.983,2.983,0,0,0,677.545,1407.331Z" transform="translate(-30.437 -3.343)" fill="#fff"/>
      <path id="Trazado_126228-2" data-name="Trazado 126228" d="M743.236,1408.792H740.4c-.238-.809-.644-1.5-1.622-1.459-.884.035-1.283.643-1.484,1.431h-2.923a4.476,4.476,0,0,1,7.426-3.3,4.459,4.459,0,0,1,5.352-.435,4.127,4.127,0,0,1,2.021,3.745h-2.825c-.231-.792-.639-1.477-1.618-1.437C743.84,1407.369,743.442,1407.977,743.236,1408.792Z" transform="translate(-57.494 -3.332)" fill="#fff"/>
      <path id="Trazado_126229-2" data-name="Trazado 126229" d="M728.729,1418.573a4.41,4.41,0,0,1,5.176-.536,4.337,4.337,0,0,1,2.262,3.837h-2.9c-.225-.789-.635-1.473-1.612-1.436-.884.034-1.285.64-1.489,1.448h-2.847c-.228-.8-.637-1.484-1.612-1.448-.884.033-1.286.64-1.488,1.432h-2.922a4.476,4.476,0,0,1,7.437-3.3Z" transform="translate(-51.857 -8.983)" fill="#fff"/>
      <path id="Trazado_126230-2" data-name="Trazado 126230" d="M669.428,1404.229l-1.96-1.932,1.962-1.974,1.951,1.9Z" transform="translate(-28.654 -1.608)" fill="#fff"/>
      <path id="Trazado_126231-2" data-name="Trazado 126231" d="M690.018,1402.119l1.782-1.767,1.865,2.055-2.026,1.671Z" transform="translate(-38.375 -1.621)" fill="#fff"/>
      <path id="Trazado_126232-2" data-name="Trazado 126232" d="M669.667,1422.563l1.9,1.939-2.191,1.861-1.761-1.966Z" transform="translate(-28.717 -11.196)" fill="#fff"/>
      <path id="Trazado_126233-2" data-name="Trazado 126233" d="M691.482,1426.472l-1.866-1.911,2.145-1.788,1.715,1.913Z" transform="translate(-38.202 -11.286)" fill="#fff"/>
      <path id="Trazado_126234-2" data-name="Trazado 126234" d="M682.4,1399.492h-2.827v-2.9H682.4Z" transform="translate(-33.871)" fill="#fff"/>
      <path id="Trazado_126235-2" data-name="Trazado 126235" d="M666.732,1412.3v2.862H663.86V1412.3Z" transform="translate(-27.098 -6.772)" fill="#fff"/>
      <path id="Trazado_126236-2" data-name="Trazado 126236" d="M695.172,1415.188v-2.846h2.889v2.846Z" transform="translate(-40.597 -6.79)" fill="#fff"/>
      <path id="Trazado_126237-2" data-name="Trazado 126237" d="M682.424,1428.027v2.861h-2.871v-2.861Z" transform="translate(-33.864 -13.551)" fill="#fff"/>
    </g>
  </g>
</svg>
