<svg xmlns="http://www.w3.org/2000/svg" width="134" height="134" viewBox="0 0 134 134">
  <g id="Grupo_878567" data-name="Grupo 878567" transform="translate(-319.067 -4690)">
    <circle id="Elipse_5085" data-name="Elipse 5085" cx="67" cy="67" r="67" transform="translate(319.067 4690)" fill="#ee4e5d"/>
    <g id="Grupo_877772" data-name="Grupo 877772" transform="translate(1068.137 3885.909)">
      <path id="Trazado_126575" data-name="Trazado 126575" d="M-709.686,909.271a3.751,3.751,0,0,1-2.839-2.856,5.588,5.588,0,0,1-.091-1.109q-.006-31.779,0-63.557a3.633,3.633,0,0,1,3.976-4q23.427,0,46.855,0a3.62,3.62,0,0,1,3.982,3.988q.013,10.755,0,21.512a3.129,3.129,0,0,1-.068.762,1.06,1.06,0,0,1-1.049.859,1.058,1.058,0,0,1-1.166-.793,3.748,3.748,0,0,1-.1-1.035q-.008-10.546,0-21.093c0-1.484-.332-1.82-1.792-1.82h-46.436c-1.47,0-1.819.346-1.819,1.8q0,31.569,0,63.138c0,1.476.341,1.82,1.8,1.82H-662c1.476,0,1.81-.331,1.811-1.8q0-5.343,0-10.686a3.732,3.732,0,0,1,.092-.967,1.053,1.053,0,0,1,1.146-.819,1.053,1.053,0,0,1,1.084.9,4.428,4.428,0,0,1,.06.9c0,3.4-.069,6.8.028,10.2.064,2.26-.634,3.9-2.881,4.654Z" fill="#fff"/>
      <path id="Trazado_126576" data-name="Trazado 126576" d="M-609.1,872.333l-1.015,2.189c.757.673.51,1.407.038,2.193-.9,1.491-1.747,3.01-2.646,4.567.328.2.621.372.913.55a3.548,3.548,0,0,1,1.382,5c-1.509,2.7-3.075,5.367-4.63,8.04a1.209,1.209,0,0,1-1.693.613c-.631-.355-.769-1.037-.322-1.821,1.406-2.464,2.828-4.919,4.243-7.378.925-1.606.744-2.123-1.06-2.909-.126.205-.26.415-.384.631-2.855,4.957-5.749,9.892-8.545,14.883a42.992,42.992,0,0,1-3.92,5.412q-1.567,2-2.982,4.114a3.829,3.829,0,0,1-3.756,1.912,1.008,1.008,0,0,0-.731.335c-.794.944-1.532,1.933-2.311,2.889a2.393,2.393,0,0,1-4.311-.62c-.205-.489-.4-.982-.637-1.561-.151.2-.263.324-.358.465a2.494,2.494,0,0,1-2.718,1.255,2.538,2.538,0,0,1-1.85-2.505,40.151,40.151,0,0,0-.472-4.045c-.077.194-.162.386-.229.584-.843,2.535-1.676,5.074-2.528,7.606-.323.96-1.094,1.273-1.832.769a1.147,1.147,0,0,1-.458-1.413c.969-2.934,1.93-5.871,2.939-8.792a2.35,2.35,0,0,1,2.547-1.53,2.328,2.328,0,0,1,2.009,2.025c.188,1.541.3,3.093.451,4.765.259-.348.446-.625.659-.88a2.319,2.319,0,0,1,3.833.315c.374.661.627,1.391.961,2.151.842-1.031,1.659-2.014,2.446-3.019a.618.618,0,0,0,.014-.541,3.646,3.646,0,0,1,.1-3.726c1.506-2.567,2.277-5.436,3.384-8.167a9.1,9.1,0,0,1,.537-1.13q4.7-8.162,9.407-16.318c.127-.219.247-.441.369-.657-1.552-1.1-1.835-1.552-1.421-2.259s.928-.682,2.641.107c.115-.178.245-.36.357-.552.836-1.423,1.675-2.846,2.5-4.275a1.423,1.423,0,0,1,1.469-.836.882.882,0,0,0,.627-.439,3.94,3.94,0,0,1,2.6-2.161,3.583,3.583,0,0,1,4.221,2.462c.048.152.107.3.16.449Zm-16.42,26.307,9.53-16.518-4.124-2.381-9.53,16.516Zm8.983-25.087-2.379,4.123,4.12,2.382,2.381-4.123Zm-13.43,30.772,3.082-3.728-3.752-2.166-1.682,4.524Zm17.731-31.045c.327-.736,1.066-1.32.57-2.14a1.524,1.524,0,0,0-1.112-.619c-.95-.008-1.1.9-1.527,1.566Zm-19,33.078-2.074-1.176c-.366.735-1.048,1.339-.555,2.149a1.471,1.471,0,0,0,1.06.594C-631.857,907.946-631.682,907.055-631.236,906.359Z" transform="translate(-32.006 -16.012)" fill="#fff"/>
      <path id="Trazado_126577" data-name="Trazado 126577" d="M-687.466,855.266v2.385h.906q14.071,0,28.141,0a5,5,0,0,1,.97.076,1.058,1.058,0,0,1,.9,1.158,1.064,1.064,0,0,1-.965,1.1,5.589,5.589,0,0,1-.835.048q-14.839,0-29.678,0c-1.548,0-1.85-.3-1.851-1.819,0-1.257,0-2.514,0-3.772.005-1.146.411-1.563,1.555-1.566,2.584-.008,5.168,0,7.751,0q11.1,0,22.206,0a3.7,3.7,0,0,1,1.033.109,1.054,1.054,0,0,1,.779,1.176,1.071,1.071,0,0,1-.946,1.053,5.5,5.5,0,0,1-.905.041q-14.071,0-28.141,0Z" transform="translate(-12.003 -7.988)" fill="#fff"/>
      <path id="Trazado_126578" data-name="Trazado 126578" d="M-692.338,936.186a10.42,10.42,0,0,1,5.814,1.923,1.209,1.209,0,0,1,.474,1.685,1.171,1.171,0,0,1-1.764.3,8.21,8.21,0,0,0-4.152-1.474,7.727,7.727,0,0,0-8.165,7.116,7.767,7.767,0,0,0,6.958,8.312,7.719,7.719,0,0,0,8.385-6.436c.065-.388.082-.785.119-1.177.077-.814.584-1.313,1.286-1.263.677.049,1.084.56,1.088,1.367a10.14,10.14,0,0,1-8.573,9.807,10.1,10.1,0,0,1-11.615-9.02,10.161,10.161,0,0,1,8.551-10.973C-693.4,936.286-692.869,936.24-692.338,936.186Z" transform="translate(-5.317 -51.966)" fill="#fff"/>
      <path id="Trazado_126579" data-name="Trazado 126579" d="M-657.949,893.138q-6.211,0-12.421,0a4.87,4.87,0,0,1-.835-.036,1.066,1.066,0,0,1-.948-1.045,1.056,1.056,0,0,1,.762-1.184,2.9,2.9,0,0,1,.891-.113q12.6-.009,25.19,0a3.291,3.291,0,0,1,.826.088,1.061,1.061,0,0,1,.856,1.186,1.075,1.075,0,0,1-1,1.075,5.161,5.161,0,0,1-.765.03Q-651.669,893.139-657.949,893.138Z" transform="translate(-21.359 -27.982)" fill="#fff"/>
      <path id="Trazado_126580" data-name="Trazado 126580" d="M-681.8,908.3q-5.615,0-11.23,0a5.183,5.183,0,0,1-.9-.057,1.056,1.056,0,0,1-.941-1.117,1.059,1.059,0,0,1,.913-1.142,4.1,4.1,0,0,1,.83-.071q11.335,0,22.669,0a4.531,4.531,0,0,1,.626.028,1.145,1.145,0,0,1,1.117,1.19,1.149,1.149,0,0,1-1.154,1.152,6.454,6.454,0,0,1-.7.02Q-676.189,908.3-681.8,908.3Z" transform="translate(-9.366 -35.984)" fill="#fff"/>
      <path id="Trazado_126581" data-name="Trazado 126581" d="M-669.17,873.113h11.162c.232,0,.466-.008.7.011a1.183,1.183,0,0,1,1.22,1.172,1.212,1.212,0,0,1-1.211,1.191,6.578,6.578,0,0,1-.7.015q-11.2,0-22.393,0a4.993,4.993,0,0,1-.969-.075,1.054,1.054,0,0,1-.9-1.152,1.061,1.061,0,0,1,.955-1.108,5.269,5.269,0,0,1,.833-.049Q-674.82,873.11-669.17,873.113Z" transform="translate(-16.027 -18.669)" fill="#fff"/>
      <path id="Trazado_126582" data-name="Trazado 126582" d="M-687.662,920.915q-2.932,0-5.864,0c-.571,0-1.081-.227-1.181-.774a1.882,1.882,0,0,1,.312-1.253,1.275,1.275,0,0,1,.937-.338q5.759-.033,11.519-.01c.87,0,1.413.509,1.391,1.228-.021.7-.536,1.141-1.389,1.145C-683.845,920.921-685.754,920.915-687.662,920.915Z" transform="translate(-9.447 -42.646)" fill="#fff"/>
      <path id="Trazado_126583" data-name="Trazado 126583" d="M-686.789,954.838l3.584-3.616c.164-.165.323-.335.5-.49a1.2,1.2,0,0,1,1.743-.05,1.194,1.194,0,0,1-.085,1.743c-.412.442-.85.859-1.277,1.287-.9.9-1.792,1.824-2.713,2.709a2.374,2.374,0,0,1-3.489.018c-.792-.751-1.557-1.531-2.318-2.315a1.227,1.227,0,0,1-.134-1.844c.524-.508,1.19-.449,1.841.191C-688.365,953.235-687.607,954.014-686.789,954.838Z" transform="translate(-11.233 -59.433)" fill="#fff"/>
      <path id="Trazado_126584" data-name="Trazado 126584" d="M-628.975,908.3c-1.324,0-2.649.018-3.973-.006-.888-.016-1.39-.5-1.348-1.243a1.06,1.06,0,0,1,.849-1.054,3.772,3.772,0,0,1,.9-.083q3.59-.01,7.18,0a4.313,4.313,0,0,1,.761.058,1.069,1.069,0,0,1,.97,1.164,1.031,1.031,0,0,1-1.017,1.116c-1.042.059-2.089.04-3.133.051-.4,0-.79,0-1.185,0Z" transform="translate(-41.345 -35.983)" fill="#fff"/>
      <path id="Trazado_126585" data-name="Trazado 126585" d="M-654.177,920.913c-1.325,0-2.65.006-3.975,0-.889-.005-1.437-.458-1.446-1.169s.548-1.2,1.423-1.205q3.94-.016,7.881,0c.869,0,1.424.509,1.407,1.218s-.556,1.151-1.455,1.157C-651.62,920.919-652.9,920.913-654.177,920.913Z" transform="translate(-27.99 -42.644)" fill="#fff"/>
    </g>
  </g>
</svg>
