<svg xmlns="http://www.w3.org/2000/svg" width="295" height="202.994" viewBox="0 0 295 202.994">
  <g id="Grupo_878573" data-name="Grupo 878573" transform="translate(-285 -6705.252)">
    <g id="Grupo_876671" data-name="Grupo 876671" transform="translate(-122.243 6211.112)">
      <path id="Trazado_125691" data-name="Trazado 125691" d="M470.472,530.894l-8.982,1.01V533.8l8.982-1.01Z" transform="translate(20.034 13.574)" fill="#ef9543"/>
      <path id="Trazado_125692" data-name="Trazado 125692" d="M450.879,533.133l-8.531-.251v1.892l8.531.251Z" transform="translate(12.964 14.308)" fill="#ef9543"/>
      <path id="Trazado_125693" data-name="Trazado 125693" d="M450.13,533.766l-7.045-.135v14.93l7.045-1.081Z" transform="translate(13.236 14.584)" fill="#ef9543"/>
      <path id="Trazado_125694" data-name="Trazado 125694" d="M469.206,531.263l-7.045,1.081v14.93l7.045-1.081Z" transform="translate(20.282 13.71)" fill="#ef9543"/>
      <rect id="Rectángulo_293829" data-name="Rectángulo 293829" width="4.932" height="14.93" transform="translate(422.962 622.258)" fill="#b75513"/>
      <path id="Trazado_125695" data-name="Trazado 125695" d="M483.276,570.782l-.811.067v8.175l1.689.2Z" transform="translate(27.78 28.304)" fill="#492020"/>
      <path id="Trazado_125696" data-name="Trazado 125696" d="M482.482,573.207l.585.574,2.291-8.9-1.638-.2Z" transform="translate(27.786 26.048)" fill="#492020"/>
      <rect id="Rectángulo_293830" data-name="Rectángulo 293830" width="3.783" height="2.432" transform="matrix(0.744, 0.668, -0.668, 0.744, 571.466, 543.479)" fill="#d14a4a"/>
      <rect id="Rectángulo_293831" data-name="Rectángulo 293831" width="3.783" height="2.432" transform="matrix(0.983, -0.182, 0.182, 0.983, 562.953, 538.853)" fill="#a03346"/>
      <rect id="Rectángulo_293832" data-name="Rectángulo 293832" width="3.783" height="2.432" transform="matrix(0.983, -0.182, 0.182, 0.983, 563.02, 545.339)" fill="#822237"/>
      <rect id="Rectángulo_293833" data-name="Rectángulo 293833" width="7.026" height="4.459" transform="translate(551.455 548.216)" fill="#822237"/>
      <path id="Trazado_125697" data-name="Trazado 125697" d="M529.786,539.013c0-.2-.541-5.135-.541-5.135l-2.635.27-.405,1.554-2.973-.27-.472,1.08-5.066-.744-1.284,1.959,9.593,1.69Z" transform="translate(40.315 14.676)" fill="#822237"/>
      <path id="Trazado_125698" data-name="Trazado 125698" d="M616.342,604.163l-26.87.437-1.692,32.108h31.936Z" transform="translate(66.673 40.632)" fill="#ffa14d"/>
      <path id="Trazado_125699" data-name="Trazado 125699" d="M616.437,607.025l-28.652-16.752-.922,34.585,31.166-2.477Z" transform="translate(66.334 35.503)" fill="#ef732e"/>
      <path id="Trazado_125700" data-name="Trazado 125700" d="M609.928,576.62H574.265l10.841,44.619h43.025Z" transform="translate(61.682 30.46)" fill="#a84e47"/>
      <path id="Trazado_125701" data-name="Trazado 125701" d="M609.575,619.8,589.314,576.62H574.265l10.841,44.619h43.025l-.588-1.441Z" transform="translate(61.682 30.46)" fill="#8c443e"/>
      <path id="Trazado_125702" data-name="Trazado 125702" d="M443.85,608.2H411.914l1.753,25.762H445.6Z" transform="translate(1.725 42.121)" fill="#a55050"/>
      <path id="Trazado_125703" data-name="Trazado 125703" d="M452.27,613.59H420.334l3.374,18.376h31.936Z" transform="translate(4.834 44.113)" fill="#6b2a2a"/>
      <path id="Trazado_125704" data-name="Trazado 125704" d="M444.31,608.459h-32.2l.859,16.754h32.2Z" transform="translate(1.798 42.219)" fill="#6b2a2a"/>
      <path id="Trazado_125705" data-name="Trazado 125705" d="M443.54,626.7l-35.31,1.441,10.287-34.976,28.446-4.838Z" transform="translate(0.364 34.785)" fill="#cc7627"/>
      <path id="Trazado_125706" data-name="Trazado 125706" d="M420.505,591.615l-1.988.338L408.23,626.93l24.441-1Z" transform="translate(0.364 35.998)" fill="#ef9543"/>
      <path id="Trazado_125707" data-name="Trazado 125707" d="M442.733,616.287l-35.49,1.261v1.261l35.49-1.261Z" transform="translate(0 45.11)" fill="#f4bc84"/>
      <rect id="Rectángulo_293834" data-name="Rectángulo 293834" width="4.679" height="2.797" transform="translate(534.148 557.568) rotate(16.065)" fill="#a03346"/>
      <rect id="Rectángulo_293835" data-name="Rectángulo 293835" width="4.679" height="2.797" transform="translate(535.586 567.595) rotate(-19.843)" fill="#822237"/>
      <rect id="Rectángulo_293836" data-name="Rectángulo 293836" width="7.835" height="3.783" transform="translate(423.124 596.621) rotate(-8.769)" fill="#724e50"/>
      <rect id="Rectángulo_293837" data-name="Rectángulo 293837" width="7.837" height="3.783" transform="matrix(0.897, 0.443, -0.443, 0.897, 421.637, 605.451)" fill="#724e50"/>
      <path id="Trazado_125708" data-name="Trazado 125708" d="M512.66,572.842l-16.349-36.481-39.753,17.826,54.446,20.478Z" transform="translate(18.213 15.593)" fill="#e57529"/>
      <path id="Trazado_125709" data-name="Trazado 125709" d="M511.923,574.331l-17.08-37.064-39.857,17.59-.913,28.045Z" transform="translate(17.294 15.927)" fill="#492020"/>
      <path id="Trazado_125710" data-name="Trazado 125710" d="M514.6,589.669l-10.134,1.081,4.864-49.452,5.675-1.351Z" transform="translate(35.906 16.917)" fill="#822237"/>
      <path id="Trazado_125711" data-name="Trazado 125711" d="M511.9,582.525l-3.158-42.151,1.441-4.143,15.493.54h6.666l3.6,9.548Z" transform="translate(37.485 15.544)" fill="#a03346"/>
      <path id="Trazado_125712" data-name="Trazado 125712" d="M500.694,527.252,513.1,548l9.845-6.047,4.948.1,5.268-4.58-11.121-23.218Z" transform="translate(34.512 7.431)" fill="#d14a4a"/>
      <path id="Trazado_125713" data-name="Trazado 125713" d="M512.44,527.588l5.4-2.162,5.571-8.285-1.379-2.879-21.342,12.99L513.1,548l5.543-3.4Z" transform="translate(34.512 7.431)" fill="#a03346"/>
      <path id="Trazado_125714" data-name="Trazado 125714" d="M508.219,659.091l4.053-81.339.27-35.94,5.945-2.162,11.89,52.695-2.7,68.1Z" transform="translate(37.291 16.807)" fill="#822237"/>
      <rect id="Rectángulo_293838" data-name="Rectángulo 293838" width="8.353" height="7.026" transform="translate(541.458 667.433) rotate(-5.262)" fill="#822237"/>
      <path id="Trazado_125715" data-name="Trazado 125715" d="M567.029,639.778l8.647-47.831L605.4,593.3l3.783,45.824Z" transform="translate(59.01 36.121)" fill="#d14a4a"/>
      <path id="Trazado_125716" data-name="Trazado 125716" d="M557.819,639.778l8.647-47.831,28.109.7-2.167,46.471Z" transform="translate(55.608 36.121)" fill="#a03346"/>
      <path id="Trazado_125717" data-name="Trazado 125717" d="M603.8,590.08H578.119l-5.265,22.205,31.813-.5Z" transform="translate(61.161 35.431)" fill="#a03346"/>
      <path id="Trazado_125718" data-name="Trazado 125718" d="M602.394,586.569H576.717l-.31,22.047,31.7-.5Z" transform="translate(62.473 34.135)" fill="#ffcc94"/>
      <path id="Trazado_125719" data-name="Trazado 125719" d="M594.257,603.676c-5.972-4.118-8.447-11.238-6.386-17.107H576.716l-.31,22.047,31.7-.5-.524-1.98A16.083,16.083,0,0,1,594.257,603.676Z" transform="translate(62.473 34.135)" fill="#f4bc84"/>
      <path id="Trazado_125720" data-name="Trazado 125720" d="M519.863,659.091l3.513-77.826,11.884-39.453,21.17-2.162,43.421,53.505,3.783,63.939Z" transform="translate(41.591 16.807)" fill="#d14a4a"/>
      <path id="Trazado_125721" data-name="Trazado 125721" d="M600.732,611.91l-1.11-18.755L556.2,539.65l-21.17,2.162-11.884,39.453-2.667,59.081Z" transform="translate(41.819 16.807)" fill="#c44"/>
      <g id="Grupo_876662" data-name="Grupo 876662" transform="translate(565.575 617.032)">
        <rect id="Rectángulo_293839" data-name="Rectángulo 293839" width="6.35" height="3.291" transform="translate(53.843 47.02)" fill="#d85656"/>
        <rect id="Rectángulo_293840" data-name="Rectángulo 293840" width="6.35" height="3.291" transform="translate(64.652 36.211)" fill="#d85656"/>
        <rect id="Rectángulo_293841" data-name="Rectángulo 293841" width="6.35" height="3.291" transform="translate(11.35 45.331)" fill="#d85656"/>
        <rect id="Rectángulo_293842" data-name="Rectángulo 293842" width="6.35" height="3.291" transform="translate(0 30.378)" fill="#d85656"/>
        <rect id="Rectángulo_293843" data-name="Rectángulo 293843" width="6.35" height="3.291" transform="translate(9.661 14.998)" fill="#d85656"/>
        <rect id="Rectángulo_293844" data-name="Rectángulo 293844" width="6.35" height="3.291" transform="translate(2.342 2.635)" fill="#d85656"/>
        <rect id="Rectángulo_293845" data-name="Rectángulo 293845" width="6.35" height="3.291" transform="translate(31.549 35.805)" fill="#d85656"/>
        <rect id="Rectángulo_293846" data-name="Rectángulo 293846" width="6.35" height="3.291" transform="translate(31.729 18.871)" fill="#d85656"/>
        <rect id="Rectángulo_293847" data-name="Rectángulo 293847" width="6.35" height="3.291" transform="translate(63.301 13.512)" fill="#d85656"/>
        <rect id="Rectángulo_293848" data-name="Rectángulo 293848" width="6.35" height="3.291" transform="translate(67.445)" fill="#d85656"/>
        <rect id="Rectángulo_293849" data-name="Rectángulo 293849" width="6.35" height="3.291" transform="translate(42.696 4.797)" fill="#d85656"/>
        <rect id="Rectángulo_293850" data-name="Rectángulo 293850" width="6.35" height="3.291" transform="translate(57.469 26.235)" fill="#d85656"/>
      </g>
      <path id="Trazado_125722" data-name="Trazado 125722" d="M532.965,597.855l-9.908.181-34.769-7.207,1.983,49.543H502.7s-2.162-24.141-1.261-26.122,9.367-6.486,16.934-3.423,8.466,28.464,8.466,28.464h10.089Z" transform="translate(29.93 35.708)" fill="#a03346"/>
      <path id="Trazado_125723" data-name="Trazado 125723" d="M534.345,600.741l-9.908.181-32.795-10.093,1.981,49.543h12.431s-2.161-24.141-1.261-26.122,9.369-6.486,16.936-3.423,8.466,28.464,8.466,28.464h10.764Z" transform="translate(31.169 35.708)" fill="#d14a4a"/>
      <path id="Trazado_125724" data-name="Trazado 125724" d="M523.269,600.6l-.386.049,6.334,34.036,1.625.141Z" transform="translate(42.706 39.315)" fill="#a03346"/>
      <path id="Trazado_125725" data-name="Trazado 125725" d="M533.451,601.025l-40.97-8.486.174,10.57,42.577,4.53Z" transform="translate(31.479 36.34)" fill="#a03346"/>
      <path id="Trazado_125726" data-name="Trazado 125726" d="M502.851,557.774l-5.223-.655-2.233,16.058v8.287l-2.7,2.1-9.546-2.459,3.423-22.969L468.732,555.7l-4.324,45.759,38.565,3.765Z" transform="translate(21.111 22.735)" fill="#492020"/>
      <path id="Trazado_125727" data-name="Trazado 125727" d="M486.176,538.96c.136.405,8.783,23.779,8.783,23.779l-.27,8.647-5.54.946-5.269,7.026-5.4-.405-1.892,9.052-2.7-5.269,2.3-37.7Z" transform="translate(24.61 16.552)" fill="#a55050"/>
      <path id="Trazado_125728" data-name="Trazado 125728" d="M486.867,540.538l-12.3,16.281.389,12.388,13-25.3Z" transform="translate(24.865 17.135)" fill="#7f4545"/>
      <path id="Trazado_125729" data-name="Trazado 125729" d="M497.783,592.282l-15.383-2.7-3.783,50.533,19.289-.378Z" transform="translate(26.359 35.246)" fill="#492020"/>
      <path id="Trazado_125730" data-name="Trazado 125730" d="M491.61,581.009l2.474-35.965L428.17,554.8l-1.192,26.982.959,32.716,73.084-11.852Z" transform="translate(7.288 18.799)" fill="#7f4545"/>
      <path id="Trazado_125731" data-name="Trazado 125731" d="M471.7,569.2l-9.2,1.6.332,19.806,9.2-1.6Z" transform="translate(20.406 27.72)" fill="#5e2c2c"/>
      <path id="Trazado_125732" data-name="Trazado 125732" d="M471.7,569.2l-9.2,1.6.332,19.806,9.2-1.6Z" transform="translate(20.406 27.72)" fill="#5e2c2c"/>
      <g id="Grupo_876663" data-name="Grupo 876663" transform="translate(434.288 563.844)">
        <path id="Trazado_125733" data-name="Trazado 125733" d="M492.531,567.544l1.548-22.5L428.164,554.8l-1.17,27.715Z" transform="translate(-426.994 -545.044)" fill="#5e2c2c"/>
        <path id="Trazado_125734" data-name="Trazado 125734" d="M479.392,587.534l2.273-.369-.091-.209Z" transform="translate(-407.643 -529.566)" fill="#5e2c2c"/>
      </g>
      <path id="Trazado_125735" data-name="Trazado 125735" d="M501.459,587.027l-73.779,11.964,6.545,42.064,67.9-.378Z" transform="translate(7.547 34.304)" fill="#7f4545"/>
      <path id="Trazado_125736" data-name="Trazado 125736" d="M443.681,637.191h29.306C466.091,579.87,440.277,590.445,443.681,637.191Z" transform="translate(13.343 38.38)" fill="#f4a63d"/>
      <path id="Trazado_125737" data-name="Trazado 125737" d="M445.661,635.091h23.781C463.846,582.617,442.9,592.3,445.661,635.091Z" transform="translate(14.096 38.827)" fill="#5e2c2c"/>
      <path id="Trazado_125738" data-name="Trazado 125738" d="M448.71,603.445a54.171,54.171,0,0,0,2.977,21.384,60.117,60.117,0,0,0,4.569,10.26h12.018C464.653,601.127,454.6,593.208,448.71,603.445Z" transform="translate(15.263 38.828)" fill="#492020"/>
      <path id="Trazado_125739" data-name="Trazado 125739" d="M499.836,588.132,427.5,596.689l1.441,8.557,71.971-11.079Z" transform="translate(7.482 34.712)" fill="#5e2c2c"/>
      <path id="Trazado_125740" data-name="Trazado 125740" d="M496.9,598.026l-15.847-9.368.72,51.253,21.41-.27Z" transform="translate(27.258 34.906)" fill="#a55050"/>
      <path id="Trazado_125741" data-name="Trazado 125741" d="M599.35,575.521l-78.04-9.1.659,25.131,78.068-3.243Z" transform="translate(42.125 26.695)" fill="#a03346"/>
      <path id="Trazado_125742" data-name="Trazado 125742" d="M590.865,542.627,576.588,540.1l-9.12,6.283-6.283-1.148-.54-5.134-46.434-1.441-.991,1.441,13.241,55.937h79.177l.991-1.441Z" transform="translate(39.137 16.443)" fill="#e8ac70"/>
      <path id="Trazado_125743" data-name="Trazado 125743" d="M593.12,538.664H577.311l-9.12,6.283-6.283-1.148-.54-5.134H513.943L527.184,594.6h79.177Z" transform="translate(39.405 16.443)" fill="#ffcc94"/>
      <path id="Trazado_125744" data-name="Trazado 125744" d="M594.3,543.669l-1.185-5.006H577.311l-9.12,6.283-6.283-1.148-.54-5.134H513.943l7.464,31.53Z" transform="translate(39.405 16.443)" fill="#f4bc84"/>
      <g id="Grupo_876664" data-name="Grupo 876664" transform="translate(557.941 557.629)" opacity="0.28" style="mix-blend-mode: multiply;isolation: isolate">
        <path id="Trazado_125745" data-name="Trazado 125745" d="M532.362,575.5h-5.855l.9,2.882h5.855Z" transform="translate(-513.896 -527.581)" fill="#f7be86"/>
        <path id="Trazado_125746" data-name="Trazado 125746" d="M532.625,560.832H526.77l.9,2.882h5.855Z" transform="translate(-513.799 -532.999)" fill="#f7be86"/>
        <path id="Trazado_125747" data-name="Trazado 125747" d="M568.345,572.936H562.49l.9,2.882h5.855Z" transform="translate(-500.608 -528.529)" fill="#f7be86"/>
        <path id="Trazado_125748" data-name="Trazado 125748" d="M577.357,569.055H571.5l.9,2.882h5.855Z" transform="translate(-497.279 -529.962)" fill="#f7be86"/>
        <path id="Trazado_125749" data-name="Trazado 125749" d="M541.243,547.61h-5.855l.9,2.882h5.855Z" transform="translate(-510.617 -537.882)" fill="#f7be86"/>
        <path id="Trazado_125750" data-name="Trazado 125750" d="M541.44,541.163h-5.855l.9,2.882h5.855Z" transform="translate(-510.544 -540.263)" fill="#f7be86"/>
        <path id="Trazado_125751" data-name="Trazado 125751" d="M543.282,567.213h-5.855l.9,2.882h5.855Z" transform="translate(-509.864 -530.642)" fill="#f7be86"/>
        <path id="Trazado_125752" data-name="Trazado 125752" d="M557.787,574.449h-5.855l.9,2.882h5.855Z" transform="translate(-504.507 -527.97)" fill="#f7be86"/>
        <path id="Trazado_125753" data-name="Trazado 125753" d="M523.152,545.11H517.3l.9,2.882h5.855Z" transform="translate(-517.297 -538.805)" fill="#f7be86"/>
        <path id="Trazado_125754" data-name="Trazado 125754" d="M560.714,560.766h-5.855l.9,2.882h5.855Z" transform="translate(-503.426 -533.023)" fill="#f7be86"/>
        <path id="Trazado_125755" data-name="Trazado 125755" d="M573.608,557.609h-5.855l.9,2.883h5.855Z" transform="translate(-498.664 -534.189)" fill="#f7be86"/>
        <path id="Trazado_125756" data-name="Trazado 125756" d="M568.937,548.86h-5.855l.9,2.882h5.855Z" transform="translate(-500.389 -537.42)" fill="#f7be86"/>
        <path id="Trazado_125757" data-name="Trazado 125757" d="M568.542,540.505h-5.855l.9,2.882h5.855Z" transform="translate(-500.535 -540.505)" fill="#f7be86"/>
        <path id="Trazado_125758" data-name="Trazado 125758" d="M549.268,556.885h-5.855l.9,2.883h5.855Z" transform="translate(-507.653 -534.456)" fill="#f7be86"/>
      </g>
      <path id="Trazado_125759" data-name="Trazado 125759" d="M494.639,596.5l-3.867,8.737-.54,17.295,8.287,15.853h-11.35l2.342-9.548-2.342-6.485,1.982-17.475V592.8Z" transform="translate(29.517 36.437)" fill="#7f4545"/>
      <path id="Trazado_125760" data-name="Trazado 125760" d="M493.378,592.385l-3.243,13.692-1.351,17.2,6.846,15.583-9.908.27,2.342-9.548-2.342-6.485,1.982-17.475-1.621-14.863Z" transform="translate(28.982 35.684)" fill="#492020"/>
      <rect id="Rectángulo_293851" data-name="Rectángulo 293851" width="293.469" height="23.524" transform="translate(408.775 673.477)" fill="#edc59d"/>
      <path id="Trazado_125761" data-name="Trazado 125761" d="M486.232,625.109h-77.87v23.524h68.609Z" transform="translate(0.413 48.368)" fill="#edc59d"/>
      <path id="Trazado_125762" data-name="Trazado 125762" d="M580.552,645.21l15.171-20.1H520.409l56.508,20.1Z" transform="translate(41.793 48.368)" fill="#ddae85"/>
      <path id="Trazado_125763" data-name="Trazado 125763" d="M493.056,625.109H408.362v5.124Z" transform="translate(0.413 48.368)" fill="#e5b080"/>
      <path id="Trazado_125764" data-name="Trazado 125764" d="M650.378,623.874l-31.707,1.8-25.942-.36L561.2,621.352l-21.078,4.324L512.561,627.3l97.1,6.125,53.685-6.514Z" transform="translate(38.894 46.98)" fill="#edc59d"/>
      <path id="Trazado_125765" data-name="Trazado 125765" d="M560.623,621.439l-20.5,4.2-27.563,1.621,96.742,7.161Z" transform="translate(38.894 47.012)" fill="#ddae85"/>
      <path id="Trazado_125766" data-name="Trazado 125766" d="M701.83,633.7l-142.861,6.333L408.362,633.7v11.762H701.83Z" transform="translate(0.413 51.54)" fill="#966f54"/>
      <path id="Trazado_125767" data-name="Trazado 125767" d="M487.564,624.4l27.241,5.161,10.01,12.984-1.13,6.356h50.263l8.378-8.173L544.7,628.659l-25.985-3.833Z" transform="translate(29.663 48.104)" fill="#492020"/>
      <path id="Trazado_125768" data-name="Trazado 125768" d="M528.126,626.213l-9.408-1.388-31.154-.43,27.241,5.161,8.849,11.478Z" transform="translate(29.663 48.104)" fill="#492020"/>
      <path id="Trazado_125769" data-name="Trazado 125769" d="M418.331,573.995l72.421-7.746,20.718-28.374-67.2,3.513L416.489,572.41Z" transform="translate(3.414 16.151)" fill="#e57529"/>
      <path id="Trazado_125770" data-name="Trazado 125770" d="M417.246,573.37l72.421-7.747L511.511,536.8l-1.486-1.621-66.837,5.585L415.4,571.784Z" transform="translate(3.013 15.155)" fill="#f9b655"/>
      <path id="Trazado_125771" data-name="Trazado 125771" d="M493.946,555.195c-28.208,0-51.074-7.018-51.074-15.673v-.01L415.4,570.183l1.843,1.586,72.421-7.746,6.7-8.846Q495.164,555.193,493.946,555.195Z" transform="translate(3.013 16.756)" fill="#fca547"/>
      <path id="Trazado_125772" data-name="Trazado 125772" d="M492.144,605.595l-.991-6.305L486.38,593.7l.45-7.927,7.95-16.394.151,35.76Z" transform="translate(29.225 27.788)" fill="#7f4545"/>
      <path id="Trazado_125773" data-name="Trazado 125773" d="M532.04,596.936l-39.509-7.209v8.647l43.777,8.58Z" transform="translate(31.497 35.301)" fill="#ffcc94"/>
      <path id="Trazado_125774" data-name="Trazado 125774" d="M536.648,604.664l-44.858-8.917.541,1.351,43.777,8.58Z" transform="translate(31.224 37.524)" fill="#e8ac70"/>
      <path id="Trazado_125775" data-name="Trazado 125775" d="M494.676,587.173l-.811-15.223-5.225,11.98-.09,7.746,4.324,5.765s.256,9.013.181,9.639l1.44,5.224.451-19.366,1.712-.09.27-5.674Z" transform="translate(30.027 28.736)" fill="#a55050"/>
      <path id="Trazado_125776" data-name="Trazado 125776" d="M531.681,601.883l-2.276-5.434L499.881,591.1Z" transform="translate(34.212 35.808)" fill="#e8ac70"/>
      <path id="Trazado_125777" data-name="Trazado 125777" d="M519.489,526.439a4.755,4.755,0,0,0-5.85-1.859,3.457,3.457,0,0,0-1.6,5.031l3.151,5.01,7.486-3.111Z" transform="translate(38.506 11.107)" fill="#a03346"/>
      <path id="Trazado_125778" data-name="Trazado 125778" d="M518.293,526.817a3.822,3.822,0,0,0-4.686-1.66,2.653,2.653,0,0,0-1.524,1.749,3.044,3.044,0,0,0,.347,2.41l2.6,4.233,5.895-2.45Z" transform="translate(38.677 11.355)" fill="#561d29"/>
      <path id="Trazado_125779" data-name="Trazado 125779" d="M487.511,580.923l-5.945-3.963-8.062,8.557-22.384,8.2,21.168-10.9,5.54-10.539,4.867-.966,5.717,6.731Z" transform="translate(16.204 28.499)" fill="#492020"/>
      <path id="Trazado_125780" data-name="Trazado 125780" d="M481.1,578.769l-7.746-3.333,5.044,4.594,3.243,9.278,2.322,9.276,2.632-1.71c.09-.36.539-7.386.539-7.386Z" transform="translate(24.415 30.023)" fill="#a55050"/>
      <path id="Trazado_125781" data-name="Trazado 125781" d="M535.127,634.064l-19.276-4.324H483.424l-7.567,2.522L460.724,630.1l12.971,1.261,8.647-3.243,29.725-2.162,14.412,2.7Z" transform="translate(19.751 48.681)" fill="#492020"/>
      <g id="Grupo_876665" data-name="Grupo 876665" transform="translate(559.459 681.98)">
        <path id="Trazado_125782" data-name="Trazado 125782" d="M518.668,646.1h25.513l2.963-9.791-28.738-4.331Z" transform="translate(-518.406 -631.077)" fill="#966f54"/>
        <path id="Trazado_125783" data-name="Trazado 125783" d="M518.406,632.217l11.048,8.359,13.081-5.461-12.209-3.8Z" transform="translate(-518.406 -631.319)" fill="#edc59d"/>
      </g>
      <g id="Grupo_876666" data-name="Grupo 876666" transform="translate(583.087 686.586)">
        <path id="Trazado_125784" data-name="Trazado 125784" d="M535.846,645.06h17.915l2.081-6.876-20.18-3.042Z" transform="translate(-535.662 -634.513)" fill="#966f54"/>
        <path id="Trazado_125785" data-name="Trazado 125785" d="M535.662,635.313l7.758,5.87,12.422-2.828-11.81-3.672Z" transform="translate(-535.662 -634.683)" fill="#edc59d"/>
      </g>
      <path id="Trazado_125786" data-name="Trazado 125786" d="M567.786,566.227l-12.611-8.647.18-8.287-4.324-3.963-8.647-3.6-2.162-3.063H552.27l.811,3.716,7.567-.743,5.742-2.973h6.8l.721,3.6-4.369,2.342-6.26,4.864-.36,4.143-.36,2.162,3.6,4.5Z" transform="translate(49.11 16.443)" fill="#a03346"/>
      <path id="Trazado_125787" data-name="Trazado 125787" d="M559.291,549.473l6.26-4.864,4.369-2.342-.72-3.6h-5.054l-13.115,10.324.333.305-.18,8.287,12.611,8.647-1.621-5.945-3.6-4.5.36-2.162Z" transform="translate(53.101 16.443)" fill="#771f32"/>
      <path id="Trazado_125788" data-name="Trazado 125788" d="M516.775,548.69l-1.261-3.873,3.693-2.162,6.486.54,6.125-1.464-12.9.1-3.856.554-6.666-11.53-1.261-4.684.721-4.414-7.927,3.6,6.305,9.728-.991,1.351,1.982,3.153,1.081-.631,1.711,2.7-.811,1.081,1.081,2.522.9-.27-.18,13.511Z" transform="translate(34.23 10.199)" fill="#822237"/>
      <rect id="Rectángulo_293852" data-name="Rectángulo 293852" width="4.679" height="2.796" transform="matrix(0.926, -0.379, 0.379, 0.926, 539.123, 589.378)" fill="#a03346"/>
      <path id="Trazado_125789" data-name="Trazado 125789" d="M491.159,496.59l12.6,39.791,23.876-14.06L495.551,494.14Z" transform="translate(30.99)" fill="#ffcc94"/>
      <path id="Trazado_125790" data-name="Trazado 125790" d="M490.458,496.733,501,538.078l13.635-8.491-22.439-33.974Z" transform="translate(30.732 0.544)" fill="#e8a15b"/>
      <path id="Trazado_125791" data-name="Trazado 125791" d="M504.7,526.12l-4.427,1.846.319,1.429,4.427-1.846Z" transform="translate(34.355 11.811)" fill="#e8a15b"/>
      <path id="Trazado_125792" data-name="Trazado 125792" d="M498.715,515.139l-4.427,1.846.216,2.047,4.427-1.846Z" transform="translate(32.146 7.755)" fill="#ffcc94"/>
      <path id="Trazado_125793" data-name="Trazado 125793" d="M506.237,511.55l-3.708,3.042,1.343,1.2,3.708-3.042Z" transform="translate(35.189 6.43)" fill="#e8a15b"/>
      <path id="Trazado_125794" data-name="Trazado 125794" d="M504.2,509.966l-4.113,2.468,1.153,1.385,4.113-2.468Z" transform="translate(34.286 5.845)" fill="#e8a15b"/>
      <path id="Trazado_125795" data-name="Trazado 125795" d="M504.2,505.476l-4.113,2.468,1.153,1.385,4.113-2.468Z" transform="translate(34.286 4.187)" fill="#e8a15b"/>
      <path id="Trazado_125796" data-name="Trazado 125796" d="M500.5,505.378l-4.113,2.468,1.153,1.385,4.113-2.468Z" transform="translate(32.919 4.15)" fill="#ffcc94"/>
      <path id="Trazado_125797" data-name="Trazado 125797" d="M499.6,511.438l-3.967,1.654.193,1.835,3.967-1.654Z" transform="translate(32.644 6.388)" fill="#ffcc94"/>
      <path id="Trazado_125798" data-name="Trazado 125798" d="M508.081,517.946l-5.32,2.218.634,2.319,5.32-2.218Z" transform="translate(35.275 8.792)" fill="#a03346"/>
      <path id="Trazado_125799" data-name="Trazado 125799" d="M511.893,512.553l-4.674,3.373,1.57,1.273,4.674-3.373Z" transform="translate(36.922 6.8)" fill="#a03346"/>
      <path id="Trazado_125800" data-name="Trazado 125800" d="M503.351,517.7l-3.535,1.474.411,1.515,3.534-1.474Z" transform="translate(34.188 8.699)" fill="#a03346"/>
      <path id="Trazado_125801" data-name="Trazado 125801" d="M501.992,529.928l-4.59,1.392.174,1.454,4.59-1.392Z" transform="translate(33.296 13.217)" fill="#e8a15b"/>
      <rect id="Rectángulo_293853" data-name="Rectángulo 293853" width="4.459" height="8.918" transform="translate(546.726 616.584)" fill="#822237"/>
      <path id="Trazado_125802" data-name="Trazado 125802" d="M514.263,575.24l-5.945-.264,1.486,9.188h4.459Z" transform="translate(37.327 29.853)" fill="#822237"/>
      <rect id="Rectángulo_293854" data-name="Rectángulo 293854" width="2.991" height="5.528" transform="translate(535.426 605.795) rotate(34.992)" fill="#822237"/>
      <rect id="Rectángulo_293855" data-name="Rectángulo 293855" width="6.108" height="7.026" transform="translate(535.756 616.535) rotate(-27.683)" fill="#822237"/>
      <path id="Trazado_125803" data-name="Trazado 125803" d="M512.588,611.212l-5.4-.311-.777,7.272,5.359,1.891Z" transform="translate(36.621 43.12)" fill="#822237"/>
      <path id="Trazado_125804" data-name="Trazado 125804" d="M566.686,627.157h7.4C572.98,570.9,565.574,570.741,566.686,627.157Z" transform="translate(58.841 33.52)" fill="#a03346"/>
      <path id="Trazado_125805" data-name="Trazado 125805" d="M552.09,627.157h7.4C558.383,570.9,550.978,570.741,552.09,627.157Z" transform="translate(53.45 33.52)" fill="#a03346"/>
      <path id="Trazado_125806" data-name="Trazado 125806" d="M537.493,627.157h7.4C543.786,570.9,536.381,570.741,537.493,627.157Z" transform="translate(48.06 33.52)" fill="#a03346"/>
      <path id="Trazado_125807" data-name="Trazado 125807" d="M496.517,586.224l-70.395,9.75.946,4.843,73.689-9.045Z" transform="translate(6.972 34.007)" fill="#f4a63d"/>
      <path id="Trazado_125808" data-name="Trazado 125808" d="M496.315,590.21l2.5-.608-2.3-3.378-70.395,9.75.5,2.554Z" transform="translate(6.972 34.007)" fill="#f9b655"/>
      <path id="Trazado_125809" data-name="Trazado 125809" d="M442.328,573.245l-9.2,1.6.332,19.806,9.2-1.6Z" transform="translate(9.559 29.214)" fill="#5e2c2c"/>
      <path id="Trazado_125810" data-name="Trazado 125810" d="M456.405,571.172l-9.2,1.6.332,19.806,9.2-1.6Z" transform="translate(14.758 28.449)" fill="#5e2c2c"/>
      <path id="Trazado_125811" data-name="Trazado 125811" d="M517.692,616.879l7.386.36L517.91,618.4Z" transform="translate(40.789 45.328)" fill="#a03346"/>
      <path id="Trazado_125812" data-name="Trazado 125812" d="M514.929,608.919l9.909,1.171-9.616.379Z" transform="translate(39.769 42.389)" fill="#a03346"/>
      <path id="Trazado_125813" data-name="Trazado 125813" d="M502.9,608.506l-6.336-1.521,7.588-.089Z" transform="translate(32.985 41.642)" fill="#a03346"/>
      <path id="Trazado_125814" data-name="Trazado 125814" d="M558.216,549.7l6.4-4.909,4.414-2.3-1.531-3.828h-1.162L567,542l-3.6,2.522-7.026,4.684-.36,4.144-.36,2.162,3.6,4.5,1.432,5.252,1.405.963-1.621-5.945-3.243-4.684.811-2.072Z" transform="translate(54.807 16.443)" fill="#89273c"/>
      <path id="Trazado_125815" data-name="Trazado 125815" d="M557.787,558.036l5.72,4.5.9,4.008,1.937,3.873-5.314-3.6-.315-3.693Z" transform="translate(55.596 23.597)" fill="#a03346"/>
      <path id="Trazado_125816" data-name="Trazado 125816" d="M558.518,559.36l3.644,2.87.708,3.945,1.234,2.468-3.386-2.3-.443-3.609Z" transform="translate(55.867 24.086)" fill="#771f32"/>
      <path id="Trazado_125817" data-name="Trazado 125817" d="M467.921,583.163l3.158-6.008-.114-6.788-8.019,1.4.232,13.84Z" transform="translate(20.571 28.151)" fill="#ffcc94"/>
      <path id="Trazado_125818" data-name="Trazado 125818" d="M469.063,582.273l-5.919,2.167.017.994,8.019-1.4-.066-3.941Z" transform="translate(20.645 31.744)" fill="#ffcc94"/>
      <path id="Trazado_125819" data-name="Trazado 125819" d="M469.991,571.226l-6.432,1.121.259,15.327,6.432-1.121Z" transform="translate(20.798 28.468)" fill="#5e2c2c"/>
      <path id="Trazado_125820" data-name="Trazado 125820" d="M464,573.157l6.008-1.047-.015-.885-6.432,1.121.259,15.327.424-.074Z" transform="translate(20.798 28.468)" fill="#e5a363"/>
      <path id="Trazado_125821" data-name="Trazado 125821" d="M477.853,580.9l2.948-5.608,4.516-.9-2.622-3.087-4.867.966-5.54,10.539-21.168,10.9,22.384-8.2Z" transform="translate(16.204 28.499)" fill="#5e2c2c"/>
      <path id="Trazado_125822" data-name="Trazado 125822" d="M468.367,577.733l-.777,3.175.912-.27.642-3.344Z" transform="translate(22.287 30.709)" fill="#e5a363"/>
      <path id="Trazado_125823" data-name="Trazado 125823" d="M466.147,572.221l-.777,7.9.709.135.507-8.343Z" transform="translate(21.467 28.723)" fill="#e5a363"/>
      <path id="Trazado_125824" data-name="Trazado 125824" d="M465.543,580.408l.642,3.209.946-.2-1.284-3.209Z" transform="translate(21.53 31.784)" fill="#e5a363"/>
      <path id="Trazado_125825" data-name="Trazado 125825" d="M466.708,578.4l-2.973-.27-.068-1.182,2.972,1.115Z" transform="translate(20.838 30.582)" fill="#e5a363"/>
      <path id="Trazado_125826" data-name="Trazado 125826" d="M481.827,591.9l-4.443-1.561.2-3.986,2.9-.473Z" transform="translate(25.903 33.88)" fill="#f9b655"/>
      <g id="Grupo_876667" data-name="Grupo 876667" transform="translate(443.535 603.68)">
        <path id="Trazado_125827" data-name="Trazado 125827" d="M441.309,574.137l-7.562,1.42.273,17.545,7.562-1.42Z" transform="translate(-433.747 -574.137)" fill="#ffcc94"/>
        <path id="Trazado_125828" data-name="Trazado 125828" d="M440.4,574.674l-6.093,1.31.22,16.184,6.093-1.31Z" transform="translate(-433.542 -573.938)" fill="#e5a363"/>
        <path id="Trazado_125829" data-name="Trazado 125829" d="M439.957,575.025l-5.149,1.248.186,15.42,5.149-1.248Z" transform="translate(-433.355 -573.809)" fill="#5e2c2c"/>
        <path id="Trazado_125830" data-name="Trazado 125830" d="M436.955,575.364l-.726.17.777,7.495-.391,8.234.726-.17.025-8.131Z" transform="translate(-432.83 -573.684)" fill="#e5a363"/>
        <path id="Trazado_125831" data-name="Trazado 125831" d="M434.724,580.945l2.207.2.721-.2-.023.45-.653.248-2.094.293Z" transform="translate(-433.386 -571.622)" fill="#e5a363"/>
        <path id="Trazado_125832" data-name="Trazado 125832" d="M439.5,581.459l-1.986-.2-.648.2.02-.451.588-.248,1.885-.293Z" transform="translate(-432.596 -571.799)" fill="#e5a363"/>
      </g>
      <g id="Grupo_876668" data-name="Grupo 876668" transform="translate(462.81 600.709)">
        <path id="Trazado_125833" data-name="Trazado 125833" d="M455.385,571.967l-7.562,1.42.273,17.545,7.562-1.42Z" transform="translate(-447.823 -571.967)" fill="#ffcc94"/>
        <path id="Trazado_125834" data-name="Trazado 125834" d="M454.472,572.5l-6.093,1.31L448.6,590l6.093-1.31Z" transform="translate(-447.618 -571.768)" fill="#e5a363"/>
        <path id="Trazado_125835" data-name="Trazado 125835" d="M454.033,572.855l-5.149,1.248.186,15.42,5.149-1.248Z" transform="translate(-447.432 -571.639)" fill="#5e2c2c"/>
        <path id="Trazado_125836" data-name="Trazado 125836" d="M451.031,573.194l-.726.17.777,7.495-.391,8.234.726-.17.025-8.131Z" transform="translate(-446.907 -571.513)" fill="#e5a363"/>
        <path id="Trazado_125837" data-name="Trazado 125837" d="M448.8,578.775l2.207.2.721-.2-.023.45-.653.248-2.094.293Z" transform="translate(-447.462 -569.452)" fill="#e5a363"/>
        <path id="Trazado_125838" data-name="Trazado 125838" d="M453.573,579.289l-1.986-.2-.648.2.02-.451.588-.248,1.885-.293Z" transform="translate(-446.673 -569.628)" fill="#e5a363"/>
      </g>
      <path id="Trazado_125839" data-name="Trazado 125839" d="M443.912,602.341l-10.386.837.375,20.34,10.386-.837Z" transform="translate(9.706 39.959)" fill="#5e2c2c"/>
      <g id="Grupo_876669" data-name="Grupo 876669" transform="translate(444.189 643.346)">
        <path id="Trazado_125840" data-name="Trazado 125840" d="M442.76,603.1l-8.535.793.308,18.016,8.535-.793Z" transform="translate(-434.225 -603.105)" fill="#ffcc94"/>
        <path id="Trazado_125841" data-name="Trazado 125841" d="M441.729,603.61l-6.878.809.248,16.616,6.878-.809Z" transform="translate(-433.993 -602.918)" fill="#e5a363"/>
        <path id="Trazado_125842" data-name="Trazado 125842" d="M441.234,603.954l-5.812.828.21,15.83,5.812-.828Z" transform="translate(-433.782 -602.791)" fill="#5e2c2c"/>
        <path id="Trazado_125843" data-name="Trazado 125843" d="M437.845,604.143l-.82.111.877,7.754-.441,8.409.82-.111.028-8.336Z" transform="translate(-433.19 -602.721)" fill="#e5a363"/>
        <path id="Trazado_125844" data-name="Trazado 125844" d="M435.327,609.688l2.491.4.813-.145-.026.46-.737.2-2.364.116Z" transform="translate(-433.817 -600.674)" fill="#e5a363"/>
        <path id="Trazado_125845" data-name="Trazado 125845" d="M440.715,610.575l-2.242-.382-.732.151.023-.46.663-.2,2.128-.135Z" transform="translate(-432.926 -600.726)" fill="#e5a363"/>
      </g>
      <path id="Trazado_125846" data-name="Trazado 125846" d="M477.952,600.278l-10.212.894.369,21.6,10.211-.894Z" transform="translate(22.342 39.198)" fill="#5e2c2c"/>
      <g id="Grupo_876670" data-name="Grupo 876670" transform="translate(491.024 640.587)">
        <path id="Trazado_125847" data-name="Trazado 125847" d="M476.82,601.09l-8.392.846.3,19.135,8.392-.846Z" transform="translate(-468.428 -601.09)" fill="#ffcc94"/>
        <path id="Trazado_125848" data-name="Trazado 125848" d="M475.807,601.627l-6.762.862.244,17.648,6.762-.862Z" transform="translate(-468.2 -600.892)" fill="#e5a363"/>
        <path id="Trazado_125849" data-name="Trazado 125849" d="M475.32,601.992l-5.714.882.206,16.813,5.715-.882Z" transform="translate(-467.993 -600.757)" fill="#5e2c2c"/>
        <path id="Trazado_125850" data-name="Trazado 125850" d="M471.988,602.195l-.806.118.862,8.235-.434,8.932.806-.118.028-8.854Z" transform="translate(-467.411 -600.682)" fill="#e5a363"/>
        <path id="Trazado_125851" data-name="Trazado 125851" d="M469.512,608.085l2.449.425.8-.154-.025.488-.725.209-2.324.125Z" transform="translate(-468.027 -598.507)" fill="#e5a363"/>
        <path id="Trazado_125852" data-name="Trazado 125852" d="M474.809,609.025l-2.2-.4-.72.161.022-.488.652-.215,2.092-.144Z" transform="translate(-467.151 -598.563)" fill="#e5a363"/>
      </g>
      <path id="Trazado_125853" data-name="Trazado 125853" d="M567.782,588.727c-.923,6.419-1.457,18.749-1.1,37.018h5.254C571.276,602.237,569.452,589.89,567.782,588.727Z" transform="translate(58.841 34.932)" fill="#822237"/>
      <path id="Trazado_125854" data-name="Trazado 125854" d="M587.273,608.229c-2.018,2.468-3.5,7.208-3.47,14.231H593.95C593.525,613.423,590.455,608.675,587.273,608.229Z" transform="translate(65.204 42.134)" fill="#a03346"/>
      <path id="Trazado_125855" data-name="Trazado 125855" d="M586.5,610.169c-1.282,1.875-2.222,5.474-2.2,10.809h6.445C590.475,614.114,588.525,610.509,586.5,610.169Z" transform="translate(65.387 42.85)" fill="#822237"/>
      <path id="Trazado_125856" data-name="Trazado 125856" d="M553.08,588.727c-.923,6.419-1.457,18.749-1.1,37.018h5.253C556.572,602.237,554.75,589.89,553.08,588.727Z" transform="translate(53.411 34.932)" fill="#822237"/>
      <path id="Trazado_125857" data-name="Trazado 125857" d="M538.575,588.727c-.923,6.419-1.457,18.749-1.1,37.018h5.253C542.067,602.237,540.245,589.89,538.575,588.727Z" transform="translate(48.055 34.932)" fill="#822237"/>
      <rect id="Rectángulo_293856" data-name="Rectángulo 293856" width="4.459" height="2.5" transform="translate(544.446 534.843) rotate(-25.578)" fill="#d14a4a"/>
      <rect id="Rectángulo_293857" data-name="Rectángulo 293857" width="4.459" height="2.5" transform="translate(551.539 528.966) rotate(-25.578)" fill="#d14a4a"/>
      <rect id="Rectángulo_293858" data-name="Rectángulo 293858" width="4.459" height="2.5" transform="translate(549.918 548.692) rotate(-25.576)" fill="#d14a4a"/>
      <rect id="Rectángulo_293859" data-name="Rectángulo 293859" width="4.459" height="2.5" transform="translate(542.69 545.247) rotate(-25.578)" fill="#a03346"/>
      <path id="Trazado_125858" data-name="Trazado 125858" d="M557.4,556.372l.061-2.553-1.858-2.812-1.305-.5-.653,2.209,2.35,1.649Z" transform="translate(54.067 20.816)" fill="#ffcc94"/>
      <rect id="Rectángulo_293860" data-name="Rectángulo 293860" width="3.856" height="2.522" transform="translate(556.506 616.89) rotate(17.97)" fill="#a03346"/>
      <rect id="Rectángulo_293861" data-name="Rectángulo 293861" width="6.398" height="3.658" transform="translate(550.193 604.85) rotate(-48.536)" fill="#a03346"/>
      <path id="Trazado_125859" data-name="Trazado 125859" d="M479.6,561.976l7.927-.721-.63-6.576-4.3-6.7-2.815,2.557Z" transform="translate(26.723 19.883)" fill="#7f4545"/>
      <path id="Trazado_125860" data-name="Trazado 125860" d="M479.879,560.511l6.092-.554-.485-5.054-3.306-5.15-2.163,1.965Z" transform="translate(26.825 20.539)" fill="#492020"/>
      <path id="Trazado_125861" data-name="Trazado 125861" d="M586.33,611.2c-1.075,1.572-1.865,4.594-1.85,9.07h5.409C589.663,614.509,588.027,611.484,586.33,611.2Z" transform="translate(65.454 43.231)" fill="#f4bc84"/>
      <path id="Trazado_125862" data-name="Trazado 125862" d="M586.352,612.061c-.891,1.3-1.546,3.808-1.534,7.52H589.3C589.114,614.805,587.758,612.3,586.352,612.061Z" transform="translate(65.579 43.549)" fill="#822237"/>
      <rect id="Rectángulo_293862" data-name="Rectángulo 293862" width="0.54" height="8.409" transform="translate(652.146 655.091)" fill="#f4bc84"/>
      <rect id="Rectángulo_293863" data-name="Rectángulo 293863" width="0.54" height="4.393" transform="translate(654.713 659.093) rotate(90)" fill="#f4bc84"/>
      <path id="Trazado_125863" data-name="Trazado 125863" d="M517.89,527.177a3.369,3.369,0,0,0-4.127-1.462,2.337,2.337,0,0,0-1.342,1.54,2.683,2.683,0,0,0,.305,2.122l2.289,3.727,5.191-2.157Z" transform="translate(38.807 11.573)" fill="#e8a15b"/>
      <path id="Trazado_125864" data-name="Trazado 125864" d="M517.06,527.482a2.792,2.792,0,0,0-3.275-1.346,1.584,1.584,0,0,0-.924,1.221,2.5,2.5,0,0,0,.382,1.758l2.02,3.147,3.842-1.6Z" transform="translate(38.992 11.759)" fill="#561d29"/>
      <rect id="Rectángulo_293864" data-name="Rectángulo 293864" width="4.796" height="0.722" transform="matrix(0.851, -0.526, 0.526, 0.851, 552.524, 541.909)" fill="#e8a15b"/>
      <path id="Trazado_125865" data-name="Trazado 125865" d="M517.481,531.683l-3.727-5.8-.67.27,3.727,5.8Z" transform="translate(39.088 11.723)" fill="#e8a15b"/>
    </g>
  </g>
</svg>
