<svg xmlns="http://www.w3.org/2000/svg" width="134" height="134" viewBox="0 0 134 134">
  <g id="Grupo_878580" data-name="Grupo 878580" transform="translate(-391 -2262.636)">
    <circle id="Elipse_5105" data-name="Elipse 5105" cx="67" cy="67" r="67" transform="translate(391 2262.636)" fill="#f3f9ff"/>
    <g id="Grupo_878390" data-name="Grupo 878390" transform="translate(-2.773 840.072)">
      <path id="Trazado_616967" data-name="Trazado 616967" d="M496.773,1454.453v68.215a2.045,2.045,0,0,1-1.988.949q-19.063-.027-38.125-.016c-.457,0-.8,0-1.042.546a8.019,8.019,0,0,1-8.04,4.811,8.141,8.141,0,0,1-7.143-6.174c-.133-.547-.407-.562-.823-.579a10.177,10.177,0,0,1-5.321-1.736,10.776,10.776,0,0,1-4.816-7.686,10.868,10.868,0,0,1-8.082-16.162c-.23-.157-.462-.322-.7-.477a10.747,10.747,0,0,1-.837-17.2,1.127,1.127,0,0,0,.452-1.367,10.669,10.669,0,0,1,9.676-13.2.969.969,0,0,0,1.069-.9,10.412,10.412,0,0,1,8.5-8.355.985.985,0,0,0,.916-.851,7.436,7.436,0,0,1,3.577-4.875,27.138,27.138,0,0,1,2.828-1.249H449.4c.05.049.094.134.15.143a7.29,7.29,0,0,1,5.047,3.029,32.421,32.421,0,0,1,1.9,3.526h24.117c0-1.653.021-3.251-.009-4.849a1.714,1.714,0,0,1,1.011-1.848h5.211a5.5,5.5,0,0,1,3.5,2.258,24.475,24.475,0,0,1,1.323,3.125c.945,0,2.047.036,3.145-.011A1.985,1.985,0,0,1,496.773,1454.453Zm-53.841,38.208a6.041,6.041,0,0,1,3.852,1.226,6.727,6.727,0,0,1,2.835,5.458h4v-14.872c-3.843-1.132-3.841-1.135-6.8-3.745a.668.668,0,0,0-.546-.16,13.512,13.512,0,0,0-2.76,1.224,5.011,5.011,0,0,0-1.985,4.016h-2.668a8.1,8.1,0,0,1,1.791-5.009,8.581,8.581,0,0,1,4.423-2.821,10.716,10.716,0,0,1,4.413-13.42l1.344,2.235a8.176,8.176,0,0,0-3.609,9.037c.966,3.482,4.117,5.66,6.414,5.779.011-.155.031-.31.031-.466q0-12.354,0-24.708a7.346,7.346,0,0,0-.128-1.253,5.358,5.358,0,0,0-10.617.8,5.545,5.545,0,0,0,1.757,4.257l-1.75,1.954c-1.266-1.074-1.66-1.741-2.621-4.411-2.394-.032-5.317,2.3-6.345,5.076a8.269,8.269,0,0,0,3.308,9.72l-1.385,2.239a10.768,10.768,0,0,1-5.041-7.732c-5.377-.314-9.333,5.32-7.85,9.909l3.667-.655v2.778a8.228,8.228,0,0,0-5.449,2.189,7.89,7.89,0,0,0-2.561,5.344c-.226,3.264,1.843,6.751,4.518,7.713a10.626,10.626,0,0,1,12.17-1.982l-1.106,2.319c-3.7-1.389-6.987-.888-9.576,2.112a7.446,7.446,0,0,0-1.279,8.4c1.906,4.13,5.35,5.431,9.717,4.654l.732,2.475-1.581.414c.8,4.712,5.2,7.083,8.071,6.68.816-2.65,1.631-3.931,3.158-4.931l1.583,2.107c-.23.2-.434.371-.622.553a5.371,5.371,0,1,0,9.227,3.481c.016-6,.005-12,0-18a5.421,5.421,0,0,0-.06-.578c-4.974-.465-7.557,1.219-8.067,5.318h-2.585a2.735,2.735,0,0,1-.029-.346,7.931,7.931,0,0,1,3.4-6.2c.232-.172.542-.426.561-.662a5.461,5.461,0,0,0-.107-1.8,3.993,3.993,0,0,0-3.835-3.095Zm13.45,22.81a2,2,0,0,0,.283.047q14.566,0,29.131-.006a3.522,3.522,0,0,0,1.157-.2,2.659,2.659,0,0,0,1.716-2.807,2.587,2.587,0,0,0-2.4-2.327c-1.338-.076-2.682-.025-4.023-.055-1.151-.025-1.6-.5-1.632-1.647-.005-.21,0-.421,0-.631v-50.222h-24.23Zm32.32-7.321v-.888q0-26.557,0-53.114a7.8,7.8,0,0,0-.018-.788,2.583,2.583,0,0,0-2.2-2.446,25.773,25.773,0,0,0-3.133-.026v56.5C485.153,1507.492,486.974,1507.166,488.7,1508.151Zm5.316,12.718v-64.616h-2.623v11.085q0,22.458,0,44.917a6.041,6.041,0,0,1-1.062,3.721,5.629,5.629,0,0,1-4.879,2.249q-14.051,0-28.1,0h-.95v2.646Z" fill="#020202"/>
      <path id="Trazado_616968" data-name="Trazado 616968" d="M445.194,1494.933v2.621a3.993,3.993,0,0,1,3.835,3.095,5.462,5.462,0,0,1,.107,1.8c-.019.236-.329.49-.561.662a7.931,7.931,0,0,0-3.4,6.2,2.732,2.732,0,0,0,.029.346h2.585c.51-4.1,3.093-5.783,8.067-5.318a5.424,5.424,0,0,1,.06.578c0,6,.014,12,0,18a5.38,5.38,0,1,1-9.227-3.481c.188-.183.391-.349.622-.553l-1.583-2.107c-1.526,1-2.342,2.281-3.158,4.931-2.872.4-7.269-1.968-8.071-6.68l1.581-.414-.732-2.475c-4.367.778-7.811-.523-9.717-4.654a7.446,7.446,0,0,1,1.279-8.4c2.589-3,5.877-3.5,9.576-2.112l1.106-2.319a10.626,10.626,0,0,0-12.17,1.982c-2.675-.962-4.744-4.449-4.518-7.713a7.89,7.89,0,0,1,2.561-5.344,8.228,8.228,0,0,1,5.449-2.189v-2.778l-3.667.655c-1.483-4.589,2.474-10.223,7.85-9.909a10.768,10.768,0,0,0,5.041,7.731l1.385-2.239a8.269,8.269,0,0,1-3.308-9.72c1.028-2.779,3.951-5.108,6.345-5.076.961,2.67,1.355,3.337,2.621,4.411l1.75-1.954a5.545,5.545,0,0,1-1.757-4.257,5.358,5.358,0,0,1,10.617-.8,7.341,7.341,0,0,1,.128,1.253q.011,12.354,0,24.708c0,.156-.02.311-.031.466-2.3-.119-5.448-2.3-6.414-5.779a8.176,8.176,0,0,1,3.609-9.037l-1.344-2.235a10.716,10.716,0,0,0-4.413,13.42,8.58,8.58,0,0,0-4.423,2.821,8.1,8.1,0,0,0-1.791,5.009h2.668a5.01,5.01,0,0,1,1.985-4.016,13.506,13.506,0,0,1,2.76-1.224.669.669,0,0,1,.546.16c2.96,2.61,2.958,2.613,6.8,3.745v14.872h-4a6.727,6.727,0,0,0-2.835-5.458A6.04,6.04,0,0,0,445.194,1494.933Z" transform="translate(-2.262 -2.272)" fill="#f0be99"/>
      <path id="Trazado_616969" data-name="Trazado 616969" d="M490.564,1523.488v-57.853h24.23v50.222c0,.21,0,.421,0,.631.03,1.152.481,1.622,1.632,1.647,1.341.029,2.686-.021,4.023.055a2.587,2.587,0,0,1,2.4,2.327,2.659,2.659,0,0,1-1.716,2.807,3.522,3.522,0,0,1-1.157.2q-14.565.015-29.131.006A2,2,0,0,1,490.564,1523.488Zm4.054-48.44v2.623h16.072v-2.623Zm16.095,5.435H494.629v2.579h16.084Zm-16.091,28.183h16.072v-2.586H494.622Zm16.1,2.8h-16.1v2.587h16.1Zm-5.389-25.613H494.635v2.6H505.33Zm0,33.594v-2.613H494.631v2.613Zm5.388-49.782h-8v2.607h8Zm0,31.008h-8v2.609h8Zm-13.4-31.018v2.629h2.626v-2.629Zm2.631,31.007h-2.626v2.625h2.626Z" transform="translate(-34.182 -8.016)" fill="#e3e3e3"/>
      <path id="Trazado_616970" data-name="Trazado 616970" d="M545.687,1510.445c-1.728-.985-3.549-.658-5.346-.763v-56.5a25.773,25.773,0,0,1,3.133.026,2.583,2.583,0,0,1,2.2,2.446,7.816,7.816,0,0,1,.018.788q0,26.557,0,53.115Z" transform="translate(-56.985 -2.294)" fill="#29a9e0"/>
      <path id="Trazado_616971" data-name="Trazado 616971" d="M528.22,1527.729H490.607v-2.646h.951q14.051,0,28.1,0a5.629,5.629,0,0,0,4.879-2.249,6.04,6.04,0,0,0,1.062-3.721q-.009-22.458,0-44.917v-11.085h2.623Z" transform="translate(-34.201 -6.86)" fill="#0070ba"/>
      <path id="Trazado_616972" data-name="Trazado 616972" d="M510.432,1595.051v-2.622h20.145v2.622Z" transform="translate(-43.284 -66.102)" fill="#020202"/>
      <path id="Trazado_616973" data-name="Trazado 616973" d="M555.335,1592.439v2.621H552.7v-2.621Z" transform="translate(-62.647 -66.107)" fill="#0c0c0c"/>
      <path id="Trazado_616974" data-name="Trazado 616974" d="M498.046,1483.005h16.072v2.623H498.046Z" transform="translate(-37.609 -15.974)" fill="#0c0c0c"/>
      <path id="Trazado_616975" data-name="Trazado 616975" d="M514.149,1493.034v2.579H498.065v-2.579Z" transform="translate(-37.618 -20.568)" fill="#020202"/>
      <path id="Trazado_616976" data-name="Trazado 616976" d="M498.052,1542.856v-2.586h16.072v2.586Z" transform="translate(-37.612 -42.208)" fill="#020202"/>
      <path id="Trazado_616977" data-name="Trazado 616977" d="M514.145,1550.207v2.587h-16.1v-2.587Z" transform="translate(-37.608 -46.76)" fill="#020202"/>
      <path id="Trazado_616978" data-name="Trazado 616978" d="M508.772,1502.941v2.6H498.077v-2.6Z" transform="translate(-37.624 -25.107)" fill="#020202"/>
      <path id="Trazado_616979" data-name="Trazado 616979" d="M508.763,1562.727H498.069v-2.614h10.694Z" transform="translate(-37.62 -51.298)" fill="#020202"/>
      <path id="Trazado_616980" data-name="Trazado 616980" d="M520.986,1473.068v2.607h-8v-2.607Z" transform="translate(-44.455 -11.421)" fill="#020202"/>
      <path id="Trazado_616981" data-name="Trazado 616981" d="M520.989,1530.291v2.609h-8v-2.609Z" transform="translate(-44.456 -37.636)" fill="#020202"/>
      <path id="Trazado_616982" data-name="Trazado 616982" d="M503.018,1473.05h2.626v2.629h-2.626Z" transform="translate(-39.887 -11.413)" fill="#0c0c0c"/>
      <path id="Trazado_616983" data-name="Trazado 616983" d="M505.653,1530.27v2.625h-2.626v-2.625Z" transform="translate(-39.891 -37.626)" fill="#0c0c0c"/>
    </g>
  </g>
</svg>
