<svg xmlns="http://www.w3.org/2000/svg" width="134" height="134" viewBox="0 0 134 134">
  <g id="Grupo_878576" data-name="Grupo 878576" transform="translate(-466 -9071)">
    <circle id="Elipse_5065" data-name="Elipse 5065" cx="67" cy="67" r="67" transform="translate(466 9071)" fill="#222b5a"/>
    <g id="Grupo_876817" data-name="Grupo 876817" transform="translate(1 7629.859)">
      <path id="Trazado_126238" data-name="Trazado 126238" d="M494,1504.236a5.541,5.541,0,0,1,.945-.673q6.455-2.823,12.93-5.6a3.521,3.521,0,0,1,1.287-.264c1.52-.031,3.041-.012,4.624-.012v-9.5c-.544,0-1.1,0-1.649,0-1.026-.009-1.311-.279-1.315-1.274q-.01-2.422,0-4.846c0-.869.213-1.116,1.057-1.283l16.367-3.258c.251-.05.5-.118.825-.195v-.756q0-4.108,0-8.216a3.962,3.962,0,0,1,.041-.769.821.821,0,0,1,1.392-.482,1.294,1.294,0,0,0,1.175.406q3.265,0,6.53,0c1.09,0,1.314.234,1.316,1.326,0,1.381.006,2.762,0,4.143,0,.867-.312,1.174-1.193,1.176-2.456.007-4.912,0-7.423,0v3.2q3.963.792,7.908,1.582,4.641.924,9.285,1.842a1.076,1.076,0,0,1,1.009,1.195c-.022,1.685,0,3.37-.011,5.056-.006.829-.313,1.118-1.158,1.146-.3.01-.609,0-.913,0h-.894v9.5c1.121,0,2.238.049,3.349-.012a7.822,7.822,0,0,1,3.721.761c3.88,1.74,7.789,3.417,11.706,5.074a1.456,1.456,0,0,1,1.029,1.6c-.052,1.473-.014,2.949-.015,4.423,0,1.185-.247,1.43-1.439,1.439h-.613V1531.9c.333,0,.674,0,1.016,0a.909.909,0,0,1,1.03.98c.017,1.638.025,3.277-.014,4.915-.007.288-.261.571-.4.856H494v-6.181c.582-.928,1.584-.4,2.355-.642v-20.836c-.826-.107-1.743.232-2.355-.578Zm16.725,4.883c.038-.078.075-.118.075-.159.009-.608.014-1.216.02-1.825.009-.973.178-1.174,1.125-1.363,5.088-1.017,10.172-2.05,15.264-3.043a9.613,9.613,0,0,1,3.376-.387c5.862,1.066,11.7,2.287,17.542,3.447a1.062,1.062,0,0,1,.982,1.215c-.026.694-.005,1.39-.005,2.1h15.014c0-1.155-.028-2.255.013-3.353a.781.781,0,0,0-.589-.865c-4-1.71-7.978-3.449-11.971-5.163a2.8,2.8,0,0,0-1.076-.228q-20.537-.017-41.074,0a2.127,2.127,0,0,0-.819.121q-6.216,2.667-12.416,5.372a.644.644,0,0,0-.36.424c-.029,1.231-.017,2.463-.017,3.714Zm4.961-11.475h28.538v-9.4H515.686Zm46.274,34.228v-20.857H549.29c-.2.7-.187,1.539-.6,1.894-.427.37-1.257.272-1.931.381v18.581Zm-63.7-20.881v20.855h15.184v-18.672c-.571,0-1.084.023-1.6-.005-.716-.039-1-.342-1.025-1.061-.014-.365,0-.731,0-1.117Zm65.829,22.76H495.859v3.164H564.09Zm-16.809-26.243c-.188-.056-.364-.121-.545-.158-4.7-.94-9.391-1.9-14.1-2.8a8.7,8.7,0,0,0-3.583-.376c-3.862.823-7.744,1.555-11.617,2.326-1.6.319-3.2.648-4.771.967v3.87h34.611Zm-34.628-21.147h34.619V1482.5c-.208-.055-.385-.112-.567-.149-5.019-1-10.036-2.009-15.062-2.979a6.914,6.914,0,0,0-2.474-.161c-4.114.753-8.211,1.6-12.314,2.418-1.411.281-2.82.573-4.2.854Zm21.773,26.856h-8.611v18.636h8.611Zm10.461,18.648v-18.639H536.3v18.639Zm-20.972,0v-18.635h-8.578v18.635Zm13.758-59.538v-2.982H530.9v2.982Z" transform="translate(0 0)" fill="#fff"/>
      <path id="Trazado_126239" data-name="Trazado 126239" d="M545.111,1517.425c0-.465-.022-.932.005-1.4a.837.837,0,0,1,.83-.867.79.79,0,0,1,.912.767,29.583,29.583,0,0,1-.01,3.134.775.775,0,0,1-.938.725.813.813,0,0,1-.789-.827c-.033-.51-.007-1.024-.007-1.535Z" transform="translate(-25.963 -24.54)" fill="#fff"/>
      <path id="Trazado_126240" data-name="Trazado 126240" d="M556.951,1517.5c0,.443.01.885,0,1.328-.015.565-.274.95-.873.967a.849.849,0,0,1-.914-.93c-.034-.93-.038-1.864,0-2.794a.891.891,0,1,1,1.781.032C556.962,1516.564,556.951,1517.03,556.951,1517.5Z" transform="translate(-31.061 -24.542)" fill="#fff"/>
      <path id="Trazado_126241" data-name="Trazado 126241" d="M575.379,1517.421c0-.465-.022-.933.007-1.4a.837.837,0,0,1,.835-.863.794.794,0,0,1,.913.769,30.264,30.264,0,0,1,.007,3.069.8.8,0,0,1-.893.791.84.84,0,0,1-.865-.9C575.36,1518.4,575.378,1517.91,575.379,1517.421Z" transform="translate(-41.342 -24.539)" fill="#fff"/>
      <path id="Trazado_126242" data-name="Trazado 126242" d="M587.247,1517.529c0,.465.023.932-.006,1.4a.829.829,0,0,1-.829.863.784.784,0,0,1-.914-.76,31.114,31.114,0,0,1,.009-3.134.775.775,0,0,1,.869-.735.827.827,0,0,1,.86.835c.037.509.008,1.023.008,1.535Z" transform="translate(-46.469 -24.54)" fill="#fff"/>
      <path id="Trazado_126243" data-name="Trazado 126243" d="M567.066,1517.5c0,.465.016.931,0,1.4a.822.822,0,0,1-.861.9.8.8,0,0,1-.887-.864c-.026-.953-.022-1.908,0-2.862a.819.819,0,0,1,.86-.9c.593-.006.878.365.9.937.015.465,0,.931,0,1.4Z" transform="translate(-36.223 -24.544)" fill="#fff"/>
      <path id="Trazado_126244" data-name="Trazado 126244" d="M613.326,1561.064c.724,0,1.448-.01,2.172,0,.774.014,1.073.293,1.081,1.05q.024,2.242,0,4.484c-.008.741-.326,1.057-1.085,1.065q-2.206.027-4.414,0c-.767-.01-1.1-.351-1.1-1.139q-.024-2.172,0-4.344c.01-.815.337-1.109,1.179-1.119C611.877,1561.057,612.6,1561.064,613.326,1561.064Zm1.426,4.776v-2.952h-2.929v2.952Z" transform="translate(-58.916 -47.861)" fill="#fff"/>
      <path id="Trazado_126245" data-name="Trazado 126245" d="M616.582,1583.328c0,.747.012,1.495,0,2.242s-.294,1.043-1.007,1.052q-2.276.03-4.554,0c-.712-.009-1.03-.319-1.041-1.038q-.035-2.241,0-4.484c.011-.733.351-1.065,1.1-1.075q2.206-.033,4.413,0c.788.011,1.08.333,1.094,1.131C616.593,1581.879,616.583,1582.6,616.582,1583.328Zm-1.827-1.45h-2.934v2.91h2.934Z" transform="translate(-58.915 -57.488)" fill="#fff"/>
      <path id="Trazado_126246" data-name="Trazado 126246" d="M510.548,1564.32c0-.747-.005-1.495,0-2.242a.9.9,0,0,1,.993-1.007q2.313-.01,4.625,0a.9.9,0,0,1,.985,1.018c.009,1.518.006,3.037,0,4.555a.924.924,0,0,1-1,1.022q-2.312.035-4.625,0a.919.919,0,0,1-.983-1.032Q510.549,1565.476,510.548,1564.32Zm1.86-1.433v2.93H515.3v-2.93Z" transform="translate(-8.406 -47.864)" fill="#fff"/>
      <path id="Trazado_126247" data-name="Trazado 126247" d="M513.821,1586.629c-.748,0-1.5.015-2.243-.005-.722-.02-1.024-.318-1.031-1.034q-.023-2.243,0-4.485c.006-.733.328-1.068,1.079-1.079q2.207-.032,4.415,0c.787.011,1.1.345,1.108,1.127q.017,2.172,0,4.345c-.006.834-.3,1.116-1.155,1.131C515.269,1586.64,514.545,1586.63,513.821,1586.629Zm-1.44-4.772v2.938h2.925v-2.938Z" transform="translate(-8.402 -57.488)" fill="#fff"/>
    </g>
  </g>
</svg>
