<svg xmlns="http://www.w3.org/2000/svg" xmlns:xlink="http://www.w3.org/1999/xlink" width="295" height="150.48" viewBox="0 0 295 150.48">
  <defs>
    <linearGradient id="linear-gradient" x1="0.851" y1="-1.108" x2="0.394" y2="1.237" gradientUnits="objectBoundingBox">
      <stop offset="0.012" stop-color="#cbcf00"/>
      <stop offset="0.988" stop-color="gray"/>
    </linearGradient>
    <linearGradient id="linear-gradient-2" x1="0.503" y1="1.321" x2="0.498" y2="0.38" xlink:href="#linear-gradient"/>
    <linearGradient id="linear-gradient-3" x1="0.083" y1="1.04" x2="0.728" y2="0.153" gradientUnits="objectBoundingBox">
      <stop offset="0.012" stop-color="#b4e000"/>
      <stop offset="0.988" stop-color="#fff"/>
    </linearGradient>
    <linearGradient id="linear-gradient-4" x1="-0.097" y1="1.34" x2="0.551" y2="0.313" xlink:href="#linear-gradient-3"/>
  </defs>
  <g id="Grupo_878571" data-name="Grupo 878571" transform="translate(-285 -6025.521)">
    <g id="Grupo_876644" data-name="Grupo 876644" transform="translate(27.606 6004.218)">
      <g id="Grupo_876637" data-name="Grupo 876637" transform="translate(274.135 107.612)">
        <path id="Trazado_125549" data-name="Trazado 125549" d="M432.742,77.483c9.182,2.491,9.638,6.5-16.787,10.942,3.145.032,33.378,2.636,34.387,7.243.992,4.593-21.556,8.565-51.513,6.14-22.778,5.1-37.8.47-43.8-1.027-9.851,1.71-55.569,4.151-63.935-.766-5.845-3.436,18.038-8.694,24.974-9.574-10.238-.928-45.748-4.332-50.632-7.846-2.019-1.467,1.171-2.817,7.944-3.99,17.341-3.028,58.155-4.967,94.985-4.948,20.415,0,39.61.587,52.895,1.921A77.939,77.939,0,0,1,432.742,77.483Z" transform="translate(-264.514 -39.969)" fill="#9ea828"/>
        <g id="Grupo_876636" data-name="Grupo 876636" transform="translate(0.327 33.689)">
          <path id="Trazado_125550" data-name="Trazado 125550" d="M348.3,75.971q8.788-.935,17.6-1.524c.048-.03.092-.062.14-.092a2.148,2.148,0,0,1,2.342-.064c3.766-.231,7.532-.435,11.3-.571-3.706-.041-7.486-.062-11.311-.062-36.83-.018-77.644,1.921-94.985,4.948-6.773,1.173-9.963,2.523-7.944,3.99,2.09,1.5,9.8,2.989,18.732,4.265,5.987-1.311,11.985-2.462,17.829-3.628C317.324,80.179,332.765,77.632,348.3,75.971Z" transform="translate(-264.841 -73.658)" fill="#585e10" style="mix-blend-mode: screen;isolation: isolate"/>
          <path id="Trazado_125551" data-name="Trazado 125551" d="M308.089,79.643c10,.917,20.534-1.13,30.7-3.317q-14.553-.052-29.092.99A9.049,9.049,0,0,0,308.089,79.643Z" transform="translate(-208.964 -70.213)" fill="#585e10" style="mix-blend-mode: screen;isolation: isolate"/>
          <path id="Trazado_125552" data-name="Trazado 125552" d="M436.055,91.852c-1.008-4.607-31.242-7.211-34.387-7.243,13.071-2.2,19.558-4.288,21.671-6.145q-10.706-1.234-21.453-1.852-8.526,1.588-17.057,3.168c-12.805,2.352-25.934,5.815-39.005,3.906a2.447,2.447,0,0,1-1.705-3,17.863,17.863,0,0,1,1.2-3.31q-5.656.481-11.3,1.121-22.227,2.523-44.176,6.97c5.017.525,9.317.926,11.944,1.164-6.936.88-30.818,6.138-24.974,9.574,8.366,4.916,54.084,2.475,63.935.766,5.991,1.5,21.018,6.122,43.8,1.027C414.5,100.417,437.047,96.445,436.055,91.852Z" transform="translate(-250.553 -69.841)" fill="#585e10" style="mix-blend-mode: screen;isolation: isolate"/>
        </g>
        <path id="Trazado_125553" data-name="Trazado 125553" d="M366.452,82.545c8.859-4.268,31.226-3.86,26.635-.325a34,34,0,0,1-11.673,5.762,77.938,77.938,0,0,0-11.478-1.9c-13.285-1.334-32.48-1.921-52.895-1.921,2.244-2.475-1.254-4.479-12.473-1.368,1.662-.944,5.143-5.34,5.143-8.808,20.3-18.723,11.985.016,9.835,3.158,3.388-2.915,17.894-12.015,26.019-11.591,8.726.472-1.192,10.972-3.924,13.9,10.16-7.309,18.7-1.792,17.387,1.025C370.507,74.222,368.439,80.443,366.452,82.545Z" transform="translate(-213.186 -50.467)" fill="#7d6e0e"/>
        <path id="Trazado_125554" data-name="Trazado 125554" d="M366.452,82.545c8.859-4.268,31.226-3.86,26.635-.325a34,34,0,0,1-11.673,5.762,77.938,77.938,0,0,0-11.478-1.9c-13.285-1.334-32.48-1.921-52.895-1.921,2.244-2.475-1.254-4.479-12.473-1.368,1.662-.944,5.143-5.34,5.143-8.808,20.3-18.723,11.985.016,9.835,3.158,3.388-2.915,17.894-12.015,26.019-11.591,8.726.472-1.192,10.972-3.924,13.9,10.16-7.309,18.7-1.792,17.387,1.025C370.507,74.222,368.439,80.443,366.452,82.545Z" transform="translate(-213.186 -50.467)" fill="url(#linear-gradient)" style="mix-blend-mode: hard-light;isolation: isolate"/>
        <path id="Trazado_125555" data-name="Trazado 125555" d="M361.223,82.472c0,3.468-3.482,7.864-5.143,8.808,11.219-3.11,14.717-1.107,12.473,1.368-36.83-.018-77.644,1.921-94.985,4.948v-.016c-12.436-7.149-10.7-17.259-1.561-12.212,15.808-26.83,20.17-13.8,15.79-3,29.585-31.079,34.795-10.646,31.146-6.007,5.423-5.829,29.778-22.81,37.055-15.693,5.634,5.5-11.151,16.035-16.035,20.073C356.717,75.814,361.223,78.548,361.223,82.472Z" transform="translate(-264.698 -58.959)" fill="#85690a"/>
        <path id="Trazado_125556" data-name="Trazado 125556" d="M361.223,82.472c0,3.468-3.482,7.864-5.143,8.808,11.219-3.11,14.717-1.107,12.473,1.368-36.83-.018-77.644,1.921-94.985,4.948v-.016c-12.436-7.149-10.7-17.259-1.561-12.212,15.808-26.83,20.17-13.8,15.79-3,29.585-31.079,34.795-10.646,31.146-6.007,5.423-5.829,29.778-22.81,37.055-15.693,5.634,5.5-11.151,16.035-16.035,20.073C356.717,75.814,361.223,78.548,361.223,82.472Z" transform="translate(-264.698 -58.959)" fill="url(#linear-gradient-2)" style="mix-blend-mode: hard-light;isolation: isolate"/>
      </g>
      <path id="Trazado_125557" data-name="Trazado 125557" d="M359.95,51.49c-.392-6.807,13.484-.1,18.015.346C373.658,56.48,362.432,58.527,359.95,51.49Z" transform="translate(132.491 35.082)" fill="#cdb42c"/>
      <path id="Trazado_125558" data-name="Trazado 125558" d="M362.489,43.39c.06-4.052,7.651-2.679,7.651-2.679S363.791,46.981,362.489,43.39Z" transform="translate(135.782 24.785)" fill="#cdb42c"/>
      <path id="Trazado_125559" data-name="Trazado 125559" d="M348.542,25.14c-3.812,6.1,10.442,6.709,14.738,1.387C357.272,27.6,351.834,19.871,348.542,25.14Z" transform="translate(116.935 2.558)" fill="#cdb42c"/>
      <path id="Trazado_125560" data-name="Trazado 125560" d="M343.756,59.231c-.9,4.556,7.846,1.65,9.216-2.549C349.593,58.708,344.535,55.293,343.756,59.231Z" transform="translate(111.495 45.71)" fill="#cdb42c"/>
      <g id="Grupo_876639" data-name="Grupo 876639" transform="translate(319.526 21.303)">
        <path id="Trazado_125561" data-name="Trazado 125561" d="M307.845,112.222a28.354,28.354,0,0,1-7.13.112c-3.5,6.514-6.578,12.815-9.035,18.627h-.016c-18.251-15.077,3.5-53.06,8.9-53.156,4.4-.1,3.99,7.651,4.121,10.614,3.028-30.153,34.009-80.591,29.794-38.471,18.755-24.536,49.331-30.431,53.759-28.217,7,3.486-20.5,30.415-29.519,37.676,23.184-11.772,12.977,4.738-11.868,17.142a26.993,26.993,0,0,0-2.622,1.27c.9-.422,1.76-.846,2.622-1.27,15.744-6.674,52.572-9.067-12.292,27.126,37.1-2.182-8.549,25.43-34.907,31.487A196.7,196.7,0,0,1,307.845,112.222Z" transform="translate(-284.502 -21.303)" fill="#cdb42c"/>
        <path id="Trazado_125562" data-name="Trazado 125562" d="M307.845,112.222a28.354,28.354,0,0,1-7.13.112c-3.5,6.514-6.578,12.815-9.035,18.627h-.016c-18.251-15.077,3.5-53.06,8.9-53.156,4.4-.1,3.99,7.651,4.121,10.614,3.028-30.153,34.009-80.591,29.794-38.471,18.755-24.536,49.331-30.431,53.759-28.217,7,3.486-20.5,30.415-29.519,37.676,23.184-11.772,12.977,4.738-11.868,17.142a26.993,26.993,0,0,0-2.622,1.27c.9-.422,1.76-.846,2.622-1.27,15.744-6.674,52.572-9.067-12.292,27.126,37.1-2.182-8.549,25.43-34.907,31.487A196.7,196.7,0,0,1,307.845,112.222Z" transform="translate(-284.502 -21.303)" fill="url(#linear-gradient-3)" style="mix-blend-mode: multiply;isolation: isolate"/>
        <path id="Trazado_125563" data-name="Trazado 125563" d="M388.242,21.732c-4.428-2.214-35,3.681-53.759,28.217,4.215-42.12-26.766,8.318-29.794,38.471-.131-2.964.275-10.713-4.121-10.614-5.4.1-27.156,38.079-8.9,53.156h.016c2.292-5.423,5.141-11.279,8.352-17.327.6-9.895,8.588-19.952,18.23-20.823,1.368-18.024,8.205-44.646,27.2-42.682,6.887-15.505,26.207-23.518,39.514-17.7C388.84,27.194,390.736,22.974,388.242,21.732Z" transform="translate(-284.502 -21.303)" fill="#304f11" style="mix-blend-mode: screen;isolation: isolate"/>
        <path id="Trazado_125564" data-name="Trazado 125564" d="M300.3,61.083a28.354,28.354,0,0,0,7.13-.112,196.7,196.7,0,0,0-8.189,22.941c-1.643,5.7-3.078,11.641-4.247,17.827,0,0-11.772,4.412-9.982-2.849.864-5.113,3.06-11.724,6.253-19.179C293.72,73.9,296.8,67.6,300.3,61.083Z" transform="translate(-284.085 29.949)" fill="#6d462b"/>
        <path id="Trazado_125565" data-name="Trazado 125565" d="M292.288,101.739c1.169-6.186,2.6-12.129,4.247-17.827a196.7,196.7,0,0,1,8.189-22.941c-.88.112-1.744.183-2.595.229A211.816,211.816,0,0,0,286.918,103,24.535,24.535,0,0,0,292.288,101.739Z" transform="translate(-281.381 29.949)" fill="#6d462b"/>
        <g id="Grupo_876638" data-name="Grupo 876638" transform="translate(0.753 91.032)">
          <path id="Trazado_125566" data-name="Trazado 125566" d="M287.657,94.638A220.309,220.309,0,0,1,296.4,67.446,220.244,220.244,0,0,0,286.346,94.68,11.012,11.012,0,0,0,287.657,94.638Z" transform="translate(-282.874 -52.718)" fill="#2e1d12" style="mix-blend-mode: screen;isolation: isolate"/>
          <path id="Trazado_125567" data-name="Trazado 125567" d="M301.23,61.05c-1.737,3.415-3.821,6.732-5.4,10.009a174.927,174.927,0,0,0-8.116,20.688c-.965,2.886-1.941,5.78-2.886,8.689a2.5,2.5,0,0,0,2.152,2.34,215.628,215.628,0,0,1,10.74-28.868,5.067,5.067,0,0,1,.057-5.031,4.419,4.419,0,0,1,2.4-2.345,2.066,2.066,0,0,1,1.263.021c1.008-1.836,2.056-3.656,3.172-5.45A26.641,26.641,0,0,1,301.23,61.05Z" transform="translate(-284.831 -60.981)" fill="#2e1d12" style="mix-blend-mode: screen;isolation: isolate"/>
          <path id="Trazado_125568" data-name="Trazado 125568" d="M293.959,73.589c1.909-4.05,4.6-8.237,6.713-12.526-.186-.018-.385-.018-.566-.044-3.5,6.514-6.578,12.815-9.035,18.627a93.785,93.785,0,0,0-6.1,18.377c.55-1.671,1.109-3.335,1.664-5A176.174,176.174,0,0,1,293.959,73.589Z" transform="translate(-284.646 -61.02)" fill="#2e1d12" style="mix-blend-mode: screen;isolation: isolate"/>
        </g>
      </g>
      <path id="Trazado_125569" data-name="Trazado 125569" d="M332.7,50.25a3.521,3.521,0,0,0-1.664-1.687,5.957,5.957,0,0,0-2.989-.472,11.592,11.592,0,0,0-2.482.532l-.055.649a8.967,8.967,0,0,1,4.089,1.194c1.155.782.364,2.235-.578,3.271a20.317,20.317,0,0,1-3.305,2.9,43.321,43.321,0,0,1-3.729,2.434l-.676.394.589.5c1.453,1.231,2.56,2.934,2.34,4.726a7.871,7.871,0,0,1-2.863,4.669,32.052,32.052,0,0,1-10.3,5.677,40.506,40.506,0,0,1-11.641,2.349,21.287,21.287,0,0,1-5.856-.516,7.376,7.376,0,0,1-4.694-3.076l-.557.337c.291,2.342,2.375,4.4,4.485,5.5a19.751,19.751,0,0,0,6.754,2.143,33.228,33.228,0,0,0,13.5-.96,34.137,34.137,0,0,0,6.457-2.452,25.787,25.787,0,0,0,6.188-4.245,16.432,16.432,0,0,0,2.835-3.468,11.42,11.42,0,0,0,1.747-5.37,9.976,9.976,0,0,0-1.263-5.473,25.131,25.131,0,0,0,2.789-3.676,8.852,8.852,0,0,0,1.231-3.317A4.532,4.532,0,0,0,332.7,50.25Z" transform="translate(39.977 34.592)" fill="#9e9902"/>
      <g id="Grupo_876641" data-name="Grupo 876641" transform="translate(370.646 56.925)">
        <path id="Trazado_125570" data-name="Trazado 125570" d="M326.05,71.638A151.268,151.268,0,0,1,339.79,59.527l.211-.2a7.392,7.392,0,0,0,3.305,1.662A129.993,129.993,0,0,0,326.9,77.971a88.593,88.593,0,0,0-8.32,12.652,45.773,45.773,0,0,0-4.818,12.356,7.4,7.4,0,0,1-6.952,0,76.963,76.963,0,0,1,8.726-18.2A81.927,81.927,0,0,1,326.05,71.638Z" transform="translate(-306.806 -7.794)" fill="#6d462b"/>
        <g id="Grupo_876640" data-name="Grupo 876640" transform="translate(0 51.536)">
          <path id="Trazado_125571" data-name="Trazado 125571" d="M340,59.33l-.211.2A151.268,151.268,0,0,0,326.05,71.638a81.927,81.927,0,0,0-10.518,13.14,76.963,76.963,0,0,0-8.726,18.2c.135.071.266.1.4.165,4.462-13.892,15.469-25.531,25-36.131a75.024,75.024,0,0,1,7.894-7.609C340.065,59.378,340.031,59.355,340,59.33Z" transform="translate(-306.806 -59.33)" fill="#2e1d12" style="mix-blend-mode: screen;isolation: isolate"/>
          <path id="Trazado_125572" data-name="Trazado 125572" d="M313.488,73.529a53.411,53.411,0,0,0-5.407,10.889C309.695,80.783,311.5,77.127,313.488,73.529Z" transform="translate(-305.159 -40.985)" fill="#2e1d12" style="mix-blend-mode: screen;isolation: isolate"/>
        </g>
        <path id="Trazado_125573" data-name="Trazado 125573" d="M415.351,37.21c-2.606-1.465-9.331,1.889-11.691,2.8-5.34,2.051-20.5,9.867-25.835,14.311C381.013,51,391.89,37.194,385.069,39.8c-10.715,4.1-25.056,17.614-33.851,24.355,5.519-7.667,21.572-24.323,11.967-20.335-6.005,2.507-24.371,17.486-37.981,40.328.08-4.4.014-7.018-2.184-8.419-3.564-2.278-17.011,32.549-11.721,38.1a81.928,81.928,0,0,1,10.518-13.14,151.276,151.276,0,0,1,13.741-12.111l.211-.2a7.392,7.392,0,0,0,3.3,1.662,130,130,0,0,0-16.411,16.979,88.59,88.59,0,0,0-8.32,12.652c49.17-11.153,27.078-12.407,20.662-12.228,12.468-1.953,20.137-7.717,12.29-10.142,36.894-8.253,31.538-13.383,10.878-11.82.342-.05.665-.1,1.008-.163,32.074-5.031,59.9-25.171,23.527-16.12C387.607,66.078,422.466,41.232,415.351,37.21Z" transform="translate(-302.574 -36.845)" fill="#cdb42c"/>
        <path id="Trazado_125574" data-name="Trazado 125574" d="M415.351,37.21c-2.606-1.465-9.331,1.889-11.691,2.8-5.34,2.051-20.5,9.867-25.835,14.311C381.013,51,391.89,37.194,385.069,39.8c-10.715,4.1-25.056,17.614-33.851,24.355,5.519-7.667,21.572-24.323,11.967-20.335-6.005,2.507-24.371,17.486-37.981,40.328.08-4.4.014-7.018-2.184-8.419-3.564-2.278-17.011,32.549-11.721,38.1a81.928,81.928,0,0,1,10.518-13.14,151.276,151.276,0,0,1,13.741-12.111l.211-.2a7.392,7.392,0,0,0,3.3,1.662,130,130,0,0,0-16.411,16.979,88.59,88.59,0,0,0-8.32,12.652c49.17-11.153,27.078-12.407,20.662-12.228,12.468-1.953,20.137-7.717,12.29-10.142,36.894-8.253,31.538-13.383,10.878-11.82.342-.05.665-.1,1.008-.163,32.074-5.031,59.9-25.171,23.527-16.12C387.607,66.078,422.466,41.232,415.351,37.21Z" transform="translate(-302.574 -36.845)" fill="url(#linear-gradient-4)" style="mix-blend-mode: multiply;isolation: isolate"/>
        <path id="Trazado_125575" data-name="Trazado 125575" d="M415.351,37.21c-2.606-1.465-9.331,1.889-11.691,2.8-5.34,2.051-20.5,9.867-25.835,14.311C381.013,51,391.89,37.194,385.069,39.8c-10.715,4.1-25.056,17.614-33.851,24.355,5.519-7.667,21.572-24.323,11.967-20.335-6.005,2.507-24.371,17.486-37.981,40.328.08-4.4.014-7.018-2.184-8.419-3.564-2.278-17.011,32.549-11.721,38.1a83.787,83.787,0,0,1,8.176-10.662c2.23-5.913,5.093-11.192,10.555-13.873,6.608-11.632,16.621-27.573,29.023-21.556,13.486-11.46,31.515-20.44,45.92-15.423C412.734,45.624,418.7,39.105,415.351,37.21Z" transform="translate(-302.574 -36.845)" fill="#304f11" style="mix-blend-mode: screen;isolation: isolate"/>
      </g>
      <path id="Trazado_125576" data-name="Trazado 125576" d="M301.036,43.63A16.594,16.594,0,0,1,308.3,38.2a13.711,13.711,0,0,1,4.9-1,7.969,7.969,0,0,1,3.071.605,5.547,5.547,0,0,1,1.772,1.171,4.856,4.856,0,0,1,1.281,2.23,5.887,5.887,0,0,1-.568,3.965,9.481,9.481,0,0,1-1.6,2.315,17.17,17.17,0,0,1-3.736,2.966,21.982,21.982,0,0,1-8.4,3.021l-.16-.284a54.214,54.214,0,0,0,6.956-4.728,20.818,20.818,0,0,0,2.975-2.915c.827-1.041,1.653-2.352,1.384-3.55s-1.838-1.655-3.14-1.73a14.363,14.363,0,0,0-4.11.431,28.655,28.655,0,0,0-7.722,3.22Z" transform="translate(56.385 20.532)" fill="#9e9902"/>
      <path id="Trazado_125577" data-name="Trazado 125577" d="M322.569,59.946a6.53,6.53,0,0,0-.635,2.929,3.849,3.849,0,0,0,1.176,2.572,8.714,8.714,0,0,0,5.544,2.017,13.4,13.4,0,0,0,5.964-.963c1.829-.745,3.4-2.365,2.913-4.268l-.108-.424.431-.126c3.023-.876,6.044-1.824,8.969-2.966a14.14,14.14,0,0,0,4.016-2.113c.488-.28-.47-.6-1.19-.717a19.892,19.892,0,0,0-2.326-.225l.014-.488a10.1,10.1,0,0,1,2.546-.807,3.7,3.7,0,0,1,1.662.021,2.134,2.134,0,0,1,1.471,1.281,2.4,2.4,0,0,1,.064,1.565,3.446,3.446,0,0,1-.392.864,7.521,7.521,0,0,1-1.256,1.485c-.383.346-.745.646-1.1.933a19.872,19.872,0,0,1-2.159,1.533,35.349,35.349,0,0,1-4.412,2.372,44.116,44.116,0,0,1-4.57,1.857l3.012-5.1a7.565,7.565,0,0,1,.073,3.436,7.819,7.819,0,0,1-1.458,3.168,10.067,10.067,0,0,1-4.3,3.11,15.244,15.244,0,0,1-8.132.731c-2.56-.568-5.343-1.513-7.3-4.178a5.485,5.485,0,0,1,1.043-7.7Z" transform="translate(80.845 42.607)" fill="#b09f02"/>
      <path id="Trazado_125578" data-name="Trazado 125578" d="M334.433,56.185a117.978,117.978,0,0,0,12.911-4.928,44.924,44.924,0,0,0,6.154-3.071,7.344,7.344,0,0,0,1.318-1.027,1.018,1.018,0,0,0,.337-.589c.007-.144-.2-.293-.447-.378a10.911,10.911,0,0,0-3.365-.22l-.021-.323a9.254,9.254,0,0,1,1.763-.8,5.07,5.07,0,0,1,2.186-.277,2.155,2.155,0,0,1,1.838,1.889,2.809,2.809,0,0,1-.259,1.444,5.286,5.286,0,0,1-.413.736,9.553,9.553,0,0,1-1.527,1.682,24.454,24.454,0,0,1-6.253,3.917c-1.112.438-2.212.876-3.339,1.242a31.275,31.275,0,0,1-3.465.839,20.584,20.584,0,0,1-7.323.179Z" transform="translate(99.534 30.03)" fill="#b09f02"/>
      <g id="Grupo_876642" data-name="Grupo 876642" transform="translate(257.394 31.907)" style="mix-blend-mode: multiply;isolation: isolate">
        <path id="Trazado_125579" data-name="Trazado 125579" d="M325.918,38.037c3.741-4.6,9.393-7.575,15.127-9.409a66.26,66.26,0,0,1,17.747-2.636,127.334,127.334,0,0,1,17.57.869c5.769.7,11.444,1.7,17.073,2.684l16.644,3.516c5.471,1.311,10.942,2.354,16.337,3.463,2.7.534,5.4.892,8.084,1.265a53.551,53.551,0,0,0,7.988.513c5.237,0,10.518-1.05,14.483-5.256l.557.337a15.531,15.531,0,0,1-6.312,5.84,26.27,26.27,0,0,1-8.247,2.482,70.994,70.994,0,0,1-17.112-.1c-11.343-1.235-22.484-3.612-33.647-5.673-11.139-2.166-22.324-4.249-33.64-4.818a74.271,74.271,0,0,0-16.881.9,34.639,34.639,0,0,0-15.377,6.532Z" transform="translate(-168.861 -25.929)" fill="#e1d8dd"/>
        <path id="Trazado_125580" data-name="Trazado 125580" d="M321.536,57.541a38.487,38.487,0,0,1,14.247-12.315,61.594,61.594,0,0,1,18.043-5.67c12.5-2.035,25.194-1.655,37.735-.937,12.553.832,25.052,2.262,37.584,2.578a85.443,85.443,0,0,0,18.671-1.256,30.378,30.378,0,0,0,8.735-3.1,16.955,16.955,0,0,0,6.555-6.353l.564.321a17.081,17.081,0,0,1-2.359,4.382,20.261,20.261,0,0,1-3.658,3.578,31.946,31.946,0,0,1-9.122,4.534,76.872,76.872,0,0,1-19.475,3.012c-6.466.39-12.84.06-19.157-.115l-18.753-1.086q-9.279-.725-18.425-.917a153.7,153.7,0,0,0-18.07.426,85.053,85.053,0,0,0-8.8,1.286,50.939,50.939,0,0,0-8.5,2.391,42.3,42.3,0,0,0-15.288,9.622Z" transform="translate(-174.523 -20.038)" fill="#e1d8dd"/>
        <path id="Trazado_125581" data-name="Trazado 125581" d="M353.807,52.118a223.288,223.288,0,0,0,39.315,1.515,105.722,105.722,0,0,0,19.464-2.487,37.266,37.266,0,0,0,9.157-3.344,13.682,13.682,0,0,0,3.78-2.964,6.684,6.684,0,0,0,1.708-4.33h.488a6.91,6.91,0,0,1,.1,2.727,8.839,8.839,0,0,1-1.015,2.67,15.287,15.287,0,0,1-3.784,4.137,34.146,34.146,0,0,1-9.5,4.827A64.183,64.183,0,0,1,403.5,57.394c-3.369.564-6.748.853-10.117,1.114-3.378.108-6.745.154-10.1.025-3.355-.236-6.7-.4-10.021-.947A81.66,81.66,0,0,1,353.747,52.6Z" transform="translate(-132.906 -7.092)" fill="#e1d8dd"/>
        <path id="Trazado_125582" data-name="Trazado 125582" d="M351.151,55.808a64.787,64.787,0,0,0,15.7,3.076,125.8,125.8,0,0,0,16.044.394,99.514,99.514,0,0,0,15.948-1.641,52.117,52.117,0,0,0,7.731-2.077,21.685,21.685,0,0,0,6.945-3.837l.218.243a18.758,18.758,0,0,1-6.564,5.205,41.713,41.713,0,0,1-7.827,2.973,62.76,62.76,0,0,1-8.123,1.678c-2.732.374-5.473.566-8.217.711-2.743.046-5.489.032-8.228-.128a77.868,77.868,0,0,1-8.171-.967c-5.377-.953-10.855-2.368-15.569-5.322Z" transform="translate(-136.405 7.397)" fill="#e1d8dd"/>
        <path id="Trazado_125583" data-name="Trazado 125583" d="M325.894,80.272a39.857,39.857,0,0,1,10.763-9.748A38.423,38.423,0,0,1,350.4,65.717c9.672-1.485,19.395-.449,28.978.2,9.592.791,19.209,1.352,28.787.635a106.916,106.916,0,0,0,28.1-5.858l.225.612a69.6,69.6,0,0,1-27.923,10.4,103.055,103.055,0,0,1-14.955,1.242c-4.971.046-9.89-.28-14.724-.543-4.82-.456-9.558-.9-14.178-1.219a96.819,96.819,0,0,0-13.5-.341,47.2,47.2,0,0,0-6.468.85,32.686,32.686,0,0,0-6.289,1.873A49.151,49.151,0,0,0,326.4,80.684Z" transform="translate(-168.892 18.983)" fill="#e1d8dd"/>
        <path id="Trazado_125584" data-name="Trazado 125584" d="M334.947,80.328a9.723,9.723,0,0,1,4.44-3.44,21.636,21.636,0,0,1,5.466-1.371,77.523,77.523,0,0,1,11.224-.422c7.479.154,14.942.539,22.4.309a98.62,98.62,0,0,0,22.141-2.73,64.079,64.079,0,0,0,20.348-8.962l.186.27a50.708,50.708,0,0,1-9.276,6.67,57.872,57.872,0,0,1-10.621,4.5,73.179,73.179,0,0,1-11.258,2.556,111.088,111.088,0,0,1-11.432.949q-5.718.079-11.361-.195c-3.754-.252-7.486-.463-11.176-.8a105.728,105.728,0,0,0-10.947-.435c-3.569.06-7.222.61-9.869,3.3Z" transform="translate(-157.196 22.887)" fill="#e1d8dd"/>
        <path id="Trazado_125585" data-name="Trazado 125585" d="M257.394,78.269A38.35,38.35,0,0,1,270.121,64.45a61.523,61.523,0,0,1,17.252-7.667c12.168-3.436,24.818-4.495,37.353-5.207,12.562-.626,25.141-.649,37.637-1.781a85.556,85.556,0,0,0,18.423-3.41,30.625,30.625,0,0,0,8.347-4.1,17.068,17.068,0,0,0,5.8-7.105l.449.19a17.063,17.063,0,0,1-1.992,4.472,19.825,19.825,0,0,1-3.275,3.782,31.5,31.5,0,0,1-8.508,5.2,78.428,78.428,0,0,1-18.877,4.788c-6.344,1-12.693,1.373-18.985,1.847l-18.774.99c-6.218.252-12.4.656-18.5,1.281a143.34,143.34,0,0,0-18.049,2.757,65.552,65.552,0,0,0-16.871,6.117,41.2,41.2,0,0,0-13.734,11.9Z" transform="translate(-257.394 -13.979)" fill="#e1d8dd"/>
        <path id="Trazado_125586" data-name="Trazado 125586" d="M291.366,74.4a39.806,39.806,0,0,1,10.353-10.183,38.389,38.389,0,0,1,13.534-5.37c9.6-1.884,19.358-1.251,28.959-1,9.617.392,19.248.557,28.787-.557a106.973,106.973,0,0,0,27.829-7.014l.252.6a69.57,69.57,0,0,1-27.47,11.547,102.917,102.917,0,0,1-14.891,1.859c-4.967.252-9.892.131-14.735.069-4.834-.257-9.585-.5-14.215-.635a96.988,96.988,0,0,0-13.5.22,46.674,46.674,0,0,0-6.427,1.116,32.625,32.625,0,0,0-6.207,2.129,49.22,49.22,0,0,0-11.744,7.609Z" transform="translate(-213.502 5.519)" fill="#e1d8dd"/>
      </g>
      <g id="Grupo_876643" data-name="Grupo 876643" transform="translate(257.394 31.907)" style="mix-blend-mode: multiply;isolation: isolate">
        <path id="Trazado_125587" data-name="Trazado 125587" d="M325.918,38.037c3.741-4.6,9.393-7.575,15.127-9.409a66.26,66.26,0,0,1,17.747-2.636,127.334,127.334,0,0,1,17.57.869c5.769.7,11.444,1.7,17.073,2.684l16.644,3.516c5.471,1.311,10.942,2.354,16.337,3.463,2.7.534,5.4.892,8.084,1.265a53.551,53.551,0,0,0,7.988.513c5.237,0,10.518-1.05,14.483-5.256l.557.337a15.531,15.531,0,0,1-6.312,5.84,26.27,26.27,0,0,1-8.247,2.482,70.994,70.994,0,0,1-17.112-.1c-11.343-1.235-22.484-3.612-33.647-5.673-11.139-2.166-22.324-4.249-33.64-4.818a74.271,74.271,0,0,0-16.881.9,34.639,34.639,0,0,0-15.377,6.532Z" transform="translate(-168.861 -25.929)" fill="#f0f2f2"/>
        <path id="Trazado_125588" data-name="Trazado 125588" d="M321.536,57.541a38.487,38.487,0,0,1,14.247-12.315,61.594,61.594,0,0,1,18.043-5.67c12.5-2.035,25.194-1.655,37.735-.937,12.553.832,25.052,2.262,37.584,2.578a85.443,85.443,0,0,0,18.671-1.256,30.378,30.378,0,0,0,8.735-3.1,16.955,16.955,0,0,0,6.555-6.353l.564.321a17.081,17.081,0,0,1-2.359,4.382,20.261,20.261,0,0,1-3.658,3.578,31.946,31.946,0,0,1-9.122,4.534,76.872,76.872,0,0,1-19.475,3.012c-6.466.39-12.84.06-19.157-.115l-18.753-1.086q-9.279-.725-18.425-.917a153.7,153.7,0,0,0-18.07.426,85.053,85.053,0,0,0-8.8,1.286,50.939,50.939,0,0,0-8.5,2.391,42.3,42.3,0,0,0-15.288,9.622Z" transform="translate(-174.523 -20.038)" fill="#f0f2f2"/>
        <path id="Trazado_125589" data-name="Trazado 125589" d="M353.807,52.118a223.288,223.288,0,0,0,39.315,1.515,105.722,105.722,0,0,0,19.464-2.487,37.266,37.266,0,0,0,9.157-3.344,13.682,13.682,0,0,0,3.78-2.964,6.684,6.684,0,0,0,1.708-4.33h.488a6.91,6.91,0,0,1,.1,2.727,8.839,8.839,0,0,1-1.015,2.67,15.287,15.287,0,0,1-3.784,4.137,34.146,34.146,0,0,1-9.5,4.827A64.183,64.183,0,0,1,403.5,57.394c-3.369.564-6.748.853-10.117,1.114-3.378.108-6.745.154-10.1.025-3.355-.236-6.7-.4-10.021-.947A81.66,81.66,0,0,1,353.747,52.6Z" transform="translate(-132.906 -7.092)" fill="#f0f2f2"/>
        <path id="Trazado_125590" data-name="Trazado 125590" d="M351.151,55.808a64.787,64.787,0,0,0,15.7,3.076,125.8,125.8,0,0,0,16.044.394,99.514,99.514,0,0,0,15.948-1.641,52.117,52.117,0,0,0,7.731-2.077,21.685,21.685,0,0,0,6.945-3.837l.218.243a18.758,18.758,0,0,1-6.564,5.205,41.713,41.713,0,0,1-7.827,2.973,62.76,62.76,0,0,1-8.123,1.678c-2.732.374-5.473.566-8.217.711-2.743.046-5.489.032-8.228-.128a77.868,77.868,0,0,1-8.171-.967c-5.377-.953-10.855-2.368-15.569-5.322Z" transform="translate(-136.405 7.397)" fill="#f0f2f2"/>
        <path id="Trazado_125591" data-name="Trazado 125591" d="M325.894,80.272a39.857,39.857,0,0,1,10.763-9.748A38.423,38.423,0,0,1,350.4,65.717c9.672-1.485,19.395-.449,28.978.2,9.592.791,19.209,1.352,28.787.635a106.916,106.916,0,0,0,28.1-5.858l.225.612a69.6,69.6,0,0,1-27.923,10.4,103.055,103.055,0,0,1-14.955,1.242c-4.971.046-9.89-.28-14.724-.543-4.82-.456-9.558-.9-14.178-1.219a96.819,96.819,0,0,0-13.5-.341,47.2,47.2,0,0,0-6.468.85,32.686,32.686,0,0,0-6.289,1.873A49.151,49.151,0,0,0,326.4,80.684Z" transform="translate(-168.892 18.983)" fill="#f0f2f2"/>
        <path id="Trazado_125592" data-name="Trazado 125592" d="M334.947,80.328a9.723,9.723,0,0,1,4.44-3.44,21.636,21.636,0,0,1,5.466-1.371,77.523,77.523,0,0,1,11.224-.422c7.479.154,14.942.539,22.4.309a98.62,98.62,0,0,0,22.141-2.73,64.079,64.079,0,0,0,20.348-8.962l.186.27a50.708,50.708,0,0,1-9.276,6.67,57.872,57.872,0,0,1-10.621,4.5,73.179,73.179,0,0,1-11.258,2.556,111.088,111.088,0,0,1-11.432.949q-5.718.079-11.361-.195c-3.754-.252-7.486-.463-11.176-.8a105.728,105.728,0,0,0-10.947-.435c-3.569.06-7.222.61-9.869,3.3Z" transform="translate(-157.196 22.887)" fill="#f0f2f2"/>
        <path id="Trazado_125593" data-name="Trazado 125593" d="M257.394,78.269A38.35,38.35,0,0,1,270.121,64.45a61.523,61.523,0,0,1,17.252-7.667c12.168-3.436,24.818-4.495,37.353-5.207,12.562-.626,25.141-.649,37.637-1.781a85.556,85.556,0,0,0,18.423-3.41,30.625,30.625,0,0,0,8.347-4.1,17.068,17.068,0,0,0,5.8-7.105l.449.19a17.063,17.063,0,0,1-1.992,4.472,19.825,19.825,0,0,1-3.275,3.782,31.5,31.5,0,0,1-8.508,5.2,78.428,78.428,0,0,1-18.877,4.788c-6.344,1-12.693,1.373-18.985,1.847l-18.774.99c-6.218.252-12.4.656-18.5,1.281a143.34,143.34,0,0,0-18.049,2.757,65.552,65.552,0,0,0-16.871,6.117,41.2,41.2,0,0,0-13.734,11.9Z" transform="translate(-257.394 -13.979)" fill="#f0f2f2"/>
        <path id="Trazado_125594" data-name="Trazado 125594" d="M291.366,74.4a39.806,39.806,0,0,1,10.353-10.183,38.389,38.389,0,0,1,13.534-5.37c9.6-1.884,19.358-1.251,28.959-1,9.617.392,19.248.557,28.787-.557a106.973,106.973,0,0,0,27.829-7.014l.252.6a69.57,69.57,0,0,1-27.47,11.547,102.917,102.917,0,0,1-14.891,1.859c-4.967.252-9.892.131-14.735.069-4.834-.257-9.585-.5-14.215-.635a96.988,96.988,0,0,0-13.5.22,46.674,46.674,0,0,0-6.427,1.116,32.625,32.625,0,0,0-6.207,2.129,49.22,49.22,0,0,0-11.744,7.609Z" transform="translate(-213.502 5.519)" fill="#f0f2f2"/>
      </g>
    </g>
  </g>
</svg>
