<svg xmlns="http://www.w3.org/2000/svg" width="134" height="134" viewBox="0 0 134 134">
  <g id="Grupo_878575" data-name="Grupo 878575" transform="translate(-390 -5213)">
    <g id="Elipse_4986" data-name="Elipse 4986" transform="translate(390 5213)" fill="#fff" stroke="#ec5060" stroke-width="5">
      <circle cx="67" cy="67" r="67" stroke="none"/>
      <circle cx="67" cy="67" r="64.5" fill="none"/>
    </g>
    <g id="Grupo_876633" data-name="Grupo 876633" transform="translate(614 4614.619)">
      <path id="Trazado_125547" data-name="Trazado 125547" d="M-125.3,699.053h-59.15a3.327,3.327,0,0,0-.387-.123,9.556,9.556,0,0,1-7.825-6.98c-.137-.434-.226-.882-.337-1.323V636.612a3.028,3.028,0,0,0,.127-.379,9.339,9.339,0,0,1,6.828-7.582c.431-.134.878-.219,1.317-.327h4.137c2.3.929,2.89,1.815,2.89,4.334q0,5.7,0,11.391v.773h.647q14.573,0,29.147-.019a1.582,1.582,0,0,0,1-.443q7.114-7.078,14.186-14.2a6.631,6.631,0,0,1,2.6-1.839h1.379a5.689,5.689,0,0,1,2.582,1.749c.805.852,1.655,1.663,2.48,2.5a3.6,3.6,0,0,1,0,5.529q-3.017,3.033-6.043,6.058c-.171.172-.333.353-.584.621.336.02.553.044.771.044,1.08,0,2.16,0,3.24,0a3.563,3.563,0,0,1,3.9,3.9q0,23.241,0,46.482a5.055,5.055,0,0,1-.085,1.028A3.689,3.689,0,0,1-125.3,699.053Zm-24.523-51.659-.107-.146H-177.7v.88q0,15.3,0,30.6a3.553,3.553,0,0,1-3.767,3.83c-.964.016-1.933-.016-2.893.059a7.026,7.026,0,0,0-6.2,7.928,7.282,7.282,0,0,0,7.5,6.157q28.366.009,56.732,0c1.177,0,1.571-.4,1.571-1.575q0-23.171,0-46.342c0-1.222-.371-1.588-1.616-1.591-1.907,0-3.815.012-5.721-.01a1.446,1.446,0,0,0-1.144.477c-3.48,3.513-6.98,7.006-10.465,10.514a4.488,4.488,0,0,1-2.6,1.443,46.283,46.283,0,0,1-5.205.506c-5.308.065-10.616.023-15.923.023h-.825v12.929h28.2V672.3c0-1.681-.012-3.362.008-5.042a1.175,1.175,0,0,1,1.161-1.209,1.192,1.192,0,0,1,1.176,1.195c.012.183,0,.368,0,.552q0,8.288,0,16.576c0,2.048-.847,2.907-2.875,2.907q-11.237,0-22.472,0a3.113,3.113,0,0,1-.885-.089,1.107,1.107,0,0,1-.531-1.82,1.849,1.849,0,0,1,1.163-.427c2.389-.039,4.779-.02,7.169-.02h.74v-9.409h-12.9v.849q0,7.493,0,14.987c0,.23.009.461-.009.69a1.121,1.121,0,0,1-1.1,1.1,1.144,1.144,0,0,1-1.213-.991,4.69,4.69,0,0,1-.025-.758q0-15.194,0-30.388v-.858c-1.2,0-2.3.013-3.395,0a1.166,1.166,0,0,1-1.3-1.131,1.21,1.21,0,0,1,1.3-1.219c.207-.01.414,0,.62,0h19.192c.179-1.719.363-3.335.511-4.956a4.7,4.7,0,0,1,1.435-3.049Q-151.06,648.583-149.824,647.394Zm-40.827,35.76c.971-.668,1.856-1.365,2.821-1.923,1.868-1.08,3.948-1.078,6.026-1.047,1.423.021,1.753-.324,1.753-1.731q0-23.024,0-46.048a3.88,3.88,0,0,0-.023-.689,1.078,1.078,0,0,0-1.054-1.01,20.617,20.617,0,0,0-4.042.2,6.967,6.967,0,0,0-5.479,7.152q-.006,22.266,0,44.53Zm40.881-32.477,5.034,5.028,12.653-12.668-5.021-5.05Zm-3.18,24.826v9.37h12.859V675.5Zm21.016-42.842,5.15,5.175c.551-.547,1.16-1.1,1.71-1.714a1.108,1.108,0,0,0-.031-1.618q-1.7-1.761-3.457-3.46a1.128,1.128,0,0,0-1.67-.02C-130.827,631.559-131.388,632.132-131.934,632.661Zm3.3,6.956-5-5.013-1.655,1.555,5.067,5.075Zm-18.283,17.732-4.44-4.525c-.14,1.278-.3,2.6-.421,3.92-.07.8.244,1.089,1.069,1.014C-149.409,657.639-148.113,657.48-146.916,657.349Z" fill="#222b5a"/>
    </g>
  </g>
</svg>
