<svg xmlns="http://www.w3.org/2000/svg" xmlns:xlink="http://www.w3.org/1999/xlink" width="254" height="598" viewBox="0 0 254 598">
  <defs>
    <clipPath id="clip-path">
      <rect id="Rectángulo_294004" data-name="Rectángulo 294004" width="254" height="598" transform="translate(136 8778)" fill="#fff" stroke="#707070" stroke-width="1"/>
    </clipPath>
  </defs>
  <g id="Enmascarar_grupo_78" data-name="Enmascarar grupo 78" transform="translate(-136 -8778)" opacity="0.246" clip-path="url(#clip-path)">
    <g id="Grupo_878549" data-name="Grupo 878549" transform="translate(8967 11777)">
      <g id="Grupo_878548" data-name="Grupo 878548" transform="translate(-8788.743 -2193.424) rotate(-90)">
        <path id="Trazado_617383" data-name="Trazado 617383" d="M243.4-47.968c6.74,14.293,28.477,66.057,28.477,66.057a40.192,40.192,0,0,0,56.841,0L341.689,5.118a7.007,7.007,0,0,1,9.911,0l.129.129a7.225,7.225,0,0,1,.029,10.236l-41.153,41.15a36.661,36.661,0,0,0,0,51.845h0a36.66,36.66,0,0,0,51.845,0L488.043-17.117h28.621L469.976,32.371a51.1,51.1,0,0,0,0,72.268h0a51.1,51.1,0,0,0,72.269,0l69.912-69.912a7.778,7.778,0,0,1,11,0h0a7.776,7.776,0,0,1,0,11L519.622,149.258a28.883,28.883,0,0,0,0,40.847h0a28.883,28.883,0,0,0,40.847,0l71.719-71.718c3.254-3.255,162.48-166.355,162.48-166.355s-106.744-2.221-131.359,0" transform="translate(0 -0.186)" fill="#b8e3db"/>
        <circle id="Elipse_5143" data-name="Elipse 5143" cx="16.475" cy="16.475" r="16.475" transform="translate(363.221 74.725)" fill="#31346b"/>
        <g id="Grupo_878547" data-name="Grupo 878547" transform="translate(458.787 134.744)">
          <circle id="Elipse_5144" data-name="Elipse 5144" cx="2.724" cy="2.724" r="2.724" fill="#31346b"/>
          <circle id="Elipse_5145" data-name="Elipse 5145" cx="2.724" cy="2.724" r="2.724" transform="translate(0 14.234)" fill="#31346b"/>
          <circle id="Elipse_5146" data-name="Elipse 5146" cx="2.724" cy="2.724" r="2.724" transform="translate(13.863)" fill="#31346b"/>
          <circle id="Elipse_5147" data-name="Elipse 5147" cx="2.724" cy="2.724" r="2.724" transform="translate(13.863 14.234)" fill="#31346b"/>
        </g>
        <circle id="Elipse_5148" data-name="Elipse 5148" cx="6.729" cy="6.729" r="6.729" transform="translate(590.586 146.912)" fill="#31346b"/>
        <line id="Línea_234" data-name="Línea 234" y1="109.796" x2="109.796" transform="translate(591.677 1.76)" fill="none" stroke="#fff" stroke-linecap="round" stroke-miterlimit="10" stroke-width="3"/>
        <line id="Línea_235" data-name="Línea 235" y1="57.49" x2="57.49" transform="translate(395.475 -13.271)" fill="none" stroke="#fff" stroke-linecap="round" stroke-miterlimit="10" stroke-width="3"/>
        <circle id="Elipse_5149" data-name="Elipse 5149" cx="7.186" cy="7.186" r="7.186" transform="translate(420.628 91.043)" fill="#b8e3db"/>
        <circle id="Elipse_5150" data-name="Elipse 5150" cx="7.186" cy="7.186" r="7.186" transform="translate(649.127 95.38)" fill="#f7f3ea"/>
        <path id="Trazado_617384" data-name="Trazado 617384" d="M637.224-34.6,569.436,42.128a12.494,12.494,0,0,0,0,17.668h0a12.493,12.493,0,0,0,17.668,0l28.1-28.1a4.3,4.3,0,0,1,6.083,0h0a4.3,4.3,0,0,1,0,6.083l-9.558,9.558a6.758,6.758,0,0,0,0,9.558h0a6.758,6.758,0,0,0,9.558,0l25.76-25.76a18.233,18.233,0,0,1,25.814,0l.706.706L737.612-34.6Z" transform="translate(-43.271 -3.032)" fill="#cef0e6"/>
        <line id="Línea_236" data-name="Línea 236" x1="101.164" y2="101.164" transform="translate(334.35 -40.444)" fill="none" stroke="#31346b" stroke-linecap="round" stroke-miterlimit="10" stroke-width="3"/>
      </g>
    </g>
  </g>
</svg>
