<svg xmlns="http://www.w3.org/2000/svg" width="134" height="134" viewBox="0 0 134 134">
  <g id="Grupo_878566" data-name="Grupo 878566" transform="translate(-1084 -2861.379)">
    <circle id="Elipse_5078" data-name="Elipse 5078" cx="67" cy="67" r="67" transform="translate(1084 2861.379)" fill="#179587"/>
    <g id="Grupo_878560" data-name="Grupo 878560" transform="translate(-4133.056 1930.957)">
      <path id="Trazado_617402" data-name="Trazado 617402" d="M5266.226,1055.979a7.79,7.79,0,0,1-3.952-2.616c-.723-.783-1.509-1.506-2.25-2.271a1.588,1.588,0,0,1-.139-2.3,1.57,1.57,0,0,1,2.345.079c1.061,1.035,2.091,2.1,3.147,3.141a2.144,2.144,0,0,0,3.4-.014c.761-.746,1.51-1.5,2.261-2.262,1.219-1.233,1.191-2.22-.029-3.452-2.8-2.824-5.573-5.671-8.37-8.5q-3.679-3.712-7.389-7.393a13.256,13.256,0,0,0-1.162-1.032,1.943,1.943,0,0,0-2.384.166c-1.045.974-2.068,1.978-3.034,3.031a2.033,2.033,0,0,0,.209,2.94c1.087,1.119,2.206,2.206,3.3,3.318a1.5,1.5,0,0,1,.35,1.788,1.383,1.383,0,0,1-1.493.893,2.048,2.048,0,0,1-1.086-.513c-1.2-1.147-2.393-2.315-3.531-3.528a5.169,5.169,0,0,1-.023-7.085c.988-1.068,2.014-2.108,3.089-3.087a5.156,5.156,0,0,1,5.223-1.131,1.015,1.015,0,0,0,.817-.06c1.652-1.612,3.267-3.262,4.891-4.9a48.9,48.9,0,0,1,5.2-17.75c-.55-3.42.808-5.727,4.007-6.839a16.163,16.163,0,0,1,.148-2.8,5.406,5.406,0,0,1,6.566-4.031,1.35,1.35,0,0,0,.95-.193,5.444,5.444,0,0,1,4.356-.549c3.37.61,6.728,1.283,10.1,1.9.632.116,1.3.047,1.934.153a5.388,5.388,0,0,1,4.543,6.349c-.024.153-.034.309-.057.536a5.662,5.662,0,0,1,3.476,2.536,5.585,5.585,0,0,1,.608,4.271c3.321,1.115,4.7,3.574,4.158,6.93a5.415,5.415,0,0,1,4.055,4,5.478,5.478,0,0,1-1.648,5.469l3.822,3.826a3.682,3.682,0,0,1,.383.388,1.622,1.622,0,0,0,2.152.605,4.673,4.673,0,0,1,4.848,1.1c1.094,1,2.146,2.047,3.146,3.139a5.118,5.118,0,0,1-.079,7.138q-8.445,8.543-16.979,17a5.142,5.142,0,0,1-7.3-.051c-.935-.9-1.861-1.817-2.756-2.759a5.081,5.081,0,0,1-1.132-5.754.731.731,0,0,0-.216-.933c-1.885-1.866-3.75-3.75-5.638-5.613a1.214,1.214,0,0,0-.718-.35c-1.659-.068-3.319-.1-4.979-.131a7.615,7.615,0,0,0-1.785.039,3.566,3.566,0,0,0-1.634.749c-1.774,1.68-3.468,3.444-5.209,5.159a.719.719,0,0,0-.178.989,5.133,5.133,0,0,1-.965,5.917,28.22,28.22,0,0,1-2.829,2.79,18.9,18.9,0,0,1-2.811,1.561Zm-8.352-27.746,14.417,14.521c1.784-1.795,3.63-3.625,5.443-5.485a4.953,4.953,0,0,1,3.524-1.594,38.848,38.848,0,0,1,4.354.081c2.536.227,4.795-.1,6.484-2.3a1.5,1.5,0,0,1,2.329-.146,1.6,1.6,0,0,1-.126,2.358c-.67.76-1.3,1.56-1.868,2.253l4.778,4.828,14.157-14.243-4.92-4.974c-.317.3-.669.689-1.073,1.011a1.521,1.521,0,0,1-2.257-.318,1.578,1.578,0,0,1,.288-2.116c1.128-1.151,2.295-2.265,3.406-3.431a2.295,2.295,0,0,0-3.21-3.279c-.427.378-.81.807-1.221,1.2a1.6,1.6,0,0,1-2.4.176,1.633,1.633,0,0,1,.206-2.411c.837-.853,1.707-1.677,2.521-2.551a2.3,2.3,0,1,0-3.271-3.23c-.458.423-.883.881-1.329,1.318a1.595,1.595,0,1,1-2.23-2.21c.928-.946,1.9-1.855,2.79-2.833a2.256,2.256,0,0,0-.124-3.224,2.288,2.288,0,0,0-3.174.05c-.438.405-.848.844-1.271,1.265-.892.883-1.828,1-2.521.319s-.6-1.641.276-2.523c.861-.867,1.729-1.727,2.591-2.593a2.245,2.245,0,0,0,.7-1.98,2.2,2.2,0,0,0-1.539-1.885,2.232,2.232,0,0,0-2.427.607c-1.314,1.3-2.6,2.621-3.925,3.906a.811.811,0,0,0-.21,1.116,5.41,5.41,0,0,1-3.216,7.406,15.757,15.757,0,0,1-1.7.359c-.029.126-.073.274-.1.425a5.3,5.3,0,0,1-4.957,4.945c-.467.066-.508.3-.548.669a5.35,5.35,0,0,1-4.75,4.813c-.223.029-.442.082-.607.114a16.533,16.533,0,0,1-.352,1.671,5.454,5.454,0,0,1-7.456,3.265c-.233-.1-.66-.158-.795-.027C5260.944,1025.13,5259.361,1026.741,5257.875,1028.233Zm58.611.474a8.57,8.57,0,0,0-1.61.994q-8.263,8.211-16.478,16.471a2.123,2.123,0,0,0-.019,3.289c.779.8,1.572,1.586,2.369,2.369,1.2,1.178,2.3,1.167,3.507-.035,1.161-1.153,2.313-2.314,3.47-3.472q6.417-6.421,12.831-12.844a2.145,2.145,0,0,0,.025-3.4c-.819-.833-1.621-1.689-2.5-2.461A9.131,9.131,0,0,0,5316.485,1028.707Zm-40.2-18.753a2.35,2.35,0,0,0,2.416-1.361,2.177,2.177,0,0,0-.432-2.53c-1.892-1.929-3.8-3.846-5.734-5.73a2.29,2.29,0,1,0-3.213,3.265c1.871,1.914,3.756,3.814,5.686,5.669A4.513,4.513,0,0,0,5276.287,1009.953Zm5.486-5.47a2.435,2.435,0,0,0,2.431-1.415,1.741,1.741,0,0,0-.978-2.485,13.007,13.007,0,0,1-6.822-7.02,1.345,1.345,0,0,0-.747-.66,2.206,2.206,0,0,0-2.569.951,2.3,2.3,0,0,0,.374,2.923c2.3,2.325,4.6,4.649,6.948,6.927A5.264,5.264,0,0,0,5281.773,1004.484Zm-8.233,8.6a4.824,4.824,0,0,0-.64-1.369c-1.521-1.6-3.069-3.18-4.678-4.69a2.2,2.2,0,0,0-3.042.167,2.168,2.168,0,0,0-.187,2.979c1.537,1.655,3.145,3.248,4.791,4.794a2.032,2.032,0,0,0,2.415.2A2.513,2.513,0,0,0,5273.54,1013.086Zm-5.581,5.368a2.064,2.064,0,0,0-.289-.87,19.087,19.087,0,0,0-2.578-2.543,2.1,2.1,0,0,0-2.788.552,2.27,2.27,0,0,0-.026,2.875,17.313,17.313,0,0,0,1.984,1.967,2.1,2.1,0,0,0,2.406.242A2.317,2.317,0,0,0,5267.959,1018.454Zm20.1-25.036c-2.95-.426-5.75-1.249-8.837-1.457a9.918,9.918,0,0,0,4.759,5.543Z" transform="translate(0 -21.12)" fill="#fff"/>
      <path id="Trazado_617403" data-name="Trazado 617403" d="M5347.8,954.9a1.977,1.977,0,0,1,1.123,2.026c-.047,2.1-.009,4.211-.018,6.318,0,1.135-.62,1.823-1.585,1.806a1.594,1.594,0,0,1-1.541-1.784c-.01-2.08.035-4.161-.021-6.239a2.128,2.128,0,0,1,1.105-2.126Z" transform="translate(-62.711)" fill="#fff"/>
      <path id="Trazado_617404" data-name="Trazado 617404" d="M5278.414,957.88c.038-.959.35-1.439.955-1.693a1.5,1.5,0,0,1,1.722.329c.783.757,1.547,1.534,2.317,2.3,1.065,1.063,2.135,2.121,3.19,3.192a1.6,1.6,0,1,1-2.237,2.206c-1.765-1.756-3.536-3.508-5.273-5.291A5.131,5.131,0,0,1,5278.414,957.88Z" transform="translate(-20.797 -0.713)" fill="#fff"/>
      <path id="Trazado_617405" data-name="Trazado 617405" d="M5397.837,963.23a5.575,5.575,0,0,1,.664-1.091q2.728-2.788,5.508-5.523a1.565,1.565,0,0,1,2.291-.109,1.6,1.6,0,0,1-.109,2.356c-1.809,1.831-3.637,3.644-5.453,5.468a1.588,1.588,0,0,1-1.914.412A1.752,1.752,0,0,1,5397.837,963.23Z" transform="translate(-95.128 -0.721)" fill="#fff"/>
      <path id="Trazado_617406" data-name="Trazado 617406" d="M5271.015,1135.946a1.539,1.539,0,0,1-1.584-1.567,1.56,1.56,0,1,1,3.119.031A1.534,1.534,0,0,1,5271.015,1135.946Z" transform="translate(-15.206 -110.738)" fill="#fff"/>
      <path id="Trazado_617407" data-name="Trazado 617407" d="M5383.543,1095.384a1.528,1.528,0,0,1-1.574-1.494,1.57,1.57,0,0,1,1.534-1.633,1.607,1.607,0,0,1,1.591,1.591A1.571,1.571,0,0,1,5383.543,1095.384Z" transform="translate(-85.251 -85.491)" fill="#fff"/>
    </g>
  </g>
</svg>
