<svg xmlns="http://www.w3.org/2000/svg" width="134" height="134" viewBox="0 0 134 134">
  <g id="Grupo_878568" data-name="Grupo 878568" transform="translate(-730.176 -3364.636)">
    <circle id="Elipse_5080" data-name="Elipse 5080" cx="67" cy="67" r="67" transform="translate(730.176 3364.636)" fill="#179587"/>
    <g id="Grupo_878557" data-name="Grupo 878557" transform="translate(-4620.06 2412.743)">
      <path id="Trazado_617396" data-name="Trazado 617396" d="M5446.422,1056.722h-21c-.879-.449-1.775-.867-2.632-1.354-1.241-.7-2.44-1.485-3.687-2.178a2.981,2.981,0,0,0-1.359-.391c-3.953-.03-7.906-.013-11.859-.025a.945.945,0,0,0-.918.5,4.291,4.291,0,0,1-4.589,2.047,11.72,11.72,0,0,1-1.965-.686,4.843,4.843,0,0,1-3.028,2.089h-1.532a4.972,4.972,0,0,1-3.574-3.16,4.552,4.552,0,0,1-3.854.206,4.691,4.691,0,0,1-2.633-2.779,1.807,1.807,0,0,0-.293.065,4.6,4.6,0,0,1-6.361-3.139,1.009,1.009,0,0,0-.143-.252v-21.037c.446-.882.861-1.783,1.347-2.643.7-1.243,1.483-2.441,2.176-3.689a2.984,2.984,0,0,0,.393-1.36c.03-3.958.009-7.916.028-11.874a1.028,1.028,0,0,0-.555-.966,4.313,4.313,0,0,1-1.986-4.553,12.054,12.054,0,0,1,.681-1.965,5.008,5.008,0,0,1-2.085-3.044V995a4.928,4.928,0,0,1,3.148-3.573,4.634,4.634,0,0,1-.2-3.873,4.721,4.721,0,0,1,2.774-2.637,1.854,1.854,0,0,0-.067-.293,4.615,4.615,0,0,1,3.135-6.373,1.038,1.038,0,0,0,.253-.142h21c.857.437,1.732.842,2.567,1.317,1.262.719,2.483,1.51,3.752,2.216a2.977,2.977,0,0,0,1.359.391c3.952.03,7.9.009,11.856.028a1.011,1.011,0,0,0,.961-.561,4.194,4.194,0,0,1,4.24-2.018,14.284,14.284,0,0,1,2.293.676,4.946,4.946,0,0,1,3.007-2.05h1.533a4.921,4.921,0,0,1,3.553,3.128,4.643,4.643,0,0,1,6.475,2.453,12.676,12.676,0,0,1,2.806-.272,4.608,4.608,0,0,1,4.02,4.749c.011,6.37.028,12.739-.027,19.108a5.607,5.607,0,0,1-.681,2.459c-.869,1.647-1.9,3.206-2.828,4.825a2.776,2.776,0,0,0-.376,1.29c-.029,3.99-.009,7.981-.027,11.971a.96.96,0,0,0,.528.9,4.314,4.314,0,0,1,2.013,4.549,11.661,11.661,0,0,1-.663,1.936c2.945,2.057,2.869,6.517-1.049,8.271a4.568,4.568,0,0,1,.175,3.778,4.683,4.683,0,0,1-2.8,2.657c.062.185.1.305.142.422a4.609,4.609,0,0,1-2.966,6.187C5446.733,1056.575,5446.579,1056.655,5446.422,1056.722Zm-19.777-72.052h-.988c-3.626,0-7.253-.006-10.88,0a5.094,5.094,0,0,1-2.763-.758c-1.5-.924-3-1.85-4.537-2.708a3.572,3.572,0,0,0-1.643-.466c-6.129-.032-12.259-.02-18.389-.02a6.206,6.206,0,0,0-.766.019,2.088,2.088,0,0,0-1.838,1.951,1.978,1.978,0,0,0,1.807,1.948,5.964,5.964,0,0,0,.764.029c1.737,0,3.474-.01,5.21.01a1.284,1.284,0,0,1,1.374,1.248,1.337,1.337,0,0,1-1.291,1.353,6.78,6.78,0,0,1-.689.011c-2.528,0-5.057-.008-7.585.006a2.048,2.048,0,0,0-2.2,1.962,1.987,1.987,0,0,0,2.2,1.933c1.635.012,3.269,0,4.9,0,1.387,0,2.029.407,2.049,1.3s-.624,1.325-2,1.325c-2.427,0-4.853-.008-7.279.008a4.026,4.026,0,0,0-1.277.177,1.922,1.922,0,0,0-1.194,2.025,2.065,2.065,0,0,0,2.057,1.721c2.579.022,5.159.009,7.738.01,1.306,0,1.951.429,1.959,1.3s-.64,1.316-1.939,1.316c-2.146,0-4.291-.012-6.436.006a1.941,1.941,0,0,0-2.061,1.834,2,2,0,0,0,1.839,2.075,6.261,6.261,0,0,0,.841.032q6.474,0,12.948,0c.256,0,.511.005.767,0,.706-.018,1.4-.022,1.758.766s-.118,1.307-.561,1.848c-1.054,1.285-2.112,2.566-3.151,3.864a1.553,1.553,0,0,0-.115,1.927,1.448,1.448,0,0,0,1.73.661,2.961,2.961,0,0,0,1.114-.759c3.983-3.934,7.979-7.855,11.907-11.845a5.163,5.163,0,0,1,4.224-1.722c1.135.069,2.277.013,3.316.013a12.841,12.841,0,0,1,.153-2.443,4.236,4.236,0,0,1,6.718-2.167c.723.546,1.409,1.138,2.205,1.786Zm-20.82,65.488h.891c3.575,0,7.151.018,10.726-.01a5.821,5.821,0,0,1,3.26.909q2.169,1.371,4.4,2.634a3.083,3.083,0,0,0,1.433.4c6.18.026,12.361.018,18.541.017,1.522,0,2.52-.77,2.544-1.954.025-1.235-.942-1.992-2.554-1.994-1.737,0-3.473.01-5.209-.009a1.283,1.283,0,0,1-1.391-1.231,1.343,1.343,0,0,1,1.348-1.375c.2-.016.408-.006.612-.006,2.5,0,5.005.007,7.508,0a2.075,2.075,0,0,0,2.3-1.947c.013-1.158-.887-1.944-2.263-1.952-1.711-.01-3.422,0-5.134-.007a3,3,0,0,1-.83-.092,1.28,1.28,0,0,1,.209-2.5,6.068,6.068,0,0,1,.765-.027c2.478,0,4.955.008,7.432-.01a3.69,3.69,0,0,0,1.27-.2,1.9,1.9,0,0,0,1.137-2.054,2.082,2.082,0,0,0-2.1-1.669c-2.553-.016-5.107-.006-7.661-.007-.2,0-.409.008-.613,0a1.341,1.341,0,0,1-1.367-1.275,1.31,1.31,0,0,1,1.378-1.331c2.324-.017,4.647,0,6.972-.013a1.944,1.944,0,0,0,2.086-1.888,2.014,2.014,0,0,0-1.968-2.039c-.253-.024-.51-.015-.766-.016H5435.91a5.021,5.021,0,0,1-1.371-.033,1.86,1.86,0,0,1-1.117-.737,2.214,2.214,0,0,1,.13-1.339c.07-.249.331-.445.509-.663,1-1.228,2.013-2.449,3-3.686a1.563,1.563,0,0,0,.136-1.927,1.454,1.454,0,0,0-1.722-.682,2.685,2.685,0,0,0-1.063.7c-4.038,3.988-8.082,7.969-12.075,12a4.939,4.939,0,0,1-3.953,1.631c-1.19-.059-2.385-.012-3.493-.012a12.686,12.686,0,0,1-.148,2.432,4.236,4.236,0,0,1-6.713,2.181c-.724-.546-1.411-1.141-2.208-1.79Zm31.542-22.324h11.545v-.876c0-3.658.008-7.317,0-10.975a5.217,5.217,0,0,1,.782-2.837q1.427-2.315,2.789-4.671a2.436,2.436,0,0,0,.358-1.142q.032-9.593.009-19.186a2.071,2.071,0,0,0-2-2.179,2.015,2.015,0,0,0-1.925,2.156c-.021.741,0,1.484,0,2.225,0,1.176.016,2.354-.018,3.53a1.258,1.258,0,0,1-1.2,1.257,1.312,1.312,0,0,1-1.355-1.107,4.19,4.19,0,0,1-.038-.764q0-3.646,0-7.292a6.547,6.547,0,0,0-.032-.919,2.039,2.039,0,0,0-1.972-1.706,1.9,1.9,0,0,0-1.869,1.863c-.042,1.713-.019,3.427-.022,5.141,0,.256.011.512-.006.767a1.352,1.352,0,0,1-1.33,1.4,1.3,1.3,0,0,1-1.274-1.43c-.017-2.712,0-5.424-.015-8.135a2.009,2.009,0,0,0-1.931-2.223,2.081,2.081,0,0,0-1.993,2.262c-.01,2.072,0,4.144,0,6.216,0,.614.01,1.228,0,1.842a1.311,1.311,0,1,1-2.605.033c-.007-.2,0-.409,0-.614,0-2.1.01-4.2,0-6.293a1.952,1.952,0,0,0-1.862-2.112,2.023,2.023,0,0,0-2.062,2.023c-.021.254-.011.511-.011.767q0,6.792,0,13.584a6.37,6.37,0,0,1-.02.767,1.267,1.267,0,0,1-1.942.968,6.708,6.708,0,0,1-.786-.61c-1.226-1-2.44-2.019-3.679-3.007a1.638,1.638,0,0,0-2-.116,1.446,1.446,0,0,0-.634,1.675,2.965,2.965,0,0,0,.747,1.12c3.96,4.028,7.912,8.063,11.92,12.043a5.01,5.01,0,0,1,1.642,4.032c-.063,1.191-.012,2.386-.012,3.558a.983.983,0,0,0,.235.052c2.159-.347,3.824.338,4.747,1.955a4.335,4.335,0,0,1-.7,5.169C5438.351,1026.608,5437.9,1027.179,5437.367,1027.833Zm-53.816-20.845v.888c0,3.634-.01,7.268.006,10.9a5.4,5.4,0,0,1-.829,2.979c-.908,1.451-1.8,2.914-2.632,4.41a3.59,3.59,0,0,0-.465,1.649c-.032,6.168-.021,12.335-.02,18.5,0,1.525.771,2.521,1.956,2.542,1.234.021,1.982-.945,1.984-2.565,0-1.765-.011-3.532.014-5.3a1.263,1.263,0,0,1,1.232-1.307,1.324,1.324,0,0,1,1.349,1.208,5.148,5.148,0,0,1,.021.69c0,2.559-.009,5.119.006,7.677a2.047,2.047,0,0,0,1.953,2.214,1.983,1.983,0,0,0,1.936-2.2c.012-1.714,0-3.429.006-5.144a3.51,3.51,0,0,1,.074-.836,1.225,1.225,0,0,1,1.29-.983,1.251,1.251,0,0,1,1.225,1.15,6.082,6.082,0,0,1,.025.767c0,2.482-.013,4.965.014,7.447a3.553,3.553,0,0,0,.278,1.406,1.822,1.822,0,0,0,2.058.964,2.089,2.089,0,0,0,1.579-2.1c.015-2.559.006-5.118.007-7.677,0-1.313.424-1.956,1.293-1.966s1.317.637,1.317,1.939c0,2.15-.012,4.3.006,6.449a1.942,1.942,0,0,0,1.828,2.068,2,2,0,0,0,2.072-1.845,6.861,6.861,0,0,0,.033-.919q0-6.718,0-13.436c0-.23,0-.461,0-.691-.011-.589.18-1.147.764-1.272a1.925,1.925,0,0,1,1.4.214c1.471,1.1,2.862,2.311,4.292,3.468a1.553,1.553,0,0,0,1.923.129,1.455,1.455,0,0,0,.674-1.728,2.715,2.715,0,0,0-.7-1.062c-3.91-3.972-7.8-7.964-11.773-11.872a5.4,5.4,0,0,1-1.833-4.5c.079-1.084.015-2.179.015-3.287-.182.008-.255,0-.327.016a4.24,4.24,0,0,1-4.713-2.043c-.928-1.657-.683-3.4.713-5.1.479-.584.95-1.175,1.5-1.852Zm33.342-5.287c-1.375,0-2.326-.06-3.263.026a2.341,2.341,0,0,0-1.341.56q-5.7,5.579-11.319,11.233a1.477,1.477,0,0,0-.4.919c-.037,1.867-.055,3.736.009,5.6a2.2,2.2,0,0,0,.569,1.34q5.571,5.7,11.216,11.336a1.468,1.468,0,0,0,.921.393c1.838.036,3.677.058,5.514-.01a2.3,2.3,0,0,0,1.405-.588q5.671-5.55,11.261-11.182a1.7,1.7,0,0,0,.431-1.058c.044-1.713-.006-3.428.031-5.141a2.406,2.406,0,0,0-.771-1.9c-3.061-3.047-6.163-6.057-9.1-9.225C5420.483,1002.3,5418.913,1001.048,5416.893,1001.7Z" fill="#fff"/>
    </g>
  </g>
</svg>
