<svg xmlns="http://www.w3.org/2000/svg" width="134" height="134" viewBox="0 0 134 134">
  <g id="Grupo_878565" data-name="Grupo 878565" transform="translate(-734 -2861.379)">
    <circle id="Elipse_5077" data-name="Elipse 5077" cx="67" cy="67" r="67" transform="translate(734 2861.379)" fill="#179587"/>
    <g id="Grupo_878555" data-name="Grupo 878555" transform="translate(-4211.879 1892.813)">
      <path id="Trazado_617393" data-name="Trazado 617393" d="M5017.433,991.047c.319,1.643.623,3.288.976,4.923.041.185.338.361.553.454,1.46.625,2.92,1.249,4.4,1.815a1.279,1.279,0,0,0,.984-.1c1.309-.8,2.581-1.654,3.922-2.526.214.2.427.375.623.571,2.132,2.128,4.248,4.274,6.4,6.377a1.02,1.02,0,0,1,.29,1.4c-.454.9-.8,1.847-1.156,2.7a23.092,23.092,0,0,1,3.735.808,10.027,10.027,0,0,1,6.665,9.043,13.992,13.992,0,0,1-.842,7.341,10.759,10.759,0,0,1-2.826,3.693,3.894,3.894,0,0,0-.59.866,4.867,4.867,0,0,0,.913.489q3.286.954,6.587,1.848a1.124,1.124,0,0,0,.715-.106,15.634,15.634,0,0,0,2.221-1.179,7.27,7.27,0,0,1,5.357-1.007v.87c0,6.373-.011,12.746.017,19.119a1.236,1.236,0,0,1-.8,1.315q-12.127,6.016-24.233,12.076a1.316,1.316,0,0,0-.9,1.274,4.184,4.184,0,0,1-3.5,3.881c-.554.092-.764.273-.848.846a4.317,4.317,0,0,1-3.591,3.533.981.981,0,0,0-.649.578,4.437,4.437,0,0,1-4.2,3.8c-.042.2-.09.418-.134.637a4.46,4.46,0,0,1-7.087,2.776,3.1,3.1,0,0,0-3.294-.739,4.182,4.182,0,0,1-5.2-3.45c-.086-.451-.216-.694-.715-.792a4.334,4.334,0,0,1-3.65-3.689.841.841,0,0,0-.488-.542c-2.442-.66-3.46-1.735-3.9-4.227a12.41,12.41,0,0,1-1.224-.3,4.278,4.278,0,0,1-2.962-3.437,1.365,1.365,0,0,0-.748-1.049c-1.2-.687-2.384-1.413-3.583-2.128-.205.391-.356,1.011-.572,1.035a7.183,7.183,0,0,1-2.84-.016c-4.653-1.478-9.268-3.081-13.895-4.64v-29.722a11.592,11.592,0,0,1,9.107,2.631,5.317,5.317,0,0,0,5.844.8c.292-.128.562-.307.841-.463a3.624,3.624,0,0,0-.573-.872,10.354,10.354,0,0,1-3.286-4.9,17.086,17.086,0,0,1-.427-6.033,9.593,9.593,0,0,1,6.017-8.9,27.262,27.262,0,0,1,4.37-1.138c-.363-.871-.806-1.868-1.185-2.889a.949.949,0,0,1,.089-.815c2.388-2.441,4.806-4.853,7.25-7.3,1.354.881,2.651,1.746,3.976,2.564a1.192,1.192,0,0,0,.912.14c1.535-.589,3.049-1.233,4.561-1.879.189-.081.433-.261.469-.434.346-1.636.652-3.281.97-4.923Zm11.869,68.585c.185-.077.32-.124.448-.188q11.563-5.779,23.129-11.548a1.013,1.013,0,0,0,.617-1.084c-.015-4.836-.008-9.672-.012-14.508,0-.24-.045-.481-.077-.806-.375.186-.659.319-.935.465-8.189,4.311-16.388,8.6-24.554,12.957a5.118,5.118,0,0,1-3.233.62,10.594,10.594,0,0,1-1.434-.33c-2.475-.7-4.949-1.407-7.418-2.131a6.726,6.726,0,0,0-5.066.362c-2.562,1.275-5.127,2.548-7.678,3.847a2.152,2.152,0,0,0-1.021,3,1.994,1.994,0,0,0,2.991.582c1.595-.941,3.175-1.906,4.77-2.846a5.76,5.76,0,0,1,7.344.708c1.667,1.481,3.317,2.98,4.976,4.471Zm-12.2-2.221c2.548,2.122,5.033,4.2,7.527,6.263a1.855,1.855,0,0,0,2.645.022c.634-.747.462-1.616-.5-2.483q-5.682-5.116-11.367-10.228a3.143,3.143,0,0,0-4.262-.412q-2.426,1.441-4.84,2.9a4.821,4.821,0,0,1-7.275-3.343c-.268-2.2.356-4.062,2.373-5.172,2.076-1.143,4.229-2.146,6.346-3.213.273-.138.535-.3.922-.514a15.328,15.328,0,0,0-8.069-1.252c-3.617.618-7.192,1.482-10.777,2.275a1.076,1.076,0,0,0-.68.618q-1.824,6.244-3.566,12.511a.785.785,0,0,0,.2.7c1.313.834,2.657,1.621,4.059,2.463,1.081-1.1,2.061-2.26,3.2-3.234a4.386,4.386,0,0,1,7.218,2.524.861.861,0,0,0,.8.815,4.216,4.216,0,0,1,3.519,3.584c.087.538.361.616.786.706a4.373,4.373,0,0,1,3.483,3.254c.088.3.123.612.184.932a5.638,5.638,0,0,1,3.687,2.218,24.6,24.6,0,0,0,3.909,3.268,1.347,1.347,0,0,0,1.836-.131,2.29,2.29,0,0,0,.454-1.538c-.034-.377-.479-.767-.82-1.058-1.562-1.337-3.153-2.639-4.731-3.957-.79-.66-1.575-1.326-2.4-2.018l1.845-2.179c2.434,2.027,4.79,3.993,7.151,5.953a5.4,5.4,0,0,0,.981.707,1.7,1.7,0,0,0,2.162-.541,1.5,1.5,0,0,0-.393-2.021c-.382-.353-.8-.67-1.2-1l-6.245-5.211Zm-19.5-19.974a.794.794,0,0,0,.237.043c.229-.027.458-.071.685-.112a17.838,17.838,0,0,1,8.083.224c3.362.935,6.734,1.837,10.1,2.77,2.563.711,5.116,1.454,7.678,2.168a7.043,7.043,0,0,0,1.106.169c.561.063.767-.2.758-.76-.025-1.534.024-3.07-.018-4.6a4.3,4.3,0,0,0-3.545-4.42c-2.352-.6-4.707-1.2-7.07-1.758-.628-.148-.931-.38-.883-1.088a26.818,26.818,0,0,0,0-2.952,1.058,1.058,0,0,1,.611-1.1,6.617,6.617,0,0,0,3.44-4.476,13.963,13.963,0,0,0-.174-6.789,7.28,7.28,0,0,0-6.612-5.036,6.9,6.9,0,0,0-6.883,5.051,23.044,23.044,0,0,0-.366,5.247,5.73,5.73,0,0,0,2.5,5.1,3.605,3.605,0,0,1,1.756,4.023,2.661,2.661,0,0,0,0,.78c.144.8-.224,1.1-.974,1.272-2.366.544-4.721,1.14-7.071,1.75A4.159,4.159,0,0,0,4997.6,1037.437Zm47.265-4.72c-2.177-.547-4.085-1.1-6.025-1.485-.945-.189-1.23-.585-1.137-1.495a12.986,12.986,0,0,0,0-2.342,1.413,1.413,0,0,1,.811-1.52,6.484,6.484,0,0,0,3.32-4.748,14.539,14.539,0,0,0-.258-6.366,7.315,7.315,0,0,0-6.6-5.046,6.914,6.914,0,0,0-6.9,5.032,22.881,22.881,0,0,0-.372,5.246,5.754,5.754,0,0,0,2.487,5.106,3.667,3.667,0,0,1,1.794,4.081,2.859,2.859,0,0,0,0,.78c.119.75-.2,1.068-.936,1.217-1.307.264-2.594.632-4.053,1,2.593,2.553,2.017,5.707,2.1,8.845Zm-48.184-.559c-1.542-.392-2.907-.769-4.287-1.076a.689.689,0,0,1-.638-.827c.027-1.012.037-2.027-.008-3.038a1.18,1.18,0,0,1,.683-1.238,6.572,6.572,0,0,0,3.38-4.419,13.607,13.607,0,0,0-.2-6.866,7.249,7.249,0,0,0-6.646-4.976,6.959,6.959,0,0,0-6.859,5.1,20.434,20.434,0,0,0-.362,4.208,7.318,7.318,0,0,0,3.792,7.1,1.135,1.135,0,0,1,.454.806c.052,1.126.007,2.257.029,3.385.008.445-.109.671-.59.766-.829.163-1.64.417-2.63.677,2.441,1.428,4.7,2.766,6.981,4.072a.905.905,0,0,1,.547.95c-.042.774-.012,1.552-.012,2.393.789-.169,1.571-.333,2.352-.506.592-.131,1.385-.09,1.717-.46s.247-1.163.312-1.773A7.65,7.65,0,0,1,4996.684,1032.158Zm5.145-13.872c0-.608-.04-1.219.006-1.823a9.71,9.71,0,0,1,6.244-8.85,9.51,9.51,0,0,1,10.359,1.784c4.128,3.479,4.14,10.342,2.688,14.182a9.423,9.423,0,0,1-3.114,4.1c-.412.322-.758.833-.1,1.038,1.762.552,3.577.938,5.376,1.368a1.386,1.386,0,0,0,.591-.1c1.515-.376,3.032-.747,4.54-1.147.241-.064.627-.271.625-.409a1.368,1.368,0,0,0-.382-.774,19.079,19.079,0,0,1-2.279-2.585c-2.224-3.805-2-7.837-.857-11.917a1.667,1.667,0,0,0,.061-1.107c-3.1-5.225-7.732-8.051-13.777-8.031-5.894.02-10.449,2.763-13.562,7.826a1.5,1.5,0,0,0-.106,1.436,14.923,14.923,0,0,1-.183,10.759,9.133,9.133,0,0,1-2.889,3.632c-.565.447-.59.947-.054,1.09,1.731.462,3.473.887,5.215,1.307a1.325,1.325,0,0,0,.59-.064c1.571-.388,3.143-.775,4.708-1.187.217-.057.558-.235.565-.37a1.107,1.107,0,0,0-.315-.717c-.553-.589-1.205-1.09-1.716-1.71A10.66,10.66,0,0,1,5001.828,1018.286Zm26.089-19.021c-1.2.777-2.344,1.5-3.466,2.262a.847.847,0,0,1-1.084.063,23.587,23.587,0,0,0-6.762-2.858,1.243,1.243,0,0,1-.71-.771,33.129,33.129,0,0,1-.708-3.305c-.1-.586-.355-.751-.92-.74-1.592.031-3.186.042-4.777,0-.644-.019-.841.242-.94.821-.186,1.082-.475,2.146-.664,3.227a.9.9,0,0,1-.811.835,21.176,21.176,0,0,0-6.691,2.79.844.844,0,0,1-1.084-.05c-.905-.623-1.87-1.163-2.751-1.818-.573-.426-.921-.335-1.365.168-.612.693-1.307,1.313-1.954,1.976s-1.653,1.261-1.8,2.026.55,1.7.906,2.552a3.115,3.115,0,0,0,.67,1.276c.967.751,2.031,1.376,3.089,2.072,3.761-5.5,8.959-8.611,15.707-8.637,6.778-.026,12.01,3.081,15.811,8.556,1.042-.664,2.042-1.287,3.023-1.937a1.263,1.263,0,0,0,.4-.53c.422-.951.853-1.9,1.208-2.877a1.028,1.028,0,0,0-.149-.885C5030.756,1002.076,5029.372,1000.719,5027.917,999.265Zm-46.3,35.12c-3.383-1.969-6.7-3.913-10.034-5.819a4.415,4.415,0,0,0-1.33-.236v4.638c0,6.454-.006,12.907.019,19.36,0,.327.2.859.429.946,1.859.688,3.749,1.292,5.705,1.947C4978.149,1048.251,4979.872,1041.362,4981.617,1034.385Zm2.58,1.514c-1.7,6.81-3.375,13.494-5.059,20.23l2.9.966c.106-.324.2-.591.281-.863q.923-3.208,1.839-6.417c1.057-3.7,2.1-7.394,3.181-11.083.181-.62.123-1.008-.516-1.321C4985.973,1036.993,4985.172,1036.467,4984.2,1035.9Zm24.8,34.011c-.437.141-.752.15-.919.311-1.078,1.04-2.185,2.062-3.154,3.2a1.318,1.318,0,0,0,.263,1.813,1.351,1.351,0,0,0,1.891.233,25.357,25.357,0,0,0,3.044-3.065,1.831,1.831,0,0,0,.012-1.584C5009.94,1070.4,5009.343,1070.167,5009,1069.91Zm-11.3-11.33a6.793,6.793,0,0,0-1.15-1.311,1.367,1.367,0,0,0-1.75.284q-1.233,1.157-2.4,2.382a1.625,1.625,0,0,0-.126,2.392,1.6,1.6,0,0,0,2.393-.128c.777-.736,1.542-1.486,2.263-2.277A7.959,7.959,0,0,0,4997.7,1058.58Zm7.007,7.049c-.449.124-.736.117-.881.257-1.1,1.061-2.226,2.1-3.217,3.254a1.3,1.3,0,0,0,.292,1.807,1.364,1.364,0,0,0,1.9.2,25.173,25.173,0,0,0,3.032-3.073,1.825,1.825,0,0,0-.012-1.583C5005.619,1066.075,5005.019,1065.855,5004.706,1065.63Zm-2.7-2.774a6.152,6.152,0,0,0-1.117-1.266,1.449,1.449,0,0,0-1.832.292c-.82.774-1.622,1.57-2.394,2.393a1.606,1.606,0,1,0,2.274,2.252c.8-.755,1.583-1.53,2.32-2.343A7.428,7.428,0,0,0,5002,1062.855Zm8.981,13.016c.8.8,1.583,1.649,2.786,1.136a1.789,1.789,0,0,0,.889-1.23c.149-1.232-1.016-1.58-1.653-2.255Z" fill="#fff"/>
    </g>
  </g>
</svg>
