<svg xmlns="http://www.w3.org/2000/svg" width="400" height="350.119" viewBox="0 0 400 350.119">
  <g id="Grupo_878574" data-name="Grupo 878574" transform="translate(-1020 -7939.023)">
    <rect id="Rectángulo_293902" data-name="Rectángulo 293902" width="400" height="350.119" rx="21" transform="translate(1020 7939.023)" fill="#222b5a" opacity="0.998"/>
    <text id="POT" transform="translate(1020 8205.049)" fill="#fff" font-size="24" font-family="Roboto-Black, Roboto" font-weight="800"><tspan x="176.838" y="25">POT</tspan></text>
    <g id="Grupo_878554" data-name="Grupo 878554" transform="translate(-3939.494 7043.984)">
      <path id="Trazado_617390" data-name="Trazado 617390" d="M5059,1085.329c.182-.622.382-1.239.536-1.866a23.143,23.143,0,0,1,12.372-15.737c.526-.271,1.057-.531,1.129-.566-1.172-3.241-2.751-6.28-3.344-9.5-1.847-10.018,5.757-19.7,15.93-20.624a4,4,0,0,0,3.157-1.617,21.737,21.737,0,0,1,8.667-6.618c-1.174-3.378-2.925-6.567-3.33-9.918-1.274-10.6,5.818-19.076,16.4-20.362a4.365,4.365,0,0,0,2.555-1.4,25.931,25.931,0,0,1,9.29-6.9c-5.9-11.5-4.869-20.129,3.058-26.282a17.879,17.879,0,0,1,23.024.906c5.488,4.9,9.227,15.067,1.811,25.354a23.249,23.249,0,0,1,10.191,7.991l10.616-8.539a18.245,18.245,0,0,1-3.1-16.222,18,18,0,0,1,29.335-8.65c7.073,6.282,7.79,14.886,2.273,24.928a102.961,102.961,0,0,1,8.25,6.722,7.372,7.372,0,0,0,4.463,2.351,18.121,18.121,0,0,1,12.614,27.848c-.39.6-.789,1.2-1.245,1.9a24.565,24.565,0,0,1,10.025,7.748,2.274,2.274,0,0,0,1.554.641c13.942.63,22.485,17.221,13.193,29.407a2.721,2.721,0,0,0-.245.5c1.4.794,2.846,1.476,4.145,2.375a22.688,22.688,0,0,1,10.345,19.164c.112,6.109.033,12.222.021,18.333-.005,3.545-1.4,4.935-4.96,4.935q-35.5.008-71,0-61.158,0-122.317.04c-2.442,0-4.239-.665-5.41-2.831Zm97.723,18.238c0-5.785.467-11.522-.112-17.151-.805-7.808-7.194-13.014-15.039-13.089-3.579-.034-7.156-.052-10.735.007a15.07,15.07,0,0,0-14.931,15c-.067,4.648-.017,9.3-.006,13.945a9.951,9.951,0,0,0,.16,1.286Zm49.054.006c0-5.477.152-10.725-.037-15.964a14.981,14.981,0,0,0-14.622-14.262c-3.775-.081-7.555-.07-11.331-.012a15.066,15.066,0,0,0-14.946,14.986c-.068,4.648-.018,9.3-.007,13.945a10.693,10.693,0,0,0,.155,1.306Zm-97.841.011c0-.88,0-1.54,0-2.2-.012-4.647.141-9.3-.072-13.94-.337-7.395-6.572-13.738-13.778-14.049-4.434-.19-8.885-.2-13.315,0-7.709.355-14.362,7.9-13.633,15.466.622,0,1.264,0,1.91,0,3.377,0,6.758-.036,10.136.024a3.888,3.888,0,0,1,4.079,3.761,3.984,3.984,0,0,1-3.923,4.155c-1.717.1-3.444.03-5.167.031q-3.537,0-7.076,0v6.745Zm105.862-.058h40.791v-6.687h-2.322c-3.248,0-6.495.053-9.739-.026a3.977,3.977,0,0,1-4.094-3.988,3.929,3.929,0,0,1,4.1-3.944c.86-.036,1.723-.013,2.584-.014,3.162,0,6.323,0,9.461,0,.6-7.791-6.07-15.184-13.886-15.485-4.1-.158-8.218-.116-12.323-.029a14.921,14.921,0,0,0-14.524,13.922C5213.583,1092.632,5213.8,1098.013,5213.8,1103.526Zm-67.131-75.538a17.744,17.744,0,0,1-3.567-14.532c.961-5.577,4.164-9.737,8.994-12.74-2.506-2.269-5.171-3.815-8.309-3.922-5.018-.17-10.051-.177-15.065.042-3.053.134-5.667,1.664-8.058,3.91a18.135,18.135,0,0,1,8.97,12.59,17.929,17.929,0,0,1-3.509,14.654l10.25,8.2Zm48.894.026c-6.566-10.125-5.145-17.847,5.331-27.4-2.192-2.05-4.732-3.619-7.7-3.742-5.279-.218-10.58-.236-15.854.021a11.638,11.638,0,0,0-7.61,3.791c9.69,6.139,12.176,18.246,5.419,27.388l10.18,8.128Zm-73.354,38.366a18.107,18.107,0,0,1-3.561-14.633c1.023-5.541,4.185-9.606,8.94-12.668a12.7,12.7,0,0,0-8.234-3.934c-4.96-.21-9.943-.225-14.9.007a12.26,12.26,0,0,0-8.215,3.982c4.95,3.115,7.98,7.265,8.975,12.836a18.276,18.276,0,0,1-3.558,14.415l10.262,8.2C5115.121,1072.03,5118.6,1069.257,5122.207,1066.38Zm48.937,0a18.078,18.078,0,0,1-3.563-14.636c1.025-5.54,4.188-9.6,8.941-12.667a12.719,12.719,0,0,0-8.237-3.932c-4.96-.21-9.943-.226-14.9.008a12.141,12.141,0,0,0-8.2,3.986c4.944,3.113,7.97,7.265,8.967,12.836a18.285,18.285,0,0,1-3.558,14.41c3.605,2.885,7.079,5.661,10.259,8.2Zm48.935,0a18.078,18.078,0,0,1-3.581-14.551c1-5.608,4.229-9.691,8.965-12.788-2.535-2.294-5.222-3.8-8.354-3.915-4.9-.185-9.811-.206-14.705.011a12.378,12.378,0,0,0-8.224,3.9c9.869,6.392,12.147,18.365,5.021,27.885a23.656,23.656,0,0,1,10.181,7.967C5213.063,1071.967,5216.545,1069.2,5220.078,1066.382Zm-142.743-11.344a10.111,10.111,0,1,0,10.1-10.183A10.282,10.282,0,0,0,5077.335,1055.039Zm48.932.041a10.113,10.113,0,1,0,10.058-10.222A10.284,10.284,0,0,0,5126.267,1055.079Zm48.935.061a10.113,10.113,0,1,0,10-10.283A10.282,10.282,0,0,0,5175.2,1055.14Zm48.933-.07a10.113,10.113,0,1,0,10.068-10.214A10.281,10.281,0,0,0,5224.135,1055.07Zm-87.8-66.515a10.207,10.207,0,1,0-10.069-10.185A10.14,10.14,0,0,0,5136.336,988.555Zm48.986,0a10.208,10.208,0,1,0-10.118-10.135A10.141,10.141,0,0,0,5185.322,988.556Zm-83.466,28.1a10.059,10.059,0,1,0,10.069-10.183A10.124,10.124,0,0,0,5101.856,1016.658Zm48.933.06a10.059,10.059,0,1,0,10.009-10.243A10.122,10.122,0,0,0,5150.789,1016.717Zm69.047-.081a10.057,10.057,0,1,0-9.924,10.308A10.154,10.154,0,0,0,5219.836,1016.637Z" transform="translate(0 0)" fill="#fff"/>
      <path id="Trazado_617391" data-name="Trazado 617391" d="M5088.5,1078.318a3.944,3.944,0,0,1,4.01,3.847,4.064,4.064,0,0,1-4.016,4.089,3.966,3.966,0,0,1-3.969-4.1A3.866,3.866,0,0,1,5088.5,1078.318Z" transform="translate(2.282 10.569)" fill="#fff"/>
      <path id="Trazado_617392" data-name="Trazado 617392" d="M5217.131,1078.318a3.866,3.866,0,0,1,3.969,3.852,3.96,3.96,0,0,1-3.979,4.084,4.064,4.064,0,0,1-4.006-4.1A3.942,3.942,0,0,1,5217.131,1078.318Z" transform="translate(13.786 10.569)" fill="#fff"/>
    </g>
  </g>
</svg>
