<svg xmlns="http://www.w3.org/2000/svg" xmlns:xlink="http://www.w3.org/1999/xlink" width="295" height="206.373" viewBox="0 0 295 206.373">
  <defs>
    <linearGradient id="linear-gradient" x1="0.528" y1="-0.338" x2="0.489" y2="0.711" gradientUnits="objectBoundingBox">
      <stop offset="0.012" stop-color="#7cf7f7"/>
      <stop offset="0.988" stop-color="#fff"/>
    </linearGradient>
    <linearGradient id="linear-gradient-2" x1="0.524" y1="-0.153" x2="0.493" y2="0.643" xlink:href="#linear-gradient"/>
    <linearGradient id="linear-gradient-3" x1="0.627" y1="1.1" x2="0.465" y2="0.583" xlink:href="#linear-gradient"/>
    <linearGradient id="linear-gradient-4" x1="0.31" y1="0.732" x2="0.571" y2="0.398" xlink:href="#linear-gradient"/>
    <linearGradient id="linear-gradient-5" x1="0.41" y1="-0.052" x2="0.494" y2="0.435" gradientUnits="objectBoundingBox">
      <stop offset="0.012" stop-color="#fff"/>
      <stop offset="0.988"/>
    </linearGradient>
    <linearGradient id="linear-gradient-6" x1="0.157" y1="-0.205" x2="0.376" y2="0.305" gradientUnits="objectBoundingBox">
      <stop offset="0.012" stop-color="#4ac7a2"/>
      <stop offset="0.988" stop-color="#fff"/>
    </linearGradient>
    <linearGradient id="linear-gradient-7" x1="0.987" y1="0.037" x2="0.02" y2="0.956" gradientUnits="objectBoundingBox">
      <stop offset="0.012" stop-color="#ffe2c7"/>
      <stop offset="0.988"/>
    </linearGradient>
    <linearGradient id="linear-gradient-8" x1="2.559" y1="-0.554" x2="-0.513" y2="1.019" xlink:href="#linear-gradient-7"/>
    <linearGradient id="linear-gradient-9" x1="1.463" y1="-0.231" x2="0.101" y2="0.818" xlink:href="#linear-gradient-7"/>
    <linearGradient id="linear-gradient-10" x1="2.239" y1="-0.863" x2="0.011" y2="0.883" xlink:href="#linear-gradient-7"/>
    <linearGradient id="linear-gradient-11" x1="0.171" y1="-0.225" x2="0.646" y2="0.819" gradientUnits="objectBoundingBox">
      <stop offset="0.012" stop-color="#568275"/>
      <stop offset="0.988" stop-color="#fff"/>
    </linearGradient>
    <linearGradient id="linear-gradient-12" x1="-0.149" y1="-0.156" x2="0.718" y2="0.798" xlink:href="#linear-gradient-11"/>
    <linearGradient id="linear-gradient-13" x1="0.188" y1="-0.186" x2="0.485" y2="0.818" xlink:href="#linear-gradient-11"/>
    <linearGradient id="linear-gradient-14" x1="-0.214" y1="-0.402" x2="0.8" y2="0.886" xlink:href="#linear-gradient-11"/>
    <linearGradient id="linear-gradient-15" x1="-3.93" y1="-1.391" x2="14.822" y2="6.048" xlink:href="#linear-gradient-11"/>
    <linearGradient id="linear-gradient-16" x1="0.471" y1="-0.304" x2="0.548" y2="1.229" gradientUnits="objectBoundingBox">
      <stop offset="0.012" stop-color="#994a00"/>
      <stop offset="0.988" stop-color="#fff"/>
    </linearGradient>
    <linearGradient id="linear-gradient-17" x1="0.479" y1="-0.249" x2="0.548" y2="0.655" xlink:href="#linear-gradient-16"/>
    <linearGradient id="linear-gradient-18" x1="-7.944" y1="-0.441" x2="2.352" y2="0.702" gradientUnits="objectBoundingBox">
      <stop offset="0.012" stop-color="#ffad61"/>
      <stop offset="0.988"/>
    </linearGradient>
    <linearGradient id="linear-gradient-19" x1="-4.302" y1="-0.267" x2="2.457" y2="0.818" xlink:href="#linear-gradient-18"/>
    <linearGradient id="linear-gradient-20" x1="0.529" y1="1.198" x2="0.446" y2="0.082" gradientUnits="objectBoundingBox">
      <stop offset="0.012" stop-color="#ff7b00"/>
      <stop offset="0.988" stop-color="#fff"/>
    </linearGradient>
    <linearGradient id="linear-gradient-21" x1="-2.393" y1="3.427" x2="1.331" y2="-0.402" xlink:href="#linear-gradient-18"/>
    <linearGradient id="linear-gradient-22" x1="-2.4" y1="3.306" x2="1.187" y2="-0.179" xlink:href="#linear-gradient-18"/>
    <linearGradient id="linear-gradient-23" x1="-2.084" y1="2.702" x2="1.096" y2="0" xlink:href="#linear-gradient-18"/>
    <linearGradient id="linear-gradient-24" x1="-3.084" y1="3.134" x2="1.55" y2="-0.175" xlink:href="#linear-gradient-18"/>
    <linearGradient id="linear-gradient-25" x1="-3.087" y1="2.513" x2="2.157" y2="-0.403" xlink:href="#linear-gradient-18"/>
    <linearGradient id="linear-gradient-26" x1="-3.316" y1="2.278" x2="3.657" y2="-0.956" xlink:href="#linear-gradient-18"/>
    <linearGradient id="linear-gradient-27" x1="0.57" y1="0.915" x2="0.501" y2="0.505" gradientUnits="objectBoundingBox">
      <stop offset="0.012" stop-color="#b4e000"/>
      <stop offset="0.988" stop-color="#fff"/>
    </linearGradient>
    <linearGradient id="linear-gradient-28" x1="-2.392" y1="0.347" x2="0.853" y2="0.531" xlink:href="#linear-gradient-18"/>
    <linearGradient id="linear-gradient-29" x1="-1.917" y1="0.738" x2="0.822" y2="0.468" xlink:href="#linear-gradient-18"/>
    <linearGradient id="linear-gradient-30" x1="0.268" y1="-0.803" x2="0.591" y2="0.901" xlink:href="#linear-gradient-18"/>
    <linearGradient id="linear-gradient-31" x1="-1.285" y1="0.013" x2="0.763" y2="0.567" xlink:href="#linear-gradient-18"/>
    <linearGradient id="linear-gradient-32" x1="-0.479" y1="0.251" x2="0.793" y2="0.596" xlink:href="#linear-gradient-18"/>
    <linearGradient id="linear-gradient-33" x1="-2.295" y1="0.684" x2="1.356" y2="0.434" xlink:href="#linear-gradient-18"/>
    <linearGradient id="linear-gradient-34" x1="-0.421" y1="-0.082" x2="0.758" y2="0.663" xlink:href="#linear-gradient-18"/>
    <linearGradient id="linear-gradient-35" x1="-3.805" y1="0.557" x2="1.76" y2="0.485" xlink:href="#linear-gradient-18"/>
    <linearGradient id="linear-gradient-36" x1="-0.07" y1="-0.629" x2="0.701" y2="0.875" xlink:href="#linear-gradient-18"/>
    <linearGradient id="linear-gradient-37" x1="-3.091" y1="5.119" x2="1.818" y2="-1.288" xlink:href="#linear-gradient-18"/>
    <linearGradient id="linear-gradient-38" x1="-2.918" y1="4.15" x2="1.754" y2="-0.856" xlink:href="#linear-gradient-18"/>
    <linearGradient id="linear-gradient-39" x1="-2.2" y1="3.467" x2="1.52" y2="-0.489" xlink:href="#linear-gradient-18"/>
    <linearGradient id="linear-gradient-40" x1="-4.03" y1="4.102" x2="2.277" y2="-0.829" xlink:href="#linear-gradient-18"/>
    <linearGradient id="linear-gradient-41" x1="-10.005" y1="1.825" x2="2.784" y2="0.202" xlink:href="#linear-gradient-18"/>
    <linearGradient id="linear-gradient-42" x1="-11.836" y1="1.752" x2="4.121" y2="0.121" xlink:href="#linear-gradient-18"/>
    <linearGradient id="linear-gradient-43" x1="-18.521" y1="1.894" x2="8.165" y2="-0.063" xlink:href="#linear-gradient-18"/>
    <linearGradient id="linear-gradient-44" x1="-4.224" y1="1.881" x2="2.061" y2="0.014" xlink:href="#linear-gradient-18"/>
    <linearGradient id="linear-gradient-45" x1="-5.432" y1="2.042" x2="2.123" y2="0.106" xlink:href="#linear-gradient-18"/>
    <linearGradient id="linear-gradient-46" x1="-5.789" y1="1.775" x2="2.231" y2="0.134" xlink:href="#linear-gradient-18"/>
    <linearGradient id="linear-gradient-47" x1="-6.838" y1="1.862" x2="2.735" y2="0.132" xlink:href="#linear-gradient-18"/>
    <linearGradient id="linear-gradient-48" x1="-7.059" y1="1.587" x2="3.55" y2="0.032" xlink:href="#linear-gradient-18"/>
    <linearGradient id="linear-gradient-49" x1="-7.989" y1="1.803" x2="5.19" y2="-0.187" xlink:href="#linear-gradient-18"/>
    <linearGradient id="linear-gradient-50" x1="-0.188" y1="-0.089" x2="0.475" y2="0.504" xlink:href="#linear-gradient-18"/>
    <linearGradient id="linear-gradient-51" x1="0.312" y1="-0.435" x2="0.478" y2="0.368" xlink:href="#linear-gradient-18"/>
    <linearGradient id="linear-gradient-52" x1="-0.021" y1="-0.159" x2="0.585" y2="0.605" xlink:href="#linear-gradient-18"/>
    <linearGradient id="linear-gradient-53" x1="0.489" y1="-0.816" x2="0.506" y2="0.798" xlink:href="#linear-gradient-18"/>
    <linearGradient id="linear-gradient-54" x1="-0.277" y1="0.303" x2="0.591" y2="0.519" xlink:href="#linear-gradient-18"/>
    <linearGradient id="linear-gradient-55" x1="0.186" y1="0.05" x2="0.509" y2="0.507" xlink:href="#linear-gradient-18"/>
  </defs>
  <g id="Grupo_878572" data-name="Grupo 878572" transform="translate(-1020 -6240.673)">
    <g id="Grupo_876661" data-name="Grupo 876661" transform="translate(1002.526 6132.142)">
      <g id="Grupo_876657" data-name="Grupo 876657" transform="translate(17.474 108.531)">
        <g id="Grupo_876647" data-name="Grupo 876647" transform="translate(13.356)">
          <path id="Trazado_125595" data-name="Trazado 125595" d="M59.8,166.686c-4.4,6.724-9.453,13.117-15.9,17.082-6.1,3.739-11.947,1.818-12.227-5.8-.244-6.587,5.851-17.419,11.477-22.954,4.072,2.985,12.123,1.17,21.557-13.9-.225,2.235-2.185,12.208-2.323,21.5v.019C61.543,163.976,60.687,165.34,59.8,166.686Z" transform="translate(-11.351 -63.804)" fill="#bee5cc"/>
          <path id="Trazado_125596" data-name="Trazado 125596" d="M91.751,142.173c3.929,13.257,6.148,37.12-14.517,21.032,1.73,7.809-7.757,36.247-16.474,34.657-5.17-.942-9.868-15.039-8.366-29.852v-.019c4.3-9.676,8.4-21.661,11.582-27.811-.857,8.264,1.414,25.628,12.559,17.034,8.4-6.5,10.92-18.047,10.92-18.047S89.181,140.463,91.751,142.173Z" transform="translate(16.717 -66.474)" fill="#bee5cc"/>
          <path id="Trazado_125597" data-name="Trazado 125597" d="M59.8,166.686c-4.4,6.724-9.453,13.117-15.9,17.082-6.1,3.739-11.947,1.818-12.227-5.8-.244-6.587,5.851-17.419,11.477-22.954,4.072,2.985,12.123,1.17,21.557-13.9-.225,2.235-2.185,12.208-2.323,21.5v.019C61.543,163.976,60.687,165.34,59.8,166.686Z" transform="translate(-11.351 -63.804)" fill="url(#linear-gradient)" style="mix-blend-mode: multiply;isolation: isolate"/>
          <path id="Trazado_125598" data-name="Trazado 125598" d="M91.751,142.173c3.929,13.257,6.148,37.12-14.517,21.032,1.73,7.809-7.757,36.247-16.474,34.657-5.17-.942-9.868-15.039-8.366-29.852v-.019c4.3-9.676,8.4-21.661,11.582-27.811-.857,8.264,1.414,25.628,12.559,17.034,8.4-6.5,10.92-18.047,10.92-18.047S89.181,140.463,91.751,142.173Z" transform="translate(16.717 -66.474)" fill="url(#linear-gradient-2)" style="mix-blend-mode: multiply;isolation: isolate"/>
          <path id="Trazado_125599" data-name="Trazado 125599" d="M110.8,136.438l3.685,2.914c-2.674,3.566-3.6,8.841-.508,11.722-4.648-4.086-20.245-20.821-26.623-14.566-2.812,2.76-1.554,9.275,1.293,14.69-10.516-2.166-23.3-3.932-35.549,5.45a24.147,24.147,0,0,0-5.187,5.889h-.019c-6.428.838-25.486-2.726-24.772-11.48.944-11.738,25.208-6.656,31.655-4.681-7.74-6.48-31.9-14.9-27.41-29.086,4.857-15.338,32.649,7.633,54.083,16.106-6.881-6.708-11.6-20.211-3.457-23.915C92.334,102.929,104.948,132.262,110.8,136.438Z" transform="translate(-23.103 -108.531)" fill="#bee5cc"/>
          <path id="Trazado_125600" data-name="Trazado 125600" d="M110.8,136.438l3.685,2.914c-2.674,3.566-3.6,8.841-.508,11.722-4.648-4.086-20.245-20.821-26.623-14.566-2.812,2.76-1.554,9.275,1.293,14.69-10.516-2.166-23.3-3.932-35.549,5.45a24.147,24.147,0,0,0-5.187,5.889h-.019c-6.428.838-25.486-2.726-24.772-11.48.944-11.738,25.208-6.656,31.655-4.681-7.74-6.48-31.9-14.9-27.41-29.086,4.857-15.338,32.649,7.633,54.083,16.106-6.881-6.708-11.6-20.211-3.457-23.915C92.334,102.929,104.948,132.262,110.8,136.438Z" transform="translate(-23.103 -108.531)" fill="url(#linear-gradient-3)" style="mix-blend-mode: multiply;isolation: isolate"/>
          <path id="Trazado_125601" data-name="Trazado 125601" d="M121.109,178.88a28.521,28.521,0,0,1-15.6-4.368,12.853,12.853,0,0,0-1.557-2.9c-3.789-5.206-7.424-4.492-12.891-3.652,10.4-3.687,15.651-21.4,2.639-25.469-7.023-2.2-12.089,1.922-15.008,7.474,2.707-7.2,3.685-20.47-6.323-19.476a8.614,8.614,0,0,0-5.728,3.7l-3.685-2.914c-2.866-2.465-8.124-13.506-2.534-17.8,7.545-5.8,25.066,11.37,28.647,14.583,22.589-28.053,20,12.106,20,12.106,20.28-9.553,6.5,12.649,6.5,12.649C139.085,167.612,133.286,178.389,121.109,178.88Z" transform="translate(24.741 -103.371)" fill="#bee5cc"/>
          <path id="Trazado_125602" data-name="Trazado 125602" d="M121.109,178.88a28.521,28.521,0,0,1-15.6-4.368,12.853,12.853,0,0,0-1.557-2.9c-3.789-5.206-7.424-4.492-12.891-3.652,10.4-3.687,15.651-21.4,2.639-25.469-7.023-2.2-12.089,1.922-15.008,7.474,2.707-7.2,3.685-20.47-6.323-19.476a8.614,8.614,0,0,0-5.728,3.7l-3.685-2.914c-2.866-2.465-8.124-13.506-2.534-17.8,7.545-5.8,25.066,11.37,28.647,14.583,22.589-28.053,20,12.106,20,12.106,20.28-9.553,6.5,12.649,6.5,12.649C139.085,167.612,133.286,178.389,121.109,178.88Z" transform="translate(24.741 -103.371)" fill="url(#linear-gradient-4)" style="mix-blend-mode: multiply;isolation: isolate"/>
          <path id="Trazado_125603" data-name="Trazado 125603" d="M141,164.287c1.571,3.894,1.886,9.064-1.156,11.774-1.851,1.659-5.64.769-9.712-1.032a79.827,79.827,0,0,1-10.917-6.183c-2.57-1.711-4.3-3.006-4.3-3.006s-2.518,11.548-10.92,18.047c-11.145,8.594-13.416-8.77-12.559-17.034-3.18,6.15-7.284,18.135-11.582,27.811v.019c-3.775,8.454-7.7,15.145-11.321,14.585-5.555-.857-6.919-8.77-6.76-17.293v-.019c.138-9.294,2.1-19.267,2.323-21.5-9.434,15.074-17.485,16.889-21.557,13.9a7.85,7.85,0,0,1-2.567-8.281c2.6-10.777,10.953-12.455,17.556-18.849-5.082,3.317-13.572,8.561-19.967,6.466-7.949-2.605-5.922-10.571-2.026-16.543h.019a24.148,24.148,0,0,1,5.187-5.889c12.246-9.382,25.033-7.617,35.549-5.45-2.847-5.415-4.1-11.93-1.293-14.69,6.378-6.255,21.974,10.481,26.623,14.566-3.092-2.881-2.166-8.155.508-11.722a8.614,8.614,0,0,1,5.728-3.7c10.008-.994,9.031,12.279,6.323,19.476a23.158,23.158,0,0,0-1.186,2.586,16.2,16.2,0,0,0,1.186-2.586c2.919-5.552,7.984-9.676,15.008-7.474,13.012,4.069,7.757,21.782-2.639,25.469,5.467-.84,9.1-1.554,12.891,3.652A12.854,12.854,0,0,1,141,164.287Z" transform="translate(-10.743 -93.146)" fill="#d9f5e4"/>
          <path id="Trazado_125604" data-name="Trazado 125604" d="M141,164.287c1.571,3.894,1.886,9.064-1.156,11.774-1.851,1.659-5.64.769-9.712-1.032a79.827,79.827,0,0,1-10.917-6.183c-2.57-1.711-4.3-3.006-4.3-3.006s-2.518,11.548-10.92,18.047c-11.145,8.594-13.416-8.77-12.559-17.034-3.18,6.15-7.284,18.135-11.582,27.811v.019c-3.775,8.454-7.7,15.145-11.321,14.585-5.555-.857-6.919-8.77-6.76-17.293v-.019c.138-9.294,2.1-19.267,2.323-21.5-9.434,15.074-17.485,16.889-21.557,13.9a7.85,7.85,0,0,1-2.567-8.281c2.6-10.777,10.953-12.455,17.556-18.849-5.082,3.317-13.572,8.561-19.967,6.466-7.949-2.605-5.922-10.571-2.026-16.543h.019a24.148,24.148,0,0,1,5.187-5.889c12.246-9.382,25.033-7.617,35.549-5.45-2.847-5.415-4.1-11.93-1.293-14.69,6.378-6.255,21.974,10.481,26.623,14.566-3.092-2.881-2.166-8.155.508-11.722a8.614,8.614,0,0,1,5.728-3.7c10.008-.994,9.031,12.279,6.323,19.476a23.158,23.158,0,0,0-1.186,2.586,16.2,16.2,0,0,0,1.186-2.586c2.919-5.552,7.984-9.676,15.008-7.474,13.012,4.069,7.757,21.782-2.639,25.469,5.467-.84,9.1-1.554,12.891,3.652A12.854,12.854,0,0,1,141,164.287Z" transform="translate(-10.743 -93.146)" fill="url(#linear-gradient-5)" style="mix-blend-mode: screen;isolation: isolate"/>
          <path id="Trazado_125605" data-name="Trazado 125605" d="M210.478,241.053v.019c-28.841-6.252-59.448-7.9-89.2-7.949C107.1,219.671,97.209,199.427,89.96,181.7c-4.489-11.007-9.344-22.727-16.543-32.441,4.072,1.8,7.861,2.691,9.712,1.032,3.042-2.71,2.726-7.88,1.156-11.774a28.521,28.521,0,0,0,15.6,4.368C115.306,176.7,133.406,213.4,210.478,241.053Z" transform="translate(45.967 -67.372)" fill="#95efd1"/>
          <path id="Trazado_125606" data-name="Trazado 125606" d="M210.478,241.053v.019c-28.841-6.252-59.448-7.9-89.2-7.949C107.1,219.671,97.209,199.427,89.96,181.7c-4.489-11.007-9.344-22.727-16.543-32.441,4.072,1.8,7.861,2.691,9.712,1.032,3.042-2.71,2.726-7.88,1.156-11.774a28.521,28.521,0,0,0,15.6,4.368C115.306,176.7,133.406,213.4,210.478,241.053Z" transform="translate(45.967 -67.372)" fill="url(#linear-gradient-6)" style="mix-blend-mode: multiply;isolation: isolate"/>
          <g id="Grupo_876645" data-name="Grupo 876645" transform="translate(120.986 71.141)">
            <path id="Trazado_125607" data-name="Trazado 125607" d="M86.917,140.475a24.067,24.067,0,0,1-4.055-.209,180.037,180.037,0,0,0,13.1,25.377c9.66,15.924,20.925,31.126,34.792,43.664a178.234,178.234,0,0,0,34.571,24.209,315.1,315.1,0,0,1,32.191,5.149v-.019C120.44,210.994,102.34,174.292,86.917,140.475Z" transform="translate(-62.053 -136.106)" fill="url(#linear-gradient-7)" style="mix-blend-mode: screen;isolation: isolate"/>
            <path id="Trazado_125608" data-name="Trazado 125608" d="M91.693,166.438a225.949,225.949,0,0,0,22.416,29.546,207.166,207.166,0,0,1-15.587-22.25c-4.945-8.151-9.956-16.583-13.634-25.4-1.082-2.589-2.076-5.208-3.054-7.833A31.9,31.9,0,0,1,78,138.513a17.045,17.045,0,0,1,.693,2.2C83.1,149.231,86.5,158.307,91.693,166.438Z" transform="translate(-68.731 -138.513)" fill="url(#linear-gradient-8)" style="mix-blend-mode: screen;isolation: isolate"/>
            <path id="Trazado_125609" data-name="Trazado 125609" d="M116.878,192.892a224.358,224.358,0,0,1-22.85-30.184c-3.982-6.423-6.974-13.387-10.227-20.192a6.37,6.37,0,0,1-1.6,2.275c-1.606,1.438-4.67.956-8.11-.37,12.111,23.033,26.518,45,45.41,63.035a181.937,181.937,0,0,0,26.16,20.7c3.284.135,6.568.29,9.852.484A288.072,288.072,0,0,1,116.878,192.892Z" transform="translate(-74.092 -133.018)" fill="url(#linear-gradient-9)" style="mix-blend-mode: screen;isolation: isolate"/>
            <path id="Trazado_125610" data-name="Trazado 125610" d="M80.377,156.683l.028.069c7.249,17.732,17.136,37.976,31.321,51.428q9.176.018,18.432.282A168.224,168.224,0,0,1,108.381,190.5,223.4,223.4,0,0,1,80.377,156.683Z" transform="translate(-65.464 -113.57)" fill="url(#linear-gradient-10)" style="mix-blend-mode: screen;isolation: isolate"/>
          </g>
          <path id="Trazado_125611" data-name="Trazado 125611" d="M59.546,163.564c-.159,8.523,1.205,16.436,6.76,17.293,3.616.56,7.545-6.131,11.321-14.585-1.5,14.813,3.2,28.91,8.366,29.852,8.718,1.59,18.2-26.848,16.474-34.657,20.665,16.087,18.446-7.776,14.517-21.032a79.827,79.827,0,0,0,10.917,6.183c7.2,9.714,12.054,21.433,16.543,32.441,7.249,17.732,17.136,37.976,31.321,51.428-7.982-.017-15.876.088-23.687.244-30.431.612-84.165,5.695-118.349,11.408,12.7-14.937,21.625-32.7,23.967-52.479a77.05,77.05,0,0,0-.733-22.043C57.852,166.271,58.709,164.907,59.546,163.564Z" transform="translate(-8.517 -64.735)" fill="#73d8d3"/>
          <g id="Grupo_876646" data-name="Grupo 876646" transform="translate(34.142 75.7)">
            <path id="Trazado_125612" data-name="Trazado 125612" d="M96.276,179.058c-4.489-11.007-9.344-22.726-16.543-32.441a79.826,79.826,0,0,1-10.917-6.183c.123.422.247.852.368,1.293,14.9,22.076,21.132,50.355,27.529,75.6,1.132,4.456,2.257,8.971,3.443,13.5,1.284-.04,2.544-.074,3.754-.1,7.811-.157,15.705-.261,23.687-.244C113.412,217.034,103.525,196.79,96.276,179.058Z" transform="translate(5.509 -140.434)" fill="url(#linear-gradient-11)" style="mix-blend-mode: multiply;isolation: isolate"/>
            <path id="Trazado_125613" data-name="Trazado 125613" d="M69.351,155.871c.885,1.656,1.732,3.343,2.489,5.111A188.879,188.879,0,0,1,81.037,188,255.175,255.175,0,0,1,87.543,223.4c2.394-.123,4.736-.235,6.976-.327-6.378-24.722-11.434-53.461-23.92-76.861C70.825,150.02,70.523,153.512,69.351,155.871Z" transform="translate(6.243 -132.506)" fill="url(#linear-gradient-12)" style="mix-blend-mode: multiply;isolation: isolate"/>
            <path id="Trazado_125614" data-name="Trazado 125614" d="M60.949,164.932c.138,21.8-7.263,43.218-19.324,62.226,24.587-3.35,53.921-6.21,77.756-7.65a220.063,220.063,0,0,0-7.161-37.068c-2.679-9.273-5.491-19.227-10.034-27.79-2.56-.2-6-1.8-10.559-5.353,1.73,7.809-7.757,36.247-16.474,34.657-5.17-.942-9.868-15.039-8.366-29.852A63.044,63.044,0,0,1,60.949,164.932Z" transform="translate(-31.818 -128.266)" fill="url(#linear-gradient-13)" style="mix-blend-mode: multiply;isolation: isolate"/>
            <path id="Trazado_125615" data-name="Trazado 125615" d="M60.309,157.731a5.915,5.915,0,0,1-1.352-.612c-2.328,20.812-12.26,41.483-20.99,59.728q-.235.488-.475.98c.529-.081,1.082-.159,1.618-.237C51.56,199.459,59.618,178.806,60.309,157.731Z" transform="translate(-37.492 -117.529)" fill="url(#linear-gradient-14)" style="mix-blend-mode: multiply;isolation: isolate"/>
            <path id="Trazado_125616" data-name="Trazado 125616" d="M44.543,151.213c-.344.536-.671,1.073-1.023,1.606a86.46,86.46,0,0,1,1.044,8.9A68.744,68.744,0,0,0,44.543,151.213Z" transform="translate(-29.217 -125.637)" fill="url(#linear-gradient-15)" style="mix-blend-mode: multiply;isolation: isolate"/>
          </g>
        </g>
        <path id="Trazado_125617" data-name="Trazado 125617" d="M20.636,198.69c5.139-8.058,103.864-19.151,149.725-20.064,40.8-.816,84.627-.074,124.348,10.452,4.67,1.234,17.2,3.2,12.82,9.142-2.1,2.864-11.864,3.016-14.882,3.407-10.053,1.3-20.245,1.692-30.362,2.041C181.854,206.449,13.42,210.013,20.636,198.69Z" transform="translate(-13.442 -12.637)" fill="#eb9c00"/>
        <g id="Grupo_876648" data-name="Grupo 876648" transform="translate(6.969 165.832)">
          <path id="Trazado_125618" data-name="Trazado 125618" d="M178.824,190.017c-6.357-1.22-12.782-2.211-19.234-3.042-14.9-1.917-29.876-3.637-44.883-4.931a279.961,279.961,0,0,1,32.963,7.422q14.383,2.16,28.685,4.988a4.36,4.36,0,0,0,1.727-1.258A3.351,3.351,0,0,0,178.824,190.017Z" transform="translate(109.036 -173.445)" fill="#2b2820" style="mix-blend-mode: screen;isolation: isolate"/>
          <path id="Trazado_125619" data-name="Trazado 125619" d="M40.321,191.131c.629.021,1.284.038,1.924.057,1.1-.721,2.211-1.431,3.348-2.1-.816.3-1.637.588-2.451.9C42.188,190.344,41.258,190.742,40.321,191.131Z" transform="translate(6.92 -163.778)" fill="#2b2820" style="mix-blend-mode: screen;isolation: isolate"/>
          <path id="Trazado_125620" data-name="Trazado 125620" d="M107.682,184.879c-20.223,2.219-43.13,5.74-62,15.459,2.43.05,4.89.092,7.413.133,1.02-.161,2.014-.3,2.926-.441h.007c35.815-11.762,72.218-16.835,108.673-17.165A400.413,400.413,0,0,0,107.682,184.879Z" transform="translate(14.285 -172.659)" fill="#2b2820" style="mix-blend-mode: screen;isolation: isolate"/>
          <path id="Trazado_125621" data-name="Trazado 125621" d="M180.2,178.42q-4.94.064-9.838.157c-45.861.914-144.585,12.006-149.725,20.064-2.171,3.407,11.553,5.462,33.985,6.6A157.878,157.878,0,0,1,74.6,196.46a321,321,0,0,1,42.178-11.325A384.307,384.307,0,0,1,180.2,178.42Z" transform="translate(-20.411 -178.42)" fill="#2b2820" style="mix-blend-mode: screen;isolation: isolate"/>
        </g>
        <path id="Trazado_125622" data-name="Trazado 125622" d="M49.435,200.369c54.071.754,127.575-1.065,173.006-2.636,10.118-.349,20.309-.745,30.362-2.041,2.494-.325,9.577-.489,13.155-2.15C194.243,179.413,120.661,176.611,49.435,200.369Z" transform="translate(26.401 -6.702)" fill="#ebcc8f" style="mix-blend-mode: color-burn;isolation: isolate"/>
        <path id="Trazado_125623" data-name="Trazado 125623" d="M56.606,202.3c4.176-7.918,67.361-17.808,96.209-18.209,25.664-.356,53.046.857,76.691,11.712,2.783,1.274,10.4,3.36,6.952,9.19-1.656,2.812-7.79,2.857-9.731,3.208a134.6,134.6,0,0,1-19.269,1.685C156.723,211.756,50.743,213.426,56.606,202.3Z" transform="translate(35.925 -4.87)" fill="#f5c43b"/>
        <path id="Trazado_125624" data-name="Trazado 125624" d="M190.408,193.15a266.29,266.29,0,0,0-61.218-6.21c-16.334.3-32.756,1.749-48.68,5.538-6.789,1.614-15.99,3.445-24.124,6.632-.9,10.317,101.467,8.682,151.06,6.855a144.87,144.87,0,0,0,17.694-1.45A168.424,168.424,0,0,0,190.408,193.15Z" transform="translate(35.936 -0.947)" fill="#c9c1b1" style="mix-blend-mode: color-burn;isolation: isolate"/>
        <path id="Trazado_125625" data-name="Trazado 125625" d="M36.928,142.914c-5.773.422-15.943,5.474-13.933,12.837,1.452,5.315,5.877,2.138,8.585-.828A23.442,23.442,0,0,0,36.928,142.914Z" transform="translate(-10.251 -61.33)" fill="#bee5cc"/>
        <path id="Trazado_125626" data-name="Trazado 125626" d="M43.918,159.8c-2.389,1.656-6.191,7.439-2.741,9.1,1.476.712,3.082-.579,3.5-2.551A11.781,11.781,0,0,0,43.918,159.8Z" transform="translate(13.166 -38.144)" fill="#73d8d3"/>
        <path id="Trazado_125627" data-name="Trazado 125627" d="M35.683,140c-2.506-2.223-10.03-4.912-10.948-.593-.4,1.851,1.485,3.3,3.811,3.225A13.565,13.565,0,0,0,35.683,140Z" transform="translate(-7.58 -69.3)" fill="#95efd1"/>
        <g id="Grupo_876651" data-name="Grupo 876651" transform="translate(55.492 108.002)">
          <path id="Trazado_125628" data-name="Trazado 125628" d="M77.576,176.7c1.26,2.5.1,11.563-.755,17l-.021,0c-8.855.069-18.021.325-18.021.325-1.917-5.728-5.061-16.282-2.363-17.414C60.115,175.079,75.752,173.074,77.576,176.7Z" transform="translate(-20.945 -125.754)" fill="#6b2d29"/>
          <path id="Trazado_125629" data-name="Trazado 125629" d="M77.576,176.7c1.26,2.5.1,11.563-.755,17l-.021,0c-8.855.069-18.021.325-18.021.325-1.917-5.728-5.061-16.282-2.363-17.414C60.115,175.079,75.752,173.074,77.576,176.7Z" transform="translate(-20.945 -125.754)" fill="url(#linear-gradient-16)" style="mix-blend-mode: multiply;isolation: isolate"/>
          <path id="Trazado_125630" data-name="Trazado 125630" d="M73,201.348c.74,2.143,1.284,3.609,1.284,3.609-10.253.985-23.03-2.51-23.03-2.51-2.347-7.484-4.921-24.053-6.25-31.468,7.835,1.834,18.6,4.039,26.324,4.316,13.5.5,31.831-3.172,43.538-5.968-.489,10.886-.354,22.022-.868,33.238a57.733,57.733,0,0,1-23.687,2.688s.332-1.739.712-4.231l.021,0c.852-5.441,2.014-14.5.755-17-1.825-3.628-17.461-1.623-21.16-.088C67.942,185.066,71.086,195.62,73,201.348Z" transform="translate(-35.169 -133.073)" fill="#9f4722"/>
          <path id="Trazado_125631" data-name="Trazado 125631" d="M73,201.348c.74,2.143,1.284,3.609,1.284,3.609-10.253.985-23.03-2.51-23.03-2.51-2.347-7.484-4.921-24.053-6.25-31.468,7.835,1.834,18.6,4.039,26.324,4.316,13.5.5,31.831-3.172,43.538-5.968-.489,10.886-.354,22.022-.868,33.238a57.733,57.733,0,0,1-23.687,2.688s.332-1.739.712-4.231l.021,0c.852-5.441,2.014-14.5.755-17-1.825-3.628-17.461-1.623-21.16-.088C67.942,185.066,71.086,195.62,73,201.348Z" transform="translate(-35.169 -133.073)" fill="url(#linear-gradient-17)" style="mix-blend-mode: multiply;isolation: isolate"/>
          <path id="Trazado_125632" data-name="Trazado 125632" d="M80.353,169.327c-3.023.724-6.492,1.5-10.2,2.252a15.973,15.973,0,0,0,3,7.432C78.595,175.337,80.313,170.25,80.353,169.327Z" transform="translate(-0.654 -133.073)" fill="#dbb991" style="mix-blend-mode: multiply;isolation: isolate"/>
          <g id="Grupo_876649" data-name="Grupo 876649" transform="translate(9.838 37.905)">
            <path id="Trazado_125633" data-name="Trazado 125633" d="M50.578,171.176c.864,3.324,1.827,6.615,2.472,9.823,1.443,7.161,2.89,14.358,4.933,21.376.482.04.97.076,1.459.109a260.874,260.874,0,0,1-5.894-30.811C52.564,171.52,51.57,171.352,50.578,171.176Z" transform="translate(-37.359 -168.44)" fill="url(#linear-gradient-18)" style="mix-blend-mode: screen;isolation: isolate"/>
            <path id="Trazado_125634" data-name="Trazado 125634" d="M51.288,171.418c-2.211-.463-4.337-.937-6.281-1.4,1.329,7.415,3.9,23.984,6.25,31.468,0,0,3,.816,7.254,1.549-2.273-8.869-3.573-17.993-5.979-26.812C52.087,174.6,51.67,173.006,51.288,171.418Z" transform="translate(-45.007 -170.023)" fill="url(#linear-gradient-19)" style="mix-blend-mode: screen;isolation: isolate"/>
          </g>
          <path id="Trazado_125635" data-name="Trazado 125635" d="M120.56,190.3c-11.707,2.8-30.039,6.468-43.538,5.968-7.719-.278-18.489-2.482-26.324-4.316-4.848-1.118-8.589-2.133-9.838-2.463l.019-.069c13.852-14.379,24.734-25.386,40.541-35.373,20.441,9.987,32.144,22.292,50.481,33.328C131.9,187.376,127.363,188.686,120.56,190.3Z" transform="translate(-40.861 -154.048)" fill="#f5bc3f"/>
          <path id="Trazado_125636" data-name="Trazado 125636" d="M120.56,190.3c-11.707,2.8-30.039,6.468-43.538,5.968-7.719-.278-18.489-2.482-26.324-4.316-4.848-1.118-8.589-2.133-9.838-2.463l.019-.069c13.852-14.379,24.734-25.386,40.541-35.373,20.441,9.987,32.144,22.292,50.481,33.328C131.9,187.376,127.363,188.686,120.56,190.3Z" transform="translate(-40.861 -154.048)" fill="url(#linear-gradient-20)" style="mix-blend-mode: multiply;isolation: isolate"/>
          <path id="Trazado_125637" data-name="Trazado 125637" d="M77.749,164.455q-.135.922-.209,1.829a1.148,1.148,0,0,1-.612,1.286c-3.094,1.7-5.367,6.836-6.081,10.357,2.622-.548,5.1-1.1,7.36-1.63a16.33,16.33,0,0,0,2.238-5.113.817.817,0,0,1,.994-.565,17.881,17.881,0,0,0,5.911.373C83.973,168.845,80.815,166.657,77.749,164.455Z" transform="translate(0.303 -139.762)" fill="#dbb991" style="mix-blend-mode: multiply;isolation: isolate"/>
          <g id="Grupo_876650" data-name="Grupo 876650" transform="translate(3.97 2.942)">
            <path id="Trazado_125638" data-name="Trazado 125638" d="M48.176,180.254q-2.8,2.862-5.642,5.69c1.189.3,2.57.648,4.1,1.011,7.638-9.792,15.048-19.8,22.715-29.567C62.1,164.812,55.4,172.868,48.176,180.254Z" transform="translate(-42.534 -152.405)" fill="#e3cfb8" style="mix-blend-mode: multiply;isolation: isolate"/>
            <path id="Trazado_125639" data-name="Trazado 125639" d="M46.724,173.571c1.141-1.879,2.264-3.763,3.419-5.633-1.4,1.822-2.788,3.649-4.193,5.462Z" transform="translate(-37.845 -137.922)" fill="#e3cfb8" style="mix-blend-mode: multiply;isolation: isolate"/>
            <path id="Trazado_125640" data-name="Trazado 125640" d="M60.3,155.288c.548.868,1.122,1.718,1.716,2.56,3.239,2.584,6.857,4.8,10,7.318,7.37,5.887,14.763,11.748,22.292,17.43,1.974,1.49,3.974,2.947,5.963,4.413,3.1-.8,4.945-1.336,4.945-1.336C88.63,175.694,77.411,164.689,60.3,155.288Z" transform="translate(-18.144 -155.288)" fill="#e3cfb8" style="mix-blend-mode: multiply;isolation: isolate"/>
            <path id="Trazado_125641" data-name="Trazado 125641" d="M81.181,170.226c.19,2.012-3.032,3.431-4.56,1.324-2.793-3.851-5.977-7.46-9-11.176,1.011,4.266,2,8.537,2.85,12.841.581,2.952-3.939,4.212-4.523,1.246C64.93,169.3,63.7,164.19,62.481,159.074a193.829,193.829,0,0,1-6,29.223c-.107.361-.221.714-.33,1.075,13.124.463,30.742-2.985,42.437-5.74q-3.353-2.52-6.686-5.075C88.311,175.8,84.75,173.009,81.181,170.226Z" transform="translate(-23.838 -150.091)" fill="#e3cfb8" style="mix-blend-mode: multiply;isolation: isolate"/>
            <path id="Trazado_125642" data-name="Trazado 125642" d="M53.082,184.946c1.239.164,2.449.3,3.623.413a206.442,206.442,0,0,0,5.3-23.54C58.921,169.507,56.176,177.365,53.082,184.946Z" transform="translate(-28.054 -146.322)" fill="#e3cfb8" style="mix-blend-mode: multiply;isolation: isolate"/>
            <path id="Trazado_125643" data-name="Trazado 125643" d="M48.657,181.937c1.376.278,2.779.541,4.176.79.256-.61.529-1.212.783-1.822,2.463-5.949,4.679-12.087,7.007-18.19C56.6,169.1,52.586,175.5,48.657,181.937Z" transform="translate(-34.128 -145.092)" fill="#e3cfb8" style="mix-blend-mode: multiply;isolation: isolate"/>
          </g>
        </g>
        <g id="Grupo_876653" data-name="Grupo 876653" transform="translate(8.098 125.703)">
          <path id="Trazado_125644" data-name="Trazado 125644" d="M55.471,211.876c2.741-17.328-19.172-33.869-30.191-43.313,0,0,35.274,18.966,33.008,43.564C58.288,212.127,56.43,214.581,55.471,211.876Z" transform="translate(-14.856 -151.823)" fill="#6b2d29"/>
          <g id="Grupo_876652" data-name="Grupo 876652" transform="translate(15.812 20.373)">
            <path id="Trazado_125645" data-name="Trazado 125645" d="M27.551,171.034c1.431,1.22,2.911,2.5,4.428,3.851a9.361,9.361,0,0,0,.928-.94c-1.63-1.3-3.255-2.612-4.933-3.851C27.838,170.412,27.7,170.723,27.551,171.034Z" transform="translate(-27.551 -170.094)" fill="url(#linear-gradient-21)" style="mix-blend-mode: screen;isolation: isolate"/>
            <path id="Trazado_125646" data-name="Trazado 125646" d="M31.5,172.6a11.064,11.064,0,0,1-1.046,1.092c1.443,1.341,2.881,2.733,4.285,4.171.088-.047.176-.1.263-.152a10.931,10.931,0,0,0,1.011-1.146C34.579,175.175,33.06,173.868,31.5,172.6Z" transform="translate(-23.564 -166.659)" fill="url(#linear-gradient-22)" style="mix-blend-mode: screen;isolation: isolate"/>
            <path id="Trazado_125647" data-name="Trazado 125647" d="M32.629,175.9c1.713,1.8,3.365,3.656,4.871,5.578a15.066,15.066,0,0,0,1.4-1.132,50.1,50.1,0,0,0-4.883-5.659A6.345,6.345,0,0,1,32.629,175.9Z" transform="translate(-20.58 -163.786)" fill="url(#linear-gradient-23)" style="mix-blend-mode: screen;isolation: isolate"/>
            <path id="Trazado_125648" data-name="Trazado 125648" d="M36.7,178.057c-.026-.043-.057-.081-.085-.123a6.41,6.41,0,0,1-1.286,1.058,46.2,46.2,0,0,1,2.871,4.485,4.967,4.967,0,0,0,1.433-.23A57.747,57.747,0,0,0,36.7,178.057Z" transform="translate(-16.879 -159.331)" fill="url(#linear-gradient-24)" style="mix-blend-mode: screen;isolation: isolate"/>
            <path id="Trazado_125649" data-name="Trazado 125649" d="M40.874,187.378c-.709-2.09-1.549-4.157-2.468-6.183a8.1,8.1,0,0,1-1.336.335,27.148,27.148,0,0,1,1.974,5.934A7.544,7.544,0,0,0,40.874,187.378Z" transform="translate(-14.484 -154.855)" fill="url(#linear-gradient-25)" style="mix-blend-mode: screen;isolation: isolate"/>
            <path id="Trazado_125650" data-name="Trazado 125650" d="M40.859,187.061c-.225-.859-.5-1.72-.766-2.582a8.92,8.92,0,0,1-2.071.187,19.529,19.529,0,0,1,.057,4.5,4.394,4.394,0,0,0,2.6.982c.045,0,.085-.019.131-.024A25.463,25.463,0,0,0,40.859,187.061Z" transform="translate(-13.178 -150.347)" fill="url(#linear-gradient-26)" style="mix-blend-mode: screen;isolation: isolate"/>
          </g>
          <path id="Trazado_125651" data-name="Trazado 125651" d="M28.06,174.831c-4.919-7.519,3.2-9.482,7.9-13.323-2.847,10.153-2.456,9.719-4.461,12.951a16.882,16.882,0,0,1,14.882-5.374c-.816,5.234-10.92,9.738-15.452,9.007,3.972-.028,6.371,8.782,5.949,12.839-7.078-2.159-8-7.7-9.211-11.949,1.839,6.07-4.328,14.125-4.328,14.125C20.223,189.49,18.528,174.338,28.06,174.831Z" transform="translate(-20.887 -161.508)" fill="#88940a"/>
          <path id="Trazado_125652" data-name="Trazado 125652" d="M28.06,174.831c-4.919-7.519,3.2-9.482,7.9-13.323-2.847,10.153-2.456,9.719-4.461,12.951a16.882,16.882,0,0,1,14.882-5.374c-.816,5.234-10.92,9.738-15.452,9.007,3.972-.028,6.371,8.782,5.949,12.839-7.078-2.159-8-7.7-9.211-11.949,1.839,6.07-4.328,14.125-4.328,14.125C20.223,189.49,18.528,174.338,28.06,174.831Z" transform="translate(-20.887 -161.508)" fill="url(#linear-gradient-27)" style="mix-blend-mode: multiply;isolation: isolate"/>
          <path id="Trazado_125653" data-name="Trazado 125653" d="M24.111,167.891c-2.024,3.811-2.306,8.575-2.067,12.889.045.816.112,1.855.237,2.961,1.08-1.571,3.863-6,4.176-10.31C26.18,170.219,26.458,167.891,24.111,167.891Z" transform="translate(-19.397 -152.746)" fill="url(#linear-gradient-28)" style="mix-blend-mode: screen;isolation: isolate"/>
          <path id="Trazado_125654" data-name="Trazado 125654" d="M31.295,180.175c.095-3.018-1.037-7.828-3.047-10.407a8.017,8.017,0,0,1-3.272-.911C25.7,174.189,30.621,179.677,31.295,180.175Z" transform="translate(-15.274 -151.419)" fill="url(#linear-gradient-29)" style="mix-blend-mode: screen;isolation: isolate"/>
          <path id="Trazado_125655" data-name="Trazado 125655" d="M29.971,169.722A13.657,13.657,0,0,1,24.6,171.7a7.738,7.738,0,0,0,3.115,1.215c4.447-.375,11.192-3.633,13.1-7.6C36.793,165.674,33.473,167.672,29.971,169.722Z" transform="translate(-15.791 -156.287)" fill="url(#linear-gradient-30)" style="mix-blend-mode: screen;isolation: isolate"/>
          <path id="Trazado_125656" data-name="Trazado 125656" d="M24.463,174.29a4.088,4.088,0,0,0,3.073-1.248c1.239-2.128,1.31-3.016,3.637-11.335a21.387,21.387,0,0,0-3.63,4.06c-1.319,1.991-3.963,5.861-3.087,8.48C24.463,174.264,24.458,174.276,24.463,174.29Z" transform="translate(-16.227 -161.235)" fill="url(#linear-gradient-31)" style="mix-blend-mode: screen;isolation: isolate"/>
        </g>
        <g id="Grupo_876656" data-name="Grupo 876656" transform="translate(0 147.813)">
          <path id="Trazado_125657" data-name="Trazado 125657" d="M27.354,180.521c3.2-.2,5.3,10.352,2.057,14.837-2.767-4.651-5.851-8.525-2.513-14.123-1.573,1.877-2.394,4.784-3.853,6.94-1.284,1.9-3.274,3.906-5.567,4.518-.138-5.415,2.774-11.043,8.115-12.573-4.2-1.673-2.427-8.2.252-9.294,1.962,2.432,1.768,6.724.961,8.879,2.15-4.836,4.2-6.276,8.174-5.277C34.862,177.951,30.617,180.315,27.354,180.521Z" transform="translate(-17.474 -170.826)" fill="#9aa61b"/>
          <path id="Trazado_125658" data-name="Trazado 125658" d="M27.354,180.521c3.2-.2,5.3,10.352,2.057,14.837-2.767-4.651-5.851-8.525-2.513-14.123-1.573,1.877-2.394,4.784-3.853,6.94-1.284,1.9-3.274,3.906-5.567,4.518-.138-5.415,2.774-11.043,8.115-12.573-4.2-1.673-2.427-8.2.252-9.294,1.962,2.432,1.768,6.724.961,8.879,2.15-4.836,4.2-6.276,8.174-5.277C34.862,177.951,30.617,180.315,27.354,180.521Z" transform="translate(-17.474 -170.826)" fill="url(#linear-gradient-32)" style="mix-blend-mode: screen;isolation: isolate"/>
          <g id="Grupo_876654" data-name="Grupo 876654" transform="translate(1.333 0.698)">
            <path id="Trazado_125659" data-name="Trazado 125659" d="M23.539,175.909c-.456-.09-.918-.187-1.379-.294a16.5,16.5,0,0,0,1.86,12.694c2.005-3.362,1.526-9.325-.04-12.4A1.065,1.065,0,0,1,23.539,175.909Z" transform="translate(-13.132 -164.949)" fill="url(#linear-gradient-33)" style="mix-blend-mode: screen;isolation: isolate"/>
            <path id="Trazado_125660" data-name="Trazado 125660" d="M18.5,183.415c-.126.6-.311,1.564-.467,2.679a12.2,12.2,0,0,0,4.238-3.984,40.445,40.445,0,0,0,2.344-4.485,16.579,16.579,0,0,1,.553-2.38c-1.118.944-2.615,1.417-3.63,2.472A11.97,11.97,0,0,0,18.5,183.415Z" transform="translate(-18.036 -165.457)" fill="url(#linear-gradient-34)" style="mix-blend-mode: screen;isolation: isolate"/>
            <path id="Trazado_125661" data-name="Trazado 125661" d="M22.058,171.12c-1.542,2.247-2.238,4.807-.394,6.689a1.423,1.423,0,0,1,.41.814,10.426,10.426,0,0,1,.992-1.651A10.031,10.031,0,0,0,22.058,171.12Z" transform="translate(-14.572 -171.12)" fill="url(#linear-gradient-35)" style="mix-blend-mode: screen;isolation: isolate"/>
            <path id="Trazado_125662" data-name="Trazado 125662" d="M27.426,172.639a10.916,10.916,0,0,0-5.576,5.208c.256.071.513.15.776.206,2.9-.617,6.008-2.665,6.3-5.581A3.613,3.613,0,0,0,27.426,172.639Z" transform="translate(-12.8 -169.279)" fill="url(#linear-gradient-36)" style="mix-blend-mode: screen;isolation: isolate"/>
          </g>
          <path id="Trazado_125663" data-name="Trazado 125663" d="M21.26,175.04c10.594,5.1,24.663,15.2,28.4,27.256a2.514,2.514,0,0,0,3.206,1.825C48.564,182.846,21.26,175.04,21.26,175.04Z" transform="translate(-12.277 -165.041)" fill="#6b2d29"/>
          <g id="Grupo_876655" data-name="Grupo 876655" transform="translate(16.844 13.363)">
            <path id="Trazado_125664" data-name="Trazado 125664" d="M24.573,177.5c1.642,1.046,3.286,2.176,4.9,3.388a4.133,4.133,0,0,0,1.2-1.357c-1.95-1.21-3.842-2.216-5.588-3.073C24.917,176.809,24.77,177.17,24.573,177.5Z" transform="translate(-24.573 -176.458)" fill="url(#linear-gradient-37)" style="mix-blend-mode: screen;isolation: isolate"/>
            <path id="Trazado_125665" data-name="Trazado 125665" d="M33.083,181.882c-.562-.555-1.12-1.115-1.7-1.659-.933-.721-1.877-1.381-2.819-2.012a6.533,6.533,0,0,1-1.231,1.554c1.4,1.122,2.767,2.3,4.06,3.535A3.991,3.991,0,0,0,33.083,181.882Z" transform="translate(-20.787 -174.051)" fill="url(#linear-gradient-38)" style="mix-blend-mode: screen;isolation: isolate"/>
            <path id="Trazado_125666" data-name="Trazado 125666" d="M33.914,183.148c-.959-1.108-1.991-2.183-3.049-3.244a4.518,4.518,0,0,1-1.659,1.459,48.275,48.275,0,0,1,3.678,3.951,5.17,5.17,0,0,0,2.4-.415C34.841,184.31,34.4,183.717,33.914,183.148Z" transform="translate(-18.213 -171.727)" fill="url(#linear-gradient-39)" style="mix-blend-mode: screen;isolation: isolate"/>
            <path id="Trazado_125667" data-name="Trazado 125667" d="M33.712,183.2a7.871,7.871,0,0,1-1.986.683,31.18,31.18,0,0,1,2.249,3.927,6.087,6.087,0,0,0,2.423,1.056A35.692,35.692,0,0,0,33.712,183.2Z" transform="translate(-14.754 -167.2)" fill="url(#linear-gradient-40)" style="mix-blend-mode: screen;isolation: isolate"/>
          </g>
        </g>
      </g>
      <g id="Grupo_876659" data-name="Grupo 876659" transform="translate(137.522 230.029)">
        <path id="Trazado_125668" data-name="Trazado 125668" d="M92.059,208.408c-.342-17.777-7.166-30.087-18.932-43.645,0,0,15.834,18.683,15.264,44.94C88.391,209.7,91.077,210.861,92.059,208.408Z" transform="translate(-61.123 -152.835)" fill="#6b2d29"/>
        <g id="Grupo_876658" data-name="Grupo 876658" transform="translate(15.105 16.062)">
          <path id="Trazado_125669" data-name="Trazado 125669" d="M79.088,174.566c.672,2.173,1.246,4.352,1.744,6.513a2.981,2.981,0,0,0,.33-.109c-.61-2.159-1.307-4.285-2.06-6.416Z" transform="translate(-68.045 -155.456)" fill="url(#linear-gradient-41)" style="mix-blend-mode: screen;isolation: isolate"/>
          <path id="Trazado_125670" data-name="Trazado 125670" d="M81.457,182.8c-.01-.055-.021-.109-.031-.164-.259-1.459-.579-2.883-.925-4.3-.147.05-.3.085-.444.123.4,1.981.745,3.944,1,5.832.024.176.036.361.057.541.2-.085.408-.18.605-.28-.009-.069-.014-.14-.024-.206C81.618,183.835,81.545,183.315,81.457,182.8Z" transform="translate(-66.715 -150.253)" fill="url(#linear-gradient-42)" style="mix-blend-mode: screen;isolation: isolate"/>
          <path id="Trazado_125671" data-name="Trazado 125671" d="M81.349,182.835c-.045-.491-.116-.973-.178-1.457-.2.083-.415.149-.626.225.192,1.713.332,3.441.4,5.185a2.391,2.391,0,0,0,.593-.6c-.007-.465-.04-.928-.057-1.39C81.44,184.145,81.409,183.49,81.349,182.835Z" transform="translate(-66.045 -146.088)" fill="url(#linear-gradient-43)" style="mix-blend-mode: screen;isolation: isolate"/>
          <path id="Trazado_125672" data-name="Trazado 125672" d="M74.434,166.695c.973,1.49,2.09,3.317,3.255,5.486a5.222,5.222,0,0,0,.968-.536c-1.205-1.711-2.506-3.422-3.879-5.139C74.662,166.569,74.548,166.633,74.434,166.695Z" transform="translate(-74.434 -166.505)" fill="url(#linear-gradient-44)" style="mix-blend-mode: screen;isolation: isolate"/>
          <path id="Trazado_125673" data-name="Trazado 125673" d="M76.208,170.006c.762,1.509,1.526,3.134,2.266,4.89a3.79,3.79,0,0,0,1.248-.166c-.75-1.818-1.592-3.583-2.494-5.306A7.02,7.02,0,0,1,76.208,170.006Z" transform="translate(-71.999 -162.497)" fill="url(#linear-gradient-45)" style="mix-blend-mode: screen;isolation: isolate"/>
          <path id="Trazado_125674" data-name="Trazado 125674" d="M77.336,172.3c.788,1.946,1.542,4.008,2.216,6.212a3.414,3.414,0,0,0,1.094-.479c-.624-2.007-1.338-4.008-2.117-5.977A4.936,4.936,0,0,1,77.336,172.3Z" transform="translate(-70.45 -158.889)" fill="url(#linear-gradient-46)" style="mix-blend-mode: screen;isolation: isolate"/>
          <path id="Trazado_125675" data-name="Trazado 125675" d="M78.329,175.253c.522,1.749,1.006,3.559,1.414,5.453a3.947,3.947,0,0,0,1.357.187c-.484-2.017-1.042-4.065-1.668-6.117A3.9,3.9,0,0,1,78.329,175.253Z" transform="translate(-69.087 -155.151)" fill="url(#linear-gradient-47)" style="mix-blend-mode: screen;isolation: isolate"/>
          <path id="Trazado_125676" data-name="Trazado 125676" d="M80.564,178.455a6.218,6.218,0,0,1-1.412.031,64.772,64.772,0,0,1,.833,6.779,6.212,6.212,0,0,0,1.668-.318c-.178-1.614-.408-3.22-.731-4.822C80.813,179.575,80.685,179.013,80.564,178.455Z" transform="translate(-67.957 -150.1)" fill="url(#linear-gradient-48)" style="mix-blend-mode: screen;isolation: isolate"/>
          <path id="Trazado_125677" data-name="Trazado 125677" d="M79.529,181.844c.083,1.566.112,3.163.074,4.788a3.805,3.805,0,0,0,1.941.211q-.061-2.641-.308-5.275A8.064,8.064,0,0,1,79.529,181.844Z" transform="translate(-67.44 -145.826)" fill="url(#linear-gradient-49)" style="mix-blend-mode: screen;isolation: isolate"/>
        </g>
        <path id="Trazado_125678" data-name="Trazado 125678" d="M80.959,171.087c3.149-5.17,6.563-10.136,10.042-11.112-11.411-1.848-13.038,7.519-11.871,9.861-6.39-5.173-11.971,6.129-10.939,11.541,2.185-5.192,4.477-7.825,10.276-8.535-10.642,5.27-6.105,14.927-4.549,17.117-.09-5.265,8.07-8.827,7.534-16.783,3.626,5.865,14.237.717,16.935-1.428C90.764,165.49,85.2,167.927,80.959,171.087Z" transform="translate(-68.068 -159.736)" fill="#9aa61b"/>
        <path id="Trazado_125679" data-name="Trazado 125679" d="M80.959,171.087c3.149-5.17,6.563-10.136,10.042-11.112-11.411-1.848-13.038,7.519-11.871,9.861-6.39-5.173-11.971,6.129-10.939,11.541,2.185-5.192,4.477-7.825,10.276-8.535-10.642,5.27-6.105,14.927-4.549,17.117-.09-5.265,8.07-8.827,7.534-16.783,3.626,5.865,14.237.717,16.935-1.428C90.764,165.49,85.2,167.927,80.959,171.087Z" transform="translate(-68.068 -159.736)" fill="url(#linear-gradient-50)" style="mix-blend-mode: screen;isolation: isolate"/>
        <path id="Trazado_125680" data-name="Trazado 125680" d="M76.088,166.957c.043,0,.083-.017.128-.017.228-.059.494-.095.738-.147a3.575,3.575,0,0,0,2.124-2.356c-7.066-.774-9.65,3.863-10.976,8.4a8.35,8.35,0,0,0,.09,2.207c1.692-4.022,3.488-6.485,6.9-7.726A1.424,1.424,0,0,1,76.088,166.957Z" transform="translate(-68.067 -153.399)" fill="url(#linear-gradient-51)" style="mix-blend-mode: screen;isolation: isolate"/>
        <path id="Trazado_125681" data-name="Trazado 125681" d="M72.971,169.866a3.1,3.1,0,0,0,2.261-.51c2.866-4.551,5.922-8.632,9.038-9.505C83.207,159.682,74.551,160.145,72.971,169.866Z" transform="translate(-61.337 -159.611)" fill="url(#linear-gradient-52)" style="mix-blend-mode: screen;isolation: isolate"/>
        <path id="Trazado_125682" data-name="Trazado 125682" d="M76.262,168.756a4.329,4.329,0,0,0,1.794.821c4.546.411,10.369-2.577,12.27-4.086-.154-.126-.3-.23-.453-.349a31.175,31.175,0,0,0-15.931.394A8.533,8.533,0,0,0,76.262,168.756Z" transform="translate(-60.005 -153.478)" fill="url(#linear-gradient-53)" style="mix-blend-mode: screen;isolation: isolate"/>
        <path id="Trazado_125683" data-name="Trazado 125683" d="M78.246,165.5l-.173-.569c-2.038,1.279-9.017,7.714-7.6,17.25.149.254.292.484.413.655-.088-5.113,7.588-8.635,7.534-16.125C78.36,166.3,78.305,165.9,78.246,165.5Z" transform="translate(-65.029 -152.608)" fill="url(#linear-gradient-54)" style="mix-blend-mode: screen;isolation: isolate"/>
        <path id="Trazado_125684" data-name="Trazado 125684" d="M74.1,164.27a3.542,3.542,0,0,0,.453-.285C74.4,164.078,74.253,164.172,74.1,164.27Z" transform="translate(-59.786 -153.903)" fill="url(#linear-gradient-55)" style="mix-blend-mode: screen;isolation: isolate"/>
      </g>
      <path id="Trazado_125685" data-name="Trazado 125685" d="M49.733,188.11c-.84,2.136,7.085,1.224,7.078,0C56.806,187.042,50.393,186.444,49.733,188.11Z" transform="translate(44.199 107.821)" fill="#f5c43b"/>
      <g id="Grupo_876660" data-name="Grupo 876660" transform="translate(187.208 303.812)">
        <path id="Trazado_125686" data-name="Trazado 125686" d="M89.093,193c-1.179,2.987,10.236,1.457,9.9,0S90.014,190.67,89.093,193Z" transform="translate(-89.008 -189.829)" fill="#bf6600"/>
        <path id="Trazado_125687" data-name="Trazado 125687" d="M103.414,193.542c.392-2.7-8.018-2.2-8.018.187C95.4,195.008,103.221,194.873,103.414,193.542Z" transform="translate(-80.239 -189.614)" fill="#bf6600"/>
        <path id="Trazado_125688" data-name="Trazado 125688" d="M92.9,192.012c-.268.971,5.351.982,5.569,0S93.465,189.94,92.9,192.012Z" transform="translate(-83.684 -190.832)" fill="#bf6600"/>
      </g>
      <path id="Trazado_125689" data-name="Trazado 125689" d="M46.684,187.849c-.266.97,5.353.982,5.569,0S47.256,185.78,46.684,187.849Z" transform="translate(40.087 107.268)" fill="#f5c43b"/>
      <path id="Trazado_125690" data-name="Trazado 125690" d="M112.77,187.551c-.168.61,3.362.617,3.5,0S113.126,186.249,112.77,187.551Z" transform="translate(130.813 107.459)" fill="#eb9c00"/>
    </g>
  </g>
</svg>
